{
  "accessors": [
    {
      "bufferView": 2,
      "componentType": 5126,
      "count": 4886,
      "max": [
        7.14686393737793,
        2.2527809143066406,
        11.032912254333496
      ],
      "min": [
        -6.860598087310791,
        -2.138917922973633,
        -0.011606000363826752
      ],
      "type": "VEC3"
    },
    {
      "bufferView": 2,
      "byteOffset": 58632,
      "componentType": 5126,
      "count": 4886,
      "max": [
        0.9991123080253601,
        0.9999270439147949,
        0.9998557567596436
      ],
      "min": [
        -0.999683678150177,
        -0.9997778534889221,
        -0.9996638894081116
      ],
      "type": "VEC3"
    },
    {
      "bufferView": 1,
      "componentType": 5126,
      "count": 4886,
      "max": [
        0.8268129825592041,
        0.9952210187911987
      ],
      "min": [
        0.04271399974822998,
        0.09540099650621414
      ],
      "type": "VEC2"
    },
    {
      "bufferView": 0,
      "componentType": 5125,
      "count": 10959,
      "type": "SCALAR"
    }
  ],
  "asset": {
    "extras": {
      "author": "CEC_Disney (https://sketchfab.com/sherylsandberg14)",
      "license": "CC-BY-4.0 (http://creativecommons.org/licenses/by/4.0/)",
      "source": "https://sketchfab.com/3d-models/curious-george-the-video-game-with-1-texture-2e8c0c03bac94e64a57a6180c0350d9b",
      "title": "Curious George The Video Game with 1 texture"
    },
    "generator": "Sketchfab-15.33.0",
    "version": "2.0"
  },
  "bufferViews": [
    {
      "buffer": 0,
      "byteLength": 43836,
      "name": "floatBufferViews",
      "target": 34963
    },
    {
      "buffer": 0,
      "byteLength": 39088,
      "byteOffset": 43836,
      "byteStride": 8,
      "name": "floatBufferViews",
      "target": 34962
    },
    {
      "buffer": 0,
      "byteLength": 117264,
      "byteOffset": 82924,
      "byteStride": 12,
      "name": "floatBufferViews",
      "target": 34962
    }
  ],
  "buffers": [
    {
      "byteLength": 200188,
      "uri": "scene.bin"
    }
  ],
  "images": [
    {
      "uri": "textures/monke_baseColor.png"
    }
  ],
  "materials": [
    {
      "doubleSided": true,
      "name": "monke",
      "pbrMetallicRoughness": {
        "baseColorTexture": {
          "index": 0
        },
        "metallicFactor": 0.0
      }
    }
  ],
  "meshes": [
    {
      "name": "Object_0",
      "primitives": [
        {
          "attributes": {
            "NORMAL": 1,
            "POSITION": 0,
            "TEXCOORD_0": 2
          },
          "indices": 3,
          "material": 0,
          "mode": 4
        }
      ]
    }
  ],
  "nodes": [
    {
      "children": [
        1
      ],
      "matrix": [
        1.0,
        0.0,
        0.0,
        0.0,
        0.0,
        2.220446049250313e-16,
        -1.0,
        0.0,
        0.0,
        1.0,
        2.220446049250313e-16,
        0.0,
        0.0,
        0.0,
        0.0,
        1.0
      ],
      "name": "Sketchfab_model"
    },
    {
      "children": [
        2
      ],
      "name": "monke george.obj.cleaner.materialmerger.gles"
    },
    {
      "mesh": 0,
      "name": "Object_2"
    }
  ],
  "samplers": [
    {
      "magFilter": 9729,
      "minFilter": 9987,
      "wrapS": 10497,
      "wrapT": 10497
    }
  ],
  "scene": 0,
  "scenes": [
    {
      "name": "Sketchfab_Scene",
      "nodes": [
        0
      ]
    }
  ],
  "textures": [
    {
      "sampler": 0,
      "source": 0
    }
  ]
}
