<svg xmlns="http://www.w3.org/2000/svg" xmlns:xlink="http://www.w3.org/1999/xlink" version="1.1" width="545.89093" height="318.80153" viewBox="0,0,545.89093,318.80153"><g><g data-paper-data="{&quot;isPaintingLayer&quot;:true}" fill-rule="nonzero" stroke-linejoin="miter" stroke-miterlimit="10" stroke-dasharray="" stroke-dashoffset="0" style="mix-blend-mode: normal"><g data-paper-data="{&quot;origPos&quot;:null}"><path d="M 1.4723 13.9407 L 87.8736 16.9407 L 110.7752 57.9407 L 152.4144 74.9407 L 107.6522 97.9407 L 13.9641 98.9407 " fill="none" stroke="#585757" stroke-width="2" stroke-linecap="round"/><path d="M 108.6932 56.9407 L 87.8736 62.9407 L 55.6033 16.9407 " fill="none" stroke="#585757" stroke-width="2" stroke-linecap="round"/><path d="M 38.2797 14.6973 L 39.324 14.1216 C 42.5664 15.0561 45.9143 15.3496 49.333 15.3496 C 57.8239 15.6634 59.8885 22.8874 63.9424 28.7298 C 66.2799 32.0985 69.3366 34.5372 71.9783 37.5824 C 74.105 40.1472 74.8015 43.2436 76.6394 45.8892 C 77.8662 47.6551 79.7046 48.9994 80.8586 50.8342 C 81.9762 52.6112 82.5499 54.7512 83.5159 56.6092 C 84.4811 58.4658 85.5545 58.9616 86.9858 60.6092 C 87.2846 60.9531 87.7841 61.3393 87.6798 61.7759 L 88.3511 62.9044 C 88.3615 62.9211 88.3717 62.9379 88.3816 62.9549 C 88.4407 62.9311 88.4998 62.9078 88.559 62.885 C 91.9804 61.5706 97.2985 61.3086 100.0629 59.0957 C 102.5958 57.2725 105.8625 55.7636 109.1387 55.9468 C 111.3939 56.073 112.9132 58.6147 114.8519 59.0909 C 115.8416 59.334 117.7556 59.7629 119.2442 60.4945 C 119.5178 60.4007 119.8125 60.3496 120.1196 60.3496 C 120.6059 60.3496 121.0611 60.4777 121.4505 60.7007 L 123.8397 62.0123 L 123.8157 62.0528 C 125.2519 62.9259 126.5307 63.7548 128.0607 64.4968 C 128.7324 64.6342 129.4059 64.7802 130.0552 65.0087 C 134.4325 66.549 138.018 68.3874 142.1048 70.4819 C 143.6028 71.2496 145.376 71.17 147.0759 71.4275 L 147.1692 71.2184 L 149.5431 72.1957 C 150.4999 72.5651 151.1755 73.4649 151.1755 74.5162 C 151.1755 75.3955 150.703 76.1687 149.9886 76.6144 C 149.9914 76.6216 149.9941 76.6288 149.9967 76.636 C 150.1646 77.0859 149.4693 77.4538 149.1293 77.8027 C 147.0618 79.9241 143.1822 81.5545 140.1824 82.2749 C 137.8392 82.3774 135.4666 85.2706 133.3053 86.0162 C 133.0205 86.1145 132.6604 86.1235 132.2633 86.073 C 131.5846 87.062 128.4926 88.7054 127.8334 89.0208 C 126.6467 89.5888 125.2326 89.6665 124.0899 90.3124 C 123.1648 90.8353 122.2241 93.209 120.9432 93.7085 C 118.6103 94.6181 116.0669 94.5481 113.6801 95.3124 L 113.5487 94.9922 C 113.3301 95.1564 113.1007 95.3072 112.8571 95.4407 C 112.405 95.6885 111.7431 95.6962 111.2957 95.4407 C 111.2866 95.4356 111.2791 95.4295 111.2729 95.4228 C 111.0978 95.4455 110.9276 95.45 110.7689 95.4432 C 109.9419 96.3672 108.8284 97.8089 108.4515 97.7085 L 107.4105 98.7085 C 106.9395 99.1609 106.2889 99.4407 105.5703 99.4407 C 104.9856 99.4407 104.446 99.2555 104.0115 98.9429 C 103.5727 99.5266 103.0695 100.047 102.4473 100.4407 C 101.5251 101.0244 97.9163 100.4407 96.7219 100.4407 C 92.211 100.4407 87.7001 100.4407 83.1892 100.4407 C 70.3505 100.4407 57.5117 100.4407 44.673 100.4407 C 36.6921 100.4407 28.7113 100.4407 20.7304 100.4407 C 18.9125 100.4407 13.8114 101.2906 12.6206 99.8124 C 11.5037 98.426 10.5043 96.8689 10.0419 95.173 C 9.9176 94.7169 10.6002 94.2579 11.0829 94.173 C 11.3604 94.1241 11.2647 95.1953 11.3616 94.9407 C 11.5404 94.4711 11.3616 93.9407 11.3616 93.4407 C 11.3616 92.7823 11.3616 92.1239 11.3616 91.4654 C 10.6616 91.6107 9.9568 91.7456 9.2797 91.9407 L 9.2797 90.4407 C 8.8334 90.1835 9.1543 89.426 9.2797 88.9407 C 9.6653 87.4479 10.483 85.9981 11.2252 84.5427 C 7.9874 84.635 4.6567 84.638 1.7141 83.7085 C -0.3172 83.0668 0.0137 77.9569 0.0287 77.8606 C 0.2489 76.457 1.7668 77.191 2.4299 76.554 C 2.5385 76.4496 2.6356 76.3362 2.7255 76.2171 C 2.3995 70.6681 4.633 69.8229 8.1341 67.0202 L 8.2273 67.1178 C 8.2316 66.8925 8.2356 66.6668 8.2387 66.4407 C 8.2624 64.728 7.2896 62.1857 8.8369 61.3344 C 8.9817 61.2547 9.1294 61.1819 9.2797 61.115 L 9.2797 59.9407 C 9.7398 60.2011 10.2341 60.4224 10.7318 60.6398 C 10.9397 60.5904 11.15 60.5464 11.3616 60.5057 C 11.3616 59.6507 11.3616 58.7957 11.3616 57.9407 C 11.3616 57.4407 10.9417 56.7361 11.3616 56.4407 L 11.3616 37.9407 C 11.3616 37.2741 10.8197 36.3572 11.3616 35.9407 C 11.3616 35.9261 11.3616 35.4554 11.3616 35.4407 L 11.3616 33.9407 C 11.8087 34.1125 12.274 34.2541 12.7436 34.3888 C 13.0698 29.4943 13.3116 24.6087 13.4033 19.6913 C 13.0657 19.7657 12.7309 19.8461 12.4026 19.9407 L 12.4026 18.4407 C 11.9858 18.2005 12.0082 17.3903 12.33 17.0137 C 12.2449 15.9828 12.2183 14.9532 13.0567 14.6502 C 13.1846 14.6039 13.3136 14.5619 13.4436 14.5237 L 13.4436 13.9407 C 13.7187 14.0792 14.0035 14.2049 14.2927 14.3249 C 15.711 14.0678 17.2108 14.1231 18.6485 13.9407 L 18.6485 14.2669 C 19.3393 14.3084 20.0477 14.4407 20.7305 14.4407 C 23.6799 14.4407 26.6294 14.4407 29.5788 14.4407 C 30.6024 14.4407 33.8777 13.9604 35.3132 14.2512 C 36.8558 13.4075 38.2797 14.6974 38.2797 14.6974 Z M 133.3053 81.0162 C 133.3855 80.9895 133.3066 80.9758 133.1807 80.9584 C 133.2106 80.9805 133.24 81.0032 133.2688 81.0265 C 133.2813 81.0236 133.2935 81.0202 133.3053 81.0162 Z M 118.4855 67.7179 C 118.5367 67.7195 118.5879 67.721 118.639 67.7226 C 118.7093 67.5058 118.8885 67.2195 118.7674 67.3026 C 118.6457 67.3862 118.5591 67.5439 118.4855 67.718 Z M 9.4132 77.7313 L 9.1852 77.0741 C 8.8708 77.0709 8.5555 77.078 8.2385 77.0874 C 8.0556 77.3189 7.9059 77.564 7.8016 77.8274 C 7.4161 78.383 6.9677 78.8994 6.4775 79.3796 C 8.0726 79.1174 9.736 79.4407 11.3616 79.4407 C 11.3616 78.7946 11.3616 78.1485 11.3616 77.5025 C 10.7086 77.5661 10.0555 77.629 9.4132 77.7313 Z " fill="#4d4d4e" stroke="none" stroke-width="0.5" stroke-linecap="butt"/><path d="M 119.8973 64.4819 C 122.015 65.935 120.5023 67.9693 120.5023 67.9693 L 120.2931 68.5162 C 120.2931 68.9607 120.6404 69.5559 120.2931 69.8495 C 120.0223 70.0786 119.1825 68.9974 119.3843 69.2847 C 120.0849 70.2822 121.8359 71.2883 122.8467 71.9819 C 124.869 73.4573 127.3688 74.1947 129.4471 75.6181 C 130.0045 75.9998 130.2124 76.7762 130.8136 77.0909 C 132.6721 78.0637 136.1615 78.3039 135.9715 81.1312 C 135.8649 82.718 135.6401 84.338 135.0245 85.8141 C 134.5666 86.9119 131.1384 86.7816 130.4605 87.1034 C 129.5147 87.5525 128.8709 88.4431 128.0036 89.0202 C 126.043 90.3246 123.7031 90.7486 121.8057 92.0506 C 118.3179 94.4438 114.6306 96.1421 111.0288 98.1034 C 109.7478 98.801 108.6667 99.8714 107.2808 100.3496 C 102.8151 101.8902 97.9 99.268 95.4473 95.9693 C 95.4473 95.9693 93.9347 93.935 96.0524 92.4819 C 98.1701 91.0288 99.6827 93.0631 99.6827 93.0631 C 100.261 93.8409 100.665 94.7713 101.4177 95.3965 C 101.6437 95.5842 106.4332 95.6316 107.2808 95.3496 C 107.4946 95.2784 106.5777 95.2997 106.6558 95.0957 C 107.2028 93.6656 110.0258 93.4951 111.2249 92.8421 C 113.7213 91.4827 116.3546 89.6464 118.7804 87.9819 C 120.2393 86.9808 121.7694 86.5587 123.3697 85.8421 C 124.7993 85.2019 125.7824 83.9118 127.1283 83.2623 C 128.0252 82.8296 129.0137 82.6138 129.9873 82.3611 C 129.5358 82.2108 129.3493 82.0216 129.3353 81.8272 C 128.6048 81.424 127.9478 80.902 127.2742 80.4144 C 124.9268 78.7152 122.246 77.656 119.8214 76.0506 C 116.7413 73.9371 115.0882 72.4911 115.0882 68.5162 L 116.2669 65.0631 C 116.2669 65.0631 117.7795 63.0288 119.8972 64.4819 Z " fill="#4d4d4e" stroke="none" stroke-width="0.5" stroke-linecap="butt"/><path d="M 93.0541 48.5162 L 87.1552 40.1829 " fill="none" stroke="#f3f1f1" stroke-width="2" stroke-linecap="round"/><path d="M 106.2399 57.3496 C 105.9373 57.3496 105.6315 57.3506 105.3233 57.3536 C 104.3629 58.1645 102.0619 58.4862 101.327 58.6426 C 98.8144 59.1771 96.4257 59.6016 93.9679 60.1904 C 93.7117 60.2517 93.4296 60.3571 93.139 60.4718 C 92.7064 60.7967 92.2634 61.1062 91.8238 61.3141 L 90.6094 61.8141 C 90.6094 61.8141 87.9424 62.5795 87.1397 60.3777 C 86.9311 60.3015 86.7385 60.2181 86.5606 60.128 C 86.532 60.1231 86.5033 60.1181 86.4745 60.1129 C 86.3161 60.0846 86.2044 59.9985 86.1242 59.8753 C 84.675 58.9169 84.4277 57.4072 84.2051 55.8086 C 83.9704 55.5139 83.7217 55.2315 83.4505 54.9693 C 83.0604 54.8341 82.6752 54.6794 82.2904 54.5229 L 81.8451 54.9507 L 79.7631 52.9507 L 79.7631 52.9507 C 79.2922 52.4983 79.0009 51.8733 79.0009 51.1829 C 79.0009 50.3354 79.4399 49.5863 80.1114 49.1342 C 78.7048 47.9981 77.2141 46.9089 76.2932 45.9507 C 73.2736 42.8088 70.8054 38.962 68.2084 35.4693 C 65.9817 32.4747 64.6421 28.9401 62.8579 25.7274 C 61.8129 23.8458 59.6807 22.4045 58.264 20.7834 C 58.2319 20.7467 58.1943 20.7108 58.153 20.6755 C 56.81 20.5766 55.7523 19.4984 55.7523 18.1829 C 55.7523 17.2363 56.3 16.4126 57.1075 15.9882 L 58.2781 15.3456 C 58.3616 14.905 59.0305 14.7392 59.4926 14.679 C 61.7044 14.3909 63.3853 15.0647 65.4682 15.0163 C 68.9977 14.9341 72.4771 15.8317 75.9918 16.0315 C 81.1889 16.3271 85.5609 15.1238 89.675 18.9158 C 90.355 19.6997 91.9215 20.9639 92.2774 21.9158 C 92.7825 23.2667 92.4941 24.7963 92.8806 26.1829 C 93.0138 26.6608 93.7343 26.8166 93.9257 27.2759 C 94.3677 28.3364 94.4439 29.5158 94.8849 30.5766 C 95.7896 32.7525 97.6287 34.6389 98.6418 36.7298 C 99.3488 38.189 99.9288 39.9506 100.4232 41.6628 C 101.1369 42.1211 101.8032 42.6249 102.386 43.1981 C 102.9555 43.7581 103.3191 45.2442 103.9017 45.9158 C 104.7872 47.0683 105.4805 47.7024 105.8322 49.0557 C 106.2167 49.5548 106.573 50.1387 106.8969 50.8648 C 107.1289 51.3847 107.6471 51.8957 107.8776 52.4156 C 109.0273 52.6747 109.8833 53.6661 109.8833 54.8496 C 109.8833 56.2303 108.7181 57.3496 107.2808 57.3496 C 107.0943 57.3496 106.9123 57.3307 106.7368 57.2949 C 106.4435 57.3496 106.2399 57.3496 106.2399 57.3496 Z M 87.5575 24.0539 C 87.5707 24.0646 87.5839 24.0754 87.5971 24.0862 C 87.2301 23.664 86.7825 23.233 86.3856 22.8451 C 86.5044 23.0044 86.6015 23.1371 86.6705 23.2298 C 86.6776 23.2394 86.6849 23.2489 86.6924 23.2585 C 86.8147 23.3339 86.9282 23.4197 87.028 23.5087 C 87.2182 23.6785 87.3929 23.8618 87.5575 24.0539 Z M 82.0721 44.3939 C 82.5843 44.8464 83.1012 45.2934 83.6102 45.747 C 83.4495 45.2852 83.2843 44.8224 83.1167 44.3592 C 82.9739 44.3697 82.8312 44.3792 82.6889 44.3879 C 82.4797 44.4007 82.2742 44.4024 82.0721 44.3939 Z M 72.3363 26.7882 C 72.6873 27.2612 73.0688 27.7142 73.4723 28.1425 C 73.234 27.7798 72.9629 27.4322 72.6504 27.1034 C 72.5447 26.9922 72.4403 26.8873 72.3363 26.7882 Z M 85.7087 21.9677 C 85.7278 21.7021 85.5216 21.5105 85.2104 21.3723 C 85.3828 21.5693 85.5507 21.7714 85.7087 21.9677 Z " fill="#8dfbff" stroke="none" stroke-width="0.5" stroke-linecap="butt"/></g><g><path d="M 521.4144 180.9407 L 389.4144 177.9407 L 338.4144 151.9407 L 392.4144 136.9407 L 414.4144 106.9407 L 496.4144 104.9407 L 539.4144 105.9407 " data-paper-data="{&quot;origPos&quot;:null}" fill="none" stroke="#585757" stroke-width="2" stroke-linecap="round"/><path d="M 437.4144 107.9407 L 407.4144 144.9407 L 393.4144 137.9407 " data-paper-data="{&quot;origPos&quot;:null}" fill="none" stroke="#585757" stroke-width="2" stroke-linecap="round"/><path d="M 431.1275 115.4436 C 432.1188 115.0379 433.1393 114.6853 434.0728 114.2183 C 434.245 114.1322 434.4173 114.0465 434.5897 113.9612 C 434.918 113.524 435.2416 113.0766 435.5537 112.6092 C 437.0551 110.3608 437.8144 108.1561 440.1179 106.4242 C 441.5179 105.3716 444.3899 105.6829 446.0576 105.6829 C 450.7243 105.6829 455.3909 105.6829 460.0576 105.6829 C 471.4465 105.6829 482.8354 105.6829 494.2243 105.6829 C 500.0576 105.6829 505.8909 105.6829 511.7243 105.6829 C 512.8196 105.6829 513.8903 105.6964 514.9184 105.7855 C 516.3784 105.4354 517.8155 105.1062 519.3757 105.2184 C 522.5917 105.4496 525.1363 108.8976 526.2985 112.0767 C 526.8921 111.8363 527.4922 111.6152 528.1022 111.4232 C 530.4117 110.6964 533.0734 110.3898 535.4554 109.9467 C 535.9582 109.8531 540.2132 108.8826 541.0335 109.5481 L 543.5132 109.6858 C 544.8371 109.7496 545.8909 110.8432 545.8909 112.1829 C 545.8909 113.1295 545.3649 113.9532 544.5891 114.3776 L 543.2569 115.1389 C 538.0775 118.1008 533.0108 121.169 527.9897 124.3206 C 528.755 124.316 529.5254 124.3303 530.3064 124.362 C 530.8642 124.3846 531.5188 124.204 531.973 124.5286 C 533.3868 125.5388 534.7956 126.6999 535.6755 128.1982 C 535.9525 128.67 535.3174 129.2464 535.0088 129.6982 C 534.087 131.0481 532.9164 132.5451 531.3306 132.9416 C 530.5834 133.1026 529.8277 133.2797 529.0649 133.4656 C 529.277 135.0672 527.2624 136.4927 525.9973 137.6082 C 525.6481 137.9161 523.8926 138.2995 522.8909 138.5652 C 522.8909 139.5489 522.8909 140.5326 522.8909 141.5162 C 522.8909 141.5998 522.8909 141.6824 522.8907 141.7641 C 523.0292 141.9194 523.1625 142.0761 523.2902 142.234 C 525.8491 145.4009 527.6338 149.4292 529.6308 152.9625 C 533.6787 160.1241 536.477 167.4936 538.6243 175.4091 C 539.0956 177.1466 539.4106 178.931 539.5972 180.7215 C 539.6836 181.5504 540.506 182.7084 539.8403 183.2097 C 533.0636 188.3128 531.697 181.2558 526.7905 179.4368 C 526.6547 179.3864 526.7584 179.8145 526.6149 179.8343 C 525.659 179.9659 524.6891 179.6723 523.7243 179.6829 C 523.3444 179.6829 522.9105 179.6968 522.4387 179.7156 C 521.7184 180.6829 520.3909 180.6829 520.3909 180.6829 C 517.5542 180.6829 514.808 180.3389 512.0696 180.0003 C 511.6143 180.6166 510.8826 181.0162 510.0576 181.0162 L 508.7243 181.0162 C 508.5151 181.4084 507.8354 181.0162 507.391 181.0162 C 506.0491 181.0162 504.6885 181.0669 503.3341 181.071 C 502.0869 181.1645 500.7871 181.1251 499.5121 181.0792 C 498.5703 181.2643 497.4486 181.7492 497.0576 181.0162 L 495.7243 181.0162 C 494.8658 181.0162 494.1083 180.5835 493.6582 179.9242 C 492.1442 179.6596 490.6234 179.4267 489.0809 179.3302 C 488.0207 179.2639 486.9523 179.2355 485.88 179.2292 C 478.6537 181.6014 469.6237 180.6829 462.391 180.6829 C 462.391 180.6829 460.8598 180.6829 460.1941 179.4846 C 459.8834 179.5771 459.4141 179.3495 459.0576 179.3495 C 457.1687 179.3495 455.2799 179.3495 453.391 179.3495 C 445.7662 179.3495 438.1585 179.0162 430.5576 179.0162 C 428.6213 179.0162 426.8517 178.5148 424.9437 178.3092 C 421.2059 177.9065 417.1607 178.3495 413.391 178.3495 C 407.9513 178.3495 402.5162 178.0162 397.0576 178.0162 C 395.5586 178.0162 394.0851 177.802 392.5987 177.7169 C 392.5191 177.8483 392.424 177.9817 392.3115 178.1167 C 390.7111 180.0372 388.7905 178.4368 388.7905 178.4368 C 381.7761 172.5915 373.751 169.4913 365.6063 165.4189 C 363.2583 164.245 360.6968 163.8861 358.484 162.3535 C 353.9268 159.1972 349.0842 155.6829 343.391 155.6829 L 341.6252 155.4283 C 341.6252 155.4283 339.3797 154.3291 340.4789 152.0837 C 341.578 149.8383 343.8235 150.9375 343.8235 150.9375 L 343.391 150.6829 C 343.8123 150.6829 344.2311 150.6985 344.6473 150.7285 L 346.484 149.6789 L 346.5404 149.7777 C 349.1462 148.5739 351.8471 147.7903 354.7846 147.4242 C 355.8675 147.2892 357.028 147.7111 358.0576 147.3495 C 358.2042 147.2981 357.6794 147.1072 357.7712 146.9819 C 358.2979 146.2633 360.2348 145.5886 360.8465 145.3421 C 363.9217 144.1027 367.2157 143.2833 370.209 141.8983 C 376.3804 139.1555 382.1058 138.7634 388.7243 138.3495 C 390.5006 138.2385 390.9913 137.4098 392.484 137.0123 C 396.0005 136.0758 398.5335 137.3396 401.3441 139.3152 C 403.5977 140.925 406.0271 141.5652 408.4316 142.7189 C 408.6128 142.606 408.7395 142.5517 408.7395 142.5517 C 409.5173 142.2183 410.2951 141.885 411.0729 141.5517 L 409.7243 140.6829 C 409.7243 140.6829 410.7214 139.3535 412.1736 139.6753 C 412.9903 137.2992 414.5379 135.4059 416.4572 133.7623 C 417.3855 132.9674 418.6777 132.2005 419.4572 131.2623 C 420.3163 130.2282 420.6338 128.3781 421.5537 127.2759 C 421.9138 126.8444 424.0679 125.4719 423.919 124.7094 M 522.9654 119.4011 C 523.1605 119.7843 523.3041 120.2105 523.4085 120.6533 C 525.9682 119.0419 528.5382 117.454 531.1273 115.8894 C 528.4887 116.5944 525.9915 117.4086 523.3669 118.4728 C 523.2503 118.7806 523.1165 119.0903 522.9654 119.4011 Z M 416.9936 143.8969 C 416.9812 143.9156 416.9688 143.9343 416.9564 143.953 C 416.9589 143.955 416.9614 143.957 416.9639 143.959 C 416.9738 143.9383 416.9837 143.9176 416.9936 143.8969 Z " data-paper-data="{&quot;origPos&quot;:null}" fill="#4d4d4e" stroke="none" stroke-width="0.5" stroke-linecap="butt"/><path d="M 403.3513 141.2805 C 400.4056 140.7123 396.4224 138.0974 395.2243 136.5162 C 394.1667 135.1206 395.5399 132.9219 396.3993 131.3962 C 397.0952 130.1605 397.6908 130.9009 398.4704 130.2491 C 399.3886 129.4812 400.1476 128.1751 400.8566 127.2298 C 401.1686 126.8138 401.4481 126.186 401.7663 125.6637 C 401.804 125.5337 401.8441 125.4044 401.887 125.2759 C 402.6745 122.9134 404.8148 121.7024 406.3037 119.9158 C 407.7971 118.148 409.3388 116.7744 410.4882 114.7315 C 411.9404 112.1505 412.254 110.1696 415.0576 108.3496 C 415.0975 108.3236 415.8547 108.3384 416.5096 108.352 C 416.7878 108.2948 417.1019 108.2902 417.454 108.3645 C 417.9982 108.3323 418.5495 108.3095 419.1049 108.2909 L 419.0576 107.6829 C 420.1127 107.6829 422.2313 107.9854 423.1506 107.6789 C 425.4939 106.8978 426.854 106.0162 429.3909 106.0162 C 430.0418 106.0162 433.2577 105.5991 433.7242 106.0162 L 435.0576 106.0162 C 436.4383 106.0162 437.5576 107.1355 437.5576 108.5162 C 437.5576 109.131 437.3357 109.6939 436.9676 110.1293 L 436.1448 111.1167 C 434.6281 112.9367 433.2817 115.0149 431.6846 116.7477 C 430.3312 118.2159 428.719 119.4386 427.1937 120.7492 C 426.4992 121.6029 425.7575 122.3833 424.9384 123.0349 C 424.822 123.1275 424.7047 123.2195 424.5866 123.3111 C 424.4644 123.4569 424.3448 123.6053 424.2282 123.7566 C 422.9999 125.3498 422.9664 127.027 422.1776 128.8412 C 421.0084 131.5301 418.7778 132.8369 416.658 134.6034 C 414.4036 136.446 412.8585 139.1277 410.3677 140.6636 C 410.3147 140.6963 410.2609 140.7273 410.2064 140.7568 C 410.117 141.0826 409.9414 141.4275 409.6448 141.7833 C 408.29 143.4091 406.7058 142.5118 406.2514 142.198 C 404.697 142.797 403.7664 141.8779 403.3513 141.2805 Z " data-paper-data="{&quot;origPos&quot;:null}" fill="#8dfbff" stroke="none" stroke-width="0.5" stroke-linecap="butt"/></g><g data-paper-data="{&quot;origPos&quot;:null,&quot;origRot&quot;:0}"><path d="M 368.5034 34.9669 C 370.495 44.3304 362.6213 53.9392 350.917 56.4287 C 339.2126 58.9183 328.1099 53.3458 326.1182 43.9824 C 324.1266 34.6189 332.0003 25.0102 343.7046 22.5206 C 355.409 20.0311 366.5118 25.6035 368.5034 34.9669 Z " data-paper-data="{&quot;origPos&quot;:null}" fill="#fcfaff" stroke-linecap="butt" stroke-width="2" stroke="#f3f1f1"/><path d="M 381.7313 10.3712 C 383.2665 17.5888 375.1809 25.4245 363.6717 27.8725 C 352.1624 30.3205 341.5878 26.454 340.0525 19.2363 C 338.5173 12.0187 346.6029 4.183 358.1121 1.735 C 369.6214 -0.7131 380.1961 3.1535 381.7313 10.3712 Z " data-paper-data="{&quot;origPos&quot;:null}" fill="#fcfaff" stroke-linecap="butt" stroke-width="2" stroke="#f3f1f1"/><path d="M 361.4392 36.4695 C 359.5305 27.4962 368.1041 18.0692 380.5887 15.4137 C 393.0733 12.7581 404.7414 17.8797 406.65 26.8531 C 408.5587 35.8264 399.9851 45.2534 387.5005 47.9089 C 375.0159 50.5644 363.3478 45.4428 361.4392 36.4695 Z " data-paper-data="{&quot;origPos&quot;:null}" fill="#fcfaff" stroke-linecap="butt" stroke-width="2" stroke="#f3f1f1"/><path d="M 346.3779 55.9174 L 346.3779 55.9174 " fill="none" stroke-linecap="round" stroke-width="2" stroke="#f3f1f1"/></g><g data-paper-data="{&quot;origPos&quot;:null}" stroke-linecap="butt"><path d="M 279.1249 136.2565 C 279.1249 146.0232 269.228 153.9407 257.0196 153.9407 C 244.8112 153.9407 234.9144 146.0232 234.9144 136.2565 C 234.9144 126.4898 244.8112 118.5723 257.0196 118.5723 C 269.228 118.5723 279.1249 126.4898 279.1249 136.2565 Z " data-paper-data="{&quot;origPos&quot;:null}" stroke-width="2" fill="#fcfaff" stroke="#f6f3f3"/><path d="M 297.5459 114.5196 C 297.5459 122.0481 287.814 128.1512 275.8091 128.1512 C 263.8042 128.1512 254.0722 122.0482 254.0722 114.5196 C 254.0722 106.9911 263.8042 100.8881 275.8091 100.8881 C 287.814 100.8881 297.5459 106.9911 297.5459 114.5196 Z " data-paper-data="{&quot;origPos&quot;:null}" stroke-width="2" fill="#fcfaff" stroke="#f6f3f3"/><path d="M 271.7565 136.2565 C 271.7565 126.8967 282.3131 119.3091 295.3354 119.3091 C 308.3577 119.3091 318.9144 126.8967 318.9144 136.2565 C 318.9144 145.6162 308.3577 153.2038 295.3354 153.2038 C 282.3131 153.2038 271.7565 145.6163 271.7565 136.2565 Z " data-paper-data="{&quot;origPos&quot;:null}" stroke-width="2" fill="#fcfaff" stroke="#f6f3f3"/></g><g data-paper-data="{&quot;origPos&quot;:null}" stroke-linecap="butt"><path d="M 180.0986 220.467 C 180.0986 230.1175 170.3195 237.9407 158.2565 237.9407 C 146.1934 237.9407 136.4144 230.1175 136.4144 220.467 C 136.4144 210.8166 146.1934 202.9933 158.2565 202.9933 C 170.3195 202.9933 180.0986 210.8166 180.0986 220.467 Z " data-paper-data="{&quot;origPos&quot;:null}" stroke-width="2" fill="#fcfaff" stroke="#f6f3f3"/><path d="M 198.3003 198.9889 C 198.3003 206.4278 188.6843 212.4582 176.8222 212.4582 C 164.9602 212.4582 155.3442 206.4278 155.3442 198.9889 C 155.3442 191.55 164.9602 185.5196 176.8222 185.5196 C 188.6843 185.5196 198.3003 191.55 198.3003 198.9889 Z " data-paper-data="{&quot;origPos&quot;:null}" stroke-width="2" fill="#fcfaff" stroke="#f6f3f3"/><path d="M 172.8178 220.467 C 172.8178 211.2187 183.2488 203.7214 196.1161 203.7214 C 208.9833 203.7214 219.4143 211.2187 219.4143 220.467 C 219.4143 229.7154 208.9833 237.2126 196.1161 237.2126 C 183.2488 237.2126 172.8178 229.7153 172.8178 220.467 Z " data-paper-data="{&quot;origPos&quot;:null}" stroke-width="2" fill="#fcfaff" stroke="#f6f3f3"/></g><g data-paper-data="{&quot;origPos&quot;:null,&quot;origRot&quot;:0}" stroke-linecap="butt"><path d="M 97.1943 302.006 C 96.369 319.9363 74.2324 313.0715 47.7507 311.8526 C 21.2691 310.6337 0.4705 315.5222 1.2958 297.5919 C 2.1211 279.6617 24.2578 266.1144 50.7394 267.3333 C 77.221 268.5522 98.0196 284.0757 97.1943 302.006 Z " data-paper-data="{&quot;origPos&quot;:null}" stroke-width="2" fill="#fcfaff" stroke="#f6f3f3"/><path d="M 187.375 300.1505 C 186.5497 318.0808 164.4131 311.216 137.9315 309.9971 C 111.4498 308.7782 90.6513 313.6667 91.4766 295.7365 C 92.3019 277.8062 114.4385 264.259 140.9201 265.4779 C 167.4018 266.6968 188.2003 282.2202 187.375 300.1505 Z " data-paper-data="{&quot;origPos&quot;:null}" stroke-width="2" fill="#fcfaff" stroke="#f6f3f3"/><path d="M 272.515 299.0641 C 271.6897 316.9943 249.5531 310.1296 223.0714 308.9107 C 196.5898 307.6918 175.7912 312.5803 176.6165 294.65 C 177.4418 276.7198 199.5785 263.1725 226.0601 264.3914 C 252.5417 265.6103 273.3403 281.1338 272.515 299.0641 Z " data-paper-data="{&quot;origPos&quot;:null}" stroke-width="2" fill="#fcfaff" stroke="#f6f3f3"/><path d="M 352.5683 299.7456 C 351.743 317.6759 329.6064 310.8111 303.1247 309.5922 C 276.6431 308.3733 255.8445 313.2618 256.6698 295.3316 C 257.4951 277.4013 279.6318 263.8541 306.1134 265.073 C 332.595 266.2919 353.3936 281.8153 352.5683 299.7456 Z " data-paper-data="{&quot;origPos&quot;:null}" stroke-width="2" fill="#fcfaff" stroke="#f6f3f3"/><path d="M 437.3865 305.6518 C 436.5612 323.582 414.4246 316.7173 387.9429 315.4984 C 361.4613 314.2795 340.6627 319.168 341.488 301.2377 C 342.3133 283.3075 364.45 269.7602 390.9316 270.9791 C 417.4132 272.198 438.2118 287.7215 437.3865 305.6518 Z " data-paper-data="{&quot;origPos&quot;:null}" stroke-width="2" fill="#fcfaff" stroke="#f6f3f3"/><path d="M 516.5329 304.2894 C 515.7075 322.2197 493.5709 315.355 467.0893 314.1361 C 440.6076 312.9171 419.8091 317.8057 420.6344 299.8754 C 421.4597 281.9451 443.5963 268.3979 470.0779 269.6168 C 496.5596 270.8357 517.3582 286.3592 516.5329 304.2894 Z " data-paper-data="{&quot;origPos&quot;:null}" stroke-width="2" fill="#fcfaff" stroke="#f6f3f3"/></g></g></g></svg>