<svg version="1.1" xmlns="http://www.w3.org/2000/svg" xmlns:xlink="http://www.w3.org/1999/xlink" width="70.30384" height="168.9026" viewBox="0,0,70.30384,168.9026"><g transform="translate(-210.40091,-76.22697)"><g data-paper-data="{&quot;isPaintingLayer&quot;:true}" fill-rule="nonzero" stroke-linejoin="miter" stroke-miterlimit="10" stroke-dasharray="" stroke-dashoffset="0" style="mix-blend-mode: normal"><g><path d="M268.21732,158.27479c0.05888,0.14571 0.47157,0.32289 0.02682,0.6423c-0.99766,0.7165 -3.62392,1.80656 -5.17954,2.43514c-2.2491,0.90879 -2.80103,0.68617 -2.99198,0.21359c-0.19095,-0.47258 0.05139,-1.01614 2.30049,-1.92493c1.6314,-0.6592 4.27517,-1.78791 5.4549,-1.92602c0.44669,-0.05229 0.33687,0.43013 0.38931,0.55992z" fill="#e88700" stroke="none" stroke-width="0" stroke-linecap="butt"/><path d="M241.92651,137.16377v67.297l-12.0476,38.9188" data-paper-data="{&quot;origPos&quot;:null}" fill="none" stroke="#000000" stroke-width="3.5" stroke-linecap="round"/><path d="M242.72971,203.02407l12.0476,40.1587" fill="none" stroke="#000000" stroke-width="3.5" stroke-linecap="round"/><path d="M217.83131,114.27327c0,-13.9728 11.3272,-25.3 25.3,-25.3c13.9728,0 25.3,11.3272 25.3,25.3c0,13.9728 -11.3272,25.3 -25.3,25.3c-13.9728,0 -25.3,-11.3272 -25.3,-25.3z" data-paper-data="{&quot;origPos&quot;:null}" fill="#d4d4d4" stroke="#000000" stroke-width="2.5" stroke-linecap="butt"/><path d="M238.71384,108.24947c0,-2.66149 2.15756,-4.81905 4.81905,-4.81905c2.66149,0 4.81905,2.15756 4.81905,4.81905c0,2.66149 -2.15756,4.81905 -4.81905,4.81905c-2.66149,0 -4.81905,-2.15756 -4.81905,-4.81905z" data-paper-data="{&quot;origPos&quot;:null}" fill="#000000" stroke="none" stroke-width="0" stroke-linecap="butt"/><path d="M252.36781,108.24947c0,-2.66148 2.15757,-4.81905 4.81905,-4.81905c2.66148,0 4.81905,2.15757 4.81905,4.81905c0,2.66148 -2.15757,4.81905 -4.81905,4.81905c-2.66148,0 -4.81905,-2.15757 -4.81905,-4.81905z" data-paper-data="{&quot;origPos&quot;:null}" fill="#000000" stroke="none" stroke-width="0" stroke-linecap="butt"/><path d="M266.26221,168.72567c0,0 -7.5015,2.7269 -10.5961,-1.3948c-4.2027,-5.5977 -12.8523,-21.8433 -12.8523,-21.8433" data-paper-data="{&quot;origPos&quot;:null,&quot;index&quot;:null}" fill="none" stroke="#000000" stroke-width="3.5" stroke-linecap="round"/><g data-paper-data="{&quot;origPos&quot;:null,&quot;origRot&quot;:0}"><g data-paper-data="{&quot;origPos&quot;:null}" fill="#cc9100" stroke="none" stroke-width="0" stroke-linecap="butt"><path d="M211.14877,184.66355c-2.24015,-5.89449 0.72228,-12.48891 6.61677,-14.72906c5.89449,-2.24015 12.48891,0.72228 14.72906,6.61677c2.24015,5.89449 -0.72228,12.48891 -6.61677,14.72906c-5.89449,2.24015 -12.48891,-0.72227 -14.72906,-6.61676z" data-paper-data="{&quot;origPos&quot;:null}"/><path d="M225.26208,191.51435l-8.11229,-21.34582l12.52015,-4.75817l8.11229,21.34583z"/><path d="M221.96226,180.50038c-2.24015,-5.89449 0.72228,-12.48891 6.61677,-14.72906c5.89449,-2.24015 12.48891,0.72228 14.72906,6.61676c2.24015,5.89449 -0.72228,12.48891 -6.61677,14.72906c-5.89449,2.24015 -12.48891,-0.72228 -14.72906,-6.61676z" data-paper-data="{&quot;origPos&quot;:null}"/></g><path d="M237.6916,177.86467l-2.41809,-6.3627l34.48172,-13.10447l2.41809,6.3627z" fill="#cc9100" stroke="none" stroke-width="0" stroke-linecap="butt"/><path d="M280.49395,157.60485c0.99084,2.60718 -1.60597,6.01286 -5.80013,7.60681c-4.19416,1.59395 -8.39742,0.77257 -9.38825,-1.8346c-0.99084,-2.60718 1.60597,-6.01287 5.80012,-7.60682c4.19416,-1.59395 8.39742,-0.77256 9.38826,1.83461z" fill="#cc9100" stroke="none" stroke-width="0" stroke-linecap="butt"/><g data-paper-data="{&quot;origPos&quot;:null}" fill="#946a00" stroke="none" stroke-width="0" stroke-linecap="butt"><path d="M216.41731,182.59791c-1.42343,-3.74545 0.45895,-7.93565 4.2044,-9.35908c3.74545,-1.42343 7.93565,0.45895 9.35907,4.2044c1.42343,3.74545 -0.45895,7.93565 -4.2044,9.35908c-3.74545,1.42343 -7.93565,-0.45894 -9.35907,-4.2044z" data-paper-data="{&quot;origPos&quot;:null}"/><path d="M225.38513,186.95099l-5.15468,-13.56348l7.9555,-3.02342l5.15468,13.56348z"/><path d="M223.28838,179.95252c-1.42343,-3.74545 0.45895,-7.93565 4.2044,-9.35908c3.74545,-1.42343 7.93565,0.45895 9.35908,4.2044c1.42343,3.74545 -0.45894,7.93565 -4.2044,9.35908c-3.74545,1.42343 -7.93565,-0.45894 -9.35908,-4.2044z" data-paper-data="{&quot;origPos&quot;:null}"/></g><path d="M211.85471,181.57657l59.522,-22.6208" data-paper-data="{&quot;origPos&quot;:null}" fill="none" stroke="#d0d0d0" stroke-width="1" stroke-linecap="round"/><path d="M212.49211,183.39477l63.8977,-24.2838" data-paper-data="{&quot;origPos&quot;:null}" fill="none" stroke="#d0d0d0" stroke-width="1" stroke-linecap="round"/><path d="M272.81971,162.52817l-59.522,22.6208" data-paper-data="{&quot;origPos&quot;:null}" fill="none" stroke="#d0d0d0" stroke-width="1" stroke-linecap="round"/><path d="M213.08973,186.76349l-2.23857,-5.89034l2.01955,-0.76751l2.23857,5.89034z" data-paper-data="{&quot;origPos&quot;:null}" fill="#946a00" stroke="none" stroke-width="0" stroke-linecap="butt"/></g><path d="M264.23581,163.25747c0,0 2.6735,2.2957 2.4645,5.1518" data-paper-data="{&quot;origPos&quot;:null}" fill="none" stroke="#000000" stroke-width="3.5" stroke-linecap="round"/><path d="M229.92491,178.05897c0,0 -7.5334,-5.9319 -4.1945,-16.6625c3.3389,-10.7305 14.893,-15.9089 14.893,-15.9089" data-paper-data="{&quot;origPos&quot;:null}" fill="none" stroke="#000000" stroke-width="3.5" stroke-linecap="round"/><g fill="none" stroke-linecap="round"><g stroke="#cc9100" stroke-width="1.5"><g><path d="M266.08498,92.09557l-13.27857,-1.84666"/><path d="M263.04399,94.23947l-14.02405,-1.42599"/><path d="M239.22506,94.88532l19.70464,0.74249"/><path d="M234.82999,96.98486l16.75318,1.6972"/><path d="M241.08111,100.60639l-13.18659,-5.00647"/><path d="M222.01107,95.64132l14.23974,5.40974"/><path d="M217.86598,95.41465l11.22652,4.79389"/></g><g><path d="M262.27886,95.20748l-13.1253,-0.92315"/><path d="M259.23787,97.35139l-13.83672,-0.29726"/><path d="M235.41894,97.99723l19.94306,2.17907"/><path d="M231.02387,100.09678l13.74082,2.34152"/><path d="M237.15579,103.00001l-13.22065,-5.21169"/><path d="M217.96654,97.31667l14.29083,5.71758"/><path d="M214.05987,98.52657l11.07325,3.87037"/></g><g data-paper-data="{&quot;index&quot;:null}"><path d="M225.90752,95.16246l-11.7774,5.95019"/><path d="M217.76335,102.16348l12.59551,-5.7856"/><path d="M222.25396,102.88038l17.99845,-7.65511"/><path d="M230.19852,103.53574l14.94544,-7.73184"/><path d="M240.56437,101.19921l10.52433,-9.83832"/><path d="M245.29711,100.07771l11.29289,-11.06695"/><path d="M260.7018,88.90744l-9.08214,7.17131"/></g><g data-paper-data="{&quot;index&quot;:null}"><path d="M218.83171,102.83122l11.93067,-5.02668"/><path d="M235.24778,99.22519l-12.66362,5.37515"/><path d="M244.95401,96.94383l-17.76004,9.09168"/><path d="M238.25119,103.75365l11.59436,-6.23119"/><path d="M245.26597,102.91779l10.28591,-11.2749"/><path d="M261.29159,90.72933l-11.48021,9.93821"/><path d="M265.4034,90.626l-9.20134,6.45303"/></g></g><g stroke="#cc9100" stroke-width="1.5"><g><path d=""/><path d="M222.94031,87.92672"/><path d="M230.80621,78.57921l-5.37922,13.13008"/><path d="M233.04003,78.43112l-2.14194,16.89206"/><path d="M234.9088,95.09826l4.91123,-17.18746"/><path d="M241.10806,79.11084l-0.76811,15.33383"/><path d="M246.64431,79.86733l-3.57693,13.62814"/><path d="M247.25229,83.23798l-1.45674,6.59465"/><path d="M248.79157,87.00241l-0.88016,4.38028"/><path d="M236.81728,78.04266l10.27206,10.35157" data-paper-data="{&quot;index&quot;:null}"/><path d="M243.47779,93.70471l-8.79447,-15.03474" data-paper-data="{&quot;index&quot;:null}"/><path d="M239.64592,94.78786l-11.468,-14.27972" data-paper-data="{&quot;index&quot;:null}"/><path d="M234.33958,96.04047" data-paper-data="{&quot;index&quot;:null}"/><path d="M231.40836,96.01163l-8.78159,-11.35" data-paper-data="{&quot;index&quot;:null}"/><path d="M223.41674,88l4.00301,5.6254" data-paper-data="{&quot;index&quot;:null}"/><path d="M226.07777,95.7893l-2.57768,-3.76642" data-paper-data="{&quot;index&quot;:null}"/></g><g><path d="M241.00633,76.42368"/><path d="M246.4112,81.48056l-18.88785,-1.67031"/><path d="M246.32802,82.89719"/><path d="M246.18144,87.18727l-21.30643,-1.47459"/><path d="M244.31405,88.66638l-19.10115,0.93767"/><path d="M225.41123,91.46378l17.42372,2.81496"/><path d="M227.55142,92.65581l10.16365,2.47343"/><path d="M224.94671,94.22803l6.79786,1.75498"/><path d="M243.79565,93.68758l4.62252,-3.69134" data-paper-data="{&quot;index&quot;:null}"/><path d="M248.31356,87.67834l-11.86753,7.96165" data-paper-data="{&quot;index&quot;:null}"/><path d="M246.74889,86.97855l-16.71686,8.74869" data-paper-data="{&quot;index&quot;:null}"/><path d="M245.84861,84.4738l-20.82292,7.2013" data-paper-data="{&quot;index&quot;:null}"/><path d="M224.69317,88.71736l19.19377,-8.66443" data-paper-data="{&quot;index&quot;:null}"/><path d="M223.5446,85.47498l18.11525,-5.66921" data-paper-data="{&quot;index&quot;:null}"/><path d="M238.43677,77.04849" data-paper-data="{&quot;index&quot;:null}"/><path d="M233.34037,78.01162" data-paper-data="{&quot;index&quot;:null}"/><path d="M227.31739,78.61359" data-paper-data="{&quot;index&quot;:null}"/></g><path d="M228.55509,79.89902l-4.59636,6.03512"/><path d="M246.25149,80.54555l-6.55528,-2.79272"/></g><g data-paper-data="{&quot;index&quot;:null}" stroke="#cc9100" stroke-width="1.5"><g><path d=""/><path d="M252.60418,83.37703"/><path d="M251.81501,87.74114l-10.27206,-10.35157"/><path d="M248.18654,92.97044l-8.77756,-14.95356"/><path d="M244.37159,94.13478l-11.468,-14.27972"/><path d="M232.18971,81.41049l6.87554,13.97688"/><path d="M227.35244,84.00855l8.7985,11.43118"/><path d="M232.14542,92.97232l-4.00301,-5.6254"/><path d="M230.80344,95.13621l-2.57768,-3.76642"/><path d="M230.36588,92.07949l5.37922,-13.13008" data-paper-data="{&quot;index&quot;:null}"/><path d="M235.8539,95.77455l2.12502,-16.97323" data-paper-data="{&quot;index&quot;:null}"/><path d="M239.84768,95.46846l4.91123,-17.18746" data-paper-data="{&quot;index&quot;:null}"/><path d="M245.27884,94.81488" data-paper-data="{&quot;index&quot;:null}"/><path d="M251.5832,80.23753l-3.59384,13.54696" data-paper-data="{&quot;index&quot;:null}"/><path d="M252.19118,83.60819l-1.45674,6.59465" data-paper-data="{&quot;index&quot;:null}"/><path d="M252.8503,91.75289l0.88016,-4.38028" data-paper-data="{&quot;index&quot;:null}"/></g><g><path d="M231.20429,78.8802"/><path d="M228.21723,85.42687l16.86909,-8.0181"/><path d="M228.86378,86.71397"/><path d="M230.72396,90.64778l19.19378,-8.66443"/><path d="M251.16779,85.71279l-18.11525,5.66921"/><path d="M251.73099,87.50775l-15.04942,8.57978"/><path d="M250.22251,89.34751l-8.44454,5.77687"/><path d="M253.27324,89.91575l-5.60761,3.95727"/><path d="M229.77565,94.02218l5.77619,1.8453" data-paper-data="{&quot;index&quot;:null}"/><path d="M243.16174,95.1642l-14.22043,-3.33036" data-paper-data="{&quot;index&quot;:null}"/><path d="M230.11313,90.64825l19.04008,2.4009" data-paper-data="{&quot;index&quot;:null}"/><path d="M252.17394,87.57199l-22.23136,0.44195" data-paper-data="{&quot;index&quot;:null}"/><path d="M229.98768,83.23682l21.30642,1.47459" data-paper-data="{&quot;index&quot;:null}"/><path d="M251.05771,81.30709l-19.10115,0.93767" data-paper-data="{&quot;index&quot;:null}"/><path d="M233.84162,78.58066" data-paper-data="{&quot;index&quot;:null}"/><path d="M238.96149,77.73015" data-paper-data="{&quot;index&quot;:null}"/><path d="M244.79668,76.22697" data-paper-data="{&quot;index&quot;:null}"/></g><path d="M244.16387,77.84447l6.69379,4.03083"/><path d="M232.95509,79.66597l-4.96529,4.83792"/></g><path d="M254.04968,89.25891c0,0 -3.53888,4.08293 -14.34131,5.97463c-10.20903,1.78778 -15.56804,-0.55925 -15.56804,-0.55925" stroke="#41cc00" stroke-width="2.5"/></g><path d="M261.74705,157.52c-0.74775,-3.0043 2.57798,-4.266 6.72035,-5.1834c4.14237,-0.91739 7.62991,-1.25207 8.28049,1.8612c0.73766,3.53002 -2.57798,4.266 -6.72035,5.1834c-4.14236,0.9174 -7.49147,1.30893 -8.28049,-1.86119z" fill="#ff9400" stroke="none" stroke-width="0" stroke-linecap="butt"/><path d="M255.7931,153.39734c0,-2.6019 2.10926,-4.71116 4.71116,-4.71116c2.6019,0 4.71116,2.10926 4.71116,4.71116c0,2.6019 -2.10926,4.71115 -4.71116,4.71115c-2.6019,0 -4.71116,-2.10925 -4.71116,-4.71115z" fill="#ff9e17" stroke="none" stroke-width="0" stroke-linecap="butt"/><path d="M270.77834,158.6527c0.05888,0.14571 0.47156,0.3229 0.02682,0.6423c-0.99766,0.7165 -3.62392,1.80656 -5.17953,2.43514c-2.2491,0.90879 -2.80104,0.68617 -2.99199,0.21359c-0.19095,-0.47258 0.05139,-1.01614 2.30049,-1.92494c1.6314,-0.6592 4.27516,-1.78791 5.4549,-1.92602c0.44669,-0.05229 0.33687,0.43013 0.38932,0.55992z" fill="#ff9e17" stroke="none" stroke-width="0" stroke-linecap="butt"/><path d="M276.46682,156.58171c0.42662,0.30842 0.21401,0.6566 -0.1168,0.89539c-0.74208,0.53566 -2.697,1.3526 -3.855,1.82376c-1.67422,0.6812 -2.08588,0.5163 -2.22901,0.16452c-0.14313,-0.35178 0.03647,-0.75724 1.71069,-1.43843c0,0 3.95473,-1.83231 4.49012,-1.44524z" fill="#ff9e17" stroke="none" stroke-width="0" stroke-linecap="butt"/><path d="M262.61681,149.81872c0,0 0.4582,-0.36 0.94907,-0.80171c0.49045,-0.44135 1.01353,-0.96442 1.14474,-0.9357c0.07358,0.01611 0.15833,0.7628 0.08326,1.4742c-0.08975,0.85049 -0.35055,1.68877 -0.35055,1.68877z" fill="#e88700" stroke="#ff9e17" stroke-width="0.5" stroke-linecap="butt"/><path d="M256.28022,151.433c0,0 -0.085,-0.68148 -0.48214,-1.07694c-0.40794,-0.40622 -1.12311,-0.52784 -0.72068,-0.61592c0.41215,-0.09021 1.04762,-0.34983 1.52332,-0.30246c0.86279,0.08593 1.46146,0.4361 1.46146,0.4361z" data-paper-data="{&quot;index&quot;:null}" fill="#e88700" stroke="#ff9e17" stroke-width="0.5" stroke-linecap="butt"/><path d="M273.75406,152.84805v-1.06918c0,0 1.27159,-0.13064 2.4966,0.60383c0.61582,0.36922 1.44191,1.25214 1.78136,1.84902c0.85927,1.51092 1.10044,2.66408 0.70185,3.15746c-0.50542,0.62561 -1.02846,1.03494 -1.36692,0.75648c-0.3489,-0.28705 0.14142,-0.56186 0.40291,-1.01646c0.18004,-0.313 0.1121,-1.37694 -0.42795,-1.95268c-0.22102,-0.23563 -0.62438,-1.1778 -1.30466,-1.60688c-0.9819,-0.61934 -2.2832,-0.7216 -2.2832,-0.7216z" fill="#ff9400" stroke="none" stroke-width="0" stroke-linecap="butt"/><g data-paper-data="{&quot;index&quot;:null}" stroke="none" stroke-linecap="butt"><path d="M260.46842,152.8926c-0.40596,0 -0.73506,-0.3291 -0.73506,-0.73506c0,-0.40596 0.3291,-0.73506 0.73506,-0.73506c0.40596,0 0.73505,0.3291 0.73505,0.73506c0,0.40596 -0.32909,0.73506 -0.73505,0.73506z" fill="#000000" stroke-width="0"/><g fill="#ffffff" stroke-width="0.5"><path d="M260.37299,152.07254c-0.13807,0 -0.25,-0.11193 -0.25,-0.25c0,-0.13807 0.11193,-0.25 0.25,-0.25c0.13807,0 0.25,0.11193 0.25,0.25c0,0.13807 -0.11193,0.25 -0.25,0.25z"/><path d="M260.13966,152.37254c-0.13807,0 -0.25,-0.11193 -0.25,-0.25c0,-0.13807 0.11193,-0.25 0.25,-0.25c0.13807,0 0.25,0.11193 0.25,0.25c0,0.13807 -0.11193,0.25 -0.25,0.25z"/></g></g><g data-paper-data="{&quot;index&quot;:null}" stroke="none" stroke-linecap="butt"><path d="M257.7611,152.92593c-0.40596,0 -0.73506,-0.3291 -0.73506,-0.73506c0,-0.40596 0.3291,-0.73506 0.73506,-0.73506c0.40596,0 0.73505,0.3291 0.73505,0.73506c0,0.40596 -0.32909,0.73506 -0.73505,0.73506z" fill="#000000" stroke-width="0"/><g fill="#ffffff" stroke-width="0.5"><path d="M257.66567,152.10588c-0.13807,0 -0.25,-0.11193 -0.25,-0.25c0,-0.13807 0.11193,-0.25 0.25,-0.25c0.13807,0 0.25,0.11193 0.25,0.25c0,0.13807 -0.11193,0.25 -0.25,0.25z"/><path d="M257.43234,152.40587c-0.13807,0 -0.25,-0.11193 -0.25,-0.25c0,-0.13807 0.11193,-0.25 0.25,-0.25c0.13807,0 0.25,0.11193 0.25,0.25c0,0.13807 -0.11193,0.25 -0.25,0.25z"/></g></g><g><g fill="none" stroke="#ffffff" stroke-width="0.25" stroke-linecap="round"><g><path d="M258.63128,154.58238l-2.2,0.03333"/><path d="M256.53127,155.56165l2.06667,-0.63333"/><path d="M259.53128,154.58238l2.56667,-0.2"/><path d="M259.53128,154.89499l2.43333,0.56667"/></g><path d="M256.454,153.8802l2.18182,0.42424"/><path d="M261.93885,153.69838l-2.54545,0.63636"/></g><path d="M259.75703,154.63777c0,0.25104 -0.30526,0.45455 -0.68182,0.45455c-0.37656,0 -0.68182,-0.20351 -0.68182,-0.45455c0,-0.25104 0.30526,-0.45455 0.68182,-0.45455c0.37656,0 0.68182,0.20351 0.68182,0.45455z" fill="#ffaf8f" stroke="none" stroke-width="0" stroke-linecap="butt"/></g><path d="M259.49234,156.05055c0,0 -0.26663,0.11842 -0.39474,0.11842c-0.12154,0 -0.35526,-0.11842 -0.35526,-0.11842" fill="none" stroke="#000000" stroke-width="0.25" stroke-linecap="round"/></g></g></g></svg>