<svg xmlns="http://www.w3.org/2000/svg" xmlns:xlink="http://www.w3.org/1999/xlink" version="1.1" width="16.02233" height="14.76137" viewBox="0,0,16.02233,14.76137"><g><g data-paper-data="{&quot;isPaintingLayer&quot;:true}" fill-rule="nonzero" stroke-linecap="butt" stroke-linejoin="miter" stroke-miterlimit="10" stroke-dasharray="" stroke-dashoffset="0" style="mix-blend-mode: normal"><g><path d="M234.39541,179.55407l6.30826,-4.95889l4.96387,4.95889l-4.96387,5.53552z" stroke-width="0" fill="#f37c7c" stroke="none" transform="matrix(1,0,0,1,-231.98884,-172.61931)"/><path d="M237.67659,176.02135l4.39508,-3.40203l3.05071,3.40203l-3.05071,2.82541z" stroke-width="0" fill="#f37c7c" stroke="none" transform="matrix(1,0,0,1,-231.98884,-172.61931)"/><path d="M239.70975,177.18373l5.25071,-0.75875l3.05071,2.82541l-3.05071,3.40203z" stroke-width="0" fill="#f37c7c" stroke="none" transform="matrix(1,0,0,1,-231.98884,-172.61931)"/><path d="M240.05512,183.74799l3.05071,-3.40202l3.05071,3.40203l-3.05071,3.40203l-3.05071,-3.40203z" stroke-width="0" fill="#f37c7c" stroke="none" transform="matrix(1,0,0,1,-231.98884,-172.61931)"/><path d="M234.67759,183.97864l3.05071,-3.40202l4.39508,3.40203l-4.39508,3.40203l-3.05071,-3.40203z" stroke-width="0" fill="#f37c7c" stroke="none" transform="matrix(1,0,0,1,-231.98884,-172.61931)"/><path d="M231.98884,180.17296l3.05071,-2.82541l5.38404,3.55875l-5.38404,2.6687z" stroke-width="0" fill="#f37c7c" stroke="none" transform="matrix(1,0,0,1,-231.98884,-172.61931)"/><path d="M233.85029,176.25199l3.05071,-3.40202l4.39508,3.40203l-4.39508,2.82541l-3.05071,-2.82541z" stroke-width="0" fill="#f37c7c" stroke="none" transform="matrix(1,0,0,1,-231.98884,-172.61931)"/></g><g><path d="M243.91059,180.61453l-4.25008,3.81655l-3.81242,-3.8109l3.80636,-4.84909z" data-paper-data="{&quot;index&quot;:null}" stroke-width="0" fill="#de3a3a" stroke="none" transform="matrix(1,0,0,1,-231.98884,-172.61931)"/><path d="M239.11518,181.66889l-2.16903,2.34528l-2.61531,-2.34193l2.6113,-3.37843z" data-paper-data="{&quot;index&quot;:null}" stroke-width="0" fill="#de3a3a" stroke="none" transform="matrix(1,0,0,1,-231.98884,-172.61931)"/><path d="M242.04038,183.73254l-2.61203,2.34559l-2.17231,-2.34224l0.58009,-4.03435z" data-paper-data="{&quot;index&quot;:null}" stroke-width="0" fill="#de3a3a" stroke="none" transform="matrix(1,0,0,1,-231.98884,-172.61931)"/><path d="M242.87954,180.117l2.61531,2.34193l-2.61203,2.34558l-2.61531,-2.34192l2.61202,-2.34559z" data-paper-data="{&quot;index&quot;:null}" stroke-width="0" fill="#de3a3a" stroke="none" transform="matrix(1,0,0,1,-231.98884,-172.61931)"/><path d="M243.05385,175.9855l2.61531,2.34193l-2.6113,3.37843l-2.61603,-3.37476l2.61202,-2.34559z" data-paper-data="{&quot;index&quot;:null}" stroke-width="0" fill="#de3a3a" stroke="none" transform="matrix(1,0,0,1,-231.98884,-172.61931)"/><path d="M242.74393,176.2638l-2.04737,4.13782l-2.73696,-4.13446l2.16903,-2.34528z" data-paper-data="{&quot;index&quot;:null}" stroke-width="0" fill="#de3a3a" stroke="none" transform="matrix(1,0,0,1,-231.98884,-172.61931)"/><path d="M237.11728,175.35407l2.17231,2.34224l-2.1683,3.37811l-2.61603,-3.37476l2.61202,-2.34559z" data-paper-data="{&quot;index&quot;:null}" stroke-width="0" fill="#de3a3a" stroke="none" transform="matrix(1,0,0,1,-231.98884,-172.61931)"/></g><g><path d="M239.35762,182.64708l-2.388,-3.11698l2.81579,-2.40868l3.11937,2.86817z" data-paper-data="{&quot;index&quot;:null}" stroke-width="0" fill="#af1e1e" stroke="none" transform="matrix(1,0,0,1,-231.98884,-172.61931)"/><path d="M238.8918,179.30426l-1.49113,-1.61203l1.74498,-1.66693l2.17548,1.97044z" data-paper-data="{&quot;index&quot;:null}" stroke-width="0" fill="#af1e1e" stroke="none" transform="matrix(1,0,0,1,-231.98884,-172.61931)"/><path d="M237.32093,181.19846l-1.46762,-1.91564l1.72147,-1.36332l2.73375,0.61354z" data-paper-data="{&quot;index&quot;:null}" stroke-width="0" fill="#af1e1e" stroke="none" transform="matrix(1,0,0,1,-231.98884,-172.61931)"/><path d="M239.75379,181.96712l-1.74498,1.66693l-1.46762,-1.91564l1.74498,-1.66693l1.46762,1.91564z" data-paper-data="{&quot;index&quot;:null}" stroke-width="0" fill="#af1e1e" stroke="none" transform="matrix(1,0,0,1,-231.98884,-172.61931)"/><path d="M242.57584,182.30777l-1.74498,1.66693l-2.17548,-1.97044l2.45284,-1.61213l1.46762,1.91563z" data-paper-data="{&quot;index&quot;:null}" stroke-width="0" fill="#af1e1e" stroke="none" transform="matrix(1,0,0,1,-231.98884,-172.61931)"/><path d="M242.40171,182.08048l-2.7261,-1.62463l2.97995,-1.65433l1.49113,1.61203z" data-paper-data="{&quot;index&quot;:null}" stroke-width="0" fill="#af1e1e" stroke="none" transform="matrix(1,0,0,1,-231.98884,-172.61931)"/><path d="M243.3264,178.27316l-1.72147,1.36332l-2.19899,-1.66683l2.45284,-1.61213l1.46762,1.91563z" data-paper-data="{&quot;index&quot;:null}" stroke-width="0" fill="#af1e1e" stroke="none" transform="matrix(1,0,0,1,-231.98884,-172.61931)"/></g></g></g></svg>