<svg xmlns="http://www.w3.org/2000/svg" xmlns:xlink="http://www.w3.org/1999/xlink" version="1.1" width="72.32114" height="167.04985" viewBox="0,0,72.32114,167.04985"><g><g data-paper-data="{&quot;isPaintingLayer&quot;:true}" fill-rule="nonzero" stroke-linejoin="miter" stroke-miterlimit="10" stroke-dasharray="" stroke-dashoffset="0" style="mix-blend-mode: normal"><path d="M 25.3452 58.834 L 25.3452 126.1311 L 13.2976 165.0498 " data-paper-data="{&quot;origPos&quot;:null}" fill="none" stroke="#000000" stroke-width="4" stroke-linecap="round"/><path d="M 26.1484 124.6943 L 38.196 164.853 " data-paper-data="{&quot;origPos&quot;:null}" fill="none" stroke="#000000" stroke-width="4" stroke-linecap="round"/><path d="M 1.25 35.9435 C 1.25 21.9707 12.5772 10.6435 26.55 10.6435 C 40.5228 10.6435 51.85 21.9707 51.85 35.9435 C 51.85 49.9163 40.5228 61.2435 26.55 61.2435 C 12.5772 61.2435 1.25 49.9163 1.25 35.9435 Z " data-paper-data="{&quot;origPos&quot;:null}" fill="#d4d4d4" stroke="#000000" stroke-width="2.5" stroke-linecap="butt"/><path d="M238.14474,111.74199c0,-2.66149 2.15756,-4.81905 4.81905,-4.81905c2.66149,0 4.81905,2.15756 4.81905,4.81905c0,2.66149 -2.15756,4.81905 -4.81905,4.81905c-2.66149,0 -4.81905,-2.15756 -4.81905,-4.81905z" data-paper-data="{&quot;origPos&quot;:null}" fill="#000000" stroke="none" stroke-width="0" stroke-linecap="butt" transform="matrix(1,0,0,1,-216.0122,-79.07227)"/><path d="M223.00719,99.88657c-8.06667,-4.62237 -7.6693,-13.62013 0.96246,-17.07413c0,0 24.14629,-6.0921 28.15293,-2.72614l3.63124,10.57882c0,0 17.48751,4.88642 12.95288,7.30047c-5.9002,3.14101 -45.69951,1.92098 -45.69951,1.92098z" data-paper-data="{&quot;origPos&quot;:null}" fill="#2700ff" stroke="none" stroke-width="0" stroke-linecap="butt" transform="matrix(1,0,0,1,-216.0122,-79.07227)"/><path d="M251.7987,111.74199c0,-2.66148 2.15757,-4.81905 4.81905,-4.81905c2.66148,0 4.81905,2.15757 4.81905,4.81905c0,2.66148 -2.15757,4.81905 -4.81905,4.81905c-2.66148,0 -4.81905,-2.15757 -4.81905,-4.81905z" data-paper-data="{&quot;origPos&quot;:null}" fill="#000000" stroke="none" stroke-width="0" stroke-linecap="butt" transform="matrix(1,0,0,1,-216.0122,-79.07227)"/><path d="M 31.4786 29.5642 L 22.3516 25.9134 " data-paper-data="{&quot;origPos&quot;:null}" fill="none" stroke="#000000" stroke-width="2.5" stroke-linecap="round"/><text transform="matrix(0.23095498781888668,-0.03744001204030137,0.03744001204030137,0.23095498781888668,5.494069999999994,16.45644)" font-size="40" xml:space="preserve" data-paper-data="{&quot;origPos&quot;:null,&quot;origRot&quot;:4.95574}" fill="#ffe800" fill-rule="nonzero" stroke="none" stroke-width="1" stroke-linecap="butt" stroke-linejoin="miter" stroke-miterlimit="10" stroke-dasharray="" stroke-dashoffset="0" font-family="Sans Serif" font-weight="normal" text-anchor="start" style="mix-blend-mode: normal"><tspan x="0" dy="0">POLICE</tspan></text><path d="M 43.5262 25.6983 L 36.5897 28.984 " data-paper-data="{&quot;origPos&quot;:null}" fill="none" stroke="#000000" stroke-width="2.5" stroke-linecap="round"/><path d="M 48.8689 74.0237 C 48.3132 73.9775 36.8771 76.475 29.1039 73.9093 C 23.486 72.055 24.3753 68.1578 24.3753 68.1578 " data-paper-data="{&quot;origPos&quot;:null}" fill="none" stroke="#000000" stroke-width="4" stroke-linecap="round"/><path d="M 25.5658 66.4911 L 49.2642 70.0626 " data-paper-data="{&quot;origPos&quot;:null,&quot;index&quot;:null}" fill="none" stroke="#000000" stroke-width="4" stroke-linecap="round"/><path d="M261.29247,158.92258l3.52933,-17.31054l5.55244,1.13205l-3.52933,17.31054z" data-paper-data="{&quot;origPos&quot;:null,&quot;origRot&quot;:0}" fill="#000000" stroke="none" stroke-width="0" stroke-linecap="butt" transform="matrix(1,0,0,1,-216.0122,-79.07227)"/><path d="M265.00001,147.66667v-6.66667h23.33333v6.66667z" fill="#000000" stroke="none" stroke-width="0" stroke-linecap="butt" transform="matrix(1,0,0,1,-216.0122,-79.07227)"/><path d="M283.90154,142.39551v-4.13307h2.32485v4.13307z" fill="#000000" stroke="none" stroke-width="0" stroke-linecap="butt" transform="matrix(1,0,0,1,-216.0122,-79.07227)"/></g></g></svg>