<svg xmlns="http://www.w3.org/2000/svg" xmlns:xlink="http://www.w3.org/1999/xlink" version="1.1" width="485.05902" height="115.08115" viewBox="0,0,485.05902,115.08115"><g><g data-paper-data="{&quot;isPaintingLayer&quot;:true}" fill-rule="nonzero" stroke-linejoin="miter" stroke-miterlimit="10" stroke-dasharray="" stroke-dashoffset="0" style="mix-blend-mode: normal"><g data-paper-data="{&quot;origPos&quot;:null}" stroke-linecap="butt"><g data-paper-data="{&quot;origPos&quot;:null}"><path d="M355.62153,324.01038v-49.76562h35.98437v49.76562z" data-paper-data="{&quot;origPos&quot;:null}" fill="#a5a5a5" stroke-width="0" stroke="none" transform="matrix(1,0,0,1,3.02465,-249.29541)"/><path d="M350.56841,276.69476v-15.61875c0,0 13.85581,-8.93229 22.88759,-8.93229c8.95568,0 23.20304,8.93229 23.20304,8.93229v15.61875z" data-paper-data="{&quot;origPos&quot;:null}" fill="#707070" stroke-width="0" stroke="none" transform="matrix(1,0,0,1,3.02465,-249.29541)"/></g><text transform="matrix(0.38281,0,0,0.38281,364.29066,21.880859999999984)" font-size="40" xml:space="preserve" data-paper-data="{&quot;origPos&quot;:null}" fill="#000000" fill-rule="nonzero" stroke="none" stroke-width="1" stroke-linecap="butt" stroke-linejoin="miter" stroke-miterlimit="10" stroke-dasharray="" stroke-dashoffset="0" font-family="Serif" font-weight="normal" text-anchor="start" style="mix-blend-mode: normal"><tspan x="0" dy="0">RIP</tspan></text><text transform="matrix(0.21898,0,0,0.21898,361.29197,38.41359)" font-size="40" xml:space="preserve" data-paper-data="{&quot;origPos&quot;:null}" fill="#000000" fill-rule="nonzero" stroke="none" stroke-width="1" stroke-linecap="butt" stroke-linejoin="miter" stroke-miterlimit="10" stroke-dasharray="" stroke-dashoffset="0" font-family="Serif" font-weight="normal" text-anchor="start" style="mix-blend-mode: normal"><tspan x="0" dy="0">LIVING</tspan><tspan x="0" dy="46.15px"> DEAD</tspan></text></g><g data-paper-data="{&quot;origPos&quot;:null}"><g data-paper-data="{&quot;origPos&quot;:null}" stroke-linecap="butt"><path d="M230.47949,331.01038v-51.15057h36.98579v51.15057z" data-paper-data="{&quot;origPos&quot;:null}" fill="#a5a5a5" stroke-width="0" stroke="none" transform="matrix(1,0,0,1,3.02465,-249.29541)"/><path d="M225.28574,282.37799v-16.05341c0,0 14.24141,-9.18087 23.52454,-9.18087c9.20491,0 23.84876,9.18087 23.84876,9.18087v16.05341z" data-paper-data="{&quot;origPos&quot;:null}" fill="#707070" stroke-width="0" stroke="none" transform="matrix(1,0,0,1,3.02465,-249.29541)"/></g><text transform="matrix(0.32885,0,0,0.32885,229.80081,27.369820000000004)" font-size="40" xml:space="preserve" data-paper-data="{&quot;origPos&quot;:null}" fill="#000000" fill-rule="nonzero" stroke="#ff0000" stroke-width="0" stroke-linecap="butt" stroke-linejoin="miter" stroke-miterlimit="10" stroke-dasharray="" stroke-dashoffset="0" font-family="Handwriting" font-weight="normal" text-anchor="start" style="mix-blend-mode: normal"><tspan x="0" dy="0">SCARY</tspan></text><path d="M 251.7655 33.3125 L 251.7655 52.1989 " data-paper-data="{&quot;origPos&quot;:null}" fill="none" stroke="#cbcbcb" stroke-width="1" stroke-linecap="round"/><g data-paper-data="{&quot;origPos&quot;:null,&quot;origRot&quot;:0}"><path d="M251.92958,306.73701c-0.13177,2.96691 -1.76382,5.30433 -3.64528,5.22077c-1.88146,-0.08356 -3.29986,-2.55647 -3.16808,-5.52338c0.13177,-2.96691 1.76382,-5.30433 3.64528,-5.22077c1.88146,0.08356 3.29986,2.55647 3.16808,5.52338z" data-paper-data="{&quot;origPos&quot;:null}" fill="#000000" stroke="none" stroke-width="0" stroke-linecap="butt" transform="matrix(1,0,0,1,3.02465,-249.29541)"/><path d="M 245.1453 67.6914 L 245.3411 63.284 L 248.5178 60.5943 " data-paper-data="{&quot;origPos&quot;:null}" fill="none" stroke="#000000" stroke-width="1.5" stroke-linecap="round"/><path d="M 253.8068 60.6717 L 256.7326 63.6324 L 256.5368 68.0398 " data-paper-data="{&quot;origPos&quot;:null,&quot;index&quot;:null}" fill="none" stroke="#000000" stroke-width="1.5" stroke-linecap="round"/><path d="M 257.574 48.2357 L 257.3782 52.6431 L 254.2015 55.3328 " data-paper-data="{&quot;origPos&quot;:null,&quot;index&quot;:null}" fill="none" stroke="#000000" stroke-width="1.5" stroke-linecap="round"/><path d="M 248.3045 54.7558 L 245.3787 51.795 L 245.5745 47.3876 " data-paper-data="{&quot;origPos&quot;:null,&quot;index&quot;:null}" fill="none" stroke="#000000" stroke-width="1.5" stroke-linecap="round"/><g stroke-linecap="round"><path d="M 248.1796 57.1953 L 244.4893 55.2697 L 243.3294 51.0132 " data-paper-data="{&quot;origPos&quot;:null,&quot;index&quot;:null,&quot;origRot&quot;:0}" stroke-width="1.5" fill="none" stroke="#000000"/><path d="M 242.9443 64.1178 L 244.477 59.9808 L 248.3235 58.39 " data-paper-data="{&quot;origPos&quot;:null,&quot;index&quot;:null,&quot;origRot&quot;:0}" stroke-width="1.5" fill="none" stroke="#000000"/></g><g data-paper-data="{&quot;origPos&quot;:null,&quot;index&quot;:null}" stroke-linecap="round"><path d="M 259.5842 51.6695 L 258.0516 55.8065 L 254.2051 57.3973 " data-paper-data="{&quot;origPos&quot;:null,&quot;index&quot;:null,&quot;origRot&quot;:0}" stroke-width="1.5" fill="none" stroke="#000000"/><path d="M 253.9559 58.5745 L 257.6462 60.5001 L 258.8061 64.7567 " data-paper-data="{&quot;origPos&quot;:null,&quot;index&quot;:null,&quot;origRot&quot;:0}" stroke-width="1.5" fill="none" stroke="#000000"/></g></g></g><g data-paper-data="{&quot;origPos&quot;:null}"><g data-paper-data="{&quot;origPos&quot;:null}"><path d="M96.85305,326.01038v-53.12292h38.41196v53.12292z" data-paper-data="{&quot;origPos&quot;:null}" fill="#a5a5a5" stroke="none" stroke-width="0" stroke-linecap="butt" transform="matrix(1,0,0,1,3.02465,-249.29541)"/><path d="M91.45903,275.50273v-16.67243c0,0 14.79056,-9.53489 24.43164,-9.53489c9.55985,0 24.76836,9.53489 24.76836,9.53489v16.67243z" data-paper-data="{&quot;origPos&quot;:null}" fill="#707070" stroke="none" stroke-width="0" stroke-linecap="butt" transform="matrix(1,0,0,1,3.02465,-249.29541)"/><text transform="matrix(0.32524,0,0,0.32524,97.18539,19.23554999999999)" font-size="40" xml:space="preserve" data-paper-data="{&quot;origPos&quot;:null}" fill="#cd0000" fill-rule="nonzero" stroke="none" stroke-width="1" stroke-linecap="butt" stroke-linejoin="miter" stroke-miterlimit="10" stroke-dasharray="" stroke-dashoffset="0" font-family="Curly" font-weight="normal" text-anchor="start" style="mix-blend-mode: normal"><tspan x="0" dy="0">DEATH</tspan></text><path d="M 122.5149 16.8421 L 122.5149 24.0954 " fill="none" stroke="#cd0000" stroke-width="1" stroke-linecap="round"/><path d="M 112.8098 10.406 L 112.8098 14.3902 " fill="none" stroke="#cd0000" stroke-width="1" stroke-linecap="round"/><path d="M 105.3521 15.6162 L 105.3521 21.5414 " fill="none" stroke="#cd0000" stroke-width="1" stroke-linecap="round"/><path d="M 139.1669 22.563 L 139.1669 19.2939 " data-paper-data="{&quot;origPos&quot;:null}" fill="none" stroke="#cd0000" stroke-width="1" stroke-linecap="round"/></g><path d="M103.08176,291.26704c0.70773,-1.69559 -0.49341,-5.19822 1.6627,-5.26867c2.15611,-0.07046 0.19576,3.21363 1.42098,5.1679c1.22523,1.95429 4.39479,1.1818 3.52354,2.71881c-0.87126,1.53701 -2.86139,-0.68547 -4.8703,-0.34294c-2.00891,0.34254 -2.94521,3.23278 -3.99714,1.8549c-1.05193,-1.37788 1.5525,-2.4344 2.26023,-4.13z" data-paper-data="{&quot;origPos&quot;:null}" fill="#cc0000" stroke="none" stroke-width="NaN" stroke-linecap="butt" transform="matrix(1,0,0,1,3.02465,-249.29541)"/><path d="M122.31045,304.7436c1.74013,-0.58981 3.57433,-3.80645 5.05246,-2.23518c1.47814,1.57126 -2.28194,2.27122 -2.93843,4.48242c-0.65648,2.2112 2.01836,4.07885 0.28913,4.44113c-1.72923,0.36227 -1.37714,-2.60017 -2.96213,-3.88114c-1.58499,-1.28097 -4.37261,-0.07295 -4.03409,-1.7731c0.33852,-1.70015 2.85292,-0.44431 4.59305,-1.03412z" data-paper-data="{&quot;origPos&quot;:null,&quot;origRot&quot;:0}" fill="#cc0000" stroke="none" stroke-width="NaN" stroke-linecap="butt" transform="matrix(1,0,0,1,3.02465,-249.29541)"/><path d="M113.86886,288.41001c0.25358,0.67621 -0.80851,1.69975 -2.37224,2.28615c-1.56373,0.5864 -3.03695,0.51359 -3.29053,-0.16261c-0.25358,-0.67621 0.80851,-1.69975 2.37224,-2.28615c1.56373,-0.5864 3.03695,-0.51359 3.29053,0.16261z" data-paper-data="{&quot;origRot&quot;:0}" fill="#cc0000" stroke="none" stroke-width="0" stroke-linecap="butt" transform="matrix(1,0,0,1,3.02465,-249.29541)"/><path d="M103.46284,296.31491c0.70792,0.14285 1.01402,1.58575 0.68368,3.22282c-0.33033,1.63707 -1.17201,2.84838 -1.87993,2.70553c-0.70792,-0.14285 -1.01402,-1.58575 -0.68368,-3.22282c0.33033,-1.63707 1.17201,-2.84838 1.87993,-2.70553z" data-paper-data="{&quot;origRot&quot;:0,&quot;origPos&quot;:null}" fill="#cc0000" stroke="none" stroke-width="0" stroke-linecap="butt" transform="matrix(1,0,0,1,3.02465,-249.29541)"/><path d="M122.65972,298.07279c0.71751,0.08212 1.14522,1.49376 0.95533,3.15299c-0.18989,1.65923 -0.92548,2.93774 -1.64299,2.85563c-0.71751,-0.08212 -1.14522,-1.49376 -0.95533,-3.15299c0.18989,-1.65923 0.92548,-2.93774 1.64299,-2.85563z" data-paper-data="{&quot;origRot&quot;:0,&quot;origPos&quot;:null}" fill="#cc0000" stroke="none" stroke-width="0" stroke-linecap="butt" transform="matrix(1,0,0,1,3.02465,-249.29541)"/><path d="M 122.3166 59.1372 L 117.6173 63.0192 " fill="none" stroke="#cc0000" stroke-width="1" stroke-linecap="round"/><path d="M 122.5209 66.2883 L 124.3598 61.9976 " fill="none" stroke="#cc0000" stroke-width="1" stroke-linecap="round"/><path d="M 133.1455 56.8897 L 135.1887 56.8897 " fill="none" stroke="#cc0000" stroke-width="1" stroke-linecap="round"/><path d="M 112.305 46.0607 L 113.9395 49.1255 " fill="none" stroke="#cc0000" stroke-width="1" stroke-linecap="round"/><path d="M 105.7668 35.0275 L 103.3149 33.393 " fill="none" stroke="#cc0000" stroke-width="1" stroke-linecap="round"/><path d="M 101.8847 37.888 L 101.8847 39.5225 " fill="none" stroke="#cc0000" stroke-width="1" stroke-linecap="round"/></g><path d="M-3.02464,364.37657v-44.3662h485.05902v44.3662z" data-paper-data="{&quot;origPos&quot;:null}" fill="#7c4500" stroke="none" stroke-width="0" stroke-linecap="butt" transform="matrix(1,0,0,1,3.02465,-249.29541)"/></g></g></svg>