<svg xmlns="http://www.w3.org/2000/svg" xmlns:xlink="http://www.w3.org/1999/xlink" version="1.1" width="23.389114379882812" height="19.380935668945312" viewBox="-0.98089599609375 0 23.389114379882812 19.380935668945312"><g><g data-paper-data="{&quot;isPaintingLayer&quot;:true}" fill-rule="nonzero" stroke-linecap="none" stroke-linejoin="miter" stroke-miterlimit="10" stroke-dasharray="" stroke-dashoffset="0" font-family="none" font-weight="none" font-size="none" text-anchor="none" style="mix-blend-mode: normal"><g><path d="M 1 15.0581 L 1 1 L 15.8249 1 L 15.8249 14.8025 " data-paper-data="{&quot;origPos&quot;:null,&quot;index&quot;:null}" fill="none" stroke="#ff49f2" stroke-width="2" stroke-linecap="round"/><path d="M246.10201,189.38094c-1.83515,0 -3.32282,-1.48767 -3.32282,-3.32282c0,-1.83514 1.48767,-3.32282 3.32282,-3.32282c1.83515,0 3.32283,1.48767 3.32283,3.32282c0,1.83514 -1.48768,3.32282 -3.32283,3.32282z" data-paper-data="{&quot;origPos&quot;:null,&quot;index&quot;:null}" fill="#ff49f2" stroke="#a200ff" stroke-width="0" stroke-linecap="butt" transform="matrix(1,0,0,1,-228.01662,-171)"/><path d="M231.35854,189.23185c-1.83514,0 -3.32282,-1.48767 -3.32282,-3.32282c0,-1.83514 1.48767,-3.32284 3.32282,-3.32284c1.83515,0 3.32285,1.48769 3.32285,3.32284c0,1.83514 -1.4877,3.32282 -3.32285,3.32282z" data-paper-data="{&quot;origPos&quot;:null,&quot;index&quot;:null}" fill="#ff49f2" stroke="#a200ff" stroke-width="0" stroke-linecap="butt" transform="matrix(1,0,0,1,-228.01662,-171)"/></g></g></g></svg>