<svg xmlns="http://www.w3.org/2000/svg" xmlns:xlink="http://www.w3.org/1999/xlink" version="1.1" width="199.345703125" height="54.23619842529297" viewBox="0 0 199.345703125 54.23619842529297"><g><g data-paper-data="{&quot;isPaintingLayer&quot;:true}" fill-rule="nonzero" stroke-linecap="none" stroke-linejoin="miter" stroke-miterlimit="10" stroke-dasharray="" stroke-dashoffset="0" font-family="none" font-weight="none" font-size="none" text-anchor="none" style="mix-blend-mode: normal"><path d="M 2.5 51.7362 L 2.5 2.5 L 196.8457 2.5 L 196.8457 51.7362 Z " data-paper-data="{&quot;origPos&quot;:null}" fill="#1500b4" stroke="#4d009c" stroke-width="5" stroke-linecap="butt"/><text transform="matrix(0.5,0,0,0.5,32.23001000000002,21.51041)" font-size="40" xml:space="preserve" data-paper-data="{&quot;origPos&quot;:null}" fill="#ffffff" fill-rule="nonzero" stroke="none" stroke-width="1" stroke-linecap="butt" stroke-linejoin="miter" stroke-miterlimit="10" stroke-dasharray="" stroke-dashoffset="0" font-family="Serif" font-weight="normal" text-anchor="start" style="mix-blend-mode: normal"><tspan x="0" dy="0">The Highground</tspan></text><g data-paper-data="{&quot;origPos&quot;:null}"><g data-paper-data="{&quot;origPos&quot;:null,&quot;index&quot;:null}"><path d="M 181.2106 23.5044 L 177.5856 15.6572 L 180.8633 8.0183 L 189.0856 8.0183 L 193.4744 15.6572 L 189.3217 23.5044 Z " data-paper-data="{&quot;origPos&quot;:null}" fill="#adadad" stroke-width="1.5" stroke-linecap="butt" stroke="#373737"/><path d="M 180.9745 8.2405 L 185.8879 15.8416 L 188.8772 23.2822 " fill="none" stroke-width="1" stroke-linecap="round" stroke="#373737"/><path d="M 188.9744 8.0183 L 185.9116 15.6745 L 181.4328 23.06 " data-paper-data="{&quot;origPos&quot;:null}" fill="none" stroke-width="1" stroke-linecap="round" stroke="#373737"/><path d="M 177.5856 15.6572 L 193.3633 15.7683 " fill="none" stroke-width="1" stroke-linecap="round" stroke="#373737"/></g><path d="M326.06694,20.22664c-3.1603,0 -5.72223,-2.56193 -5.72223,-5.72222c0,-3.1603 2.56193,-5.72223 5.72223,-5.72223c3.16029,0 5.72222,2.56194 5.72222,5.72223c0,3.16029 -2.56193,5.72222 -5.72222,5.72222z" data-paper-data="{&quot;origPos&quot;:null,&quot;index&quot;:null}" fill="#2a2a2a" stroke="none" stroke-width="NaN" stroke-linecap="butt" transform="matrix(1,0,0,1,-142.62909,1.5)"/><g data-paper-data="{&quot;origPos&quot;:null,&quot;index&quot;:null}"><path d="M 173.4202 24.9817 L 169.2674 17.1345 L 173.6563 9.4956 L 181.8785 9.4956 L 185.1563 17.1345 L 181.5313 24.9817 Z " fill="#c0c0c0" stroke-width="1.5" stroke-linecap="butt" stroke="#4a4a4a"/><path d="M 173.8646 24.7595 L 176.8539 17.3189 L 181.7674 9.7178 " fill="none" stroke-width="1" stroke-linecap="round" stroke="#4a4a4a"/><path d="M 181.309 24.5372 L 176.8302 17.1518 L 173.7674 9.4956 " data-paper-data="{&quot;origPos&quot;:null}" fill="none" stroke-width="1" stroke-linecap="round" stroke="#4a4a4a"/><path d="M 185.1563 17.1345 L 169.3785 17.2456 " fill="none" stroke-width="1" stroke-linecap="round" stroke="#4a4a4a"/></g></g><g data-paper-data="{&quot;origPos&quot;:null,&quot;index&quot;:null}"><g data-paper-data="{&quot;origPos&quot;:null,&quot;index&quot;:null}"><path d="M 10.4202 24.5044 L 6.2674 16.6572 L 10.6563 9.0183 L 18.8785 9.0183 L 22.1563 16.6572 L 18.5313 24.5044 Z " data-paper-data="{&quot;origPos&quot;:null}" fill="#adadad" stroke-width="1.5" stroke-linecap="butt" stroke="#373737"/><path d="M 10.8646 24.2822 L 13.8539 16.8416 L 18.7674 9.2405 " fill="none" stroke-width="1" stroke-linecap="round" stroke="#373737"/><path d="M 18.3091 24.06 L 13.8302 16.6745 L 10.7674 9.0183 " data-paper-data="{&quot;origPos&quot;:null}" fill="none" stroke-width="1" stroke-linecap="round" stroke="#373737"/><path d="M 22.1563 16.6572 L 6.3785 16.7683 " fill="none" stroke-width="1" stroke-linecap="round" stroke="#373737"/></g><path d="M153.21086,15.50442c0,-3.16029 2.56193,-5.72223 5.72222,-5.72223c3.1603,0 5.72223,2.56193 5.72223,5.72223c0,3.16029 -2.56193,5.72222 -5.72223,5.72222c-3.16029,0 -5.72222,-2.56193 -5.72222,-5.72222z" data-paper-data="{&quot;origPos&quot;:null,&quot;index&quot;:null}" fill="#2a2a2a" stroke="none" stroke-width="NaN" stroke-linecap="butt" transform="matrix(1,0,0,1,-142.62909,1.5)"/><g data-paper-data="{&quot;origPos&quot;:null,&quot;index&quot;:null}"><path d="M 18.2106 25.9817 L 14.5856 18.1345 L 17.8633 10.4956 L 26.0856 10.4956 L 30.4745 18.1345 L 26.3217 25.9817 Z " fill="#c0c0c0" stroke-width="1.5" stroke-linecap="butt" stroke="#4a4a4a"/><path d="M 17.9745 10.7178 L 22.8879 18.3189 L 25.8772 25.7595 " fill="none" stroke-width="1" stroke-linecap="round" stroke="#4a4a4a"/><path d="M 25.9745 10.4956 L 22.9116 18.1518 L 18.4328 25.5372 " data-paper-data="{&quot;origPos&quot;:null}" fill="none" stroke-width="1" stroke-linecap="round" stroke="#4a4a4a"/><path d="M 14.5856 18.1345 L 30.3633 18.2456 " fill="none" stroke-width="1" stroke-linecap="round" stroke="#4a4a4a"/></g></g><text transform="matrix(0.5,0,0,0.5,24.355220000000003,42.7737)" font-size="40" xml:space="preserve" data-paper-data="{&quot;origPos&quot;:null}" fill="#d400ff" fill-rule="nonzero" stroke="#d400ff" stroke-width="1" stroke-linecap="butt" stroke-linejoin="miter" stroke-miterlimit="10" stroke-dasharray="" stroke-dashoffset="0" font-family="Serif" font-weight="normal" text-anchor="start" style="mix-blend-mode: normal"><tspan x="0" dy="0">[INTERACTIVE]</tspan></text></g></g></svg>