<svg xmlns="http://www.w3.org/2000/svg" xmlns:xlink="http://www.w3.org/1999/xlink" version="1.1" width="58.15307" height="164.12214" viewBox="0,0,58.15307,164.12214"><defs><radialGradient cx="249.26726" cy="196.12841" r="6.25" gradientUnits="userSpaceOnUse" id="color-1"><stop offset="0" stop-color="#7900ff"/><stop offset="1" stop-color="#7900ff" stop-opacity="0"/></radialGradient></defs><g><g data-paper-data="{&quot;isPaintingLayer&quot;:true}" fill-rule="nonzero" stroke-linejoin="miter" stroke-miterlimit="10" stroke-dasharray="" stroke-dashoffset="0" style="mix-blend-mode: normal"><path d="M 31.3983 82.8229 L 31.3983 133.2243 L 19.3507 162.3721 " data-paper-data="{&quot;origPos&quot;:null}" fill="none" stroke="#000000" stroke-width="3.5" stroke-linecap="round"/><path d="M 44.2491 162.2247 L 32.2015 132.1483 " fill="none" stroke="#000000" stroke-width="3.5" stroke-linecap="round"/><path d="M 14.3967 111.2042 L 30.0951 89.057 " data-paper-data="{&quot;origPos&quot;:null}" fill="none" stroke="#000000" stroke-width="3.5" stroke-linecap="round"/><path d="M 47.984 111.2042 L 32.2856 89.057 " data-paper-data="{&quot;origPos&quot;:null,&quot;index&quot;:null}" fill="none" stroke="#000000" stroke-width="3.5" stroke-linecap="round"/><path d="M 6.3031 59.2658 C 6.3031 45.293 17.6303 33.9658 31.6031 33.9658 C 45.5759 33.9658 56.9031 45.293 56.9031 59.2658 C 56.9031 73.2386 45.5759 84.5658 31.6031 84.5658 C 17.6303 84.5658 6.3031 73.2386 6.3031 59.2658 Z " data-paper-data="{&quot;origPos&quot;:null}" fill="#d4d4d4" stroke="#000000" stroke-width="2.5" stroke-linecap="butt"/><path d="M237.1447,134.99199c0,-2.66149 2.15756,-4.81905 4.81905,-4.81905c2.66149,0 4.81905,2.15756 4.81905,4.81905c0,2.66149 -2.15756,4.81905 -4.81905,4.81905c-2.66149,0 -4.81905,-2.15756 -4.81905,-4.81905z" data-paper-data="{&quot;origPos&quot;:null}" fill="#000000" stroke="none" stroke-width="0" stroke-linecap="butt" transform="matrix(1,0,0,1,-209.95908,-81.75002)"/><path d="M263.60018,127.63911c-7.20142,2.33088 -15.31382,-6.04028 -22.55105,-3.8231c-8.57035,2.62558 -7.23119,9.82601 -11.6076,17.64852c-3.56131,6.36558 -8.66132,39.53954 -13.65197,34.22006c-7.23387,-7.71051 -3.46502,-39.34298 1.77886,-48.52353c5.73198,-10.03506 11.33319,-10.20271 22.88993,-10.20271c0,0 20.83664,3.57516 24.98659,7.76406c1.61987,1.63507 -1.84475,2.9167 -1.84475,2.9167z" data-paper-data="{&quot;origPos&quot;:null}" fill="#883500" stroke="none" stroke-width="0" stroke-linecap="butt" transform="matrix(1,0,0,1,-209.95908,-81.75002)"/><path d="M250.79866,134.99199c0,-2.66148 2.15757,-4.81905 4.81905,-4.81905c2.66148,0 4.81905,2.15757 4.81905,4.81905c0,2.66148 -2.15757,4.81905 -4.81905,4.81905c-2.66148,0 -4.81905,-2.15757 -4.81905,-4.81905z" data-paper-data="{&quot;origPos&quot;:null}" fill="#000000" stroke="none" stroke-width="0" stroke-linecap="butt" transform="matrix(1,0,0,1,-209.95908,-81.75002)"/><path d="M 36.5316 49.8864 L 27.4047 46.2356 " data-paper-data="{&quot;origPos&quot;:null}" fill="none" stroke="#000000" stroke-width="2.5" stroke-linecap="round"/><path d="M 48.5793 46.2705 L 41.6428 49.5563 " data-paper-data="{&quot;origPos&quot;:null}" fill="none" stroke="#000000" stroke-width="2.5" stroke-linecap="round"/><g data-paper-data="{&quot;origPos&quot;:null,&quot;origRot&quot;:0}"><path d="M 30.7426 113.527 L 2 109.9984 " data-paper-data="{&quot;origPos&quot;:null}" fill="none" stroke="#986300" stroke-width="4" stroke-linecap="round"/><path d="M 40.6928 119.5423 L 35.8836 119.0601 L 31.4074 113.5862 L 36.6988 109.2592 L 42.0056 109.7913 " data-paper-data="{&quot;origPos&quot;:null}" fill="none" stroke="#986300" stroke-width="4" stroke-linecap="round"/><path d="M243.04844,195.50485c0.34438,-3.43456 3.40781,-5.93964 6.84237,-5.59526c3.43456,0.34438 5.93964,3.40781 5.59526,6.84237c-0.34438,3.43456 -3.40781,5.93964 -6.84237,5.59526c-3.43456,-0.34438 -5.93964,-3.40781 -5.59526,-6.84237z" data-paper-data="{&quot;origPos&quot;:null}" fill="url(#color-1)" stroke="none" stroke-width="0" stroke-linecap="butt" transform="matrix(1,0,0,1,-209.95908,-81.75002)"/></g><g stroke-linecap="butt"><path d="M220.66669,125.50002c0,0 10.08786,-17.51338 8.70398,-26.16264c-1.34796,-8.42475 -15.70398,-17.58736 -15.70398,-17.58736c0,0 23.57922,0.40129 34.51078,9.77886c8.97184,7.69643 16.48922,33.97114 16.48922,33.97114c0,0 -13.81665,-6.75 -22.5,-6.75c-8.48822,0 -21.5,6.75 -21.5,6.75z" data-paper-data="{&quot;origPos&quot;:null}" fill="#9700ff" stroke-width="0" stroke="none" transform="matrix(1,0,0,1,-209.95908,-81.75002)"/><path d="M225.25551,91.09546l0.00784,-2.58455l-2.04555,-1.82296l2.49921,-0.15376l0.43631,-3.26126l2.09903,2.47378l2.11469,-1.35025l-1.09663,2.98103l1.63538,2.29113l-3.29553,-0.62619z" data-paper-data="{&quot;origPos&quot;:null,&quot;origRot&quot;:0}" fill="#fff300" stroke-width="0" stroke="none" transform="matrix(1,0,0,1,-209.95908,-81.75002)"/><path d="M237.60771,108.77255l1.59602,-2.4392l-0.81385,-2.98115l2.45783,1.39075l2.41714,-2.81576l0.46439,3.62946l2.82965,0.02297l-2.86931,2.1449l0.13821,3.17175l-2.73145,-2.61776z" data-paper-data="{&quot;origPos&quot;:null,&quot;origRot&quot;:0}" fill="#fff300" stroke-width="0" stroke="none" transform="matrix(1,0,0,1,-209.95908,-81.75002)"/><path d="M251.44639,116.7649l-1.08064,-2.70726l-2.90805,-1.0454l2.54989,-1.21376l-0.91747,-3.59574l3.23818,1.70376l1.64353,-2.30353l0.10859,3.58075l2.67616,1.708l-3.71158,0.73326z" data-paper-data="{&quot;origPos&quot;:null,&quot;origRot&quot;:0}" fill="#fff300" stroke-width="0" stroke="none" transform="matrix(1,0,0,1,-209.95908,-81.75002)"/><path d="M235.14202,117.58255l-2.65825,-1.19613l-2.81777,1.26876l0.99047,-2.64464l-3.15825,-1.94848l3.51265,-1.02468l-0.41857,-2.79862l2.5661,2.49974l3.1114,-0.63111l-2.15979,3.10625z" data-paper-data="{&quot;origPos&quot;:null,&quot;origRot&quot;:0}" fill="#fff300" stroke-width="0" stroke="none" transform="matrix(1,0,0,1,-209.95908,-81.75002)"/><path d="M238.83385,90.88971l2.86043,0.56121l2.45602,-1.87551l-0.36401,2.80047l3.51822,1.18036l-3.18817,1.79561l1.04318,2.63045l-3.06673,-1.85168l-2.88679,1.32121l1.39795,-3.51557z" data-paper-data="{&quot;origPos&quot;:null,&quot;origRot&quot;:0}" fill="#fff300" stroke-width="0" stroke="none" transform="matrix(1,0,0,1,-209.95908,-81.75002)"/><path d="M233.31429,103.68107l-0.22576,-2.90621l-2.46502,-1.86367l2.7956,-0.39968l0.1945,-3.70584l2.58421,2.59046l2.25474,-1.70986l-0.96225,3.45075l2.0464,2.42721l-3.7616,-0.40485z" data-paper-data="{&quot;origPos&quot;:null,&quot;origRot&quot;:0}" fill="#fff300" stroke-width="0" stroke="none" transform="matrix(1,0,0,1,-209.95908,-81.75002)"/></g></g></g></svg>