<svg xmlns="http://www.w3.org/2000/svg" xmlns:xlink="http://www.w3.org/1999/xlink" version="1.1" width="497.55697" height="381.75" viewBox="0,0,497.55697,381.75"><defs><linearGradient x1="219.5" y1="269.40094" x2="296.87288" y2="269.40094" gradientUnits="userSpaceOnUse" id="color-1"><stop offset="0" stop-color="#0e005f"/><stop offset="1" stop-color="#0b0099"/></linearGradient><linearGradient x1="194.38904" y1="322.23695" x2="161.375" y2="278.93035" gradientUnits="userSpaceOnUse" id="color-2"><stop offset="0" stop-color="#0e005f"/><stop offset="1" stop-color="#0b0099"/></linearGradient><linearGradient x1="317.36605" y1="316.23695" x2="350.38008" y2="272.93035" gradientUnits="userSpaceOnUse" id="color-3"><stop offset="0" stop-color="#0e005f"/><stop offset="1" stop-color="#0b0099"/></linearGradient><linearGradient x1="230.557" y1="284.8777" x2="307.9299" y2="284.8777" gradientUnits="userSpaceOnUse" id="color-1-,0,0,1,11.05698,15.47673"><stop offset="0" stop-color="#0e005f"/><stop offset="1" stop-color="#0b0099"/></linearGradient><linearGradient x1="205.446" y1="337.7137" x2="172.432" y2="294.4071" gradientUnits="userSpaceOnUse" id="color-2-,0,0,1,11.05698,15.47673"><stop offset="0" stop-color="#0e005f"/><stop offset="1" stop-color="#0b0099"/></linearGradient><linearGradient x1="328.423" y1="331.7137" x2="361.4371" y2="288.4071" gradientUnits="userSpaceOnUse" id="color-3-,0,0,1,11.05698,15.47673"><stop offset="0" stop-color="#0e005f"/><stop offset="1" stop-color="#0b0099"/></linearGradient></defs><g><g data-paper-data="{&quot;isPaintingLayer&quot;:true}" fill-rule="nonzero" stroke-linejoin="miter" stroke-miterlimit="10" stroke-dasharray="" stroke-dashoffset="0" style="mix-blend-mode: normal"><path d="M 6.557 380.75 L 6.557 342.75 L 496.557 342.75 L 496.557 380.75 Z " data-paper-data="{&quot;origPos&quot;:null}" fill="#7a7a7a" stroke="#7a7a7a" stroke-width="2" stroke-linecap="butt"/><path d="M 230.557 341.75 L 230.557 228.0053 L 307.9299 228.0053 L 307.9299 341.75 Z " data-paper-data="{&quot;origPos&quot;:null}" fill="url(#color-1-,0,0,1,11.05698,15.47673)" stroke="#006399" stroke-width="2" stroke-linecap="butt"/><path d="M 272.458 220.2509 C 285.542 220.3157 305.9841 224.956 305.9841 224.956 C 305.9841 224.956 310.1657 231.8366 310.1657 238.9223 C 310.1657 246.1443 309.8172 260.5701 309.8172 260.5701 C 309.8172 260.5701 287.2131 248.5663 271.4071 248.705 C 256.1622 248.8388 229.5561 260.5701 229.5561 260.5701 C 229.5561 260.5701 228.9242 245.9968 228.5197 238.904 C 228.0763 231.1302 231.8189 229.3813 232.4702 227.5567 C 232.6873 226.9485 235.4801 224.6068 235.4801 224.6068 C 235.4801 224.6068 258.0269 220.1794 272.458 220.2509 Z " data-paper-data="{&quot;origPos&quot;:null,&quot;index&quot;:null}" fill="#b2b2b2" stroke="#b2b2b2" stroke-width="2" stroke-linecap="butt"/><path d="M 141.6478 317.8749 L 203.2162 270.9393 L 236.2302 314.2459 L 174.6618 361.1815 Z " data-paper-data="{&quot;origPos&quot;:null,&quot;origRot&quot;:0,&quot;index&quot;:null}" fill="url(#color-2-,0,0,1,11.05698,15.47673)" stroke="#006399" stroke-width="2" stroke-linecap="butt"/><path d="M 150.3074 341.4103 C 144.8308 334.1546 138.6998 320.9694 138.6998 320.9694 C 138.6998 320.9694 140.6151 315.8561 144.4013 312.9697 C 148.2603 310.0279 156.1155 304.3441 156.1155 304.3441 C 156.1155 304.3441 159.2225 321.7234 165.9544 330.4003 C 172.4473 338.7691 189.9227 348.6912 189.9227 348.6912 C 189.9227 348.6912 182.4017 354.9768 178.7821 358.0895 C 174.815 361.5011 172.304 360.1457 171.0547 360.529 C 170.6382 360.6568 168.2106 360.0676 168.2106 360.0676 C 168.2106 360.0676 156.3478 349.4132 150.3074 341.4103 Z " data-paper-data="{&quot;origPos&quot;:null,&quot;origRot&quot;:0,&quot;index&quot;:null}" fill="#b2b2b2" stroke="#b2b2b2" stroke-width="2" stroke-linecap="butt"/><path d="M 241.1693 305.2964 C 241.1693 305.2964 241.0934 307.8258 240.8568 308.1983 C 240.1471 309.3157 240.7973 312.1322 236.4003 315.0918 C 232.3885 317.7922 224.2305 323.452 224.2305 323.452 C 224.2305 323.452 219.228 303.7195 212.7956 295.1315 C 206.1265 286.2274 189.9841 278.5288 189.9841 278.5288 C 189.9841 278.5288 197.6439 272.3811 201.5531 269.4011 C 205.3885 266.4772 210.8971 265.9785 210.8971 265.9785 C 210.8971 265.9785 222.1312 275.5054 227.749 282.8019 C 233.9453 290.8497 241.1693 305.2964 241.1693 305.2964 Z " data-paper-data="{&quot;origPos&quot;:null,&quot;index&quot;:null,&quot;origRot&quot;:0}" fill="#b2b2b2" stroke="#b2b2b2" stroke-width="2" stroke-linecap="butt"/><path d="M 359.2072 355.1815 L 297.6388 308.2459 L 330.6529 264.9393 L 392.2213 311.8749 Z " data-paper-data="{&quot;origPos&quot;:null,&quot;origRot&quot;:0,&quot;index&quot;:null}" fill="url(#color-3-,0,0,1,11.05698,15.47673)" stroke="#006399" stroke-width="2" stroke-linecap="butt"/><path d="M 365.6584 354.0676 C 365.6584 354.0676 363.2308 354.6568 362.8144 354.529 C 361.5651 354.1457 359.0541 355.5011 355.0869 352.0895 C 351.4673 348.9768 343.9464 342.6912 343.9464 342.6912 C 343.9464 342.6912 361.4218 332.7691 367.9147 324.4003 C 374.6466 315.7234 377.7536 298.3441 377.7536 298.3441 C 377.7536 298.3441 385.6088 304.0279 389.4678 306.9697 C 393.254 309.8561 395.1693 314.9694 395.1693 314.9694 C 395.1693 314.9694 389.0382 328.1546 383.5617 335.4103 C 377.5213 343.4132 365.6584 354.0676 365.6584 354.0676 Z " data-paper-data="{&quot;origPos&quot;:null,&quot;origRot&quot;:0,&quot;index&quot;:null}" fill="#b2b2b2" stroke="#b2b2b2" stroke-width="2" stroke-linecap="butt"/><path d="M 306.12 276.8019 C 311.7379 269.5054 322.972 259.9785 322.972 259.9785 C 322.972 259.9785 328.4806 260.4772 332.316 263.401 C 336.2251 266.3811 343.8849 272.5288 343.8849 272.5288 C 343.8849 272.5288 327.7426 280.2274 321.0734 289.1315 C 314.641 297.7195 309.6386 317.452 309.6386 317.452 C 309.6386 317.452 301.4806 311.7922 297.4687 309.0918 C 293.0717 306.1322 293.722 303.3157 293.0122 302.1983 C 292.7757 301.8258 292.6998 299.2964 292.6998 299.2964 C 292.6998 299.2964 299.9237 284.8497 306.12 276.8019 Z " data-paper-data="{&quot;origPos&quot;:null,&quot;index&quot;:null,&quot;origRot&quot;:0}" fill="#b2b2b2" stroke="#b2b2b2" stroke-width="2" stroke-linecap="butt"/><path d="M 55.2512 36.2923 C 55.934 43.2523 59.6357 52.3937 57.8264 59.149 C 56.8156 62.9229 48.9883 61.0539 46.4621 64.0341 C 40.4831 71.0877 40.3563 66.3571 31.1538 67.2599 C 22.2471 68.1338 12.7657 69.2521 6.1884 63.1832 C -0.1242 57.3585 2.0938 50.1382 1.2551 41.5899 C -0.7862 20.7844 9.6465 2.7323 24.5571 1.2694 C 39.4677 -0.1935 53.2099 15.4868 55.2512 36.2923 Z " data-paper-data="{&quot;origRot&quot;:0,&quot;origPos&quot;:null}" fill="#000000" stroke="#000000" stroke-width="2" stroke-linecap="butt"/><path d="M 19.7721 54.2027 L 45.0713 133.0843 " data-paper-data="{&quot;origPos&quot;:null,&quot;origRot&quot;:0}" fill="none" stroke="#000000" stroke-width="12.5" stroke-linecap="round"/><path d="M 18.2406 17.5284 L 53.8592 128.5854 " data-paper-data="{&quot;origPos&quot;:null,&quot;origRot&quot;:0}" fill="none" stroke="#000000" stroke-width="12.5" stroke-linecap="round"/><path d="M 62.2703 132.6857 L 26.6517 21.6287 " data-paper-data="{&quot;origPos&quot;:null,&quot;origRot&quot;:0}" fill="none" stroke="#000000" stroke-width="12.5" stroke-linecap="round"/><path d="M 83.0211 185.1895 L 38.3037 129.1943 " data-paper-data="{&quot;origPos&quot;:null,&quot;origRot&quot;:0}" fill="none" stroke="#000000" stroke-width="12.5" stroke-linecap="round"/><path d="M 89.6746 179.1215 L 44.9573 123.1262 " data-paper-data="{&quot;origPos&quot;:null,&quot;origRot&quot;:0}" fill="none" stroke="#000000" stroke-width="12.5" stroke-linecap="round"/><path d="M 94.5706 173.9531 L 49.8533 117.9579 " data-paper-data="{&quot;origPos&quot;:null,&quot;origRot&quot;:0}" fill="none" stroke="#000000" stroke-width="17.5" stroke-linecap="round"/><path d="M 84.4538 154.414 C 84.4538 154.414 120.4536 147.7749 136.2295 148.3718 C 141.4882 148.5708 144.7563 174.0687 144.7563 174.0687 " data-paper-data="{&quot;origPos&quot;:null,&quot;origRot&quot;:0}" fill="none" stroke="#000000" stroke-width="17.5" stroke-linecap="round"/><path d="M 139.0425 197.1829 C 139.0425 197.1829 119.6961 217.8355 115.4815 214.6305 C 102.8379 205.0156 79.2602 175.9344 79.2602 175.9344 " data-paper-data="{&quot;origPos&quot;:null,&quot;origRot&quot;:0,&quot;index&quot;:null}" fill="none" stroke="#000000" stroke-width="17.5" stroke-linecap="round"/><path d="M 404.557 8.75 L 406.557 145.75 " data-paper-data="{&quot;origPos&quot;:null}" fill="none" stroke="#6b6b6b" stroke-width="17.5" stroke-linecap="round"/><path d="M 236.4378 358.0833 C 236.4378 358.0833 233.6809 355.8478 233.4665 355.2672 C 232.8235 353.5253 229.129 351.8556 229.5666 344.4341 C 229.9659 337.6628 230.5898 323.75 230.5898 323.75 C 230.5898 323.75 256.8547 334.9496 271.9041 335.0773 C 287.5074 335.2098 309.8217 323.75 309.8217 323.75 C 309.8217 323.75 310.1657 337.522 310.1657 344.4167 C 310.1657 351.1812 306.0377 357.75 306.0377 357.75 C 306.0377 357.75 285.8577 362.18 272.9415 362.2418 C 258.6955 362.3101 236.4378 358.0833 236.4378 358.0833 Z " data-paper-data="{&quot;origPos&quot;:null}" fill="#b2b2b2" stroke="#b2b2b2" stroke-width="2" stroke-linecap="butt"/><path d="M 422.512 168.75 C 422.512 175.3774 414.7877 180.75 405.2592 180.75 C 395.7308 180.75 388.0064 175.3774 388.0064 168.75 C 388.0064 162.1226 395.7308 156.75 405.2592 156.75 C 414.7877 156.75 422.512 162.1226 422.512 168.75 Z " data-paper-data="{&quot;origPos&quot;:null}" fill="#fff200" stroke="#fffd00" stroke-width="17.5" stroke-linecap="butt"/><path d="M 366.557 177.75 L 373.7068 162.0833 C 373.7068 162.0833 380.7179 148.4835 384.6084 148.3129 C 396.28 147.8011 429.9727 146.75 429.9727 146.75 L 449.557 177.75 Z " data-paper-data="{&quot;origPos&quot;:null}" fill="#b2b2b2" stroke="#b2b2b2" stroke-width="2" stroke-linecap="butt"/></g></g></svg>