<svg version="1.1" xmlns="http://www.w3.org/2000/svg" xmlns:xlink="http://www.w3.org/1999/xlink" width="64.58432" height="194.5388" viewBox="0,0,64.58432,194.5388"><defs><linearGradient x1="218.03949" y1="144.97716" x2="218.03949" y2="179.8414" gradientUnits="userSpaceOnUse" id="color-1"><stop offset="0" stop-color="#06d100"/><stop offset="1" stop-color="#1fff00"/></linearGradient><linearGradient x1="220.88196" y1="160.49897" x2="220.88196" y2="164.92146" gradientUnits="userSpaceOnUse" id="color-2"><stop offset="0" stop-color="#06d100"/><stop offset="1" stop-color="#1fff00"/></linearGradient><radialGradient cx="223.17753" cy="123.42655" r="27.84223" gradientUnits="userSpaceOnUse" id="color-3"><stop offset="0" stop-color="#00ff3a"/><stop offset="1" stop-color="#05cc00"/></radialGradient></defs><g transform="translate(-205.52788,-53.33337)"><g data-paper-data="{&quot;isPaintingLayer&quot;:true}" fill-rule="nonzero" stroke-linejoin="miter" stroke-miterlimit="10" stroke-dasharray="" stroke-dashoffset="0" style="mix-blend-mode: normal"><path d="M242.3575,139.90637v67.297l-12.0476,38.9188" data-paper-data="{&quot;origPos&quot;:null}" fill="none" stroke="#000000" stroke-width="3.5" stroke-linecap="round"/><path d="M243.1606,205.76667l12.0477,40.1587" fill="none" stroke="#000000" stroke-width="3.5" stroke-linecap="round"/><path d="M218.2622,117.01587c0,-13.9728 11.3272,-25.3 25.3,-25.3c13.9728,0 25.3,11.3272 25.3,25.3c0,13.9728 -11.3272,25.3 -25.3,25.3c-13.9728,0 -25.3,-11.3272 -25.3,-25.3z" data-paper-data="{&quot;origPos&quot;:null}" fill="#d4d4d4" stroke="#000000" stroke-width="2.5" stroke-linecap="butt"/><path d="M239.14474,110.99206c0,-2.66149 2.15756,-4.81905 4.81905,-4.81905c2.66149,0 4.81905,2.15756 4.81905,4.81905c0,2.66149 -2.15756,4.81905 -4.81905,4.81905c-2.66149,0 -4.81905,-2.15756 -4.81905,-4.81905z" data-paper-data="{&quot;origPos&quot;:null}" fill="#000000" stroke="none" stroke-width="0" stroke-linecap="butt"/><path d="M252.79873,110.99206c0,-2.66148 2.15757,-4.81905 4.81905,-4.81905c2.66148,0 4.81905,2.15757 4.81905,4.81905c0,2.66148 -2.15757,4.81905 -4.81905,4.81905c-2.66148,0 -4.81905,-2.15757 -4.81905,-4.81905z" data-paper-data="{&quot;origPos&quot;:null}" fill="#000000" stroke="none" stroke-width="0" stroke-linecap="butt"/><path d="M241.05429,148.23016c0,0 -8.1047,16.55769 -11.9118,21.66925c-3.01909,4.05356 -9.11993,6.56882 -9.11993,6.56882" fill="none" stroke="#000000" stroke-width="3.5" stroke-linecap="round"/><path d="M258.9431,177.80157l-15.6984,-29.5714" data-paper-data="{&quot;origPos&quot;:null,&quot;index&quot;:null}" fill="none" stroke="#000000" stroke-width="3.5" stroke-linecap="round"/><path d="M228.0001,104.66667l21.6666,38.6667" data-paper-data="{&quot;origPos&quot;:null}" fill="none" stroke="#676767" stroke-width="1" stroke-linecap="round"/><path d="M243.7811,120.36387h15c0,0 1.4044,9.0964 -7.5,9c-7.9067,-0.0855 -7.5,-9 -7.5,-9z" data-paper-data="{&quot;origPos&quot;:null}" fill="#ffffff" stroke="#000000" stroke-width="1.5" stroke-linecap="butt"/><g data-paper-data="{&quot;origPos&quot;:null}" stroke="none" stroke-width="0" stroke-linecap="butt"><path d="M218.91673,107.33337l10.33333,-54l31,43c0,0 -7.95982,5.02694 -16.04142,7.17769c-8.04927,2.14214 -25.29191,3.82231 -25.29191,3.82231z" data-paper-data="{&quot;origPos&quot;:null}" fill="#ffc166"/><path d="M229.08339,68.41671c0,-1.79493 1.45507,-3.25 3.25,-3.25c1.79493,0 3.25,1.45507 3.25,3.25c0,1.79493 -1.45507,3.25 -3.25,3.25c-1.79493,0 -3.25,-1.45507 -3.25,-3.25z" data-paper-data="{&quot;origPos&quot;:null}" fill="#ff4141"/><path d="M243.75006,87.58337c0,-1.79493 1.45507,-3.25 3.25,-3.25c1.79493,0 3.25,1.45507 3.25,3.25c0,1.79493 -1.45507,3.25 -3.25,3.25c-1.79493,0 -3.25,-1.45507 -3.25,-3.25z" data-paper-data="{&quot;origPos&quot;:null}" fill="#4041ff"/><path d="M235.25006,96.58338c0,-1.79493 1.45507,-3.25 3.25,-3.25c1.79493,0 3.25,1.45508 3.25,3.25c0,1.79492 -1.45507,3.25 -3.25,3.25c-1.79493,0 -3.25,-1.45508 -3.25,-3.25z" data-paper-data="{&quot;origPos&quot;:null}" fill="#fff640"/><path d="M236.25006,76.75004c0,-1.79493 1.45507,-3.25 3.25,-3.25c1.79493,0 3.25,1.45507 3.25,3.25c0,1.79493 -1.45507,3.25 -3.25,3.25c-1.79493,0 -3.25,-1.45507 -3.25,-3.25z" data-paper-data="{&quot;origPos&quot;:null}" fill="#58ff40"/><path d="M226.08339,83.91671c0,-1.79493 1.45507,-3.25 3.25,-3.25c1.79493,0 3.25,1.45507 3.25,3.25c0,1.79492 -1.45507,3.25 -3.25,3.25c-1.79493,0 -3.25,-1.45508 -3.25,-3.25z" data-paper-data="{&quot;origPos&quot;:null}" fill="#ff40d3"/><path d="M222.58339,95.91671c0,-1.79493 1.45507,-3.25 3.25,-3.25c1.79493,0 3.25,1.45507 3.25,3.25c0,1.79493 -1.45507,3.25 -3.25,3.25c-1.79493,0 -3.25,-1.45507 -3.25,-3.25z" data-paper-data="{&quot;origPos&quot;:null}" fill="#40fffd"/></g><g><g fill="url(#color-1)" stroke="#00ff31" stroke-width="0" stroke-linecap="butt"><g><path d="M217.36636,144.97716c-0.56912,0.65169 0.52351,2.7776 -0.06689,3.45444c-0.755,0.86508 -1.5628,1.77611 -2.01783,2.84746c-0.5658,1.33041 -0.01368,1.69098 -0.48288,-0.01085c0.26784,0.9708 0.78029,1.94562 1.70625,2.44688c1.8117,0.98089 3.55436,0.32795 3.77044,-1.81377c-0.02419,1.13091 -0.04768,2.26113 -0.07117,3.39281c-0.01886,-0.80282 0.19832,-2.33217 -0.89465,-1.25744c-0.55392,0.54417 -1.11578,1.10825 -1.4306,1.83602c-0.6139,1.41872 -0.81726,1.14584 -0.23073,2.64264c0.27516,0.70338 0.55578,1.44429 1.03763,2.04049c0.02495,0.03158 1.56369,1.6064 1.5751,1.27278c0.02564,-0.74526 0.13081,-1.38873 0.5023,-2.04084c-0.02253,1.15171 -0.04505,2.30273 -0.06758,3.45444c-5.0341,3.63031 -3.0332,9.03617 0.6642,13.14473c0.5743,0.63815 -0.61749,2.84304 -0.06751,3.45444c-4.2366,-4.70801 -6.58321,-15.68787 -0.52911,-20.05362c-0.51176,0.36948 0.29029,2.82624 -0.06758,3.45444c-0.39008,0.68486 -0.46491,1.26124 -0.49228,2.05825c-0.00083,0.07878 -0.00518,0.15817 -0.01361,0.23612c-3.43758,-2.58854 -3.27043,-6.96576 -2.92713,-10.83979c0.12065,-1.36475 2.92782,-6.43955 3.00273,-3.27333c0.03013,1.28687 0.01928,2.58529 -0.05217,3.87078c-0.2111,3.75918 -5.03928,2.40756 -5.48278,-0.57168c-0.54479,-3.66748 0.16854,-6.92057 2.63587,-9.74543z"/></g></g><path d="M221.1831,160.49897c0,0 0.07532,2.0841 -0.0691,3.10956c-0.06634,0.46989 -0.55281,1.31293 -0.55281,1.31293" fill="url(#color-2)" stroke="#13e800" stroke-width="2" stroke-linecap="round"/></g><path d="M231.04882,132.59166c-1.19518,8.70567 -11.58882,14.96624 -14.72712,14.85763c-3.42232,-0.11826 -11.87387,-9.63947 -10.67907,-18.34581c1.19554,-8.70571 7.85177,-14.98274 14.86725,-14.0197c7.01545,0.96304 11.73409,8.80217 10.53894,17.50787z" fill="url(#color-3)" stroke="none" stroke-width="1" stroke-linecap="butt"/></g></g></svg>