<svg version="1.1" xmlns="http://www.w3.org/2000/svg" xmlns:xlink="http://www.w3.org/1999/xlink" width="491.80001" height="370.35002" viewBox="0,0,491.80001,370.35002"><g transform="translate(6.90001,4.35002)"><g data-paper-data="{&quot;isPaintingLayer&quot;:true}" fill-rule="nonzero" stroke="none" stroke-width="0" stroke-linecap="butt" stroke-linejoin="miter" stroke-miterlimit="10" stroke-dasharray="" stroke-dashoffset="0" style="mix-blend-mode: normal"><path d="M416.3,324.55c0,0 -16.8302,-13.12747 -21.56451,-20.95357c-5.04583,-8.34106 -7.83549,-27.64643 -7.83549,-27.64643l86.4,-5.4v55.8z" data-paper-data="{&quot;index&quot;:null}" fill="#434e48"/><path d="M-3.90001,327.35v-55.8l86.4,5.4c0,0 0.11117,19.72644 -3.8993,26.35598c-5.38088,8.89493 -25.5007,22.24402 -25.5007,22.24402z" fill="#434e48"/><path d="M469.70001,326.85c0,0 -7.86894,-38.57943 -12.32889,-78.4489c-4.02422,-35.97434 -2.09244,-55.39119 -5.29047,-96.3011c-2.60386,-33.30912 -16.52797,-67.46439 -18.52238,-84.81945c-1.88824,-16.43123 0.96727,-35.01298 -2.96366,-47.14226c-4.06885,-12.55488 -9.49461,-24.48831 -9.49461,-24.48831h62.4l-0.6,331.20001z" data-paper-data="{&quot;index&quot;:null}" fill="#545956"/><path d="M-6.30001,324.85l-0.6,-328.20001h62.4c0,0 -1.82575,10.57786 -5.89461,22.95079c-3.93092,11.95349 -10.07542,33.22246 -11.96366,49.41556c-1.99441,17.10354 0.88148,46.62467 -1.72237,79.45105c-3.19803,40.31702 -12.06625,60.63506 -16.09047,96.08804c-4.45995,39.29165 -12.92889,78.49457 -12.92889,78.49457z" fill="#545956"/><path d="M-6.1,366v-43.4c0,0 31.06835,-3.45041 91.06543,-0.21229c50.31714,2.71568 126.31432,9.21229 164.33457,9.21229c48.82306,0 111.90794,-12.24834 164.27248,-15.72831c14.89225,-0.98969 44.874,1.64645 52.48912,3.77758c9.58736,2.68307 18.8384,2.15073 18.8384,2.15073v44.2z" fill="#93a099"/></g></g></svg>