<svg xmlns="http://www.w3.org/2000/svg" xmlns:xlink="http://www.w3.org/1999/xlink" version="1.1" width="132.25021" height="103.7296" viewBox="0,0,132.25021,103.7296"><defs><linearGradient x1="236.68298" y1="109.24478" x2="236.68298" y2="166.23456" gradientUnits="userSpaceOnUse" id="color-1"><stop offset="0" stop-color="#fffcbb" stop-opacity="0"/><stop offset="1" stop-color="#fffcbb"/></linearGradient></defs><g><g data-paper-data="{&quot;isPaintingLayer&quot;:true}" fill-rule="nonzero" stroke-linecap="butt" stroke-linejoin="miter" stroke-miterlimit="10" stroke-dasharray="" stroke-dashoffset="0" style="mix-blend-mode: normal"><path d="M205.90016,164.69769v-9.15695h81.11474v9.15695z" data-paper-data="{&quot;origPos&quot;:null}" fill="#c9b800" stroke="none" stroke-width="0" transform="matrix(1,0,0,1,-170.55788,-109.24478)"/><path d="M199.98465,212.80021v-41.57865h58.86877v41.57865z" data-paper-data="{&quot;origPos&quot;:null}" fill="#fff27e" stroke="none" stroke-width="0" transform="matrix(1,0,0,1,-170.55788,-109.24478)"/><path d="M192.36878,212.80021v-46.93035h9.05675v46.93035z" data-paper-data="{&quot;origPos&quot;:null}" fill="#e5d62f" stroke="none" stroke-width="0" transform="matrix(1,0,0,1,-170.55788,-109.24478)"/><path d="M258.23591,212.80021v-46.93035l7.98807,0.10217l4.2444,-1.95469l0.11762,46.62161l-3.34086,2.33543z" data-paper-data="{&quot;origPos&quot;:null}" fill="#e5d62f" stroke="none" stroke-width="0" transform="matrix(1,0,0,1,-170.55788,-109.24478)"/><path d="M196.07382,174.92659v-9.05674h67.92551v9.05674z" data-paper-data="{&quot;origPos&quot;:null}" fill="#e5d62f" stroke="none" stroke-width="0" transform="matrix(1,0,0,1,-170.55788,-109.24478)"/><path d="M269.96851,211.13295v-46.84776l14.16143,-8.25425l-0.09263,44.50782z" data-paper-data="{&quot;origPos&quot;:null}" fill="#fff27e" stroke="none" stroke-width="0" transform="matrix(1,0,0,1,-170.55788,-109.24478)"/><path d="M283.98587,200.5942l-0.15438,-44.2545l4.7342,-2.88168v43.48263z" data-paper-data="{&quot;origPos&quot;:null}" fill="#e5d62f" stroke="none" stroke-width="0" transform="matrix(1,0,0,1,-170.55788,-109.24478)"/><path d="M269.55683,173.8974v-9.4684l15.02595,-8.43923v9.26257z" data-paper-data="{&quot;origPos&quot;:null}" fill="#e5d62f" stroke="none" stroke-width="0" transform="matrix(1,0,0,1,-170.55788,-109.24478)"/><path d="M 32.2581 25.0825 C 32.2581 25.0825 37.0279 26.3479 40.0374 28.2751 C 46.1799 32.2086 48.7371 40.694 44.4014 46.5595 C 41.167 50.9351 37.3658 48.5736 37.3658 48.5736 Z " data-paper-data="{&quot;origPos&quot;:null,&quot;origRot&quot;:0}" fill="#ffed4d" stroke="#c9b800" stroke-width="4.5"/><path d="M215.25634,157.61993c0,0 3.38083,-8.17434 2.72962,-10.77939c-0.82565,-3.30293 -2.78221,-7.61857 -5.27306,-9.84322c-2.67407,-2.38827 -10.65377,-4.55054 -10.65377,-4.55054l70.07176,-1.07138c0,0 11.05384,3.42172 13.40359,5.85116c2.19727,2.2718 5.35824,8.12573 6.28617,11.19858c0.92793,3.07285 -4.49368,9.01642 -4.49368,9.01642z" data-paper-data="{&quot;origPos&quot;:null,&quot;index&quot;:null}" fill="#fff27e" stroke="none" stroke-width="0" transform="matrix(1,0,0,1,-170.55788,-109.24478)"/><path d="M192.06671,173.60723v-9.57317l15.19221,-8.53261v9.36506z" data-paper-data="{&quot;origPos&quot;:null}" fill="#e5d62f" stroke="none" stroke-width="0" transform="matrix(1,0,0,1,-170.55788,-109.24478)"/><path d="M196.2013,165.56837l13.04176,-8.17331l72.67139,-0.31983l-13.5748,8.77742z" data-paper-data="{&quot;origPos&quot;:null}" fill="#fffccc" stroke="none" stroke-width="0" transform="matrix(1,0,0,1,-170.55788,-109.24478)"/><path d="M196.75828,165.52924l-26.2004,-41.62383c0,0 36.39332,-14.52822 64.29109,-14.6599c27.75012,-0.13099 67.95912,17.32875 67.95912,17.32875l-34.10185,39.66029z" data-paper-data="{&quot;origPos&quot;:null,&quot;origRot&quot;:0}" fill="url(#color-1)" stroke="none" stroke-width="NaN" transform="matrix(1,0,0,1,-170.55788,-109.24478)"/><path d="M 100.8104 24.8031 C 100.8104 24.8031 105.8458 25.0557 109.4697 26.2493 C 113.1636 27.4659 115.3115 29.0812 117.1062 32.5314 C 119.8004 37.7107 121.1212 41.2609 118.9278 46.6713 C 116.7454 52.055 112.1876 50.6225 112.1876 50.6225 Z " data-paper-data="{&quot;origPos&quot;:null}" fill="#fff27e" stroke="#e5d62f" stroke-width="4.5"/><path d="M273.23284,137.70922c0.1005,-2.0222 3.16258,-3.51338 6.83931,-3.33065c3.67673,0.18273 8.6515,10.08187 8.551,12.10408c-0.0981,1.97364 -0.2408,2.68392 -1.39081,1.07696c-1.10285,-1.54107 -3.08479,-5.26415 -4.71149,-6.23632c-0.98283,-0.58736 -1.81475,-0.76211 -2.91723,-1.07114c-1.30735,-0.36648 -1.86859,-0.55539 -3.22465,-0.6228c-3.67673,-0.18273 -3.24662,0.10205 -3.14611,-1.92015z" data-paper-data="{&quot;origPos&quot;:null}" fill="#e5d62f" stroke="none" stroke-width="0" transform="matrix(1,0,0,1,-170.55788,-109.24478)"/></g></g></svg>