<svg xmlns="http://www.w3.org/2000/svg" xmlns:xlink="http://www.w3.org/1999/xlink" version="1.1" width="69.0031" height="64.92813" viewBox="0,0,69.0031,64.92813"><g><g data-paper-data="{&quot;isPaintingLayer&quot;:true}" fill-rule="nonzero" stroke-linecap="butt" stroke-linejoin="miter" stroke-miterlimit="10" stroke-dasharray="" stroke-dashoffset="0" style="mix-blend-mode: normal"><path d="M 23.6755 56.2483 C 20.5103 53.3438 17.9289 58.1446 17.6461 52.8419 C 17.3314 46.9421 8.1679 52.5872 7.0421 46.2339 C 5.9163 39.8806 -0.0123 31.8162 2.267 25.4688 C 4.5464 19.1215 2.2867 14.8119 6.6849 12.4358 C 11.0831 10.0596 18.0669 13.4534 24.4877 11.7199 C 30.9086 9.9864 30.2317 1.7258 36.4032 1.7501 C 42.5748 1.7743 49.3191 8.2893 54.2698 11.3055 C 59.2205 14.3216 66.0792 9.9806 67.2531 15.171 C 68.427 20.3614 62.9848 27.5345 62.2186 34.3707 C 61.4523 41.2069 62.6885 50.9447 60.0901 57.8498 C 57.4917 64.7549 52.7464 53.6962 47.9247 56.8326 C 43.103 59.969 48.1418 55.1663 42.0179 57.5955 C 35.894 60.0247 34.8513 64.6984 30.739 62.6888 C 26.6268 60.6791 26.8408 59.1529 23.6755 56.2483 Z " stroke-width="3.5" fill="#fff52f" stroke="#ffa32b"/></g></g></svg>