<svg xmlns="http://www.w3.org/2000/svg" xmlns:xlink="http://www.w3.org/1999/xlink" version="1.1" width="18.81538" height="18.97343" viewBox="0,0,18.81538,18.97343"><defs><radialGradient cx="240" cy="180" r="9.13327" gradientUnits="userSpaceOnUse" id="color-1"><stop offset="0" stop-color="#ded24c"/><stop offset="1" stop-color="#db8b00"/></radialGradient><radialGradient cx="9.4093" cy="9.4881" r="9.1333" gradientUnits="userSpaceOnUse" id="color-1-,0,0,1,-230.5907,-170.51185"><stop offset="0" stop-color="#ded24c"/><stop offset="1" stop-color="#db8b00"/></radialGradient></defs><g><g data-paper-data="{&quot;isPaintingLayer&quot;:true}" fill-rule="nonzero" stroke-linecap="butt" stroke-linejoin="miter" stroke-miterlimit="10" stroke-dasharray="" stroke-dashoffset="0" style="mix-blend-mode: normal"><g><path d="M 9.3636 1.352 C 10.502 1.331 13.1549 2.3353 13.1549 2.3353 L 15.0293 0.4129 L 18.4509 3.7754 L 16.5787 5.746 C 16.5787 5.746 17.5083 8.1763 17.5275 9.2207 C 17.5531 10.6111 16.5403 12.996 16.5403 12.996 L 18.4638 14.906 L 15.0123 18.4609 L 13.0645 16.5577 C 13.0645 16.5577 10.882 17.3621 9.6587 17.3846 C 8.3295 17.4091 5.9557 16.5564 5.9557 16.5564 L 3.8918 18.6214 L 0.3548 15.1479 L 2.4064 13.0876 C 2.4064 13.0876 1.5186 10.8054 1.4948 9.5159 C 1.4704 8.1867 2.3231 5.8129 2.3231 5.8129 L 0.3624 3.8452 L 3.8139 0.3549 L 5.7417 2.2901 C 5.7417 2.2901 8.0538 1.3761 9.3636 1.352 Z " fill="url(#color-1-,0,0,1,-230.5907,-170.51185)" stroke="#000000" stroke-width="0.5"/><path d="M238.53464,178.52714c0.78693,-0.79375 2.06833,-0.79927 2.86208,-0.01234c0.79375,0.78693 0.79927,2.06833 0.01234,2.86208c-0.78693,0.79375 -2.06832,0.79927 -2.86207,0.01234c-0.79375,-0.78693 -0.79928,-2.06833 -0.01235,-2.86208z" fill="#000000" stroke="none" stroke-width="0" transform="matrix(1,0,0,1,-230.5907,-170.51185)"/></g></g></g></svg>