<svg version="1.1" xmlns="http://www.w3.org/2000/svg" xmlns:xlink="http://www.w3.org/1999/xlink" width="222.07968" height="404.94572" viewBox="0,0,222.07968,404.94572"><g transform="translate(-128.96016,22.47286)"><g data-paper-data="{&quot;isPaintingLayer&quot;:true}" fill-rule="nonzero" stroke-linejoin="miter" stroke-miterlimit="10" stroke-dasharray="" stroke-dashoffset="0" style="mix-blend-mode: normal"><g><path d="M305.82178,382.47286l-61.40661,-60.65837l-7.3411,-100.49616l16.30391,-2.06677l-3.06463,100.01968l58.39985,62.97312z" data-paper-data="{&quot;index&quot;:null}" fill="#879f8d" stroke="none" stroke-width="NaN" stroke-linecap="butt"/><path d="M279.47264,372.50486l-56.49836,-51.03285l-6.08683,-100.57991l16.32843,-1.86322l-4.31216,99.97367l53.46297,53.30991z" data-paper-data="{&quot;index&quot;:null}" fill="#879f8d" stroke="none" stroke-width="NaN" stroke-linecap="butt"/><path d="M180.68779,357.89658l-18.86454,-65.84965l49.63154,-87.69311l14.71257,7.3232l-58.02571,81.52512l15.0788,66.10804z" data-paper-data="{&quot;index&quot;:null}" fill="#879f8d" stroke="none" stroke-width="NaN" stroke-linecap="butt"/><path d="M165.0768,361.189l-20.81416,-56.65238l42.28058,-91.46432l15.26307,6.09327l-51.15185,86.00475l17.0623,57.22004z" data-paper-data="{&quot;index&quot;:null}" fill="#879f8d" stroke="none" stroke-width="NaN" stroke-linecap="butt"/><path d="M351.03984,11.79061l-75.8652,40.25702l-30.00847,95.46109l-14.71661,-7.31509l39.9918,-92.48798l77.94316,-37.082z" data-paper-data="{&quot;index&quot;:null}" fill="#879f8d" stroke="none" stroke-width="NaN" stroke-linecap="butt"/><path d="M246.78362,-22.47286l-39.12038,64.57423l28.15846,96.02307l-16.29884,2.10644l-18.20821,-99.10515l42.61322,-63.09144z" data-paper-data="{&quot;index&quot;:null}" fill="#879f8d" stroke="none" stroke-width="NaN" stroke-linecap="butt"/><path d="M224.98713,-7.83382l-35.98651,57.46837l27.97767,96.0759l-16.30277,2.07575l-18.02165,-99.13924l39.47655,-55.97901z" data-paper-data="{&quot;index&quot;:null}" fill="#879f8d" stroke="none" stroke-width="NaN" stroke-linecap="butt"/><path d="M137.8576,14.65101l-2.84407,59.64198l70.28213,71.23027l-13.35671,9.57535l-62.97879,-78.65775l6.62259,-59.99052z" data-paper-data="{&quot;index&quot;:null}" fill="#879f8d" stroke="none" stroke-width="NaN" stroke-linecap="butt"/><path d="M310.08712,162.87609c4.40637,1.69884 8.74002,8.36915 8.74002,8.36915c0,0 -5.88865,-3.69011 -8.6896,-3.21396c-1.58782,0.26993 -3.69011,3.21396 -3.69011,3.21396l-7.38021,-7.61829c0,0 6.61355,-2.4497 11.01992,-0.75086z" data-paper-data="{&quot;index&quot;:null}" fill="#ffffff" stroke="none" stroke-width="0" stroke-linecap="butt"/><path d="M298.78945,200.40739l7.38021,-7.61829c0,0 2.10229,2.94404 3.69011,3.21396c2.80095,0.47615 8.6896,-3.21396 8.6896,-3.21396c0,0 -4.33365,6.67031 -8.74002,8.36915c-4.40637,1.69884 -11.01992,-0.75086 -11.01992,-0.75086z" fill="#ffffff" stroke="none" stroke-width="0" stroke-linecap="butt"/><path d="M215.57316,129.23675c35.99717,0 65.17863,23.57968 65.17863,52.66667c0,29.087 -29.18147,52.66666 -65.17863,52.66666c-35.99717,0 -65.17865,-23.57966 -65.17865,-52.66666c0,-29.087 29.18148,-52.66667 65.17865,-52.66667z" fill="#728677" stroke="none" stroke-width="NaN" stroke-linecap="butt"/><path d="M286.07888,204.86814c-12.68307,0 -22.96472,-10.28165 -22.96472,-22.96472c0,-12.68307 10.28165,-22.96472 22.96472,-22.96472c8.75779,0 16.37056,4.90233 20.24387,12.11252c1.73603,3.23165 1.64954,6.92691 1.64954,10.85219c0,4.05723 0.01919,7.86871 -1.82714,11.1765c-3.92535,7.03248 -11.44042,11.78821 -20.06626,11.78821z" fill="#b2d1ba" stroke="none" stroke-width="0" stroke-linecap="butt"/><g fill="none" stroke="#ff0000" stroke-width="1.5" stroke-linecap="round"><g><path d="M281.41664,187.6965l-7.22149,7.22149"/><path d="M288.33013,186.43609l-6.11991,6.77572"/><path d="M293.17481,185.05271l-3.95964,6.46175"/><path d="M297.80388,184.16511l-1.2218,5.86657"/></g><g data-paper-data="{&quot;index&quot;:null}"><path d="M274.35387,168.88887l7.22149,7.22151"/><path d="M288.48885,177.37077l-6.11991,-6.77572"/><path d="M289.37389,172.2924l3.95962,6.46175"/><path d="M297.96261,179.64176l-1.22182,-5.86657"/></g></g></g></g></g></svg>