<svg xmlns="http://www.w3.org/2000/svg" xmlns:xlink="http://www.w3.org/1999/xlink" version="1.1" width="36.88468" height="32.125" viewBox="0,0,36.88468,32.125"><g><g data-paper-data="{&quot;isPaintingLayer&quot;:true}" fill-rule="nonzero" stroke-linejoin="miter" stroke-miterlimit="10" stroke-dasharray="" stroke-dashoffset="0" style="mix-blend-mode: normal"><g data-paper-data="{&quot;origPos&quot;:null,&quot;origRot&quot;:0}"><path d="M 27.9682 9.9351 C 29.3967 9.8274 30.5762 9.4541 30.5762 9.4541 C 30.5762 9.4541 30.3431 9.7499 30.3535 9.9273 C 30.365 10.1235 30.6322 10.4112 30.6322 10.4112 C 30.6322 10.4112 30.3986 10.7367 30.4086 10.933 C 30.4185 11.1255 30.6832 11.2647 30.6832 11.2647 L 28.1233 11.8489 C 28.1233 11.8489 25.5022 12.0122 25.4594 11.4442 C 25.4165 10.8763 26.5398 10.0429 27.9682 9.9351 Z " data-paper-data="{&quot;origPos&quot;:null,&quot;origRot&quot;:0}" fill="#ffed33" stroke="#000000" stroke-width="0.5" stroke-linecap="butt"/><g data-paper-data="{&quot;origPos&quot;:null,&quot;origRot&quot;:0,&quot;index&quot;:null}" stroke-linecap="butt"><path d="M 19.0169 20.4949 L 16.363 19.5323 L 16.274 16.5921 L 12.0671 16.1412 L 10.0751 12.1953 L 13.4296 9.1692 L 15.0358 13.5927 L 19.0065 15.0918 L 18.357 18.3625 L 20.1054 19.3221 Z " data-paper-data="{&quot;origPos&quot;:null}" fill="#ffed33" stroke="#000000" stroke-width="0.5"/><path d="M242.89215,184.18416l-1.88357,-0.72684l0.45032,-0.15325l0.14682,-0.34785l0.35621,-0.24152l0.05061,-0.33904l1.68606,0.93962z" data-paper-data="{&quot;origPos&quot;:null}" fill="#99621f" stroke="none" stroke-width="0" transform="matrix(1,0,0,1,-223.93751,-163.9375)"/></g><g data-paper-data="{&quot;origRot&quot;:0,&quot;origPos&quot;:null,&quot;index&quot;:null}" stroke-linecap="butt"><path d="M 31.4493 2.5967 C 35.2344 3.3997 36.5203 5.1483 36.5203 5.1483 C 36.5203 5.1483 34.7575 6.2013 30.7752 5.5211 C 26.5319 4.7963 26.031 3.0353 26.031 3.0353 C 26.031 3.0353 27.562 1.772 31.4493 2.5967 Z " fill="#ffed33" stroke="#000000" stroke-width="0.5"/><path d="M257.15936,167.01872c0,0 1.27474,0.55837 1.92324,0.93646c0.56872,0.33158 1.40794,1.09469 1.40794,1.09469c0,0 -1.20902,0.49821 -1.95127,0.66022c-0.6805,0.14854 -1.41634,0.02153 -1.41634,0.02153z" data-paper-data="{&quot;origPos&quot;:null}" fill="#000000" stroke="none" stroke-width="0" transform="matrix(1,0,0,1,-223.93751,-163.9375)"/></g><path d="M 19.5564 13.9087 C 20.5427 11.3076 21.1376 9.6806 23.4088 9.5747 C 25.68 9.4689 26.7225 11.3849 27.6476 13.5318 C 28.5726 15.6786 29.7882 18.7878 28.5063 21.3189 C 27.2244 23.8499 26.1995 21.386 24.2623 21.4479 C 22.3251 21.5097 20.4415 23.2027 19.4377 21.6084 C 18.4339 20.0142 18.57 16.5099 19.5563 13.9087 Z " data-paper-data="{&quot;origPos&quot;:null}" fill="#ffed33" stroke="#000000" stroke-width="0.5" stroke-linecap="butt"/><path d="M 18.5034 6.3495 C 18.3787 3.6738 20.4467 1.4037 23.1224 1.2791 C 25.7981 1.1544 28.0682 3.2224 28.1929 5.8981 C 28.3176 8.5738 26.2495 10.8439 23.5739 10.9686 C 20.8982 11.0932 18.6281 9.0252 18.5034 6.3495 Z " data-paper-data="{&quot;origPos&quot;:null}" fill="#ffed33" stroke="#000000" stroke-width="0.5" stroke-linecap="butt"/><g data-paper-data="{&quot;origPos&quot;:null,&quot;origRot&quot;:0}" stroke-linecap="butt"><path d="M248.91207,169.3014c-0.16513,-0.69399 0.26356,-1.39046 0.95755,-1.5556c0.69398,-0.16514 1.39047,0.26357 1.5556,0.95756c0.16513,0.69399 -0.26357,1.39046 -0.95757,1.55559c-0.69398,0.16514 -1.39046,-0.26356 -1.55559,-0.95756z" data-paper-data="{&quot;origPos&quot;:null}" fill="#000000" stroke-width="NaN" stroke="none" transform="matrix(1,0,0,1,-223.93751,-163.9375)"/><path d="M250.04886,168.85576c-0.06793,-0.28543 0.10841,-0.57187 0.39383,-0.63981c0.28543,-0.06792 0.57187,0.10841 0.63981,0.39383c0.06793,0.28543 -0.10841,0.57187 -0.39383,0.63981c-0.28543,0.06792 -0.57187,-0.10841 -0.63981,-0.39383z" data-paper-data="{&quot;origPos&quot;:null}" fill="#ffffff" stroke-width="0" stroke="none" transform="matrix(1,0,0,1,-223.93751,-163.9375)"/></g><g data-paper-data="{&quot;origPos&quot;:null,&quot;origRot&quot;:0}" stroke-linecap="butt"><path d="M246.10695,169.41015c-0.17974,-0.69036 0.2342,-1.39571 0.92455,-1.57543c0.69035,-0.17974 1.39571,0.2342 1.57544,0.92456c0.17974,0.69036 -0.23421,1.3957 -0.92457,1.57544c-0.69035,0.17974 -1.3957,-0.2342 -1.57543,-0.92456z" data-paper-data="{&quot;origPos&quot;:null}" fill="#000000" stroke-width="NaN" stroke="none" transform="matrix(1,0,0,1,-223.93751,-163.9375)"/><path d="M247.23597,168.93795c-0.07393,-0.28394 0.09632,-0.57404 0.38026,-0.64796c0.28394,-0.07393 0.57405,0.09633 0.64797,0.38027c0.07393,0.28394 -0.09633,0.57404 -0.38027,0.64796c-0.28394,0.07393 -0.57404,-0.09632 -0.64796,-0.38026z" data-paper-data="{&quot;origPos&quot;:null}" fill="#ffffff" stroke-width="0" stroke="none" transform="matrix(1,0,0,1,-223.93751,-163.9375)"/></g><path d="M 26.2072 8.1318 C 26.2072 8.1318 25.8918 8.7485 25.6713 8.7469 C 25.3545 8.7446 25.1646 8.4932 24.8482 8.508 C 24.5569 8.5215 24.405 8.7848 24.1144 8.8093 C 23.7482 8.8401 23.148 8.2743 23.148 8.2743 " data-paper-data="{&quot;origPos&quot;:null}" fill="none" stroke="#000000" stroke-width="0.5" stroke-linecap="round"/><path d="M249.75235,170.56284c0.25281,0.23392 -0.51813,1.1791 -0.8251,1.15927c-0.23081,-0.01491 -1.28489,-0.84226 -1.11835,-1.08707c0.11618,-0.17081 1.75697,-0.24475 1.94345,-0.0722z" data-paper-data="{&quot;index&quot;:null,&quot;origPos&quot;:null,&quot;origRot&quot;:0}" fill="#000000" stroke="none" stroke-width="0" stroke-linecap="butt" transform="matrix(1,0,0,1,-223.93751,-163.9375)"/><path d="M 18.5644 6.7218 C 18.5644 6.7218 19.0623 6.1603 19.4625 6.1416 C 20.0559 6.114 20.561 6.6087 20.5907 7.2466 C 20.6205 7.8845 20.1635 8.424 19.5701 8.4516 L 19.0959 8.4186 C 19.0959 8.4186 18.7891 7.9332 18.6805 7.5864 C 18.5817 7.271 18.5644 6.7218 18.5644 6.7218 Z " data-paper-data="{&quot;origPos&quot;:null}" fill="#ff0000" stroke="#000000" stroke-width="0.5" stroke-linecap="butt"/><path d="M 27.3407 6.8195 C 27.4252 6.3386 27.6697 5.6594 28.1469 5.7245 C 28.3773 5.756 28.0897 8.1423 27.7565 7.9474 C 27.3162 7.6899 27.2562 7.3004 27.3407 6.8195 Z " data-paper-data="{&quot;origPos&quot;:null}" fill="#ff0000" stroke="#000000" stroke-width="0.5" stroke-linecap="butt"/><path d="M 20.9321 12.7765 C 20.82 13.5182 20.4702 15.3463 20.4702 15.3463 C 20.4702 15.3463 20.2339 15.053 20.0588 15.0235 C 19.865 14.9909 19.5248 15.1871 19.5248 15.1871 C 19.5248 15.1871 19.2597 14.8867 19.0662 14.8526 C 18.8763 14.8192 18.5422 15.0142 18.5422 15.0142 C 18.5422 15.0142 18.7791 13.2198 18.8927 12.4683 C 19.1068 11.0519 19.7368 9.9727 20.3 10.0578 C 20.8631 10.1429 21.1461 11.3602 20.932 12.7766 Z " data-paper-data="{&quot;origPos&quot;:null,&quot;origRot&quot;:0}" fill="#ffed33" stroke="#000000" stroke-width="0.5" stroke-linecap="butt"/><g data-paper-data="{&quot;origRot&quot;:0,&quot;origPos&quot;:null,&quot;index&quot;:null}" stroke-linecap="butt"><path d="M 20.7652 3.1769 C 20.7652 3.1769 20.5724 4.9976 16.5152 6.4365 C 12.7076 7.7869 10.7909 7.0504 10.7909 7.0504 C 10.7909 7.0504 11.7592 5.1078 15.3515 3.6701 C 19.0409 2.1936 20.7652 3.1769 20.7652 3.1769 Z " fill="#ffed33" stroke="#000000" stroke-width="0.5"/><path d="M238.12456,171.05465c0,0 -0.70333,0.25083 -1.39921,0.2207c-0.759,-0.03286 -2.03535,-0.31725 -2.03535,-0.31725c0,0 0.69653,-0.89524 1.20027,-1.31908c0.5744,-0.48328 1.73503,-1.25117 1.73503,-1.25117z" data-paper-data="{&quot;origPos&quot;:null}" fill="#000000" stroke="none" stroke-width="0" transform="matrix(1,0,0,1,-223.93751,-163.9375)"/></g></g><g data-paper-data="{&quot;origPos&quot;:null}"><path d="M 0.75 16.0625 C 0.75 7.6056 7.6056 0.75 16.0625 0.75 C 16.9927 0.75 16.1492 16.0334 16.1492 16.0334 C 16.1492 16.0334 31.375 15.2294 31.375 16.0625 C 31.375 24.5194 24.5194 31.375 16.0625 31.375 C 7.6056 31.375 0.75 24.5194 0.75 16.0625 Z " data-paper-data="{&quot;origPos&quot;:null}" fill="#ffffff" stroke="#000000" stroke-width="1.5" stroke-linecap="butt"/><path d="M225.46177,179.51108c0,0 -0.44742,-2.73295 1.98074,-6.91592c1.67164,-2.8797 3.73712,-4.71333 6.76565,-6.09718c2.28601,-1.04457 5.50277,-1.19843 5.50277,-1.19843l-0.05429,14.21553z" data-paper-data="{&quot;origPos&quot;:null}" fill="#ff0000" stroke="none" stroke-width="0" stroke-linecap="butt" transform="matrix(1,0,0,1,-223.93751,-163.9375)"/><path d="M 31.375 16.1576 L 0.9402 16.1576 " data-paper-data="{&quot;origPos&quot;:null}" fill="none" stroke="#000000" stroke-width="1.5" stroke-linecap="round"/><g data-paper-data="{&quot;origPos&quot;:null}" stroke-linecap="butt"><path d="M 10.0707 16.1576 C 10.0707 12.7959 12.7959 10.0707 16.1576 10.0707 C 19.5194 10.0707 22.2446 12.7959 22.2446 16.1576 C 22.2446 19.5194 19.5194 22.2446 16.1576 22.2446 C 12.7959 22.2446 10.0707 19.5193 10.0707 16.1576 Z " fill="#ffffff" stroke="#000000" stroke-width="1.5"/><path d="M237.24187,180c0,-1.62833 1.32003,-2.94837 2.94836,-2.94837c1.62833,0 2.94837,1.32004 2.94837,2.94837c0,1.62833 -1.32004,2.94837 -2.94837,2.94837c-1.62833,0 -2.94836,-1.32004 -2.94836,-2.94837z" data-paper-data="{&quot;origPos&quot;:null}" fill="#000000" stroke="none" stroke-width="0" transform="matrix(1,0,0,1,-223.93751,-163.9375)"/></g></g><path d="M247.64286,169.39286c0,-0.21697 0.17589,-0.39286 0.39286,-0.39286c0.21697,0 0.39286,0.17589 0.39286,0.39286c0,0.21697 -0.17589,0.39286 -0.39286,0.39286c-0.21697,0 -0.39286,-0.17589 -0.39286,-0.39286z" fill="#ffffff" stroke="none" stroke-width="NaN" stroke-linecap="butt" transform="matrix(1,0,0,1,-223.93751,-163.9375)"/><path d="M250.46894,169.3059c0,-0.21697 0.17589,-0.39285 0.39286,-0.39285c0.21697,0 0.39285,0.17588 0.39285,0.39285c0,0.21697 -0.17588,0.39286 -0.39285,0.39286c-0.21697,0 -0.39286,-0.17589 -0.39286,-0.39286z" data-paper-data="{&quot;origPos&quot;:null}" fill="#ffffff" stroke="none" stroke-width="NaN" stroke-linecap="butt" transform="matrix(1,0,0,1,-223.93751,-163.9375)"/></g></g></svg>