<svg xmlns="http://www.w3.org/2000/svg" xmlns:xlink="http://www.w3.org/1999/xlink" version="1.1" width="488.5" height="161.33333" viewBox="0,0,488.5,161.33333"><g><g data-paper-data="{&quot;isPaintingLayer&quot;:true}" fill-rule="nonzero" stroke-linejoin="miter" stroke-miterlimit="10" stroke-dasharray="" stroke-dashoffset="0" style="mix-blend-mode: normal"><path d="M 1 160.3333 L 1 133.3333 L 487.5 133.3333 L 487.5 160.3333 Z " data-paper-data="{&quot;origPos&quot;:null}" fill="#bf0000" stroke="#000000" stroke-width="2" stroke-linecap="butt"/><path d="M 326 118.6667 L 296.6667 118.6667 " fill="none" stroke="#000000" stroke-width="0.5" stroke-linecap="round"/><path d="M 296.3333 127 L 325.6667 127.3333 " fill="none" stroke="#000000" stroke-width="0.5" stroke-linecap="round"/><path d="M 186.6667 118.6667 L 157.3333 118.6667 " data-paper-data="{&quot;origPos&quot;:null}" fill="none" stroke="#000000" stroke-width="0.5" stroke-linecap="round"/><path d="M 186.3333 127.3333 L 157 127 " data-paper-data="{&quot;origPos&quot;:null}" fill="none" stroke="#000000" stroke-width="0.5" stroke-linecap="round"/><g><path d="M 416.6667 135.3333 L 416.6667 107.3333 L 435.6667 107.3333 L 435.6667 135.3333 Z " fill="#494949" stroke="#000000" stroke-width="2" stroke-linecap="butt"/><path d="M 413 106.3333 L 413 95.3333 L 440.6667 95.3333 L 440.6667 106.3333 Z " fill="#494949" stroke="#494949" stroke-width="2" stroke-linecap="butt"/><path d="M 394 48 C 394 55.732 388.1797 62 381 62 C 373.8203 62 368 55.732 368 48 C 368 40.268 373.8203 34 381 34 C 388.1797 34 394 40.268 394 48 Z " data-paper-data="{&quot;origPos&quot;:null}" fill="#494949" stroke="#494949" stroke-width="2" stroke-linecap="butt"/><path d="M 408 39 C 408 46.1797 402.4036 52 395.5 52 C 388.5964 52 383 46.1797 383 39 C 383 31.8203 388.5964 26 395.5 26 C 402.4036 26 408 31.8203 408 39 Z " data-paper-data="{&quot;origPos&quot;:null}" fill="#494949" stroke="#494949" stroke-width="2" stroke-linecap="butt"/><path d="M 394 20 C 394 30.4934 386.3888 39 377 39 C 367.6112 39 360 30.4934 360 20 C 360 9.5066 367.6112 1 377 1 C 386.3888 1 394 9.5066 394 20 Z " data-paper-data="{&quot;origPos&quot;:null}" fill="#494949" stroke="#494949" stroke-width="2" stroke-linecap="butt"/><path d="M 377.6667 31.1667 C 377.6667 38.6225 371.8464 44.6667 364.6667 44.6667 C 357.487 44.6667 351.6667 38.6225 351.6667 31.1667 C 351.6667 23.7108 357.487 17.6667 364.6667 17.6667 C 371.8464 17.6667 377.6667 23.7108 377.6667 31.1667 Z " data-paper-data="{&quot;origPos&quot;:null}" fill="#494949" stroke="#494949" stroke-width="2" stroke-linecap="butt"/><path d="M 366 18 C 366 25.732 357.9411 32 348 32 C 338.0589 32 330 25.732 330 18 C 330 10.268 338.0589 4 348 4 C 357.9411 4 366 10.268 366 18 Z " data-paper-data="{&quot;origPos&quot;:null}" fill="#494949" stroke="#494949" stroke-width="2" stroke-linecap="butt"/><path d="M 105.3333 41.3333 C 112.513 41.3333 118.3333 47.6013 118.3333 55.3333 C 118.3333 63.0653 112.513 69.3333 105.3333 69.3333 C 98.1536 69.3333 92.3333 63.0653 92.3333 55.3333 C 92.3333 47.6013 98.1536 41.3333 105.3333 41.3333 Z " data-paper-data="{&quot;origPos&quot;:null,&quot;index&quot;:null}" fill="#494949" stroke="#494949" stroke-width="2" stroke-linecap="butt"/><path d="M 90.8333 33.3333 C 97.7369 33.3333 103.3333 39.1536 103.3333 46.3333 C 103.3333 53.513 97.7369 59.3333 90.8333 59.3333 C 83.9298 59.3333 78.3333 53.513 78.3333 46.3333 C 78.3333 39.1536 83.9298 33.3333 90.8333 33.3333 Z " data-paper-data="{&quot;origPos&quot;:null,&quot;index&quot;:null}" fill="#494949" stroke="#494949" stroke-width="2" stroke-linecap="butt"/><path d="M 109.3333 8.3333 C 118.7222 8.3333 126.3333 16.8399 126.3333 27.3333 C 126.3333 37.8267 118.7222 46.3333 109.3333 46.3333 C 99.9445 46.3333 92.3333 37.8267 92.3333 27.3333 C 92.3333 16.8399 99.9445 8.3333 109.3333 8.3333 Z " data-paper-data="{&quot;origPos&quot;:null,&quot;index&quot;:null}" fill="#494949" stroke="#494949" stroke-width="2" stroke-linecap="butt"/><path d="M 119 27.6667 C 126.1797 27.6667 132 33.7108 132 41.1667 C 132 48.6225 126.1797 54.6667 119 54.6667 C 111.8203 54.6667 106 48.6225 106 41.1667 C 106 33.7108 111.8203 27.6667 119 27.6667 Z " data-paper-data="{&quot;origPos&quot;:null,&quot;index&quot;:null}" fill="#494949" stroke="#494949" stroke-width="2" stroke-linecap="butt"/><path d="M 138.3333 11.3333 C 148.2745 11.3333 156.3333 17.6013 156.3333 25.3333 C 156.3333 33.0653 148.2745 39.3333 138.3333 39.3333 C 128.3922 39.3333 120.3333 33.0653 120.3333 25.3333 C 120.3333 17.6013 128.3922 11.3333 138.3333 11.3333 Z " data-paper-data="{&quot;origPos&quot;:null,&quot;index&quot;:null}" fill="#494949" stroke="#494949" stroke-width="2" stroke-linecap="butt"/><path d="M 52.6667 136.3333 L 52.6667 108.3333 L 71.6667 108.3333 L 71.6667 136.3333 Z " data-paper-data="{&quot;origPos&quot;:null}" fill="#494949" stroke="#000000" stroke-width="2" stroke-linecap="butt"/><path d="M 49 107.3333 L 49 96.3333 L 76.6667 96.3333 L 76.6667 107.3333 Z " data-paper-data="{&quot;origPos&quot;:null}" fill="#494949" stroke="#494949" stroke-width="2" stroke-linecap="butt"/><path d="M 189 135.6667 L 189 54.6667 L 293 54.6667 L 293 135.6667 Z " data-paper-data="{&quot;origPos&quot;:null}" fill="#494949" stroke="#000000" stroke-width="0.5" stroke-linecap="butt"/><path d="M 227 79.6667 L 227 64.6667 L 258 64.6667 L 258 79.6667 Z " data-paper-data="{&quot;origPos&quot;:null}" fill="#888888" stroke="#000000" stroke-width="0.5" stroke-linecap="butt"/><text transform="matrix(0.28407,0,0,0.28407,231.33333,76.49130000000002)" font-size="40" xml:space="preserve" data-paper-data="{&quot;origPos&quot;:null}" fill="#ff0000" fill-rule="nonzero" stroke="none" stroke-width="1" stroke-linecap="butt" stroke-linejoin="miter" stroke-miterlimit="10" stroke-dasharray="" stroke-dashoffset="0" font-family="Sans Serif" font-weight="normal" text-anchor="start" style="mix-blend-mode: normal"><tspan x="0" dy="0">EXIT</tspan></text><path d="M218.41667,343.00001v-40.66667h34v40.66667z" data-paper-data="{&quot;origPos&quot;:null}" fill="#5e5e5e" stroke="none" stroke-width="0" stroke-linecap="butt" transform="matrix(1,0,0,1,5.25,-207.33335)"/><path d="M 224 136 L 224 95 L 258 95 L 258 136 Z " fill="#5e5e5e" stroke="#000000" stroke-width="0.5" stroke-linecap="butt"/><path d="M 251.3333 118.5 C 251.3333 120.2489 249.8409 121.6667 248 121.6667 C 246.1591 121.6667 244.6667 120.2489 244.6667 118.5 C 244.6667 116.7511 246.1591 115.3333 248 115.3333 C 249.8409 115.3333 251.3333 116.7511 251.3333 118.5 Z " fill="#414141" stroke="#000000" stroke-width="0.5" stroke-linecap="butt"/><path d="M 296 136.3333 L 296 105.3333 L 326 105.3333 L 326 136.3333 Z " data-paper-data="{&quot;origPos&quot;:null}" fill="#7c5f00" stroke="#000000" stroke-width="0.5" stroke-linecap="butt"/><path d="M 296.3333 111.6667 L 325.6667 111.6667 " data-paper-data="{&quot;origPos&quot;:null}" fill="none" stroke="#000000" stroke-width="0.5" stroke-linecap="round"/><path d="M 156.6667 136.3333 L 156.6667 105.3333 L 186.6667 105.3333 L 186.6667 136.3333 Z " data-paper-data="{&quot;origPos&quot;:null}" fill="#7c5f00" stroke="#000000" stroke-width="0.5" stroke-linecap="butt"/><path d="M 186.3333 111.6667 L 157 111.6667 " data-paper-data="{&quot;origPos&quot;:null}" fill="none" stroke="#000000" stroke-width="0.5" stroke-linecap="round"/></g></g></g></svg>