<svg xmlns="http://www.w3.org/2000/svg" xmlns:xlink="http://www.w3.org/1999/xlink" version="1.1" width="29.5855" height="13.69323" viewBox="0,0,29.5855,13.69323"><g><g data-paper-data="{&quot;isPaintingLayer&quot;:true}" fill-rule="nonzero" stroke-linecap="butt" stroke-linejoin="miter" stroke-miterlimit="10" stroke-dasharray="" stroke-dashoffset="0" style="mix-blend-mode: normal"><path d="M249.99031,174.15527c0.7558,-0.37065 0.93235,1.18127 1.74644,1.24824c0.81409,0.06697 1.0042,-1.00202 1.9201,-1.00215c0.91592,-0.00012 0.95322,1.00164 2.04955,1.00158c1.09634,-0.00005 1.35593,-1.27714 2.20792,-0.89359c1.51369,0.68145 1.97134,3.86344 1.97134,3.86344l-0.16409,1.99673l-10.89121,-1.54318c0,0 0.05972,-4.13153 1.15994,-4.67108z" data-paper-data="{&quot;index&quot;:null}" fill="#d96464" stroke-width="0" stroke="none" transform="matrix(1,0,0,1,-230.30016,-171.05882)"/><path d="M241.35646,178.78698l-10.73359,2.40629l-0.32271,-1.9773c0,0 0.58954,-3.22943 2.04411,-4.02935c0.81872,-0.45025 1.17927,0.8021 2.27213,0.71477c1.09285,-0.08732 1.05021,-1.08889 1.96322,-1.16176c0.913,-0.07287 1.18769,0.97759 1.99386,0.84594c0.80617,-0.13165 0.86316,-1.63405 1.64609,-1.32483c1.13972,0.45014 1.13688,4.52622 1.13688,4.52622z" data-paper-data="{&quot;index&quot;:null}" fill="#d96464" stroke-width="0" stroke="none" transform="matrix(1,0,0,1,-230.30016,-171.05882)"/><path d="M240.65381,171.05882l2.79533,4.24477l3.34494,0.06666l2.71162,-4.31143c0,0 1.47007,13.09666 -4.45183,12.94136c-5.88129,-0.15424 -4.40006,-12.94136 -4.40006,-12.94136z" fill="#e64242" stroke-width="0" stroke="none" transform="matrix(1,0,0,1,-230.30016,-171.05882)"/><path d="M243.54086,178.1749c-0.4301,-0.40747 -0.44845,-1.08645 -0.04099,-1.51656c0.40747,-0.4301 0.51431,0.05217 0.94442,0.45963c0.4301,0.40747 1.02059,0.58583 0.61313,1.01593c-0.40747,0.4301 -1.08645,0.44845 -1.51656,0.04099z" fill="#802626" stroke-width="0" stroke="none" transform="matrix(1,0,0,1,-230.30016,-171.05882)"/><path d="M246.63696,178.01627c-0.40747,-0.4301 0.18302,-0.60847 0.61313,-1.01594c0.4301,-0.40747 0.53695,-0.88974 0.94442,-0.45963c0.40747,0.4301 0.38912,1.10909 -0.04099,1.51656c-0.4301,0.40747 -1.10909,0.38912 -1.51656,-0.04099z" data-paper-data="{&quot;index&quot;:null}" fill="#802626" stroke-width="0" stroke="none" transform="matrix(1,0,0,1,-230.30016,-171.05882)"/><path d="M230.65964,182.33923c-0.30442,-1.06519 -0.07243,-2.98668 1.7387,-3.77853c1.94837,-0.85186 8.59783,-0.91664 8.59783,-0.91664l0.38496,1.96876c0,0 -0.39565,0.56509 -0.54262,0.97561c-0.18688,0.52201 -0.48798,1.90312 -0.48798,1.90312c0,0 -0.85081,-1.29547 -1.70916,-1.15136c-0.85836,0.1441 -0.99886,1.64705 -0.99886,1.64705c0,0 -0.67907,-1.14567 -1.46373,-1.02244c-0.78467,0.12321 -1.14055,1.87106 -1.14055,1.87106c0,0 -0.76245,-1.4928 -1.54747,-1.22177c-0.78503,0.27101 -1.07924,2.13797 -1.07924,2.13797c0,0 -1.31076,-0.86923 -1.75188,-2.4128z" fill="#e64242" stroke-width="0" stroke="none" transform="matrix(1,0,0,1,-230.30016,-171.05882)"/><path d="M258.18031,184.39669c0,0 -0.38049,-1.85129 -1.17725,-2.08562c-0.79676,-0.23432 -1.48915,1.29224 -1.48915,1.29224c0,0 -0.43656,-1.72946 -1.22611,-1.81615c-0.78954,-0.08669 -1.41474,1.08926 -1.41474,1.08926c0,0 -0.19978,-1.55271 -1.06389,-1.65685c-0.8641,-0.10414 -1.65392,1.22939 -1.65392,1.22939c0,0 -0.36484,-1.36564 -0.57573,-1.87841c-0.16586,-0.40328 -0.5873,-0.94939 -0.5873,-0.94939l0.29322,-1.9845c0,0 6.64531,-0.24372 8.63109,0.51686c1.84591,0.70699 1.9863,2.76138 1.76536,3.84696c-0.24934,1.22518 -1.50165,2.39623 -1.50165,2.39623z" data-paper-data="{&quot;index&quot;:null}" fill="#e64242" stroke-width="0" stroke="none" transform="matrix(1,0,0,1,-230.30016,-171.05882)"/></g></g></svg>