<svg xmlns="http://www.w3.org/2000/svg" xmlns:xlink="http://www.w3.org/1999/xlink" version="1.1" width="65.23939" height="158.51523" viewBox="0,0,65.23939,158.51523"><g><g data-paper-data="{&quot;isPaintingLayer&quot;:true}" fill-rule="nonzero" stroke-linecap="none" stroke-linejoin="miter" stroke-miterlimit="10" stroke-dasharray="" stroke-dashoffset="0" font-family="none" font-weight="none" font-size="none" text-anchor="none" style="mix-blend-mode: normal"><g data-paper-data="{&quot;origPos&quot;:null}"><path d="M 13.4006 15.0687 C 13.4006 15.0687 11.4223 11.7135 9.8401 9.9695 C 7.8972 7.828 4.368 5.1127 4.368 5.1127 L 7.8244 0.6992 C 7.8244 0.6992 11.38 3.4434 13.3396 5.6035 C 14.9051 7.3289 16.8571 10.6552 16.8571 10.6552 Z " data-paper-data="{&quot;origPos&quot;:null,&quot;origRot&quot;:0}" fill="#a6a185" stroke="#000000" stroke-width="1" stroke-linecap="butt"/><path d="M 52.6783 42.3404 C 52.6783 42.3404 52.0151 38.5023 51.1522 36.3113 C 50.0926 33.6209 47.7523 29.8326 47.7523 29.8326 L 52.5467 26.9275 C 52.5467 26.9275 54.9014 30.7522 55.9701 33.4658 C 56.8238 35.6335 57.4727 39.4353 57.4727 39.4353 Z " data-paper-data="{&quot;origPos&quot;:null,&quot;origRot&quot;:0}" fill="#817d67" stroke="#000000" stroke-width="1" stroke-linecap="butt"/><path d="M 3.675 52.0088 C 3.675 52.0088 5.0066 48.3826 5.3788 46.0616 C 5.8359 43.2116 5.8 38.7588 5.8 38.7588 L 11.05 38.7588 C 11.05 38.7588 11.0797 43.2501 10.6187 46.1248 C 10.2504 48.4211 8.925 52.0088 8.925 52.0088 Z " data-paper-data="{&quot;origPos&quot;:null}" fill="#9a967b" stroke="#000000" stroke-width="1" stroke-linecap="butt"/><path d="M 30.9526 110.1929 C 30.9526 110.1929 30.0573 106.4351 29.0842 104.2953 C 27.8894 101.6678 25.3977 97.9773 25.3977 97.9773 L 29.7723 95.0747 C 29.7723 95.0747 32.2802 98.8008 33.4854 101.451 C 34.4481 103.5681 35.3272 107.2904 35.3272 107.2904 Z " data-paper-data="{&quot;origPos&quot;:null,&quot;origRot&quot;:0,&quot;index&quot;:null}" fill="#7a7662" stroke="#000000" stroke-width="1" stroke-linecap="butt"/><path d="M 25.1754 144.3302 C 25.1754 144.3302 26.5982 140.7387 27.029 138.4279 C 27.5579 135.5904 27.6346 131.1381 27.6346 131.1381 L 32.8829 131.2708 C 32.8829 131.2708 32.7991 135.7614 32.2656 138.6235 C 31.8393 140.9098 30.4237 144.4629 30.4237 144.4629 Z " data-paper-data="{&quot;origPos&quot;:null,&quot;origRot&quot;:0}" fill="#c1bb9b" stroke="#000000" stroke-width="1" stroke-linecap="butt"/><path d="M 16.9571 84.9792 C 16.9571 84.9792 17.6915 81.2257 18.5715 79.073 C 19.6731 76.378 22.0348 72.5577 22.0348 72.5577 L 26.5186 75.2887 C 26.5186 75.2887 23.6716 78.5729 22.5794 81.2447 C 21.69 83.4206 20.9408 87.2103 20.9408 87.2103 Z " data-paper-data="{&quot;origPos&quot;:null,&quot;index&quot;:null,&quot;origRot&quot;:0}" fill="#b4ae90" stroke="#000000" stroke-width="1" stroke-linecap="butt"/><path d="M 47.175 87.2588 C 47.175 87.2588 48.5066 83.6326 48.8788 81.3116 C 49.3359 78.4616 49.3 74.0088 49.3 74.0088 L 54.55 74.0088 C 54.55 74.0088 54.5797 78.5001 54.1187 81.3748 C 53.7504 83.6711 52.425 87.2588 52.425 87.2588 Z " data-paper-data="{&quot;origPos&quot;:null}" fill="#9c977d" stroke="#000000" stroke-width="1" stroke-linecap="butt"/><path d="M 38.4888 63.0454 L 27.2966 63.7284 L 29.6721 57.0714 L 41.2906 56.3623 Z " data-paper-data="{&quot;origPos&quot;:null,&quot;origRot&quot;:0}" fill="#6b6855" stroke="#000000" stroke-width="1.5" stroke-linecap="butt"/><path d="M 49.9674 62.4892 L 38.7753 63.2279 L 41.1507 56.0286 L 52.7692 55.2618 Z " data-paper-data="{&quot;origPos&quot;:null,&quot;origRot&quot;:0}" fill="#928d75" stroke="#000000" stroke-width="1.5" stroke-linecap="butt"/><path d="M 61.2797 61.6545 L 50.0875 62.3376 L 52.463 55.6805 L 64.0815 54.9714 Z " data-paper-data="{&quot;origPos&quot;:null,&quot;origRot&quot;:0}" fill="#9c977d" stroke="#000000" stroke-width="1.5" stroke-linecap="butt"/><path d="M 36.0967 72.5127 C 36.0967 72.5127 34.9547 72.3513 34.2238 72.248 C 32.031 71.9381 24.9889 70.3737 24.9889 70.3737 L 28.6277 64.1653 C 28.6277 64.1653 33.4342 65.3 36.5106 65.7348 C 37.9343 65.936 40.1586 66.2503 40.1586 66.2503 Z " data-paper-data="{&quot;origPos&quot;:null,&quot;origRot&quot;:0}" fill="#908c73" stroke="#000000" stroke-width="1.5" stroke-linecap="butt"/><path d="M 46.9777 74.8842 L 35.87 73.1501 L 39.5087 66.2923 L 51.0396 68.0925 Z " data-paper-data="{&quot;origPos&quot;:null,&quot;origRot&quot;:0}" fill="#817d67" stroke="#000000" stroke-width="1.5" stroke-linecap="butt"/><path d="M 58.2047 74.9885 L 47.097 73.9007 L 50.7357 67.841 L 62.2666 68.9872 Z " data-paper-data="{&quot;origPos&quot;:null,&quot;origRot&quot;:0}" fill="#625f4f" stroke="#000000" stroke-width="1.5" stroke-linecap="butt"/><path d="M 22.2333 61.3051 L 22.2333 50.0922 L 29.5333 52.8687 L 29.5333 64.5088 Z " data-paper-data="{&quot;origPos&quot;:null}" fill="#817d67" stroke="#000000" stroke-width="1.5" stroke-linecap="butt"/><path d="M 18.4395 156.5652 C 18.4395 156.5652 13.3697 156.5995 13.0691 155.5974 C 12.1672 152.591 26.3918 118.0065 26.3918 118.0065 " data-paper-data="{&quot;origPos&quot;:null,&quot;index&quot;:null}" fill="none" stroke="#000000" stroke-width="3.5" stroke-linecap="round"/><path d="M 17.5413 129.7424 L 21.7548 118.8099 L 29.1961 118.4339 L 25.1371 128.9652 Z " data-paper-data="{&quot;origPos&quot;:null,&quot;origRot&quot;:0,&quot;index&quot;:null}" fill="#787560" stroke="#000000" stroke-width="1.5" stroke-linecap="butt"/><path d="M 14.1927 140.5433 L 18.1894 129.6108 L 25.2475 129.2348 L 21.3976 139.7661 Z " data-paper-data="{&quot;origPos&quot;:null,&quot;origRot&quot;:0,&quot;index&quot;:null}" fill="#817d67" stroke="#000000" stroke-width="1.5" stroke-linecap="butt"/><path d="M 9.5014 151.1876 L 13.8596 140.2551 L 21.5562 139.8792 L 17.358 150.4105 Z " data-paper-data="{&quot;origPos&quot;:null,&quot;origRot&quot;:0,&quot;index&quot;:null}" fill="#c3bd9c" stroke="#000000" stroke-width="1.5" stroke-linecap="butt"/><path d="M 22.6333 49.9718 L 22.6333 38.7588 L 29.1333 41.5354 L 29.1333 53.1755 Z " data-paper-data="{&quot;origPos&quot;:null}" fill="#817d67" stroke="#000000" stroke-width="1.5" stroke-linecap="butt"/><path d="M 44.5961 156.7652 C 44.5961 156.7652 39.5263 156.7995 39.2257 155.7974 C 38.3238 152.791 26.1484 116.6065 26.1484 116.6065 " data-paper-data="{&quot;origPos&quot;:null}" fill="none" stroke="#000000" stroke-width="3.5" stroke-linecap="round"/><path d="M 1.25 27.8557 C 1.25 13.8829 12.5772 2.5557 26.55 2.5557 C 40.5228 2.5557 51.85 13.8829 51.85 27.8557 C 51.85 41.8285 40.5228 53.1557 26.55 53.1557 C 12.5772 53.1557 1.25 41.8285 1.25 27.8557 Z " data-paper-data="{&quot;origPos&quot;:null}" fill="#eae3bb" stroke="#000000" stroke-width="2.5" stroke-linecap="butt"/><path d="M 5.1929 41.3065 C 5.1929 41.3065 20.6536 41.2559 30.5492 40.7435 C 37.8809 40.3639 49.3357 39.0208 49.3357 39.0208 C 49.3357 39.0208 46.3116 44.1823 43.4094 46.8013 C 38.7516 51.0044 34.7516 53.3448 28.4786 53.4493 C 28.4786 53.4493 18.1067 52.9578 12.7165 49.5244 C 9.0113 47.1644 5.1929 41.3065 5.1929 41.3065 Z " data-paper-data="{&quot;origPos&quot;:null}" fill="#9a967b" stroke="#000000" stroke-width="1.5" stroke-linecap="butt"/><path d="M238.08255,110.07306c0,-2.66149 2.15756,-4.81905 4.81905,-4.81905c2.66149,0 4.81905,2.15756 4.81905,4.81905c0,2.66149 -2.15756,4.81905 -4.81905,4.81905c-2.66149,0 -4.81905,-2.15756 -4.81905,-4.81905z" data-paper-data="{&quot;origPos&quot;:null}" fill="#000000" stroke="none" stroke-width="0" stroke-linecap="butt" transform="matrix(1,0,0,1,-215.95001,-87.74116)"/><path d="M251.73654,109.82306c0,-2.66148 2.15757,-4.81905 4.81905,-4.81905c2.66148,0 4.81905,2.15757 4.81905,4.81905c0,2.66148 -2.15757,4.81905 -4.81905,4.81905c-2.66148,0 -4.81905,-2.15757 -4.81905,-4.81905z" data-paper-data="{&quot;origPos&quot;:null}" fill="#000000" stroke="none" stroke-width="0" stroke-linecap="butt" transform="matrix(1,0,0,1,-215.95001,-87.74116)"/><path d="M 5.4786 41.8779 C 5.4786 41.8779 3.1283 38.7869 2.3555 36.4428 C 1.4558 33.7135 1.1928 28.8779 1.1928 28.8779 C 1.1928 28.8779 19.5508 29.0551 31.3009 28.5285 C 39.4542 28.1631 52.1928 26.5922 52.1928 26.5922 C 52.1928 26.5922 52.048 30.7068 51.4982 33.3404 C 50.9887 35.7802 49.4786 39.5922 49.4786 39.5922 C 49.4786 39.5922 36.875 41.2469 28.8081 41.666 C 19.7035 42.1389 5.4786 41.8779 5.4786 41.8779 Z " data-paper-data="{&quot;origPos&quot;:null}" fill="#817d67" stroke="#000000" stroke-width="1.5" stroke-linecap="butt"/><path d="M 48.4786 14.735 C 48.4786 14.735 36.8061 14.576 29.3352 14.9543 C 19.1886 15.4681 3.3357 17.0207 3.3357 17.0207 C 3.3357 17.0207 6.3598 11.4306 9.262 8.8117 C 13.9198 4.6085 19.4912 2.4109 24.7643 2.3064 C 31.0369 2.1821 35.4219 2.798 40.8121 6.2314 C 44.5173 8.5914 48.4786 14.735 48.4786 14.735 Z " data-paper-data="{&quot;origPos&quot;:null,&quot;index&quot;:null}" fill="#a6a185" stroke="#000000" stroke-width="1.5" stroke-linecap="butt"/><path d="M 31.4786 18.9763 L 22.3516 15.3256 " data-paper-data="{&quot;origPos&quot;:null}" fill="none" stroke="#000000" stroke-width="2.5" stroke-linecap="round"/><path d="M 36.5897 18.3962 L 43.5262 15.1105 " data-paper-data="{&quot;origPos&quot;:null}" fill="none" stroke="#000000" stroke-width="2.5" stroke-linecap="round"/><path d="M 22.6333 72.8051 L 22.6333 61.5922 L 29.1333 64.3687 L 29.1333 76.0088 Z " data-paper-data="{&quot;origPos&quot;:null}" fill="#9a967b" stroke="#000000" stroke-width="1.5" stroke-linecap="butt"/><path d="M 22.2333 84.1385 L 22.2333 72.9255 L 29.5333 75.702 L 29.5333 87.3422 Z " data-paper-data="{&quot;origPos&quot;:null}" fill="#a39e82" stroke="#000000" stroke-width="1.5" stroke-linecap="butt"/><path d="M 22.2333 95.6385 L 22.2333 84.4255 L 29.5333 87.202 L 29.5333 98.8422 Z " data-paper-data="{&quot;origPos&quot;:null}" fill="#676453" stroke="#000000" stroke-width="1.5" stroke-linecap="butt"/><path d="M 22.1333 106.9718 L 22.1333 95.7589 L 29.6333 98.5354 L 29.6333 110.1755 Z " data-paper-data="{&quot;origPos&quot;:null}" fill="#817d67" stroke="#000000" stroke-width="1.5" stroke-linecap="butt"/><path d="M 22.6333 118.4718 L 22.6333 107.2588 L 29.1333 110.0354 L 29.1333 121.6755 Z " data-paper-data="{&quot;origPos&quot;:null}" fill="#a5a084" stroke="#000000" stroke-width="1.5" stroke-linecap="butt"/><path d="M 26.8418 129.1652 L 22.9918 118.6339 L 30.05 119.0099 L 34.0466 129.9424 Z " data-paper-data="{&quot;origPos&quot;:null,&quot;origRot&quot;:0}" fill="#89856e" stroke="#000000" stroke-width="1.5" stroke-linecap="butt"/><path d="M 30.7993 139.9661 L 26.7404 129.4348 L 34.1816 129.8108 L 38.3952 140.7433 Z " data-paper-data="{&quot;origPos&quot;:null,&quot;origRot&quot;:0}" fill="#646150" stroke="#000000" stroke-width="1.5" stroke-linecap="butt"/><path d="M 34.6816 150.6105 L 30.8317 140.0792 L 37.8898 140.4551 L 41.8865 151.3876 Z " data-paper-data="{&quot;origPos&quot;:null,&quot;origRot&quot;:0}" fill="#817d67" stroke="#000000" stroke-width="1.5" stroke-linecap="butt"/></g></g></g></svg>