<svg xmlns="http://www.w3.org/2000/svg" xmlns:xlink="http://www.w3.org/1999/xlink" version="1.1" width="17.36416" height="19.0272" viewBox="0,0,17.36416,19.0272"><g><g data-paper-data="{&quot;isPaintingLayer&quot;:true}" fill-rule="nonzero" stroke-linecap="none" stroke-linejoin="miter" stroke-miterlimit="10" stroke-dasharray="" stroke-dashoffset="0" font-family="none" font-weight="none" font-size="none" text-anchor="none" style="mix-blend-mode: normal"><path d="M233.65289,188.88499v-11.81235h11.81235v11.81235z" data-paper-data="{&quot;origPos&quot;:null}" fill="#14e700" stroke="none" stroke-width="0" stroke-linecap="butt" transform="matrix(1,0,0,1,-230.81792,-169.99116)"/><path d="M235.6938,188.87603l-2.07748,0.01349l0.03196,-2.30958l9.77139,-9.15098l2.08489,-0.01568l-0.03938,2.19988z" data-paper-data="{&quot;origRot&quot;:0,&quot;origPos&quot;:null}" fill="#002aff" stroke="none" stroke-width="0" stroke-linecap="butt" transform="matrix(1,0,0,1,-230.81792,-169.99116)"/><path d="M230.81792,177.54514v-3.54371h17.36416v3.54371z" data-paper-data="{&quot;origPos&quot;:null}" fill="#0fb400" stroke="none" stroke-width="0" stroke-linecap="butt" transform="matrix(1,0,0,1,-230.81792,-169.99116)"/><path d="M233.65569,179.74199l-0.03937,-2.19988l2.08489,0.01569l9.77139,9.15098l0.03197,2.30958l-2.07748,-0.01349z" data-paper-data="{&quot;origRot&quot;:0,&quot;origPos&quot;:null,&quot;index&quot;:null}" fill="#002aff" stroke="none" stroke-width="0" stroke-linecap="butt" transform="matrix(1,0,0,1,-230.81792,-169.99116)"/><path d="M 8.2809 2.0414 C 8.7496 2.9407 8.6563 3.9164 8.0725 4.2207 C 7.4887 4.5249 6.6355 4.0425 6.1668 3.1431 C 5.6981 2.2437 5.7914 1.268 6.3752 0.9638 C 6.959 0.6596 7.8122 1.142 8.2809 2.0414 Z " data-paper-data="{&quot;origPos&quot;:null,&quot;origRot&quot;:0}" fill="none" stroke="#002aff" stroke-width="1" stroke-linecap="butt"/><path d="M 10.7786 0.8994 C 11.3624 1.2036 11.4557 2.1793 10.987 3.0787 C 10.5183 3.978 9.6651 4.4605 9.0813 4.1562 C 8.4975 3.852 8.4042 2.8763 8.8729 1.9769 C 9.3416 1.0776 10.1948 0.5951 10.7786 0.8994 Z " data-paper-data="{&quot;origPos&quot;:null,&quot;origRot&quot;:0,&quot;index&quot;:null}" fill="none" stroke="#002aff" stroke-width="1" stroke-linecap="butt"/><path d="M 5.3876 5.1373 L 8.4803 4.2352 L 12.0884 4.944 " data-paper-data="{&quot;origPos&quot;:null}" fill="none" stroke="#002aff" stroke-width="1" stroke-linecap="round"/></g></g></svg>