<svg version="1.1" xmlns="http://www.w3.org/2000/svg" xmlns:xlink="http://www.w3.org/1999/xlink" width="11.81601" height="12.90038" viewBox="0,0,11.81601,12.90038"><g transform="translate(-234.092,-173.60865)"><g data-paper-data="{&quot;isPaintingLayer&quot;:true}" fill-rule="nonzero" stroke="none" stroke-width="1" stroke-linecap="butt" stroke-linejoin="miter" stroke-miterlimit="10" stroke-dasharray="" stroke-dashoffset="0" style="mix-blend-mode: normal"><path d="M237.35197,177.19408c-0.92187,-1.47974 -2.35778,-3.58543 -2.35778,-3.58543l4.98698,0.93669c0,0 1.95031,1.50587 2.90406,2.3657c1.01772,0.91751 3.02278,2.97757 3.02278,2.97757c0,0 -1.79765,1.97142 -2.79223,2.86807c-0.98084,0.88427 -3.13461,2.4752 -3.13461,2.4752l-4.95126,1.27715c0,0 1.15358,-2.35253 2.14995,-4.00358c0.60137,-0.99652 -3.08786,-2.66028 -3.08786,-2.66028c0,0 3.91306,-1.60277 3.25997,-2.65109z" fill="#62daf4"/><path d="M239.26195,178.00449l-1.49521,-2.53139l2.48816,0.66132l4.43295,3.77246l-4.43295,3.77246l-2.46551,0.9017l1.36342,-2.82662l-1.9582,-1.87822z" fill="#c0fffe"/></g></g></svg>