<svg xmlns="http://www.w3.org/2000/svg" xmlns:xlink="http://www.w3.org/1999/xlink" version="1.1" width="425.13844" height="54.26853" viewBox="0,0,425.13844,54.26853"><defs><linearGradient x1="399.1983" y1="199.13637" x2="399.1983" y2="210.13637" gradientUnits="userSpaceOnUse" id="color-1"><stop offset="0" stop-color="#e4ffe3" stop-opacity="0"/><stop offset="1" stop-color="#e4ffe3"/></linearGradient><linearGradient x1="52.10739" y1="198.13637" x2="52.10739" y2="209.13637" gradientUnits="userSpaceOnUse" id="color-2"><stop offset="0" stop-color="#e4ffe3" stop-opacity="0"/><stop offset="1" stop-color="#e4ffe3"/></linearGradient></defs><g><g data-paper-data="{&quot;isPaintingLayer&quot;:true}" fill-rule="nonzero" stroke-linecap="butt" stroke-linejoin="miter" stroke-miterlimit="10" stroke-dasharray="" stroke-dashoffset="0" style="mix-blend-mode: normal"><g><path d="M28.22084,208.99115v-33.66667h47.66666v33.66667z" data-paper-data="{&quot;origPos&quot;:null}" fill="#e08845" stroke="none" stroke-width="0" transform="matrix(1,0,0,1,-21.80739,-155.86784)"/><path d="M22.05417,208.99115v-38h7.33334v38z" data-paper-data="{&quot;origPos&quot;:null}" fill="#90582d" stroke="none" stroke-width="0" transform="matrix(1,0,0,1,-21.80739,-155.86784)"/><path d="M75.3875,208.99115v-38l6.46803,0.08273l3.43673,-1.58273l0.09524,37.75l-2.70513,1.89102z" data-paper-data="{&quot;origPos&quot;:null}" fill="#90582d" stroke="none" stroke-width="0" transform="matrix(1,0,0,1,-21.80739,-155.86784)"/><path d="M25.05417,178.32448v-7.33333h55v7.33333z" data-paper-data="{&quot;origPos&quot;:null}" fill="#90582d" stroke="none" stroke-width="0" transform="matrix(1,0,0,1,-21.80739,-155.86784)"/><path d="M84.8875,207.64115v-37.93312l11.46666,-6.68355l-0.075,36.03845z" data-paper-data="{&quot;origPos&quot;:null}" fill="#e08845" stroke="none" stroke-width="0" transform="matrix(1,0,0,1,-21.80739,-155.86784)"/><path d="M96.2375,199.10781l-0.125,-35.83333l3.83333,-2.33333v35.20834z" data-paper-data="{&quot;origPos&quot;:null}" fill="#90582d" stroke="none" stroke-width="0" transform="matrix(1,0,0,1,-21.80739,-155.86784)"/><path d="M84.55417,177.49114v-7.66666l12.16667,-6.83333v7.5z" data-paper-data="{&quot;origPos&quot;:null}" fill="#90582d" stroke="none" stroke-width="0" transform="matrix(1,0,0,1,-21.80739,-155.86784)"/><path d="M 2.6175 17.1287 C 2.6175 17.1287 2.4527 13.1802 3.2119 10.4207 C 4.7616 4.7887 10.6442 0.8177 16.1599 2.7408 C 20.2747 4.1755 19.3712 7.6435 19.3712 7.6435 Z " data-paper-data="{&quot;origPos&quot;:null}" fill="#e08845" stroke="#90582d" stroke-width="4.5"/><path d="M26.58844,171.14139c0,0 0.21871,-3.33543 0.6701,-4.83023c0.74313,-2.46089 2.07931,-4.58769 3.839,-6.40706c1.88179,-1.94561 6.63614,-3.31986 6.63614,-3.31986l53.04333,0.175c0,0 -4.17073,1.04863 -6.31226,2.96128c-1.9948,1.78161 -2.53718,2.84722 -3.1984,5.49237c-0.52152,2.08625 -0.71681,6.07135 -0.71681,6.07135z" data-paper-data="{&quot;origPos&quot;:null}" fill="#e08845" stroke="none" stroke-width="0" transform="matrix(1,0,0,1,-21.80739,-155.86784)"/><path d="M 56.9509 16.6288 C 56.9509 16.6288 56.9527 12.8469 57.7119 10.0874 C 58.4859 7.2746 59.6161 5.6052 62.1342 4.1321 C 65.9141 1.9208 68.5248 0.7991 72.6599 2.2408 C 76.7747 3.6755 75.8712 7.1435 75.8712 7.1435 Z " data-paper-data="{&quot;origPos&quot;:null}" fill="#e08845" stroke="#90582d" stroke-width="4.5"/><g data-paper-data="{&quot;origPos&quot;:null}"><path d="M44.72083,185.85781v-19.21605h13.3v19.21605z" data-paper-data="{&quot;origPos&quot;:null}" fill="#55341a" stroke-width="0" stroke="none" transform="matrix(1,0,0,1,-21.80739,-155.86784)"/><path d="M46.27769,172.86918c0,-2.80058 2.27032,-5.0709 5.0709,-5.0709c2.80058,0 5.0709,2.27032 5.0709,5.0709c0,2.80058 -2.27032,5.0709 -5.0709,5.0709c-2.80058,0 -5.0709,-2.27032 -5.0709,-5.0709z" data-paper-data="{&quot;origPos&quot;:null}" fill="#2e1400" stroke-width="0" stroke="none" transform="matrix(1,0,0,1,-21.80739,-155.86784)"/><path d="M49.16899,184.07854v-8.85184h4.53712v8.85184z" data-paper-data="{&quot;origPos&quot;:null}" fill="#2e1400" stroke-width="0" stroke="none" transform="matrix(1,0,0,1,-21.80739,-155.86784)"/></g><path d="M81.43193,170.96335c-1.51878,0 -2.75,-2.23858 -2.75,-5c0,-2.76142 7.23122,-6.85714 8.75,-6.85714c1.4823,0 2.01976,0.08047 0.85865,1.0019c-1.11351,0.88365 -3.82905,2.50715 -4.49682,3.76207c-0.40346,0.75821 -0.5034,1.388 -0.69388,2.22549c-0.22587,0.99312 -0.34652,1.42063 -0.34652,2.43911c0,2.76142 0.19735,2.42857 -1.32143,2.42857z" data-paper-data="{&quot;origPos&quot;:null}" fill="#90582d" stroke="none" stroke-width="0" transform="matrix(1,0,0,1,-21.80739,-155.86784)"/></g><g><path d="M375.22084,209.99115v-33.66667h47.66666v33.66667z" data-paper-data="{&quot;origPos&quot;:null}" fill="#e08845" stroke="none" stroke-width="0" transform="matrix(1,0,0,1,-21.80739,-155.86784)"/><path d="M369.05417,209.99115v-38h7.33334v38z" data-paper-data="{&quot;origPos&quot;:null}" fill="#90582d" stroke="none" stroke-width="0" transform="matrix(1,0,0,1,-21.80739,-155.86784)"/><path d="M422.3875,209.99115v-38l6.46803,0.08273l3.43673,-1.58273l0.09524,37.75l-2.70513,1.89102z" data-paper-data="{&quot;origPos&quot;:null}" fill="#90582d" stroke="none" stroke-width="0" transform="matrix(1,0,0,1,-21.80739,-155.86784)"/><path d="M372.05417,179.32448v-7.33333h55v7.33333z" data-paper-data="{&quot;origPos&quot;:null}" fill="#90582d" stroke="none" stroke-width="0" transform="matrix(1,0,0,1,-21.80739,-155.86784)"/><path d="M431.8875,208.64115v-37.93312l11.46666,-6.68355l-0.075,36.03845z" data-paper-data="{&quot;origPos&quot;:null}" fill="#e08845" stroke="none" stroke-width="0" transform="matrix(1,0,0,1,-21.80739,-155.86784)"/><path d="M443.2375,200.10781l-0.125,-35.83333l3.83333,-2.33333v35.20834z" data-paper-data="{&quot;origPos&quot;:null}" fill="#90582d" stroke="none" stroke-width="0" transform="matrix(1,0,0,1,-21.80739,-155.86784)"/><path d="M431.55417,178.49114v-7.66666l12.16667,-6.83333v7.5z" data-paper-data="{&quot;origPos&quot;:null}" fill="#90582d" stroke="none" stroke-width="0" transform="matrix(1,0,0,1,-21.80739,-155.86784)"/><path d="M 349.6175 18.1287 C 349.6175 18.1287 349.4527 14.1802 350.212 11.4207 C 351.7616 5.7887 357.6442 1.8177 363.1599 3.7408 C 367.2747 5.1755 366.3712 8.6435 366.3712 8.6435 Z " data-paper-data="{&quot;origPos&quot;:null}" fill="#e08845" stroke="#90582d" stroke-width="4.5"/><path d="M373.58844,172.14139c0,0 0.21871,-3.33543 0.6701,-4.83023c0.74313,-2.46089 2.07931,-4.58769 3.839,-6.40706c1.88179,-1.94561 6.63614,-3.31986 6.63614,-3.31986l53.04333,0.175c0,0 -4.17073,1.04863 -6.31226,2.96128c-1.9948,1.78161 -2.53718,2.84722 -3.1984,5.49237c-0.52152,2.08625 -0.71681,6.07135 -0.71681,6.07135z" data-paper-data="{&quot;origPos&quot;:null}" fill="#e08845" stroke="none" stroke-width="0" transform="matrix(1,0,0,1,-21.80739,-155.86784)"/><path d="M 403.9509 17.6288 C 403.9509 17.6288 403.9527 13.8469 404.7119 11.0874 C 405.4859 8.2746 406.6161 6.6052 409.1342 5.1321 C 412.9141 2.9208 415.5248 1.7991 419.6599 3.2408 C 423.7747 4.6755 422.8712 8.1435 422.8712 8.1435 Z " data-paper-data="{&quot;origPos&quot;:null}" fill="#e08845" stroke="#90582d" stroke-width="4.5"/><g data-paper-data="{&quot;origPos&quot;:null}"><path d="M391.72083,186.85781v-19.21605h13.3v19.21605z" data-paper-data="{&quot;origPos&quot;:null}" fill="#55341a" stroke-width="0" stroke="none" transform="matrix(1,0,0,1,-21.80739,-155.86784)"/><path d="M393.27769,173.86918c0,-2.80058 2.27032,-5.0709 5.0709,-5.0709c2.80058,0 5.0709,2.27032 5.0709,5.0709c0,2.80058 -2.27032,5.0709 -5.0709,5.0709c-2.80058,0 -5.0709,-2.27032 -5.0709,-5.0709z" data-paper-data="{&quot;origPos&quot;:null}" fill="#2e1400" stroke-width="0" stroke="none" transform="matrix(1,0,0,1,-21.80739,-155.86784)"/><path d="M396.16899,185.07854v-8.85184h4.53712v8.85184z" data-paper-data="{&quot;origPos&quot;:null}" fill="#2e1400" stroke-width="0" stroke="none" transform="matrix(1,0,0,1,-21.80739,-155.86784)"/></g><path d="M428.43193,171.96335c-1.51878,0 -2.75,-2.23858 -2.75,-5c0,-2.76142 7.23122,-6.85714 8.75,-6.85714c1.4823,0 2.01976,0.08047 0.85865,1.0019c-1.11351,0.88365 -3.82905,2.50715 -4.49682,3.76207c-0.40346,0.75821 -0.5034,1.388 -0.69388,2.22549c-0.22587,0.99312 -0.34652,1.42063 -0.34652,2.43911c0,2.76142 0.19735,2.42857 -1.32143,2.42857z" data-paper-data="{&quot;origPos&quot;:null}" fill="#90582d" stroke="none" stroke-width="0" transform="matrix(1,0,0,1,-21.80739,-155.86784)"/></g><path d="M368.8983,210.13637v-11c0,0 20.84245,0 32.4463,0c13.42867,0 43.45369,0 43.45369,0l-14.9,11z" fill="url(#color-1)" stroke="none" stroke-width="0" transform="matrix(1,0,0,1,-21.80739,-155.86784)"/><g><g><path d="M35.96191,193.69485c0,-3.69666 2.99673,-6.69339 6.69339,-6.69339c3.69666,0 6.69339,2.99673 6.69339,6.69339c0,3.69666 -2.99673,6.69339 -6.69339,6.69339c-3.69666,0 -6.69339,-2.99673 -6.69339,-6.69339z" data-paper-data="{&quot;origPos&quot;:null}" fill="#bbb54b" stroke-width="NaN" stroke="none" transform="matrix(1,0,0,1,-21.80739,-155.86784)"/><path d="M37.21134,193.7841c0,-3.74595 3.03669,-6.78263 6.78264,-6.78263c3.74595,0 6.78264,3.03669 6.78264,6.78263c0,3.74595 -3.03669,6.78264 -6.78264,6.78264c-3.74595,0 -6.78263,-3.03669 -6.78263,-6.78264z" data-paper-data="{&quot;origPos&quot;:null}" fill="#fff766" stroke-width="NaN" stroke="none" transform="matrix(1,0,0,1,-21.80739,-155.86784)"/><text transform="matrix(0.26774,0,0,0.26774,18.43829,41.664559999999994)" font-size="40" xml:space="preserve" data-paper-data="{&quot;origPos&quot;:null}" fill="#bbb54b" fill-rule="nonzero" stroke="none" stroke-width="1" stroke-linecap="butt" stroke-linejoin="miter" stroke-miterlimit="10" stroke-dasharray="" stroke-dashoffset="0" font-family="Sans Serif" font-weight="normal" text-anchor="start" style="mix-blend-mode: normal"><tspan x="0" dy="0">C</tspan></text></g><text transform="matrix(0.33829,0,0,0.33829,29.672810000000002,42.834389999999985)" font-size="40" xml:space="preserve" fill="#000000" fill-rule="nonzero" stroke="none" stroke-width="1" stroke-linecap="butt" stroke-linejoin="miter" stroke-miterlimit="10" stroke-dasharray="" stroke-dashoffset="0" font-family="Sans Serif" font-weight="normal" text-anchor="start" style="mix-blend-mode: normal"><tspan x="0" dy="0">75</tspan></text></g><path d="M21.80739,209.13637v-11c0,0 20.84245,0 32.4463,0c13.42867,0 43.4537,0 43.4537,0l-14.9,11z" fill="url(#color-2)" stroke="none" stroke-width="0" transform="matrix(1,0,0,1,-21.80739,-155.86784)"/><g><g><path d="M383.17621,194.62342c0,-3.69666 2.99673,-6.69339 6.69339,-6.69339c3.69666,0 6.69339,2.99673 6.69339,6.69339c0,3.69666 -2.99673,6.69339 -6.69339,6.69339c-3.69666,0 -6.69339,-2.99673 -6.69339,-6.69339z" data-paper-data="{&quot;origPos&quot;:null}" fill="#bbb54b" stroke-width="NaN" stroke="none" transform="matrix(1,0,0,1,-21.80739,-155.86784)"/><path d="M384.42564,194.71267c0,-3.74595 3.03669,-6.78263 6.78264,-6.78263c3.74595,0 6.78264,3.03669 6.78264,6.78263c0,3.74595 -3.03669,6.78264 -6.78264,6.78264c-3.74595,0 -6.78263,-3.03669 -6.78263,-6.78264z" data-paper-data="{&quot;origPos&quot;:null}" fill="#fff766" stroke-width="NaN" stroke="none" transform="matrix(1,0,0,1,-21.80739,-155.86784)"/><text transform="matrix(0.26774,0,0,0.26774,365.65259,42.59313)" font-size="40" xml:space="preserve" data-paper-data="{&quot;origPos&quot;:null}" fill="#bbb54b" fill-rule="nonzero" stroke="none" stroke-width="1" stroke-linecap="butt" stroke-linejoin="miter" stroke-miterlimit="10" stroke-dasharray="" stroke-dashoffset="0" font-family="Sans Serif" font-weight="normal" text-anchor="start" style="mix-blend-mode: normal"><tspan x="0" dy="0">C</tspan></text></g><text transform="matrix(0.33829,0,0,0.33829,376.88711,43.76295999999999)" font-size="40" xml:space="preserve" fill="#000000" fill-rule="nonzero" stroke="none" stroke-width="1" stroke-linecap="butt" stroke-linejoin="miter" stroke-miterlimit="10" stroke-dasharray="" stroke-dashoffset="0" font-family="Sans Serif" font-weight="normal" text-anchor="start" style="mix-blend-mode: normal"><tspan x="0" dy="0">75</tspan></text></g></g></g></svg>