<svg xmlns="http://www.w3.org/2000/svg" xmlns:xlink="http://www.w3.org/1999/xlink" version="1.1" width="15.263870239257812" height="8.312957763671875" viewBox="-0.5 -0.5 15.263870239257812 8.312957763671875"><g><g data-paper-data="{&quot;isPaintingLayer&quot;:true}" fill-rule="nonzero" stroke-linecap="butt" stroke-linejoin="miter" stroke-miterlimit="10" stroke-dasharray="" stroke-dashoffset="0" font-family="none" font-weight="none" font-size="none" text-anchor="none" style="mix-blend-mode: normal"><g><g data-paper-data="{&quot;origPos&quot;:null}"><path d="M239.4787,179.78796c0,-2.01942 1.63706,-3.65648 3.65648,-3.65648c2.01942,0 3.65648,1.63706 3.65648,3.65648c0,2.01942 -1.63706,3.65648 -3.65648,3.65648c-2.01942,0 -3.65648,-1.63706 -3.65648,-3.65648z" data-paper-data="{&quot;origPos&quot;:null}" stroke-width="NaN" fill="#ff7800" stroke="none" transform="matrix(1,0,0,1,-232.52778,-176.13148)"/><path d="M232.52778,180.04138l9.41271,-3.69268l-0.0724,6.87853z" data-paper-data="{&quot;origPos&quot;:null}" stroke-width="0" fill="#ff7800" stroke="none" transform="matrix(1,0,0,1,-232.52778,-176.13148)"/></g><g data-paper-data="{&quot;origPos&quot;:null}"><path d="M240.92732,179.79623c0,-1.17814 0.95507,-2.13321 2.13321,-2.13321c1.17814,0 2.13321,0.95507 2.13321,2.13321c0,1.17814 -0.95507,2.13321 -2.13321,2.13321c-1.17814,0 -2.13321,-0.95507 -2.13321,-2.13321z" data-paper-data="{&quot;origPos&quot;:null}" stroke-width="NaN" fill="#ffdf00" stroke="none" transform="matrix(1,0,0,1,-232.52778,-176.13148)"/><path d="M236.87211,179.94408l5.49142,-2.15433l-0.04224,4.01296z" data-paper-data="{&quot;origPos&quot;:null}" stroke-width="0" fill="#ffdf00" stroke="none" transform="matrix(1,0,0,1,-232.52778,-176.13148)"/></g></g></g></g></svg>