<svg xmlns="http://www.w3.org/2000/svg" xmlns:xlink="http://www.w3.org/1999/xlink" version="1.1" width="86.31385803222656" height="159.4062957763672" viewBox="-2.4999847412109375 -1.25 86.31385803222656 159.4062957763672"><defs><radialGradient cx="271.33336" cy="150.14286" r="12.14285" gradientUnits="userSpaceOnUse" id="color-1"><stop offset="0" stop-color="#ff5a00"/><stop offset="1" stop-color="#ff5a00" stop-opacity="0"/></radialGradient><radialGradient cx="215.00005" cy="148.80953" r="12.14285" gradientUnits="userSpaceOnUse" id="color-2"><stop offset="0" stop-color="#ff5a00"/><stop offset="1" stop-color="#ff5a00" stop-opacity="0"/></radialGradient></defs><g><g data-paper-data="{&quot;isPaintingLayer&quot;:true}" fill-rule="nonzero" stroke-linecap="none" stroke-linejoin="miter" stroke-miterlimit="10" stroke-dasharray="" stroke-dashoffset="0" font-family="none" font-weight="none" font-size="none" text-anchor="none" style="mix-blend-mode: normal"><g><path d="M 32.2403 60.0342 C 32.2403 60.0342 35.3374 56.9468 39.2398 57.0509 C 42.6548 57.1419 45.4903 60.2842 45.4903 60.2842 " data-paper-data="{&quot;origPos&quot;:null}" fill="none" stroke="#7e7e7e" stroke-width="2" stroke-linecap="round"/><path d="M 38.8476 49.4405 L 38.8476 116.7375 L 26.8 155.6563 " data-paper-data="{&quot;origPos&quot;:null}" fill="none" stroke="#000000" stroke-width="3.5" stroke-linecap="round"/><path d="M 51.6984 155.4595 L 39.6508 115.3008 " fill="none" stroke="#000000" stroke-width="3.5" stroke-linecap="round"/><path d="M 14.7524 26.55 C 14.7524 12.5772 26.0796 1.25 40.0524 1.25 C 54.0252 1.25 65.3524 12.5772 65.3524 26.55 C 65.3524 40.5228 54.0252 51.85 40.0524 51.85 C 26.0796 51.85 14.7524 40.5228 14.7524 26.55 Z " data-paper-data="{&quot;origPos&quot;:null}" fill="#d4d4d4" stroke="#000000" stroke-width="2.5" stroke-linecap="butt"/><path d="M238.14471,108.99199c0,-2.66149 2.15756,-4.81905 4.81905,-4.81905c2.66149,0 4.81905,2.15756 4.81905,4.81905c0,2.66149 -2.15756,4.81905 -4.81905,4.81905c-2.66149,0 -4.81905,-2.15756 -4.81905,-4.81905z" data-paper-data="{&quot;origPos&quot;:null}" fill="#000000" stroke="none" stroke-width="0" stroke-linecap="butt" transform="matrix(1,0,0,1,-202.50977,-88.46579)"/><path d="M251.79868,108.99199c0,-2.66148 2.15757,-4.81905 4.81905,-4.81905c2.66148,0 4.81905,2.15757 4.81905,4.81905c0,2.66148 -2.15757,4.81905 -4.81905,4.81905c-2.66148,0 -4.81905,-2.15757 -4.81905,-4.81905z" data-paper-data="{&quot;origPos&quot;:null}" fill="#000000" stroke="none" stroke-width="0" stroke-linecap="butt" transform="matrix(1,0,0,1,-202.50977,-88.46579)"/><path d="M 35.854 13.5199 L 44.981 17.1706 " data-paper-data="{&quot;origPos&quot;:null}" fill="none" stroke="#000000" stroke-width="2.5" stroke-linecap="round"/><path d="M 57.0286 13.5548 L 50.0921 16.8405 " data-paper-data="{&quot;origPos&quot;:null}" fill="none" stroke="#000000" stroke-width="2.5" stroke-linecap="round"/><path d="M 37.5445 57.7643 C 37.5445 57.7643 32.6878 79.4439 28.4591 80.9989 C 24.1221 82.5939 15.596 65.8357 15.596 65.8357 " data-paper-data="{&quot;origPos&quot;:null}" fill="none" stroke="#000000" stroke-width="3.5" stroke-linecap="round"/><path d="M 63.9333 68.8357 C 63.9333 68.8357 53.9299 83.9322 50.5675 82.3937 C 44.4862 79.6114 39.7349 57.7643 39.7349 57.7643 " data-paper-data="{&quot;origPos&quot;:null,&quot;index&quot;:null}" fill="none" stroke="#000000" stroke-width="3.5" stroke-linecap="round"/><path d="M 45.4402 60.3342 C 45.4402 60.3342 45.3101 67.9726 44.3307 71.9655 C 42.7734 78.3146 38.7403 87.0342 38.7403 87.0342 C 38.7403 87.0342 35.0132 77.9303 33.6517 72.1033 C 32.574 67.4908 32.2903 60.0842 32.2903 60.0842 " data-paper-data="{&quot;origPos&quot;:null}" fill="none" stroke="#7e7e7e" stroke-width="2" stroke-linecap="round"/><g data-paper-data="{&quot;origPos&quot;:null,&quot;origRot&quot;:0}" stroke-linecap="butt"><path d="M240.73501,178.72505c0,0 -2.27008,-1.89146 -3.01001,-3.142c-0.79756,-1.34795 -0.92961,-3.51631 -0.92961,-3.51631c0,0 0.90568,1.28975 2.11892,2.12329c1.00459,0.69018 3.56398,1.78105 3.56398,1.78105z" data-paper-data="{&quot;origPos&quot;:null,&quot;origRot&quot;:0,&quot;index&quot;:null}" stroke-width="0" fill="#ff5a00" stroke="none" transform="matrix(1,0,0,1,-202.50977,-88.46579)"/><path d="M242.90602,178.32627c0,0 -1.85986,2.29604 -3.10005,3.0532c-1.33679,0.81613 -3.50312,0.97817 -3.50312,0.97817c0,0 1.27709,-0.92343 2.09376,-2.14809c0.67622,-1.01404 1.73157,-3.58828 1.73157,-3.58828z" data-paper-data="{&quot;origPos&quot;:null,&quot;index&quot;:null}" stroke-width="0" fill="#ff5a00" stroke="none" transform="matrix(1,0,0,1,-202.50977,-88.46579)"/><path d="M240.20539,176.39979c0,0 1.85986,-2.29603 3.10004,-3.05318c1.33679,-0.81613 3.50312,-0.97818 3.50312,-0.97818c0,0 -1.27709,0.92343 -2.09376,2.14809c-0.67622,1.01404 -1.73158,3.58828 -1.73158,3.58828z" data-paper-data="{&quot;origPos&quot;:null}" stroke-width="0" fill="#ff5a00" stroke="none" transform="matrix(1,0,0,1,-202.50977,-88.46579)"/><path d="M242.19632,175.77966c0,0 2.27008,1.89146 3.01001,3.142c0.79756,1.34795 0.92961,3.5163 0.92961,3.5163c0,0 -0.90568,-1.28975 -2.11892,-2.12328c-1.00459,-0.69018 -3.56399,-1.78105 -3.56399,-1.78105z" data-paper-data="{&quot;origPos&quot;:null,&quot;origRot&quot;:0}" stroke-width="0" fill="#ff5a00" stroke="none" transform="matrix(1,0,0,1,-202.50977,-88.46579)"/><path d="M240.14734,176.42839c0.48372,-0.78808 1.51472,-1.03482 2.30279,-0.5511c0.78808,0.48372 1.03482,1.51472 0.5511,2.3028c-0.48372,0.78808 -1.51472,1.03482 -2.3028,0.5511c-0.78808,-0.48372 -1.03481,-1.51471 -0.55109,-2.30279z" data-paper-data="{&quot;origPos&quot;:null}" stroke-width="0" fill="#ff5a00" stroke="none" transform="matrix(1,0,0,1,-202.50977,-88.46579)"/></g><g data-paper-data="{&quot;origPos&quot;:null}" stroke-linecap="butt"><path d="M259.1905,150.14286c0,-6.70631 5.43654,-12.14285 12.14285,-12.14285c6.70631,0 12.14285,5.43654 12.14285,12.14285c0,6.70631 -5.43654,12.14286 -12.14285,12.14286c-6.70631,0 -12.14285,-5.43655 -12.14285,-12.14286z" data-paper-data="{&quot;origPos&quot;:null}" fill="url(#color-1)" stroke="none" stroke-width="0" transform="matrix(1,0,0,1,-202.50977,-88.46579)"/><path d="M275.39196,144.19197c0,0 2.21668,-1.33396 3.8074,-1.37174c1.39274,-0.03306 3.83731,1.19018 3.83731,1.19018c0,0 -2.0843,0.7578 -3.17488,1.56982c-0.86268,0.64237 -1.83008,2.1569 -1.83008,2.1569z" data-paper-data="{&quot;origPos&quot;:null}" fill="#ff0000" stroke="none" stroke-width="0" transform="matrix(1,0,0,1,-202.50977,-88.46579)"/><path d="M267.07078,155.78532c0,0 -2.21668,1.33395 -3.8074,1.37174c-1.39274,0.03306 -3.83731,-1.19019 -3.83731,-1.19019c0,0 2.0843,-0.75779 3.17486,-1.56982c0.86268,-0.64237 1.83008,-2.1569 1.83008,-2.1569z" data-paper-data="{&quot;origPos&quot;:null,&quot;index&quot;:null}" fill="#ff0000" stroke="none" stroke-width="0" transform="matrix(1,0,0,1,-202.50977,-88.46579)"/><path d="M265.4432,145.76469c0,0 -1.33373,-2.21683 -1.37134,-3.80754c-0.03293,-1.39274 1.19059,-3.83717 1.19059,-3.83717c0,0 0.75757,2.08438 1.56949,3.17503c0.64226,0.86275 2.1567,1.83031 2.1567,1.83031z" data-paper-data="{&quot;origPos&quot;:null,&quot;index&quot;:null,&quot;origRot&quot;:0}" fill="#ff0000" stroke="none" stroke-width="0" transform="matrix(1,0,0,1,-202.50977,-88.46579)"/><path d="M277.07495,153.83157c0,0 1.33372,2.21683 1.37133,3.80754c0.03294,1.39274 -1.19058,3.83718 -1.19058,3.83718c0,0 -0.75757,-2.08438 -1.56949,-3.17503c-0.64227,-0.86275 -2.15669,-1.83031 -2.15669,-1.83031z" data-paper-data="{&quot;origPos&quot;:null,&quot;index&quot;:null,&quot;origRot&quot;:0}" fill="#ff0000" stroke="none" stroke-width="0" transform="matrix(1,0,0,1,-202.50977,-88.46579)"/><path d="M278.39586,149.09565c0,0 2.49776,0.67408 3.62717,1.79489c0.98886,0.98133 1.8006,3.59155 1.8006,3.59155c0,0 -1.99058,-0.97782 -3.33173,-1.20153c-1.06091,-0.17697 -2.82326,0.17488 -2.82326,0.17488z" data-paper-data="{&quot;origPos&quot;:null,&quot;origRot&quot;:0}" fill="#ff0000" stroke="none" stroke-width="0" transform="matrix(1,0,0,1,-202.50977,-88.46579)"/><path d="M264.27087,151.12841c0,0 -2.49776,-0.67409 -3.62716,-1.7949c-0.98886,-0.98133 -1.8006,-3.59155 -1.8006,-3.59155c0,0 1.99058,0.97782 3.33173,1.20153c1.06091,0.17697 2.82325,-0.17487 2.82325,-0.17487z" data-paper-data="{&quot;origPos&quot;:null,&quot;index&quot;:null,&quot;origRot&quot;:0}" fill="#ff0000" stroke="none" stroke-width="0" transform="matrix(1,0,0,1,-202.50977,-88.46579)"/><path d="M270.36852,143.01175c0,0 0.67435,-2.49769 1.79528,-3.62698c0.98142,-0.98875 3.59174,-1.80021 3.59174,-1.80021c0,0 -0.97804,1.99048 -1.2019,3.3316c-0.17708,1.06089 0.17457,2.82328 0.17457,2.82328z" data-paper-data="{&quot;origPos&quot;:null,&quot;index&quot;:null,&quot;origRot&quot;:0}" fill="#ff0000" stroke="none" stroke-width="0" transform="matrix(1,0,0,1,-202.50977,-88.46579)"/><path d="M272.61127,156.98825c0,0 -0.67434,2.49769 -1.79528,3.62698c-0.98142,0.98875 -3.59173,1.80021 -3.59173,1.80021c0,0 0.97804,-1.99047 1.20189,-3.33161c0.17708,-1.0609 -0.17458,-2.82328 -0.17458,-2.82328z" data-paper-data="{&quot;origPos&quot;:null,&quot;index&quot;:null,&quot;origRot&quot;:0}" fill="#ff0000" stroke="none" stroke-width="0" transform="matrix(1,0,0,1,-202.50977,-88.46579)"/><path d="M 65.6851 57.2925 C 67.9828 55.5816 71.2324 56.0573 72.9433 58.355 C 74.6542 60.6527 74.1785 63.9024 71.8808 65.6132 C 69.5831 67.3241 66.3335 66.8484 64.6226 64.5507 C 62.9117 62.253 63.3874 59.0034 65.6851 57.2925 Z " data-paper-data="{&quot;origPos&quot;:null}" fill="none" stroke="#323232" stroke-width="5"/></g><g data-paper-data="{&quot;origPos&quot;:null,&quot;index&quot;:null}" stroke-linecap="butt"><path d="M215.00005,160.95239c-6.70631,0 -12.14285,-5.43655 -12.14285,-12.14286c0,-6.70631 5.43654,-12.14285 12.14285,-12.14285c6.70631,0 12.14285,5.43654 12.14285,12.14285c0,6.70631 -5.43654,12.14286 -12.14285,12.14286z" data-paper-data="{&quot;origPos&quot;:null}" fill="url(#color-2)" stroke="none" stroke-width="0" transform="matrix(1,0,0,1,-202.50977,-88.46579)"/><path d="M208.3017,146.4038c0,0 -0.9674,-1.51453 -1.83008,-2.1569c-1.09058,-0.81202 -3.17488,-1.56982 -3.17488,-1.56982c0,0 2.44457,-1.22324 3.83731,-1.19018c1.59072,0.03778 3.8074,1.37174 3.8074,1.37174z" data-paper-data="{&quot;origPos&quot;:null}" fill="#ff0000" stroke="none" stroke-width="0" transform="matrix(1,0,0,1,-202.50977,-88.46579)"/><path d="M221.9024,150.90682c0,0 0.9674,1.51453 1.83008,2.1569c1.09056,0.81203 3.17486,1.56982 3.17486,1.56982c0,0 -2.44457,1.22325 -3.83731,1.19019c-1.59072,-0.03779 -3.8074,-1.37174 -3.8074,-1.37174z" data-paper-data="{&quot;origPos&quot;:null,&quot;index&quot;:null}" fill="#ff0000" stroke="none" stroke-width="0" transform="matrix(1,0,0,1,-202.50977,-88.46579)"/><path d="M217.34477,141.79199c0,0 1.51444,-0.96756 2.1567,-1.83031c0.81192,-1.09065 1.56949,-3.17503 1.56949,-3.17503c0,0 1.22352,2.44443 1.19059,3.83717c-0.03761,1.59071 -1.37134,3.80754 -1.37134,3.80754z" data-paper-data="{&quot;origPos&quot;:null,&quot;index&quot;:null,&quot;origRot&quot;:0}" fill="#ff0000" stroke="none" stroke-width="0" transform="matrix(1,0,0,1,-202.50977,-88.46579)"/><path d="M212.80389,155.13762c0,0 -1.51442,0.96756 -2.15669,1.83031c-0.81192,1.09065 -1.56949,3.17503 -1.56949,3.17503c0,0 -1.22352,-2.44444 -1.19058,-3.83718c0.03761,-1.59071 1.37133,-3.80754 1.37133,-3.80754z" data-paper-data="{&quot;origPos&quot;:null,&quot;index&quot;:null,&quot;origRot&quot;:0}" fill="#ff0000" stroke="none" stroke-width="0" transform="matrix(1,0,0,1,-202.50977,-88.46579)"/><path d="M208.66477,152.12211c0,0 -1.76235,-0.35185 -2.82326,-0.17488c-1.34115,0.22371 -3.33173,1.20153 -3.33173,1.20153c0,0 0.81174,-2.61022 1.8006,-3.59155c1.12941,-1.12081 3.62717,-1.79489 3.62717,-1.79489z" data-paper-data="{&quot;origPos&quot;:null,&quot;origRot&quot;:0}" fill="#ff0000" stroke="none" stroke-width="0" transform="matrix(1,0,0,1,-202.50977,-88.46579)"/><path d="M221.33532,145.43529c0,0 1.76234,0.35184 2.82325,0.17487c1.34115,-0.22371 3.33173,-1.20153 3.33173,-1.20153c0,0 -0.81174,2.61022 -1.8006,3.59155c-1.1294,1.12081 -3.62716,1.7949 -3.62716,1.7949z" data-paper-data="{&quot;origPos&quot;:null,&quot;index&quot;:null,&quot;origRot&quot;:0}" fill="#ff0000" stroke="none" stroke-width="0" transform="matrix(1,0,0,1,-202.50977,-88.46579)"/><path d="M211.60519,142.40611c0,0 0.35165,-1.76239 0.17457,-2.82328c-0.22386,-1.34112 -1.2019,-3.3316 -1.2019,-3.3316c0,0 2.61032,0.81146 3.59174,1.80021c1.12093,1.12929 1.79528,3.62698 1.79528,3.62698z" data-paper-data="{&quot;origPos&quot;:null,&quot;index&quot;:null,&quot;origRot&quot;:0}" fill="#ff0000" stroke="none" stroke-width="0" transform="matrix(1,0,0,1,-202.50977,-88.46579)"/><path d="M218.08183,154.92722c0,0 -0.35166,1.76238 -0.17458,2.82328c0.22385,1.34114 1.20189,3.33161 1.20189,3.33161c0,0 -2.61031,-0.81146 -3.59173,-1.80021c-1.12094,-1.12929 -1.79528,-3.62698 -1.79528,-3.62698z" data-paper-data="{&quot;origPos&quot;:null,&quot;index&quot;:null,&quot;origRot&quot;:0}" fill="#ff0000" stroke="none" stroke-width="0" transform="matrix(1,0,0,1,-202.50977,-88.46579)"/><path d="M 16.6913 63.2174 C 14.9804 65.5151 11.7308 65.9908 9.4331 64.2799 C 7.1354 62.569 6.6597 59.3194 8.3706 57.0217 C 10.0815 54.724 13.3311 54.2483 15.6288 55.9592 C 17.9265 57.6701 18.4022 60.9197 16.6913 63.2174 Z " data-paper-data="{&quot;origPos&quot;:null}" fill="none" stroke="#323232" stroke-width="5"/></g></g></g></g></svg>