<svg xmlns="http://www.w3.org/2000/svg" xmlns:xlink="http://www.w3.org/1999/xlink" version="1.1" width="68.11304" height="157.40635" viewBox="0,0,68.11304,157.40635"><g><g data-paper-data="{&quot;isPaintingLayer&quot;:true}" fill-rule="nonzero" stroke-linejoin="miter" stroke-miterlimit="10" stroke-dasharray="" stroke-dashoffset="0" style="mix-blend-mode: normal"><g><path d="M 29.8053 49.4405 L 29.8053 116.7376 L 17.7577 155.6564 " data-paper-data="{&quot;origPos&quot;:null}" fill="none" stroke="#000000" stroke-width="3.5" stroke-linecap="round"/><path d="M 30.6085 115.3008 L 42.6561 155.4595 " fill="none" stroke="#000000" stroke-width="3.5" stroke-linecap="round"/><path d="M 6.71 26.55 C 6.71 12.5772 18.0372 1.25 32.01 1.25 C 45.9828 1.25 57.31 12.5772 57.31 26.55 C 57.31 40.5228 45.9828 51.85 32.01 51.85 C 18.0372 51.85 6.71 40.5228 6.71 26.55 Z " data-paper-data="{&quot;origPos&quot;:null}" fill="#d4d4d4" stroke="#000000" stroke-width="2.5" stroke-linecap="butt"/><path d="M 55.141 80.5857 C 55.141 80.5857 44.4096 78.9915 40.7411 74.6109 C 36.6244 69.6949 30.6926 57.7643 30.6926 57.7643 " data-paper-data="{&quot;origPos&quot;:null,&quot;index&quot;:null}" fill="none" stroke="#000000" stroke-width="3.5" stroke-linecap="round"/><g data-paper-data="{&quot;origPos&quot;:null,&quot;origRot&quot;:0}" stroke-linecap="butt"><path d="M214.53053,186.18172l-2.67038,-12.75951l23.65482,-8.71451l0.72238,6.21848z" fill="#894c00" stroke-width="0" stroke="none" transform="matrix(1,0,0,1,-211.86015,-86.3802)"/><path d="M236.14705,170.14887l-1.10298,-5.27023l43.82614,-9.17219l1.10298,5.27023z" data-paper-data="{&quot;origPos&quot;:null}" fill="#8a8a8a" stroke-width="0" stroke="none" transform="matrix(1,0,0,1,-211.86015,-86.3802)"/><path d="M259.5131,168.00922l-2.22865,-3.73176l18.72319,-3.9185l-0.37744,4.42194z" data-paper-data="{&quot;origPos&quot;:null}" fill="#894c00" stroke-width="0" stroke="none" transform="matrix(1,0,0,1,-211.86015,-86.3802)"/></g><path d="M 14.3037 91.0857 C 14.3037 91.0857 9.0398 79.9434 12.2311 73.9318 C 15.1663 68.4027 28.5021 57.7643 28.5021 57.7643 " data-paper-data="{&quot;origPos&quot;:null}" fill="none" stroke="#000000" stroke-width="3.5" stroke-linecap="round"/><path d="M 26.8065 20.2865 L 3.1398 19.2865 " fill="none" stroke="#505050" stroke-width="2.5" stroke-linecap="round"/><g data-paper-data="{&quot;origPos&quot;:null}"><path d="M275.27682,112.68992c0,12.70255 -8.65583,23 -19.33333,23c-10.67751,0 -19.33333,-10.29745 -19.33333,-23c0,-12.70255 8.65583,-23 19.33333,-23c10.67751,0 19.33333,10.29745 19.33333,23z" data-paper-data="{&quot;origPos&quot;:null}" fill="#ff3f3f" stroke="none" stroke-width="0" stroke-linecap="butt" transform="matrix(1,0,0,1,-211.86015,-86.3802)"/><path d="M246.72956,105.92958c0,-2.66149 2.15756,-4.81905 4.81905,-4.81905c2.66149,0 4.81905,2.15756 4.81905,4.81905c0,2.66149 -2.15756,4.81905 -4.81905,4.81905c-2.66149,0 -4.81905,-2.15756 -4.81905,-4.81905z" data-paper-data="{&quot;origPos&quot;:null}" fill="#000000" stroke="none" stroke-width="0" stroke-linecap="butt" transform="matrix(1,0,0,1,-211.86015,-86.3802)"/><path d="M260.38352,105.59625c0,-2.66148 2.15757,-4.81905 4.81905,-4.81905c2.66148,0 4.81905,2.15757 4.81905,4.81905c0,2.66148 -2.15757,4.81905 -4.81905,4.81905c-2.66148,0 -4.81905,-2.15757 -4.81905,-4.81905z" data-paper-data="{&quot;origPos&quot;:null}" fill="#000000" stroke="none" stroke-width="0" stroke-linecap="butt" transform="matrix(1,0,0,1,-211.86015,-86.3802)"/><path d="M 44.5488 16.8605 L 35.4218 13.2097 " data-paper-data="{&quot;origPos&quot;:null}" fill="none" stroke="#000000" stroke-width="2.5" stroke-linecap="round"/><path d="M 55.263 12.9113 L 48.3265 16.197 " data-paper-data="{&quot;origPos&quot;:null}" fill="none" stroke="#000000" stroke-width="2.5" stroke-linecap="round"/><path d="M 58.0833 33.9764 C 58.0833 33.9764 51.9872 40.0622 48.0853 40.1172 C 42.751 40.1924 34.4167 34.3097 34.4167 34.3097 " data-paper-data="{&quot;origPos&quot;:null}" fill="none" stroke="#000000" stroke-width="2.5" stroke-linecap="round"/></g></g></g></g></svg>