<svg xmlns="http://www.w3.org/2000/svg" xmlns:xlink="http://www.w3.org/1999/xlink" version="1.1" width="61.0994987487793" height="158.9062957763672" viewBox="0 -1 61.0994987487793 158.9062957763672"><g><g data-paper-data="{&quot;isPaintingLayer&quot;:true}" fill-rule="nonzero" stroke-linecap="none" stroke-linejoin="miter" stroke-miterlimit="10" stroke-dasharray="" stroke-dashoffset="0" font-family="none" font-weight="none" font-size="none" text-anchor="none" style="mix-blend-mode: normal"><path d="M 30.4978 49.4405 L 30.4978 116.7375 L 18.4502 155.6563 " data-paper-data="{&quot;origPos&quot;:null}" fill="none" stroke="#000000" stroke-width="3.5" stroke-linecap="round"/><path d="M 31.301 115.3008 L 43.3486 155.4595 " fill="none" stroke="#000000" stroke-width="3.5" stroke-linecap="round"/><path d="M 6.4026 26.55 C 6.4026 12.5772 17.7298 1.25 31.7026 1.25 C 45.6754 1.25 57.0026 12.5772 57.0026 26.55 C 57.0026 40.5228 45.6754 51.85 31.7026 51.85 C 17.7298 51.85 6.4026 40.5228 6.4026 26.55 Z " data-paper-data="{&quot;origPos&quot;:null}" fill="#d4d4d4" stroke="#000000" stroke-width="2.5" stroke-linecap="butt"/><path d="M237.40157,108.34917c0,-2.66149 2.15756,-4.81905 4.81905,-4.81905c2.66149,0 4.81905,2.15756 4.81905,4.81905c0,2.66149 -2.15756,4.81905 -4.81905,4.81905c-2.66149,0 -4.81905,-2.15756 -4.81905,-4.81905z" data-paper-data="{&quot;origPos&quot;:null}" fill="#000000" stroke="none" stroke-width="0" stroke-linecap="butt" transform="matrix(1,0,0,1,-210.11647,-87.82297)"/><path d="M251.05554,108.34917c0,-2.66148 2.15757,-4.81905 4.81905,-4.81905c2.66148,0 4.81905,2.15757 4.81905,4.81905c0,2.66148 -2.15757,4.81905 -4.81905,4.81905c-2.66148,0 -4.81905,-2.15757 -4.81905,-4.81905z" data-paper-data="{&quot;origPos&quot;:null}" fill="#000000" stroke="none" stroke-width="0" stroke-linecap="butt" transform="matrix(1,0,0,1,-210.11647,-87.82297)"/><path d="M 36.6311 17.1706 L 27.5042 13.5199 " data-paper-data="{&quot;origPos&quot;:null}" fill="none" stroke="#000000" stroke-width="2.5" stroke-linecap="round"/><path d="M 41.7422 16.8405 L 48.6788 13.5548 " data-paper-data="{&quot;origPos&quot;:null}" fill="none" stroke="#000000" stroke-width="2.5" stroke-linecap="round"/><path d="M 29.1946 57.7643 L 13.4962 87.3357 " data-paper-data="{&quot;origPos&quot;:null}" fill="none" stroke="#000000" stroke-width="3.5" stroke-linecap="round"/><path d="M 31.3851 57.7643 L 47.0835 87.3357 " data-paper-data="{&quot;origPos&quot;:null,&quot;index&quot;:null}" fill="none" stroke="#000000" stroke-width="3.5" stroke-linecap="round"/><path d="M 24.8495 80.7444 C 24.8495 80.7444 20.1385 87.5709 15.0324 89.4245 C 9.9263 91.278 2.25 88.9481 2.25 88.9481 " data-paper-data="{&quot;origPos&quot;:null,&quot;origRot&quot;:0}" fill="none" stroke="#d27000" stroke-width="4.5" stroke-linecap="round"/><path d="M 58.8495 88.6981 C 58.8495 88.6981 51.1732 91.028 46.0671 89.1745 C 40.961 87.3209 36.25 80.4944 36.25 80.4944 " data-paper-data="{&quot;origPos&quot;:null,&quot;origRot&quot;:0,&quot;index&quot;:null}" fill="none" stroke="#d27000" stroke-width="4.5" stroke-linecap="round"/></g></g></svg>