<svg xmlns="http://www.w3.org/2000/svg" xmlns:xlink="http://www.w3.org/1999/xlink" version="1.1" width="15.13542" height="15.13542" viewBox="0,0,15.13542,15.13542"><defs><radialGradient cx="240" cy="180" r="7.56667" gradientUnits="userSpaceOnUse" id="color-1"><stop offset="0" stop-color="#ffcb87"/><stop offset="1" stop-color="#ffcb87" stop-opacity="0"/></radialGradient></defs><g><g data-paper-data="{&quot;isPaintingLayer&quot;:true}" fill-rule="nonzero" stroke-linecap="butt" stroke-linejoin="miter" stroke-miterlimit="10" stroke-dasharray="" stroke-dashoffset="0" style="mix-blend-mode: normal"><path d="M233.56855,183.98635c-2.20159,-3.55198 -1.1069,-8.21619 2.4451,-10.4178c3.55198,-2.20159 8.21619,-1.1069 10.4178,2.4451c2.20159,3.55198 1.1069,8.21619 -2.4451,10.4178c-3.55198,2.20159 -8.21619,1.1069 -10.4178,-2.4451z" fill="url(#color-1)" stroke-width="0" stroke="none" transform="matrix(1,0,0,1,-232.43229,-172.43229)"/><path d="M239.80189,182.90722l-1.84878,-0.52898l-0.52829,-2.54684l-0.84527,-0.73103l1.95845,-2.1551l1.44704,0.43647l1.52902,-0.00169l1.20835,1.81034l-0.03624,1.53692l-0.19389,1.32725z" fill="#ffb656" stroke-width="0" stroke="none" transform="matrix(1,0,0,1,-232.43229,-172.43229)"/></g></g></svg>