<svg xmlns="http://www.w3.org/2000/svg" xmlns:xlink="http://www.w3.org/1999/xlink" version="1.1" width="182.1588" height="272.90934" viewBox="0,0,182.1588,272.90934"><g><g data-paper-data="{&quot;isPaintingLayer&quot;:true}" fill-rule="nonzero" stroke-linejoin="miter" stroke-miterlimit="10" stroke-dasharray="" stroke-dashoffset="0" style="mix-blend-mode: normal"><g><path d="M 42.6259 190.4927 C 42.6259 190.4927 44.9993 156.6181 47.148 147.8709 C 48.7588 141.313 54.3759 131.9093 54.3759 131.9093 C 54.3759 131.9093 82.4983 134.8364 95.578 132.0119 C 107.468 129.4443 129.6259 115.6593 129.6259 115.6593 " fill="none" stroke="#000000" stroke-width="4.5" stroke-linecap="round"/><path d="M231.00145,205.68572v-47.25286h101.52348v47.25286z" fill="#676767" stroke="none" stroke-width="0" stroke-linecap="butt" transform="matrix(1,0,0,1,-186.99912,-102.34066)"/><path d="M 162.6023 79.7186 C 162.6023 92.0768 154.8522 102.0951 145.2919 102.0951 C 135.7316 102.0951 127.9814 92.0768 127.9814 79.7186 C 127.9814 67.3605 135.7316 57.3422 145.2919 57.3422 C 154.8522 57.3422 162.6023 67.3605 162.6023 79.7186 Z " fill="#4c4c4c" stroke="#676767" stroke-width="2.5" stroke-linecap="butt"/><path d="M 5.3964 59.2807 C 5.3964 32.1591 27.3828 10.1727 54.5043 10.1727 C 81.6259 10.1727 103.6123 32.1591 103.6123 59.2807 C 103.6123 86.4023 81.6259 108.3887 54.5043 108.3887 C 27.3828 108.3887 5.3964 86.4023 5.3964 59.2807 Z " fill="#d4d4d4" stroke="#000000" stroke-width="4.5" stroke-linecap="butt"/><path d="M 54.2509 219.1593 L 54.2509 110.1593 " fill="none" stroke="#000000" stroke-width="4.5" stroke-linecap="round"/><path d="M 39.2509 270.6593 L 54.2509 217.6593 L 69.2509 270.1593 " fill="none" stroke="#000000" stroke-width="4.5" stroke-linecap="round"/><path d="M240.25,153c0,-4.97056 4.02944,-9 9,-9c4.97056,0 9,4.02944 9,9c0,4.97056 -4.02944,9 -9,9c-4.97056,0 -9,-4.02944 -9,-9z" fill="#000000" stroke="none" stroke-width="0" stroke-linecap="butt" transform="matrix(1,0,0,1,-186.99912,-102.34066)"/><path d="M263.25,153c0,-4.97056 4.02943,-9 9,-9c4.97057,0 9,4.02944 9,9c0,4.97056 -4.02943,9 -9,9c-4.97057,0 -9,-4.02944 -9,-9z" fill="#000000" stroke="none" stroke-width="0" stroke-linecap="butt" transform="matrix(1,0,0,1,-186.99912,-102.34066)"/><path d="M 55.4089 88.2555 C 47.0737 84.9189 54.9481 74.6068 54.9481 74.6068 L 73.0515 81.8535 C 73.0515 81.8535 63.744 91.592 55.4088 88.2555 Z " fill="#ffffff" stroke="#000000" stroke-width="2.5" stroke-linecap="butt"/><path d="M 70.1509 43.8593 L 53.9509 41.6593 " fill="none" stroke="#000000" stroke-width="2.5" stroke-linecap="round"/><path d="M 92.6509 41.4593 L 77.3509 43.6593 " fill="none" stroke="#000000" stroke-width="2.5" stroke-linecap="round"/><path d="M306.20145,225.28572v-20.8h10.4v20.8c0,0 -1.38081,1.07661 -3.8,1.2c-4.09199,0.20871 -6.6,-1.2 -6.6,-1.2z" fill="#676767" stroke="none" stroke-width="0" stroke-linecap="butt" transform="matrix(1,0,0,1,-186.99912,-102.34066)"/><path d="M329.77733,189.74687c0,0 -1.65233,-5.44738 -1.65233,-9.05674c0,-3.60937 1.65233,-8.11984 1.65233,-8.11984c0,0 15.35919,-7.56137 23.69566,-4.73086c6.56764,2.22993 15.68492,12.8507 15.68492,12.8507c0,0 -9.3324,11.24195 -15.9672,13.44963c-8.31337,2.76621 -23.41339,-4.39288 -23.41339,-4.39288z" fill="#e01b1b" stroke="none" stroke-width="0" stroke-linecap="butt" transform="matrix(1,0,0,1,-186.99912,-102.34066)"/><g><path d="M 144.1676 47.9093 C 144.1676 52.7879 140.8843 56.7427 136.8342 56.7427 C 132.7841 56.7427 129.5009 52.7879 129.5009 47.9093 C 129.5009 43.0308 132.7841 39.076 136.8342 39.076 C 140.8843 39.076 144.1676 43.0308 144.1676 47.9093 Z " stroke-linecap="butt" stroke-width="2.5" fill="none" stroke="#676767"/><path d="M 137.5009 57.076 L 137.5009 39.4093 " stroke-linecap="round" stroke-width="2.5" fill="none" stroke="#676767"/><path d="M 143.1675 48.076 L 129.8342 48.076 " stroke-linecap="round" stroke-width="2.5" fill="none" stroke="#676767"/></g><path d="M225.8685,104.92507c24.182,-8.52253 55.06805,4.80421 60.63525,28.64722c-18.76926,0.41244 -32.3149,-3.61184 -50.2291,3.2286c-21.00574,8.02093 -36.04826,23.79896 -42.27013,46.39748c-10.35544,-13.36995 -15.67977,-61.51731 31.86398,-78.2733z" fill="#4da241" stroke="none" stroke-width="NaN" stroke-linecap="butt" transform="matrix(1,0,0,1,-186.99912,-102.34066)"/><path d="M 58.5009 111.2982 C 58.5009 111.2982 49.53 104.777 40.5653 89.5935 C 31.6006 74.41 21.5009 48.6316 21.5009 48.6316 " fill="none" stroke="#4da241" stroke-width="2.5" stroke-linecap="round"/></g></g></g></svg>