<svg xmlns="http://www.w3.org/2000/svg" xmlns:xlink="http://www.w3.org/1999/xlink" version="1.1" width="86.16159057617188" height="167.39120483398438" viewBox="-1.7499847412109375 -1.75 86.16159057617188 167.39120483398438"><defs><linearGradient x1="282.55955" y1="78.13598" x2="258.59148" y2="94.95336" gradientUnits="userSpaceOnUse" id="color-1"><stop offset="0" stop-color="#ff32d7"/><stop offset="1" stop-color="#fff632"/></linearGradient></defs><g><g data-paper-data="{&quot;isPaintingLayer&quot;:true}" fill-rule="nonzero" stroke-linecap="none" stroke-linejoin="miter" stroke-miterlimit="10" stroke-dasharray="" stroke-dashoffset="0" font-family="none" font-weight="none" font-size="none" text-anchor="none" style="mix-blend-mode: normal"><path d="M 39.2007 57.6753 L 39.2007 124.9724 L 27.1531 163.8912 " data-paper-data="{&quot;origPos&quot;:null}" fill="none" stroke="#000000" stroke-width="3.5" stroke-linecap="round"/><path d="M 40.0039 123.5357 L 52.0515 163.6944 " fill="none" stroke="#000000" stroke-width="3.5" stroke-linecap="round"/><path d="M 16.1055 34.7849 C 16.1055 20.8121 27.4327 9.4849 41.4055 9.4849 C 55.3783 9.4849 66.7055 20.8121 66.7055 34.7849 C 66.7055 48.7576 55.3783 60.0849 41.4055 60.0849 C 27.4327 60.0849 16.1055 48.7576 16.1055 34.7849 Z " data-paper-data="{&quot;origPos&quot;:null}" fill="#d4d4d4" stroke="#000000" stroke-width="2.5" stroke-linecap="butt"/><path d="M 64.5364 88.8206 C 64.5364 88.8206 53.805 87.2264 50.1366 82.8457 C 46.0198 77.9298 40.088 65.9991 40.088 65.9991 " data-paper-data="{&quot;origPos&quot;:null,&quot;index&quot;:null}" fill="none" stroke="#000000" stroke-width="3.5" stroke-linecap="round"/><g data-paper-data="{&quot;origPos&quot;:null,&quot;origRot&quot;:0}" stroke-linecap="butt"><path d="M217.82182,182.42949l-1.76478,-12.91594l24.21001,-7.02627l0.28247,6.25392z" fill="#894c00" stroke-width="0" stroke="none" transform="matrix(1,0,0,1,-202.46474,-78.14535)"/><path d="M240.5142,167.95946l-0.72893,-5.33484l44.05951,-8.24055l1.28156,9.29648z" data-paper-data="{&quot;origPos&quot;:null}" fill="#d8d8d8" stroke-width="0" stroke="none" transform="matrix(1,0,0,1,-202.46474,-78.14535)"/><path d="M242.57006,167.63529l0.72574,-5.65449l2.36317,-0.43062l-0.59907,5.83876z" data-paper-data="{&quot;origPos&quot;:null}" fill="#ff0000" stroke-width="0" stroke="none" transform="matrix(1,0,0,1,-202.46474,-78.14535)"/><path d="M279.25131,164.22964l1.23403,-9.24885l2.65958,-0.47719l-1.51591,9.39958z" data-paper-data="{&quot;origPos&quot;:null}" fill="#ff0000" stroke-width="0" stroke="none" transform="matrix(1,0,0,1,-202.46474,-78.14535)"/><path d="M248.36898,167.22502l0.64428,-6.23849l2.36245,-0.43574l-0.51618,6.43301z" data-paper-data="{&quot;origPos&quot;:null}" fill="#ff0000" stroke-width="0" stroke="none" transform="matrix(1,0,0,1,-202.46474,-78.14535)"/><path d="M254.14099,166.62178l0.5752,-6.7337l2.65958,-0.47719l-0.74422,6.96966z" data-paper-data="{&quot;origPos&quot;:null}" fill="#ff0000" stroke-width="0" stroke="none" transform="matrix(1,0,0,1,-202.46474,-78.14535)"/><path d="M260.21013,165.9771l0.80324,-7.27036l2.56054,-0.46337l-0.87322,7.49249z" data-paper-data="{&quot;origPos&quot;:null}" fill="#ff0000" stroke-width="0" stroke="none" transform="matrix(1,0,0,1,-202.46474,-78.14535)"/><path d="M266.47735,165.30478l0.93225,-7.79319l2.65958,-0.47719l-1.10127,8.02915z" data-paper-data="{&quot;origPos&quot;:null}" fill="#ff0000" stroke-width="0" stroke="none" transform="matrix(1,0,0,1,-202.46474,-78.14535)"/><path d="M272.92882,164.5058l1.07506,-8.21699l2.56054,-0.46337l-1.14505,8.43913z" data-paper-data="{&quot;origPos&quot;:null}" fill="#ff0000" stroke-width="0" stroke="none" transform="matrix(1,0,0,1,-202.46474,-78.14535)"/><path d="M264.14869,169.06173l-1.8645,-3.92639l19.01053,-2.12422l-0.79532,4.36617z" data-paper-data="{&quot;origPos&quot;:null,&quot;origRot&quot;:0}" fill="#894c00" stroke-width="0" stroke="none" transform="matrix(1,0,0,1,-202.46474,-78.14535)"/></g><path d="M258.71475,92.08253c0.11807,4.47562 -18.53361,1.06922 -28.625,11.10381c-10.0914,10.03459 -4.40797,22.65255 -9.8336,27.13829c-5.4318,4.49084 -17.7914,-6.33819 -17.7914,-6.33819c0,0 5.73579,0.96781 9.15753,-6.68864c0,0 6.27024,-24.36629 17.34966,-29.88775c8.16535,-4.06922 29.49523,-4.71215 29.74282,4.67249z" data-paper-data="{&quot;origPos&quot;:null}" fill="#ff32d7" stroke="none" stroke-width="0" stroke-linecap="butt" transform="matrix(1,0,0,1,-202.46474,-78.14535)"/><path d="M 23.6991 99.3206 C 23.6991 99.3206 18.4352 88.1782 21.6265 82.1666 C 24.5617 76.6376 37.8975 65.9991 37.8975 65.9991 " data-paper-data="{&quot;origPos&quot;:null}" fill="none" stroke="#000000" stroke-width="3.5" stroke-linecap="round"/><path d="M 36.2019 28.5214 L 13.3853 27.5214 " data-paper-data="{&quot;origPos&quot;:null}" fill="none" stroke="#505050" stroke-width="2.5" stroke-linecap="round"/><path d="M275.27682,112.68992c0,12.70255 -8.65583,23 -19.33333,23c-10.67751,0 -19.33333,-10.29745 -19.33333,-23c0,-12.70255 8.65583,-23 19.33333,-23c10.67751,0 19.33333,10.29745 19.33333,23z" data-paper-data="{&quot;origPos&quot;:null}" fill="#f1c1c1" stroke="none" stroke-width="0" stroke-linecap="butt" transform="matrix(1,0,0,1,-202.46474,-78.14535)"/><path d="M246.72956,105.92958c0,-2.66149 2.15756,-4.81905 4.81905,-4.81905c2.66149,0 4.81905,2.15756 4.81905,4.81905c0,2.66149 -2.15756,4.81905 -4.81905,4.81905c-2.66149,0 -4.81905,-2.15756 -4.81905,-4.81905z" data-paper-data="{&quot;origPos&quot;:null}" fill="#000000" stroke="none" stroke-width="0" stroke-linecap="butt" transform="matrix(1,0,0,1,-202.46474,-78.14535)"/><path d="M260.38352,105.59625c0,-2.66148 2.15757,-4.81905 4.81905,-4.81905c2.66148,0 4.81905,2.15757 4.81905,4.81905c0,2.66148 -2.15757,4.81905 -4.81905,4.81905c-2.66148,0 -4.81905,-2.15757 -4.81905,-4.81905z" data-paper-data="{&quot;origPos&quot;:null}" fill="#000000" stroke="none" stroke-width="0" stroke-linecap="butt" transform="matrix(1,0,0,1,-202.46474,-78.14535)"/><path d="M 53.9442 25.0953 L 44.8172 21.4446 " data-paper-data="{&quot;origPos&quot;:null}" fill="none" stroke="#000000" stroke-width="2.5" stroke-linecap="round"/><path d="M 64.6585 21.1461 L 57.722 24.4318 " data-paper-data="{&quot;origPos&quot;:null}" fill="none" stroke="#000000" stroke-width="2.5" stroke-linecap="round"/><path d="M 67.4788 42.2112 C 67.4788 42.2112 61.3826 48.2971 57.4807 48.3521 C 52.1464 48.4272 43.8121 42.5446 43.8121 42.5446 " data-paper-data="{&quot;origPos&quot;:null}" fill="none" stroke="#000000" stroke-width="2.5" stroke-linecap="round"/><path d="M261.1787,98.39019c0,0 -2.3078,-1.67423 -3.27287,-3.00184c-1.00837,-1.38717 -1.78381,-3.95445 -1.78381,-3.95445l26.4441,-13.28855z" data-paper-data="{&quot;origRot&quot;:0,&quot;origPos&quot;:null}" fill="url(#color-1)" stroke="none" stroke-width="0" stroke-linecap="butt" transform="matrix(1,0,0,1,-202.46474,-78.14535)"/></g></g></svg>