<svg xmlns="http://www.w3.org/2000/svg" xmlns:xlink="http://www.w3.org/1999/xlink" version="1.1" width="10.41477" height="7.93508" viewBox="0,0,10.41477,7.93508"><g><g data-paper-data="{&quot;isPaintingLayer&quot;:true}" fill-rule="nonzero" stroke-linecap="butt" stroke-linejoin="miter" stroke-miterlimit="10" stroke-dasharray="" stroke-dashoffset="0" style="mix-blend-mode: normal"><path d="M236.37669,179.76028c0,-1.64341 2.34777,-2.66568 4.1523,-2.66568c1.80453,0 3.26738,1.02228 3.26738,2.66568c0,1.64341 -1.46285,2.97565 -3.26738,2.97565c-1.80453,0 -4.1523,-1.33224 -4.1523,-2.97565z" stroke-width="0" fill="#acacac" stroke="none" transform="matrix(1,0,0,1,-234.79261,-176.03246)"/><path d="M238.53648,177.86125c0,-1.01001 1.78397,-1.82879 2.89299,-1.82879c1.10903,0 2.00808,0.81878 2.00808,1.82879c0,1.01001 -0.89905,1.51882 -2.00808,1.51882c-1.10903,0 -2.89299,-0.50882 -2.89299,-1.51882z" stroke-width="0" fill="#acacac" stroke="none" transform="matrix(1,0,0,1,-234.79261,-176.03246)"/><path d="M241.19123,179.59705c0,-1.01001 0.89905,-1.51882 2.00808,-1.51882c1.10902,0 2.00808,0.50881 2.00808,1.51882c0,1.01001 -0.89905,1.82879 -2.00808,1.82879c-1.10902,0 -2.00808,-0.81878 -2.00808,-1.82879z" stroke-width="0" fill="#acacac" stroke="none" transform="matrix(1,0,0,1,-234.79261,-176.03246)"/><path d="M240.1021,182.01476c0,-1.01001 0.89905,-1.82878 2.00808,-1.82878c1.10902,0 2.00808,0.81878 2.00808,1.82879c0,1.01001 -0.89905,1.82879 -2.00808,1.82879c-1.10902,0 -2.00808,-0.81878 -2.00808,-1.82879z" stroke-width="0" fill="#acacac" stroke="none" transform="matrix(1,0,0,1,-234.79261,-176.03246)"/><path d="M236.56244,182.13874c0,-1.01001 0.89905,-1.82878 2.00808,-1.82878c1.10902,0 2.89299,0.81878 2.89299,1.82879c0,1.01001 -1.78397,1.82879 -2.89299,1.82879c-1.10902,0 -2.00808,-0.81878 -2.00808,-1.82879z" stroke-width="0" fill="#acacac" stroke="none" transform="matrix(1,0,0,1,-234.79261,-176.03246)"/><path d="M234.79261,180.09299c0,-1.01001 0.89905,-1.51882 2.00808,-1.51882c1.10902,0 2.00808,0.50881 2.00808,1.51882c0,1.01001 -0.89905,1.82879 -2.00808,1.82879c-1.10902,0 -2.00808,-0.81878 -2.00808,-1.82879z" stroke-width="0" fill="#acacac" stroke="none" transform="matrix(1,0,0,1,-234.79261,-176.03246)"/><path d="M236.01788,177.98523c0,-1.01001 0.89905,-1.82878 2.00808,-1.82878c1.10902,0 2.89299,0.81878 2.89299,1.82879c0,1.01001 -1.78397,1.51882 -2.89299,1.51882c-1.10902,0 -2.00808,-0.50882 -2.00808,-1.51882z" stroke-width="0" fill="#acacac" stroke="none" transform="matrix(1,0,0,1,-234.79261,-176.03246)"/></g></g></svg>