<svg xmlns="http://www.w3.org/2000/svg" xmlns:xlink="http://www.w3.org/1999/xlink" version="1.1" width="245.5" height="275" viewBox="-3.5 0 245.5 275"><g><g data-paper-data="{&quot;isPaintingLayer&quot;:true}" fill-rule="nonzero" stroke-linecap="none" stroke-linejoin="miter" stroke-miterlimit="10" stroke-dasharray="" stroke-dashoffset="0" font-family="none" font-weight="none" font-size="none" text-anchor="none" style="mix-blend-mode: normal"><g data-paper-data="{&quot;index&quot;:null}"><path d="M 16.5 27.5 L 16.5 260.5 " data-paper-data="{&quot;origPos&quot;:null}" stroke-width="7" stroke-linecap="round" fill="#07d200" stroke="#07d200"/><g stroke-linecap="butt"><path d="M146.5,179.5c4.69442,0 8.5,2.57437 8.5,5.75c0,3.17563 -3.80558,5.75 -8.5,5.75c-4.69442,0 -8.5,-2.57436 -8.5,-5.75c0,-3.17563 3.80558,-5.75 8.5,-5.75z" data-paper-data="{&quot;origPos&quot;:null}" stroke-width="0" fill="#07d200" stroke="#07d200" transform="matrix(1,0,0,1,-122,54.5)"/><path d="M146.5,144c4.69442,0 8.5,2.57437 8.5,5.75c0,3.17563 -3.80558,5.75 -8.5,5.75c-4.69442,0 -8.5,-2.57436 -8.5,-5.75c0,-3.17563 3.80558,-5.75 8.5,-5.75z" data-paper-data="{&quot;origPos&quot;:null}" stroke-width="0" fill="#07d200" stroke="#07d200" transform="matrix(1,0,0,1,-122,54.5)"/><path d="M147.5,107c4.69442,0 8.5,2.57437 8.5,5.75c0,3.17563 -3.80558,5.75 -8.5,5.75c-4.69442,0 -8.5,-2.57436 -8.5,-5.75c0,-3.17563 3.80558,-5.75 8.5,-5.75z" data-paper-data="{&quot;origPos&quot;:null}" stroke-width="0" fill="#07d200" stroke="#07d200" transform="matrix(1,0,0,1,-122,54.5)"/><path d="M147,61.5c4.69442,0 8.5,2.57437 8.5,5.75c0,3.17563 -3.80558,5.75 -8.5,5.75c-4.69442,0 -8.5,-2.57436 -8.5,-5.75c0,-3.17563 3.80558,-5.75 8.5,-5.75z" data-paper-data="{&quot;origPos&quot;:null}" stroke-width="0" fill="#07d200" stroke="#07d200" transform="matrix(1,0,0,1,-122,54.5)"/><path d="M147,23c4.69442,0 8.5,2.57437 8.5,5.75c0,3.17563 -3.80558,5.75 -8.5,5.75c-4.69442,0 -8.5,-2.57436 -8.5,-5.75c0,-3.17563 3.80558,-5.75 8.5,-5.75z" data-paper-data="{&quot;origPos&quot;:null}" stroke-width="0" fill="#07d200" stroke="#07d200" transform="matrix(1,0,0,1,-122,54.5)"/><path d="M148,-9.5c4.69442,0 8.5,2.57437 8.5,5.75c0,3.17564 -3.80558,5.75 -8.5,5.75c-4.69442,0 -8.5,-2.57436 -8.5,-5.75c0,-3.17564 3.80558,-5.75 8.5,-5.75z" data-paper-data="{&quot;origPos&quot;:null}" stroke-width="0" fill="#07d200" stroke="#07d200" transform="matrix(1,0,0,1,-122,54.5)"/></g><g data-paper-data="{&quot;index&quot;:null}" stroke-linecap="butt"><path d="M140.5,190.25c0,3.17563 -3.80558,5.75 -8.5,5.75c-4.69442,0 -8.5,-2.57436 -8.5,-5.75c0,-3.17563 3.80558,-5.75 8.5,-5.75c4.69442,0 8.5,2.57437 8.5,5.75z" data-paper-data="{&quot;origPos&quot;:null}" stroke-width="0" fill="#07d200" stroke="#07d200" transform="matrix(1,0,0,1,-122,54.5)"/><path d="M140.5,154.75c0,3.17563 -3.80558,5.75 -8.5,5.75c-4.69442,0 -8.5,-2.57436 -8.5,-5.75c0,-3.17563 3.80558,-5.75 8.5,-5.75c4.69442,0 8.5,2.57437 8.5,5.75z" data-paper-data="{&quot;origPos&quot;:null}" stroke-width="0" fill="#07d200" stroke="#07d200" transform="matrix(1,0,0,1,-122,54.5)"/><path d="M139.5,117.75c0,3.17563 -3.80558,5.75 -8.5,5.75c-4.69442,0 -8.5,-2.57436 -8.5,-5.75c0,-3.17563 3.80558,-5.75 8.5,-5.75c4.69442,0 8.5,2.57437 8.5,5.75z" data-paper-data="{&quot;origPos&quot;:null}" stroke-width="0" fill="#07d200" stroke="#07d200" transform="matrix(1,0,0,1,-122,54.5)"/><path d="M140,72.25c0,3.17563 -3.80558,5.75 -8.5,5.75c-4.69442,0 -8.5,-2.57436 -8.5,-5.75c0,-3.17563 3.80558,-5.75 8.5,-5.75c4.69442,0 8.5,2.57437 8.5,5.75z" data-paper-data="{&quot;origPos&quot;:null}" stroke-width="0" fill="#07d200" stroke="#07d200" transform="matrix(1,0,0,1,-122,54.5)"/><path d="M140,33.75c0,3.17563 -3.80558,5.75 -8.5,5.75c-4.69442,0 -8.5,-2.57436 -8.5,-5.75c0,-3.17563 3.80558,-5.75 8.5,-5.75c4.69442,0 8.5,2.57437 8.5,5.75z" data-paper-data="{&quot;origPos&quot;:null}" stroke-width="0" fill="#07d200" stroke="#07d200" transform="matrix(1,0,0,1,-122,54.5)"/><path d="M139,1.25c0,3.17563 -3.80558,5.75 -8.5,5.75c-4.69442,0 -8.5,-2.57436 -8.5,-5.75c0,-3.17564 3.80558,-5.75 8.5,-5.75c4.69442,0 8.5,2.57437 8.5,5.75z" data-paper-data="{&quot;origPos&quot;:null}" stroke-width="0" fill="#07d200" stroke="#07d200" transform="matrix(1,0,0,1,-122,54.5)"/></g></g><g data-paper-data="{&quot;origPos&quot;:null}"><path d="M 222 271.5 L 222 3.5 " data-paper-data="{&quot;origPos&quot;:null}" stroke-width="7" stroke-linecap="round" fill="#07d200" stroke="#07d200"/><g stroke-linecap="butt"><path d="M344.5,193.13305c0,3.65266 -3.80558,6.61373 -8.5,6.61373c-4.69442,0 -8.5,-2.96107 -8.5,-6.61373c0,-3.65266 3.80558,-6.61373 8.5,-6.61373c4.69442,0 8.5,2.96107 8.5,6.61373z" data-paper-data="{&quot;origPos&quot;:null}" stroke-width="0" fill="#07d200" stroke="#07d200" transform="matrix(1,0,0,1,-122,54.5)"/><path d="M344.5,152.30043c0,3.65266 -3.80558,6.61373 -8.5,6.61373c-4.69442,0 -8.5,-2.96107 -8.5,-6.61373c0,-3.65266 3.80558,-6.61374 8.5,-6.61374c4.69442,0 8.5,2.96108 8.5,6.61374z" data-paper-data="{&quot;origPos&quot;:null}" stroke-width="0" fill="#07d200" stroke="#07d200" transform="matrix(1,0,0,1,-122,54.5)"/><path d="M343.5,109.74249c0,3.65266 -3.80558,6.61373 -8.5,6.61373c-4.69442,0 -8.5,-2.96107 -8.5,-6.61373c0,-3.65266 3.80558,-6.61373 8.5,-6.61373c4.69442,0 8.5,2.96107 8.5,6.61373z" data-paper-data="{&quot;origPos&quot;:null}" stroke-width="0" fill="#07d200" stroke="#07d200" transform="matrix(1,0,0,1,-122,54.5)"/><path d="M344,57.40773c0,3.65266 -3.80558,6.61374 -8.5,6.61374c-4.69442,0 -8.5,-2.96108 -8.5,-6.61374c0,-3.65266 3.80558,-6.61374 8.5,-6.61374c4.69442,0 8.5,2.96108 8.5,6.61374z" data-paper-data="{&quot;origPos&quot;:null}" stroke-width="0" fill="#07d200" stroke="#07d200" transform="matrix(1,0,0,1,-122,54.5)"/><path d="M344,13.12447c0,3.65266 -3.80558,6.61373 -8.5,6.61373c-4.69442,0 -8.5,-2.96107 -8.5,-6.61373c0,-3.65266 3.80558,-6.61373 8.5,-6.61373c4.69442,0 8.5,2.96108 8.5,6.61373z" data-paper-data="{&quot;origPos&quot;:null}" stroke-width="0" fill="#07d200" stroke="#07d200" transform="matrix(1,0,0,1,-122,54.5)"/><path d="M343,-24.25751c0,3.65266 -3.80558,6.61373 -8.5,6.61373c-4.69442,0 -8.5,-2.96107 -8.5,-6.61373c0,-3.65266 3.80558,-6.61373 8.5,-6.61373c4.69442,0 8.5,2.96108 8.5,6.61374z" data-paper-data="{&quot;origPos&quot;:null}" stroke-width="0" fill="#07d200" stroke="#07d200" transform="matrix(1,0,0,1,-122,54.5)"/></g><g data-paper-data="{&quot;index&quot;:null}" stroke-linecap="butt"><path d="M350.5,192.27039c4.69442,0 8.5,2.96107 8.5,6.61373c0,3.65266 -3.80558,6.61373 -8.5,6.61373c-4.69442,0 -8.5,-2.96107 -8.5,-6.61373c0,-3.65266 3.80558,-6.61373 8.5,-6.61373z" data-paper-data="{&quot;origPos&quot;:null}" stroke-width="0" fill="#07d200" stroke="#07d200" transform="matrix(1,0,0,1,-122,54.5)"/><path d="M350.5,151.43777c4.69442,0 8.5,2.96107 8.5,6.61373c0,3.65266 -3.80558,6.61373 -8.5,6.61373c-4.69442,0 -8.5,-2.96107 -8.5,-6.61373c0,-3.65266 3.80558,-6.61373 8.5,-6.61373z" data-paper-data="{&quot;origPos&quot;:null}" stroke-width="0" fill="#07d200" stroke="#07d200" transform="matrix(1,0,0,1,-122,54.5)"/><path d="M351.5,108.87983c4.69442,0 8.5,2.96107 8.5,6.61373c0,3.65266 -3.80558,6.61373 -8.5,6.61373c-4.69442,0 -8.5,-2.96107 -8.5,-6.61373c0,-3.65266 3.80558,-6.61373 8.5,-6.61373z" data-paper-data="{&quot;origPos&quot;:null}" stroke-width="0" fill="#07d200" stroke="#07d200" transform="matrix(1,0,0,1,-122,54.5)"/><path d="M351,56.54507c4.69442,0 8.5,2.96108 8.5,6.61374c0,3.65266 -3.80558,6.61373 -8.5,6.61373c-4.69442,0 -8.5,-2.96107 -8.5,-6.61373c0,-3.65266 3.80558,-6.61374 8.5,-6.61374z" data-paper-data="{&quot;origPos&quot;:null}" stroke-width="0" fill="#07d200" stroke="#07d200" transform="matrix(1,0,0,1,-122,54.5)"/><path d="M351,12.26181c4.69442,0 8.5,2.96107 8.5,6.61373c0,3.65266 -3.80558,6.61373 -8.5,6.61373c-4.69442,0 -8.5,-2.96108 -8.5,-6.61373c0,-3.65266 3.80558,-6.61373 8.5,-6.61373z" data-paper-data="{&quot;origPos&quot;:null}" stroke-width="0" fill="#07d200" stroke="#07d200" transform="matrix(1,0,0,1,-122,54.5)"/><path d="M352,-25.12017c4.69442,0 8.5,2.96107 8.5,6.61373c0,3.65266 -3.80558,6.61374 -8.5,6.61374c-4.69442,0 -8.5,-2.96108 -8.5,-6.61373c0,-3.65266 3.80558,-6.61373 8.5,-6.61373z" data-paper-data="{&quot;origPos&quot;:null}" stroke-width="0" fill="#07d200" stroke="#07d200" transform="matrix(1,0,0,1,-122,54.5)"/></g></g></g></g></svg>