<svg xmlns="http://www.w3.org/2000/svg" xmlns:xlink="http://www.w3.org/1999/xlink" version="1.1" width="443.90827" height="65.21021" viewBox="0,0,443.90827,65.21021"><defs><linearGradient x1="53.17714" y1="199.9055" x2="53.17714" y2="212.47623" gradientUnits="userSpaceOnUse" id="color-1"><stop offset="0" stop-color="#fff9cc" stop-opacity="0"/><stop offset="1" stop-color="#fff9cc"/></linearGradient><linearGradient x1="400.74857" y1="200.04836" x2="400.74857" y2="212.61909" gradientUnits="userSpaceOnUse" id="color-2"><stop offset="0" stop-color="#fff9cc" stop-opacity="0"/><stop offset="1" stop-color="#fff9cc"/></linearGradient></defs><g><g data-paper-data="{&quot;isPaintingLayer&quot;:true}" fill-rule="nonzero" stroke-linecap="butt" stroke-linejoin="miter" stroke-miterlimit="10" stroke-dasharray="" stroke-dashoffset="0" style="mix-blend-mode: normal"><g><path d="M14.98468,212.30073v-41.45479h58.86877v41.45479z" data-paper-data="{&quot;origPos&quot;:null}" fill="#fff27e" stroke="none" stroke-width="0" transform="matrix(1,0,0,1,-7.15745,-147.40888)"/><path d="M7.36881,212.30073v-46.79055h9.05675v46.79055z" data-paper-data="{&quot;origPos&quot;:null}" fill="#e5d62f" stroke="none" stroke-width="0" transform="matrix(1,0,0,1,-7.15745,-147.40888)"/><path d="M73.23591,212.30073v-46.79055l7.98807,0.10186l4.2444,-1.94887l0.11762,46.48273l-3.34086,2.32847z" data-paper-data="{&quot;origPos&quot;:null}" fill="#e5d62f" stroke="none" stroke-width="0" transform="matrix(1,0,0,1,-7.15745,-147.40888)"/><path d="M11.07384,174.53992v-9.02976h67.92551v9.02976z" data-paper-data="{&quot;origPos&quot;:null}" fill="#e5d62f" stroke="none" stroke-width="0" transform="matrix(1,0,0,1,-7.15745,-147.40888)"/><path d="M84.96853,210.63844v-46.70821l14.16143,-8.22967l-0.09263,44.37524z" data-paper-data="{&quot;origPos&quot;:null}" fill="#fff27e" stroke="none" stroke-width="0" transform="matrix(1,0,0,1,-7.15745,-147.40888)"/><path d="M98.9859,200.13108l-0.15438,-44.12267l4.7342,-2.8731v43.3531z" data-paper-data="{&quot;origPos&quot;:null}" fill="#e5d62f" stroke="none" stroke-width="0" transform="matrix(1,0,0,1,-7.15745,-147.40888)"/><path d="M84.55683,173.5138v-9.4402l15.02595,-8.41409v9.23498z" data-paper-data="{&quot;origPos&quot;:null}" fill="#e5d62f" stroke="none" stroke-width="0" transform="matrix(1,0,0,1,-7.15745,-147.40888)"/><path d="M 2.5831 20.5707 C 2.5831 20.5707 2.3794 15.7087 3.3172 12.3108 C 5.231 5.3759 12.4961 0.4864 19.308 2.8544 C 24.3898 4.6209 23.274 8.8912 23.274 8.8912 Z " data-paper-data="{&quot;origPos&quot;:null}" fill="#fff37d" stroke="#e5d62f" stroke-width="4.5"/><path d="M11.85627,165.69518c0,0 0.27011,-4.10702 0.82758,-5.94761c0.91778,-3.03017 2.56797,-5.64896 4.7412,-7.8892c2.32403,-2.39569 8.1957,-4.08785 8.1957,-4.08785l65.50901,0.21548c0,0 -5.15089,1.29121 -7.7957,3.64631c-2.46359,2.19375 -3.13344,3.50586 -3.95006,6.76293c-0.64408,2.56886 -0.88527,7.47583 -0.88527,7.47583z" data-paper-data="{&quot;origPos&quot;:null}" fill="#fff27e" stroke="none" stroke-width="0" transform="matrix(1,0,0,1,-7.15745,-147.40888)"/><path d="M 70.5195 19.955 C 70.5195 19.955 70.5217 15.2982 71.4595 11.9004 C 72.4153 8.4369 73.8111 6.3814 76.9209 4.5675 C 81.5893 1.8446 84.8134 0.4634 89.9204 2.2387 C 95.0021 4.0052 93.8863 8.2755 93.8863 8.2755 Z " data-paper-data="{&quot;origPos&quot;:null}" fill="#fff27e" stroke="#e5d62f" stroke-width="4.5"/><path d="M34.12732,186.32528v-27.81242h19.30731v27.81242z" data-paper-data="{&quot;origPos&quot;:null}" fill="#e7c000" stroke="none" stroke-width="0" transform="matrix(1,0,0,1,-7.15745,-147.40888)"/><path d="M36.05006,167.41221c0,-4.12848 3.3568,-7.47528 7.49762,-7.47528c4.14082,0 7.49762,3.3468 7.49762,7.47528c0,4.12848 -3.3568,7.47528 -7.49762,7.47528c-4.14082,0 -7.49762,-3.3468 -7.49762,-7.47528z" data-paper-data="{&quot;origPos&quot;:null}" fill="#675600" stroke="none" stroke-width="0" transform="matrix(1,0,0,1,-7.15745,-147.40888)"/><path d="M40.03251,184.02738v-13.30185h6.83839v13.30185z" data-paper-data="{&quot;origPos&quot;:null}" fill="#675600" stroke="none" stroke-width="0" transform="matrix(1,0,0,1,-7.15745,-147.40888)"/><path d="M80.97898,165.47594c-1.8757,0 -3.39628,-2.75643 -3.39628,-6.15665c0,-3.40021 8.93063,-8.4434 10.80633,-8.4434c1.83066,0 2.49442,0.09909 1.06044,1.23367c-1.37519,1.08806 -4.72891,3.08714 -5.55361,4.63235c-0.49828,0.93361 -0.62171,1.70909 -0.85695,2.74031c-0.27896,1.22286 -0.42796,1.74926 -0.42796,3.00335c0,3.40021 0.24373,2.99037 -1.63197,2.99037z" data-paper-data="{&quot;origPos&quot;:null}" fill="#e5d62f" stroke="none" stroke-width="0" transform="matrix(1,0,0,1,-7.15745,-147.40888)"/></g><g><path d="M362.48468,212.30073v-41.45479h58.86877v41.45479z" data-paper-data="{&quot;origPos&quot;:null}" fill="#fff27e" stroke="none" stroke-width="0" transform="matrix(1,0,0,1,-7.15745,-147.40888)"/><path d="M354.86881,212.30073v-46.79055h9.05675v46.79055z" data-paper-data="{&quot;origPos&quot;:null}" fill="#e5d62f" stroke="none" stroke-width="0" transform="matrix(1,0,0,1,-7.15745,-147.40888)"/><path d="M420.73592,212.30073v-46.79055l7.98807,0.10186l4.2444,-1.94887l0.11762,46.48273l-3.34086,2.32847z" data-paper-data="{&quot;origPos&quot;:null}" fill="#e5d62f" stroke="none" stroke-width="0" transform="matrix(1,0,0,1,-7.15745,-147.40888)"/><path d="M358.57384,174.53992v-9.02976h67.92551v9.02976z" data-paper-data="{&quot;origPos&quot;:null}" fill="#e5d62f" stroke="none" stroke-width="0" transform="matrix(1,0,0,1,-7.15745,-147.40888)"/><path d="M432.46854,210.63844v-46.70821l14.16143,-8.22967l-0.09263,44.37524z" data-paper-data="{&quot;origPos&quot;:null}" fill="#fff27e" stroke="none" stroke-width="0" transform="matrix(1,0,0,1,-7.15745,-147.40888)"/><path d="M446.4859,200.13108l-0.15438,-44.12267l4.7342,-2.8731v43.3531z" data-paper-data="{&quot;origPos&quot;:null}" fill="#e5d62f" stroke="none" stroke-width="0" transform="matrix(1,0,0,1,-7.15745,-147.40888)"/><path d="M432.05684,173.5138v-9.4402l15.02595,-8.41409v9.23498z" data-paper-data="{&quot;origPos&quot;:null}" fill="#e5d62f" stroke="none" stroke-width="0" transform="matrix(1,0,0,1,-7.15745,-147.40888)"/><path d="M 350.0831 20.5707 C 350.0831 20.5707 349.8794 15.7087 350.8171 12.3108 C 352.731 5.3759 359.9961 0.4864 366.808 2.8544 C 371.8898 4.6209 370.774 8.8912 370.774 8.8912 Z " data-paper-data="{&quot;origPos&quot;:null}" fill="#fff37d" stroke="#e5d62f" stroke-width="4.5"/><path d="M359.35627,165.69518c0,0 0.27011,-4.10702 0.82758,-5.94761c0.91778,-3.03017 2.56797,-5.64896 4.7412,-7.8892c2.32403,-2.39569 8.1957,-4.08785 8.1957,-4.08785l65.50901,0.21548c0,0 -5.15089,1.29121 -7.7957,3.64631c-2.46359,2.19375 -3.13344,3.50586 -3.95006,6.76293c-0.64408,2.56886 -0.88527,7.47583 -0.88527,7.47583z" data-paper-data="{&quot;origPos&quot;:null}" fill="#fff27e" stroke="none" stroke-width="0" transform="matrix(1,0,0,1,-7.15745,-147.40888)"/><path d="M 418.0195 19.955 C 418.0195 19.955 418.0217 15.2982 418.9595 11.9004 C 419.9153 8.4369 421.3111 6.3814 424.4209 4.5675 C 429.0893 1.8446 432.3134 0.4634 437.4204 2.2387 C 442.5021 4.0052 441.3863 8.2755 441.3863 8.2755 Z " data-paper-data="{&quot;origPos&quot;:null}" fill="#fff27e" stroke="#e5d62f" stroke-width="4.5"/><path d="M381.62732,186.32528v-27.81242h19.30731v27.81242z" data-paper-data="{&quot;origPos&quot;:null}" fill="#e7c000" stroke="none" stroke-width="0" transform="matrix(1,0,0,1,-7.15745,-147.40888)"/><path d="M383.55006,167.41221c0,-4.12848 3.3568,-7.47528 7.49762,-7.47528c4.14082,0 7.49762,3.3468 7.49762,7.47528c0,4.12848 -3.3568,7.47528 -7.49762,7.47528c-4.14082,0 -7.49762,-3.3468 -7.49762,-7.47528z" data-paper-data="{&quot;origPos&quot;:null}" fill="#675600" stroke="none" stroke-width="0" transform="matrix(1,0,0,1,-7.15745,-147.40888)"/><path d="M387.53251,184.02738v-13.30185h6.83839v13.30185z" data-paper-data="{&quot;origPos&quot;:null}" fill="#675600" stroke="none" stroke-width="0" transform="matrix(1,0,0,1,-7.15745,-147.40888)"/><path d="M428.47899,165.47594c-1.8757,0 -3.39628,-2.75643 -3.39628,-6.15665c0,-3.40021 8.93063,-8.4434 10.80633,-8.4434c1.83066,0 2.49442,0.09909 1.06044,1.23367c-1.37519,1.08806 -4.72891,3.08714 -5.55361,4.63235c-0.49828,0.93361 -0.62171,1.70909 -0.85695,2.74031c-0.27896,1.22286 -0.42796,1.74926 -0.42796,3.00335c0,3.40021 0.24373,2.99037 -1.63197,2.99037z" data-paper-data="{&quot;origPos&quot;:null}" fill="#e5d62f" stroke="none" stroke-width="0" transform="matrix(1,0,0,1,-7.15745,-147.40888)"/></g><path d="M7.15745,212.33337l0.28571,-12.42787h91.75368l-16.50798,12.57073z" fill="url(#color-1)" stroke="none" stroke-width="0" transform="matrix(1,0,0,1,-7.15745,-147.40888)"/><path d="M354.72888,212.47623l0.28571,-12.42787h91.75368l-16.50798,12.57073z" fill="url(#color-2)" stroke="none" stroke-width="0" transform="matrix(1,0,0,1,-7.15745,-147.40888)"/><g><g><g><path d="M27.46191,195.69485c0,-3.69666 2.99673,-6.69339 6.69339,-6.69339c3.69666,0 6.69339,2.99673 6.69339,6.69339c0,3.69666 -2.99673,6.69339 -6.69339,6.69339c-3.69666,0 -6.69339,-2.99673 -6.69339,-6.69339z" data-paper-data="{&quot;origPos&quot;:null}" fill="#bbb54b" stroke-width="NaN" stroke="none" transform="matrix(1,0,0,1,-7.15745,-147.40888)"/><path d="M28.71134,195.7841c0,-3.74595 3.03669,-6.78263 6.78264,-6.78263c3.74595,0 6.78264,3.03669 6.78264,6.78263c0,3.74595 -3.03669,6.78264 -6.78264,6.78264c-3.74595,0 -6.78263,-3.03669 -6.78263,-6.78264z" data-paper-data="{&quot;origPos&quot;:null}" fill="#fff766" stroke-width="NaN" stroke="none" transform="matrix(1,0,0,1,-7.15745,-147.40888)"/><text transform="matrix(0.26774,0,0,0.26774,24.58823,52.123519999999985)" font-size="40" xml:space="preserve" data-paper-data="{&quot;origPos&quot;:null}" fill="#bbb54b" fill-rule="nonzero" stroke="none" stroke-width="1" stroke-linecap="butt" stroke-linejoin="miter" stroke-miterlimit="10" stroke-dasharray="" stroke-dashoffset="0" font-family="Sans Serif" font-weight="normal" text-anchor="start" style="mix-blend-mode: normal"><tspan x="0" dy="0">C</tspan></text></g><text transform="matrix(0.33829,0,0,0.33829,35.822750000000006,53.293349999999975)" font-size="40" xml:space="preserve" fill="#000000" fill-rule="nonzero" stroke="none" stroke-width="1" stroke-linecap="butt" stroke-linejoin="miter" stroke-miterlimit="10" stroke-dasharray="" stroke-dashoffset="0" font-family="Sans Serif" font-weight="normal" text-anchor="start" style="mix-blend-mode: normal"><tspan x="0" dy="0">175</tspan></text></g><g><g><path d="M374.67621,196.62342c0,-3.69666 2.99673,-6.69339 6.69339,-6.69339c3.69666,0 6.69339,2.99673 6.69339,6.69339c0,3.69666 -2.99673,6.69339 -6.69339,6.69339c-3.69666,0 -6.69339,-2.99673 -6.69339,-6.69339z" data-paper-data="{&quot;origPos&quot;:null}" fill="#bbb54b" stroke-width="NaN" stroke="none" transform="matrix(1,0,0,1,-7.15745,-147.40888)"/><path d="M375.92564,196.71267c0,-3.74595 3.03669,-6.78263 6.78264,-6.78263c3.74595,0 6.78264,3.03669 6.78264,6.78263c0,3.74595 -3.03669,6.78264 -6.78264,6.78264c-3.74595,0 -6.78263,-3.03669 -6.78263,-6.78264z" data-paper-data="{&quot;origPos&quot;:null}" fill="#fff766" stroke-width="NaN" stroke="none" transform="matrix(1,0,0,1,-7.15745,-147.40888)"/><text transform="matrix(0.26774,0,0,0.26774,371.80253,53.05208999999999)" font-size="40" xml:space="preserve" data-paper-data="{&quot;origPos&quot;:null}" fill="#bbb54b" fill-rule="nonzero" stroke="none" stroke-width="1" stroke-linecap="butt" stroke-linejoin="miter" stroke-miterlimit="10" stroke-dasharray="" stroke-dashoffset="0" font-family="Sans Serif" font-weight="normal" text-anchor="start" style="mix-blend-mode: normal"><tspan x="0" dy="0">C</tspan></text></g><text transform="matrix(0.33829,0,0,0.33829,383.03705,54.22191999999998)" font-size="40" xml:space="preserve" fill="#000000" fill-rule="nonzero" stroke="none" stroke-width="1" stroke-linecap="butt" stroke-linejoin="miter" stroke-miterlimit="10" stroke-dasharray="" stroke-dashoffset="0" font-family="Sans Serif" font-weight="normal" text-anchor="start" style="mix-blend-mode: normal"><tspan x="0" dy="0">175</tspan></text></g></g><path d="M 20.0714 48.4483 C 20.0714 44.6612 23.3334 41.5911 27.3571 41.5911 C 31.3809 41.5911 34.6429 44.6612 34.6429 48.4483 C 34.6429 52.2354 31.3809 55.3054 27.3571 55.3054 C 23.3333 55.3054 20.0714 52.2353 20.0714 48.4483 Z " fill="none" stroke="#000000" stroke-width="0.5"/><path d="M 367.6429 49.1625 C 367.6429 45.3755 370.9048 42.3054 374.9286 42.3054 C 378.9524 42.3054 382.2143 45.3755 382.2143 49.1625 C 382.2143 52.9496 378.9523 56.0197 374.9286 56.0197 C 370.9048 56.0197 367.6429 52.9496 367.6429 49.1625 Z " fill="none" stroke="#000000" stroke-width="0.5"/></g></g></svg>