<svg xmlns="http://www.w3.org/2000/svg" xmlns:xlink="http://www.w3.org/1999/xlink" version="1.1" width="491.92971" height="224.76602" viewBox="0,0,491.92971,224.76602"><g><g data-paper-data="{&quot;isPaintingLayer&quot;:true}" fill-rule="nonzero" stroke-linecap="butt" stroke-linejoin="miter" stroke-miterlimit="10" stroke-dasharray="" stroke-dashoffset="0" style="mix-blend-mode: normal"><g data-paper-data="{&quot;origPos&quot;:null,&quot;origRot&quot;:0}"><path d="M 228.4956 112.0777 L 197.5794 24.5617 L 262.9355 2.2163 L 293.8517 89.7323 Z " fill="#d49500" stroke="#000000" stroke-width="3.5"/><path d="M198.27263,187.00911l-6.69318,-18.94677l65.35611,-22.34534l6.69318,18.94677z" fill="#000000" stroke="none" stroke-width="0" transform="matrix(1,0,0,1,6,-143.50068)"/></g><path d="M 123.8556 176.4595 L 92.9395 88.9435 L 158.2956 66.5982 L 189.2117 154.1142 Z " fill="#d49500" stroke="#000000" stroke-width="3.5"/><path d="M92.56992,248.07951l-5.55952,-15.30794l65.34799,-22.36133l5.55952,15.30794z" data-paper-data="{&quot;origPos&quot;:null,&quot;origRot&quot;:0}" fill="#000000" stroke="none" stroke-width="0" transform="matrix(1,0,0,1,6,-143.50068)"/><path d="M 46.0843 217.9994 L 30.0929 173.5624 L 364.0217 59.3917 L 387.926 127.0588 L 126.0634 217.2223 Z " data-paper-data="{&quot;origPos&quot;:null,&quot;origRot&quot;:0}" fill="#ffffff" stroke="#000000" stroke-width="3.5"/><path d="M89.55612,368.16338l319.56657,-109.77684l12.86202,22.11052l-16.97313,87.33404z" data-paper-data="{&quot;origPos&quot;:null,&quot;origRot&quot;:0}" fill="#000000" stroke="none" stroke-width="0" transform="matrix(1,0,0,1,6,-143.50068)"/><path d="M81.99638,367.52164l327.65056,-109.98097l12.16893,22.82039l-259.88278,87.90564z" data-paper-data="{&quot;origPos&quot;:null,&quot;origRot&quot;:0}" fill="#ff0000" stroke="none" stroke-width="0" transform="matrix(1,0,0,1,6,-143.50068)"/><g data-paper-data="{&quot;origPos&quot;:null,&quot;origRot&quot;:0}"><g data-paper-data="{&quot;origPos&quot;:null}"><path d="M46.21839,340.81644l-6.31217,-17.86822l19.4026,-6.63378l6.31217,17.86822z" data-paper-data="{&quot;origPos&quot;:null}" stroke-width="0" fill="#ffeb18" stroke="none" transform="matrix(1,0,0,1,6,-143.50068)"/><path d="M55.25804,366.40548l-6.31217,-17.86822l19.4026,-6.63378l6.31217,17.86822z" data-paper-data="{&quot;origPos&quot;:null}" stroke-width="0" fill="#ffeb18" stroke="none" transform="matrix(1,0,0,1,6,-143.50068)"/></g><g data-paper-data="{&quot;origPos&quot;:null}"><path d="M81.27922,328.82909l-6.31217,-17.86822l19.4026,-6.63378l6.31217,17.86822z" data-paper-data="{&quot;origPos&quot;:null}" stroke-width="0" fill="#ffeb18" stroke="none" transform="matrix(1,0,0,1,6,-143.50068)"/><path d="M90.31887,354.41814l-6.31217,-17.86822l19.4026,-6.63378l6.31217,17.86822z" data-paper-data="{&quot;origPos&quot;:null}" stroke-width="0" fill="#ffeb18" stroke="none" transform="matrix(1,0,0,1,6,-143.50068)"/></g><g data-paper-data="{&quot;origPos&quot;:null}"><path d="M117.02084,316.60897l-6.31217,-17.86822l19.4026,-6.63378l6.31217,17.86822z" data-paper-data="{&quot;origPos&quot;:null}" stroke-width="0" fill="#ffeb18" stroke="none" transform="matrix(1,0,0,1,6,-143.50068)"/><path d="M126.0605,342.19804l-6.31217,-17.86822l19.4026,-6.63378l6.31217,17.86822z" data-paper-data="{&quot;origPos&quot;:null}" stroke-width="0" fill="#ffeb18" stroke="none" transform="matrix(1,0,0,1,6,-143.50068)"/></g><g data-paper-data="{&quot;origPos&quot;:null}"><path d="M153.10286,304.2725l-6.31217,-17.86822l19.4026,-6.63378l6.31217,17.86822z" data-paper-data="{&quot;origPos&quot;:null}" stroke-width="0" fill="#ffeb18" stroke="none" transform="matrix(1,0,0,1,6,-143.50068)"/><path d="M162.14251,329.86155l-6.31217,-17.86822l19.4026,-6.63378l6.31217,17.86822z" data-paper-data="{&quot;origPos&quot;:null}" stroke-width="0" fill="#ffeb18" stroke="none" transform="matrix(1,0,0,1,6,-143.50068)"/></g><g data-paper-data="{&quot;origPos&quot;:null}"><path d="M190.65271,291.77124l-6.31217,-17.86822l19.4026,-6.63378l6.31217,17.86822z" data-paper-data="{&quot;origPos&quot;:null}" stroke-width="0" fill="#ffeb18" stroke="none" transform="matrix(1,0,0,1,6,-143.50068)"/><path d="M199.69236,317.36028l-6.31217,-17.86822l19.4026,-6.63378l6.31217,17.86822z" data-paper-data="{&quot;origPos&quot;:null}" stroke-width="0" fill="#ffeb18" stroke="none" transform="matrix(1,0,0,1,6,-143.50068)"/></g><g data-paper-data="{&quot;origPos&quot;:null}"><g data-paper-data="{&quot;origPos&quot;:null}"><path d="M228.43671,278.85282l-6.31217,-17.86822l19.4026,-6.63378l6.31217,17.86822z" data-paper-data="{&quot;origPos&quot;:null}" stroke-width="0" fill="#ffeb18" stroke="none" transform="matrix(1,0,0,1,6,-143.50068)"/><path d="M237.47636,304.44187l-6.31217,-17.86822l19.4026,-6.63378l6.31217,17.86822z" data-paper-data="{&quot;origPos&quot;:null}" stroke-width="0" fill="#ffeb18" stroke="none" transform="matrix(1,0,0,1,6,-143.50068)"/></g><g data-paper-data="{&quot;origPos&quot;:null}"><path d="M263.49754,266.86549l-6.31217,-17.86822l19.4026,-6.63378l6.31217,17.86822z" data-paper-data="{&quot;origPos&quot;:null}" stroke-width="0" fill="#ffeb18" stroke="none" transform="matrix(1,0,0,1,6,-143.50068)"/><path d="M272.53718,292.45454l-6.31217,-17.86822l19.4026,-6.63378l6.31217,17.86822z" data-paper-data="{&quot;origPos&quot;:null}" stroke-width="0" fill="#ffeb18" stroke="none" transform="matrix(1,0,0,1,6,-143.50068)"/></g><g data-paper-data="{&quot;origPos&quot;:null}"><path d="M299.23915,254.64539l-6.31217,-17.86822l19.4026,-6.63378l6.31217,17.86822z" data-paper-data="{&quot;origPos&quot;:null}" stroke-width="0" fill="#ffeb18" stroke="none" transform="matrix(1,0,0,1,6,-143.50068)"/><path d="M308.27881,280.23443l-6.31217,-17.86822l19.4026,-6.63378l6.31217,17.86822z" data-paper-data="{&quot;origPos&quot;:null}" stroke-width="0" fill="#ffeb18" stroke="none" transform="matrix(1,0,0,1,6,-143.50068)"/></g><g data-paper-data="{&quot;origPos&quot;:null}"><path d="M335.32118,242.3089l-6.31217,-17.86822l19.4026,-6.63378l6.31217,17.86822z" data-paper-data="{&quot;origPos&quot;:null}" stroke-width="0" fill="#ffeb18" stroke="none" transform="matrix(1,0,0,1,6,-143.50068)"/><path d="M344.36082,267.89796l-6.31217,-17.86822l19.4026,-6.63378l6.31217,17.86822z" data-paper-data="{&quot;origPos&quot;:null}" stroke-width="0" fill="#ffeb18" stroke="none" transform="matrix(1,0,0,1,6,-143.50068)"/></g><g data-paper-data="{&quot;origPos&quot;:null}" font-family="sans-serif" font-weight="normal" font-size="12" text-anchor="start"/></g></g><path d="M-1,368v-28h486v28z" fill="#3590ff" stroke="none" stroke-width="NaN" transform="matrix(1,0,0,1,6,-143.50068)"/><path d="M126,343.33333h-132c0,0 10.94174,-7.09695 25.1917,-11.28226c14.24996,-4.18531 20.56645,-9.69219 35.3083,-9.71778c14.74185,-0.02559 22.02029,5.47295 36.05117,9.59391c14.03088,4.12096 35.44883,11.40612 35.44883,11.40612z" data-paper-data="{&quot;origPos&quot;:null}" fill="#3590ff" stroke="none" stroke-width="0" transform="matrix(1,0,0,1,6,-143.50068)"/><path d="M253,343.33333h-143c0,0 21.94173,-7.09695 36.1917,-11.28226c14.24996,-4.18531 20.56645,-9.69218 35.3083,-9.71778c14.74185,-0.02559 22.0203,5.47295 36.05118,9.59391c14.03088,4.12097 35.44883,11.40612 35.44883,11.40612z" data-paper-data="{&quot;origPos&quot;:null}" fill="#3590ff" stroke="none" stroke-width="0" transform="matrix(1,0,0,1,6,-143.50068)"/><path d="M384,342.33333h-143c0,0 21.94173,-7.09695 36.19169,-11.28226c14.24996,-4.18531 20.56645,-9.69218 35.30831,-9.71778c14.74185,-0.02559 22.0203,5.47295 36.05118,9.59391c14.03088,4.12097 35.44883,11.40612 35.44883,11.40612z" data-paper-data="{&quot;origPos&quot;:null}" fill="#3590ff" stroke="none" stroke-width="0" transform="matrix(1,0,0,1,6,-143.50068)"/><path d="M376,342.33333c0,0 21.94173,-7.09695 36.19169,-11.28226c14.24996,-4.18531 20.56645,-9.69218 35.30831,-9.71778c14.74185,-0.02559 22.02029,5.47295 36.05118,9.59391c4.82578,1.41737 0.81484,11.94987 0.81484,11.94987z" data-paper-data="{&quot;origPos&quot;:null}" fill="#3590ff" stroke="none" stroke-width="0" transform="matrix(1,0,0,1,6,-143.50068)"/></g></g></svg>