<svg xmlns="http://www.w3.org/2000/svg" xmlns:xlink="http://www.w3.org/1999/xlink" version="1.1" width="12.45455" height="12.72727" viewBox="0,0,12.45455,12.72727"><g><g data-paper-data="{&quot;isPaintingLayer&quot;:true}" fill-rule="nonzero" stroke-linecap="butt" stroke-linejoin="miter" stroke-miterlimit="10" stroke-dasharray="" stroke-dashoffset="0" style="mix-blend-mode: normal"><g><path d="M235.77273,180.5c0,-2.48528 2.01472,-4.5 4.5,-4.5c2.48528,0 4.5,2.01472 4.5,4.5c0,2.48528 -2.01472,4.5 -4.5,4.5c-2.48528,0 -4.5,-2.01472 -4.5,-4.5z" stroke-width="0" fill="#868686" stroke="none" transform="matrix(1,0,0,1,-233.77273,-173.63636)"/><path d="M237.77273,176.40909c0,-1.53133 1.24139,-2.77273 2.77273,-2.77273c1.53133,0 2.77273,1.24139 2.77273,2.77273c0,1.53133 -1.24139,2.77273 -2.77273,2.77273c-1.53133,0 -2.77273,-1.24139 -2.77273,-2.77273z" stroke-width="0" fill="#868686" stroke="none" transform="matrix(1,0,0,1,-233.77273,-173.63636)"/><path d="M240.68182,179.59091c0,-1.53133 1.24139,-2.77273 2.77273,-2.77273c1.53133,0 2.77273,1.24139 2.77273,2.77273c0,1.53133 -1.24139,2.77273 -2.77273,2.77273c-1.53133,0 -2.77273,-1.24139 -2.77273,-2.77273z" stroke-width="0" fill="#868686" stroke="none" transform="matrix(1,0,0,1,-233.77273,-173.63636)"/><path d="M239.13636,183.63636c0,-1.50623 1.22104,-2.72727 2.72727,-2.72727c1.50623,0 2.72727,1.22104 2.72727,2.72727c0,1.50623 -1.22104,2.72727 -2.72727,2.72727c-1.50623,0 -2.72727,-1.22104 -2.72727,-2.72727z" stroke-width="0" fill="#868686" stroke="none" transform="matrix(1,0,0,1,-233.77273,-173.63636)"/><path d="M235.5,183.31818c0,-1.2803 1.03789,-2.31818 2.31818,-2.31818c1.2803,0 2.31818,1.03789 2.31818,2.31818c0,1.2803 -1.03789,2.31818 -2.31818,2.31818c-1.2803,0 -2.31818,-1.03789 -2.31818,-2.31818z" stroke-width="0" fill="#868686" stroke="none" transform="matrix(1,0,0,1,-233.77273,-173.63636)"/><path d="M233.77273,179.5c0,-1.78237 1.4449,-3.22727 3.22727,-3.22727c1.78237,0 3.22727,1.4449 3.22727,3.22727c0,1.78237 -1.4449,3.22727 -3.22727,3.22727c-1.78237,0 -3.22727,-1.4449 -3.22727,-3.22727z" stroke-width="0" fill="#868686" stroke="none" transform="matrix(1,0,0,1,-233.77273,-173.63636)"/></g></g></g></svg>