<svg xmlns="http://www.w3.org/2000/svg" xmlns:xlink="http://www.w3.org/1999/xlink" version="1.1" width="63.38953" height="157.20953" viewBox="0,0,63.38953,157.20953"><g><g data-paper-data="{&quot;isPaintingLayer&quot;:true}" fill-rule="nonzero" stroke-linecap="none" stroke-linejoin="miter" stroke-miterlimit="10" stroke-dasharray="" stroke-dashoffset="0" font-family="none" font-weight="none" font-size="none" text-anchor="none" style="mix-blend-mode: normal"><path d="M 31.7283 49.1072 L 31.7283 116.4042 L 19.6806 155.323 " data-paper-data="{&quot;origPos&quot;:null}" fill="none" stroke="#000000" stroke-width="3.5" stroke-linecap="round"/><path d="M 31.5314 115.3008 L 43.579 155.4595 " fill="none" stroke="#000000" stroke-width="3.5" stroke-linecap="round"/><path d="M 6.633 26.55 C 6.633 12.5772 17.9602 1.25 31.933 1.25 C 45.9058 1.25 57.233 12.5772 57.233 26.55 C 57.233 40.5228 45.9058 51.85 31.933 51.85 C 17.9602 51.85 6.633 40.5228 6.633 26.55 Z " data-paper-data="{&quot;origPos&quot;:null}" fill="#ffffff" stroke="#000000" stroke-width="2.5" stroke-linecap="butt"/><path d="M 26.81 83.7524 C 26.81 83.7524 9.6343 77.6938 12.9076 71.5278 C 15.7764 66.1239 29.7584 59.4309 29.7584 59.4309 " data-paper-data="{&quot;origPos&quot;:null}" fill="none" stroke="#000000" stroke-width="3.5" stroke-linecap="round"/><path d="M 54.9806 77.7024 C 54.9806 77.7024 42.4285 82.0438 39.7709 77.0375 C 36.8483 71.5322 32.2822 59.431 32.2822 59.431 " data-paper-data="{&quot;origPos&quot;:null,&quot;index&quot;:null}" fill="none" stroke="#000000" stroke-width="3.5" stroke-linecap="round"/><g data-paper-data="{&quot;origPos&quot;:null}" stroke-linecap="butt"><path d="M 25.5892 90.1914 L 26.6577 74.1914 L 32.8018 74.1914 L 31.5806 90.1914 Z " data-paper-data="{&quot;origPos&quot;:null}" fill="#646464" stroke="#333333" stroke-width="1"/><path d="M 44.0224 89.0562 L 41.4422 75.0907 L 46.3536 74.6001 L 48.8119 88.5777 Z " data-paper-data="{&quot;origPos&quot;:null,&quot;index&quot;:null,&quot;origRot&quot;:0}" fill="#646464" stroke="#333333" stroke-width="1"/><path d="M 6.2234 81.5199 L 6.2234 70.0921 L 17.8129 70.0921 L 17.8392 74.0151 Z " data-paper-data="{&quot;origPos&quot;:null}" fill="#646464" stroke="#333333" stroke-width="1"/><path d="M228.16118,165.55789v-9.25h40.8181c0,0 0.45794,2.964 0.45794,4.76967c0,1.80426 -0.45794,4.48033 -0.45794,4.48033z" data-paper-data="{&quot;origPos&quot;:null}" fill="#333333" stroke="none" stroke-width="0" transform="matrix(1,0,0,1,-210.62913,-88.46578)"/><path d="M269.28657,162.79185v-3.57143h4.73209v3.57143z" data-paper-data="{&quot;origPos&quot;:null}" fill="#333333" stroke="none" stroke-width="0" transform="matrix(1,0,0,1,-210.62913,-88.46578)"/><path d="M268.52333,163.79185v-5.42857h1.98442v5.42857z" fill="#333333" stroke="none" stroke-width="0" transform="matrix(1,0,0,1,-210.62913,-88.46578)"/><g><path d="M238.55342,156.64899v-2.71428h4.88474v2.71428z" fill="#333333" stroke="none" stroke-width="0" transform="matrix(1,0,0,1,-210.62913,-88.46578)"/><path d="M252.59705,157.36327v-3.42857h4.88474v3.42857z" fill="#333333" stroke="none" stroke-width="0" transform="matrix(1,0,0,1,-210.62913,-88.46578)"/><path d="M 25.024 66.1832 C 25.024 66.1832 25.3096 64.5517 25.3096 63.5075 C 25.3096 62.712 25.024 61.4689 25.024 61.4689 L 49.4477 61.4689 C 49.4477 61.4689 49.162 62.945 49.162 63.8898 C 49.162 64.7848 49.4477 66.1832 49.4477 66.1832 Z " data-paper-data="{&quot;origPos&quot;:null}" fill="#646464" stroke="#333333" stroke-width="1"/></g></g><path d="M219.64512,104.90209l2.33333,-3.66667c0,0 15.87229,-0.5 26.03137,-0.5c6.02382,0 15.4353,0.5 15.4353,0.5l2,3.66667c0,0 -10.93582,-0.5 -17.9353,-0.5c-10.87456,0 -27.8647,0.5 -27.8647,0.5z" data-paper-data="{&quot;origPos&quot;:null}" fill="#000000" stroke="none" stroke-width="0" stroke-linecap="butt" transform="matrix(1,0,0,1,-210.62913,-88.46578)"/><path d="M244.27283,128.64407l6.98189,-7.04818l7.63897,6.43582l-7.49296,-3.43937z" data-paper-data="{&quot;origPos&quot;:null,&quot;origRot&quot;:0}" fill="#000000" stroke="none" stroke-width="NaN" stroke-linecap="butt" transform="matrix(1,0,0,1,-210.62913,-88.46578)"/><path d="M239.97807,112.90866c0,-2.66149 2.15756,-4.81905 4.81905,-4.81905c2.66149,0 4.81905,2.15756 4.81905,4.81905c0,2.66149 -2.15756,4.81905 -4.81905,4.81905c-2.66149,0 -4.81905,-2.15756 -4.81905,-4.81905z" data-paper-data="{&quot;origPos&quot;:null}" fill="#000000" stroke="none" stroke-width="0" stroke-linecap="butt" transform="matrix(1,0,0,1,-210.62913,-88.46578)"/><path d="M252.8114,112.74199c0,-2.66149 2.15756,-4.81905 4.81905,-4.81905c2.66149,0 4.81905,2.15756 4.81905,4.81905c0,2.66149 -2.15756,4.81905 -4.81905,4.81905c-2.66149,0 -4.81905,-2.15756 -4.81905,-4.81905z" data-paper-data="{&quot;origPos&quot;:null}" fill="#000000" stroke="none" stroke-width="0" stroke-linecap="butt" transform="matrix(1,0,0,1,-210.62913,-88.46578)"/><path d="M 38.4616 20.8406 L 29.3346 17.1898 " data-paper-data="{&quot;origPos&quot;:null}" fill="none" stroke="#000000" stroke-width="2.5" stroke-linecap="round"/><path d="M 51.2949 17.0232 L 42.1679 20.674 " data-paper-data="{&quot;origPos&quot;:null,&quot;index&quot;:null}" fill="none" stroke="#000000" stroke-width="2.5" stroke-linecap="round"/><path d="M 28.2791 52.2031 L 30.2478 44.2698 L 40.6653 38.1622 L 50.5795 42.3367 L 53.6108 47.27 Z " data-paper-data="{&quot;origRot&quot;:0,&quot;origPos&quot;:null}" fill="#d8d8d8" stroke="#000000" stroke-width="2" stroke-linecap="butt"/><g data-paper-data="{&quot;origPos&quot;:null}" stroke-linecap="butt"><path d="M267.04149,133.18081c0,2.38658 -1.56619,4.32129 -3.49818,4.32129c-1.93199,0 -3.49818,-1.93471 -3.49818,-4.32129c0,-2.38658 1.56619,-4.32129 3.49818,-4.32129c1.93199,0 3.49818,1.93471 3.49818,4.32129z" data-paper-data="{&quot;origPos&quot;:null}" fill="#000000" stroke="none" stroke-width="NaN" transform="matrix(1,0,0,1,-210.62913,-88.46578)"/><path d="M 51.0622 42.7602 L 56.3536 30.0462 C 56.3536 30.0462 58.5896 29.3872 59.4564 29.812 C 60.3449 30.2476 61.2922 32.2509 61.2922 32.2509 L 55.4129 45.9203 C 55.4129 45.9203 54.0713 43.2569 53.1185 42.7751 C 52.0292 42.2244 51.0622 42.7602 51.0622 42.7602 Z " data-paper-data="{&quot;origPos&quot;:null}" fill="#d8d8d8" stroke="#000000" stroke-width="1.5"/></g><path d="M 1.0063 38.3779 C 1.0063 38.3779 1.0349 35.72 1.6932 34.5308 C 2.4713 33.1251 4.6871 31.7288 4.6871 31.7288 L 30.759 46.1613 C 30.759 46.1613 28.8624 47.7809 28.2886 48.8176 C 27.4259 50.3759 27.0782 52.8105 27.0782 52.8105 L 27.0782 52.8105 Z " data-paper-data="{&quot;origRot&quot;:0,&quot;origPos&quot;:null}" fill="#d8d8d8" stroke="#000000" stroke-width="2" stroke-linecap="butt"/><path d="M243.4697,140.14444c-1.27204,2.29945 -3.49417,3.50472 -4.96327,2.69203c-1.4691,-0.81269 -1.62884,-3.33559 -0.3568,-5.63505c1.27204,-2.29945 3.49417,-3.50472 4.96327,-2.69203c1.4691,0.81269 1.62884,3.3356 0.3568,5.63505z" data-paper-data="{&quot;origRot&quot;:0,&quot;origPos&quot;:null}" fill="#000000" stroke="none" stroke-width="0" stroke-linecap="butt" transform="matrix(1,0,0,1,-210.62913,-88.46578)"/></g></g></svg>