<svg xmlns="http://www.w3.org/2000/svg" xmlns:xlink="http://www.w3.org/1999/xlink" version="1.1" width="20.430099487304688" height="50.01430130004883" viewBox="-0.75 -0.75 20.430099487304688 50.01430130004883"><g><g data-paper-data="{&quot;isPaintingLayer&quot;:true}" fill-rule="nonzero" stroke-linecap="none" stroke-linejoin="miter" stroke-miterlimit="10" stroke-dasharray="" stroke-dashoffset="0" font-family="none" font-weight="none" font-size="none" text-anchor="none" style="mix-blend-mode: normal"><g><path d="M 8.6297 16.3774 L 8.6297 36.7389 L 4.9846 48.5143 " data-paper-data="{&quot;origPos&quot;:null}" fill="none" stroke="#000000" stroke-width="1.5" stroke-linecap="round"/><path d="M 8.8727 36.3042 L 12.5179 48.4547 " data-paper-data="{&quot;origPos&quot;:null}" fill="none" stroke="#000000" stroke-width="1.5" stroke-linecap="round"/><path d="M 1.3394 9.4516 C 1.3394 5.224 4.7666 1.7968 8.9942 1.7968 C 13.2219 1.7968 16.649 5.224 16.649 9.4516 C 16.649 13.6793 13.2219 17.1064 8.9942 17.1064 C 4.7666 17.1064 1.3394 13.6793 1.3394 9.4516 Z " data-paper-data="{&quot;origPos&quot;:null}" fill="#d4d4d4" stroke="#000000" stroke-width="1.5" stroke-linecap="butt"/><path d="M 7.6577 7.6291 C 7.6577 6.8238 8.3105 6.171 9.1157 6.171 C 9.921 6.171 10.5738 6.8238 10.5738 7.6291 C 10.5738 8.4343 9.921 9.0871 9.1157 9.0871 C 8.3105 9.0871 7.6577 8.4343 7.6577 7.6291 Z " data-paper-data="{&quot;origPos&quot;:null}" fill="#000000" stroke="none" stroke-width="1.5" stroke-linecap="butt"/><path d="M 11.7888 7.6291 C 11.7888 6.8238 12.4417 6.171 13.2469 6.171 C 14.0522 6.171 14.705 6.8238 14.705 7.6291 C 14.705 8.4343 14.0522 9.0871 13.2469 9.0871 C 12.4416 9.0871 11.7888 8.4343 11.7888 7.6291 Z " data-paper-data="{&quot;origPos&quot;:null}" fill="#000000" stroke="none" stroke-width="1.5" stroke-linecap="butt"/><path d="M 7.724 5.5092 L 10.4854 6.6138 " data-paper-data="{&quot;origPos&quot;:null}" fill="none" stroke="#000000" stroke-width="1.5" stroke-linecap="round"/><path d="M 14.1306 5.5198 L 12.0319 6.5139 " data-paper-data="{&quot;origPos&quot;:null}" fill="none" stroke="#000000" stroke-width="1.5" stroke-linecap="round"/><path d="M 3.4857 27.8431 L 8.2354 18.8959 " data-paper-data="{&quot;origPos&quot;:null}" fill="none" stroke="#000000" stroke-width="1.5" stroke-linecap="round"/><path d="M 8.8982 18.8959 L 13.6479 27.8431 " data-paper-data="{&quot;origPos&quot;:null,&quot;index&quot;:null}" fill="none" stroke="#000000" stroke-width="1.5" stroke-linecap="round"/><path d="M 6.3028 28.3065 L 1.1593 27.3988 " data-paper-data="{&quot;origPos&quot;:null}" fill="none" stroke="#606060" stroke-width="1.5" stroke-linecap="round"/><path d="M 6.8276 30.1322 L 7.9169 26.6225 L 18.9301 31.2416 Z " data-paper-data="{&quot;origPos&quot;:null}" fill="#c2c2c2" stroke="#c2c2c2" stroke-width="1.5" stroke-linecap="butt"/><path d="M 5.7985 30.9287 L 7.5131 25.1801 " data-paper-data="{&quot;origPos&quot;:null}" fill="none" stroke="#606060" stroke-width="1.5" stroke-linecap="round"/><path d="M230.8074,159.54582c0,-4.86701 3.94549,-8.8125 8.8125,-8.8125c1.65323,0 4.431,0.46588 5.78772,1.41059c1.73623,1.20897 2.21641,3.77699 2.21641,3.77699l-10.7143,-0.60776l0.48078,4.66563l11.29513,1.4561c0,0 -1.76478,4.93454 -3.09232,5.79634c-1.83526,1.1914 -3.78536,1.12712 -5.97342,1.12712c-4.86701,0 -8.8125,-3.94549 -8.8125,-8.8125z" data-paper-data="{&quot;origPos&quot;:null}" fill="#505050" stroke="none" stroke-width="0" stroke-linecap="butt" transform="matrix(1,0,0,1,-230.8074,-150.73332)"/><path d="M241.1824,164.23332v-11.75h1.875v11.75z" data-paper-data="{&quot;origPos&quot;:null}" fill="#505050" stroke="none" stroke-width="0" stroke-linecap="butt" transform="matrix(1,0,0,1,-230.8074,-150.73332)"/><path d="M247.19416,161.95106l-1.35893,-6.7823l1.58541,-0.27818l1.35893,6.7823z" data-paper-data="{&quot;origPos&quot;:null,&quot;origRot&quot;:0}" fill="#505050" stroke="none" stroke-width="0" stroke-linecap="butt" transform="matrix(1,0,0,1,-230.8074,-150.73332)"/></g></g></g></svg>