<svg xmlns="http://www.w3.org/2000/svg" xmlns:xlink="http://www.w3.org/1999/xlink" version="1.1" width="7.98312" height="8.33333" viewBox="0,0,7.98312,8.33333"><g><g data-paper-data="{&quot;isPaintingLayer&quot;:true}" fill-rule="nonzero" stroke-linecap="butt" stroke-linejoin="miter" stroke-miterlimit="10" stroke-dasharray="" stroke-dashoffset="0" style="mix-blend-mode: normal"><path d="M236.84268,179.85012c0,-0.83412 -1.12966,-1.58878 -0.75989,-2.18131c0.3323,-0.53249 1.31945,-0.23058 2.29957,-0.19071c0.4614,0.01877 1.03944,-1.64476 1.52698,-1.64476c0.51516,0 0.9505,1.72258 1.40602,1.8203c1.02552,0.22002 2.08205,-0.78605 2.25577,0.09223c0.10758,0.54393 -0.66178,1.39837 -0.66178,2.0443c0,0.66716 1.59954,1.58119 0.90935,2.10793c-0.52647,0.4018 -1.97182,0.24799 -2.37602,0.65555c-0.77528,0.78172 -0.78122,1.61302 -1.53333,1.61302c-0.50405,0 -0.64512,-1.39132 -1.30905,-1.67601c-1.00595,-0.43135 -2.05454,0.12421 -2.38351,-0.38404c-0.48479,-0.74899 0.6259,-1.24439 0.6259,-2.2565z" stroke-width="0" fill="#ff612d" stroke="none" transform="matrix(1,0,0,1,-236.00844,-175.83334)"/></g></g></svg>