<svg xmlns="http://www.w3.org/2000/svg" xmlns:xlink="http://www.w3.org/1999/xlink" version="1.1" width="32.53226" height="31.96537" viewBox="0,0,32.53226,31.96537"><defs><radialGradient cx="239.90302" cy="182.32792" r="20.95522" gradientUnits="userSpaceOnUse" id="color-1"><stop offset="0" stop-color="#ffaa83"/><stop offset="1" stop-color="#ff6549"/></radialGradient><radialGradient cx="16.0759" cy="18.394" r="20.9552" gradientUnits="userSpaceOnUse" id="color-1-,0,0,1,-223.82717,-163.9339"><stop offset="0" stop-color="#ffaa83"/><stop offset="1" stop-color="#ff6549"/></radialGradient></defs><g><g data-paper-data="{&quot;isPaintingLayer&quot;:true}" fill-rule="nonzero" stroke-linejoin="miter" stroke-miterlimit="10" stroke-dasharray="" stroke-dashoffset="0" style="mix-blend-mode: normal"><g><path d="M 16.269 31.3404 C 14.9461 31.3404 12.4454 30.8732 12.4454 30.8732 L 12.4516 30.7713 L 12.0217 29.9836 L 12.355 29.2775 L 10.8099 28.1393 C 10.8099 28.1393 9.2479 27.3568 8.106 27.3568 C 7.4632 27.3568 6.9121 27.646 6.6793 28.0574 C 3.0603 25.2314 0.7307 20.8379 0.625 15.9043 C 0.3797 4.4557 10.6472 1.495 10.6472 1.495 L 13.2428 2.6802 L 16.0593 1.048 C 16.0593 1.048 16.6218 1.1443 16.9224 1.1443 C 17.6265 1.1443 18.272 0.9592 18.774 0.6515 C 25.8378 1.6975 31.3196 7.1199 31.8679 14.2676 C 31.0796 14.4468 30.5068 16.0825 30.5068 16.0825 C 30.5068 16.0825 31.0647 17.5902 31.8371 17.7763 C 31.0583 25.5829 24.3855 31.3404 16.269 31.3404 Z " data-paper-data="{&quot;origPos&quot;:null}" fill="url(#color-1-,0,0,1,-223.82717,-163.9339)" stroke-linecap="butt" stroke-width="1.25" stroke="#c23e2f"/><path d="M 19.3592 9.5734 L 20.7776 6.6538 L 25.2427 6.4623 L 25.9258 4.3095 " data-paper-data="{&quot;origPos&quot;:null}" fill="none" stroke-linecap="round" stroke-width="1.25" stroke="#c23e2f"/><path d="M 17.8141 5.5899 L 20.7111 6.5858 " data-paper-data="{&quot;origPos&quot;:null}" fill="none" stroke-linecap="round" stroke-width="1.25" stroke="#c23e2f"/><path d="M 15.4896 23.1371 L 20.9042 23.3734 L 22.5911 25.9231 L 21.6892 27.2156 L 22.2562 29.9177 " data-paper-data="{&quot;origPos&quot;:null}" fill="none" stroke-linecap="round" stroke-width="1.25" stroke="#c23e2f"/><path d="M 21.3814 20.5331 L 20.9395 23.1371 " data-paper-data="{&quot;origPos&quot;:null}" fill="none" stroke-linecap="round" stroke-width="1.25" stroke="#c23e2f"/><path d="M 25.2111 25.0901 L 22.5597 25.5241 " data-paper-data="{&quot;origPos&quot;:null}" fill="none" stroke-linecap="round" stroke-width="1.25" stroke="#c23e2f"/><path d="M 11.3654 22.7031 L 8.1249 17.4951 " data-paper-data="{&quot;origPos&quot;:null}" fill="none" stroke-linecap="round" stroke-width="1.25" stroke="#c23e2f"/><path d="M 8.5668 22.3776 L 10.0397 20.7501 " data-paper-data="{&quot;origPos&quot;:null}" fill="none" stroke-linecap="round" stroke-width="1.25" stroke="#c23e2f"/><path d="M 11.66 18.0376 L 8.8614 18.5801 " data-paper-data="{&quot;origPos&quot;:null}" fill="none" stroke-linecap="round" stroke-width="1.25" stroke="#c23e2f"/><path d="M 23.5908 8.3811 L 23.1489 6.9706 " data-paper-data="{&quot;origPos&quot;:null}" fill="none" stroke-linecap="round" stroke-width="1.25" stroke="#c23e2f"/><path d="M 10.7762 5.2346 L 13.5748 4.1496 " data-paper-data="{&quot;origPos&quot;:null}" fill="none" stroke-linecap="round" stroke-width="1.25" stroke="#c23e2f"/><path d="M 12.3964 4.8006 L 13.5748 6.1026 " data-paper-data="{&quot;origPos&quot;:null}" fill="none" stroke-linecap="round" stroke-width="1.25" stroke="#c23e2f"/><path d="M 25.971 21.5239 L 28.1921 19.8167 " data-paper-data="{&quot;origPos&quot;:null}" fill="none" stroke-linecap="round" stroke-width="1.25" stroke="#c23e2f"/><path d="M 24.9088 17.1847 L 25.2411 19.028 L 24.8122 20.1012 " data-paper-data="{&quot;origPos&quot;:null}" fill="none" stroke-linecap="round" stroke-width="1.25" stroke="#c23e2f"/><path d="M 4.4725 11.7049 L 7.0516 11.2393 " data-paper-data="{&quot;origPos&quot;:null,&quot;index&quot;:null,&quot;origRot&quot;:0}" fill="none" stroke-linecap="round" stroke-width="1.25" stroke="#c23e2f"/><path d="M 5.0104 9.6559 L 10.5538 13.6743 " data-paper-data="{&quot;origPos&quot;:null,&quot;index&quot;:null,&quot;origRot&quot;:0}" fill="none" stroke-linecap="round" stroke-width="1.25" stroke="#c23e2f"/><path d="M 11.7094 9.334 L 11.1221 11.1899 L 9.0336 12.2255 " data-paper-data="{&quot;origPos&quot;:null,&quot;index&quot;:null,&quot;origRot&quot;:0}" fill="none" stroke-linecap="round" stroke-width="1.25" stroke="#c23e2f"/></g></g></g></svg>