<svg version="1.1" xmlns="http://www.w3.org/2000/svg" xmlns:xlink="http://www.w3.org/1999/xlink" width="54.8056" height="161.38613" viewBox="0,0,54.8056,161.38613"><g transform="translate(-216.26907,-85.09315)"><g data-paper-data="{&quot;isPaintingLayer&quot;:true}" fill-rule="nonzero" stroke-linejoin="miter" stroke-miterlimit="10" stroke-dasharray="" stroke-dashoffset="0" style="mix-blend-mode: normal"><path d="M241.61438,138.26348v67.297l-12.0477,38.9188" data-paper-data="{&quot;origPos&quot;:null}" fill="none" stroke="#990000" stroke-width="4" stroke-linecap="round"/><path d="M254.46518,244.28248l-12.0477,-40.1587" fill="none" stroke="#990000" stroke-width="4" stroke-linecap="round"/><path d="M217.51908,115.17298c0,-13.9728 11.3272,-25.3 25.3,-25.3c13.9728,0 25.3,11.3272 25.3,25.3c0,13.9728 -11.3272,25.3 -25.3,25.3c-13.9728,0 -25.3,-11.3272 -25.3,-25.3z" data-paper-data="{&quot;origPos&quot;:null}" fill="#990000" stroke="#990000" stroke-width="2.5" stroke-linecap="butt"/><path d="M224.61278,176.15868l15.6984,-29.5714" data-paper-data="{&quot;origPos&quot;:null}" fill="none" stroke="#990000" stroke-width="4" stroke-linecap="round"/><path d="M258.19998,176.15868l-15.6984,-29.5714" data-paper-data="{&quot;origPos&quot;:null,&quot;index&quot;:null}" fill="none" stroke="#990000" stroke-width="4" stroke-linecap="round"/><path d="M228.76481,127.92229v-16.18846l10.79231,7.03846l12.6465,-2.76296l13.1612,1.35526c0,0 0.03762,7.34505 -3.98846,12.2c-4.02608,4.85495 -10.32284,10.28986 -16.90203,9.18918c-3.81108,-0.63758 -15.7095,-10.83149 -15.7095,-10.83149z" data-paper-data="{&quot;origPos&quot;:null}" fill="#d4d4d4" stroke="none" stroke-width="0" stroke-linecap="butt"/><path d="M245.51478,127.00258h11.5" data-paper-data="{&quot;origPos&quot;:null}" fill="none" stroke="#000000" stroke-width="1.5" stroke-linecap="round"/><path d="M252.86513,114.92215l-0.66002,-6.27768l13.07137,-5.26273l-0.84457,12.73913z" data-paper-data="{&quot;origPos&quot;:null,&quot;index&quot;:null,&quot;origRot&quot;:0}" fill="#d4d4d4" stroke="#000000" stroke-width="0" stroke-linecap="butt"/><path d="M238.84968,116.37089l-1.64458,-13.93914l13.87137,6.46273l-0.66002,6.27768z" data-paper-data="{&quot;origPos&quot;:null,&quot;index&quot;:null,&quot;origRot&quot;:0}" fill="#d4d4d4" stroke="#000000" stroke-width="0" stroke-linecap="butt"/><g data-paper-data="{&quot;origPos&quot;:null}"><path d="M239.81831,110.51585c0,-2.66149 2.15756,-4.81905 4.81905,-4.81905c2.66149,0 4.81905,2.15756 4.81905,4.81905c0,2.66149 -2.15756,4.81905 -4.81905,4.81905c-2.66149,0 -4.81905,-2.15756 -4.81905,-4.81905z" data-paper-data="{&quot;origPos&quot;:null}" fill="#000000" stroke="none" stroke-width="0" stroke-linecap="butt"/><path d="M253.47228,110.51585c0,-2.66148 2.15757,-4.81905 4.81905,-4.81905c2.66148,0 4.81905,2.15757 4.81905,4.81905c0,2.66148 -2.15757,4.81905 -4.81905,4.81905c-2.66148,0 -4.81905,-2.15757 -4.81905,-4.81905z" data-paper-data="{&quot;origPos&quot;:null}" fill="#000000" stroke="none" stroke-width="0" stroke-linecap="butt"/><path d="M240.03738,103.50948l9.127,3.6508" data-paper-data="{&quot;origPos&quot;:null}" fill="none" stroke="#000000" stroke-width="2.5" stroke-linecap="round"/><path d="M254.27548,106.83008l6.9365,-3.2857" data-paper-data="{&quot;origPos&quot;:null}" fill="none" stroke="#000000" stroke-width="2.5" stroke-linecap="round"/></g><path d="M226.90948,115.13268l-6.8596,-12.9745l7.5866,7.9663l1.2725,-1.356l8.1839,10.1131l-3.5772,2.2395l-5.1787,-7.5535l-1.4275,1.5652" data-paper-data="{&quot;origPos&quot;:null,&quot;origRot&quot;:0}" fill="#faec00" stroke="none" stroke-width="0.66342" stroke-linecap="butt"/><path d="M244.85693,142.91265l6.67742,11.80645" fill="none" stroke="#4afff6" stroke-width="1.5" stroke-linecap="round"/><path d="M235.69161,164.43281l-6.3871,11.80645" fill="none" stroke="#faec00" stroke-width="1.5" stroke-linecap="round"/><path d="M245.73166,175.5941v10.64516" fill="none" stroke="#faec00" stroke-width="1.5" stroke-linecap="round"/><path d="M233.80854,214.1062l-4.16129,11.80645" fill="none" stroke="#4afff6" stroke-width="1.5" stroke-linecap="round"/><path d="M243.72387,224.01346l3,9.19355" fill="none" stroke="#4afff6" stroke-width="1.5" stroke-linecap="round"/><path d="M231.63919,142.48523c0,0 -4.84988,-2.61375 -6.9592,-4.34405c-2.01544,-1.65329 -5.4279,-5.81724 -5.4279,-5.81724" fill="none" stroke="#4afff6" stroke-width="1.5" stroke-linecap="round"/><path d="M256.29241,87.82798c0,0 5.83037,4.73828 8.22223,7.44356c2.28022,2.579 5.81003,8.4274 5.81003,8.4274" fill="none" stroke="#4afff6" stroke-width="1.5" stroke-linecap="round"/><path d="M234.21983,148.16266l-6.67742,11.80645" data-paper-data="{&quot;index&quot;:null}" fill="none" stroke="#faec00" stroke-width="1.5" stroke-linecap="round"/><path d="M262.89725,175.11427l-6.3871,-11.80645" data-paper-data="{&quot;index&quot;:null}" fill="none" stroke="#faec00" stroke-width="1.5" stroke-linecap="round"/><path d="M237.3451,196.11427v-10.64516" data-paper-data="{&quot;index&quot;:null}" fill="none" stroke="#4afff6" stroke-width="1.5" stroke-linecap="round"/><path d="M251.26822,217.1062l4.16129,11.80645" data-paper-data="{&quot;index&quot;:null}" fill="none" stroke="#faec00" stroke-width="1.5" stroke-linecap="round"/><path d="M234.2279,243.83201l3,-9.19355" data-paper-data="{&quot;index&quot;:null}" fill="none" stroke="#faec00" stroke-width="1.5" stroke-linecap="round"/><path d="M268.19967,131.82395c0,0 -3.41245,4.16394 -5.42789,5.81723c-2.10932,1.7303 -6.9592,4.34405 -6.9592,4.34405" data-paper-data="{&quot;index&quot;:null}" fill="none" stroke="#faec00" stroke-width="1.5" stroke-linecap="round"/><path d="M220.02344,96.18377c0,0 5.13955,-5.10291 8.14407,-6.78325c3.15163,-1.76261 10.22048,-3.55737 10.22048,-3.55737" data-paper-data="{&quot;index&quot;:null}" fill="none" stroke="#faec00" stroke-width="1.5" stroke-linecap="round"/></g></g></svg>