<svg version="1.1" xmlns="http://www.w3.org/2000/svg" xmlns:xlink="http://www.w3.org/1999/xlink" width="485.15107" height="85.3387" viewBox="0,0,485.15107,85.3387"><defs><linearGradient x1="412.5016" y1="19.63348" x2="420.84956" y2="61.33373" gradientUnits="userSpaceOnUse" id="color-1"><stop offset="0" stop-color="#00c2f0"/><stop offset="1" stop-color="#880000"/></linearGradient></defs><g transform="translate(3.91215,15.1243)"><g data-paper-data="{&quot;isPaintingLayer&quot;:true}" fill-rule="nonzero" stroke-linejoin="miter" stroke-miterlimit="10" stroke-dasharray="" stroke-dashoffset="0" style="mix-blend-mode: normal"><path d="M12.03233,67.7144v-66.7144h457.3682v66.7144z" data-paper-data="{&quot;origPos&quot;:null}" fill="#635fac" stroke="#35387c" stroke-width="5" stroke-linecap="butt"/><text transform="translate(65.55603,38.01041) scale(0.5,0.5)" font-size="40" xml:space="preserve" fill="#ffffff" fill-rule="nonzero" stroke="none" stroke-width="1" stroke-linecap="butt" stroke-linejoin="miter" stroke-miterlimit="10" stroke-dasharray="" stroke-dashoffset="0" font-family="Serif" font-weight="normal" text-anchor="start" style="mix-blend-mode: normal"><tspan x="0" dy="0">Welcome back, space warrior Wormotron!</tspan></text><g><path d="M50.08641,28.87077c0,13.48043 -11.80817,24.40849 -26.37428,24.40849c-14.56611,0 -26.37428,-10.92806 -26.37428,-24.40849c0,-13.48043 11.80817,-24.40849 26.37428,-24.40849c14.56611,0 26.37428,10.92806 26.37428,24.40849z" data-paper-data="{&quot;origPos&quot;:null}" fill="#ffffff" stroke="#000000" stroke-width="2.5" stroke-linecap="butt"/><path d="M31.41145,65.07396l-2.29341,-11.13944" fill="none" stroke="#000000" stroke-width="2.5" stroke-linecap="round"/><path d="M18.96801,25.43063c0,-1.08207 0.87718,-1.95925 1.95925,-1.95925c1.08207,0 1.95925,0.87718 1.95925,1.95925c0,1.08207 -0.87718,1.95925 -1.95925,1.95925c-1.08207,0 -1.95925,-0.87718 -1.95925,-1.95925z" data-paper-data="{&quot;origPos&quot;:null}" fill="#000000" stroke="none" stroke-width="0.5" stroke-linecap="butt"/><path d="M32.7285,22.15434c0,-1.08207 0.87718,-1.95925 1.95925,-1.95925c1.08207,0 1.95925,0.87718 1.95925,1.95925c0,1.08207 -0.87718,1.95925 -1.95925,1.95925c-1.08207,0 -1.95925,-0.87718 -1.95925,-1.95925z" data-paper-data="{&quot;origPos&quot;:null}" fill="#000000" stroke="none" stroke-width="0.5" stroke-linecap="butt"/><path d="M21.91017,20.18855h-6.22499" data-paper-data="{&quot;origPos&quot;:null}" fill="none" stroke="#000000" stroke-width="1.5" stroke-linecap="round"/><path d="M29.8085,19.18528l4.61879,-3.11266" data-paper-data="{&quot;origPos&quot;:null,&quot;origRot&quot;:0}" fill="none" stroke="#000000" stroke-width="1.5" stroke-linecap="round"/><path d="M32.29319,35.84157c-4.20645,0.81232 -8.26623,-2.15631 -8.22422,-2.50982c0.04201,-0.35351 3.93863,2.81368 8.14509,2.00135c4.20645,-0.81232 8.01211,-4.66351 7.9701,-4.31c-0.04201,0.35351 -3.68451,4.00614 -7.89096,4.81846z" data-paper-data="{&quot;origPos&quot;:null,&quot;origRot&quot;:0}" fill="#000000" stroke="#000000" stroke-width="1.5" stroke-linecap="butt"/><path d="M66.3673,35.60176c2.70921,3.91078 -1.53024,6.79072 -5.54049,9.35042c-1.88968,1.20616 -3.11086,1.64071 -4.91334,2.97366c-0.26321,0.19466 4.06431,11.45742 3.79926,11.64956c-0.48569,0.35209 -5.23817,-10.60845 -5.73127,-10.26683c-2.62319,1.81722 -7.13127,2.54317 -8.37596,5.48155c-1.80927,4.27122 2.65879,9.70583 -1.54157,11.67398c-3.03852,1.42375 -1.53461,-7.51565 -3.44545,-10.27396c-0.4427,-0.63906 -8.06024,5.35716 -8.77101,5.6721c-0.87952,0.38973 -2.92553,-3.19319 -2.39835,-3.9979c0.50704,-0.77394 -2.25327,-3.56484 -1.58196,-4.20158c1.66051,-1.575 9.60012,-0.74489 11.07494,-2.49498c1.71839,-2.03911 5.89961,-5.78058 10.23989,-8.78733c8.16584,-5.65693 15.85997,-8.69184 17.1853,-6.7787z" data-paper-data="{&quot;origPos&quot;:null}" fill="#17ff00" stroke="#434343" stroke-width="1.5" stroke-linecap="butt"/><path d="M53.46449,37.91333l0.50596,-3.60144l7.81756,13.08966l-1.71623,-0.31151" data-paper-data="{&quot;origPos&quot;:null}" fill="none" stroke="#0077ff" stroke-width="1.5" stroke-linecap="round"/><path d="M56.7402,36.1442l0.27183,-3.93938l7.59665,13.49277l-2.36667,-1.6114" data-paper-data="{&quot;origPos&quot;:null}" fill="none" stroke="#0077ff" stroke-width="1.5" stroke-linecap="round"/><path d="M59.7431,35.06422l-1.08097,-6.25317l2.44603,6.05774l4.74755,7.21413l1.99002,2.87263l-4.30379,-1.51983" data-paper-data="{&quot;origPos&quot;:null}" fill="none" stroke="#0077ff" stroke-width="1.5" stroke-linecap="round"/><path d="M62.40809,34.21835l0.63624,-2.6914l5.76238,9.76202l-1.7559,-2.53466" data-paper-data="{&quot;origPos&quot;:null}" fill="none" stroke="#0077ff" stroke-width="1.5" stroke-linecap="round"/><path d="M46.41149,59.11744l-3.27631,2.62104l-12.12234,0.65527" fill="none" stroke="#000000" stroke-width="2.5" stroke-linecap="round"/><path d="M53.61934,53.54771l-3.93156,-0.32763" fill="none" stroke="#000000" stroke-width="2.5" stroke-linecap="round"/><path d="M4.14712,28.8116c0,13.29949 11.41353,20.14929 8.51839,20.14929c-2.89513,0 -13.76049,-6.19453 -13.76049,-19.49402c0,-13.29949 12.50352,-21.45981 15.39865,-21.45981c0,0 0.03368,-1.99584 -0.18376,0.66701c0,0 1.57366,1.43145 1.52944,1.92798c-0.13265,1.48963 -11.50223,4.91006 -11.50223,18.20955z" data-paper-data="{&quot;origPos&quot;:null}" fill="#d6d6d6" stroke="none" stroke-width="0" stroke-linecap="butt"/></g><g data-paper-data="{&quot;index&quot;:null}"><g data-paper-data="{&quot;origPos&quot;:null,&quot;index&quot;:null}" fill="#ab7a00" stroke="#000000" stroke-width="0.5" stroke-linecap="butt"><path d="M467.56238,19.92726c1.94076,0.23701 3.11148,3.72563 2.61485,7.792c-0.49663,4.06639 -2.47254,7.1707 -4.41331,6.93367c-1.94078,-0.23703 -3.1115,-3.72563 -2.61487,-7.79202c0.49663,-4.06639 2.47254,-7.1707 4.41331,-6.93367z" data-paper-data="{&quot;origPos&quot;:null,&quot;origRot&quot;:0}"/><path d="M467.17704,41.02453c-0.49663,4.06639 -2.47254,7.1707 -4.41331,6.93367c-1.94076,-0.23703 -3.11148,-3.72563 -2.61485,-7.79202c0.49663,-4.06639 2.47254,-7.1707 4.41331,-6.93367c1.94076,0.23703 3.11148,3.72565 2.61485,7.79202z" data-paper-data="{&quot;origPos&quot;:null,&quot;origRot&quot;:0}"/><path d="M461.71097,47.02961c1.94219,-0.2251 3.89896,2.89132 4.37056,6.96068c0.4716,4.06936 -0.72056,7.55071 -2.66275,7.77579c-1.94221,0.22508 -3.89896,-2.89133 -4.37056,-6.9607c-0.4716,-4.06936 0.72056,-7.55071 2.66275,-7.77579z" data-paper-data="{&quot;origPos&quot;:null,&quot;origRot&quot;:0}"/></g><path d="M446.74528,31.78105c0,-7.48117 7.56789,-13.54586 16.90337,-13.54586c9.33546,0 11.8092,5.9489 11.8092,13.43007c0,5.65396 2.37385,8.90083 -2.64677,11.50094c-3.29334,1.70556 -5.45363,2.16068 -9.16243,2.16068c-9.33548,0 -16.90337,-6.06469 -16.90337,-13.54586z" data-paper-data="{&quot;origPos&quot;:null}" fill="#ab7a00" stroke="#000000" stroke-width="0.5" stroke-linecap="butt"/><g data-paper-data="{&quot;origPos&quot;:null}" fill="#ab7a00" stroke="#000000" stroke-width="0.5" stroke-linecap="butt"><path d="M469.75692,24.83733c-0.49663,-4.06639 0.67409,-7.55499 2.61485,-7.79202c1.94078,-0.23703 3.91668,2.8673 4.41331,6.93367c0.49661,4.06639 -0.67411,7.55499 -2.61487,7.79202c-1.94078,0.23703 -3.91668,-2.86728 -4.41331,-6.93367z" data-paper-data="{&quot;origPos&quot;:null,&quot;origRot&quot;:0}"/><path d="M475.37192,30.3506c1.94078,-0.23701 3.91668,2.8673 4.41331,6.93367c0.49663,4.06639 -0.67409,7.55499 -2.61485,7.79202c-1.94078,0.23701 -3.91668,-2.86728 -4.41331,-6.93367c-0.49663,-4.06639 0.67409,-7.55499 2.61485,-7.79202z" data-paper-data="{&quot;origPos&quot;:null,&quot;origRot&quot;:0}"/><path d="M473.85258,51.10832c0.4716,-4.06934 2.42837,-7.18575 4.37056,-6.96068c1.94221,0.2251 3.13436,3.70642 2.66275,7.77579c-0.4716,4.06936 -2.42837,7.18577 -4.37056,6.9607c-1.94219,-0.22508 -3.13436,-3.70642 -2.66275,-7.77579z" data-paper-data="{&quot;origPos&quot;:null,&quot;origRot&quot;:0}"/></g><path d="M435.92651,33.23845c0,-3.48839 3.73495,-6.31627 8.34224,-6.31627c4.60729,0 8.34224,2.8279 8.34224,6.31627c0,3.48837 -3.49659,3.93276 -8.10388,3.93276c-4.60729,0 -8.58058,-0.44439 -8.58058,-3.93276z" data-paper-data="{&quot;origPos&quot;:null}" fill="#000000" stroke="#000000" stroke-width="3" stroke-linecap="butt"/><path d="M431.96893,40.8428c-3.55616,-2.84486 -5.34486,-6.05102 -5.71077,-10.01794c-0.16108,-1.74636 13.19068,10.98265 23.04842,10.42722c9.85774,-0.55543 23.70748,-15.31568 23.86856,-13.56932c0,0 1.05554,5.44432 -2.78855,9.49832c-4.04831,4.26936 -8.60414,9.40437 -18.46188,9.9598c-8.25258,0.465 -14.17368,-1.67251 -19.95578,-6.29808z" data-paper-data="{&quot;origPos&quot;:null,&quot;origRot&quot;:0}" fill="#c3c3c3" stroke="none" stroke-width="0" stroke-linecap="butt"/><path d="M456.86479,42.6734c-0.70848,-0.0966 -0.61188,-0.8051 -0.61188,-0.8051l0.00733,-0.47265c0.17642,-0.8821 0.41514,-1.67604 0.41514,-2.57694c0,-0.09038 0.01679,-0.17683 0.04737,-0.25644c0.0628,-0.18481 0.20884,-0.40888 0.54853,-0.45145c-0.03551,-0.08377 -0.04914,-0.14279 -0.04914,-0.14279l-0.02289,-0.43933c0,-2.07976 -0.8836,-3.66273 -1.40341,-5.74194c0,0 -0.21678,-0.86712 0.65034,-1.0839c0.86712,-0.21678 1.0839,0.65034 1.0839,0.65034c0.54348,2.17391 1.45679,3.90299 1.45679,6.17552l-0.02289,0.03738c0,0 0.20098,0.87091 -0.66994,1.07189v0c-0.06889,0.01591 -0.1336,0.0251 -0.19434,0.02855l0.24068,0.6017l-0.23488,0.09396v0.31462h-0.05747c-0.08512,0.67025 -0.24936,1.31887 -0.38545,1.99936l0.00733,0.38541c0,0 -0.0966,0.70848 -0.8051,0.61188z" data-paper-data="{&quot;origPos&quot;:null}" fill="#000000" stroke="none" stroke-width="0.5" stroke-linecap="butt"/><path d="M430.38989,35.04341c0.02965,-0.93321 0.03802,-1.80681 -0.24955,-2.74071c-0.28984,-0.16785 -0.34314,-0.53039 -0.34314,-0.53039l-0.11392,-0.30695c-0.5172,-1.55158 -0.28394,-2.96466 -0.59485,-4.51919c0,0 -0.14022,-0.70117 0.56093,-0.84141c0.70117,-0.14022 0.84141,0.56093 0.84141,0.56093c0.27108,1.35539 0.1029,2.62467 0.42966,3.93544c0.23216,0.13036 0.24812,0.37253 0.24812,0.37253l0.14302,0.35751c0.66663,1.68063 0.48017,3.16387 0.48017,4.91338c0,0 0,0.11706 -0.04737,0.25644c-0.06971,0.20511 -0.24196,0.4586 -0.6677,0.4586c-0.42576,0 -0.59801,-0.25349 -0.6677,-0.4586c-0.0058,-0.01509 -0.01111,-0.03041 -0.01589,-0.04596l-0.42382,-1.27143l0.4206,-0.1402z" data-paper-data="{&quot;origPos&quot;:null}" fill="#000000" stroke="none" stroke-width="0.5" stroke-linecap="butt"/><path d="M450.10605,0.10047c14.5343,0 26.31668,10.90421 26.31668,24.35519c0,13.45101 -11.78238,24.35519 -26.31668,24.35519c-14.5343,0 -26.31668,-10.90421 -26.31668,-24.35519c0,-13.45101 11.78238,-24.35519 26.31668,-24.35519z" data-paper-data="{&quot;origPos&quot;:null}" fill="#ffffff" stroke="#000000" stroke-width="1.5" stroke-linecap="butt"/><path d="M469.62835,24.39663c0,-13.27046 -11.34475,-16.68341 -11.47711,-18.16979c-0.04411,-0.49545 1.5261,-1.92377 1.5261,-1.92377c-0.21697,-2.65703 -0.18336,-0.66555 -0.18336,-0.66555c2.8888,0 15.36501,8.14251 15.36501,21.41295c0,13.27046 -10.84165,19.45146 -13.73045,19.45146c-2.8888,0 8.49979,-6.83484 8.49979,-20.10529z" data-paper-data="{&quot;origPos&quot;:null}" fill="#d6d6d6" stroke="none" stroke-width="0" stroke-linecap="butt"/><path d="M454.05902,22.58037c-1.28298,0 -2.32305,-1.04005 -2.32305,-2.32305c0,-1.28298 1.04005,-2.32305 2.32305,-2.32305c1.28298,0 2.32305,1.04005 2.32305,2.32305c0,1.28298 -1.04005,2.32305 -2.32305,2.32305z" data-paper-data="{&quot;origPos&quot;:null}" fill="#000000" stroke="none" stroke-width="0.5" stroke-linecap="butt"/><path d="M437.20659,21.58903c-1.28298,0 -2.32305,-1.04005 -2.32305,-2.32305c0,-1.28298 1.04005,-2.32305 2.32305,-2.32305c1.28298,0 2.32305,1.04005 2.32305,2.32305c0,1.28298 -1.04005,2.32305 -2.32305,2.32305z" data-paper-data="{&quot;origPos&quot;:null}" fill="#000000" stroke="none" stroke-width="0.5" stroke-linecap="butt"/><path d="M445.82547,33.44021c0.10983,0.00424 0.17166,0.02423 0.26883,0.07559c0.29151,0.15411 1.42691,3.14142 1.42691,3.14142c-1.29227,2.01694 -4.22549,2.41001 -6.62398,2.11965c-1.17913,-0.14273 -1.70962,0.06176 -2.90658,-0.51357c-2.73254,-1.31337 -5.26237,-4.69378 -2.57053,-4.36792c0,0 3.9205,1.81678 6.08676,1.64523z" data-paper-data="{&quot;origPos&quot;:null,&quot;index&quot;:null,&quot;origRot&quot;:0}" fill="#000000" stroke="#000000" stroke-width="2" stroke-linecap="butt"/><path d="M463.14041,30.17829l-0.21549,-6.89578" data-paper-data="{&quot;origPos&quot;:null}" fill="none" stroke="#000000" stroke-width="0.5" stroke-linecap="round"/><path d="M460.33902,30.82475l-0.86198,-7.32677" data-paper-data="{&quot;origPos&quot;:null}" fill="none" stroke="#000000" stroke-width="0.5" stroke-linecap="round"/><path d="M457.75309,26.08393l7.54226,-1.72395" data-paper-data="{&quot;origPos&quot;:null}" fill="none" stroke="#000000" stroke-width="0.5" stroke-linecap="round"/><path d="M464.21788,27.37686l-6.0338,1.93943" data-paper-data="{&quot;origPos&quot;:null}" fill="none" stroke="#000000" stroke-width="0.5" stroke-linecap="round"/><path d="M429.73899,27.16135v-4.09437" data-paper-data="{&quot;origPos&quot;:null}" fill="none" stroke="#000000" stroke-width="0.5" stroke-linecap="round"/><path d="M427.58406,27.37686v-3.87888" data-paper-data="{&quot;origPos&quot;:null}" fill="none" stroke="#000000" stroke-width="0.5" stroke-linecap="round"/><path d="M430.60096,24.14448l-4.09437,1.29295" data-paper-data="{&quot;origPos&quot;:null}" fill="none" stroke="#000000" stroke-width="0.5" stroke-linecap="round"/><path d="M455.38267,46.34024l-0.43099,-3.23239" data-paper-data="{&quot;origPos&quot;:null}" fill="none" stroke="#000000" stroke-width="0.5" stroke-linecap="round"/><path d="M453.44324,45.69378l3.23239,-1.29295" data-paper-data="{&quot;origPos&quot;:null}" fill="none" stroke="#000000" stroke-width="0.5" stroke-linecap="round"/><path d="M433.82752,13.16833l6.14115,-2.04018" data-paper-data="{&quot;origPos&quot;:null,&quot;origRot&quot;:0}" fill="none" stroke="#000000" stroke-width="0.5" stroke-linecap="round"/><g data-paper-data="{&quot;origRot&quot;:0,&quot;origPos&quot;:null}" fill="#8b4100" stroke-width="0.5"><path d="M438.26345,-0.21466c2.91741,-8.04441 6.68064,-17.90058 22.51596,-13.62618c15.83532,4.2744 19.35975,14.65434 16.44237,22.69875c-1.83733,5.06621 1.69698,10.06961 -3.47804,11.68953c-8.58378,2.68694 -14.1466,-1.58209 -22.85103,-3.93165c-9.85703,-2.66068 -27.67818,-8.75766 -32.98756,-15.71255c-2.74704,-3.59841 18.99086,2.65263 20.35828,-1.11789z" data-paper-data="{&quot;origPos&quot;:null,&quot;origRot&quot;:0}" stroke="#000000" stroke-linecap="butt"/><path d="M458.25077,18.82068l-19.88647,-18.27928" data-paper-data="{&quot;origPos&quot;:null}" stroke="#480000" stroke-linecap="round"/></g><path d="M446.82439,50.18828l0.47577,14.511" fill="none" stroke="#000000" stroke-width="2" stroke-linecap="round"/><path d="M445.1592,55.89752l-13.08369,2.85462l-13.55946,-12.37004" fill="none" stroke="#000000" stroke-width="1.5" stroke-linecap="round"/><path d="M415.15208,45.00268c-1.85726,-9.27751 -8.78046,-16.42785 -8.96485,-18.73117c-0.09148,-1.14292 0.60893,-1.67401 1.18629,-2.66464c0.25322,-0.43449 3.01136,-2.34789 3.01136,-2.34789c0.07222,-0.82481 1.53761,0.32554 1.27874,1.11199c-0.15082,0.45821 -1.78266,2.12858 -1.50186,2.52084c1.35874,1.89821 1.30709,5.47856 2.86431,3.73946c0.34242,-0.38239 0.98184,-0.87112 0.98184,-0.87112c1.56125,-0.31254 1.24897,-3.99194 2.45638,-5.02992c0.52205,-0.4488 -2.02069,-2.82391 -1.34207,-2.93988c0.74679,-0.12764 1.19869,-1.27978 1.86993,-0.92846c0.43765,0.22907 3.55058,3.86219 3.82942,4.26995c0.71156,1.04053 -3.29172,7.52169 -2.8885,8.716c1.54351,4.5717 1.76566,7.32369 2.71284,12.05504c1.85728,9.27749 3.76371,16.71814 0.08771,17.45404c-3.67599,0.73588 -3.72426,-7.07676 -5.58153,-16.35425z" data-paper-data="{&quot;origPos&quot;:null,&quot;origRot&quot;:0}" fill="url(#color-1)" stroke="#000000" stroke-width="1" stroke-linecap="butt"/></g></g></g></svg>