<svg xmlns="http://www.w3.org/2000/svg" xmlns:xlink="http://www.w3.org/1999/xlink" version="1.1" width="528" height="379" viewBox="0,0,528,379"><g><g data-paper-data="{&quot;isPaintingLayer&quot;:true}" fill-rule="nonzero" stroke-linecap="butt" stroke-linejoin="miter" stroke-miterlimit="10" stroke-dasharray="" stroke-dashoffset="0" style="mix-blend-mode: normal"><path d="M-4,364v-39h489v39z" data-paper-data="{&quot;origPos&quot;:null}" fill="#5fb72c" stroke="#000000" stroke-width="0" transform="matrix(1,0,0,1,22,15)"/><path d="M81,330c0,0 34.4303,-9.59194 55.39235,-18.55603c22.13357,-9.46508 64.11461,-22.09408 106.60765,-21.44397c42.49305,0.65011 60.40612,8.56603 102.46676,24.64263c38.58594,14.74849 60.53324,16.35737 60.53324,16.35737z" data-paper-data="{&quot;origPos&quot;:null}" fill="#5fb72c" stroke="none" stroke-width="0" transform="matrix(1,0,0,1,22,15)"/><path d="M-2.0566,136v-11.39623h108.26415v11.39623z" fill="#664618" stroke="none" stroke-width="0" transform="matrix(1,0,0,1,22,15)"/><path d="M-22,105.61006c0,-12.58792 10.20453,-22.79245 22.79245,-22.79245c12.58792,0 22.79245,10.20453 22.79245,22.79245c0,12.58792 -10.20453,22.79245 -22.79245,22.79245c-12.58792,0 -22.79245,-10.20453 -22.79245,-22.79245z" data-paper-data="{&quot;origPos&quot;:null}" fill="#236719" stroke="none" stroke-width="0" transform="matrix(1,0,0,1,22,15)"/><path d="M-16.30189,67.62264c0,-12.58792 10.20453,-22.79245 22.79245,-22.79245c12.58793,0 22.79245,10.20453 22.79245,22.79245c0,12.58793 -10.20452,22.79245 -22.79245,22.79245c-12.58792,0 -22.79245,-10.20452 -22.79245,-22.79245z" data-paper-data="{&quot;origPos&quot;:null}" fill="#236719" stroke="none" stroke-width="0" transform="matrix(1,0,0,1,22,15)"/><path d="M-21.05031,26.78616c0,-12.58792 10.20453,-22.79245 22.79245,-22.79245c12.58793,0 22.79245,10.20453 22.79245,22.79245c0,12.58793 -10.20452,22.79245 -22.79245,22.79245c-12.58792,0 -22.79245,-10.20452 -22.79245,-22.79245z" data-paper-data="{&quot;origPos&quot;:null}" fill="#236719" stroke="none" stroke-width="0" transform="matrix(1,0,0,1,22,15)"/><path d="M-3.95597,7.79245c0,-12.58792 10.20453,-22.79245 22.79245,-22.79245c12.58793,0 22.79245,10.20453 22.79245,22.79245c0,12.58793 -10.20452,22.79245 -22.79245,22.79245c-12.58792,0 -22.79245,-10.20452 -22.79245,-22.79245z" data-paper-data="{&quot;origPos&quot;:null}" fill="#236719" stroke="none" stroke-width="0" transform="matrix(1,0,0,1,22,15)"/><path d="M376.54286,184v-11.25714h106.94286v11.25714z" data-paper-data="{&quot;origPos&quot;:null,&quot;index&quot;:null}" fill="#664618" stroke="none" stroke-width="0" transform="matrix(1,0,0,1,22,15)"/><path d="M480.67143,128.65238c-12.4343,0 -22.51429,-10.07998 -22.51429,-22.51429c0,-12.43429 10.07998,-22.51429 22.51429,-22.51429c12.4343,0 22.51429,10.07999 22.51429,22.51429c0,12.4343 -10.07998,22.51429 -22.51429,22.51429z" data-paper-data="{&quot;origPos&quot;:null,&quot;index&quot;:null}" fill="#236719" stroke="none" stroke-width="0" transform="matrix(1,0,0,1,22,15)"/><path d="M475.04286,91.12857c-12.4343,0 -22.51429,-10.07998 -22.51429,-22.51429c0,-12.43429 10.07998,-22.51429 22.51429,-22.51429c12.4343,0 22.51429,10.07999 22.51429,22.51429c0,12.4343 -10.07998,22.51429 -22.51429,22.51429z" data-paper-data="{&quot;origPos&quot;:null,&quot;index&quot;:null}" fill="#236719" stroke="none" stroke-width="0" transform="matrix(1,0,0,1,22,15)"/><path d="M479.73333,50.79048c-12.4343,0 -22.51429,-10.07998 -22.51429,-22.51429c0,-12.43429 10.07998,-22.51429 22.51429,-22.51429c12.4343,0 22.51429,10.07999 22.51429,22.51429c0,12.4343 -10.07998,22.51429 -22.51429,22.51429z" data-paper-data="{&quot;origPos&quot;:null,&quot;index&quot;:null}" fill="#236719" stroke="none" stroke-width="0" transform="matrix(1,0,0,1,22,15)"/><path d="M462.84762,32.02857c-12.4343,0 -22.51429,-10.07998 -22.51429,-22.51429c0,-12.43429 10.07998,-22.51429 22.51429,-22.51429c12.4343,0 22.51429,10.07999 22.51429,22.51429c0,12.4343 -10.07998,22.51429 -22.51429,22.51429z" data-paper-data="{&quot;origPos&quot;:null,&quot;index&quot;:null}" fill="#236719" stroke="none" stroke-width="0" transform="matrix(1,0,0,1,22,15)"/><path d="M483.48571,172.74286c-12.4343,0 -22.51429,-10.07998 -22.51429,-22.51429c0,-12.4343 10.07998,-22.51429 22.51429,-22.51429c12.4343,0 22.51429,10.07998 22.51429,22.51429c0,12.4343 -10.07998,22.51429 -22.51429,22.51429z" data-paper-data="{&quot;origPos&quot;:null,&quot;index&quot;:null}" fill="#236719" stroke="none" stroke-width="0" transform="matrix(1,0,0,1,22,15)"/></g></g></svg>