<svg xmlns="http://www.w3.org/2000/svg" xmlns:xlink="http://www.w3.org/1999/xlink" version="1.1" width="11.3" height="5.70504" viewBox="0,0,11.3,5.70504"><g><g data-paper-data="{&quot;isPaintingLayer&quot;:true}" fill-rule="nonzero" stroke-linecap="butt" stroke-linejoin="miter" stroke-miterlimit="10" stroke-dasharray="" stroke-dashoffset="0" style="mix-blend-mode: normal"><path d="M231.45,180c0,0 6.09594,-2.95252 7.94748,-2.95252c1.85154,0 3.35252,1.10098 3.35252,2.95252c0,1.85154 -1.50098,2.75252 -3.35252,2.75252c-1.85154,0 -7.94748,-2.75252 -7.94748,-2.75252z" fill="#ffffff" stroke-width="0" stroke="none" transform="matrix(1,0,0,1,-231.45,-177.04748)"/><path d="M237.86364,180c0,-1.17988 0.95648,-2.13636 2.13636,-2.13636c1.17988,0 2.13636,0.95648 2.13636,2.13636c0,1.17988 -0.95648,2.13636 -2.13636,2.13636c-1.17988,0 -2.13636,-0.95648 -2.13636,-2.13636z" fill="#ff0000" stroke-width="0" stroke="none" transform="matrix(1,0,0,1,-231.45,-177.04748)"/></g></g></svg>