<svg version="1.1" xmlns="http://www.w3.org/2000/svg" xmlns:xlink="http://www.w3.org/1999/xlink" width="80.40546" height="178.14891" viewBox="0,0,80.40546,178.14891"><defs><linearGradient x1="242.83332" y1="89.96349" x2="242.83332" y2="140.56349" gradientUnits="userSpaceOnUse" id="color-1"><stop offset="0" stop-color="#b27723"/><stop offset="1" stop-color="#a26c20"/></linearGradient><radialGradient cx="227.50836" cy="114.91668" r="15.2" gradientUnits="userSpaceOnUse" id="color-2"><stop offset="0" stop-color="#4aff3d"/><stop offset="1" stop-color="#4aff3d" stop-opacity="0"/></radialGradient></defs><g transform="translate(-201.65052,-68.91776)"><g data-paper-data="{&quot;isPaintingLayer&quot;:true}" fill-rule="nonzero" stroke-linejoin="miter" stroke-miterlimit="10" stroke-dasharray="" stroke-dashoffset="0" style="mix-blend-mode: normal"><path d="M220.32539,153.12079c-0.43473,-1.67767 -2.10661,-2.96386 -2.10661,-2.96386c0,0 2.84052,0.1585 4.28938,1.45995c0.7224,0.6489 2.22815,0.88734 2.22815,0.88734l-2.75057,2.16433c0,0 -1.40958,-0.58006 -1.66034,-1.54775z" data-paper-data="{&quot;index&quot;:null}" fill="#a26c20" stroke="none" stroke-width="0" stroke-linecap="butt"/><path d="M216.46627,149.72999c1.62972,-0.78129 3.01829,0.69415 3.01829,0.69415c0,0 0.28074,2.00656 -1.34898,2.78785c-1.62972,0.7813 -4.55274,0.04148 -4.55274,0.04148c0,0 1.25371,-2.74219 2.88343,-3.52348z" data-paper-data="{&quot;index&quot;:null}" fill="#0ed600" stroke="none" stroke-width="0" stroke-linecap="butt"/><path d="M248.57352,154.66669c0,0 1.3849,1.473 1.6304,3.2898c0.345,2.5529 0.1196,10.0852 0.1196,10.0852" data-paper-data="{&quot;index&quot;:null}" fill="none" stroke="#0dc200" stroke-width="1" stroke-linecap="round"/><path d="M254.6032,97.98487c0,0 5.75213,-2.64534 7.41249,-9.01432c0.24815,-0.9519 -4.20734,-2.38835 -4.47929,-2.6564c-0.27194,-0.26805 0.15771,-0.96564 0.15771,-0.96564c0,0 4.66047,1.02745 4.80973,-0.94641c0.0623,-0.82386 1.27938,-2.23981 1.26259,-3.6841c-0.0168,-1.44429 -0.57959,-2.31368 -1.34836,-3.69111c-1.03987,-1.86316 -1.00232,-3.31853 -1.00232,-3.31853c0,0 0.87877,1.26945 2.10153,2.12638c0.17023,0.1193 1.26677,0.71933 1.60438,1.00467c0.45978,0.38859 1.84765,-2.95021 2.40382,-2.55216c0.58766,0.42059 -0.47612,4.20494 -0.06421,4.24092c1.23777,0.10813 3.29879,-0.38979 4.96261,-0.568c2.89534,-0.31012 3.63385,4.29743 3.63385,4.29743c0,0 -2.53142,-1.48922 -3.32603,-1.39223c-0.79462,0.09699 -2.242,0.68132 -2.0688,1.4741c0.35903,1.64348 2.53066,2.47724 3.45007,3.41051c0.22392,0.22729 -0.00743,0.79489 -0.02506,0.9555c-0.09713,0.88486 -3.82978,-0.64001 -3.84886,-0.45743c-0.36559,3.49905 -2.40983,5.95572 -3.05683,7.91263c-1.51087,4.56977 -7.03357,9.46055 -7.03357,9.46055z" data-paper-data="{&quot;index&quot;:null}" fill="#b27723" stroke="none" stroke-width="0" stroke-linecap="butt"/><path d="M227.42702,157.84929c0,0 -8.2328,0.5778 -5.7303,-2.2531c2.7001,-3.0543 19.2287,-9.1184 19.2287,-9.1184" data-paper-data="{&quot;origPos&quot;:null,&quot;index&quot;:null}" fill="none" stroke="#a26c20" stroke-width="3.5" stroke-linecap="round"/><path d="M241.62862,138.15398v67.2971l-12.0476,38.9188" data-paper-data="{&quot;origPos&quot;:null}" fill="none" stroke="#a26c20" stroke-width="3.5" stroke-linecap="round"/><path d="M254.47942,244.17309l-12.0476,-40.1588" fill="none" stroke="#a26c20" stroke-width="3.5" stroke-linecap="round"/><path d="M257.81431,176.04929l-15.6984,-29.5715" data-paper-data="{&quot;origPos&quot;:null,&quot;index&quot;:null}" fill="none" stroke="#a26c20" stroke-width="3.5" stroke-linecap="round"/><path d="M217.53332,115.26349c0,-13.9728 11.3272,-25.3 25.3,-25.3c13.9728,0 25.3,11.3272 25.3,25.3c0,13.9728 -11.3272,25.3 -25.3,25.3c-13.9728,0 -25.3,-11.3272 -25.3,-25.3z" data-paper-data="{&quot;origPos&quot;:null}" fill="#e8cea9" stroke="url(#color-1)" stroke-width="2.5" stroke-linecap="butt"/><path d="M238.4159,109.23973c0,-2.66149 2.15756,-4.81905 4.81905,-4.81905c2.66149,0 4.81905,2.15756 4.81905,4.81905c0,2.66149 -2.15756,4.81905 -4.81905,4.81905c-2.66149,0 -4.81905,-2.15756 -4.81905,-4.81905z" data-paper-data="{&quot;origPos&quot;:null}" fill="#000000" stroke="none" stroke-width="0" stroke-linecap="butt"/><path d="M252.06987,109.23973c0,-2.66148 2.15757,-4.81905 4.81905,-4.81905c2.66148,0 4.81905,2.15757 4.81905,4.81905c0,2.66148 -2.15757,4.81905 -4.81905,4.81905c-2.66148,0 -4.81905,-2.15757 -4.81905,-4.81905z" data-paper-data="{&quot;origPos&quot;:null}" fill="#000000" stroke="none" stroke-width="0" stroke-linecap="butt"/><path d="M238.63492,102.23339l9.127,3.6508" data-paper-data="{&quot;origPos&quot;:null}" fill="none" stroke="#000000" stroke-width="2.5" stroke-linecap="round"/><path d="M252.87302,105.55399l6.9365,-3.2857" data-paper-data="{&quot;origPos&quot;:null}" fill="none" stroke="#000000" stroke-width="2.5" stroke-linecap="round"/><g><g><path d="M212.30836,114.91668c0,-8.39473 6.80527,-15.2 15.2,-15.2c8.39473,0 15.2,6.80527 15.2,15.2c0,8.39473 -6.80527,15.2 -15.2,15.2c-8.39473,0 -15.2,-6.80527 -15.2,-15.2z" fill="url(#color-2)" stroke="none" stroke-width="0" stroke-linecap="butt"/><path d="M224.15445,102.34177c0,0 3.4107,4.34414 5.36553,5.00215c2.38815,0.80387 6.75426,-0.58791 6.75426,-0.58791c0,0 -2.03034,4.86799 -1.59643,7.12802c0.44797,2.33326 3.85993,6.35522 3.85993,6.35522c0,0 -5.02626,0.18707 -7.85503,1.34762c-2.82877,1.16055 -6.08326,4.37079 -6.08326,4.37079c0,0 -1.04411,-4.60628 -2.78191,-6.82036c-1.50115,-1.91256 -6.52286,-3.97719 -6.52286,-3.97719c0,0 3.71786,-1.73211 5.62642,-4.14932c2.58067,-3.26844 3.23336,-8.66902 3.23336,-8.66902z" fill="#40ff33" stroke="none" stroke-width="0" stroke-linecap="butt"/><path d="M227.30832,129.11667v116.2" fill="none" stroke="#7e550d" stroke-width="3.5" stroke-linecap="round"/><path d="M239.30832,117.71669c0.47,6.5655 -8.0845,11.4 -12,11.4c-4.0154,0 -12.5494,-4.9795 -12,-11.6" fill="none" stroke="#7e550d" stroke-width="3.5" stroke-linecap="round"/><path d="M221.70836,114.91668c0,-3.20325 2.59675,-5.8 5.8,-5.8c3.20325,0 5.8,2.59675 5.8,5.8c0,3.20325 -2.59675,5.8 -5.8,5.8c-3.20325,0 -5.8,-2.59675 -5.8,-5.8z" fill="#0ed600" stroke="none" stroke-width="0" stroke-linecap="butt"/></g><path d="M225.73336,162.86667c0.3866,0 0.7,4.34284 0.7,9.7c0,5.35716 -0.3134,9.7 -0.7,9.7c-0.3866,0 -0.7,-4.34284 -0.7,-9.7c0,-5.35716 0.3134,-9.7 0.7,-9.7z" fill="#7e550d" stroke="none" stroke-width="0" stroke-linecap="butt"/><path d="M228.43336,193.86668c0.7732,0 1.4,5.01441 1.4,11.2c0,6.18559 -0.6268,11.2 -1.4,11.2c-0.7732,0 -1.4,-5.01441 -1.4,-11.2c0,-6.18559 0.6268,-11.2 1.4,-11.2z" fill="#7e550d" stroke="none" stroke-width="0" stroke-linecap="butt"/><path d="M228.03336,140.76666c0,1.933 -0.67157,3.5 -1.5,3.5c-0.82843,0 -1.5,-1.567 -1.5,-3.5c0,-1.933 0.67157,-3.5 1.5,-3.5c0.82843,0 1.5,1.567 1.5,3.5z" fill="#7e550d" stroke="none" stroke-width="0" stroke-linecap="butt"/></g><path d="M228.23332,158.06669c0,0 -3.2359,-0.0297 -4.4287,-0.2104c-0.9529,-0.1444 -2.1713,-0.5896 -2.1713,-0.5896" fill="none" stroke="#a26c20" stroke-width="3.5" stroke-linecap="round"/><path d="M223.28034,104.12123c0,0 -5.96715,-4.77967 -7.47802,-9.34945c-0.647,-1.95691 -2.58013,-4.52468 -2.94572,-8.02374c-0.01908,-0.18258 -4.02447,0.06956 -4.12159,-0.8153c-0.01763,-0.16061 -0.24898,-0.72821 -0.02506,-0.9555c0.91942,-0.93326 3.36377,-0.4943 3.72281,-2.13778c0.35904,-1.64348 -7.00339,-9.43773 -5.39484,-11.17278c0.89664,-0.96715 5.75426,7.60977 8.59647,7.36148c1.088,-0.09504 2.14682,-0.70818 3.14133,-1.50811c0.26665,-0.21448 -0.86086,-1.41467 -1.0703,-2.33568c-0.23511,-1.03384 0.24472,-1.78682 0.24472,-1.78682c0,0 0.38139,0.96576 1.07781,1.64524c0.40587,0.396 0.95753,0.73893 1.43752,0.84134c0.66881,0.14271 1.28406,-0.09596 1.9311,-0.54942c1.22276,-0.85693 2.10153,-2.12638 2.10153,-2.12638c0,0 0.03755,1.45536 -1.00232,3.31853c-0.76877,1.37743 -2.57985,2.93653 -3.07563,4.5093c-0.28119,0.89203 0.10938,3.04205 0.17168,3.86592c0.14926,1.97386 4.80973,0.94641 4.80973,0.94641c0,0 0.42965,0.69759 0.1577,0.96564c-0.27195,0.26805 -4.72744,1.7045 -4.47928,2.6564c1.66036,6.36898 7.41249,9.01432 7.41249,9.01432z" fill="#b27723" stroke="none" stroke-width="0" stroke-linecap="butt"/><path d="M206.14989,69.73559c1.73472,0.50708 1.78262,2.53261 1.78262,2.53261c0,0 -1.13132,1.68084 -2.86604,1.17375c-1.73472,-0.50708 -3.41594,-3.01005 -3.41594,-3.01005c0,0 2.76464,-1.2034 4.49936,-0.69632z" data-paper-data="{&quot;index&quot;:null}" fill="#0ed600" stroke="none" stroke-width="0" stroke-linecap="butt"/><path d="M232.27537,72.57658c0,0 -2.27,3.37953 -4.61223,4.06419c-2.34223,0.68466 -3.86975,-1.58481 -3.86975,-1.58481c0,0 0.06468,-2.7349 2.40691,-3.41956c2.34223,-0.68466 6.07507,0.94018 6.07507,0.94018z" fill="#0ed600" stroke="none" stroke-width="0" stroke-linecap="butt"/><path d="M206.64174,84.79116c1.48371,-1.03198 3.09046,0.2023 3.09046,0.2023c0,0 0.59815,1.9358 -0.88556,2.96778c-1.48371,1.03198 -4.48745,0.76936 -4.48745,0.76936c0,0 0.79883,-2.90745 2.28254,-3.93943z" data-paper-data="{&quot;index&quot;:null}" fill="#0ed600" stroke="none" stroke-width="0" stroke-linecap="butt"/><path d="M275.01131,89.15953c-1.54467,-0.93829 -1.06732,-2.90735 -1.06732,-2.90735c0,0 1.52738,-1.33124 3.07205,-0.39296c1.54467,0.93829 2.52171,3.79079 2.52171,3.79079c0,0 -2.98176,0.44781 -4.52643,-0.49048z" data-paper-data="{&quot;index&quot;:null}" fill="#0ed600" stroke="none" stroke-width="0" stroke-linecap="butt"/><path d="M261.47101,71.75035c1.35555,1.19534 0.53932,3.04976 0.53932,3.04976c0,0 -1.73772,1.04184 -3.09327,-0.1535c-1.35556,-1.19534 -1.81564,-4.17522 -1.81564,-4.17522c0,0 3.01404,0.08362 4.36959,1.27896z" data-paper-data="{&quot;index&quot;:null}" fill="#0ed600" stroke="none" stroke-width="0" stroke-linecap="butt"/><path d="M229.26192,131.09528c0,0 -0.8948,4.6434 -1.5993,6.5068c-0.7665,2.0275 -2.6293,5.2074 -2.6293,5.2074" fill="none" stroke="#0cb600" stroke-width="1" stroke-linecap="round"/><path d="M229.09052,171.52378c0,0 -1.4628,-3.1799 -2.2293,-5.2074c-0.7045,-1.8634 -1.5993,-6.5069 -1.5993,-6.5069" data-paper-data="{&quot;index&quot;:null}" fill="none" stroke="#0cb600" stroke-width="1" stroke-linecap="round"/><path d="M229.29052,175.00959c0,0 -0.4948,4.4434 -1.1993,6.3068c-0.7665,2.0275 -2.6293,5.2074 -2.6293,5.2074" fill="none" stroke="#0cb600" stroke-width="1" stroke-linecap="round"/><path d="M230.06192,208.09529c0,0 -0.7814,4.6434 -1.554,6.5068c-0.8407,2.0275 -3.1031,5.2074 -3.1031,5.2074" fill="none" stroke="#0cb600" stroke-width="1" stroke-linecap="round"/><path d="M229.40482,225.80949c0,0 -0.8371,4.6435 -1.4961,6.5069c-0.7171,2.0275 -2.6468,5.2074 -2.6468,5.2074" fill="none" stroke="#0cb600" stroke-width="1" stroke-linecap="round"/><path d="M254.83418,163.072c1.73307,0.00557 3.52761,0.39194 3.52761,0.39194c0,0 -1.00061,1.03036 -2.62734,2.1012c-0.81108,0.53392 -1.2991,1.17975 -1.2991,1.17975l-1.84227,-3.19008c0,0 1.24145,-0.48603 2.2411,-0.48282z" data-paper-data="{&quot;index&quot;:null}" fill="#a26c20" stroke="none" stroke-width="0" stroke-linecap="butt"/><path d="M259.15417,166.01579c-1.76163,-0.40379 -1.92903,-2.42297 -1.92903,-2.42297c0,0 1.03012,-1.74469 2.79175,-1.3409c1.76163,0.40379 3.58769,2.80315 3.58769,2.80315c0,0 -2.68878,1.36451 -4.45041,0.96072z" data-paper-data="{&quot;index&quot;:null}" fill="#0ed600" stroke="none" stroke-width="0" stroke-linecap="butt"/><path d="M245.52082,168.04169c0,0 1.0702,-1.959 1.056,-4.1237c-0.0145,-2.2223 0.0139,-4.7933 0.1887,-6.0865c0.2455,-1.8168 1.7553,-3.1648 1.7553,-3.1648" fill="none" stroke="#0dc200" stroke-width="1" stroke-linecap="round"/><path d="M248.02082,170.91669c0,0 -0.4327,-1.8882 -0.7407,-2.7931c-0.3526,-1.0357 -0.7593,-3.8319 -0.7593,-3.8319" fill="none" stroke="#0dc200" stroke-width="1" stroke-linecap="round"/><path d="M243.27086,186.54168v-4c0,0 1.11851,1.03589 2.07519,1.20234c1.91872,0.33383 3.79981,3.09312 3.79981,3.09312c0,0 -2.04465,-1.14352 -3.63192,-0.44773c-0.91555,0.40133 -2.24308,0.15228 -2.24308,0.15228z" fill="#a26c20" stroke="none" stroke-width="0" stroke-linecap="butt"/><path d="M249.20363,189.17295c-1.53759,-0.94985 -1.04548,-2.91529 -1.04548,-2.91529c0,0 1.53732,-1.31975 3.07491,-0.3699c1.53759,0.94985 2.49319,3.80961 2.49319,3.80961c0,0 -2.98503,0.42543 -4.52262,-0.52442z" data-paper-data="{&quot;index&quot;:null}" fill="#0ed600" stroke="none" stroke-width="0" stroke-linecap="butt"/><path d="M234.6473,230.52669l1.98233,-3.47424c0,0 0.45813,1.45405 1.20657,2.07273c1.50108,1.24084 1.76748,4.56968 1.76748,4.56968c0,0 -1.20919,-2.00651 -2.93266,-2.1888c-0.9941,-0.10514 -2.02372,-0.97936 -2.02372,-0.97936z" fill="#a26c20" stroke="none" stroke-width="0" stroke-linecap="butt"/><path d="M238.56426,236.09806c-1.0734,-1.96989 0.66618,-3.78613 0.66618,-3.78613c0,0 2.46925,-0.47716 3.54264,1.49273c1.0734,1.96989 0.34447,5.64086 0.34447,5.64086c0,0 -3.47989,-1.37757 -4.55329,-3.34745z" data-paper-data="{&quot;index&quot;:null}" fill="#0ed600" stroke="none" stroke-width="0" stroke-linecap="butt"/><path d="M238.21336,168.98165c-1.3675,-0.59945 -3.12905,-0.15272 -3.12905,-0.15272c0,0 1.62064,-1.83877 3.2737,-2.12639c0.82422,-0.14341 1.78786,-1.03586 1.78786,-1.03586v3.0154c0,0 -1.14372,0.64534 -1.9325,0.29957z" data-paper-data="{&quot;index&quot;:null}" fill="#a26c20" stroke="none" stroke-width="0" stroke-linecap="butt"/><path d="M233.53987,168.37518c1.11874,-1.083 2.65596,-0.25596 2.65596,-0.25596c0,0 0.77671,1.56325 -0.34203,2.64625c-1.11874,1.083 -3.70931,1.27566 -3.70931,1.27566c0,0 0.27664,-2.58295 1.39538,-3.66595z" data-paper-data="{&quot;index&quot;:null}" fill="#0ed600" stroke="none" stroke-width="0" stroke-linecap="butt"/><path d="M217.43173,71.58302c1.45605,1.30979 0.55171,3.31046 0.55171,3.31046c0,0 -1.89413,1.1103 -3.35018,-0.19949c-1.45605,-1.30979 -1.92265,-4.54369 -1.92265,-4.54369c0,0 3.26507,0.12292 4.72112,1.43272z" data-paper-data="{&quot;index&quot;:null}" fill="#0ed600" stroke="none" stroke-width="0" stroke-linecap="butt"/><path d="M222.77529,185.98208c1.31412,-1.28732 3.10866,-0.14517 3.10866,-0.14517c0,0 0.90123,2.01725 -0.41289,3.30456c-1.31412,1.28732 -4.34596,1.35724 -4.34596,1.35724c0,0 0.33607,-3.22932 1.65019,-4.51663z" data-paper-data="{&quot;index&quot;:null}" fill="#0ed600" stroke="none" stroke-width="0" stroke-linecap="butt"/><path d="M230.35264,210.19028c-1.44712,-1.0827 -0.78235,-2.99664 -0.78235,-2.99664c0,0 1.64849,-1.17794 3.09561,-0.09525c1.44712,1.0827 2.14488,4.01604 2.14488,4.01604c0,0 -3.01102,0.15854 -4.45814,-0.92416z" data-paper-data="{&quot;index&quot;:null}" fill="#0ed600" stroke="none" stroke-width="0" stroke-linecap="butt"/><path d="M208.59981,69.15224c1.73472,-0.50708 4.49936,0.69632 4.49936,0.69632c0,0 -1.68122,2.50297 -3.41594,3.01005c-1.73472,0.50709 -2.86604,-1.17375 -2.86604,-1.17375c0,0 0.0479,-2.02553 1.78262,-2.53261z" data-paper-data="{&quot;index&quot;:null}" fill="#0ed600" stroke="none" stroke-width="0" stroke-linecap="butt"/><path d="M206.72506,85.09896c-1.48371,-1.03198 -2.28254,-3.93943 -2.28254,-3.93943c0,0 3.00374,-0.26262 4.48745,0.76936c1.48371,1.03198 0.88556,2.96778 0.88556,2.96778c0,0 -1.60675,1.23428 -3.09046,0.2023z" data-paper-data="{&quot;index&quot;:null}" fill="#0ed600" stroke="none" stroke-width="0" stroke-linecap="butt"/><path d="M222.84434,70.1503c0,0 -0.4666,3.2339 -1.92265,4.54369c-1.45605,1.30979 -3.35018,0.19949 -3.35018,0.19949c0,0 -0.90434,-2.00067 0.55171,-3.31046c1.45605,-1.3098 4.72112,-1.43272 4.72112,-1.43272z" data-paper-data="{&quot;index&quot;:null}" fill="#0ed600" stroke="none" stroke-width="0" stroke-linecap="butt"/><path d="M224.31094,78.86864c-1.59161,-1.84975 -0.1565,-4.17877 -0.1565,-4.17877c0,0 2.51704,-1.07158 4.10865,0.77817c1.59161,1.84975 1.65508,5.92039 1.65508,5.92039c0,0 -4.01562,-0.67003 -5.60723,-2.51978z" data-paper-data="{&quot;index&quot;:null}" fill="#0ed600" stroke="none" stroke-width="0" stroke-linecap="butt"/><path d="M256.93475,78.88747c0,0 0.46008,-2.97988 1.81564,-4.17522c1.35555,-1.19534 3.09327,-0.1535 3.09327,-0.1535c0,0 0.81623,1.85442 -0.53932,3.04976c-1.35555,1.19534 -4.36959,1.27896 -4.36959,1.27896z" data-paper-data="{&quot;index&quot;:null}" fill="#0ed600" stroke="none" stroke-width="0" stroke-linecap="butt"/><path d="M270.20807,75.61298c-1.61748,0.80631 -3.02862,-0.64756 -3.02862,-0.64756c0,0 -0.31162,-2.00199 1.30586,-2.80831c1.61748,-0.80631 4.55156,-0.11163 4.55156,-0.11163c0,0 -1.21132,2.76119 -2.8288,3.5675z" data-paper-data="{&quot;index&quot;:null}" fill="#0ed600" stroke="none" stroke-width="0" stroke-linecap="butt"/><path d="M264.68805,73.44868c-0.60195,-1.70413 0.4472,-4.53091 0.4472,-4.53091c0,0 2.59186,1.54068 3.19381,3.2448c0.60194,1.70413 -1.01396,2.92639 -1.01396,2.92639c0,0 -2.02509,0.06384 -2.62704,-1.64029z" data-paper-data="{&quot;index&quot;:null}" fill="#0ed600" stroke="none" stroke-width="0" stroke-linecap="butt"/><path d="M258.08885,82.85047c1.05047,1.47067 -0.16359,3.09275 -0.16359,3.09275c0,0 -1.92816,0.62234 -2.97862,-0.84833c-1.05048,-1.47067 -0.82549,-4.47745 -0.82549,-4.47745c0,0 2.91723,0.76235 3.9677,2.23302z" data-paper-data="{&quot;index&quot;:null}" fill="#0ed600" stroke="none" stroke-width="0" stroke-linecap="butt"/><path d="M254.12115,90.82398c0,0 -0.225,-3.00678 0.82548,-4.47745c1.05047,-1.47067 2.97863,-0.84833 2.97863,-0.84833c0,0 1.21406,1.62209 0.16359,3.09276c-1.05047,1.47067 -3.9677,2.23302 -3.9677,2.23302z" data-paper-data="{&quot;index&quot;:null}" fill="#0ed600" stroke="none" stroke-width="0" stroke-linecap="butt"/><path d="M279.85146,86.33951c0,0 -2.98172,-0.44802 -4.18253,-1.79873c-1.20082,-1.3507 -0.16602,-3.09262 -0.16602,-3.09262c0,0 1.8511,-0.82373 3.05192,0.52697c1.20082,1.3507 1.29663,4.36438 1.29663,4.36438z" data-paper-data="{&quot;index&quot;:null}" fill="#0ed600" stroke="none" stroke-width="0" stroke-linecap="butt"/><path d="M282.05598,81.43023c0,0 -2.30654,1.94197 -4.11383,1.95075c-1.80728,0.00879 -2.43095,-1.91894 -2.43095,-1.91894c0,0 0.6049,-1.9337 2.41219,-1.94248c1.80728,-0.00879 4.1326,1.91068 4.1326,1.91068z" data-paper-data="{&quot;index&quot;:null}" fill="#0ed600" stroke="none" stroke-width="0" stroke-linecap="butt"/><path d="M271.65255,88.25136c0.41219,-1.75969 2.43213,-1.91745 2.43213,-1.91745c0,0 1.73976,1.03843 1.32758,2.79811c-0.41219,1.75969 -2.82022,3.57428 -2.82022,3.57428c0,0 -1.35167,-2.69525 -0.93948,-4.45494z" data-paper-data="{&quot;index&quot;:null}" fill="#0ed600" stroke="none" stroke-width="0" stroke-linecap="butt"/><path d="M242.74167,234.53935c-2.10211,0.78345 -3.65354,-1.19593 -3.65354,-1.19593c0,0 -0.12247,-2.51195 1.97964,-3.29539c2.10211,-0.78345 5.63276,0.45828 5.63276,0.45828c0,0 -1.85675,3.24959 -3.95885,4.03304z" data-paper-data="{&quot;index&quot;:null}" fill="#0ed600" stroke="none" stroke-width="0" stroke-linecap="butt"/><path d="M230.39823,204.60286c1.44712,-1.0827 4.45814,-0.92416 4.45814,-0.92416c0,0 -0.69776,2.93334 -2.14488,4.01604c-1.44712,1.08269 -3.09561,-0.09525 -3.09561,-0.09525c0,0 -0.66477,-1.91394 0.78235,-2.99664z" data-paper-data="{&quot;index&quot;:null}" fill="#0ed600" stroke="none" stroke-width="0" stroke-linecap="butt"/><path d="M221.06298,182.07646c0,0 3.03184,0.06992 4.34596,1.35724c1.31412,1.28731 0.41289,3.30456 0.41289,3.30456c0,0 -1.79454,1.14215 -3.10866,-0.14517c-1.31412,-1.28731 -1.65019,-4.51663 -1.65019,-4.51663z" data-paper-data="{&quot;index&quot;:null}" fill="#0ed600" stroke="none" stroke-width="0" stroke-linecap="butt"/><path d="M214.82119,146.48151c0,0 3.00023,0.3 4.2664,1.58966c1.26617,1.28966 0.31878,3.08062 0.31878,3.08062c0,0 -1.80808,0.91427 -3.07425,-0.37538c-1.26617,-1.28966 -1.51093,-4.2949 -1.51093,-4.2949z" data-paper-data="{&quot;index&quot;:null}" fill="#0ed600" stroke="none" stroke-width="0" stroke-linecap="butt"/><path d="M253.87954,183.09964c0,0 -0.9556,2.85976 -2.49319,3.80961c-1.53759,0.94985 -3.07491,-0.3699 -3.07491,-0.3699c0,0 -0.49211,-1.96544 1.04548,-2.91529c1.53759,-0.94985 4.52262,-0.52442 4.52262,-0.52442z" data-paper-data="{&quot;index&quot;:null}" fill="#0ed600" stroke="none" stroke-width="0" stroke-linecap="butt"/><path d="M262.01945,159.12225c0,0 -0.25846,3.0041 -1.53048,4.28798c-1.27202,1.28388 -3.07592,0.36137 -3.07592,0.36137c0,0 -0.93921,-1.79527 0.33281,-3.07915c1.27202,-1.28388 4.27359,-1.5702 4.27359,-1.5702z" data-paper-data="{&quot;index&quot;:null}" fill="#0ed600" stroke="none" stroke-width="0" stroke-linecap="butt"/><path d="M235.92673,166.04318c1.04947,1.15025 0.17737,2.66236 0.17737,2.66236c0,0 -1.58551,0.73019 -2.63498,-0.42006c-1.04947,-1.15025 -1.16551,-3.74538 -1.16551,-3.74538c0,0 2.57365,0.35283 3.62312,1.50308z" data-paper-data="{&quot;index&quot;:null}" fill="#0ed600" stroke="none" stroke-width="0" stroke-linecap="butt"/><path d="M229.07369,90.78395c0,0 -2.98172,-0.44802 -4.18253,-1.79873c-1.20082,-1.3507 -0.16602,-3.09262 -0.16602,-3.09262c0,0 1.8511,-0.82373 3.05192,0.52697c1.20082,1.3507 1.29663,4.36438 1.29663,4.36438z" data-paper-data="{&quot;index&quot;:null}" fill="#0ed600" stroke="none" stroke-width="0" stroke-linecap="butt"/><path d="M231.2782,85.87467c0,0 -2.30654,1.94197 -4.11383,1.95075c-1.80728,0.00879 -2.43095,-1.91894 -2.43095,-1.91894c0,0 0.6049,-1.9337 2.41219,-1.94248c1.80728,-0.00879 4.1326,1.91068 4.1326,1.91068z" data-paper-data="{&quot;index&quot;:null}" fill="#0ed600" stroke="none" stroke-width="0" stroke-linecap="butt"/></g></g></svg>