<svg version="1.1" xmlns="http://www.w3.org/2000/svg" xmlns:xlink="http://www.w3.org/1999/xlink" width="55.30613" height="165.02779" viewBox="0,0,55.30613,165.02779"><g transform="translate(-213.0772,-81.11031)"><g data-paper-data="{&quot;isPaintingLayer&quot;:true}" fill-rule="nonzero" stroke-linejoin="miter" stroke-miterlimit="10" stroke-dasharray="" stroke-dashoffset="0" style="mix-blend-mode: normal"><g><path d="M240.62858,138.17223v67.29708l-12.04762,38.91879" data-paper-data="{&quot;origPos&quot;:null}" fill="none" stroke="#000000" stroke-width="3.5" stroke-linecap="round"/><path d="M253.47937,244.19129l-12.04762,-40.15873" fill="none" stroke="#000000" stroke-width="3.5" stroke-linecap="round"/><path d="M239.3254,146.49605l-15.69841,29.57143" data-paper-data="{&quot;origPos&quot;:null}" fill="none" stroke="#000000" stroke-width="3.5" stroke-linecap="round"/><path d="M257.21428,176.06749l-15.69841,-29.57144" data-paper-data="{&quot;origPos&quot;:null,&quot;index&quot;:null}" fill="none" stroke="#000000" stroke-width="3.5" stroke-linecap="round"/><path d="M216.53333,115.28176c0,-13.9728 11.3272,-25.3 25.3,-25.3c13.9728,0 25.3,11.3272 25.3,25.3c0,13.9728 -11.3272,25.3 -25.3,25.3c-13.9728,0 -25.3,-11.3272 -25.3,-25.3z" data-paper-data="{&quot;origPos&quot;:null}" fill="#343434" stroke="#000000" stroke-width="2.5" stroke-linecap="butt"/><path d="M237.41587,109.25796c0,-2.66149 2.15756,-4.81905 4.81905,-4.81905c2.66149,0 4.81905,2.15756 4.81905,4.81905c0,2.66149 -2.15756,4.81905 -4.81905,4.81905c-2.66149,0 -4.81905,-2.15756 -4.81905,-4.81905z" data-paper-data="{&quot;origPos&quot;:null}" fill="#ffffff" stroke="none" stroke-width="0" stroke-linecap="butt"/><path d="M251.06984,109.25796c0,-2.66148 2.15757,-4.81905 4.81905,-4.81905c2.66148,0 4.81905,2.15757 4.81905,4.81905c0,2.66148 -2.15757,4.81905 -4.81905,4.81905c-2.66148,0 -4.81905,-2.15757 -4.81905,-4.81905z" data-paper-data="{&quot;origPos&quot;:null}" fill="#ffffff" stroke="none" stroke-width="0" stroke-linecap="butt"/><path d="M239.70566,108.32726c0,-1.09471 0.88744,-1.98214 1.98215,-1.98214c1.09471,0 1.98214,0.88743 1.98214,1.98214c0,1.09471 -0.88744,1.98215 -1.98214,1.98215c-1.09471,0 -1.98215,-0.88744 -1.98215,-1.98215z" fill="#000000" stroke="none" stroke-width="0" stroke-linecap="butt"/><path d="M254.99138,109.98797c0,-1.1243 0.91142,-2.03572 2.03571,-2.03572c1.1243,0 2.03572,0.91142 2.03572,2.03572c0,1.1243 -0.91142,2.03571 -2.03572,2.03571c-1.12429,0 -2.03571,-0.91142 -2.03571,-2.03571z" fill="#000000" stroke="none" stroke-width="0" stroke-linecap="butt"/><path d="M217.59852,86.45226l12.75,12.85715" fill="none" stroke="#823f00" stroke-width="2.5" stroke-linecap="round"/><g fill="none" stroke="#ffdb33" stroke-width="1.5" stroke-linecap="round"><path d="M217.28165,81.86031v7.92857"/><path d="M213.8272,88.2662l6.80175,-4.66891"/><path d="M213.87372,83.66036l6.63728,4.89991" data-paper-data="{&quot;index&quot;:null}"/></g><path d="M253.52473,126.15958c-1.29907,3.04846 -6.53637,4.93237 -11.4901,2.82138c-4.95373,-2.111 -7.74804,-7.41751 -6.44897,-10.46597c1.29907,-3.04846 4.10802,1.8593 9.06176,3.9703c4.95373,2.111 10.17639,0.62584 8.87732,3.6743z" fill="#ffffff" stroke="#000000" stroke-width="0.5" stroke-linecap="butt"/></g></g></g></svg>