<svg xmlns="http://www.w3.org/2000/svg" xmlns:xlink="http://www.w3.org/1999/xlink" version="1.1" width="53.1" height="157.40631" viewBox="0,0,53.1,157.40631"><g><g data-paper-data="{&quot;isPaintingLayer&quot;:true}" fill-rule="nonzero" stroke-linejoin="miter" stroke-miterlimit="10" stroke-dasharray="" stroke-dashoffset="0" style="mix-blend-mode: normal"><g><path d="M 25.3452 49.4404 L 25.3452 116.7375 L 13.2976 155.6563 " data-paper-data="{&quot;origPos&quot;:null}" fill="none" stroke="#000000" stroke-width="3.5" stroke-linecap="round"/><path d="M 38.196 155.4595 L 26.1484 115.3008 " fill="none" stroke="#000000" stroke-width="3.5" stroke-linecap="round"/><path d="M 1.25 26.55 C 1.25 12.5772 12.5772 1.25 26.55 1.25 C 40.5228 1.25 51.85 12.5772 51.85 26.55 C 51.85 40.5228 40.5228 51.85 26.55 51.85 C 12.5772 51.85 1.25 40.5228 1.25 26.55 Z " data-paper-data="{&quot;origPos&quot;:null}" fill="#d4d4d4" stroke="#000000" stroke-width="2.5" stroke-linecap="butt"/><path d="M 24.0421 57.7643 L 7.8515 88.2627 " data-paper-data="{&quot;origPos&quot;:null}" fill="none" stroke="#000000" stroke-width="3.5" stroke-linecap="round"/><path d="M 26.2325 57.7643 L 41.9309 87.3357 " data-paper-data="{&quot;origPos&quot;:null,&quot;index&quot;:null}" fill="none" stroke="#000000" stroke-width="3.5" stroke-linecap="round"/><g stroke-linecap="butt"><path d="M 40.7337 35.6917 C 40.7337 39.1665 37.8399 41.9834 34.2702 41.9834 C 30.7005 41.9834 27.8067 39.1665 27.8067 35.6917 C 27.8067 32.2169 30.7005 29.4 34.2702 29.4 C 37.8399 29.4 40.7337 32.2169 40.7337 35.6917 Z " data-paper-data="{&quot;origPos&quot;:null}" fill="#ff0000" stroke="#000000" stroke-width="1"/><path d="M245.00001,119.17737l1.89784,-0.36593c0,0 0.97451,2.53435 -0.27126,2.77455c-1.24577,0.24019 -1.62659,-2.40862 -1.62659,-2.40862z" data-paper-data="{&quot;origPos&quot;:null,&quot;origRot&quot;:0}" fill="#e9e9e9" stroke="none" stroke-width="0" transform="matrix(1,0,0,1,-215.35577,-88.29685)"/><path d="M247.56244,118.38929l1.93406,-0.21976c0,0 0.63506,3.13529 -0.63447,3.27954c-1.26953,0.14426 -1.29959,-3.05978 -1.29959,-3.05978z" data-paper-data="{&quot;origPos&quot;:null,&quot;origRot&quot;:0,&quot;index&quot;:null}" fill="#e9e9e9" stroke="none" stroke-width="0" transform="matrix(1,0,0,1,-215.35577,-88.29685)"/><path d="M250.33113,118.2052l1.93998,0.14906c0,0 0.04564,3.05634 -1.22777,2.9585c-1.27341,-0.09784 -0.71222,-3.10756 -0.71222,-3.10756z" data-paper-data="{&quot;origPos&quot;:null,&quot;origRot&quot;:0,&quot;index&quot;:null}" fill="#e9e9e9" stroke="none" stroke-width="0" transform="matrix(1,0,0,1,-215.35577,-88.29685)"/><path d="M252.96122,119.21571l1.82106,0.67432c0,0 -0.82732,2.97201 -2.02268,2.52938c-1.19536,-0.44263 0.20162,-3.2037 0.20162,-3.2037z" data-paper-data="{&quot;origPos&quot;:null,&quot;origRot&quot;:0}" fill="#e9e9e9" stroke="none" stroke-width="0" transform="matrix(1,0,0,1,-215.35577,-88.29685)"/><path d="M250.92421,126.63618c1.27341,-0.10233 1.22777,3.0944 1.22777,3.0944l-1.93998,0.15591c0,0 -0.5612,-3.14798 0.71222,-3.25031z" data-paper-data="{&quot;origPos&quot;:null,&quot;origRot&quot;:0,&quot;index&quot;:null}" fill="#e9e9e9" stroke="none" stroke-width="0" transform="matrix(1,0,0,1,-215.35577,-88.29685)"/><path d="M249.4317,129.88648l-1.93998,-0.17645c0,0 -0.04565,-3.61794 1.22776,-3.50212c1.27341,0.11582 0.71222,3.67857 0.71222,3.67857z" data-paper-data="{&quot;origPos&quot;:null,&quot;origRot&quot;:0,&quot;index&quot;:null}" fill="#e9e9e9" stroke="none" stroke-width="0" transform="matrix(1,0,0,1,-215.35577,-88.29685)"/><path d="M252.8227,125.58425c1.18729,-0.50384 2.06737,2.71363 2.06737,2.71363l-1.80878,0.76758c0,0 -1.44588,-2.97736 -0.25859,-3.48121z" data-paper-data="{&quot;origPos&quot;:null,&quot;origRot&quot;:0,&quot;index&quot;:null}" fill="#e9e9e9" stroke="none" stroke-width="0" transform="matrix(1,0,0,1,-215.35577,-88.29685)"/><path d="M246.77657,128.9226l-1.80878,-0.67451c0,0 0.88007,-2.82737 2.06737,-2.38461c1.18729,0.44276 -0.25859,3.05913 -0.25859,3.05913z" data-paper-data="{&quot;origPos&quot;:null,&quot;origRot&quot;:0,&quot;index&quot;:null}" fill="#e9e9e9" stroke="none" stroke-width="0" transform="matrix(1,0,0,1,-215.35577,-88.29685)"/><path d="M 40.7828 35.6383 C 40.7828 39.1131 37.889 41.93 34.3193 41.93 C 30.7496 41.93 27.8558 39.1131 27.8558 35.6383 C 27.8558 32.1636 30.7496 29.3467 34.3193 29.3467 C 37.889 29.3467 40.7828 32.1636 40.7828 35.6383 Z " fill="none" stroke="#000000" stroke-width="1"/></g><g stroke-linecap="round"><path d="M 18.0907 33.0349 L 20.392 31.7273 C 20.392 31.7273 19.2497 28.9146 19.7447 27.6956 C 20.2398 26.4766 22.6933 26.0611 22.6933 26.0611 " stroke-width="1" fill="none" stroke="#e65943"/><path d="M 21.6865 33.2528 L 20.5358 31.7273 " stroke-width="1" fill="none" stroke="#e65943"/></g><path d="M 33.5665 9.9208 C 33.5665 9.9208 34.9096 11.5698 34.5545 12.6349 C 34.1995 13.6999 32.1282 14.2359 32.1282 14.2359 " fill="none" stroke="#e65943" stroke-width="1" stroke-linecap="round"/><path d="M 46.7393 24.8026 C 46.7393 24.8026 47.5071 26.5629 47.7539 27.468 C 48.0101 28.4075 48.2496 30.3402 48.2496 30.3402 " fill="none" stroke="#e65943" stroke-width="1" stroke-linecap="round"/><path d="M237.61331,108.82305c0,-2.66149 2.15756,-4.81905 4.81905,-4.81905c2.66149,0 4.81905,2.15756 4.81905,4.81905c0,2.66149 -2.15756,4.81905 -4.81905,4.81905c-2.66149,0 -4.81905,-2.15756 -4.81905,-4.81905z" fill="#000000" stroke="none" stroke-width="0" stroke-linecap="butt" transform="matrix(1,0,0,1,-215.35577,-88.29685)"/><path d="M251.14228,108.82305c0,-2.66148 2.15757,-4.81905 4.81905,-4.81905c2.66148,0 4.81905,2.15757 4.81905,4.81905c0,2.66148 -2.15757,4.81905 -4.81905,4.81905c-2.66148,0 -4.81905,-2.15757 -4.81905,-4.81905z" data-paper-data="{&quot;origPos&quot;:null}" fill="#000000" stroke="none" stroke-width="0" stroke-linecap="butt" transform="matrix(1,0,0,1,-215.35577,-88.29685)"/><path d="M 24.1947 13.3525 C 24.1947 13.3525 26.5485 14.1826 28.0379 14.8189 C 29.3332 15.3724 31.4537 17.0652 31.4537 17.0652 " data-paper-data="{&quot;index&quot;:null}" fill="none" stroke="#000000" stroke-width="2.5" stroke-linecap="round"/><path d="M 36.1393 16.9149 C 36.1393 16.9149 38.2602 15.3921 39.3999 14.9389 C 40.5393 14.4858 42.8857 13.844 42.8857 13.844 " data-paper-data="{&quot;index&quot;:null}" fill="none" stroke="#000000" stroke-width="2.5" stroke-linecap="round"/><path d="M 15.4536 13.6598 C 15.4536 13.6598 18.2214 16.7058 18.4682 17.6108 C 18.7244 18.5503 16.9639 19.1974 16.9639 19.1974 " fill="none" stroke="#e65943" stroke-width="1" stroke-linecap="round"/><path d="M 18.4299 11.9889 L 17.2871 15.1317 " fill="none" stroke="#e65943" stroke-width="1" stroke-linecap="round"/><path d="M 9.1442 19.9889 C 9.1442 19.9889 9.9421 16.0127 10.5117 14.5367 C 10.9606 13.3737 12.2871 11.846 12.2871 11.846 " fill="none" stroke="#e65943" stroke-width="1" stroke-linecap="round"/></g></g></g></svg>