<svg xmlns="http://www.w3.org/2000/svg" xmlns:xlink="http://www.w3.org/1999/xlink" version="1.1" width="498.4882" height="379.17074" viewBox="0,0,498.4882,379.17074"><defs><linearGradient x1="208.6016" y1="47.18199" x2="208.6016" y2="147.18199" gradientUnits="userSpaceOnUse" id="color-1"><stop offset="0" stop-color="#ffaf38"/><stop offset="1" stop-color="#b07927"/></linearGradient><linearGradient x1="62.54597" y1="147.18199" x2="62.54597" y2="247.18199" gradientUnits="userSpaceOnUse" id="color-2"><stop offset="0" stop-color="#ffaf38"/><stop offset="1" stop-color="#b07927"/></linearGradient><linearGradient x1="397.46092" y1="150.18199" x2="397.46092" y2="250.18199" gradientUnits="userSpaceOnUse" id="color-3"><stop offset="0" stop-color="#ffaf38"/><stop offset="1" stop-color="#b07927"/></linearGradient><linearGradient x1="232.71167" y1="213.80478" x2="232.71167" y2="286.87497" gradientUnits="userSpaceOnUse" id="color-4"><stop offset="0" stop-color="#ffaf38"/><stop offset="1" stop-color="#b07927"/></linearGradient><linearGradient x1="226.62268" y1="60.61575" x2="241.033" y2="159.7817" gradientUnits="userSpaceOnUse" id="color-5"><stop offset="0" stop-color="#ffaf38"/><stop offset="1" stop-color="#b07927"/></linearGradient><linearGradient x1="226.82199" y1="51.48752" x2="236.66961" y2="151.00146" gradientUnits="userSpaceOnUse" id="color-6"><stop offset="0" stop-color="#ffaf38"/><stop offset="1" stop-color="#b07927"/></linearGradient><linearGradient x1="145.15737" y1="276.85301" x2="145.15737" y2="314.42481" gradientUnits="userSpaceOnUse" id="color-7"><stop offset="0" stop-color="#ffaf38"/><stop offset="1" stop-color="#b07927"/></linearGradient><linearGradient x1="318.15737" y1="278.85301" x2="318.15737" y2="316.42481" gradientUnits="userSpaceOnUse" id="color-8"><stop offset="0" stop-color="#ffaf38"/><stop offset="1" stop-color="#b07927"/></linearGradient><linearGradient x1="256.274" y1="317.65565" x2="256.274" y2="373.58869" gradientUnits="userSpaceOnUse" id="color-9"><stop offset="0" stop-color="#ffaf38"/><stop offset="1" stop-color="#b07927"/></linearGradient><linearGradient x1="25.04597" y1="11.62158" x2="25.04597" y2="37.7424" gradientUnits="userSpaceOnUse" id="color-10"><stop offset="0" stop-color="#ffae38"/><stop offset="1" stop-color="#a57124"/></linearGradient></defs><g><g data-paper-data="{&quot;isPaintingLayer&quot;:true}" fill-rule="nonzero" stroke-linecap="butt" stroke-linejoin="miter" stroke-miterlimit="10" stroke-dasharray="" stroke-dashoffset="0" style="mix-blend-mode: normal"><path d="" data-paper-data="{&quot;origPos&quot;:null}" fill="url(#color-1)" stroke-width="0" stroke="none" transform="matrix(1,0,0,1,13.64935,-0.01125)"/><path d="" fill="#ffae38" stroke-width="0.5" stroke="none" transform="matrix(1,0,0,1,13.64935,-0.01125)"/><path d="" fill="#ffae38" stroke-width="0.5" stroke="none" transform="matrix(1,0,0,1,13.64935,-0.01125)"/><path d="" fill="#ffae38" stroke-width="0.5" stroke="none" transform="matrix(1,0,0,1,13.64935,-0.01125)"/><path d="M151.54597,213.18199c0,18.76113 -43.85718,5.88634 -59.4553,16.31125c-11.17857,7.47112 -26.09933,2.68875 -39.5447,2.68875c-18.34707,0 -21.60084,3.53345 -34.37887,-9.63229c-12.37064,-12.74598 -10.62113,-7.60559 -10.62113,-25.36771c0,-27.61424 25.62434,-21 56,-21c30.37566,0 88,9.38576 88,37z" data-paper-data="{&quot;origPos&quot;:null}" fill="url(#color-2)" stroke-width="0" stroke="none" transform="matrix(1,0,0,1,13.64935,-0.01125)"/><path d="M396.46092,179.18199c30.37566,0 56,-6.61424 56,21c0,17.76212 1.74951,12.62172 -10.62113,25.36771c-12.77803,13.16574 -27.0318,9.63229 -45.37887,9.63229c-13.44537,0 -17.36614,4.78237 -28.5447,-2.68875c-15.59812,-10.4249 -58.4553,7.44989 -58.4553,-11.31125c0,-27.61424 56.62434,-42 87,-42z" data-paper-data="{&quot;origPos&quot;:null,&quot;index&quot;:null}" fill="url(#color-3)" stroke-width="0" stroke="none" transform="matrix(1,0,0,1,13.64935,-0.01125)"/><path d="M276.90028,260.33988c0,13.7088 -11.20265,5.99239 -22.60023,13.60989c-8.1682,5.45916 -14.11031,11.23223 -23.93486,11.23223c-13.40624,0 -20.7443,-6.68565 -30.08123,-16.30588c-9.03925,-9.31351 -14.76088,2.44258 -14.76088,-10.53623c0,-20.17777 25.72376,-23.34474 47.91931,-23.34474c22.19555,0 43.4579,5.16697 43.4579,25.34474z" data-paper-data="{&quot;origPos&quot;:null}" fill="url(#color-4)" stroke-width="0" stroke="none" transform="matrix(1,0,0,1,13.64935,-0.01125)"/><path d="M334.2166,128.45159c-9.6328,3.75588 -17.4565,-3.28801 -27.60489,-1.31122c-10.38944,2.02374 -14.30169,11.75708 -24.87669,11.30397c-0.0041,-0.50414 -0.04116,-1.01437 -0.11636,-1.53187c-1.60983,-3.04599 -2.47071,-5.56417 -3.99328,-7.63824c0.36349,-0.87005 0.50886,-1.9283 0.76606,-2.77662c0.9807,-3.23455 1.45987,-6.57503 2.09962,-9.87719c0.6578,-3.39528 2.58255,-10.70874 0.72072,-14.5542c0.45937,-6.95221 -1.51335,-13.39038 -6.50609,-18.22469c0,0 76.73194,11.61181 79.96916,33.88901c0,0 -5.09697,6.4451 -8.99935,8.49012c-4.08172,2.139 -11.4589,2.23094 -11.4589,2.23094z" data-paper-data="{&quot;origPos&quot;:null,&quot;origRot&quot;:0}" fill="url(#color-5)" stroke-width="0" stroke="none" transform="matrix(1,0,0,1,13.64935,-0.01125)"/><path d="M137.59333,129.01898c-9.47188,-3.15177 -12.35849,-7.33841 -21.07128,-2.46629c-5.18561,2.89975 -8.12527,1.33261 -8.71035,-4.57981c-2.29055,-23.14683 37.17484,-34.48639 92.12776,-39.01836c-4.76949,9.98614 -2.08616,21.61935 -1.00052,32.59018c0.31184,3.15127 0.62368,6.30255 0.93552,9.45382c0.01175,0.11871 0.02349,0.23742 0.03524,0.35613c-0.32013,0.39045 -0.64026,0.78089 -0.96039,1.17133l-4.08421,6.31357c0,0 -0.12959,1.05522 0.03981,2.51978c-11.16264,2.13481 -16.70593,-12.36995 -27.96712,-13.90207c-11.34913,-1.54409 -18.47664,11.17799 -29.34447,7.56172z" data-paper-data="{&quot;origPos&quot;:null,&quot;origRot&quot;:0}" fill="url(#color-6)" stroke-width="0" stroke="none" transform="matrix(1,0,0,1,13.64935,-0.01125)"/><path d="M165.82186,295.6389c0,7.0489 -3.70352,8.2231 -9.56402,12.13992c-4.19999,2.80703 -4.17021,10.40317 -9.22188,10.40317c-6.89333,0 -13.7516,-8.06537 -18.55254,-13.01198c-4.64787,-4.7889 -3.99055,-2.85756 -3.99055,-9.53111c0,-10.37516 9.62752,-7.89007 21.04021,-7.89007c11.41269,0 20.28878,-2.48509 20.28878,7.89007z" data-paper-data="{&quot;origPos&quot;:null}" fill="url(#color-7)" stroke-width="0" stroke="none" transform="matrix(1,0,0,1,13.64935,-0.01125)"/><path d="M338.82186,297.6389c0,7.0489 -3.70352,8.2231 -9.56401,12.13992c-4.19999,2.80703 -4.17022,10.40317 -9.22189,10.40317c-6.89333,0 -13.75159,-8.06537 -18.55253,-13.01198c-4.64787,-4.7889 -3.99055,-2.85756 -3.99055,-9.53111c0,-10.37516 9.62752,-7.89007 21.04021,-7.89007c11.41269,0 20.28877,-2.48509 20.28877,7.89007z" data-paper-data="{&quot;origPos&quot;:null}" fill="url(#color-8)" stroke-width="0" stroke="none" transform="matrix(1,0,0,1,13.64935,-0.01125)"/><path d="M484.83885,361.5452c0,0 -24.81226,1.37038 -38.24081,2.14964c-72.01125,4.17883 -71.50074,15.48716 -158.11453,15.48716c-108.31431,0 -289.64141,-17.43739 -289.64141,-17.43739c0,0 -26.64421,-29.37833 -2.10609,-28.8922c73.61439,1.4584 165.17398,1.02383 265.97982,1.02383c84.96473,0 221.39671,-0.22234 221.39671,-0.22234z" data-paper-data="{&quot;origPos&quot;:null}" fill="url(#color-9)" stroke-width="0" stroke="none" transform="matrix(1,0,0,1,13.64935,-0.01125)"/><path d="M37.47962,17.2218c3.55185,5.91975 0.86446,14.0587 -6.00245,18.17885c-6.86691,4.12015 -15.31299,2.66128 -18.86484,-3.25847c-3.55185,-5.91975 -0.86446,-14.0587 6.00245,-18.17885c6.86691,-4.12015 15.31299,-2.66128 18.86484,3.25847z" data-paper-data="{&quot;origPos&quot;:null,&quot;origRot&quot;:0}" fill="url(#color-10)" stroke-width="0" stroke="none" transform="matrix(1,0,0,1,13.64935,-0.01125)"/><path d="M 55.9052 25.9946 L 55.567 25.9613 C 55.509 26.1354 55.45 26.3048 55.3899 26.4699 C 57.1867 24.8732 61.415 21.7146 60.8236 19.3802 C 60.7434 19.0635 60.4096 20.1992 60.1152 20.0575 C 59.5738 19.7968 59.5401 18.9824 59.1152 18.5575 C 58.4903 17.9326 57.2465 18.0184 56.8086 17.2509 C 56.1892 16.1654 55.9628 14.8915 55.6953 13.6707 C 55.5883 13.1823 56.0489 12.5243 55.6953 12.1707 C 55.4318 11.9072 55.0287 12.5041 54.6953 12.6707 C 54.3472 12.4097 53.9154 12.1513 53.4252 11.9072 C 53.5142 11.9919 53.6043 12.0797 53.6953 12.1707 C 54.1667 12.6421 54.178 13.7109 53.6953 14.1707 C 53.6211 14.2415 53.5354 14.2664 53.442 14.2611 C 53.4581 14.2731 53.4727 14.2857 53.4859 14.299 C 54.649 15.4737 55.9207 16.7165 56.4314 18.2888 C 56.4515 18.3506 56.4661 18.4163 56.4755 18.4846 C 57.2447 18.6295 57.9946 18.8295 58.6953 19.1707 C 59.5944 19.6086 58.6953 21.1707 58.6953 22.1707 C 58.6953 22.4867 58.6367 22.789 58.5298 23.0673 C 58.315 23.6995 57.8215 24.4631 56.6879 24.6352 C 56.4921 25.4443 55.9052 25.9946 55.9052 25.9946 Z M 44.6953 37.1707 L 44.1745 36.4763 L 42.3134 37.4068 L 42.3111 37.4024 C 41.8351 37.6379 41.3588 37.8728 40.8822 38.1073 C 40.7859 38.4849 40.6953 38.8585 40.6953 39.1707 C 40.6953 39.1707 40.6953 39.2134 40.6898 39.2874 C 42.3787 39.31 44.1096 39.9192 45.8017 39.7454 C 46.0735 39.7175 45.4729 39.3089 45.3086 39.0906 C 45.8086 38.7573 46.5676 38.6411 46.8086 38.0906 C 46.9488 37.7704 46.115 37.6894 46.074 37.3423 C 46.0258 36.9348 46.0438 36.5278 46.0949 36.121 Z M 36.0397 40.4824 L 35.0541 40.9655 C 34.9601 41.0142 34.8625 41.057 34.7619 41.0935 C 34.9594 41.5305 35.2151 41.9605 35.567 42.3802 C 35.6936 42.5311 35.8963 42.0251 36.0821 42.0906 C 36.1699 42.1216 36.2521 42.167 36.3306 42.2216 C 36.3117 42.1786 36.3035 42.1348 36.3086 42.0906 C 36.3477 41.7455 36.6857 41.5903 37.0548 41.4485 C 36.5555 41.2236 36.2396 40.8567 36.0397 40.4824 Z M 36.9091 34.027 L 37.1177 34.3747 C 37.1799 34.3511 37.2399 34.3255 37.297 34.2976 C 38.8838 33.5197 40.4686 32.739 42.0493 31.9487 L 44.0773 30.9347 L 44.2159 31.2119 C 45.1483 30.5137 47.0318 29.2755 47.3086 29.0906 C 49.558 27.5876 50.0308 26.7586 50.8236 24.3802 L 51.4867 23.5689 C 50.4511 23.2634 49.6953 22.3053 49.6953 21.1707 C 49.6953 20.7508 49.7988 20.3551 49.9817 20.0077 L 50.6341 18.7029 C 50.518 18.6466 50.4368 18.591 50.4047 18.5424 C 49.6421 17.3849 49.2073 16.0332 48.8361 14.6891 C 47.8084 14.8787 46.2585 14.6707 45.6953 14.6707 L 44.1953 14.6707 C 44.1953 14.6707 44.0208 14.5627 43.7671 14.3735 C 43.4051 14.7212 43.1064 14.9471 42.9631 14.9385 C 40.3651 14.7824 37.9704 13.3228 35.7292 11.9994 C 33.6066 10.746 28.9257 11.4863 26.0596 11.6435 C 26.8984 12.0621 27.7539 12.7225 28.3882 13.3709 L 28.7801 13.1096 C 29.1825 12.8328 29.67 12.6707 30.1953 12.6707 C 31.576 12.6707 32.6953 13.79 32.6953 15.1707 C 32.6953 15.8611 32.4155 16.4861 31.9631 16.9385 L 28.9631 19.9385 L 28.742 19.7175 C 28.2506 20.0775 27.7453 20.4133 27.1953 20.6708 C 26.7425 20.8828 26.1505 20.8777 25.6953 20.6708 C 25.6948 20.6705 25.6942 20.6703 25.6937 20.67 C 25.4352 20.7111 25.145 20.7094 24.8201 20.6485 C 24.3076 20.7837 23.7959 20.8915 23.3168 20.9516 C 23.4096 21.834 23.631 23.9621 23.6839 24.869 C 23.9848 25.2979 24.2411 25.7797 24.4649 26.2797 L 24.5937 26.4653 C 24.5937 26.4653 24.6197 26.5536 24.6447 26.7013 C 25.0261 27.638 25.3082 28.6037 25.567 29.3802 C 25.567 29.3802 25.7728 29.9976 25.6594 30.7074 C 25.7346 30.7244 25.8115 30.7447 25.8902 30.7686 C 25.9556 30.7875 26.0198 30.8089 26.0828 30.8328 C 27.4214 31.3213 27.6933 32.3336 27.6935 33.075 C 27.6947 33.1067 27.6953 33.1387 27.6953 33.1707 C 27.6953 33.3604 27.6742 33.5451 27.6342 33.7227 C 29.0919 33.8687 30.7124 33.8171 31.8017 34.7454 C 32.395 35.251 32.8185 35.7683 33.1341 36.292 Z M 8.499 5.0375 L 7.9631 6.403 C 8.2542 6.6941 8.563 6.9549 8.8839 7.1949 C 9.637 7.4689 10.3295 7.8311 11.0198 8.5212 C 11.8817 9.0026 12.7482 9.4787 13.5369 10.0937 C 13.6805 9.8052 13.921 9.5696 14.1953 9.3525 L 14.1953 7.6707 C 14.1953 7.6707 15.9597 7.6707 16.7823 7.6707 C 16.9378 7.6363 17.1026 7.6162 17.2742 7.6173 C 15.6924 7.0518 13.7293 7.3608 11.8764 6.6503 C 9.5287 5.7501 8.4989 5.0375 8.4989 5.0375 Z M 18.5766 17.8129 C 18.5063 17.8493 18.4151 17.8529 18.3114 17.8389 C 18.5546 18.2245 18.6953 18.6812 18.6953 19.1707 C 18.6953 19.6961 18.5333 20.1835 18.2565 20.5859 L 17.9334 21.0706 C 18.1808 21.2159 18.4158 21.3561 18.6291 21.4852 C 18.6385 20.4045 18.7134 19.331 18.9596 18.3323 C 18.8299 18.1602 18.7025 17.9867 18.5766 17.8129 Z M 52.9953 14.0938 C 52.6451 13.8991 52.2683 13.626 51.9859 13.799 C 51.6559 14.0012 52.4194 13.9741 52.9953 14.0938 Z M 11.0848 17.8714 C 11.2529 17.8294 11.4209 17.7874 11.589 17.7454 C 12.0273 17.6358 12.48 17.339 12.9187 17.2243 C 12.4203 16.651 11.9785 16.0144 11.5899 15.3554 C 11.4699 16.1239 11.3149 17.0455 11.0848 17.8714 Z M 19.7195 10.4584 C 20.0018 10.4199 20.2797 10.3955 20.5433 10.386 C 20.2522 10.1134 19.9666 9.8329 19.6755 9.5603 C 19.7624 9.8776 19.7651 10.1809 19.7195 10.4584 Z M 10.5821 0.0906 C 11.3306 0.4636 11.7359 1.3852 12.5142 1.6912 C 14.4306 2.4445 16.6165 2.1588 18.6142 3.0085 C 20.3617 3.7518 22.2221 4.7039 23.2754 6.284 C 22.9154 6.4129 21.914 6.4117 22.1953 6.6707 C 22.6422 7.0823 26.0378 6.6707 26.6953 6.6707 C 30.6852 6.6707 35.219 6.0602 38.8527 8.0951 C 39.5798 8.5023 40.6622 8.8358 40.8049 9.6568 C 40.9318 10.3872 39.7621 10.7414 39.4275 11.403 C 39.0757 12.0986 40.6295 10.3938 41.1152 9.784 C 42.334 8.2536 43.5427 6.5238 45.3046 5.6731 C 45.9157 5.3781 46.6607 5.7296 47.3386 5.7621 C 51.1194 5.9435 54.6112 6.3577 57.6953 8.6707 C 58.6953 9.8374 59.9047 10.8531 60.6953 12.1707 C 60.9526 12.5995 61.0807 13.3523 60.6953 13.6707 C 60.3727 13.9373 59.2986 12.7828 59.5821 13.0906 C 62.1045 15.8291 67.073 17.4871 65.067 22.4613 C 63.5769 26.1564 59.8098 29.693 56.7308 32.1707 C 56.3963 32.44 52.6085 35.3166 51.4534 34.8599 C 51.4312 35.0985 51.407 35.3368 51.3773 35.5746 C 51.003 38.5725 50.7393 41.4794 48.0821 43.2509 C 47.1412 43.6132 44.0406 45.5761 42.589 44.0961 C 42.305 43.8066 43.3563 43.0375 42.9631 42.9385 C 41.8902 42.6684 41.4449 44.5584 40.5821 45.2509 C 38.9069 46.5954 37.1301 47.2509 34.8086 47.2509 C 32.0603 47.2509 30.521 43.0536 29.8236 40.9613 C 29.6569 40.4613 29.0659 39.921 29.3236 39.4613 C 29.531 39.0913 30.9688 39.7849 30.589 39.5961 C 27.2027 37.9126 25.5818 39.5288 23.0375 36.8813 L 21.77 36.5644 L 22.0033 35.6309 C 21.944 35.5497 21.8841 35.4661 21.8236 35.3802 C 21.2758 34.6018 22.2608 33.5985 22.7026 32.6749 C 21.3191 32.4479 20.8236 30.9613 20.8236 30.9613 C 20.3396 29.5092 20.052 27.5326 18.4275 26.9385 C 18.1835 26.8492 18.9187 27.538 18.6953 27.6707 C 18.2655 27.9262 17.5489 28.0243 17.1953 27.6707 C 16.4246 26.9 15.8337 25.9635 15.327 24.9846 C 14.9302 25.0922 14.3413 24.9755 14.1953 24.6707 C 13.8733 23.9984 13.6941 23.2783 13.5706 22.5397 C 13.2963 22.5401 13.0223 22.5409 12.8017 22.5961 L 12.8017 22.5961 C 11.4683 22.9294 9.943 24.3617 8.8017 23.5961 C 7.416 22.6666 6.5842 14.3072 6.9826 12.7137 C 7.0144 12.5866 7.0462 12.4595 7.078 12.3324 C 6.733 12.0977 7.9531 -1.2191 10.5821 0.0906 Z M 36.7553 42.6021 C 37.0054 42.8516 37.2536 43.0906 37.5821 43.0906 C 37.9362 43.0906 37.2511 42.891 36.7553 42.6021 Z " fill="#ffae38" stroke-width="0.5" stroke="none"/><path d="M 71.6953 51.1707 C 71.6953 49.79 72.8146 48.6707 74.1953 48.6707 C 75.576 48.6707 76.6953 49.79 76.6953 51.1707 C 76.6953 52.5515 75.576 53.6707 74.1953 53.6707 C 72.8146 53.6707 71.6953 52.5515 71.6953 51.1707 Z " fill="#ffae38" stroke-width="0.5" stroke="none"/><path d="M 78.6953 15.1707 C 78.6953 13.79 79.8146 12.6707 81.1953 12.6707 C 82.576 12.6707 83.6953 13.79 83.6953 15.1707 C 83.6953 16.5514 82.576 17.6707 81.1953 17.6707 C 79.8146 17.6707 78.6953 16.5514 78.6953 15.1707 Z " fill="#ffae38" stroke-width="0.5" stroke="none"/><path d="M 59.6953 3.1707 C 59.6953 1.79 60.8146 0.6707 62.1953 0.6707 C 63.576 0.6707 64.6953 1.79 64.6953 3.1707 C 64.6953 4.5514 63.576 5.6707 62.1953 5.6707 C 60.8146 5.6707 59.6953 4.5514 59.6953 3.1707 Z " fill="#ffae38" stroke-width="0.5" stroke="none"/><path d="M 71.6953 31.1707 C 71.6953 29.79 72.8146 28.6707 74.1953 28.6707 C 75.576 28.6707 76.6953 29.79 76.6953 31.1707 C 76.6953 32.5515 75.576 33.6707 74.1953 33.6707 C 72.8146 33.6707 71.6953 32.5515 71.6953 31.1707 Z " fill="#ffae38" stroke-width="0.5" stroke="none"/></g></g></svg>