<svg xmlns="http://www.w3.org/2000/svg" xmlns:xlink="http://www.w3.org/1999/xlink" version="1.1" width="83.70464" height="82.03371" viewBox="0,0,83.70464,82.03371"><g><g data-paper-data="{&quot;isPaintingLayer&quot;:true}" fill-rule="nonzero" stroke-linejoin="miter" stroke-miterlimit="10" stroke-dasharray="" stroke-dashoffset="0" style="mix-blend-mode: normal"><g><g><g data-paper-data="{&quot;index&quot;:null}" stroke-linecap="butt"><path d="M 27.2867 40.4761 C 27.2867 43.2047 22.4362 45.4166 16.4529 45.4166 C 10.4695 45.4166 5.619 43.2047 5.619 40.4761 C 5.619 37.7475 10.4695 35.5356 16.4529 35.5356 C 22.4362 35.5356 27.2867 37.7475 27.2867 40.4761 Z " fill="#99712c" stroke="#b28434" stroke-width="2"/><path d="M235.93609,187.42883l0.04724,-8.8811c0,0 5.70566,0.33263 7.84183,2.55096c2.13616,2.21832 0.7086,6.33015 0.7086,6.33015z" fill="#a77c31" stroke="none" stroke-width="0" transform="matrix(1,0,0,1,-218.14768,-141.98316)"/></g><g stroke-linecap="butt"><path d="M 15.4727 46.6741 C 12.1717 48.9249 9.4977 47.7459 7.7739 45.2177 C 6.0501 42.6896 5.9292 39.7697 9.2303 37.5189 C 12.5314 35.2681 18.0229 34.4406 19.7467 36.9687 C 21.4705 39.4968 18.7738 44.4233 15.4727 46.6741 Z " data-paper-data="{&quot;index&quot;:null}" fill="#ffffee" stroke="#000000" stroke-width="1"/><path d="M 15.4224 45.2291 C 14.2691 46.0154 12.8934 46.0063 12.3496 45.2088 C 11.8057 44.4112 12.2998 43.1272 13.453 42.3409 C 14.6063 41.5545 15.982 41.5636 16.5258 42.3612 C 17.0696 43.1588 16.5756 44.4428 15.4224 45.2291 Z " data-paper-data="{&quot;index&quot;:null}" fill="#80ab52" stroke="#548029" stroke-width="1"/><path d="M 13.7142 38.3114 C 12.4468 38.6713 10.1236 38.1738 9.9348 37.5087 C 9.7459 36.8436 11.6706 36.2114 12.938 35.8515 C 14.2054 35.4916 16.2837 35.1269 16.4725 35.7919 C 16.6614 36.457 14.9816 37.9515 13.7142 38.3114 Z " data-paper-data="{&quot;index&quot;:null}" fill="#80ab52" stroke="#548029" stroke-width="1"/><path d="M 9.7611 43.8862 C 8.9959 44.408 7.7386 44.7354 7.0404 43.7115 C 6.3423 42.6876 6.4286 40.7267 7.2577 40.047 C 7.974 39.4598 9.1844 40.0636 9.8826 41.0875 C 10.5807 42.1114 10.5263 43.3644 9.7611 43.8862 Z " data-paper-data="{&quot;index&quot;:null}" fill="#80ab52" stroke="#548029" stroke-width="1"/><path d="M 19.5365 40.823 C 18.8898 41.2639 18.0677 41.1845 17.7003 40.6456 C 17.3328 40.1067 17.5592 39.3124 18.2059 38.8715 C 18.8525 38.4305 19.6747 38.5099 20.0421 39.0488 C 20.4095 39.5877 20.1832 40.382 19.5365 40.823 Z " data-paper-data="{&quot;index&quot;:null}" fill="#80ab52" stroke="#548029" stroke-width="1"/><path d="M 15.4727 46.6741 C 12.1717 48.9249 9.4977 47.7459 7.7739 45.2177 C 6.0501 42.6896 5.9292 39.7697 9.2303 37.5189 C 12.5314 35.2681 18.0229 34.4406 19.7467 36.9687 C 21.4705 39.4968 18.7738 44.4233 15.4727 46.6741 Z " data-paper-data="{&quot;index&quot;:null}" fill="none" stroke="#000000" stroke-width="1"/></g><g stroke-linecap="butt"><path d="M 25.9312 34.4605 C 26.3039 38.4385 23.9783 40.2081 20.9317 40.4935 C 17.8852 40.779 15.2713 39.472 14.8986 35.4941 C 14.5259 31.5161 16.4587 26.3097 19.5053 26.0243 C 22.5518 25.7388 25.5585 30.4825 25.9312 34.4605 Z " data-paper-data="{&quot;index&quot;:null}" fill="#ffffee" stroke="#000000" stroke-width="1"/><path d="M 20.14 32.6935 C 20.3418 34.8472 19.391 36.6975 18.0163 36.8263 C 16.6416 36.9551 14.4923 37.404 14.9693 33.1152 C 15.2084 30.9653 15.9109 29.1559 17.2856 29.0271 C 18.6603 28.8983 19.9382 30.5398 20.14 32.6935 Z " fill="#ff0000" stroke="#de0000" stroke-width="1"/><path d="M 25.0959 31.319 C 25.1941 32.3672 23.7324 31.8548 22.9247 31.9304 C 22.1171 32.0061 21.3828 31.2177 21.2846 30.1695 C 21.1864 29.1213 21.2209 27.1309 22.0286 27.0553 C 22.8362 26.9796 24.9977 30.2708 25.0959 31.319 Z " fill="#ff0000" stroke="#de0000" stroke-width="1"/><path d="M 25.7412 36.5315 C 25.8458 37.6485 25.1297 38.629 24.1416 38.7215 C 23.1536 38.8141 22.2678 37.9837 22.1631 36.8667 C 22.0585 35.7498 22.7746 34.7693 23.7627 34.6767 C 24.7507 34.5842 25.6365 35.4146 25.7412 36.5315 Z " fill="#ff0000" stroke="#de0000" stroke-width="1"/><path d="M 25.9319 34.4676 C 26.3046 38.4456 23.979 40.2152 20.9324 40.5007 C 17.8858 40.7861 15.272 39.4792 14.8993 35.5012 C 14.5266 31.5232 16.4594 26.3168 19.5059 26.0314 C 22.5525 25.746 25.5592 30.4896 25.9319 34.4676 Z " data-paper-data="{&quot;index&quot;:null}" fill="none" stroke="#000000" stroke-width="1"/></g><g stroke-linecap="butt"><path d="M 27.2582 43.1155 C 27.2582 47.1109 24.7776 48.6559 21.7177 48.6559 C 18.6578 48.6559 16.1773 47.1109 16.1773 43.1155 C 16.1773 39.1201 18.5872 34.1167 21.6471 34.1167 C 24.707 34.1167 27.2582 39.1201 27.2582 43.1155 Z " data-paper-data="{&quot;index&quot;:null}" fill="#ffffee" stroke="#000000" stroke-width="1"/><path d="M 20.487 42.1033 C 20.3391 45.2568 18.5956 45.712 17.2815 45.712 C 15.9673 45.712 16.3228 43.5407 16.2878 42.2772 C 16.6357 39.3959 17.6195 36.2772 18.6728 37.4511 C 19.5504 38.4293 20.6097 39.4887 20.487 42.1033 Z " fill="#f3f348" stroke="#d6d841" stroke-width="1"/><path d="M 26.815 45.5163 C 26.815 46.1767 25.6905 47.7555 25.0541 47.7555 C 24.4178 47.7555 23.8585 46.1767 23.8585 45.5163 C 23.8585 44.856 24.3743 44.3207 25.0107 44.3207 C 25.647 44.3207 26.815 44.856 26.815 45.5163 Z " fill="#f3f348" stroke="#d6d841" stroke-width="1"/><path d="M 27.1628 41.7555 C 27.117 42.8385 25.4673 41.7989 24.6628 41.7989 C 23.8584 41.7989 23.2063 40.923 23.2063 39.8424 C 23.2063 38.7619 24.2932 36.7555 25.0976 36.7555 C 25.902 36.7555 27.2066 40.7219 27.1628 41.7555 Z " fill="#f3f348" stroke="#d6d841" stroke-width="1"/><path d="M 27.2582 43.1224 C 27.2582 47.1178 24.7776 48.6628 21.7177 48.6628 C 18.6578 48.6628 16.1773 47.1178 16.1773 43.1224 C 16.1773 39.127 18.5872 34.1236 21.6471 34.1236 C 24.707 34.1236 27.2581 39.127 27.2581 43.1224 Z " data-paper-data="{&quot;index&quot;:null}" fill="none" stroke="#000000" stroke-width="1"/></g><g stroke-linecap="butt"><path d="M 18.2667 35.9331 C 17.3718 39.827 14.6082 40.7772 11.6261 40.0919 C 8.6439 39.4065 6.5725 37.3452 7.4673 33.4512 C 8.3622 29.5573 11.8316 25.2208 14.8138 25.9062 C 17.7959 26.5915 19.1616 32.0392 18.2667 35.9331 Z " data-paper-data="{&quot;index&quot;:null}" fill="#ffffee" stroke="#000000" stroke-width="1"/><path d="M 12.3017 32.7041 C 11.6455 33.5517 10.6763 33.9003 10.1369 33.4827 C 9.5975 33.0651 9.6923 32.0395 10.3485 31.1919 C 11.0047 30.3443 11.974 29.9957 12.5133 30.4133 C 13.0527 30.8309 12.958 31.8566 12.3017 32.7041 Z " data-paper-data="{&quot;index&quot;:null}" fill="#4848ab" stroke="#3b3b8d" stroke-width="1"/><path d="M 17.4564 37.8833 C 17.0454 38.8096 16.4141 39.5266 15.6353 39.3476 C 14.8565 39.1687 14.4092 38.2229 14.6362 37.2351 C 14.8632 36.2474 15.4923 35.7659 16.4573 35.7708 C 19.3026 35.7852 17.7581 37.2035 17.4564 37.8833 Z " data-paper-data="{&quot;index&quot;:null}" fill="#4848ab" stroke="#3b3b8d" stroke-width="1"/><path d="M 9.1464 35.7562 C 9.7732 35.9003 10.1681 36.5098 10.0284 37.1176 C 9.8887 37.7254 9.2673 38.1014 8.6405 37.9574 C 8.0137 37.8133 7.6188 37.2038 7.7585 36.596 C 7.8982 35.9881 8.5196 35.6122 9.1464 35.7562 Z " data-paper-data="{&quot;index&quot;:null}" fill="#4848ab" stroke="#3b3b8d" stroke-width="1"/><path d="M 15.8143 27.0189 C 16.468 26.6779 17.2408 27.5706 17.778 29.1505 C 17.9301 29.5977 19.0209 31.3177 16.4683 32.2595 C 15.7766 32.5148 15.1137 31.7633 14.9029 30.3894 C 14.692 29.0156 15.1606 27.3599 15.8143 27.0189 Z " data-paper-data="{&quot;index&quot;:null}" fill="#4848ab" stroke="#3b3b8d" stroke-width="1"/><path d="M 18.2667 35.9331 C 17.3718 39.827 14.6082 40.7772 11.6261 40.0919 C 8.6439 39.4065 6.5724 37.3451 7.4673 33.4512 C 8.3622 29.5573 11.8316 25.2208 14.8138 25.9062 C 17.7959 26.5915 19.1616 32.0392 18.2667 35.9331 Z " data-paper-data="{&quot;index&quot;:null}" fill="none" stroke="#000000" stroke-width="1"/></g><path d="M 27.2867 40.5114 C 27.7067 40.2003 27.2788 63.0779 24.0491 63.0678 C 23.0833 63.0647 13.6741 63.0649 11.7241 62.8496 C 7.8948 62.4268 6.3954 46.2018 5.6896 41.2878 C 5.5893 40.5898 7.8073 45.346 16.8763 45.2755 C 23.0544 45.2274 27.3789 42.8664 27.2867 40.5114 Z " data-paper-data="{&quot;index&quot;:null}" fill="#eebb44" stroke="#c7933a" stroke-width="2" stroke-linecap="butt"/><g data-paper-data="{&quot;index&quot;:null}"><path d="M236.07781,204.52968v-16.91189l8.83386,-2.26752l-1.08652,19.17941z" fill="#e1b141" stroke="none" stroke-width="0" stroke-linecap="butt" transform="matrix(1,0,0,1,-218.14768,-141.98316)"/><path d="M 15.3589 51.1335 L 21.0758 51.1335 " fill="none" stroke="#c5923a" stroke-width="2" stroke-linecap="round"/><path d="M 16.9116 55.1565 L 21.0758 55.0859 " fill="none" stroke="#c5923a" stroke-width="2" stroke-linecap="round"/><path d="M 21.1464 58.0502 L 17.5468 58.0502 " fill="none" stroke="#c5923a" stroke-width="1" stroke-linecap="round"/><path d="M 26.2986 43.9345 C 26.2986 43.9345 22.4468 46.8028 17.1242 46.7117 C 11.9801 46.6238 7.0773 44.239 7.0773 44.239 " fill="none" stroke="#b28434" stroke-width="1" stroke-linecap="round"/></g><path d="M 27.2867 40.5114 C 27.7067 40.2003 27.2788 63.0779 24.0491 63.0678 C 23.0833 63.0647 13.6741 63.0649 11.7241 62.8496 C 7.8948 62.4268 6.3954 46.2018 5.6896 41.2878 C 5.5893 40.5898 7.8073 45.346 16.8763 45.2755 C 23.0544 45.2274 27.3789 42.8664 27.2867 40.5114 Z " data-paper-data="{&quot;index&quot;:null}" fill="none" stroke="#c7933a" stroke-width="2" stroke-linecap="butt"/></g><g><g><path d="M 23.211 71.3482 C 23.211 71.3482 24.987 74.3103 24.5852 76.7921 C 24.1542 79.4544 20.6889 79.4481 18.2957 77.6906 C 15.9025 75.9331 16.4987 71.2954 16.4987 71.2954 Z " fill="#ffffee" stroke="#000000" stroke-width="2" stroke-linecap="round"/><path d="M 1 60.6558 C 1 57.167 3.8283 54.3387 7.3171 54.3387 C 10.8059 54.3387 13.6342 57.167 13.6342 60.6558 C 13.6342 64.1447 10.806 66.973 7.3171 66.973 C 3.8283 66.973 1 64.1447 1 60.6558 Z " fill="#ffffee" stroke="#000000" stroke-width="2" stroke-linecap="butt"/><path d="M 32.5069 70.0425 C 32.5069 70.0425 33.7609 71.1506 35.7048 71.7201 C 37.6486 72.2897 38.5076 71.075 39.7939 72.5065 C 41.0802 73.938 41.1309 77.7179 39.4887 79.058 C 36.2798 81.6767 29.5799 75.8396 27.516 75.2177 C 25.4522 74.5958 21.9933 70.2378 18.1427 72.2968 C 14.2921 74.3558 21.7436 73.9467 19.9251 79.0595 C 18.7767 82.2882 13.5881 80.9502 11.1703 79.3216 C 8.5583 77.5622 7.8236 74.9603 7.1336 71.9822 C 6.4437 69.0041 6.9543 62.5466 10.7509 60.1868 C 14.5474 57.8271 31.7206 60.8159 31.7206 60.8159 C 31.7206 60.8159 42.5109 65.1684 49.2827 68.2601 C 56.0544 71.3519 54.6214 69.614 56.1757 71.2295 C 58.0503 73.178 55.3361 76.7644 53.0423 78.0795 C 50.7485 79.3946 48.5991 77.8415 47.3954 76.0713 C 46.1917 74.3012 48.8108 72.0871 48.8108 72.0871 Z " fill="#ffffee" stroke="#000000" stroke-width="2" stroke-linecap="round"/><path d="M 36.7362 65.8634 C 36.7737 65.8956 36.8137 65.9309 36.8556 65.9691 C 36.9706 65.9405 37.087 65.9148 37.2045 65.8921 C 38.9873 65.547 41.0294 65.8753 42.6181 66.8286 C 43.318 67.2485 43.6937 68.4001 44.3028 68.73 C 45.1822 69.2063 53.1958 71.6691 53.6042 73.0647 C 53.8394 73.8685 46.3997 75.1372 45.6718 75.1406 C 43.6144 75.1504 44.2139 75.522 42.0727 75.2115 C 40.7216 75.0156 34.2619 72.5936 34.1856 72.5526 C 33.0312 71.9516 32.7644 72.2929 31.385 72.3953 C 29.7905 72.5137 29.4044 73.4901 26.5348 71.6203 C 24.3071 70.1687 25.2288 66.8275 26.8039 65.3364 C 29.1432 63.1219 34.152 63.0371 36.4532 65.7219 Z " fill="#ffffee" stroke="none" stroke-width="0.5" stroke-linecap="butt"/><path d="M 34.2578 66.3296 C 34.2578 66.3296 37.6146 69.0768 37.8976 71.4237 " fill="none" stroke="#c7933a" stroke-width="2" stroke-linecap="round"/></g><path d="M 32.5902 70.0425 C 32.5902 70.0425 33.8443 71.1506 35.7881 71.7201 C 37.732 72.2897 38.5909 71.075 39.8772 72.5065 C 41.1635 73.938 41.2142 77.7179 39.572 79.058 C 36.3631 81.6767 29.6632 75.8396 27.5993 75.2177 C 25.5355 74.5958 22.0766 70.2378 18.226 72.2968 C 14.3755 74.3558 21.827 73.9467 20.0084 79.0595 C 18.86 82.2882 13.6714 80.9502 11.2536 79.3216 C 8.6416 77.5622 7.9069 74.9603 7.217 71.9822 C 6.527 69.0041 7.0377 62.5466 10.8342 60.1868 C 14.6308 57.8271 31.8039 60.8159 31.8039 60.8159 C 31.8039 60.8159 42.5943 65.1684 49.366 68.2601 C 56.1377 71.3519 54.7047 69.614 56.259 71.2295 C 58.1337 73.178 55.4195 76.7644 53.1257 78.0795 C 50.8319 79.3946 48.6824 77.8415 47.4787 76.0713 C 46.275 74.3012 48.8942 72.0871 48.8942 72.0871 " fill="none" stroke="#000000" stroke-width="2" stroke-linecap="round"/><path d="M 47.0284 75.8092 L 40.923 75.8831 " fill="none" stroke="#000000" stroke-width="2" stroke-linecap="round"/></g><g><g data-paper-data="{&quot;index&quot;:null}" stroke-linecap="round"><path d="M 51.3191 34.0147 C 51.3191 34.0147 57.8939 27.62 69.137 27.2689 C 78.9867 28.2061 82.667 33.1909 82.7046 34.543 C 83.5967 39.646 75.3743 40.176 71.8629 40.3277 C 70.0108 40.4078 66.9451 39.4958 63.9771 39.0943 C 58.2808 38.3238 52.4087 37.7353 52.4087 37.7353 Z " fill="#ffffee" stroke="#000000" stroke-width="2"/><path d="M 52.6938 35.2246 C 52.6938 35.2246 67.3634 30.3465 71.0162 30.3894 C 74.669 30.4323 80.5142 33.7889 79.3498 35.1528 C 78.0847 36.6346 70.9937 35.493 65.5234 35.5225 C 60.0531 35.5521 52.7252 36.0245 52.7252 36.0245 Z " fill="#dd77bb" stroke="#cb6eac" stroke-width="1"/></g><g data-paper-data="{&quot;index&quot;:null}" stroke-linecap="round"><path d="M 33.375 33.1262 C 31.889 26.5663 31.5693 16.3443 32.8704 12.003 C 34.1716 7.6617 36.7336 4.5209 39.6906 2.6972 C 42.6776 0.855 44.305 0.4659 48.1934 1.7592 C 50.8071 3.4495 50.3667 8.4732 50.1881 10.6738 C 47.9055 17.4404 39.4201 25.5837 38.294 35.3936 Z " fill="#ffffee" stroke="#000000" stroke-width="2"/><path d="M 34.5151 33.4278 C 33.5948 29.365 34.5946 20.6745 35.4005 17.9857 C 37.1196 10.9513 42.2074 3.9409 44.6156 4.7419 C 47.0955 5.5667 42.8036 16.0233 42.1642 17.299 C 41.3645 18.8943 37.6014 28.3939 36.904 34.4697 Z " fill="#dd77bb" stroke="#cb6eac" stroke-width="1"/></g><path d="M 37.1134 32.1373 C 42.4303 30.679 49.0728 31.6495 51.1465 32.1373 C 54.3291 32.8861 59.154 39.5 65.6417 47.4611 C 66.0231 51.4836 66.2971 54.3678 65.011 58.9634 C 63.6553 60.5851 62.1135 63.9577 55.4305 66.5532 C 53.163 67.4339 36.8003 67.2836 34.5585 66.7035 C 22.4439 63.5685 20.5025 53.4797 21.0326 49.2701 C 21.5627 45.0606 21.1382 43.4018 24.9401 39.3512 C 28.742 35.3005 31.7965 33.5957 37.1134 32.1374 Z " data-paper-data="{&quot;index&quot;:null}" fill="#ffffee" stroke="#000000" stroke-width="2" stroke-linecap="round"/><g><path d="M 60.974 47.5232 C 62.9128 47.5232 64.4494 49.6211 64.4494 51.859 C 64.4494 54.097 63.5976 55.7734 61.6588 55.7734 C 59.72 55.7734 60.3337 53.3714 60.3337 51.1335 C 60.3337 48.8955 59.0352 47.5232 60.974 47.5232 Z " data-paper-data="{&quot;index&quot;:null}" fill="#dd77bb" stroke="#cb6eac" stroke-width="1" stroke-linecap="butt"/><g data-paper-data="{&quot;index&quot;:null}" stroke-linecap="butt"><path d="M 50.7698 46.1016 C 50.7698 44.054 52.4298 42.3941 54.4774 42.3941 C 56.525 42.3941 58.1849 44.054 58.1849 46.1016 C 58.1849 48.1492 56.525 49.8092 54.4774 49.8092 C 52.4298 49.8092 50.7698 48.1492 50.7698 46.1016 Z " fill="#a93132" stroke="#a93132" stroke-width="1"/><path d="M275.40786,186.56035c0.12046,0.19444 -0.1839,0.7057 -0.13243,1.01848c0.05014,0.30471 0.45682,0.4112 0.51945,0.58703c0.27553,0.77342 -0.88482,1.57854 -1.25484,0.86104c-0.19169,-0.3717 -0.78225,-0.25238 -1.03959,-0.66773c-0.22655,-0.36568 -0.4402,-0.95519 -1.38788,-1.2611c-1.02701,-0.33152 -0.66797,-1.71859 -0.33347,-1.92583c0.25743,-0.15949 1.54315,-0.69565 1.84763,0.12187c0.26412,0.70912 1.43302,0.7044 1.78112,1.26626z" fill="#ffffff" stroke="#000000" stroke-width="0" transform="matrix(1,0,0,1,-218.14768,-141.98316)"/></g><g data-paper-data="{&quot;index&quot;:null}" stroke-linecap="butt"><path d="M 41.3849 45.8099 C 41.3849 44.5139 42.4355 43.4633 43.7315 43.4633 C 45.0275 43.4633 46.078 44.5139 46.078 45.8099 C 46.078 47.1058 45.0275 48.1564 43.7315 48.1564 C 42.4355 48.1564 41.3849 47.1059 41.3849 45.8099 Z " fill="#a93132" stroke="#a93132" stroke-width="1"/><path d="M261.83614,187.29831c0,-0.55619 0.45088,-1.00707 1.00707,-1.00707c0.55619,0 1.00707,0.45088 1.00707,1.00707c0,0.55619 -0.45088,1.00707 -1.00707,1.00707c-0.29174,0 -0.13175,-0.20861 -0.31567,-0.40685c-0.16671,-0.17969 -0.69139,-0.33578 -0.69139,-0.60022z" fill="#ffffff" stroke="none" stroke-width="0" transform="matrix(1,0,0,1,-218.14768,-141.98316)"/></g><path d="M 22.8589 51.0196 C 22.8589 48.7598 24.8164 47.1733 27.0331 47.1733 C 29.2498 47.1733 31.0066 49.2917 31.0066 51.5515 C 31.0066 53.8113 28.9287 55.5614 26.712 55.5614 C 24.4953 55.5614 22.8589 53.2794 22.8589 51.0196 Z " data-paper-data="{&quot;index&quot;:null}" fill="#dd77bb" stroke="#cb6eac" stroke-width="1" stroke-linecap="butt"/><path d="M267.62149,195.17385c0,0 -2.36667,-0.57974 -2.36667,-1.85c0,-1.27026 1.11776,-1.4 2.86666,-1.4c1.7489,0 2.26667,0.12975 2.26667,1.4c0,1.27026 -2.76667,1.85 -2.76667,1.85z" fill="#de5566" stroke="#000000" stroke-width="0" stroke-linecap="butt" transform="matrix(1,0,0,1,-218.14768,-141.98316)"/><path d="M 58.8461 53.9826 C 58.4712 55.2042 56.6349 56.8045 53.7826 56.8788 C 52.0485 56.9239 50.3449 57.5683 49.0672 57.556 C 48.4163 57.5498 46.8561 57.1805 45.6395 57.0561 C 42.9176 56.7779 41.4829 55.7627 40.6737 54.6761 C 40.2266 54.0757 40.2161 52.1386 40.5711 52.1724 C 41.079 52.2856 41.0145 53.8562 41.3124 54.1989 C 42.0626 55.0618 43.8933 55.1343 44.9322 54.8329 C 45.4385 54.6861 47.2297 53.9259 47.8921 53.7282 C 49.2223 53.3311 50.8231 53.7057 50.8231 53.7057 C 50.8231 53.7057 53.4154 54.5155 54.6268 55.0137 C 55.2013 55.2501 55.0322 55.0257 55.7753 55.0956 C 56.8585 55.1974 58.1283 54.8701 58.4912 53.9852 C 58.694 53.4905 57.4806 52.8666 57.911 52.5665 C 57.992 52.5101 58.8241 53.1256 58.7646 53.3195 Z " data-paper-data="{&quot;index&quot;:null}" fill="#a93132" stroke="#651d1d" stroke-width="1" stroke-linecap="butt"/><path d="M266.26235,198.07233l-0.11361,-1.88295c0,0 0.99647,-0.11361 1.40886,-0.11361c0.43133,0 1.38047,0.08521 1.38047,0.08521l-0.14201,1.91136z" fill="#ffffee" stroke="none" stroke-width="0" stroke-linecap="butt" transform="matrix(1,0,0,1,-218.14768,-141.98316)"/><path d="M 49.3531 55.8719 L 49.3531 54.1678 " fill="none" stroke="#000000" stroke-width="0.5" stroke-linecap="round"/><path d="M 56.3685 56.3993 C 56.3685 56.3993 57.9992 56.5382 57.7602 57.4218 C 57.4617 58.5255 56.6241 58.3022 56.6241 58.3022 " fill="none" stroke="#651d1d" stroke-width="1" stroke-linecap="round"/></g></g></g><path d="" data-paper-data="{&quot;index&quot;:null}" fill="#ffffee" stroke="#000000" stroke-width="2" stroke-linecap="round" transform="matrix(1,0,0,1,-218.14768,-141.98316)"/><path d="" data-paper-data="{&quot;index&quot;:null}" fill="#dd77bb" stroke="#cb6eac" stroke-width="1" stroke-linecap="round" transform="matrix(1,0,0,1,-218.14768,-141.98316)"/><path d="" fill="none" stroke="#ff0000" stroke-width="2" stroke-linecap="round" transform="matrix(1,0,0,1,-218.14768,-141.98316)"/></g></g></svg>