<svg version="1.1" xmlns="http://www.w3.org/2000/svg" xmlns:xlink="http://www.w3.org/1999/xlink" width="133.44683" height="157.4063" viewBox="0,0,133.44683,157.4063"><g transform="translate(-194.37638,-88.46586)"><g data-paper-data="{&quot;isPaintingLayer&quot;:true}" fill-rule="nonzero" stroke-linejoin="miter" stroke-miterlimit="10" stroke-dasharray="" stroke-dashoffset="0" style="mix-blend-mode: normal"><g><path d="M258.11838,100.57706l-8.3824,5.1346" data-paper-data="{&quot;origPos&quot;:null,&quot;index&quot;:null,&quot;origRot&quot;:0}" fill="none" stroke="#000000" stroke-width="2.5" stroke-linecap="round"/><g><g stroke="none" stroke-linecap="butt"><path d="M280.75147,130.8834l-1.37684,-10.31695l19.58484,-2.71639l1.37684,10.31695z" fill="#4e4e4e" stroke-width="NaN"/><path d="M299.51151,129.81576l-1.6679,-13.15819c0,0 9.11101,-2.99628 17.07571,-2.20719c7.96471,0.7891 12.90389,4.86159 12.90389,4.86159c0,0 -3.58622,5.38503 -11.23599,8.2966c-7.95215,3.02665 -17.07571,2.20719 -17.07571,2.20719z" fill="#ff4141" stroke-width="NaN"/></g><g><path d="M197.28019,148.04879l-2.90381,-24.83078l96.34344,-11.2668l2.90382,24.83078z" data-paper-data="{&quot;origPos&quot;:null,&quot;origRot&quot;:0}" fill="#6b6b6b" stroke="none" stroke-width="0" stroke-linecap="butt"/><path d="M283.49998,107.25006c0,5.3847 -2.4624,9.75 -5.5,9.75c-3.0375,0 -5.5,-4.3653 -5.5,-9.75c0,-5.3848 2.4625,-9.75 5.5,-9.75c3.0376,0 5.5,4.3652 5.5,9.75z" fill="none" stroke="#6b6b6b" stroke-width="2" stroke-linecap="butt"/><path d="M277.99998,97.66666v18.6667" data-paper-data="{&quot;origPos&quot;:null}" fill="none" stroke="#6b6b6b" stroke-width="2" stroke-linecap="round"/><path d="M282.99998,106.66666h-10" data-paper-data="{&quot;origPos&quot;:null}" fill="none" stroke="#6b6b6b" stroke-width="2" stroke-linecap="round"/></g><path d="M241.35738,137.90626v67.2971l-12.0476,38.9188" data-paper-data="{&quot;origPos&quot;:null}" fill="none" stroke="#000000" stroke-width="3.5" stroke-linecap="round"/><path d="M242.16058,203.76656l12.0476,40.1588" fill="none" stroke="#000000" stroke-width="3.5" stroke-linecap="round"/><path d="M217.26218,115.01586c0,-13.9728 11.3272,-25.3 25.3,-25.3c13.9728,0 25.3,11.3272 25.3,25.3c0,13.9727 -11.3272,25.3 -25.3,25.3c-13.9728,0 -25.3,-11.3273 -25.3,-25.3z" data-paper-data="{&quot;origPos&quot;:null}" fill="#d4d4d4" stroke="#000000" stroke-width="2.5" stroke-linecap="butt"/><path d="M250.47801,108.32534c0,-2.66149 2.15756,-4.81905 4.81905,-4.81905c2.66149,0 4.81905,2.15756 4.81905,4.81905c0,2.66149 -2.15756,4.81905 -4.81905,4.81905c-2.66149,0 -4.81905,-2.15756 -4.81905,-4.81905z" data-paper-data="{&quot;origPos&quot;:null}" fill="#000000" stroke="none" stroke-width="0" stroke-linecap="butt"/><path d="M237.23248,109.01806c0,0 2.0962,-1.6783 3.4379,-1.6857c1.6536,-0.0092 4.2373,1.6431 4.2373,1.6431" data-paper-data="{&quot;origPos&quot;:null,&quot;origRot&quot;:0}" fill="none" stroke="#000000" stroke-width="2.5" stroke-linecap="round"/><path d="M231.35578,181.80156c0,0 1.4892,-15.6792 3.0823,-22.1944c1.8015,-7.367 5.6161,-13.3771 5.6161,-13.3771" data-paper-data="{&quot;origPos&quot;:null}" fill="none" stroke="#000000" stroke-width="3.5" stroke-linecap="round"/><path d="M267.44308,143.80156c0,0 -1.4288,17.3758 -11.2311,18.3205c-9.8023,0.9447 -13.9673,-15.892 -13.9673,-15.892" data-paper-data="{&quot;origPos&quot;:null,&quot;index&quot;:null}" fill="none" stroke="#000000" stroke-width="3.5" stroke-linecap="round"/><path d="M268.99998,154.99996v-20.5" data-paper-data="{&quot;origPos&quot;:null}" fill="none" stroke="#6b6b6b" stroke-width="5" stroke-linecap="round"/><g><path d="M228.93715,184.07058l-6.76802,6.76802" fill="none" stroke="#4d4d4d" stroke-width="0.5" stroke-linecap="round"/><path d="M234.12547,185.05028l-3.18198,3.18198l-6.13668,-6.13668l3.18198,-3.18198z" fill="#c1c1c1" stroke="none" stroke-width="0" stroke-linecap="butt"/><path d="M232.54295,183.21811c1.97162,-1.30962 4.19366,-1.43226 4.96305,-0.27393c0.7694,1.15833 -0.20519,3.15899 -2.17681,4.46861c-1.97162,1.30962 -4.19366,1.43226 -4.96305,0.27393c-0.7694,-1.15833 0.20519,-3.15899 2.17681,-4.46861z" fill="#c1c1c1" stroke="none" stroke-width="0" stroke-linecap="butt"/><path d="M225.17558,182.44565c-1.15833,-0.7694 -1.03569,-2.99144 0.27393,-4.96306c1.30962,-1.97162 3.31028,-2.94621 4.46861,-2.17681c1.15833,0.7694 1.03569,2.99144 -0.27393,4.96306c-1.30962,1.97162 -3.31028,2.94621 -4.46861,2.17681z" data-paper-data="{&quot;index&quot;:null}" fill="#c1c1c1" stroke="none" stroke-width="0" stroke-linecap="butt"/><path d="M231.54815,185.86056c-0.44795,0.44795 -1.17423,0.44795 -1.62219,0c-0.44795,-0.44795 -0.44795,-1.17423 0,-1.62219c0.44795,-0.44795 1.17423,-0.44795 1.62219,0c0.44795,0.44795 0.44795,1.17423 0,1.62219z" fill="#7e3d3d" stroke="none" stroke-width="0" stroke-linecap="butt"/><path d="M228.76131,182.99054c-0.44796,0.44796 -1.17423,0.44795 -1.62218,0c-0.44796,-0.44796 -0.44796,-1.17423 0,-1.62218c0.44796,-0.44796 1.17423,-0.44796 1.62218,0c0.44796,0.44796 0.44796,1.17423 0,1.62219z" fill="#7d713c" stroke="none" stroke-width="0" stroke-linecap="butt"/><path d="M222.62612,191.6214c-0.34458,0.34458 -0.90326,0.34458 -1.24784,0c-0.34458,-0.34458 -0.34458,-0.90326 0,-1.24784c0.34458,-0.34458 0.90326,-0.34458 1.24784,0c0.34458,0.34458 0.34458,0.90326 0,1.24784z" fill="#4d4d4d" stroke="none" stroke-width="NaN" stroke-linecap="butt"/></g></g></g></g></g></svg>