<svg version="1.1" xmlns="http://www.w3.org/2000/svg" xmlns:xlink="http://www.w3.org/1999/xlink" width="491.72522" height="367" viewBox="0,0,491.72522,367"><defs><radialGradient cx="109.89313" cy="76.39399" r="245.86261" gradientUnits="userSpaceOnUse" id="color-1"><stop offset="0" stop-color="#00058c"/><stop offset="1" stop-color="#000367"/></radialGradient></defs><g transform="translate(5.86261,3.5)"><g data-paper-data="{&quot;isPaintingLayer&quot;:true}" fill-rule="nonzero" stroke="none" stroke-linecap="butt" stroke-linejoin="miter" stroke-miterlimit="10" stroke-dasharray="" stroke-dashoffset="0" style="mix-blend-mode: normal"><g><path d="M-5.86261,363.5v-367h491.72522v367z" fill="url(#color-1)" stroke-width="NaN"/><path d="M384.55898,52.0104c0,-0.8284 0.6716,-1.5 1.5,-1.5c0.8285,0 1.5,0.6716 1.5,1.5c0,0.8284 -0.6715,1.5 -1.5,1.5c-0.8284,0 -1.5,-0.6716 -1.5,-1.5z" fill="#ffffff" stroke-width="0.5"/><path d="M44.55898,226.0104c0,-0.8284 0.6716,-1.5 1.5,-1.5c0.8285,0 1.5,0.6716 1.5,1.5c0,0.8284 -0.6715,1.5 -1.5,1.5c-0.8284,0 -1.5,-0.6716 -1.5,-1.5z" fill="#ffffff" stroke-width="0.5"/><path d="M282.55898,264.0104c0,-0.8284 0.6716,-1.5 1.5,-1.5c0.8285,0 1.5,0.6716 1.5,1.5c0,0.8284 -0.6715,1.5 -1.5,1.5c-0.8284,0 -1.5,-0.6716 -1.5,-1.5z" fill="#ffffff" stroke-width="0.5"/><path d="M170.55898,105.0104c0,-0.8284 0.6716,-1.5 1.5,-1.5c0.8285,0 1.5,0.6716 1.5,1.5c0,0.8284 -0.6715,1.5 -1.5,1.5c-0.8284,0 -1.5,-0.6716 -1.5,-1.5z" fill="#ffffff" stroke-width="0.5"/><path d="M375.55898,214.0104c0,-0.8284 0.6716,-1.5 1.5,-1.5c0.8285,0 1.5,0.6716 1.5,1.5c0,0.8284 -0.6715,1.5 -1.5,1.5c-0.8284,0 -1.5,-0.6716 -1.5,-1.5z" fill="#ffffff" stroke-width="0.5"/><path d="M200.05898,260.0104c0,-0.5523 0.4478,-1 1,-1c0.5523,0 1,0.4477 1,1c0,0.5523 -0.4477,1 -1,1c-0.5522,0 -1,-0.4477 -1,-1z" fill="#ffffff" stroke-width="0.5"/><path d="M90.05898,25.0104c0,-0.5523 0.4478,-1 1,-1c0.5523,0 1,0.4477 1,1c0,0.5523 -0.4477,1 -1,1c-0.5522,0 -1,-0.4477 -1,-1z" fill="#ffffff" stroke-width="0.5"/><path d="M413.05898,130.0104c0,-0.5523 0.4478,-1 1,-1c0.5523,0 1,0.4477 1,1c0,0.5523 -0.4477,1 -1,1c-0.5522,0 -1,-0.4477 -1,-1z" fill="#ffffff" stroke-width="0.5"/><path d="M435.05898,349.0104c0,-0.5523 0.4477,-1 1,-1c0.5523,0 1,0.4477 1,1c0,0.5523 -0.4477,1 -1,1c-0.5523,0 -1,-0.4477 -1,-1z" fill="#ffffff" stroke-width="0.5"/><path d="M324.05898,260.0104c0,-0.5523 0.4477,-1 1,-1c0.5523,0 1,0.4477 1,1c0,0.5523 -0.4477,1 -1,1c-0.5523,0 -1,-0.4477 -1,-1z" fill="#ffffff" stroke-width="0.5"/><path d="M385.05898,122.0104c0,-0.5523 0.4477,-1 1,-1c0.5523,0 1,0.4477 1,1c0,0.5523 -0.4477,1 -1,1c-0.5523,0 -1,-0.4477 -1,-1z" fill="#ffffff" stroke-width="0.5"/><path d="M127.55898,141.0104c0,-0.2762 0.2239,-0.5 0.5,-0.5c0.2761,0 0.5,0.2238 0.5,0.5c0,0.2761 -0.2239,0.5 -0.5,0.5c-0.2761,0 -0.5,-0.2239 -0.5,-0.5z" fill="#ffffff" stroke-width="0.5"/><path d="M304.55898,67.0104c0,-0.2762 0.2239,-0.5 0.5,-0.5c0.2761,0 0.5,0.2238 0.5,0.5c0,0.2761 -0.2239,0.5 -0.5,0.5c-0.2761,0 -0.5,-0.2239 -0.5,-0.5z" fill="#ffffff" stroke-width="0.5"/><path d="M281.55898,159.0104c0,-0.2762 0.2239,-0.5 0.5,-0.5c0.2761,0 0.5,0.2238 0.5,0.5c0,0.2761 -0.2239,0.5 -0.5,0.5c-0.2761,0 -0.5,-0.2239 -0.5,-0.5z" fill="#ffffff" stroke-width="0.5"/><path d="M200.55898,28.0104c0,-0.2762 0.2239,-0.5 0.5,-0.5c0.2761,0 0.5,0.2238 0.5,0.5c0,0.2761 -0.2239,0.5 -0.5,0.5c-0.2761,0 -0.5,-0.2239 -0.5,-0.5z" fill="#ffffff" stroke-width="0.5"/><path d="M127.55898,214.0104c0,-0.2762 0.2239,-0.5 0.5,-0.5c0.2761,0 0.5,0.2238 0.5,0.5c0,0.2761 -0.2239,0.5 -0.5,0.5c-0.2761,0 -0.5,-0.2239 -0.5,-0.5z" fill="#ffffff" stroke-width="0.5"/><path d="M264.55898,222.0104c0,-0.2762 0.2239,-0.5 0.5,-0.5c0.2761,0 0.5,0.2238 0.5,0.5c0,0.2761 -0.2239,0.5 -0.5,0.5c-0.2761,0 -0.5,-0.2239 -0.5,-0.5z" fill="#ffffff" stroke-width="0.5"/><path d="M261.55898,132.0104c0,-0.2762 0.2239,-0.5 0.5,-0.5c0.2761,0 0.5,0.2238 0.5,0.5c0,0.2761 -0.2239,0.5 -0.5,0.5c-0.2761,0 -0.5,-0.2239 -0.5,-0.5z" fill="#ffffff" stroke-width="0.5"/><path d="M294.55898,139.0104c0,-0.2762 0.2239,-0.5 0.5,-0.5c0.2761,0 0.5,0.2238 0.5,0.5c0,0.2761 -0.2239,0.5 -0.5,0.5c-0.2761,0 -0.5,-0.2239 -0.5,-0.5z" fill="#ffffff" stroke-width="0.5"/><path d="M297.55898,169.0104c0,-0.2762 0.2239,-0.5 0.5,-0.5c0.2761,0 0.5,0.2238 0.5,0.5c0,0.2761 -0.2239,0.5 -0.5,0.5c-0.2761,0 -0.5,-0.2239 -0.5,-0.5z" fill="#ffffff" stroke-width="0.5"/><path d="M430.55898,32.0104c0,-0.2762 0.2239,-0.5 0.5,-0.5c0.2761,0 0.5,0.2238 0.5,0.5c0,0.2761 -0.2239,0.5 -0.5,0.5c-0.2761,0 -0.5,-0.2239 -0.5,-0.5z" fill="#ffffff" stroke-width="0.5"/><path d="M460.55898,185.0104c0,-0.2762 0.2239,-0.5 0.5,-0.5c0.2761,0 0.5,0.2238 0.5,0.5c0,0.2761 -0.2239,0.5 -0.5,0.5c-0.2761,0 -0.5,-0.2239 -0.5,-0.5z" fill="#ffffff" stroke-width="0.5"/><path d="M116.55898,318.0104c0,-0.2762 0.2239,-0.5 0.5,-0.5c0.2761,0 0.5,0.2238 0.5,0.5c0,0.2761 -0.2239,0.5 -0.5,0.5c-0.2761,0 -0.5,-0.2239 -0.5,-0.5z" fill="#ffffff" stroke-width="0.5"/><path d="M33.55898,150.0104c0,-0.2762 0.2239,-0.5 0.5,-0.5c0.2761,0 0.5,0.2238 0.5,0.5c0,0.2761 -0.2239,0.5 -0.5,0.5c-0.2761,0 -0.5,-0.2239 -0.5,-0.5z" fill="#ffffff" stroke-width="0.5"/><path d="M213.55898,152.0104c0,-0.2762 0.2239,-0.5 0.5,-0.5c0.2761,0 0.5,0.2238 0.5,0.5c0,0.2761 -0.2239,0.5 -0.5,0.5c-0.2761,0 -0.5,-0.2239 -0.5,-0.5z" fill="#ffffff" stroke-width="0.5"/><path d="M111.55898,88.0104c0,-0.2762 0.2239,-0.5 0.5,-0.5c0.2761,0 0.5,0.2238 0.5,0.5c0,0.2761 -0.2239,0.5 -0.5,0.5c-0.2761,0 -0.5,-0.2239 -0.5,-0.5z" fill="#ffffff" stroke-width="0.5"/><path d="M77.55898,156.0104c0,-0.2762 0.2239,-0.5 0.5,-0.5c0.2761,0 0.5,0.2238 0.5,0.5c0,0.2761 -0.2239,0.5 -0.5,0.5c-0.2761,0 -0.5,-0.2239 -0.5,-0.5z" fill="#ffffff" stroke-width="0.5"/><path d="M287.55898,310.0104c0,-0.2762 0.2239,-0.5 0.5,-0.5c0.2761,0 0.5,0.2238 0.5,0.5c0,0.2761 -0.2239,0.5 -0.5,0.5c-0.2761,0 -0.5,-0.2239 -0.5,-0.5z" fill="#ffffff" stroke-width="0.5"/><path d="M426.55898,290.0104c0,-0.2762 0.2239,-0.5 0.5,-0.5c0.2761,0 0.5,0.2238 0.5,0.5c0,0.2761 -0.2239,0.5 -0.5,0.5c-0.2761,0 -0.5,-0.2239 -0.5,-0.5z" fill="#ffffff" stroke-width="0.5"/></g></g></g></svg>