<svg xmlns="http://www.w3.org/2000/svg" xmlns:xlink="http://www.w3.org/1999/xlink" version="1.1" width="498.74647" height="272.0468" viewBox="0,0,498.74647,272.0468"><g><g data-paper-data="{&quot;isPaintingLayer&quot;:true}" fill-rule="nonzero" stroke-linejoin="miter" stroke-miterlimit="10" stroke-dasharray="" stroke-dashoffset="0" style="mix-blend-mode: normal"><path d="" data-paper-data="{&quot;origPos&quot;:null}" fill="#000aa7" stroke="#d68700" stroke-width="26.5" stroke-linecap="butt" transform="matrix(1,0,0,1,7.84682,-97.1423)"/><path d="" fill="#000aa7" stroke="none" stroke-width="0.5" stroke-linecap="butt" transform="matrix(1,0,0,1,7.84682,-97.1423)"/><path d="" fill="#000aa7" stroke="none" stroke-width="0.5" stroke-linecap="butt" transform="matrix(1,0,0,1,7.84682,-97.1423)"/><path d="" fill="#ff0000" stroke="none" stroke-width="0.5" stroke-linecap="butt" transform="matrix(1,0,0,1,7.84682,-97.1423)"/><g data-paper-data="{&quot;origPos&quot;:null}"><path d="M 485.4965 258.7968 L 13.25 255.7154 " data-paper-data="{&quot;origPos&quot;:null}" fill="none" stroke="#d68700" stroke-width="26.5" stroke-linecap="round"/><path d="M 489.514 41.7899 L 386.5 60.6409 " data-paper-data="{&quot;origPos&quot;:null,&quot;index&quot;:null,&quot;origRot&quot;:0}" fill="none" stroke="#000aa7" stroke-width="5" stroke-linecap="round"/><path d="M 138.3979 2.5 L 332.3979 3.4949 " data-paper-data="{&quot;origPos&quot;:null}" fill="none" stroke="#000aa7" stroke-width="5" stroke-linecap="round"/><path d="M 86.2957 59.6409 L 3.3256 42.9656 " data-paper-data="{&quot;origPos&quot;:null,&quot;index&quot;:null,&quot;origRot&quot;:0}" fill="none" stroke="#000aa7" stroke-width="5" stroke-linecap="round"/><g><path d="M 159.469 205.1231 C 152.5259 230.4651 135.1582 247.7926 120.677 243.8252 C 106.1959 239.8577 100.085 216.0977 107.028 190.7557 C 113.9711 165.4137 131.3388 148.0861 145.82 152.0536 C 160.3011 156.021 166.412 179.781 159.469 205.1231 Z " data-paper-data="{&quot;origPos&quot;:null,&quot;origRot&quot;:0}" fill="#000aa7" stroke="none" stroke-width="4.5" stroke-linecap="butt"/><path d="M 158.3113 103.6354 C 175.9067 103.6354 190.1707 119.0405 190.1707 138.0436 C 190.1707 157.0467 175.9067 172.4518 158.3113 172.4518 C 140.7158 172.4518 126.4518 157.0468 126.4518 138.0436 C 126.4518 119.0405 140.7158 103.6354 158.3113 103.6354 Z " data-paper-data="{&quot;origPos&quot;:null}" fill="#000aa7" stroke="none" stroke-width="4.5" stroke-linecap="butt"/><path d="M 151.9768 150.1504 C 151.9768 150.1504 155.0713 150.1751 157.0519 150.191 C 159.713 150.2123 163.8706 150.2456 163.8706 150.2456 L 163.7686 162.989 L 151.8747 162.8937 Z " data-paper-data="{&quot;origPos&quot;:null}" fill="#ff0000" stroke="none" stroke-width="4.5" stroke-linecap="butt"/><text transform="matrix(-0.0034000168176915005,0.4247763929241353,-0.4247763929241353,-0.0034000168176915005,152.04484000000002,141.65476999999998)" font-size="40" xml:space="preserve" data-paper-data="{&quot;origPos&quot;:null}" fill="#ff0000" fill-rule="nonzero" stroke="none" stroke-width="9" stroke-linecap="butt" stroke-linejoin="miter" stroke-miterlimit="10" stroke-dasharray="" stroke-dashoffset="0" font-family="Sans Serif" font-weight="normal" text-anchor="start" style="mix-blend-mode: normal"><tspan x="0" dy="0">&lt;</tspan></text><path d="M 134.0981 142.7164 L 134.0981 130.8222 L 146.8419 130.8222 L 146.8419 142.7164 Z " data-paper-data="{&quot;origPos&quot;:null}" fill="#ff0000" stroke="none" stroke-width="4.5" stroke-linecap="butt"/><text transform="matrix(-0.4248,-5.202299602777957e-17,-5.202177138098042e-17,0.42479,153.63854,142.71635)" font-size="40" xml:space="preserve" data-paper-data="{&quot;origPos&quot;:null}" fill="#ff0000" fill-rule="nonzero" stroke="none" stroke-width="9" stroke-linecap="butt" stroke-linejoin="miter" stroke-miterlimit="10" stroke-dasharray="" stroke-dashoffset="0" font-family="Sans Serif" font-weight="normal" text-anchor="start" style="mix-blend-mode: normal"><tspan x="0" dy="0">&lt;</tspan></text><path d="M 168.9311 142.7164 L 168.9311 130.8222 L 181.6748 130.8222 L 181.6748 142.7164 Z " data-paper-data="{&quot;origPos&quot;:null}" fill="#ff0000" stroke="none" stroke-width="4.5" stroke-linecap="butt"/><text transform="matrix(0.4248,0,0,0.4248,162.13439,142.71635)" font-size="40" xml:space="preserve" data-paper-data="{&quot;origPos&quot;:null}" fill="#ff0000" fill-rule="nonzero" stroke="none" stroke-width="9" stroke-linecap="butt" stroke-linejoin="miter" stroke-miterlimit="10" stroke-dasharray="" stroke-dashoffset="0" font-family="Sans Serif" font-weight="normal" text-anchor="start" style="mix-blend-mode: normal"><tspan x="0" dy="0">&lt;</tspan></text><path d="M 163.1944 122.9601 L 151.3004 122.8886 L 151.3769 110.1451 L 163.2709 110.2165 Z " data-paper-data="{&quot;origPos&quot;:null}" fill="#ff0000" stroke="none" stroke-width="4.5" stroke-linecap="butt"/><text transform="matrix(0.002554991805224887,-0.42478231615366857,0.42478231615366857,0.002554991805224887,163.15353000000002,129.75664)" font-size="40" xml:space="preserve" data-paper-data="{&quot;origPos&quot;:null}" fill="#ff0000" fill-rule="nonzero" stroke="none" stroke-width="9" stroke-linecap="butt" stroke-linejoin="miter" stroke-miterlimit="10" stroke-dasharray="" stroke-dashoffset="0" font-family="Sans Serif" font-weight="normal" text-anchor="start" style="mix-blend-mode: normal"><tspan x="0" dy="0">&lt;</tspan></text><path d="M 161.2747 150.8793 C 161.2747 152.0523 160.3238 153.0033 159.1508 153.0033 C 158.1918 153.0033 157.3812 152.3677 157.1173 151.4948 C 155.9963 151.4367 155.1051 150.5093 155.1051 149.3737 C 155.1051 148.5958 155.5233 147.9156 156.1472 147.5456 C 156.1935 147.4675 156.2446 147.3927 156.3002 147.3215 C 156.019 146.9613 155.8514 146.5079 155.8514 146.0155 C 155.8514 144.8425 156.8023 143.8915 157.9754 143.8915 C 159.1484 143.8915 160.0993 144.8425 160.0993 146.0155 C 160.0993 146.5079 159.9317 146.9613 159.6505 147.3215 C 159.9317 147.6817 160.0993 148.135 160.0993 148.6275 C 160.0993 148.7424 160.0902 148.8553 160.0726 148.9653 C 160.7839 149.3085 161.2747 150.0366 161.2747 150.8793 Z " fill="#ff0000" stroke="none" stroke-width="4.5" stroke-linecap="butt"/><path d="M 165.0981 136.2501 C 165.0981 135.0771 166.049 134.1262 167.222 134.1262 C 167.7484 134.1262 168.2301 134.3177 168.6012 134.6348 C 168.6456 134.632 168.6903 134.6306 168.7354 134.6306 C 169.9084 134.6306 170.8594 135.5816 170.8594 136.7546 C 170.8594 137.9276 169.9084 138.8786 168.7354 138.8786 C 168.209 138.8786 167.7273 138.6871 167.3562 138.3699 C 167.3119 138.3727 167.2671 138.3741 167.222 138.3741 C 166.049 138.3741 165.0981 137.4232 165.0981 136.2501 Z " fill="#ff0000" stroke="none" stroke-width="4.5" stroke-linecap="butt"/><path d="M 159.2569 125.1521 C 159.2569 126.3252 158.306 127.2761 157.1329 127.2761 C 156.4176 127.2761 155.7849 126.9225 155.4 126.3806 C 154.8581 125.9957 154.5045 125.363 154.5045 124.6477 C 154.5045 124.4739 154.5254 124.3049 154.5648 124.1432 C 154.5254 123.9815 154.5045 123.8126 154.5045 123.6388 C 154.5045 122.8747 154.908 122.2049 155.5134 121.8307 C 155.5793 121.79 155.6476 121.7528 155.7179 121.7193 C 156.0589 121.0019 156.7902 120.5059 157.6374 120.5059 C 158.8104 120.5059 159.7613 121.4568 159.7613 122.6298 C 159.7613 123.1562 159.5699 123.6379 159.2527 124.009 C 159.2555 124.0534 159.2569 124.0981 159.2569 124.1432 C 159.2569 124.317 159.236 124.486 159.1966 124.6477 C 159.236 124.8094 159.2569 124.9783 159.2569 125.1521 Z " fill="#ff0000" stroke="none" stroke-width="4.5" stroke-linecap="butt"/><path d="M 149.0617 134.1262 C 150.2347 134.1262 151.1856 135.0771 151.1856 136.2501 C 151.1856 137.4232 150.2347 138.3741 149.0617 138.3741 C 149.0166 138.3741 148.9718 138.3727 148.9275 138.3699 C 148.5564 138.687 148.0747 138.8785 147.5483 138.8785 C 146.3753 138.8785 145.4243 137.9276 145.4243 136.7546 C 145.4243 135.5815 146.3753 134.6306 147.5483 134.6306 C 147.5934 134.6306 147.6381 134.632 147.6825 134.6348 C 148.0536 134.3177 148.5353 134.1261 149.0617 134.1261 Z " fill="#ff0000" stroke="none" stroke-width="4.5" stroke-linecap="butt"/><path d="M 314.6349 103.6354 C 332.2304 103.6354 346.4944 119.0405 346.4944 138.0436 C 346.4944 157.0467 332.2304 172.4518 314.6349 172.4518 C 297.0394 172.4518 282.7755 157.0468 282.7755 138.0436 C 282.7755 119.0405 297.0394 103.6354 314.6349 103.6354 Z " data-paper-data="{&quot;origPos&quot;:null}" fill="#000aa7" stroke="none" stroke-width="4.5" stroke-linecap="butt"/><path d="M 327.9758 152.0536 C 342.457 148.0861 359.8247 165.4137 366.7677 190.7557 C 373.7107 216.0977 367.5999 239.8577 353.1187 243.8252 C 338.6376 247.7926 321.2698 230.4651 314.3268 205.1231 C 307.3838 179.781 313.4946 156.021 327.9758 152.0536 Z " data-paper-data="{&quot;origPos&quot;:null,&quot;origRot&quot;:0,&quot;index&quot;:null}" fill="#000aa7" stroke="none" stroke-width="4.5" stroke-linecap="butt"/><text transform="matrix(0.73868,0,0,0.73868,322.70597,143.38572)" font-size="40" xml:space="preserve" data-paper-data="{&quot;origPos&quot;:null}" fill="#ff0000" fill-rule="nonzero" stroke="none" stroke-width="9" stroke-linecap="butt" stroke-linejoin="miter" stroke-miterlimit="10" stroke-dasharray="" stroke-dashoffset="0" font-family="Sans Serif" font-weight="normal" text-anchor="start" style="mix-blend-mode: normal"><tspan x="0" dy="0">o</tspan><tspan x="0" dy="46.150000000000006px"> </tspan></text><path d="M 288.7226 141.0172 L 288.7226 129.123 L 300.6168 129.123 L 300.6168 141.0172 Z " data-paper-data="{&quot;origPos&quot;:null}" fill="none" stroke="#ff0000" stroke-width="2.5" stroke-linecap="butt"/><text transform="matrix(0.67786,0,0,0.67786,307.41344,159.12192000000002)" font-size="40" xml:space="preserve" data-paper-data="{&quot;origPos&quot;:null}" fill="#ff0000" fill-rule="nonzero" stroke="none" stroke-width="9" stroke-linecap="butt" stroke-linejoin="miter" stroke-miterlimit="10" stroke-dasharray="" stroke-dashoffset="0" font-family="Sans Serif" font-weight="normal" text-anchor="start" style="mix-blend-mode: normal"><tspan x="0" dy="0">x</tspan></text><path d="M 313.7768 109.5825 L 320.2128 122.0255 L 308.4134 122.0255 Z " data-paper-data="{&quot;origPos&quot;:null}" fill="none" stroke="#ff0000" stroke-width="2.5" stroke-linecap="round"/><path d="M 181.6749 159.708 L 181.6749 113.8305 L 287.873 113.8305 L 287.873 159.708 Z " fill="#000aa7" stroke="none" stroke-width="4.5" stroke-linecap="butt"/><path d="M 209.7112 177.9741 C 209.7112 190.8775 198.6804 201.3377 185.0732 201.3377 C 171.466 201.3377 160.4352 190.8775 160.4352 177.9741 C 160.4352 165.0708 171.466 154.6105 185.0732 154.6105 C 198.6804 154.6105 209.7112 165.0708 209.7112 177.9741 Z " data-paper-data="{&quot;origPos&quot;:null}" fill="#000aa7" stroke="none" stroke-width="4.5" stroke-linecap="butt"/><path d="M 315.9093 178.8237 C 315.9093 191.7271 304.8785 202.1873 291.2713 202.1873 C 277.6642 202.1873 266.6334 191.7271 266.6334 178.8237 C 266.6334 165.9203 277.6642 155.4601 291.2713 155.4601 C 304.8785 155.4601 315.9093 165.9204 315.9093 178.8237 Z " data-paper-data="{&quot;origPos&quot;:null}" fill="#000aa7" stroke="none" stroke-width="4.5" stroke-linecap="butt"/><path d="M 200.3657 158.0089 L 200.3657 157.1593 L 278.5275 157.1593 L 278.5275 158.0089 Z " fill="#000aa7" stroke="none" stroke-width="4.5" stroke-linecap="butt"/><path d="M 289.7636 117.0294 C 289.9197 117.2309 290.0712 117.4396 290.234 117.6306 C 290.1017 117.4052 289.9776 117.1076 289.7695 117.0315 C 289.7674 117.0307 289.7655 117.0301 289.7636 117.0294 Z M 290.9441 118.0027 C 290.8176 117.9922 290.7004 117.9568 290.6004 117.8878 C 290.5553 117.9021 290.5142 117.9012 290.4761 117.8886 C 290.6516 118.055 290.8457 118.1922 291.074 118.2757 C 291.1851 118.3163 291.0574 118.1672 290.9441 118.0027 Z M 285.8474 117.3258 C 285.1335 116.5682 283.6046 114.6898 284.9957 113.7624 C 286.7629 112.5842 286.1738 113.4057 286.1738 113.4057 L 287.4482 113.4057 C 289.3077 113.4057 290.9564 113.2904 292.7732 114.0278 C 296.9338 115.7165 294.3128 120.2923 292.1209 121.9015 C 290.3182 123.225 287.5651 120.7742 286.3711 119.5803 C 286.3711 119.5803 285.3312 118.5403 285.8474 117.3258 Z " fill="#000aa7" stroke="none" stroke-width="4.5" stroke-linecap="butt"/><path d="M 241.5654 161.555 C 241.4176 163.6739 239.2988 163.526 239.2988 163.526 L 239.3349 164.4202 C 237.0863 166.342 234.8186 168.7657 232.2854 170.2975 C 232.0142 170.4615 231.5337 170.6602 230.968 170.8625 C 229.898 172.4556 228.618 173.8044 227.1523 174.5506 C 226.5214 174.8719 225.74 174.4474 225.0351 174.3819 C 222.5593 174.1522 220.6828 173.8177 218.8914 172.5543 C 218.4321 173.0446 217.921 173.5004 217.4866 174.0072 C 215.6024 176.2055 215.4718 176.9202 211.438 177.1607 C 210.928 177.1911 210.8067 176.3571 210.4922 175.9544 C 209.7744 175.0352 209.07 174.0873 208.406 173.1139 C 207.1844 173.519 205.5164 172.4904 204.4131 171.7025 C 203.3009 170.9083 203.1357 169.2827 202.5987 168.026 C 201.3157 165.0238 200.7905 162.0938 200.7905 158.8585 C 200.7905 158.8585 200.7905 156.7345 202.9145 156.7345 C 203.5854 156.7345 204.0443 156.9464 204.3583 157.2364 C 204.4305 157.057 204.5196 156.8842 204.6268 156.7192 C 203.3694 154.9478 201.9137 153.2502 200.463 151.7645 L 198.8639 150.1653 C 198.4795 149.781 198.2418 149.25 198.2418 148.6634 C 198.2418 147.4904 199.1927 146.5395 200.3657 146.5395 C 200.56 146.5395 200.7483 146.5656 200.9271 146.6145 L 202.58 147.0277 C 203.102 146.7662 203.7336 147.2448 204.2792 147.4525 C 206.663 148.3599 210.2729 149.9927 211.8706 152.089 C 212.7379 153.2269 213.1707 154.1216 213.2485 154.9831 C 213.8905 155.0096 214.3664 155.0353 214.3839 155.0353 C 218.3374 155.0353 222.9007 154.4052 226.7032 155.6536 C 228.2896 154.9573 229.8184 155.2307 231.3161 156.426 C 232.0774 156.5598 232.7771 156.8315 233.3022 157.3566 C 233.787 158.2307 234.4531 159.0266 234.7566 159.979 C 234.8296 160.2081 234.8599 160.4424 234.8602 160.6796 C 235.2625 161.3149 235.0566 162.1019 234.6023 162.8785 C 235.2515 162.3286 235.9041 161.7644 236.575 161.191 L 239.5945 159.2884 C 239.5945 159.2884 241.7133 159.4362 241.5655 161.555 Z M 229.1799 165.131 C 228.8261 165.1044 228.4578 165.0699 228.086 165.0246 C 228.246 165.3533 228.2664 165.6731 228.0644 165.9691 C 228.2286 166.1318 228.3442 166.3209 228.3741 166.5485 L 228.4014 166.5712 C 228.6648 166.1138 228.9297 165.6307 229.1799 165.1309 Z " fill="#000aa7" stroke="none" stroke-width="4.5" stroke-linecap="butt"/><path d="M 276.608 167.7715 C 277.0403 179.4453 265.3666 179.8777 265.3666 179.8777 L 268.6283 180.9854 C 262.3434 183.0804 255.477 186.5577 247.9233 186.6791 C 246.5215 187.0025 245.1158 187.3136 243.6946 187.532 C 243.1348 187.618 241.7448 188.0399 241.9954 187.532 C 241.997 187.5287 241.9986 187.5255 242.0003 187.5223 C 239.328 188.1321 236.6787 188.646 233.9243 188.3816 C 226.4256 187.6615 220.6324 183.7734 214.0449 180.4582 C 212.6969 179.817 211.4911 178.9252 210.4878 177.843 C 208.0357 175.3904 205.5843 171.1394 208.4093 165.09 C 208.5275 164.8289 208.655 164.573 208.7914 164.3226 C 211.0779 160.0051 214.288 158.5136 217.1934 158.2105 L 217.9113 157.9712 L 217.9729 158.1562 C 218.6375 158.1324 219.2792 158.1655 219.8825 158.2346 C 221.3595 156.3863 223.3179 155.3397 225.0622 154.747 C 226.3627 154.2473 227.7752 153.9734 229.2516 153.9734 L 232.65 153.9734 L 232.65 154.0542 C 235.0065 154.1749 237.3503 154.4476 239.668 154.9819 C 241.3405 155.3674 242.4798 155.7685 243.9903 156.272 C 244.166 156.3306 244.3416 156.3891 244.5173 156.4477 C 244.4424 156.0682 245.7079 156.5221 246.2433 156.5221 C 246.3354 156.5221 246.4275 156.5221 246.5196 156.5221 C 246.7466 156.4502 247.094 156.3747 247.3684 156.322 C 248.577 154.8172 250.0479 153.5006 251.6024 152.3399 C 251.5913 152.3295 251.5825 152.3155 251.5764 152.2974 C 251.4478 151.9181 252.0844 151.6569 252.426 151.4478 C 253.1341 151.0142 253.8508 150.5947 254.5737 150.1861 C 255.2563 149.1786 255.962 148.1863 256.6739 147.1999 C 256.6933 147.173 256.7164 147.1438 256.7424 147.113 L 257.6626 145.7327 C 259.7426 142.512 263.3638 140.38 267.4829 140.38 C 272.7379 140.38 277.1824 143.8498 278.6505 148.6232 L 278.9901 149.6421 C 279.4248 149.7492 279.5155 150.4801 279.4149 150.9165 C 279.3287 151.29 279.2458 151.668 279.1647 152.0492 C 279.1647 152.0534 279.1647 152.0576 279.1647 152.0618 C 279.1647 153.763 278.8011 155.3793 278.1473 156.8372 C 277.6008 159.1324 276.8978 161.3635 275.724 163.2732 C 276.2219 164.526 276.5428 166.0111 276.608 167.7716 Z " fill="#000aa7" stroke="none" stroke-width="4.5" stroke-linecap="butt"/><path d="M 267.4829 188.5939 L 205.4632 188.5939 " fill="none" stroke="#000aa7" stroke-width="4.5" stroke-linecap="round"/><path d="M 202.2773 177.5493 C 202.2773 171.0977 207.5074 165.8676 213.9591 165.8676 C 220.4108 165.8676 225.6409 171.0977 225.6409 177.5493 C 225.6409 184.001 220.4108 189.2311 213.9591 189.2311 C 207.5074 189.2311 202.2773 184.001 202.2773 177.5493 Z " fill="#000aa7" stroke="none" stroke-width="4.5" stroke-linecap="butt"/><path d="M 271.7309 166.7171 C 278.1825 166.7171 283.4127 171.9472 283.4127 178.3989 C 283.4127 184.8506 278.1825 190.0807 271.7309 190.0807 C 269.0955 190.0807 266.664 189.2081 264.7095 187.7359 C 263.0183 188.688 261.0661 189.2311 258.9871 189.2311 C 257.1595 189.2311 255.43 188.8114 253.8896 188.0632 C 252.3492 188.8114 250.6196 189.2311 248.7921 189.2311 C 243.1026 189.2311 238.3631 185.1638 237.3227 179.7782 C 236.2822 185.1638 231.5427 189.2311 225.8533 189.2311 C 219.4016 189.2311 214.1715 184.001 214.1715 177.5493 C 214.1715 171.0977 219.4016 165.8675 225.8533 165.8675 C 231.5427 165.8675 236.2822 169.9348 237.3227 175.3204 C 238.3631 169.9348 243.1026 165.8675 248.7921 165.8675 C 250.6196 165.8675 252.3492 166.2872 253.8896 167.0354 C 255.43 166.2872 257.1595 165.8675 258.9871 165.8675 C 261.6225 165.8675 264.054 166.7402 266.0085 168.2123 C 267.6997 167.2602 269.6518 166.7171 271.7309 166.7171 Z " fill="#000aa7" stroke="none" stroke-width="4.5" stroke-linecap="butt"/><path d="M 172.5418 179.2485 C 172.5418 172.7968 177.7719 167.5667 184.2236 167.5667 C 190.6753 167.5667 195.9054 172.7968 195.9054 179.2485 C 195.9054 185.7002 190.6753 190.9303 184.2236 190.9303 C 177.7719 190.9303 172.5418 185.7002 172.5418 179.2485 Z " fill="#000000" stroke="none" stroke-width="4.5" stroke-linecap="butt"/><path d="M 279.5895 180.0981 C 279.5895 173.6464 284.8196 168.4163 291.2713 168.4163 C 297.723 168.4163 302.9531 173.6464 302.9531 180.0981 C 302.9531 186.5498 297.723 191.7799 291.2713 191.7799 C 284.8196 191.7799 279.5895 186.5498 279.5895 180.0981 Z " data-paper-data="{&quot;origPos&quot;:null}" fill="#000000" stroke="none" stroke-width="4.5" stroke-linecap="butt"/><path d="M 197.817 152.0618 L 197.817 115.5296 L 272.5805 115.5296 L 272.5805 152.0618 Z " data-paper-data="{&quot;origPos&quot;:null}" fill="#000000" stroke="#000aa7" stroke-width="4.5" stroke-linecap="butt"/></g></g></g></g></svg>