<svg xmlns="http://www.w3.org/2000/svg" xmlns:xlink="http://www.w3.org/1999/xlink" version="1.1" width="60.24619" height="160.61298" viewBox="0,0,60.24619,160.61298"><g><g data-paper-data="{&quot;isPaintingLayer&quot;:true}" fill-rule="nonzero" stroke-linecap="none" stroke-linejoin="miter" stroke-miterlimit="10" stroke-dasharray="" stroke-dashoffset="0" font-family="none" font-weight="none" font-size="none" text-anchor="none" style="mix-blend-mode: normal"><path d="M263.46237,173.84978c0,7.6373 -3.19933,13.82856 -7.14592,13.82856c-3.94658,0 -7.14592,-6.19126 -7.14592,-13.82856c0,-7.6373 3.19933,-13.82855 7.14592,-13.82855c3.94658,0 7.14592,6.19126 7.14592,13.82855z" data-paper-data="{&quot;origPos&quot;:null}" fill="#003fff" stroke="#e6e6e6" stroke-width="0" stroke-linecap="butt" transform="matrix(1,0,0,1,-216.00381,-85.61634)"/><path d="M 49.6462 88.2463 C 49.6462 96.6649 45.5032 103.4895 40.3926 103.4895 C 35.282 103.4895 31.139 96.6649 31.139 88.2463 C 31.139 79.8277 35.282 73.0031 40.3926 73.0031 C 45.5032 73.0031 49.6462 79.8277 49.6462 88.2463 Z " data-paper-data="{&quot;origPos&quot;:null}" fill="none" stroke="#ff4242" stroke-width="5" stroke-linecap="butt"/><path d="M 53.8971 88.4732 C 53.8971 99.5581 47.8468 108.5442 40.3833 108.5442 C 32.9198 108.5442 26.8695 99.5581 26.8695 88.4732 C 26.8695 77.3883 32.9198 68.4022 40.3833 68.4022 C 47.8468 68.4022 53.8971 77.3883 53.8971 88.4732 Z " data-paper-data="{&quot;origPos&quot;:null}" fill="none" stroke="#e6e6e6" stroke-width="5" stroke-linecap="butt"/><path d="M 58.2462 88.3459 C 58.2462 101.5696 50.2433 112.2895 40.3712 112.2895 C 30.4991 112.2895 22.4962 101.5696 22.4962 88.3459 C 22.4962 75.1221 30.4991 64.4022 40.3712 64.4022 C 50.2433 64.4022 58.2462 75.1221 58.2462 88.3459 Z " data-paper-data="{&quot;origPos&quot;:null}" fill="none" stroke="#ff4242" stroke-width="4" stroke-linecap="butt"/><path d="M 25.6105 52.6471 L 25.6105 119.9442 L 13.5629 158.863 " data-paper-data="{&quot;origPos&quot;:null}" fill="none" stroke="#000000" stroke-width="3.5" stroke-linecap="round"/><path d="M 38.4613 158.6662 L 26.4136 118.5074 " fill="none" stroke="#000000" stroke-width="3.5" stroke-linecap="round"/><path d="M 8.6089 90.5424 L 24.3073 60.9709 " data-paper-data="{&quot;origPos&quot;:null}" fill="none" stroke="#000000" stroke-width="3.5" stroke-linecap="round"/><path d="M 26.4978 60.9709 L 42.1962 90.5424 " data-paper-data="{&quot;origPos&quot;:null,&quot;index&quot;:null}" fill="none" stroke="#000000" stroke-width="3.5" stroke-linecap="round"/><path d="M 39.7462 93.8837 C 39.7462 93.8837 38.4628 92.2957 38.525 86.357 C 38.5677 82.2751 40.2462 80.3837 40.2462 80.3837 " data-paper-data="{&quot;origPos&quot;:null}" fill="none" stroke="#717171" stroke-width="2.5" stroke-linecap="round"/><path d="M 1.5152 29.7566 C 1.5152 15.7838 12.8424 4.4566 26.8152 4.4566 C 40.788 4.4566 52.1152 15.7838 52.1152 29.7566 C 52.1152 43.7294 40.788 55.0566 26.8152 55.0566 C 12.8424 55.0566 1.5152 43.7294 1.5152 29.7566 Z " data-paper-data="{&quot;origPos&quot;:null}" fill="#d4d4d4" stroke="#000000" stroke-width="2.5" stroke-linecap="butt"/><g data-paper-data="{&quot;origPos&quot;:null}" stroke-linecap="round"><path d="M 11.1629 39.0504 L 7.4962 42.217 " data-paper-data="{&quot;origPos&quot;:null}" stroke-width="1.5" fill="none" stroke="#462929"/><path d="M 7.8295 38.717 L 13.9962 46.0503 " data-paper-data="{&quot;origPos&quot;:null}" stroke-width="1.5" fill="none" stroke="#462929"/><path d="M 9.8295 44.5503 L 13.6629 41.217 " data-paper-data="{&quot;origPos&quot;:null}" stroke-width="1.5" fill="none" stroke="#462929"/></g><path d="M252.05554,109.34918c0,-2.66148 2.15757,-4.81905 4.81905,-4.81905c2.66148,0 4.81905,2.15757 4.81905,4.81905c0,2.66148 -2.15757,4.81905 -4.81905,4.81905c-2.66148,0 -4.81905,-2.15757 -4.81905,-4.81905z" data-paper-data="{&quot;origPos&quot;:null}" fill="#000000" stroke="none" stroke-width="0" stroke-linecap="butt" transform="matrix(1,0,0,1,-216.00381,-85.61634)"/><path d="M218.7,128.35001c-7.35,-18.87605 1.63277,-32.42461 11.3,-37.6c9.66723,-5.17539 23.49113,-4.67764 32.25,5c5.58535,6.17122 8.47399,9.82418 7.55058,25.89584c-0.02582,0.44947 -8.30459,-0.03531 -8.30459,-0.03531c0,0 6.52694,-11.40464 0.25031,-17.94736c-3.63565,-3.78978 -20.66558,-3.62012 -23.67962,-0.5974c-7.8356,7.85819 -6.56577,18.51942 -6.56577,18.51942c0,0 -3.93239,1.26673 -6.1933,2.46154c-2.73481,1.44525 -6.60762,4.30325 -6.60762,4.30325z" data-paper-data="{&quot;origPos&quot;:null}" fill="#182a62" stroke="none" stroke-width="0" stroke-linecap="butt" transform="matrix(1,0,0,1,-216.00381,-85.61634)"/><path d="M 43.7914 16.7614 L 36.8549 20.0471 " data-paper-data="{&quot;origPos&quot;:null}" fill="none" stroke="#000000" stroke-width="2.5" stroke-linecap="round"/><path d="M231.3,121.55001l-0.8,-5.75c0,0 11.72979,1.29256 16.94881,-2.60258c2.91297,-2.17405 -1.48363,-16.59743 3.15119,-16.39742c5.5796,0.24077 -0.46738,13.1247 2.71185,16.70056c2.82459,3.17698 13.93815,2.29944 13.93815,2.29944l-5.4,5.75c0,0 -2.67673,-0.17437 -4.00575,-0.83816c-2.9169,-1.45686 -4.18376,-2.96184 -7.24425,-3.16184c-3.06048,-0.2 -5.78349,2.03128 -10.13895,3.09903c-3.14193,0.77025 -9.16105,0.90097 -9.16105,0.90097z" data-paper-data="{&quot;origPos&quot;:null}" fill="#182a62" stroke="none" stroke-width="0" stroke-linecap="butt" transform="matrix(1,0,0,1,-216.00381,-85.61634)"/><text transform="matrix(0.30123,0,0,0.30123,30.596190000000007,13.10351)" font-size="40" xml:space="preserve" data-paper-data="{&quot;origPos&quot;:null}" fill="#8995b9" fill-rule="nonzero" stroke="none" stroke-width="1" stroke-linecap="butt" stroke-linejoin="miter" stroke-miterlimit="10" stroke-dasharray="" stroke-dashoffset="0" font-family="Sans Serif" font-weight="normal" text-anchor="start" style="mix-blend-mode: normal"><tspan x="0" dy="0">A</tspan></text><path d="M 17.1962 22.3837 C 17.1962 17.634 21.0465 13.7837 25.7962 13.7837 C 30.5458 13.7837 34.3962 17.634 34.3962 22.3837 C 34.3962 27.1333 30.5458 30.9837 25.7962 30.9837 C 21.0465 30.9837 17.1962 27.1333 17.1962 22.3837 Z " data-paper-data="{&quot;origPos&quot;:null}" fill="none" stroke="#182a62" stroke-width="2.5" stroke-linecap="butt"/><path d="M 34.3962 22.7837 C 34.3962 18.2549 38.0675 14.5837 42.5962 14.5837 C 47.1249 14.5837 50.7962 18.2549 50.7962 22.7837 C 50.7962 27.3124 47.1249 30.9837 42.5962 30.9837 C 38.0675 30.9837 34.3962 27.3124 34.3962 22.7837 Z " data-paper-data="{&quot;origPos&quot;:null}" fill="none" stroke="#182a62" stroke-width="2.5" stroke-linecap="butt"/><path d="M229.4,117.80001l1.4,-8.2l4.6,4l2,4.2z" data-paper-data="{&quot;origPos&quot;:null}" fill="#182a62" stroke="none" stroke-width="0" stroke-linecap="butt" transform="matrix(1,0,0,1,-216.00381,-85.61634)"/><path d="M238.40157,109.34918c0,-2.66149 2.15756,-4.81905 4.81905,-4.81905c2.66149,0 4.81905,2.15756 4.81905,4.81905c0,2.66149 -2.15756,4.81905 -4.81905,4.81905c-2.66149,0 -4.81905,-2.15756 -4.81905,-4.81905z" data-paper-data="{&quot;origPos&quot;:null}" fill="#000000" stroke="none" stroke-width="0" stroke-linecap="butt" transform="matrix(1,0,0,1,-216.00381,-85.61634)"/><path d="M 22.6168 16.7265 L 31.7438 20.3773 " data-paper-data="{&quot;origPos&quot;:null}" fill="none" stroke="#000000" stroke-width="2.5" stroke-linecap="round"/></g></g></svg>