<svg xmlns="http://www.w3.org/2000/svg" xmlns:xlink="http://www.w3.org/1999/xlink" version="1.1" width="46.36872" height="60.26757" viewBox="0,0,46.36872,60.26757"><g><g data-paper-data="{&quot;isPaintingLayer&quot;:true}" fill-rule="nonzero" stroke-linejoin="miter" stroke-miterlimit="10" stroke-dasharray="" stroke-dashoffset="0" style="mix-blend-mode: normal"><path d="M228.0732,217.72739c0.49091,-6.61345 6.25011,-11.57674 12.86356,-11.08583c6.61345,0.49091 11.57674,6.25011 11.08583,12.86356c-0.49091,6.61345 -6.25011,11.57674 -12.86356,11.08583c-6.61345,-0.49091 -11.57674,-6.25011 -11.08583,-12.86356z" data-paper-data="{&quot;origPos&quot;:null,&quot;origRot&quot;:0}" fill="#009c0b" stroke="none" stroke-width="0" stroke-linecap="butt" transform="matrix(1,0,0,1,-218.11352,-187.03781)"/><path d="M250.20183,198.34117c-0.43559,5.86827 -4.75302,10.33117 -9.64324,9.96818c-4.89022,-0.36299 -8.50141,-5.41443 -8.06582,-11.2827c0.43559,-5.86827 4.75302,-10.33117 9.64324,-9.96818c4.89022,0.36299 8.50141,5.41442 8.06582,11.2827z" data-paper-data="{&quot;origPos&quot;:null,&quot;origRot&quot;:0}" fill="#009c0b" stroke="none" stroke-width="0" stroke-linecap="butt" transform="matrix(1,0,0,1,-218.11352,-187.03781)"/><path d="M242.55224,195.39874c0.12054,-1.62391 1.53469,-2.84263 3.15861,-2.72209c1.62391,0.12054 2.84263,1.53469 2.72209,3.15861c-0.12054,1.62391 -1.53469,2.84263 -3.15861,2.72209c-1.62391,-0.12054 -2.84263,-1.53469 -2.72209,-3.15861z" data-paper-data="{&quot;origPos&quot;:null,&quot;origRot&quot;:0}" fill="#000000" stroke="none" stroke-width="0" stroke-linecap="butt" transform="matrix(1,0,0,1,-218.11352,-187.03781)"/><path d="M234.79398,194.82286c0.12054,-1.62391 1.5347,-2.84263 3.15862,-2.72209c1.62391,0.12054 2.84263,1.53469 2.72209,3.15861c-0.12054,1.62391 -1.53469,2.84263 -3.15861,2.72209c-1.62391,-0.12054 -2.84264,-1.53469 -2.7221,-3.15861z" data-paper-data="{&quot;origPos&quot;:null,&quot;origRot&quot;:0}" fill="#000000" stroke="none" stroke-width="0" stroke-linecap="butt" transform="matrix(1,0,0,1,-218.11352,-187.03781)"/><path d="M 17.1477 2.3933 C 17.1477 2.3933 19.0772 1.5241 20.2721 1.5074 C 21.3298 1.4927 22.9196 2.313 22.9196 2.313 " data-paper-data="{&quot;origPos&quot;:null,&quot;origRot&quot;:0}" fill="none" stroke="#000000" stroke-width="1" stroke-linecap="round"/><path d="M 25.2808 2.4883 C 25.2808 2.4883 26.9743 1.9117 28.0182 2.0824 C 29.1976 2.2753 30.9776 3.4199 30.9776 3.4199 " data-paper-data="{&quot;origPos&quot;:null,&quot;index&quot;:null,&quot;origRot&quot;:0}" fill="none" stroke="#000000" stroke-width="1" stroke-linecap="round"/><path d="M 44.8687 12.7608 L 41.5133 19.1256 L 31.6863 25.858 " data-paper-data="{&quot;origPos&quot;:null,&quot;origRot&quot;:0}" fill="none" stroke="#009c0b" stroke-width="3" stroke-linecap="round"/><path d="M 12.6043 25.6928 L 3.8789 17.5833 L 1.5 10.7928 " data-paper-data="{&quot;origPos&quot;:null,&quot;index&quot;:null,&quot;origRot&quot;:0}" fill="none" stroke="#009c0b" stroke-width="3" stroke-linecap="round"/><path d="M 15.9196 40.8362 L 12.6379 56.9663 L 7.8028 58.264 " data-paper-data="{&quot;origPos&quot;:null,&quot;origRot&quot;:0}" fill="none" stroke="#009c0b" stroke-width="3" stroke-linecap="round"/><path d="M 31.4504 58.7676 L 26.8407 56.8991 L 25.7373 42.0631 " data-paper-data="{&quot;origPos&quot;:null,&quot;index&quot;:null,&quot;origRot&quot;:0}" fill="none" stroke="#009c0b" stroke-width="3" stroke-linecap="round"/><path d="M238.3462,199.48112l6.01034,0.44614c0,0 -0.00865,6.79825 -3.50708,6.53857c-3.49843,-0.25968 -2.50327,-6.98471 -2.50327,-6.98471z" data-paper-data="{&quot;origPos&quot;:null,&quot;origRot&quot;:0}" fill="#002f03" stroke="none" stroke-width="0" stroke-linecap="butt" transform="matrix(1,0,0,1,-218.11352,-187.03781)"/></g></g></svg>