<svg xmlns="http://www.w3.org/2000/svg" xmlns:xlink="http://www.w3.org/1999/xlink" version="1.1" width="13.72059" height="14.0967" viewBox="0,0,13.72059,14.0967"><g><g data-paper-data="{&quot;isPaintingLayer&quot;:true}" fill-rule="nonzero" stroke-linecap="butt" stroke-linejoin="miter" stroke-miterlimit="10" stroke-dasharray="" stroke-dashoffset="0" style="mix-blend-mode: normal"><g><path d="M233.14301,180.02085c-0.11072,-3.42133 2.57301,-6.28464 5.99434,-6.39536c3.42133,-0.11072 6.28465,2.57301 6.3954,5.99435c0.11072,3.42133 -2.57301,6.28462 -5.99436,6.39535c-3.42133,0.11072 -6.28463,-2.573 -6.39537,-5.99433z" fill="#bbb54b" stroke-width="NaN" stroke="none" transform="matrix(1,0,0,1,-233.1397,-172.4492)"/><path d="M234.30203,180.06603c-0.11222,-3.46696 2.60732,-6.36843 6.07428,-6.48064c3.46696,-0.11222 6.36844,2.60732 6.48063,6.07428c0.11222,3.46696 -2.60733,6.36843 -6.07426,6.48063c-3.46696,0.11222 -6.36843,-2.60733 -6.48064,-6.07429z" fill="#fff866" stroke-width="NaN" stroke="none" transform="matrix(1,0,0,1,-233.1397,-172.4492)"/><text transform="matrix(0.24781006647267328,-0.008025867853960986,0.008025867853960986,0.24781006647267328,4.082959999999986,10.995060000000024)" font-size="40" xml:space="preserve" fill="#bbb54b" fill-rule="nonzero" stroke="none" stroke-width="1" stroke-linecap="butt" stroke-linejoin="miter" stroke-miterlimit="10" stroke-dasharray="" stroke-dashoffset="0" font-family="Sans Serif" font-weight="normal" text-anchor="start" style="mix-blend-mode: normal"><tspan x="0" dy="0">C</tspan></text></g></g></g></svg>