<svg xmlns="http://www.w3.org/2000/svg" xmlns:xlink="http://www.w3.org/1999/xlink" version="1.1" width="29.980514526367188" height="29.830902099609375" viewBox="-2.5 -2.5000152587890625 29.980514526367188 29.830902099609375"><g><g data-paper-data="{&quot;isPaintingLayer&quot;:true}" fill-rule="nonzero" stroke-linecap="butt" stroke-linejoin="miter" stroke-miterlimit="10" stroke-dasharray="" stroke-dashoffset="0" font-family="none" font-weight="none" font-size="none" text-anchor="none" style="mix-blend-mode: normal"><g><path d="M 9.3518 8.1737 C 11.6495 6.4628 14.8991 6.9386 16.61 9.2363 C 18.3209 11.534 17.8451 14.7836 15.5474 16.4945 C 13.2497 18.2054 10.0001 17.7296 8.2892 15.432 C 6.5783 13.1343 7.0541 9.8846 9.3518 8.1738 Z " data-paper-data="{&quot;origPos&quot;:null}" fill="none" stroke-width="5" stroke="#666666"/><path d="M244.05859,174.19197c0,0 2.21668,-1.33396 3.8074,-1.37174c1.39274,-0.03306 3.83731,1.19018 3.83731,1.19018c0,0 -2.0843,0.7578 -3.17488,1.56982c-0.86268,0.64237 -1.83008,2.1569 -1.83008,2.1569z" data-paper-data="{&quot;origPos&quot;:null}" fill="#666666" stroke-width="0" stroke="#666666" transform="matrix(1,0,0,1,-227.50974,-167.58456)"/><path d="M235.73741,185.78532c0,0 -2.21668,1.33395 -3.8074,1.37174c-1.39274,0.03306 -3.83731,-1.19019 -3.83731,-1.19019c0,0 2.0843,-0.75779 3.17486,-1.56982c0.86268,-0.64237 1.83008,-2.1569 1.83008,-2.1569z" data-paper-data="{&quot;origPos&quot;:null,&quot;index&quot;:null}" fill="#666666" stroke-width="0" stroke="#666666" transform="matrix(1,0,0,1,-227.50974,-167.58456)"/><path d="M234.10983,175.76469c0,0 -1.33373,-2.21683 -1.37134,-3.80754c-0.03293,-1.39274 1.19059,-3.83717 1.19059,-3.83717c0,0 0.75757,2.08438 1.56949,3.17503c0.64226,0.86275 2.1567,1.83031 2.1567,1.83031z" data-paper-data="{&quot;origPos&quot;:null,&quot;index&quot;:null,&quot;origRot&quot;:0}" fill="#666666" stroke-width="0" stroke="#666666" transform="matrix(1,0,0,1,-227.50974,-167.58456)"/><path d="M245.74158,183.83157c0,0 1.33372,2.21683 1.37133,3.80754c0.03294,1.39274 -1.19058,3.83718 -1.19058,3.83718c0,0 -0.75757,-2.08438 -1.56949,-3.17503c-0.64227,-0.86275 -2.15669,-1.83031 -2.15669,-1.83031z" data-paper-data="{&quot;origPos&quot;:null,&quot;index&quot;:null,&quot;origRot&quot;:0}" fill="#666666" stroke-width="0" stroke="#666666" transform="matrix(1,0,0,1,-227.50974,-167.58456)"/><path d="M247.06249,179.09565c0,0 2.49776,0.67408 3.62717,1.79489c0.98886,0.98133 1.8006,3.59155 1.8006,3.59155c0,0 -1.99058,-0.97782 -3.33173,-1.20153c-1.06091,-0.17697 -2.82326,0.17488 -2.82326,0.17488z" data-paper-data="{&quot;origPos&quot;:null,&quot;origRot&quot;:0}" fill="#666666" stroke-width="0" stroke="#666666" transform="matrix(1,0,0,1,-227.50974,-167.58456)"/><path d="M232.9375,181.12841c0,0 -2.49776,-0.67409 -3.62716,-1.7949c-0.98886,-0.98133 -1.8006,-3.59155 -1.8006,-3.59155c0,0 1.99058,0.97782 3.33173,1.20153c1.06091,0.17697 2.82325,-0.17487 2.82325,-0.17487z" data-paper-data="{&quot;origPos&quot;:null,&quot;index&quot;:null,&quot;origRot&quot;:0}" fill="#666666" stroke-width="0" stroke="#666666" transform="matrix(1,0,0,1,-227.50974,-167.58456)"/><path d="M239.03516,173.01175c0,0 0.67435,-2.49769 1.79528,-3.62698c0.98142,-0.98875 3.59174,-1.80021 3.59174,-1.80021c0,0 -0.97804,1.99048 -1.2019,3.3316c-0.17708,1.06089 0.17457,2.82328 0.17457,2.82328z" data-paper-data="{&quot;origPos&quot;:null,&quot;index&quot;:null,&quot;origRot&quot;:0}" fill="#666666" stroke-width="0" stroke="#666666" transform="matrix(1,0,0,1,-227.50974,-167.58456)"/><path d="M241.27791,186.98825c0,0 -0.67434,2.49769 -1.79528,3.62698c-0.98142,0.98875 -3.59173,1.80021 -3.59173,1.80021c0,0 0.97804,-1.99047 1.20189,-3.33161c0.17708,-1.0609 -0.17458,-2.82328 -0.17458,-2.82328z" data-paper-data="{&quot;origPos&quot;:null,&quot;index&quot;:null,&quot;origRot&quot;:0}" fill="#666666" stroke-width="0" stroke="#666666" transform="matrix(1,0,0,1,-227.50974,-167.58456)"/></g></g></g></svg>