<svg xmlns="http://www.w3.org/2000/svg" xmlns:xlink="http://www.w3.org/1999/xlink" version="1.1" width="24.16928" height="10.69954" viewBox="0,0,24.16928,10.69954"><g><g data-paper-data="{&quot;isPaintingLayer&quot;:true}" fill-rule="nonzero" stroke-linecap="butt" stroke-linejoin="miter" stroke-miterlimit="10" stroke-dasharray="" stroke-dashoffset="0" style="mix-blend-mode: normal"><g><path d="M236.32949,174.65023l2.31085,3.50908l2.7652,0.05511l2.24165,-3.56418c0,0 1.21528,10.82678 -3.68025,10.6984c-4.86196,-0.12751 -3.63745,-10.6984 -3.63745,-10.6984z" fill="#e64242" stroke-width="0" stroke="none" transform="matrix(1,0,0,1,-227.91537,-174.65023)"/><path d="M238.71616,180.53297c-0.35556,-0.33685 -0.37073,-0.89815 -0.03389,-1.25371c0.33685,-0.35556 0.42517,0.04313 0.78074,0.37997c0.35556,0.33685 0.8437,0.4843 0.50686,0.83985c-0.33685,0.35556 -0.89815,0.37073 -1.25371,0.03389z" fill="#802626" stroke-width="0" stroke="none" transform="matrix(1,0,0,1,-227.91537,-174.65023)"/><path d="M241.27565,180.40184c-0.33685,-0.35556 0.1513,-0.50301 0.50686,-0.83986c0.35556,-0.33685 0.44389,-0.73553 0.78074,-0.37997c0.33685,0.35556 0.32168,0.91687 -0.03389,1.25371c-0.35556,0.33685 -0.91687,0.32168 -1.25371,-0.03389z" data-paper-data="{&quot;index&quot;:null}" fill="#802626" stroke-width="0" stroke="none" transform="matrix(1,0,0,1,-227.91537,-174.65023)"/><path d="M228.00488,179.45904c0.21335,-1.00824 1.16067,-2.46791 2.78637,-2.28082c1.74889,0.20127 6.5633,3.20522 6.5633,3.20522l-0.52226,1.78182c0,0 -0.51436,0.27876 -0.7869,0.54584c-0.34655,0.3396 -1.1242,1.32701 -1.1242,1.32701c0,0 -0.08659,-1.44713 -0.76318,-1.72424c-0.67659,-0.27711 -1.38808,0.88343 -1.38808,0.88343c0,0 -0.02375,-1.24606 -0.6388,-1.50634c-0.61504,-0.26028 -1.58107,1.0009 -1.58107,1.0009c0,0 0.05717,-1.56736 -0.61816,-1.70732c-0.67533,-0.13996 -1.64531,1.24666 -1.64531,1.24666c0,0 -0.59086,-1.3111 -0.2817,-2.77215z" fill="#e64242" stroke-width="0" stroke="none" transform="matrix(1,0,0,1,-227.91537,-174.65023)"/><path d="M251.7231,182.83036c0,0 -0.92421,-1.42612 -1.60363,-1.31443c-0.67943,0.11169 -0.6733,1.68038 -0.6733,1.68038c0,0 -0.92432,-1.30061 -1.54743,-1.06616c-0.6231,0.23445 -0.68739,1.47868 -0.68739,1.47868c0,0 -0.68548,-1.24269 -1.37062,-0.99398c-0.68515,0.24871 -0.81877,1.69123 -0.81877,1.69123c0,0 -0.74499,-1.01915 -1.08024,-1.37298c-0.26367,-0.27827 -0.76862,-0.57827 -0.76862,-0.57827l-0.46394,-1.80239c0,0 4.90888,-2.80114 6.66314,-2.92933c1.63069,-0.11917 2.44451,1.57341 2.65282,2.58299c0.2351,1.13942 -0.30204,2.62427 -0.30204,2.62427z" data-paper-data="{&quot;index&quot;:null}" fill="#e64242" stroke-width="0" stroke="none" transform="matrix(1,0,0,1,-227.91537,-174.65023)"/></g></g></g></svg>