<svg xmlns="http://www.w3.org/2000/svg" xmlns:xlink="http://www.w3.org/1999/xlink" version="1.1" width="55.7804" height="171.35235" viewBox="0,0,55.7804,171.35235"><g><g data-paper-data="{&quot;isPaintingLayer&quot;:true}" fill-rule="nonzero" stroke-linecap="none" stroke-linejoin="miter" stroke-miterlimit="10" stroke-dasharray="" stroke-dashoffset="0" font-family="none" font-weight="none" font-size="none" text-anchor="none" style="mix-blend-mode: normal"><path d="M 37.3804 91.9643 L 37.3804 83.3644 L 48.7804 83.3644 L 48.7804 91.9643 Z " data-paper-data="{&quot;origPos&quot;:null}" fill="none" stroke="#7c7c7c" stroke-width="1.5" stroke-linecap="butt"/><g data-paper-data="{&quot;origPos&quot;:null}" stroke-linecap="butt"><path d="M224.76477,189.83595v-43c0,0 4.98222,-3 8.5,-3c3.51778,0 8.75,3 8.75,3v43z" data-paper-data="{&quot;origPos&quot;:null}" fill="#ff0000" stroke-width="0" stroke="none" transform="matrix(1,0,0,1,-216.26903,-75.37695)"/><path d="M230.50131,144.44836v-5h5.66667v5z" data-paper-data="{&quot;origPos&quot;:null}" fill="#9a9a9a" stroke-width="0" stroke="none" transform="matrix(1,0,0,1,-216.26903,-75.37695)"/></g><path d="M 25.3453 62.8865 L 25.3453 130.1836 L 13.2976 169.1024 " data-paper-data="{&quot;origPos&quot;:null}" fill="none" stroke="#000000" stroke-width="4.5" stroke-linecap="round"/><path d="M 38.196 168.9056 L 26.1484 128.7469 " fill="none" stroke="#000000" stroke-width="4.5" stroke-linecap="round"/><path d="M 1.25 39.9961 C 1.25 26.0233 12.5772 14.6961 26.55 14.6961 C 40.5228 14.6961 51.85 26.0233 51.85 39.9961 C 51.85 53.9689 40.5228 65.2961 26.55 65.2961 C 12.5772 65.2961 1.25 53.9689 1.25 39.9961 Z " data-paper-data="{&quot;origPos&quot;:null}" fill="#d4d4d4" stroke="#000000" stroke-width="2.5" stroke-linecap="butt"/><path d="M238.40157,109.34922c0,-2.66149 2.15756,-4.81905 4.81905,-4.81905c2.66149,0 4.81905,2.15756 4.81905,4.81905c0,2.66149 -2.15756,4.81905 -4.81905,4.81905c-2.66149,0 -4.81905,-2.15756 -4.81905,-4.81905z" data-paper-data="{&quot;origPos&quot;:null}" fill="#000000" stroke="none" stroke-width="0" stroke-linecap="butt" transform="matrix(1,0,0,1,-216.26903,-75.37695)"/><path d="M252.05554,109.34922c0,-2.66148 2.15757,-4.81905 4.81905,-4.81905c2.66148,0 4.81905,2.15757 4.81905,4.81905c0,2.66148 -2.15757,4.81905 -4.81905,4.81905c-2.66148,0 -4.81905,-2.15757 -4.81905,-4.81905z" data-paper-data="{&quot;origPos&quot;:null}" fill="#000000" stroke="none" stroke-width="0" stroke-linecap="butt" transform="matrix(1,0,0,1,-216.26903,-75.37695)"/><path d="M 36.7437 86.7818 C 36.7437 86.7818 27.9064 90.6467 19.8134 78.5522 C 18.8158 77.0614 24.0421 71.2104 24.0421 71.2104 " data-paper-data="{&quot;origPos&quot;:null}" fill="none" stroke="#000000" stroke-width="4.5" stroke-linecap="round"/><path d="M 26.2325 71.2104 C 26.2325 71.2104 34.7965 72.6722 38.2297 74.888 C 42.6402 77.7345 46.3309 84.1818 46.3309 84.1818 " data-paper-data="{&quot;origPos&quot;:null,&quot;index&quot;:null}" fill="none" stroke="#000000" stroke-width="4.5" stroke-linecap="round"/><path d="M218.92228,102.57508l-1.29906,-9.61409l45.03403,-5.20763l1.29905,9.61408z" data-paper-data="{&quot;origRot&quot;:0,&quot;origPos&quot;:null}" fill="#ff0000" stroke="none" stroke-width="0" stroke-linecap="butt" transform="matrix(1,0,0,1,-216.26903,-75.37695)"/><path d="M222.05743,93.10361c-1.39475,-8.51851 5.58109,-16.3873 15.58096,-17.57543c9.99987,-1.18813 19.23703,4.75432 20.63178,13.27282c1.39475,8.51851 -34.81799,12.82111 -36.21274,4.3026z" data-paper-data="{&quot;origPos&quot;:null,&quot;origRot&quot;:0}" fill="#ff0000" stroke="none" stroke-width="0" stroke-linecap="butt" transform="matrix(1,0,0,1,-216.26903,-75.37695)"/><path d="M 47.5804 92.5644 C 47.5804 92.5644 41.2247 90.551 35.7521 93.512 C 30.2794 96.4731 32.4578 119.7014 23.4104 122.8324 C 16.6576 125.1693 15.5804 114.5644 15.5804 114.5644 " data-paper-data="{&quot;origPos&quot;:null}" fill="none" stroke="#b30000" stroke-width="3.5" stroke-linecap="round"/><g stroke-linecap="butt"><path d="M267.04943,174.14129v-14h5v14z" data-paper-data="{&quot;origPos&quot;:null}" stroke-width="0" fill="#7c7c7c" stroke="none" transform="matrix(1,0,0,1,-216.26903,-75.37695)"/><path d="M263.24943,171.54129v-8.8h5.6v8.8z" stroke-width="0" fill="#7c7c7c" stroke="none" transform="matrix(1,0,0,1,-216.26903,-75.37695)"/></g><g data-paper-data="{&quot;origPos&quot;:null,&quot;origRot&quot;:0}" stroke-linecap="butt"><path d="M235.84536,91.7862c-0.34255,-2.76399 1.6204,-5.28234 4.38439,-5.6249c2.76399,-0.34255 5.28234,1.6204 5.6249,4.38439c0.34255,2.76399 -1.6204,5.28234 -4.38439,5.6249c-2.76399,0.34255 -5.28234,-1.6204 -5.6249,-4.38439z" stroke-width="0" fill="#e7c800" stroke="none" transform="matrix(1,0,0,1,-216.26903,-75.37695)"/><path d="M235.408,89.58389c0,0 -0.90299,-1.79106 -0.75305,-3.5439c0.10123,-1.18333 0.67372,-1.69876 0.97927,-2.84644c0.3445,-1.294 0.61284,-3.4182 0.61284,-3.4182c0,0 0.63109,1.78297 0.80799,3.18348c0.09137,0.72338 -0.34537,1.55116 -0.17466,2.26002c0.14322,0.59473 0.93213,1.02205 0.93213,1.02205c0,0 -1.24442,0.66474 -1.69236,1.27178c-0.49395,0.66941 -0.71214,2.07119 -0.71214,2.07119z" data-paper-data="{&quot;origPos&quot;:null}" stroke-width="0" fill="#e7c800" stroke="none" transform="matrix(1,0,0,1,-216.26903,-75.37695)"/><path d="M244.60399,86.46123c-0.58258,-0.47933 -1.95163,-0.82016 -1.95163,-0.82016c0,0 0.66072,-0.60699 0.65443,-1.21868c-0.00751,-0.7291 -0.63312,-1.4252 -0.72111,-2.14899c-0.17036,-1.40133 0.00639,-3.28442 0.00639,-3.28442c0,0 0.77877,1.99444 1.42875,3.16517c0.57648,1.03835 1.25748,1.39843 1.64452,2.52126c0.57331,1.66321 0.13488,3.6205 0.13488,3.6205c0,0 -0.55381,-1.3061 -1.19623,-1.83468z" data-paper-data="{&quot;origPos&quot;:null,&quot;index&quot;:null}" stroke-width="0" fill="#e7c800" stroke="none" transform="matrix(1,0,0,1,-216.26903,-75.37695)"/><path d="M238.4183,85.96763c0,0 0.55951,-1.39195 0.51665,-1.95099c-0.08677,-1.13218 -0.83669,-1.47273 -0.66231,-2.60283c0.13501,-0.87476 1.09573,-2.77436 1.09573,-2.77436c0,0 0.35848,2.12607 0.67919,2.95929c0.3653,0.94906 1.02107,0.96339 1.56874,1.83473c0.3238,0.51518 0.23918,2.10815 0.23918,2.10815c0,0 -1.09925,-0.08374 -1.78563,0.00133c-0.65502,0.08118 -1.65157,0.42466 -1.65157,0.42466z" data-paper-data="{&quot;origPos&quot;:null}" stroke-width="0" fill="#e7c800" stroke="none" transform="matrix(1,0,0,1,-216.26903,-75.37695)"/></g></g></g></svg>