<svg xmlns="http://www.w3.org/2000/svg" xmlns:xlink="http://www.w3.org/1999/xlink" version="1.1" width="18.001379013061523" height="18.233362197875977" viewBox="-0.030792951583862305 -0.0031363368034362793 18.001379013061523 18.233362197875977"><g><g data-paper-data="{&quot;isPaintingLayer&quot;:true}" fill-rule="nonzero" stroke-linecap="butt" stroke-linejoin="miter" stroke-miterlimit="10" stroke-dasharray="" stroke-dashoffset="0" font-family="none" font-weight="none" font-size="none" text-anchor="none" style="mix-blend-mode: normal"><path d="M 7.3117 15.9827 C 6.4 15.6584 5.29 17.0658 4.491 16.5199 C 3.7946 16.0441 4.441 13.8824 4.1573 13.0881 C 3.6121 11.5617 1.398 11.7619 1 10.1906 C 0.7126 9.0563 2.5206 7.3626 2.9498 6.274 C 3.3251 5.3222 2.7032 3.5313 3.5805 3.0048 C 4.7327 2.3134 6.5545 3.6006 7.8982 3.6006 C 9.1197 3.6006 9.7904 1.1156 11.0064 1 C 12.0331 0.9024 12.6844 3.1114 13.58 3.6229 C 14.391 4.0861 16.8715 3.7022 16.9667 4.6312 C 17.0801 5.7384 14.6753 7.3526 14.6753 8.4656 C 14.6753 10.4578 17.2133 11.8347 16.0112 13.1554 C 15.6105 13.5956 13.2334 13.9383 12.6423 13.8682 C 12.6423 13.8682 11.5603 16.9112 9.7973 17.1974 C 9.1522 17.3021 10.7904 17.2202 7.3117 15.9827 Z " data-paper-data="{&quot;origPos&quot;:null}" stroke-width="2" fill="#fff300" stroke="#ff9200"/></g></g></svg>