<svg xmlns="http://www.w3.org/2000/svg" xmlns:xlink="http://www.w3.org/1999/xlink" version="1.1" width="55.55437" height="90.20723" viewBox="0,0,55.55437,90.20723"><g><g data-paper-data="{&quot;isPaintingLayer&quot;:true}" fill-rule="nonzero" stroke-linejoin="miter" stroke-miterlimit="10" stroke-dasharray="" stroke-dashoffset="0" style="mix-blend-mode: normal"><g><g data-paper-data="{&quot;index&quot;:null}" stroke-linecap="butt"><path d="M 22.6677 57.7184 C 22.6677 60.447 17.8172 62.6589 11.8339 62.6589 C 5.8505 62.6589 1 60.447 1 57.7184 C 1 54.9898 5.8505 52.7779 11.8339 52.7779 C 17.8172 52.7779 22.6677 54.9898 22.6677 57.7184 Z " fill="#99712c" stroke="#b28434" stroke-width="2"/><path d="M226.48792,196.86637l0.04724,-8.8811c0,0 5.70566,0.33263 7.84183,2.55096c2.13616,2.21832 0.7086,6.33015 0.7086,6.33015z" fill="#a77c31" stroke="none" stroke-width="0" transform="matrix(1,0,0,1,-213.31853,-134.17841)"/></g><g stroke-linecap="butt"><path d="M 10.8537 63.9164 C 7.5527 66.1672 4.8787 64.9882 3.1549 62.46 C 1.4311 59.9319 1.3102 57.012 4.6113 54.7612 C 7.9124 52.5104 13.4039 51.6828 15.1277 54.211 C 16.8515 56.7391 14.1548 61.6656 10.8537 63.9164 Z " data-paper-data="{&quot;index&quot;:null}" fill="#ffffee" stroke="#000000" stroke-width="1"/><path d="M 10.8033 62.4714 C 9.6501 63.2577 8.2744 63.2486 7.7305 62.4511 C 7.1867 61.6535 7.6808 60.3695 8.834 59.5831 C 9.9872 58.7968 11.363 58.8059 11.9068 59.6035 C 12.4506 60.4011 11.9566 61.6851 10.8033 62.4714 Z " data-paper-data="{&quot;index&quot;:null}" fill="#80ab52" stroke="#548029" stroke-width="1"/><path d="M 9.0952 55.5537 C 7.8277 55.9136 5.5046 55.4161 5.3158 54.751 C 5.1269 54.0859 7.0515 53.4537 8.319 53.0938 C 9.5864 52.7338 11.6647 52.3692 11.8535 53.0342 C 12.0424 53.6993 10.3626 55.1938 9.0952 55.5537 Z " data-paper-data="{&quot;index&quot;:null}" fill="#80ab52" stroke="#548029" stroke-width="1"/><path d="M 5.1421 61.1285 C 4.3768 61.6502 3.1196 61.9777 2.4214 60.9538 C 1.7233 59.9299 1.8096 57.969 2.6387 57.2893 C 3.355 56.7021 4.5654 57.3059 5.2636 58.3298 C 5.9617 59.3537 5.9073 60.6067 5.1421 61.1285 Z " data-paper-data="{&quot;index&quot;:null}" fill="#80ab52" stroke="#548029" stroke-width="1"/><path d="M 14.9175 58.0653 C 14.2708 58.5062 13.4487 58.4268 13.0813 57.8879 C 12.7138 57.349 12.9402 56.5547 13.5869 56.1137 C 14.2335 55.6728 15.0557 55.7522 15.4231 56.2911 C 15.7905 56.83 15.5642 57.6243 14.9175 58.0653 Z " data-paper-data="{&quot;index&quot;:null}" fill="#80ab52" stroke="#548029" stroke-width="1"/><path d="M 10.8537 63.9164 C 7.5527 66.1672 4.8787 64.9882 3.1549 62.46 C 1.4311 59.9319 1.3102 57.012 4.6113 54.7612 C 7.9124 52.5104 13.4039 51.6828 15.1277 54.211 C 16.8515 56.7391 14.1548 61.6656 10.8537 63.9164 Z " data-paper-data="{&quot;index&quot;:null}" fill="none" stroke="#000000" stroke-width="1"/></g><g stroke-linecap="butt"><path d="M 21.2289 50.3694 C 21.6016 54.3474 19.276 56.1171 16.2294 56.4025 C 13.1828 56.6879 10.569 55.381 10.1963 51.403 C 9.8236 47.425 11.7564 42.2186 14.8029 41.9332 C 17.8495 41.6478 20.8562 46.3914 21.2289 50.3694 Z " data-paper-data="{&quot;index&quot;:null}" fill="#ffffee" stroke="#000000" stroke-width="1"/><path d="M 15.4377 48.6025 C 15.6394 50.7562 14.6886 52.6065 13.3139 52.7353 C 11.9392 52.864 9.7899 53.3129 10.2669 49.0241 C 10.5061 46.8743 11.2085 45.0649 12.5832 44.9361 C 13.9579 44.8073 15.2359 46.4488 15.4377 48.6025 Z " fill="#ff0000" stroke="#de0000" stroke-width="1"/><path d="M 20.3936 47.2279 C 20.4918 48.2762 19.03 47.7637 18.2224 47.8394 C 17.4148 47.915 16.6804 47.1266 16.5822 46.0784 C 16.484 45.0302 16.5186 43.0399 17.3262 42.9642 C 18.1339 42.8886 20.2954 46.1797 20.3936 47.2279 Z " fill="#ff0000" stroke="#de0000" stroke-width="1"/><path d="M 21.0388 52.4405 C 21.1435 53.5574 20.4273 54.5379 19.4393 54.6305 C 18.4512 54.723 17.5654 53.8926 17.4608 52.7757 C 17.3561 51.6588 18.0723 50.6783 19.0603 50.5857 C 20.0484 50.4931 20.9342 51.3235 21.0388 52.4405 Z " fill="#ff0000" stroke="#de0000" stroke-width="1"/><path d="M 21.2296 50.3765 C 21.6022 54.3545 19.2766 56.1242 16.2301 56.4096 C 13.1835 56.695 10.5697 55.3881 10.197 51.4101 C 9.8243 47.4321 11.757 42.2258 14.8036 41.9403 C 17.8502 41.6549 20.8569 46.3985 21.2295 50.3765 Z " data-paper-data="{&quot;index&quot;:null}" fill="none" stroke="#000000" stroke-width="1"/></g><g stroke-linecap="butt"><path d="M 13.7769 54.6399 C 12.5351 58.4374 9.6973 59.135 6.7889 58.184 C 3.8805 57.233 2.0031 54.9935 3.2448 51.196 C 4.4866 47.3984 8.3323 43.3918 11.2407 44.3429 C 14.149 45.2939 15.0187 50.8424 13.7769 54.6399 Z " data-paper-data="{&quot;index&quot;:null}" fill="#ffffee" stroke="#000000" stroke-width="1"/><path d="M 8.1269 50.8871 C 7.397 51.6722 6.4003 51.9321 5.9007 51.4676 C 5.4011 51.0031 5.5878 49.9902 6.3177 49.2051 C 7.0476 48.42 8.0442 48.1601 8.5438 48.6246 C 9.0434 49.0891 8.8567 50.102 8.1269 50.8871 Z " data-paper-data="{&quot;index&quot;:null}" fill="#4848ab" stroke="#3b3b8d" stroke-width="1"/><path d="M 12.7944 56.5092 C 12.3016 57.3948 11.6084 58.052 10.8488 57.8037 C 10.0893 57.5553 9.729 56.5731 10.044 55.6098 C 10.3589 54.6465 11.0288 54.2236 11.9895 54.3153 C 14.8219 54.5859 13.156 55.8594 12.7944 56.5092 Z " data-paper-data="{&quot;index&quot;:null}" fill="#4848ab" stroke="#3b3b8d" stroke-width="1"/><path d="M 4.7096 53.6427 C 5.3209 53.8426 5.6593 54.4852 5.4655 55.078 C 5.2716 55.6708 4.6189 55.9893 4.0076 55.7894 C 3.3963 55.5895 3.0579 54.9469 3.2517 54.3541 C 3.4456 53.7613 4.0983 53.4428 4.7096 53.6427 Z " data-paper-data="{&quot;index&quot;:null}" fill="#4848ab" stroke="#3b3b8d" stroke-width="1"/><path d="M 12.1369 45.5411 C 12.8187 45.2603 13.508 46.219 13.9008 47.8408 C 14.012 48.2999 14.9435 50.1112 12.3165 50.8194 C 11.6046 51.0113 11.0121 50.2031 10.9258 48.8159 C 10.8395 47.4287 11.4552 45.8218 12.1369 45.5411 Z " data-paper-data="{&quot;index&quot;:null}" fill="#4848ab" stroke="#3b3b8d" stroke-width="1"/><path d="M 13.7769 54.6399 C 12.5351 58.4375 9.6973 59.135 6.7889 58.184 C 3.8805 57.233 2.003 54.9935 3.2448 51.196 C 4.4866 47.3984 8.3323 43.3918 11.2406 44.3429 C 14.149 45.2939 15.0187 50.8424 13.7769 54.6399 Z " data-paper-data="{&quot;index&quot;:null}" fill="none" stroke="#000000" stroke-width="1"/></g><g stroke-linecap="butt"><path d="M 22.6391 60.3578 C 22.6391 64.3532 20.1586 65.8982 17.0987 65.8982 C 14.0388 65.8982 11.5583 64.3532 11.5583 60.3578 C 11.5583 56.3624 13.9682 51.359 17.0281 51.359 C 20.088 51.359 22.6391 56.3624 22.6391 60.3578 Z " data-paper-data="{&quot;index&quot;:null}" fill="#ffffee" stroke="#000000" stroke-width="1"/><path d="M 15.868 59.3456 C 15.72 62.499 13.9766 62.9543 12.6624 62.9543 C 11.3483 62.9543 11.7038 60.783 11.6688 59.5195 C 12.0166 56.6381 13.0005 53.5195 14.0537 54.6934 C 14.9314 55.6715 15.9907 56.731 15.868 59.3456 Z " fill="#f3f348" stroke="#d6d841" stroke-width="1"/><path d="M 22.196 62.7586 C 22.196 63.419 21.0714 64.9977 20.4351 64.9977 C 19.7988 64.9977 19.2395 63.419 19.2395 62.7586 C 19.2395 62.0983 19.7553 61.563 20.3916 61.563 C 21.028 61.563 22.196 62.0983 22.196 62.7586 Z " fill="#f3f348" stroke="#d6d841" stroke-width="1"/><path d="M 22.5438 58.9977 C 22.498 60.0808 20.8483 59.0412 20.0438 59.0412 C 19.2394 59.0412 18.5873 58.1653 18.5873 57.0847 C 18.5873 56.0041 19.6742 53.9978 20.4786 53.9978 C 21.283 53.9978 22.5876 57.9642 22.5438 58.9978 Z " fill="#f3f348" stroke="#d6d841" stroke-width="1"/><path d="M 22.6391 60.3647 C 22.6391 64.3601 20.1586 65.9051 17.0987 65.9051 C 14.0388 65.9051 11.5582 64.3601 11.5582 60.3647 C 11.5582 56.3693 13.9682 51.3659 17.0281 51.3659 C 20.088 51.3659 22.6391 56.3693 22.6391 60.3647 Z " data-paper-data="{&quot;index&quot;:null}" fill="none" stroke="#000000" stroke-width="1"/></g><path d="M 22.6677 57.7537 C 23.0877 57.4426 22.6598 80.3202 19.4301 80.3101 C 18.4643 80.307 9.0551 80.3072 7.1051 80.0919 C 3.2757 79.6691 1.7764 63.4441 1.0706 58.53 C 0.9703 57.8321 3.1883 62.5883 12.2573 62.5178 C 18.4354 62.4697 22.7599 60.1087 22.6677 57.7537 Z " data-paper-data="{&quot;index&quot;:null}" fill="#eebb44" stroke="#c7933a" stroke-width="2" stroke-linecap="butt"/><g data-paper-data="{&quot;index&quot;:null}"><path d="M226.62966,213.96722v-16.91189l8.83386,-2.26752l-1.08652,19.17941z" fill="#e1b141" stroke="none" stroke-width="0" stroke-linecap="butt" transform="matrix(1,0,0,1,-213.31853,-134.17841)"/><path d="M 10.7399 68.3758 L 16.4568 68.3758 " fill="none" stroke="#c5923a" stroke-width="2" stroke-linecap="round"/><path d="M 16.4568 72.3282 L 12.2926 72.3988 " fill="none" stroke="#c5923a" stroke-width="2" stroke-linecap="round"/><path d="M 12.9278 75.2925 L 16.5274 75.2925 " fill="none" stroke="#c5923a" stroke-width="1" stroke-linecap="round"/><path d="M 21.6796 61.1767 C 21.6796 61.1767 17.8278 64.0451 12.5052 63.954 C 7.3611 63.8661 2.4583 61.4813 2.4583 61.4813 " fill="none" stroke="#b28434" stroke-width="1" stroke-linecap="round"/></g><path d="M 22.6677 57.7537 C 23.0877 57.4426 22.6598 80.3202 19.4301 80.3101 C 18.4643 80.307 9.0551 80.3072 7.1051 80.0919 C 3.2757 79.6691 1.7764 63.4441 1.0706 58.53 C 0.9703 57.8321 3.1883 62.5883 12.2573 62.5178 C 18.4354 62.4697 22.7599 60.1087 22.6677 57.7537 Z " data-paper-data="{&quot;index&quot;:null}" fill="none" stroke="#c7933a" stroke-width="2" stroke-linecap="butt"/></g><path d="M 48.1623 67.8545 C 48.1623 67.8545 50.8627 71.8077 51.4238 74.6617 C 51.8165 76.6589 49.1901 79.6504 48.0404 79.9609 C 41.7904 81.6493 43.1578 72.5349 42.921 72.5696 C 42.7211 72.5989 38.7728 82.8075 36.686 84.2343 C 35.8734 85.5458 32.1555 76.8444 32.9961 79.2865 C 34.0444 82.3317 39.1731 88.1716 39.1255 89.198 C 39.0945 89.8649 29.527 89.198 29.527 89.198 C 29.527 89.198 21.1313 79.0802 21.0141 76.8528 C 20.9707 76.0263 21.8576 74.8511 21.2247 75.053 C 20.5919 75.2548 16.6166 80.7494 14.5053 78.9284 C 12.394 77.1074 11.8229 74.7755 12.3158 72.5765 C 12.8087 70.3774 17.3457 67.1404 17.3457 67.1404 L 18.1905 66.6236 Z " data-paper-data="{&quot;index&quot;:null}" fill="#ffffee" stroke="#000000" stroke-width="2" stroke-linecap="round"/><path d="M 20.7868 68.6241 C 20.7868 68.6241 22.9285 71.8532 22.6644 74.9579 C 22.4949 76.9505 21.8124 77.8741 21.8124 77.8741 " fill="none" stroke="#c7933a" stroke-width="2" stroke-linecap="round"/><path d="M 40.694 68.4487 C 40.708 69.4361 41.1808 72.4602 40.3018 75.5334 C 39.2141 79.3365 38.0908 82.5782 34.8276 81.6503 C 33.6082 81.3036 31.5561 78.4165 28.5592 74.1508 C 27.2092 72.2293 26.8801 69.9781 26.6559 69.0726 Z " data-paper-data="{&quot;index&quot;:null}" fill="#dd77bb" stroke="#cb6eac" stroke-width="1" stroke-linecap="round"/><path d="M 48.2123 67.8545 C 48.2123 67.8545 50.8627 71.8076 51.4238 74.6617 C 51.8165 76.6588 49.1901 79.6504 48.0405 79.9609 C 41.7904 81.6492 43.3201 70.2956 43.071 70.2696 C 42.9594 70.2579 42.9992 71.8633 42.4222 73.4012 C 41.0151 77.1518 38.166 83.2224 36.686 84.2342 C 35.8734 85.5458 32.1555 76.8444 32.9961 79.2865 C 34.0444 82.3317 39.1731 88.1716 39.1255 89.198 C 39.0946 89.8649 29.527 89.198 29.527 89.198 C 29.527 89.198 21.1313 79.0802 21.0141 76.8528 C 20.9707 76.0262 21.8576 74.8511 21.2248 75.053 C 20.5919 75.2548 16.6166 80.7494 14.5053 78.9284 C 12.394 77.1074 11.8229 74.7755 12.3158 72.5765 C 12.8087 70.3774 17.3457 67.1404 17.3457 67.1404 L 18.1905 66.6236 Z " data-paper-data="{&quot;index&quot;:null}" fill="none" stroke="#000000" stroke-width="2" stroke-linecap="round"/><path d="M 28.687 89.1617 C 28.687 89.1617 21.4004 88.9894 21.2325 88.9799 C 20.7839 88.9542 24.687 83.2526 24.687 83.2526 Z " fill="#ffffee" stroke="#000000" stroke-width="2" stroke-linecap="round"/><g data-paper-data="{&quot;index&quot;:null}" stroke-linecap="round"><path d="M 34.5616 31.4116 C 34.5616 31.4116 33.0247 25.7137 31.337 20.2189 C 30.4576 17.3559 29.0586 14.4796 28.836 12.6391 C 28.414 9.15 27.598 0.951 32.7782 1.0002 C 34.1184 0.8172 39.6359 3.6367 42.1644 13.2023 C 43.6488 24.3526 38.4099 31.8809 38.4099 31.8809 Z " fill="#ffffee" stroke="#000000" stroke-width="2"/><path d="M 36.198 30.8208 C 36.198 30.8208 35.4709 23.5137 34.6094 18.1116 C 33.7478 12.7095 31.4668 5.8991 32.7228 4.4095 C 33.8789 3.0386 38.1424 8.2593 38.7796 11.8563 C 39.4167 15.4534 36.9923 30.7215 36.9923 30.7215 Z " fill="#dd77bb" stroke="#cb6eac" stroke-width="1"/></g><g data-paper-data="{&quot;index&quot;:null}" stroke-linecap="round"><path d="M 18.7927 35.216 C 17.1292 25.4829 8.2091 17.8182 5.5582 11.1873 C 5.2589 8.9998 4.5431 4.0079 7.06 2.1765 C 10.8714 0.6715 12.5177 0.9705 15.6014 2.6458 C 18.6541 4.3043 21.3849 7.2996 22.9227 11.5628 C 24.4605 15.826 24.703 26.0502 23.5797 32.6818 Z " fill="#ffffee" stroke="#000000" stroke-width="2"/><path d="M 20.13 34.2171 C 19.0997 28.1889 14.8202 18.9104 13.9341 17.3615 C 13.2255 16.1229 8.3654 5.9179 10.7962 4.9581 C 13.1568 4.026 18.6222 10.7462 20.7253 17.6755 C 21.6777 20.3159 23.1536 28.9383 22.4579 33.0455 Z " fill="#dd77bb" stroke="#cb6eac" stroke-width="1"/></g><g><path d="M 26.6938 32.3257 C 32.0106 30.8674 38.6532 31.8378 40.7269 32.3257 C 43.9095 33.0745 51.1233 43.6422 54.2221 47.712 C 55.7285 50.7344 55.8775 54.5562 54.5914 59.1517 C 53.2357 60.7735 51.6939 64.146 45.0109 66.7415 C 42.7434 67.6222 26.3807 67.472 24.1389 66.8918 C 12.0243 63.7568 10.0829 53.668 10.613 49.4585 C 11.1431 45.2489 10.7186 43.5902 14.5205 39.5395 C 18.3224 35.4889 21.3769 33.7841 26.6938 32.3257 Z " data-paper-data="{&quot;index&quot;:null}" fill="#ffffee" stroke="#000000" stroke-width="2" stroke-linecap="round"/><path d="M 43.0216 50.9415 C 43.0216 48.3693 45.2931 46.5636 47.8653 46.5636 C 50.4375 46.5636 52.4761 48.9748 52.4761 51.547 C 52.4761 54.1192 50.0649 56.1113 47.4927 56.1113 C 44.9205 56.1113 43.0216 53.5137 43.0216 50.9415 Z " data-paper-data="{&quot;index&quot;:null}" fill="#dd77bb" stroke="#cb6eac" stroke-width="1" stroke-linecap="butt"/><path d="M 27.9758 50.8465 C 28.1121 52.0366 26.3604 54.7022 23.3108 54.7022 C 20.2613 54.7022 17.6305 52.6098 17.6463 50.9893 C 17.6574 49.8492 18.6905 48.7121 22.5968 48.6568 C 26.6934 48.5988 27.8567 49.807 27.9758 50.8465 Z " data-paper-data="{&quot;index&quot;:null}" fill="#dd77bb" stroke="#cb6eac" stroke-width="1" stroke-linecap="butt"/><g data-paper-data="{&quot;index&quot;:null}" stroke-linecap="butt"><path d="M 36.9334 44.1133 C 36.9334 42.0657 38.5934 40.4058 40.641 40.4058 C 42.6886 40.4058 44.3486 42.0657 44.3486 44.1133 C 44.3486 46.161 42.6886 47.8209 40.641 47.8209 C 38.5934 47.8209 36.9334 46.161 36.9334 44.1133 Z " fill="#a93132" stroke="#a93132" stroke-width="1"/><path d="M256.74231,176.76732c0.12046,0.19444 -0.1839,0.7057 -0.13243,1.01848c0.05014,0.30471 0.45682,0.4112 0.51945,0.58703c0.27553,0.77342 -0.88482,1.57854 -1.25484,0.86104c-0.19169,-0.3717 -0.78225,-0.25238 -1.03959,-0.66773c-0.22655,-0.36568 -0.4402,-0.95519 -1.38788,-1.2611c-1.02701,-0.33152 -0.66797,-1.71859 -0.33347,-1.92583c0.25743,-0.15949 1.54315,-0.69565 1.84763,0.12187c0.26412,0.70912 1.43302,0.7044 1.78112,1.26626z" fill="#ffffff" stroke="#000000" stroke-width="0" transform="matrix(1,0,0,1,-213.31853,-134.17841)"/></g><g data-paper-data="{&quot;index&quot;:null}" stroke-linecap="butt"><path d="M 26.4894 45.6368 C 26.4894 44.3408 27.54 43.2902 28.836 43.2902 C 30.132 43.2902 31.1825 44.3408 31.1825 45.6368 C 31.1825 46.9327 30.132 47.9833 28.836 47.9833 C 27.54 47.9833 26.4894 46.9327 26.4894 45.6368 Z " fill="#a93132" stroke="#a93132" stroke-width="1"/><path d="M242.11148,179.32044c0,-0.55619 0.45088,-1.00707 1.00707,-1.00707c0.55619,0 1.00707,0.45088 1.00707,1.00707c0,0.55619 -0.45088,1.00707 -1.00707,1.00707c-0.29174,0 -0.13175,-0.20861 -0.31567,-0.40685c-0.16671,-0.17969 -0.69139,-0.33578 -0.69139,-0.60022z" fill="#ffffff" stroke="none" stroke-width="0" transform="matrix(1,0,0,1,-213.31853,-134.17841)"/></g><g stroke-linecap="butt"><path d="M256.81761,191.15064c0,0.42783 0.63029,3.50952 -1.21987,4.02945c-2.01585,0.5665 -4.71799,-1.0512 -5.82361,-1.0512c-0.75746,0 -1.96575,0.89388 -3.04515,1.03026c-2.54769,0.32189 -4.47691,-0.22446 -4.91137,-0.53026c-1.17391,-0.82626 -2.07278,-2.14529 -2.00953,-3.0653c0.07973,-1.15971 2.30895,-3.12419 2.24051,-2.15093c-0.08934,1.27039 -0.67352,1.95838 0.20824,2.66724c1.33813,1.07575 5.12173,1.12039 5.95226,0.80464c0.73327,-0.27877 0.02176,-3.97305 2.04331,-2.97305c0.44431,0.21979 0.17473,3.01529 0.64227,3.28584c0.50144,0.29018 2.62095,0.33648 3.85509,-0.33093c1.27773,-0.69099 2.06786,-2.0256 2.06786,-1.71578z" fill="#683b48" stroke-width="0" stroke="none" transform="matrix(1,0,0,1,-213.31853,-134.17841)"/><path d="M253.77272,188.26538c-0.13554,0.96476 -1.49675,2.10498 -4.09589,2.04626c-1.94305,-0.0439 -3.99179,-1.15437 -4.14292,-2.11682c-0.28224,-1.79745 2.76503,-1.23506 4.23701,-1.24657c1.56645,-0.01226 4.28405,-0.692 4.0018,1.31713z" fill="#de5566" stroke-width="0" stroke="none" transform="matrix(1,0,0,1,-213.31853,-134.17841)"/></g></g></g></g></svg>