<svg version="1.1" xmlns="http://www.w3.org/2000/svg" xmlns:xlink="http://www.w3.org/1999/xlink" width="76.56172" height="157.40637" viewBox="0,0,76.56172,157.40637"><g transform="translate(-206.44863,-88.46583)"><g data-paper-data="{&quot;isPaintingLayer&quot;:true}" fill-rule="nonzero" stroke-linejoin="miter" stroke-miterlimit="10" stroke-dasharray="" stroke-dashoffset="0" style="mix-blend-mode: normal"><g><path d="M237.43158,202.10613c0,0 2.68994,-0.50659 3.9803,-0.50659c1.26623,0 3.69083,0.50659 3.69083,0.50659" data-paper-data="{&quot;index&quot;:null}" fill="none" stroke="#d77d00" stroke-width="1.5" stroke-linecap="round"/><path d="M229.96111,145.63239c-2.0255,-0.72339 -1.85865,-3.10493 -1.05253,-4.7886c-0.02852,-0.06661 -0.05743,-0.13282 -0.08678,-0.19842c-0.09485,-0.21195 -1.49708,-2.12077 -1.54085,-2.71259c-0.43278,-0.40486 -0.685,-0.74703 -0.67036,-0.95935c-0.09577,-0.19754 -0.14947,-0.41926 -0.14947,-0.65353c0,-0.80031 0.62675,-1.45423 1.4162,-1.4977c0.05983,-0.0115 0.1223,-0.01535 0.18781,-0.01039c1.53706,0.11642 3.19017,2.50673 4.68143,3.17338c1.20761,0.53985 3.7979,0.13045 3.7979,2.00138c0,1.39253 -0.95035,1.76577 -2.26318,1.57724c-0.38345,0.53994 -1.10851,0.36922 -1.61386,0.77222c0.53444,1.92802 -0.10072,4.22693 -2.7063,3.29637z" fill="#51cc5f" stroke="none" stroke-width="0.5" stroke-linecap="butt"/><path d="M241.35741,137.9063v67.2971l-12.0476,38.9188" data-paper-data="{&quot;origPos&quot;:null}" fill="none" stroke="#000000" stroke-width="3.5" stroke-linecap="round"/><path d="M254.20821,243.9253l-12.0476,-40.1587" fill="none" stroke="#000000" stroke-width="3.5" stroke-linecap="round"/><path d="M217.26221,115.01583c0,-13.9728 11.3272,-25.3 25.3,-25.3c13.9728,0 25.3,11.3272 25.3,25.3c0,13.9728 -11.3272,25.3 -25.3,25.3c-13.9728,0 -25.3,-11.3272 -25.3,-25.3z" data-paper-data="{&quot;origPos&quot;:null}" fill="#d4d4d4" stroke="#000000" stroke-width="2.5" stroke-linecap="butt"/><path d="M223.6978,125.68125c-0.66893,-0.66893 2.10956,-1.02429 1.55473,-1.93339c-1.09269,-1.7904 -3.40685,-3.04668 -2.33593,-4.1176c0.64143,-0.64143 5.30341,-2.19639 6.0721,-2.1034c1.16636,0.14109 0.33369,3.09501 1.53095,4.29228c0.82225,0.82225 2.90781,0.902 3.13619,1.88526c0.32331,1.39201 -0.75902,2.9307 -1.7053,3.87698c-0.67168,0.67168 -1.38863,3.8633 -2.35074,3.88852c-1.35073,0.0354 -4.74196,-4.62859 -5.90201,-5.78863z" fill="#82e48d" stroke="none" stroke-width="0" stroke-linecap="butt"/><path d="M245.96909,111.59844c-0.7346,1.92369 -3.91022,-3.28128 -5.22346,-1.37085c-2.58633,3.76247 -3.02572,9.47723 -6.10546,8.30116c-1.84462,-0.70441 -9.07788,-8.58565 -9.57633,-10.19569c-0.75632,-2.44295 5.8532,-3.41387 7.16801,-6.85694c0.90299,-2.36462 -0.7922,-6.57949 0.95854,-7.90717c2.47855,-1.87963 6.49788,-1.09664 9.21917,-0.05745c1.93162,0.73764 8.91054,-0.67449 9.81577,1.21479c1.27088,2.65242 -4.98229,13.53611 -6.25625,16.87215z" fill="#a3dcab" stroke="none" stroke-width="0" stroke-linecap="butt"/><path d="M238.14474,108.99203c0,-2.66149 2.15756,-4.81905 4.81905,-4.81905c2.66149,0 4.81905,2.15756 4.81905,4.81905c0,2.66149 -2.15756,4.81905 -4.81905,4.81905c-2.66149,0 -4.81905,-2.15756 -4.81905,-4.81905z" data-paper-data="{&quot;origPos&quot;:null}" fill="#000000" stroke="none" stroke-width="0" stroke-linecap="butt"/><path d="M251.7987,108.99203c0,-2.66148 2.15757,-4.81905 4.81905,-4.81905c2.66148,0 4.81905,2.15757 4.81905,4.81905c0,2.66148 -2.15757,4.81905 -4.81905,4.81905c-2.66148,0 -4.81905,-2.15757 -4.81905,-4.81905z" data-paper-data="{&quot;origPos&quot;:null}" fill="#000000" stroke="none" stroke-width="0" stroke-linecap="butt"/><path d="M240.05431,146.2301c0,0 -4.8567,21.6796 -9.0854,23.2346c-1.95443,0.71877 -4.22596,-0.20139 -7.38756,-0.64452c-3.85417,-0.5402 -5.4414,0.91496 -9.76126,-0.43296" data-paper-data="{&quot;origPos&quot;:null}" fill="none" stroke="#000000" stroke-width="3.5" stroke-linecap="round"/><path d="M267.04305,157.00151c0,0 -1.48031,0.39107 -2.6212,1.83355c-3.26741,4.13115 -8.8524,13.16478 -11.3446,12.02445c-6.0813,-2.7823 -10.8326,-24.6294 -10.8326,-24.6294" data-paper-data="{&quot;origPos&quot;:null,&quot;index&quot;:null}" fill="none" stroke="#000000" stroke-width="3.5" stroke-linecap="round"/><path d="M255.23194,99.86159c0,1.5 -1.5,1.5 -1.5,1.5h-2c-2.52693,-0.00139 -5.6941,0.39605 -7.93645,-1.11343c-2.26977,-1.52794 -3.03674,-5.15419 -5.84499,-4.17644c0,0 -1.46013,0.34356 -1.80368,-1.11657c-0.34356,-1.46013 1.11657,-1.80368 1.11657,-1.80368c0.93773,-0.16658 1.88492,-0.71285 2.81319,-0.49975c2.33849,0.53685 3.51795,3.75545 5.34182,5.07331c1.5389,1.11195 4.62788,0.63754 6.31355,0.63657h2c0,0 1.5,0 1.5,1.5z" fill="#51cc5f" stroke="none" stroke-width="0.5" stroke-linecap="butt"/><path d="M230.80408,123.65013c-1.45521,0.3638 -1.81902,-1.09141 -1.81902,-1.09141l-0.30561,-1.28978c-2.16732,-3.55217 -6.43078,-6.96696 -4.89774,-11.58975c0.29383,-0.88604 1.03166,-1.55605 1.54749,-2.33407c0,0 0.84979,-1.23606 2.08586,-0.38627c1.23606,0.84979 0.38627,2.08586 0.38627,2.08586c-3.0686,4.25118 1.41466,7.30325 3.64976,11.07618l0.44439,1.71022c0,0 0.3638,1.45521 -1.09141,1.81902z" fill="#51cc5f" stroke="none" stroke-width="0.5" stroke-linecap="butt"/><path d="M238.42547,134.29877c-1.22885,0.86019 -2.08904,-0.36865 -2.08904,-0.36865l-1.00038,-1.46517c-0.98013,-3.39555 -0.62316,-5.3199 1.20174,-8.30617c0,0 0.78615,-1.27749 2.06363,-0.49134c1.27749,0.78615 0.49134,2.06363 0.49134,2.06363c-1.25956,2.03035 -1.70507,3.10495 -1.04826,5.44383l0.74962,1.03483c0,0 0.86019,1.22885 -0.36865,2.08904z" fill="#51cc5f" stroke="none" stroke-width="0.5" stroke-linecap="butt"/><path d="M224.50302,99.91206c-1.46714,-0.31226 -1.15488,-1.7794 -1.15488,-1.7794l0.42837,-1.25929c3.3485,-4.14871 7.72672,-5.68643 12.82021,-6.88857c0,0 1.46013,-0.34356 1.80368,1.11657c0.34356,1.46013 -1.11657,1.80368 -1.11657,1.80368c-4.3641,1.02349 -8.3465,2.22229 -11.15788,5.83382l0.15646,0.01831c0,0 -0.31226,1.46714 -1.7794,1.15488z" fill="#51cc5f" stroke="none" stroke-width="0.5" stroke-linecap="butt"/><path d="M218.93783,129.31009c-1.32353,0.70588 -2.02941,-0.61765 -2.02941,-0.61765l-1.08004,-2.05174c-0.82373,-3.56216 -0.5274,-5.75294 1.90745,-8.52569c0,0 0.99655,-1.12111 2.11766,-0.12457c1.12111,0.99655 0.12457,2.11766 0.12457,2.11766c-1.65744,1.83625 -1.92673,3.05516 -1.34255,5.47431l0.91996,1.69826c0,0 0.70588,1.32353 -0.61765,2.02941z" fill="#51cc5f" stroke="none" stroke-width="0.5" stroke-linecap="butt"/><path d="M261.0023,96.99122c-1.1713,0.93704 -2.10835,-0.23426 -2.10835,-0.23426l-0.42789,-0.54137c-1.73825,-1.87872 -3.36031,-3.11526 -5.61196,-4.32497c0,0 -1.32071,-0.71115 -0.60956,-2.03186c0.71115,-1.32071 2.03186,-0.60956 2.03186,-0.60956c2.53158,1.36599 4.42498,2.81788 6.38804,4.92503l0.57211,0.70863c0,0 0.93704,1.1713 -0.23426,2.10835z" fill="#51cc5f" stroke="none" stroke-width="0.5" stroke-linecap="butt"/><g stroke-linecap="butt"><path d="M250.49519,199.99275v-42.19746c0,0 10.97543,-0.85714 16.4217,-0.85714c5.39157,0 16.09346,0.85714 16.09346,0.85714v42.19746z" fill="#e1e1e1" stroke="none" stroke-width="0"/><text transform="translate(252.0848,165.70452) scale(0.19407,0.19407)" font-size="40" xml:space="preserve" fill="#000000" fill-rule="nonzero" stroke="none" stroke-width="1" stroke-linecap="butt" stroke-linejoin="miter" stroke-miterlimit="10" stroke-dasharray="" stroke-dashoffset="0" font-family="Marker" font-weight="normal" text-anchor="start" style="mix-blend-mode: normal"><tspan x="0" dy="0">Missing</tspan></text><text transform="translate(251.35348,190.8532) scale(0.11421,0.11421)" font-size="40" xml:space="preserve" fill="#000000" fill-rule="nonzero" stroke="#000000" stroke-width="2" stroke-linecap="butt" stroke-linejoin="miter" stroke-miterlimit="10" stroke-dasharray="" stroke-dashoffset="0" font-family="Handwriting" font-weight="normal" text-anchor="start" style="mix-blend-mode: normal"><tspan x="0" dy="0">Has anyone seen</tspan><tspan x="0" dy="46.150000000000006px">my pirate hat?</tspan></text><path d="M253.77456,183.84746v-14.34675h25.5228v14.34675z" fill="none" stroke="#3e3e3e" stroke-width="0.5"/><g stroke="none" stroke-width="0"><path d="M278.07721,176.06212c0,2.07255 -4.96145,5.66808 -11.39445,5.66808c-6.43299,0 -11.64795,-3.46344 -11.64795,-5.53599c0,-2.07255 5.14323,-1.96938 11.57622,-1.96938c6.43299,0 11.46617,-0.23528 11.46617,1.83727z" data-paper-data="{&quot;origPos&quot;:null}" fill="#47270e"/><path d="M261.11703,178.22771l1.14759,-6.37955c0,0 2.71406,0.31273 4.26756,0.31273c1.83342,0 4.41103,-0.31273 4.41103,-0.31273l1.07586,6.37955c0,0 -3.38928,0.46908 -5.5586,0.46908c-2.08534,0 -5.34343,-0.46908 -5.34343,-0.46908z" data-paper-data="{&quot;origPos&quot;:null}" fill="#201206"/><path d="M270.97904,172.02797c0,0.51814 -1.95882,0.93816 -4.37515,0.93816c-2.41633,0 -4.37515,-0.42003 -4.37515,-0.93816c0,-0.51814 1.95882,-0.93816 4.37515,-0.93816c2.41633,0 4.37515,0.42003 4.37515,0.93816z" data-paper-data="{&quot;origPos&quot;:null}" fill="#201206"/><path d="M266.16664,174.36672c0,-0.80208 0.69931,-1.45229 1.56196,-1.45229c0.86265,0 1.56196,0.65021 1.56196,1.45229c0,0.80208 -0.69933,1.4523 -1.56196,1.4523c-0.86265,0 -1.56196,-0.65021 -1.56196,-1.4523z" data-paper-data="{&quot;origPos&quot;:null}" fill="#ffffff"/><path d="M267.96504,174.01572c0,-0.26877 0.19989,-0.48667 0.44648,-0.48667c0.24659,0 0.44648,0.2179 0.44648,0.48667c0,0.26877 -0.19989,0.48667 -0.44648,0.48667c-0.24659,0 -0.44648,-0.2179 -0.44648,-0.48667z" data-paper-data="{&quot;origPos&quot;:null}" fill="#000000"/><path d="M266.86803,174.01572c0,-0.26877 0.19991,-0.48667 0.44648,-0.48667c0.24659,0 0.44648,0.2179 0.44648,0.48667c0,0.26877 -0.19989,0.48667 -0.44648,0.48667c-0.24659,0 -0.44648,-0.2179 -0.44648,-0.48667z" data-paper-data="{&quot;origPos&quot;:null}" fill="#000000"/><path d="M266.74046,176.92186v-1.22363c0,0 0.60285,0.2781 0.97454,0.2781c0.41491,0 1.04099,-0.2781 1.04099,-0.2781v1.22363z" data-paper-data="{&quot;origPos&quot;:null}" fill="#ffffff"/></g></g><path d="M206.44863,160.51841c0,-6.58977 5.34205,-11.93182 11.93182,-11.93182c6.58977,0 11.93182,5.34205 11.93182,11.93182c0,6.58977 -5.34205,7.5589 -11.93181,7.5589c-6.58977,0 -11.93182,-0.96913 -11.93182,-7.5589z" fill="#82e48d" stroke="none" stroke-width="0" stroke-linecap="butt"/><path d="M210.57166,160.28553c0,-4.38167 3.55205,-7.93373 7.93373,-7.93373c4.38167,0 7.93373,3.55205 7.93373,7.93373c0,4.38167 -3.55205,5.02608 -7.93373,5.02608c-4.38167,0 -7.93373,-0.6444 -7.93373,-5.02608z" fill="#13cc29" stroke="none" stroke-width="0" stroke-linecap="butt"/><path d="M224.75241,152.9595c0,-0.37951 0.30766,-0.68717 0.68717,-0.68717c0.37951,0 0.68717,0.30766 0.68717,0.68717c0,0.37951 -0.30766,0.68717 -0.68717,0.68717c-0.37951,0 -0.68717,-0.30766 -0.68717,-0.68717z" fill="#13cc29" stroke="none" stroke-width="0.5" stroke-linecap="butt"/><path d="M208.88497,153.70914c0,-0.37951 0.30766,-0.68717 0.68717,-0.68717c0.37951,0 0.68717,0.30766 0.68717,0.68717c0,0.37951 -0.30766,0.68717 -0.68717,0.68717c-0.37951,0 -0.68717,-0.30766 -0.68717,-0.68717z" fill="#13cc29" stroke="none" stroke-width="0.5" stroke-linecap="butt"/><path d="M209.88449,164.45403c0,-0.37951 0.30766,-0.68717 0.68717,-0.68717c0.37951,0 0.68717,0.30766 0.68717,0.68717c0,0.37951 -0.30766,0.68717 -0.68717,0.68717c-0.37951,0 -0.68717,-0.30766 -0.68717,-0.68717z" fill="#13cc29" stroke="none" stroke-width="0.5" stroke-linecap="butt"/><path d="M214.25741,165.82838c0,-0.37951 0.30766,-0.68717 0.68717,-0.68717c0.37951,0 0.68717,0.30766 0.68717,0.68717c0,0.37951 -0.30766,0.68717 -0.68717,0.68717c-0.37951,0 -0.68717,-0.30766 -0.68717,-0.68717z" fill="#13cc29" stroke="none" stroke-width="0.5" stroke-linecap="butt"/><path d="M228.00086,160.331c0,-0.37951 0.30766,-0.68717 0.68717,-0.68717c0.37951,0 0.68717,0.30766 0.68717,0.68717c0,0.37951 -0.30766,0.68717 -0.68717,0.68717c-0.37951,0 -0.68717,-0.30766 -0.68717,-0.68717z" fill="#13cc29" stroke="none" stroke-width="0.5" stroke-linecap="butt"/><path d="M220.37949,155.83314c0,-0.37951 0.30766,-0.68717 0.68717,-0.68717c0.37951,0 0.68717,0.30766 0.68717,0.68717c0,0.37951 -0.30766,0.68717 -0.68717,0.68717c-0.37951,0 -0.68717,-0.30766 -0.68717,-0.68717z" fill="#15eb2e" stroke="none" stroke-width="0.5" stroke-linecap="butt"/><path d="M213.50776,160.9557c0,-0.37951 0.30766,-0.68717 0.68717,-0.68717c0.37951,0 0.68717,0.30766 0.68717,0.68717c0,0.37951 -0.30766,0.68717 -0.68717,0.68717c-0.37951,0 -0.68717,-0.30766 -0.68717,-0.68717z" fill="#15eb2e" stroke="none" stroke-width="0.5" stroke-linecap="butt"/><path d="M221.25408,161.83027c0,-0.37951 0.30766,-0.68717 0.68717,-0.68717c0.37951,0 0.68717,0.30766 0.68717,0.68717c0,0.37951 -0.30766,0.68717 -0.68717,0.68717c-0.37951,0 -0.68717,-0.30766 -0.68717,-0.68717z" fill="#15eb2e" stroke="none" stroke-width="0.5" stroke-linecap="butt"/><path d="M216.75622,155.83314c0,-0.37951 0.30766,-0.68717 0.68717,-0.68717c0.37951,0 0.68717,0.30766 0.68717,0.68717c0,0.37951 -0.30766,0.68717 -0.68717,0.68717c-0.37951,0 -0.68717,-0.30766 -0.68717,-0.68717z" fill="#15eb2e" stroke="none" stroke-width="0.5" stroke-linecap="butt"/><path d="M225.11591,166.93176v3.09228" fill="none" stroke="#82e48d" stroke-width="2.5" stroke-linecap="round"/><path d="M208.45197,161.69207v7.38711" fill="none" stroke="#82e48d" stroke-width="2.5" stroke-linecap="round"/><path d="M216.86983,173.03042v-5.58328" fill="none" stroke="#82e48d" stroke-width="2.5" stroke-linecap="round"/><path d="M220.1339,163.8395v2.92048" fill="none" stroke="#13cc29" stroke-width="2" stroke-linecap="round"/><path d="M212.575,165.12795v-3.00638" fill="none" stroke="#13cc29" stroke-width="2" stroke-linecap="round"/><path d="M221.50825,153.7896v-2.14741" fill="none" stroke="#82e48d" stroke-width="2" stroke-linecap="round"/><path d="M214.80831,157.39725v-6.09866" fill="none" stroke="#82e48d" stroke-width="2" stroke-linecap="round"/><g stroke="none" stroke-width="0" stroke-linecap="butt"><path d="M234.64273,215.63835c-5.08502,7.68063 -6.62489,6.81482 -6.62489,6.81482l10.8873,-21.55597l2.536,1.28086c0,0 -1.71338,5.77965 -6.7984,13.46029z" fill="#e8e8e8"/><path d="M241.87758,203.0106l-4.29169,-2.16761l0.73896,-1.46307l4.29169,2.16761z" fill="#c75700"/><path d="M241.25002,201.10218l-1.65815,-0.83748l1.57644,-3.12123l1.65815,0.83748z" fill="#c75700"/></g><path d="M245.09618,202.67856c0,0 -2.4246,0.50658 -3.69083,0.50658c-1.29035,0 -3.9803,-0.50658 -3.9803,-0.50658" fill="none" stroke="#d77d00" stroke-width="1.5" stroke-linecap="round"/><path d="M238.36376,102.94661l9.127,1.72885" fill="none" stroke="#000000" stroke-width="2.5" stroke-linecap="round"/><path d="M259.8129,103.39333l-7.21105,1.22658" fill="none" stroke="#000000" stroke-width="2.5" stroke-linecap="round"/></g></g></g></svg>