<svg version="1.1" xmlns="http://www.w3.org/2000/svg" xmlns:xlink="http://www.w3.org/1999/xlink" width="68.09097" height="69.59768" viewBox="0,0,68.09097,69.59768"><g transform="translate(-205.44197,-144.48322)"><g data-paper-data="{&quot;isPaintingLayer&quot;:true}" fill="#da966f" fill-rule="nonzero" stroke="#9f6a3b" stroke-width="2" stroke-linecap="butt" stroke-linejoin="miter" stroke-miterlimit="10" stroke-dasharray="" stroke-dashoffset="0" style="mix-blend-mode: normal"><path d="M215.80608,169.12784c1.75508,-4.12517 -4.19326,-11.28651 2.0414,-15.39922c7.60811,-5.01871 15.39448,3.26708 18.70142,2.27751c5.03352,-1.50625 4.32412,-10.51387 11.5438,-10.5229c6.37342,-0.00798 6.45128,8.28715 10.10898,11.33621c2.60871,2.17462 10.69837,-1.89025 13.31394,3.70744c4.22253,9.03679 -6.00685,11.88318 -6.91192,18.68612c-0.39572,2.97436 8.14142,10.36826 5.64117,16.58721c-2.59668,6.45881 -10.80634,3.16355 -14.43632,5.71306c-2.82889,1.98686 -1.97185,9.33116 -6.9306,10.76884c-9.3753,2.71817 -10.33994,-2.25972 -15.60166,-3.64925c-2.53159,-0.66855 -6.17293,5.05644 -10.61278,2.84855c-8.16554,-4.06063 -2.36309,-13.83622 -4.52627,-17.09168c-1.40806,-2.11906 -11.43765,-3.69467 -11.69527,-12.16954c-0.25733,-8.46566 9.36411,-13.09235 9.36411,-13.09235z"/></g></g></svg>