<svg xmlns="http://www.w3.org/2000/svg" xmlns:xlink="http://www.w3.org/1999/xlink" version="1.1" width="71.60820007324219" height="158.6562957763672" viewBox="-0.5 -1 71.60820007324219 158.6562957763672"><defs><linearGradient x1="242.48974" y1="101.9837" x2="242.48974" y2="116.27157" gradientUnits="userSpaceOnUse" id="color-1"><stop offset="0" stop-color="#00afff" stop-opacity="0"/><stop offset="1" stop-color="#00afff"/></linearGradient><linearGradient x1="244.72288" y1="110.56678" x2="235.0566" y2="121.08849" gradientUnits="userSpaceOnUse" id="color-2"><stop offset="0" stop-color="#00afff"/><stop offset="1" stop-color="#00afff" stop-opacity="0"/></linearGradient><linearGradient x1="259.78974" y1="101.8837" x2="259.78974" y2="116.17157" gradientUnits="userSpaceOnUse" id="color-3"><stop offset="0" stop-color="#00afff" stop-opacity="0"/><stop offset="1" stop-color="#00afff"/></linearGradient><linearGradient x1="257.50984" y1="110.46678" x2="267.17612" y2="120.98849" gradientUnits="userSpaceOnUse" id="color-4"><stop offset="0" stop-color="#00afff"/><stop offset="1" stop-color="#00afff" stop-opacity="0"/></linearGradient></defs><g><g data-paper-data="{&quot;isPaintingLayer&quot;:true}" fill-rule="nonzero" stroke-linecap="none" stroke-linejoin="miter" stroke-miterlimit="10" stroke-dasharray="" stroke-dashoffset="0" font-family="none" font-weight="none" font-size="none" text-anchor="none" style="mix-blend-mode: normal"><path d="M 32.4047 49.1904 L 32.4047 116.4875 L 20.3571 155.4063 " data-paper-data="{&quot;origPos&quot;:null}" fill="none" stroke="#000000" stroke-width="4.5" stroke-linecap="round"/><path d="M 32.5412 115.0508 L 44.5888 155.2095 " data-paper-data="{&quot;origPos&quot;:null}" fill="none" stroke="#000000" stroke-width="4.5" stroke-linecap="round"/><path d="M 8.3094 26.55 C 8.3094 12.5772 19.6366 1.25 33.6094 1.25 C 47.5822 1.25 58.9094 12.5772 58.9094 26.55 C 58.9094 40.5228 47.5822 51.85 33.6094 51.85 C 19.6366 51.85 8.3094 40.5228 8.3094 26.55 Z " data-paper-data="{&quot;origPos&quot;:null}" fill="#737373" stroke="#000000" stroke-width="2.5" stroke-linecap="butt"/><path d="M 31.1015 57.5143 L 15.4031 87.0857 " data-paper-data="{&quot;origPos&quot;:null}" fill="none" stroke="#000000" stroke-width="4.5" stroke-linecap="round"/><path d="M 33.292 57.5143 L 48.9904 87.0857 " data-paper-data="{&quot;origPos&quot;:null,&quot;index&quot;:null}" fill="none" stroke="#000000" stroke-width="4.5" stroke-linecap="round"/><path d="M234.22302,109.78668l-0.42881,-7.80298l17.21224,6.7349l0.17881,7.55298z" data-paper-data="{&quot;origPos&quot;:null,&quot;origRot&quot;:0,&quot;index&quot;:null}" fill="url(#color-1)" stroke="none" stroke-width="NaN" stroke-linecap="butt" transform="matrix(1,0,0,1,-209.20961,-89.07299)"/><path d="M251.12634,116.44963l-0.04155,7.5411l-16.73165,-7.38509l-0.10521,-6.85608z" data-paper-data="{&quot;origPos&quot;:null,&quot;origRot&quot;:0,&quot;index&quot;:null}" fill="url(#color-2)" stroke="none" stroke-width="NaN" stroke-linecap="butt" transform="matrix(1,0,0,1,-209.20961,-89.07299)"/><path d="M251.09421,116.17157l-0.12119,-7.55297l15.01225,-5.4349l0.07119,7.20298z" data-paper-data="{&quot;origPos&quot;:null,&quot;origRot&quot;:0,&quot;index&quot;:null}" fill="url(#color-3)" stroke="none" stroke-width="NaN" stroke-linecap="butt" transform="matrix(1,0,0,1,-209.20961,-89.07299)"/><path d="M266.08479,110.34956l-0.10521,6.15608l-14.93165,7.38509l0.05846,-7.5411z" data-paper-data="{&quot;origPos&quot;:null,&quot;origRot&quot;:0,&quot;index&quot;:null}" fill="url(#color-4)" stroke="none" stroke-width="NaN" stroke-linecap="butt" transform="matrix(1,0,0,1,-209.20961,-89.07299)"/><path d="M 27.0637 25.0436 L 27.0637 17.962 L 41.4816 23.7939 L 55.2289 17.962 L 55.2289 25.0436 L 41.4816 31.7086 Z " data-paper-data="{&quot;origPos&quot;:null}" fill="#00afff" stroke="#000000" stroke-width="1.5" stroke-linecap="butt"/><g data-paper-data="{&quot;origPos&quot;:null}"><path d="M229.67342,181.95428l1.1788,-9.12941l47.21558,6.16128c0,0 -11.96359,3.388 -20.32625,3.9009c-10.52386,0.64545 -28.06813,-0.93277 -28.06813,-0.93277z" data-paper-data="{&quot;origPos&quot;:null,&quot;origRot&quot;:0}" fill="#bfd4ff" stroke="#c2c2c2" stroke-width="0" stroke-linecap="butt" transform="matrix(1,0,0,1,-209.20961,-89.07299)"/><path d="M 20.8479 79.7446 L 18.4875 95.8509 " data-paper-data="{&quot;origPos&quot;:null,&quot;origRot&quot;:0}" fill="none" stroke="#606060" stroke-width="3.5" stroke-linecap="round"/><path d="M 1.75 86.0185 L 18.844 88.4259 " data-paper-data="{&quot;origPos&quot;:null,&quot;origRot&quot;:0}" fill="none" stroke="#606060" stroke-width="3.5" stroke-linecap="round"/></g></g></g></svg>