<svg xmlns="http://www.w3.org/2000/svg" xmlns:xlink="http://www.w3.org/1999/xlink" version="1.1" width="78.65995" height="167.49288" viewBox="0,0,78.65995,167.49288"><defs><radialGradient cx="279.46188" cy="158.81652" r="7.26369" gradientUnits="userSpaceOnUse" id="color-1"><stop offset="0" stop-color="#fff166"/><stop offset="1" stop-color="#fff166" stop-opacity="0"/></radialGradient><radialGradient cx="225.35559" cy="142.75113" r="4.38571" gradientUnits="userSpaceOnUse" id="color-2"><stop offset="0" stop-color="#ffbc4a"/><stop offset="1" stop-color="#ffe84a"/></radialGradient></defs><g><g data-paper-data="{&quot;isPaintingLayer&quot;:true}" fill-rule="nonzero" stroke-linecap="none" stroke-linejoin="miter" stroke-miterlimit="10" stroke-dasharray="" stroke-dashoffset="0" font-family="none" font-weight="none" font-size="none" text-anchor="none" style="mix-blend-mode: normal"><g><path d="M235.90072,200.96312l5.57142,-54.22729c0,0 3.81216,-1.23082 5.70353,-1.39594c2.45728,-0.21454 7.43933,0.70882 7.43933,0.70882l5.42858,53.85861c0,0 -6.30847,-1.9254 -12.72355,-2.35745c-3.73176,-0.25134 -11.41931,3.41324 -11.41931,3.41324z" data-paper-data="{&quot;origPos&quot;:null}" fill="#173973" stroke="none" stroke-width="0" stroke-linecap="butt" transform="matrix(1,0,0,1,-213.53723,-81.45629)"/><path d="M 60.3873 87.9936 C 60.3873 87.9936 48.5088 92.1553 46.6991 82.8384 C 45.3345 75.8132 41.7747 69.2508 41.7747 69.2508 " data-paper-data="{&quot;origPos&quot;:null,&quot;index&quot;:null}" fill="none" stroke="#000000" stroke-width="3.5" stroke-linecap="round"/><path d="M252.11578,150.14573c0,0 1.39757,-1.56554 2.48062,-1.96345c1.10339,-0.40538 2.04095,-0.09489 2.04095,-0.09489c0,0 1.81822,2.55103 2.29013,4.18381c0.32074,1.10974 0.82185,2.84355 0.82185,2.84355c0,0 -0.77131,-0.62366 -1.86712,-0.22106c-1.09062,0.40069 -2.50003,1.97057 -2.50003,1.97057z" data-paper-data="{&quot;origRot&quot;:0,&quot;origPos&quot;:null,&quot;index&quot;:null}" fill="#e7e7e7" stroke="none" stroke-width="0" stroke-linecap="butt" transform="matrix(1,0,0,1,-213.53723,-81.45629)"/><g data-paper-data="{&quot;origPos&quot;:null,&quot;index&quot;:null}" stroke-linecap="butt"><path d="M273.20812,105.42139l-2.81277,2.74768l-2.25936,-10.09981c0,0 12.1892,2.00362 12.06417,2.85236c-0.11679,0.79277 -6.99203,4.49977 -6.99203,4.49977z" data-paper-data="{&quot;origPos&quot;:null,&quot;origRot&quot;:0}" stroke-width="0" fill="#4c3816" stroke="none" transform="matrix(1,0,0,1,-213.53723,-81.45629)"/><path d="M270.50935,112.01679v-8.67796c0,0 14.56856,3.47629 14.47521,4.12203c-0.15386,1.06435 -14.47521,4.55593 -14.47521,4.55593z" data-paper-data="{&quot;origPos&quot;:null}" stroke-width="0" fill="#4c3816" stroke="none" transform="matrix(1,0,0,1,-213.53723,-81.45629)"/><path d="M273.53227,114.7224l-3.80066,1.5033l1.73765,-10.21507c0,0 10.88041,6.43129 10.6036,7.13785c-0.26387,0.67355 -8.54059,1.57392 -8.54059,1.57392z" data-paper-data="{&quot;origPos&quot;:null,&quot;origRot&quot;:0}" stroke-width="0" fill="#4c3816" stroke="none" transform="matrix(1,0,0,1,-213.53723,-81.45629)"/></g><path d="M 33.6587 59.527 L 33.6587 126.8241 L 26.4573 165.7429 " data-paper-data="{&quot;origPos&quot;:null}" fill="none" stroke="#000000" stroke-width="3.5" stroke-linecap="round"/><path d="M 33.7696 125.7719 L 41.8172 165.546 " data-paper-data="{&quot;origPos&quot;:null}" fill="none" stroke="#000000" stroke-width="3.5" stroke-linecap="round"/><path d="M256.82704,203.46411c-3.03486,1.56728 -5.24147,0.95883 -5.24147,0.95883c0,0 -0.54497,-15.55927 -0.96547,-26.5199c-0.42919,-11.1869 -2.81403,-28.47049 -2.81403,-28.47049c0,0 2.58573,-0.44201 3.69534,-0.99063c1.70578,-0.8434 3.27899,-2.33804 3.27899,-2.33804c0,0 2.08021,10.07571 2.77159,16.52468c1.52468,14.22157 2.9068,37.27434 2.9068,37.27434c0,0 -0.59689,1.99393 -3.63175,3.56121z" data-paper-data="{&quot;origPos&quot;:null,&quot;index&quot;:null,&quot;origRot&quot;:0}" fill="#1f4c9a" stroke="none" stroke-width="0" stroke-linecap="butt" transform="matrix(1,0,0,1,-213.53723,-81.45629)"/><path d="M 9.5635 36.6365 C 9.5635 22.6637 20.8907 11.3365 34.8635 11.3365 C 48.8363 11.3365 60.1635 22.6637 60.1635 36.6365 C 60.1635 50.6093 48.8363 61.9365 34.8635 61.9365 C 20.8907 61.9365 9.5635 50.6093 9.5635 36.6365 Z " data-paper-data="{&quot;origPos&quot;:null}" fill="#d4d4d4" stroke="#000000" stroke-width="2.5" stroke-linecap="butt"/><path d="M243.98327,112.06903c0,-2.66149 2.15756,-4.81905 4.81905,-4.81905c2.66149,0 4.81905,2.15756 4.81905,4.81905c0,2.66149 -2.15756,4.81905 -4.81905,4.81905c-2.66149,0 -4.81905,-2.15756 -4.81905,-4.81905z" data-paper-data="{&quot;origPos&quot;:null}" fill="#000000" stroke="none" stroke-width="0" stroke-linecap="butt" transform="matrix(1,0,0,1,-213.53723,-81.45629)"/><path d="M257.63723,112.06903c0,-2.66148 2.15757,-4.81905 4.81905,-4.81905c2.66148,0 4.81905,2.15757 4.81905,4.81905c0,2.66148 -2.15757,4.81905 -4.81905,4.81905c-2.66148,0 -4.81905,-2.15757 -4.81905,-4.81905z" data-paper-data="{&quot;origPos&quot;:null}" fill="#000000" stroke="none" stroke-width="0" stroke-linecap="butt" transform="matrix(1,0,0,1,-213.53723,-81.45629)"/><path d="M 30.6651 23.6064 L 39.7921 27.2572 " data-paper-data="{&quot;origPos&quot;:null}" fill="none" stroke="#000000" stroke-width="2.5" stroke-linecap="round"/><path d="M 51.8397 23.6413 L 44.9032 26.927 " data-paper-data="{&quot;origPos&quot;:null}" fill="none" stroke="#000000" stroke-width="2.5" stroke-linecap="round"/><g data-paper-data="{&quot;origPos&quot;:null,&quot;origRot&quot;:0}" stroke-linecap="butt"><path d="M219.4495,99.96276c0.03423,-0.8572 12.38367,-0.57005 12.38367,-0.57005l-4.08974,9.50709l-2.25559,-3.22083c0,0 -6.0703,-4.91553 -6.03834,-5.71621z" data-paper-data="{&quot;origPos&quot;:null,&quot;origRot&quot;:0}" stroke-width="0" fill="#4c3816" stroke="none" transform="matrix(1,0,0,1,-213.53723,-81.45629)"/><path d="M213.53735,105.50344c0.02778,-0.65187 14.98805,-1.37152 14.98805,-1.37152l-1.60625,8.52801c0,0 -13.42761,-6.08206 -13.3818,-7.15649z" data-paper-data="{&quot;origPos&quot;:null}" stroke-width="0" fill="#4c3816" stroke="none" transform="matrix(1,0,0,1,-213.53723,-81.45629)"/><path d="M215.34602,111.63172c-0.14125,-0.7456 11.74156,-5.05183 11.74156,-5.05183l-0.18314,10.36019l-3.45673,-2.18081c0,0 -7.96704,-2.41679 -8.10169,-3.12754z" data-paper-data="{&quot;origPos&quot;:null,&quot;origRot&quot;:0}" stroke-width="0" fill="#4c3816" stroke="none" transform="matrix(1,0,0,1,-213.53723,-81.45629)"/></g><g data-paper-data="{&quot;origPos&quot;:null,&quot;origRot&quot;:0}"><path d="M228.65592,103.47646c0,0 -0.94136,-20.31969 19.50483,-21.94074c19.61837,-1.55541 20.9132,20.24824 20.9132,20.24824c0,0 -12.1483,-1.37962 -19.887,-1.09412c-8.23265,0.30372 -20.53103,2.78663 -20.53103,2.78663z" data-paper-data="{&quot;origPos&quot;:null}" fill="#ff6666" stroke="none" stroke-width="NaN" stroke-linecap="butt" transform="matrix(1,0,0,1,-213.53723,-81.45629)"/><path d="M228.65112,103.32432c0,0 23.19427,-5.68837 39.85225,-6.24115c16.65797,-0.55278 0.71121,4.69559 0.71121,4.69559c0,0 -10.75404,-0.70923 -17.61568,-0.48153c-9.16645,0.30418 -22.94777,2.02708 -22.94777,2.02708z" data-paper-data="{&quot;origPos&quot;:null}" fill="#b2b2b2" stroke="none" stroke-width="0" stroke-linecap="butt" transform="matrix(1,0,0,1,-213.53723,-81.45629)"/><g data-paper-data="{&quot;origPos&quot;:null,&quot;origRot&quot;:0}"><path d="M 33.436 9.9816 C 32.9578 6.0544 35.1737 2.4238 38.3854 1.8723 C 41.5971 1.3208 44.5884 4.0573 45.0666 7.9844 C 45.5449 11.9116 43.3289 15.5422 40.1172 16.0937 C 36.9055 16.6452 33.9142 13.9087 33.436 9.9816 Z " data-paper-data="{&quot;origPos&quot;:null}" fill="#ffffff" stroke="#000000" stroke-linecap="butt" stroke-width="1"/><path d="M 45.072 8.0286 L 33.5136 10.0133 " data-paper-data="{&quot;origPos&quot;:null}" fill="none" stroke="#000000" stroke-linecap="round" stroke-width="1"/><path d="M 33.7832 9.5716 C 33.7832 9.5716 33.3932 3.0995 38.6233 2.3586 C 43.511 1.7849 44.6237 7.6547 44.6237 7.6547 Z " data-paper-data="{&quot;origPos&quot;:null}" fill="#ff0000" stroke="none" stroke-linecap="butt" stroke-width="1"/><g data-paper-data="{&quot;origPos&quot;:null}" stroke-linecap="butt"><path d="M 36.9811 9.4179 C 36.791 7.8568 37.6719 6.4136 38.9486 6.1943 C 40.2253 5.9751 41.4144 7.0629 41.6045 8.624 C 41.7946 10.1851 40.9138 11.6284 39.637 11.8476 C 38.3603 12.0668 37.1713 10.979 36.9811 9.4179 Z " fill="#ffffff" stroke="#000000" stroke-width="1"/><path d="M 38.2038 9.1629 C 38.1118 8.4067 38.5384 7.7076 39.1568 7.6014 C 39.7752 7.4953 40.3512 8.0222 40.4433 8.7783 C 40.5353 9.5345 40.1087 10.2335 39.4903 10.3397 C 38.8719 10.4459 38.2959 9.919 38.2038 9.1629 Z " data-paper-data="{&quot;origPos&quot;:null}" fill="#000000" stroke="none" stroke-width="1"/></g></g></g><path d="M235.615,200.65416c0,0 1.08863,-23.40744 2.63882,-37.32265c0.72449,-6.50339 3.18975,-16.66411 3.18975,-16.66411c0,0 0.80473,1.11999 2.27073,2.02718c0.95363,0.59013 3.01499,1.23808 3.01499,1.23808c0,0 -1.87293,19.29435 -2.29178,31.76641c-0.31742,9.45165 0.43464,23.08262 0.43464,23.08262c0,0 -4.03724,0.06552 -6.1641,-1.26571c-1.98586,-1.26336 -3.09305,-2.86181 -3.09305,-2.86181z" data-paper-data="{&quot;origPos&quot;:null}" fill="#1f4c9a" stroke="none" stroke-width="0" stroke-linecap="butt" transform="matrix(1,0,0,1,-213.53723,-81.45629)"/><path d="M238.36225,157.88059v-3.53846h2.61538v3.15384c0,0 -0.75044,0.30769 -1.23077,0.30769c-0.54037,0 -1.38461,0.07692 -1.38461,0.07692z" data-paper-data="{&quot;origPos&quot;:null}" fill="#cfcfcf" stroke="none" stroke-width="0" stroke-linecap="butt" transform="matrix(1,0,0,1,-213.53723,-81.45629)"/><path d="M 21.9111 99.2039 C 21.9111 99.2039 20.1686 95.0922 22.529 82.8385 C 23.8935 75.8133 27.4534 69.2508 27.4534 69.2508 " data-paper-data="{&quot;origPos&quot;:null}" fill="none" stroke="#000000" stroke-width="3.5" stroke-linecap="round"/><path d="M241.06371,157.52978c0,0 -1.5149,-1.6874 -2.68717,-2.11809c-1.17784,-0.43274 -2.0069,0.23762 -2.0069,0.23762c0,0 0.53863,-1.86362 0.88338,-3.05642c0.50724,-1.75501 2.46157,-4.49699 2.46157,-4.49699c0,0 1.00774,-0.33373 2.19373,0.10199c1.16413,0.42769 2.66631,2.11042 2.66631,2.11042z" data-paper-data="{&quot;origRot&quot;:0,&quot;origPos&quot;:null}" fill="#e7e7e7" stroke="none" stroke-width="0" stroke-linecap="butt" transform="matrix(1,0,0,1,-213.53723,-81.45629)"/><path d="M 35.7437 40.1519 L 46.6226 44.0947 C 46.6226 44.0947 43.5292 47.9879 39.7783 46.6285 C 36.0274 45.2691 35.7437 40.1519 35.7437 40.1519 Z " data-paper-data="{&quot;origPos&quot;:null,&quot;origRot&quot;:0}" fill="#f4f4f4" stroke="#000000" stroke-width="1" stroke-linecap="butt"/><path d="M233.07103,180.57952l-0.6355,-4.73532l4.29484,-0.57638l0.63549,4.73532z" data-paper-data="{&quot;origPos&quot;:null,&quot;origRot&quot;:0}" fill="#2dbb25" stroke="none" stroke-width="0" stroke-linecap="butt" transform="matrix(1,0,0,1,-213.53723,-81.45629)"/><path d="M273.71539,171.69558l-4.6609,1.05031l-0.95261,-4.22734l4.6609,-1.05031z" data-paper-data="{&quot;origPos&quot;:null,&quot;origRot&quot;:0}" fill="#2dbb25" stroke="none" stroke-width="0" stroke-linecap="butt" transform="matrix(1,0,0,1,-213.53723,-81.45629)"/><g data-paper-data="{&quot;origPos&quot;:null}"><path d="M267.27086,161.44664c0,-3.78433 3.06781,-6.85215 6.85215,-6.85215c3.78433,0 6.85215,3.06781 6.85215,6.85215c0,3.78433 -3.06781,6.85215 -6.85215,6.85215c-3.78433,0 -6.85215,-3.06781 -6.85215,-6.85215z" data-paper-data="{&quot;origPos&quot;:null}" fill="#fff166" stroke="none" stroke-width="NaN" stroke-linecap="butt" transform="matrix(1,0,0,1,-213.53723,-81.45629)"/><path d="M 51.9649 80.461 C 51.8955 79.8649 67.8094 80.1795 67.8096 80.4295 C 67.7674 84.8617 64.1862 88.4617 59.8108 88.4705 C 55.4354 88.4792 51.9227 84.8932 51.9649 80.461 Z " data-paper-data="{&quot;origPos&quot;:null}" fill="#ffffff" stroke="#000000" stroke-width="1" stroke-linecap="butt"/><path d="M 67.8092 80.4793 L 52.0628 80.5106 " data-paper-data="{&quot;origPos&quot;:null}" fill="none" stroke="#000000" stroke-width="1" stroke-linecap="round"/><path d="M 52.1858 80.6878 C 52.1858 80.6878 51.646 79.3504 51.5312 78.4316 C 51.1868 75.6753 52.6027 72.3634 55.8855 70.7864 C 58.851 69.4356 62.1624 69.3096 64.5034 71.3345 C 65.2837 72.0094 66.1622 73.3567 66.1622 73.3567 Z " data-paper-data="{&quot;origPos&quot;:null,&quot;origRot&quot;:0}" fill="#ff0000" stroke="#000000" stroke-width="1" stroke-linecap="butt"/><path d="M277.6698,156.48573l11.48198,-6.11327l3.0454,11.28181l-11.90474,-0.41528z" data-paper-data="{&quot;origPos&quot;:null}" fill="url(#color-1)" stroke="none" stroke-width="0" stroke-linecap="butt" transform="matrix(1,0,0,1,-213.53723,-81.45629)"/><g data-paper-data="{&quot;origPos&quot;:null}" stroke-linecap="butt"><path d="M 58.0414 75.241 C 58.0582 73.4791 59.4818 72.048 61.2211 72.0446 C 62.9604 72.0411 64.3568 73.4666 64.34 75.2285 C 64.3232 76.9903 62.8996 78.4214 61.1603 78.4249 C 59.421 78.4283 58.0246 77.0029 58.0414 75.241 Z " data-paper-data="{&quot;origPos&quot;:null}" fill="#ffffff" stroke="#000000" stroke-width="1"/><path d="M 59.7149 75.1878 C 59.7231 74.3344 60.4126 73.6412 61.2551 73.6396 C 62.0976 73.6379 62.7739 74.3284 62.7658 75.1818 C 62.7576 76.0352 62.0681 76.7284 61.2256 76.73 C 60.3832 76.7317 59.7068 76.0412 59.7149 75.1878 Z " data-paper-data="{&quot;origPos&quot;:null}" fill="#000000" stroke="none" stroke-width="1"/></g></g><g data-paper-data="{&quot;origPos&quot;:null}"><path d="M 13.992 64.5832 C 11.3708 62.9152 11.7755 59.6091 11.7755 59.6091 C 11.7755 59.6091 14.934 63.1601 17.6596 64.1527 C 21.2562 65.4626 27.0755 65.5091 27.0755 65.5091 L 26.2755 69.4091 C 26.2755 69.4091 17.3808 66.7398 13.992 64.5832 Z " data-paper-data="{&quot;origPos&quot;:null,&quot;index&quot;:null}" fill="#ff9f49" stroke="#000000" stroke-width="0.5" stroke-linecap="butt"/><path d="M222.73464,139.4476c0.2797,-0.7777 0.99977,-1.19111 1.38906,-1.92016c0.41222,-0.77201 0.31258,-1.22985 0.63992,-2.04151c0.15299,-0.37935 0.66341,-0.97766 0.66341,-0.97766c0,0 0.12225,0.65382 0.32674,1.0777c0.35903,0.7442 0.78257,1.1624 1.04844,1.94475c0.21658,0.63732 -0.088,0.99541 0.16483,1.61924c0.34796,0.85856 1.25999,1.06764 1.25999,1.99403c0,1.85015 -1.2536,2.13571 -2.8,2.13571c-1.5464,0 -2.8,-0.28556 -2.8,-2.13571c0,-1.85015 -0.12337,-1.05412 0.10762,-1.69638z" data-paper-data="{&quot;origPos&quot;:null,&quot;index&quot;:null}" fill="url(#color-2)" stroke="none" stroke-width="0" stroke-linecap="butt" transform="matrix(1,0,0,1,-213.53723,-81.45629)"/><path d="M 34.6797 52.2189 C 35.7398 51.9725 39.8196 50.8762 39.8196 50.8762 C 39.8196 50.8762 38.9517 51.5781 38.9624 51.8957 C 38.9731 52.2136 39.8744 52.5047 39.8744 52.5047 C 39.8744 52.5047 39.2166 53.2852 39.3618 53.6531 C 39.4478 53.8712 40.4668 54.0063 40.4668 54.0063 C 40.4668 54.0063 36.8435 54.8515 35.3711 55.1937 C 32.5211 55.8561 30.056 55.7271 29.8651 54.9056 C 29.6742 54.0841 31.8298 52.8812 34.6797 52.2189 Z " data-paper-data="{&quot;origPos&quot;:null,&quot;origRot&quot;:0}" fill="#ff9f49" stroke="#000000" stroke-width="0.5" stroke-linecap="butt"/><path d="M 33.052 72.54 L 28.2895 68.9299 L 29.6271 67.1653 C 29.6271 67.1653 32.0068 68.94 32.8577 69.1265 C 33.9551 69.3672 33.8405 67.5655 34.8984 67.9438 C 36.0433 68.3533 36.0509 68.5839 36.0509 68.5839 Z " data-paper-data="{&quot;origPos&quot;:null,&quot;origRot&quot;:0}" fill="#ff9f49" stroke="#000000" stroke-width="0.5" stroke-linecap="butt"/><path d="M 26.0897 52.1587 C 30.1529 52.1587 33.4468 56.0922 33.4468 60.9444 C 33.4468 65.7966 30.1529 69.7301 26.0897 69.7301 C 22.0264 69.7301 18.7325 65.7966 18.7325 60.9444 C 18.7325 56.0922 22.0264 52.1587 26.0897 52.1587 Z " data-paper-data="{&quot;origPos&quot;:null}" fill="#ff9f49" stroke="#000000" stroke-width="0.5" stroke-linecap="butt"/><path d="M 27.6611 42.1587 C 30.6986 42.1587 33.1611 45.0688 33.1611 48.6587 C 33.1611 49.5738 33.4025 50.55 33.1224 51.4212 C 32.2822 54.0348 30.431 55.1587 27.6611 55.1587 C 24.756 55.1587 22.5745 53.2574 21.9653 50.9983 C 21.7622 50.2452 22.1611 49.4387 22.1611 48.6587 C 22.1611 45.0688 24.6235 42.1587 27.6611 42.1587 Z " data-paper-data="{&quot;origPos&quot;:null}" fill="#ff9f49" stroke="#000000" stroke-width="0.5" stroke-linecap="butt"/><path d="M 27.1565 73.7677 C 27.1565 73.7677 24.0033 72.2771 22.8714 71.0769 C 21.7911 69.9314 21.4878 67.7571 21.4878 67.7571 L 23.8887 68.7544 C 23.8887 68.7544 25.9877 70.2059 26.8445 70.363 C 27.9496 70.5656 27.773 68.769 28.8432 69.1106 C 30.0016 69.4803 30.0171 69.7105 30.0171 69.7105 Z " data-paper-data="{&quot;origPos&quot;:null,&quot;origRot&quot;:0}" fill="#ff9f49" stroke="#000000" stroke-width="0.5" stroke-linecap="butt"/><path d="M 30.5619 69.9708 L 28.1678 71.3417 " data-paper-data="{&quot;origRot&quot;:0,&quot;origPos&quot;:null}" fill="none" stroke="#919191" stroke-width="0.5" stroke-linecap="round"/><path d="M 29.1282 69.9796 L 31.1259 68.737 " data-paper-data="{&quot;origRot&quot;:0,&quot;origPos&quot;:null}" fill="none" stroke="#919191" stroke-width="0.5" stroke-linecap="round"/><path d="M 28.4751 69.3152 L 30.3086 68.1608 " data-paper-data="{&quot;origRot&quot;:0,&quot;origPos&quot;:null}" fill="none" stroke="#919191" stroke-width="0.5" stroke-linecap="round"/><path d="M 34.9819 69.7379 L 36.5864 68.8628 " data-paper-data="{&quot;origRot&quot;:0,&quot;origPos&quot;:null}" fill="none" stroke="#919191" stroke-width="0.5" stroke-linecap="round"/><path d="M 34.8233 68.1538 L 36.3957 67.0451 " data-paper-data="{&quot;origPos&quot;:null,&quot;origRot&quot;:0}" fill="none" stroke="#919191" stroke-width="0.5" stroke-linecap="round"/><path d="M 36.8584 67.8142 L 35.3203 68.7396 " data-paper-data="{&quot;origRot&quot;:0,&quot;origPos&quot;:null}" fill="none" stroke="#919191" stroke-width="0.5" stroke-linecap="round"/><g data-paper-data="{&quot;origPos&quot;:null,&quot;origRot&quot;:0}" stroke-linecap="butt"><path d="M242.96331,128.07171c0.20204,-0.68416 0.92042,-1.07503 1.60458,-0.873c0.68415,0.20202 1.07503,0.92043 0.87299,1.60459c-0.20204,0.68416 -0.92042,1.07502 -1.60459,0.87298c-0.68415,-0.20202 -1.07503,-0.92042 -0.87298,-1.60458z" data-paper-data="{&quot;origPos&quot;:null}" fill="#000000" stroke-width="NaN" stroke="none" transform="matrix(1,0,0,1,-213.53723,-81.45629)"/><path d="M244.17113,128.25072c0.08308,-0.28139 0.37856,-0.44213 0.65995,-0.35906c0.28139,0.08309 0.44213,0.37856 0.35906,0.65995c-0.08308,0.28139 -0.37856,0.44213 -0.65995,0.35906c-0.28139,-0.08309 -0.44213,-0.37856 -0.35906,-0.65995z" data-paper-data="{&quot;origPos&quot;:null}" fill="#ffffff" stroke-width="0" stroke="none" transform="matrix(1,0,0,1,-213.53723,-81.45629)"/></g><g data-paper-data="{&quot;origPos&quot;:null,&quot;origRot&quot;:0}" stroke-linecap="butt"><path d="M239.74636,127.83498c0.16709,-0.69352 0.86473,-1.1203 1.55826,-0.95322c0.69352,0.16708 1.12031,0.86475 0.95321,1.55827c-0.16709,0.69352 -0.86474,1.1203 -1.55827,0.9532c-0.69352,-0.16708 -1.1203,-0.86473 -0.9532,-1.55826z" data-paper-data="{&quot;origPos&quot;:null}" fill="#000000" stroke-width="NaN" stroke="none" transform="matrix(1,0,0,1,-213.53723,-81.45629)"/><path d="M240.96171,127.95253c0.06871,-0.28524 0.35566,-0.46075 0.6409,-0.39206c0.28524,0.06872 0.46075,0.35566 0.39206,0.6409c-0.06871,0.28524 -0.35566,0.46075 -0.6409,0.39206c-0.28524,-0.06872 -0.46075,-0.35566 -0.39206,-0.6409z" data-paper-data="{&quot;origPos&quot;:null}" fill="#ffffff" stroke-width="0" stroke="none" transform="matrix(1,0,0,1,-213.53723,-81.45629)"/></g><path d="M 25.8558 50.0122 L 31.1637 50.5204 C 31.1637 50.5204 30.3713 52.1855 28.3325 52.2776 C 26.2937 52.3697 25.8558 50.0122 25.8558 50.0122 Z " data-paper-data="{&quot;origPos&quot;:null,&quot;origRot&quot;:0}" fill="#ff6666" stroke="#000000" stroke-width="0.5" stroke-linecap="butt"/><path d="M 27.0253 44.4843 C 27.0253 44.4843 27.4615 44.5069 27.7407 44.559 C 28.0309 44.6131 28.4841 44.8742 28.4841 44.8742 " data-paper-data="{&quot;origPos&quot;:null}" fill="none" stroke="#000000" stroke-width="0.5" stroke-linecap="round"/><path d="M 29.8614 44.9525 C 29.8614 44.9525 30.1914 44.7461 30.4026 44.7269 C 30.7768 44.6929 31.3614 44.6987 31.3614 44.6987 " data-paper-data="{&quot;origPos&quot;:null}" fill="none" stroke="#000000" stroke-width="0.5" stroke-linecap="round"/><path d="M 21.2147 58.5839 C 20.8208 59.5985 19.4275 63.5866 19.4275 63.5866 C 19.4275 63.5866 19.3367 62.4741 19.0683 62.3039 C 18.7996 62.1337 18.0513 62.7143 18.0513 62.7143 C 18.0513 62.7143 17.7772 61.731 17.3914 61.6436 C 17.1628 61.5918 16.477 62.3575 16.477 62.3575 C 16.477 62.3575 17.8205 58.8879 18.3675 57.4787 C 19.4263 54.7511 20.922 52.7873 21.7082 53.0925 C 22.4945 53.3977 22.2735 55.8563 21.2147 58.5839 Z " data-paper-data="{&quot;origPos&quot;:null,&quot;origRot&quot;:0}" fill="#ff9f49" stroke="#000000" stroke-width="0.5" stroke-linecap="butt"/><path d="M240.24753,131.79847l0.99623,0.08676c0,0 -0.05065,0.94071 -0.53452,0.89857c-0.48386,-0.04214 -0.46171,-0.98533 -0.46171,-0.98533z" data-paper-data="{&quot;origPos&quot;:null,&quot;origRot&quot;:0}" fill="#d4d4d4" stroke="none" stroke-width="0" stroke-linecap="butt" transform="matrix(1,0,0,1,-213.53723,-81.45629)"/><path d="M242.62182,131.97061l0.99421,0.10743c0,0 -0.07018,0.93946 -0.55306,0.88728c-0.48289,-0.05217 -0.44115,-0.99471 -0.44115,-0.99471z" data-paper-data="{&quot;origPos&quot;:null,&quot;origRot&quot;:0}" fill="#d4d4d4" stroke="none" stroke-width="0" stroke-linecap="butt" transform="matrix(1,0,0,1,-213.53723,-81.45629)"/><path d="M 32.0188 64.5179 C 31.3983 67.7417 28.9177 69.9705 26.4781 69.496 C 24.0385 69.0215 22.5638 66.0234 23.1843 62.7995 C 23.8048 59.5757 26.2854 57.3469 28.725 57.8214 C 31.1646 58.2959 32.6393 61.294 32.0188 64.5179 Z " data-paper-data="{&quot;origPos&quot;:null,&quot;origRot&quot;:0}" fill="#ffe4b5" stroke="#000000" stroke-width="0.5" stroke-linecap="butt"/><path d="M236.42084,151.94831c0,0 -0.67713,-0.94579 -0.86435,-1.55115c-0.26308,-0.85063 -0.44334,-2.17962 -0.44334,-2.17962l1.98077,1.32692c0,0 0.31888,0.52125 0.52298,0.85487c0.18616,0.30431 0.4001,0.77974 0.4001,0.77974z" data-paper-data="{&quot;origPos&quot;:null}" fill="#ff9f49" stroke="none" stroke-width="0" stroke-linecap="butt" transform="matrix(1,0,0,1,-213.53723,-81.45629)"/></g></g></g></g></svg>