<svg version="1.1" xmlns="http://www.w3.org/2000/svg" xmlns:xlink="http://www.w3.org/1999/xlink" width="66.0767" height="60.2888" viewBox="0,0,66.0767,60.2888"><defs><radialGradient cx="239.99995" cy="175.2667" r="20.9528" gradientUnits="userSpaceOnUse" id="color-1"><stop offset="0" stop-color="#fff4c0"/><stop offset="1" stop-color="#fff4c0" stop-opacity="0"/></radialGradient></defs><g transform="translate(-206.96165,-149.8556)"><g data-paper-data="{&quot;isPaintingLayer&quot;:true}" fill-rule="nonzero" stroke-linejoin="miter" stroke-miterlimit="10" stroke-dasharray="" stroke-dashoffset="0" style="mix-blend-mode: normal"><path d="M219.04715,175.2667c0,-11.572 9.3809,-20.7529 20.9528,-20.7529c11.572,0 20.9529,9.1809 20.9529,20.7529c0,11.5719 -9.3809,20.9528 -20.9529,20.9528c-11.5719,0 -20.9528,-9.3809 -20.9528,-20.9528z" fill="url(#color-1)" stroke="none" stroke-width="3" stroke-linecap="butt"/><path d="M239.58685,186.6089v22.0355" fill="none" stroke="#ffdf3e" stroke-width="3" stroke-linecap="round"/><g fill="none" stroke="#ffdf3e" stroke-width="3" stroke-linecap="round"><path d="M239.86225,151.3556v12.3914" data-paper-data="{&quot;origPos&quot;:null}"/><g><path d="M253.35905,175.0402c0,0 5.456,-0.6348 9.3128,0.0815c3.8568,0.7163 8.8665,4.4011 8.8665,4.4011" data-paper-data="{&quot;origPos&quot;:null}"/><path d="M249.89685,167.3224c0,0 -0.137,-7.2789 6.9096,-8.7752c5.386,-1.1437 8.0668,1.5357 8.0668,1.5357" data-paper-data="{&quot;origPos&quot;:null,&quot;origRot&quot;:0}"/><path d="M250.60525,184.3627c0,0 6.0063,2.9747 8.14,5.6167c2.1337,2.6421 3.7089,9.6108 3.7089,9.6108" data-paper-data="{&quot;origPos&quot;:null,&quot;origRot&quot;:0}"/></g><g><path d="M208.46165,180.0737c0,0 5.0097,-3.9602 8.8665,-4.6765c3.8568,-0.7163 9.5882,-0.0815 9.5882,-0.0815" data-paper-data="{&quot;origPos&quot;:null,&quot;index&quot;:null}"/><path d="M214.91545,160.2829c0,0 2.6807,-2.6794 8.0668,-1.5357c7.0466,1.4963 6.9096,8.5753 6.9096,8.5753" data-paper-data="{&quot;origPos&quot;:null,&quot;origRot&quot;:0,&quot;index&quot;:null}"/><path d="M216.47655,199.8656c0,0 1.8506,-6.9688 3.9843,-9.6108c2.1336,-2.642 8.34,-5.6167 8.34,-5.6167" data-paper-data="{&quot;origPos&quot;:null,&quot;origRot&quot;:0,&quot;index&quot;:null}"/></g></g><path d="M233.95134,181.16642c-1.40808,-1.65162 0.59485,-3.7574 0.54875,-6.32549c-0.0461,-2.56809 -2.24312,-3.95673 -0.7627,-5.59241c1.48042,-1.63568 3.25665,0.34836 5.54619,0.30726c2.28955,-0.0411 4.40817,-2.06163 6.37172,-0.52119c1.96356,1.54045 -0.39003,3.01806 -0.35004,5.24532c0.03998,2.22726 2.31886,4.7351 0.56397,6.67261c-1.75488,1.9375 -3.74309,-0.30258 -6.3764,-0.25532c-2.63331,0.04726 -4.13342,2.12084 -5.54151,0.46922z" data-paper-data="{&quot;origRot&quot;:0}" fill="#ffd400" stroke="none" stroke-width="0" stroke-linecap="butt"/></g></g></svg>