<svg version="1.1" xmlns="http://www.w3.org/2000/svg" xmlns:xlink="http://www.w3.org/1999/xlink" width="53.59691" height="57.79854" viewBox="0,0,53.59691,57.79854"><g transform="translate(-187.14275,-125.99768)"><g data-paper-data="{&quot;isPaintingLayer&quot;:true}" fill-rule="nonzero" stroke="none" stroke-width="0.5" stroke-linecap="butt" stroke-linejoin="miter" stroke-miterlimit="10" stroke-dasharray="" stroke-dashoffset="0" style="mix-blend-mode: normal"><path d="M190.56435,126.6218c5.2124,-2.0255 8.1841,1.5273 8.1841,1.5273l-0.1399,1.6713c0.2459,0.5427 0.4917,1.0854 0.7376,1.6281c3.7863,8.3578 7.5726,16.7156 11.3589,25.0734c-0.4375,0.2135 0.3511,0.7031 0.6564,1.0051c1.0493,1.038 1.9585,2.144 2.7681,3.2774c1.2978,1.8168 3.9966,5.5114 4.4869,7.4902c0.0848,0.3424 -0.9887,0.5032 -0.8949,0.8446c0.0867,0.3158 0.836,0.2971 1.2505,0.4501c1.5456,0.5707 3.0137,1.2361 4.4679,1.9092c2.724,1.2609 5.5901,2.4614 8.2129,3.8234l1.5942,-0.0593c1.4039,-0.2756 3.1605,-0.2106 5.0668,0.8142c0.0813,0.0429 0.161,0.0873 0.239,0.1331c2.6459,1.5275 2.4036,3.2469 1.7728,4.3895c-0.2346,0.4788 -0.5976,0.9253 -1.07,1.315c-0.7372,0.643 -1.0605,1.8713 -2.2463,1.8801c-2.033,0.0152 -4.0762,-0.0708 -6.0997,-0.2536l-0.0669,0.0025l-0.0007,-0.0086c-1.5707,-0.1437 -3.1292,-0.3456 -4.6616,-0.6037c-1.7144,-0.2888 -2.7146,-1.5477 -4.185,-2.2143c-2.663,-1.2072 -5.247,-2.5084 -7.9457,-3.6779c-0.4706,-0.2038 -1.6596,-0.4178 -1.9323,-0.6673c-3.9758,-3.637 -5.2707,-6.7599 -7.7218,-10.6749c-1.5006,-2.3967 -3.7392,-4.3314 -5.1564,-6.7616c-3.7863,-8.3578 -7.5726,-16.7156 -11.3589,-25.0734c-0.2459,-0.5428 -0.4917,-1.0855 -0.7376,-1.6282l1.181,-0.0334c0,0 -2.9717,-3.5528 2.2406,-5.5783z" data-paper-data="{&quot;origRot&quot;:0}" fill="#fffe66"/><path d="M193.17905,139.7831c-0.6517,-2.1108 0.531,-4.3503 2.6418,-5.0021c2.1108,-0.6517 4.3503,0.531 5.0021,2.6418c0.6518,2.1108 -0.531,4.3503 -2.6418,5.0021c-2.1108,0.6518 -4.3503,-0.531 -5.0021,-2.6418z" data-paper-data="{&quot;origRot&quot;:0}" fill="#000000"/><path d="M209.92435,166.9733c-0.4481,-1.4511 0.3651,-2.9908 1.8163,-3.4389c1.4511,-0.4481 2.9908,0.3651 3.4389,1.8162c0.4481,1.4512 -0.3651,2.9909 -1.8162,3.439c-1.4512,0.4481 -2.9909,-0.3651 -3.439,-1.8163z" data-paper-data="{&quot;origRot&quot;:0}" fill="#000000"/></g></g></svg>