<svg xmlns="http://www.w3.org/2000/svg" xmlns:xlink="http://www.w3.org/1999/xlink" version="1.1" width="29.57879" height="13.8241" viewBox="0,0,29.57879,13.8241"><g><g data-paper-data="{&quot;isPaintingLayer&quot;:true}" fill-rule="nonzero" stroke-linecap="butt" stroke-linejoin="miter" stroke-miterlimit="10" stroke-dasharray="" stroke-dashoffset="0" style="mix-blend-mode: normal"><path d="M230.56421,180.48165l10.29271,-2.96032l0.5955,1.45921c0,0 0.57965,3.46694 -0.74904,4.22601c-0.74787,0.42726 -1.27967,-0.48032 -2.34965,-0.29802c-1.06997,0.1823 -0.88796,0.93431 -1.78187,1.08655c-0.8939,0.15224 -1.31251,-0.61198 -2.09241,-0.42671c-0.7799,0.18527 -0.62666,1.32619 -1.44508,1.17596c-1.19139,-0.21868 -2.47017,-4.26267 -2.47017,-4.26267z" fill="#d96464" stroke-width="0" stroke="none" transform="matrix(1,0,0,1,-230.37449,-171.05882)"/><path d="M230.39552,180.71682c-0.1386,-1.09914 0.38338,-2.96285 2.294,-3.46957c2.05539,-0.54512 8.63713,0.40378 8.63713,0.40378l0.08057,2.00443c0,0 -0.47711,0.49822 -0.6849,0.88158c-0.26422,0.48745 -0.77219,1.80657 -0.77219,1.80657c0,0 -0.64355,-1.40996 -1.51383,-1.39829c-0.87028,0.01167 -1.2381,1.47567 -1.2381,1.47567c0,0 -0.49662,-1.23573 -1.2909,-1.23349c-0.79427,0.00224 -1.41226,1.67548 -1.41226,1.67548c0,0 -0.52615,-1.59153 -1.3433,-1.44325c-0.81714,0.14827 -1.39232,1.94862 -1.39232,1.94862c0,0 -1.16304,-1.05875 -1.36389,-2.6515z" fill="#e64242" stroke-width="0" stroke="none" transform="matrix(1,0,0,1,-230.37449,-171.05882)"/><path d="M259.76356,180.60666c0,0 -1.27878,4.04399 -2.47017,4.26268c-0.81842,0.15023 -0.66517,-0.99069 -1.44508,-1.17596c-0.77991,-0.18527 -1.19851,0.57895 -2.09241,0.42671c-0.8939,-0.15224 -0.71191,-0.90424 -1.78187,-1.08655c-1.06997,-0.18231 -1.60178,0.72527 -2.34965,0.29801c-1.32869,-0.75907 -0.74904,-4.22601 -0.74904,-4.22601l0.59551,-1.45921l10.29271,2.96032z" data-paper-data="{&quot;index&quot;:null}" fill="#d96464" stroke-width="0" stroke="none" transform="matrix(1,0,0,1,-230.37449,-171.05882)"/><path d="M259.93224,180.84183c-0.20085,1.59276 -1.3639,2.65151 -1.3639,2.65151c0,0 -0.57518,-1.80035 -1.39232,-1.94862c-0.81715,-0.14828 -1.3433,1.44325 -1.3433,1.44325c0,0 -0.61799,-1.67324 -1.41226,-1.67548c-0.79428,-0.00224 -1.2909,1.23349 -1.2909,1.23349c0,0 -0.36782,-1.464 -1.2381,-1.47567c-0.87028,-0.01167 -1.51382,1.39829 -1.51382,1.39829c0,0 -0.50798,-1.31912 -0.7722,-1.80657c-0.2078,-0.38336 -0.6849,-0.88157 -0.6849,-0.88157l0.08057,-2.00443c0,0 6.58173,-0.9489 8.63713,-0.40377c1.91063,0.50672 2.43261,2.37044 2.29401,3.46958z" data-paper-data="{&quot;index&quot;:null}" fill="#e64242" stroke-width="0" stroke="none" transform="matrix(1,0,0,1,-230.37449,-171.05882)"/><path d="M240.65381,171.05882l2.79533,4.24477l3.34494,0.06666l2.71162,-4.31143c0,0 1.47007,13.09666 -4.45183,12.94136c-5.88129,-0.15424 -4.40006,-12.94136 -4.40006,-12.94136z" fill="#e64242" stroke-width="0" stroke="none" transform="matrix(1,0,0,1,-230.37449,-171.05882)"/><path d="M243.54086,178.1749c-0.4301,-0.40747 -0.44845,-1.08645 -0.04099,-1.51656c0.40747,-0.4301 0.51431,0.05217 0.94442,0.45963c0.4301,0.40747 1.02059,0.58583 0.61313,1.01593c-0.40747,0.4301 -1.08645,0.44845 -1.51656,0.04099z" fill="#802626" stroke-width="0" stroke="none" transform="matrix(1,0,0,1,-230.37449,-171.05882)"/><path d="M246.63696,178.01627c-0.40747,-0.4301 0.18302,-0.60847 0.61313,-1.01594c0.4301,-0.40747 0.53695,-0.88974 0.94442,-0.45963c0.40747,0.4301 0.38912,1.10909 -0.04099,1.51656c-0.4301,0.40747 -1.10909,0.38912 -1.51656,-0.04099z" data-paper-data="{&quot;index&quot;:null}" fill="#802626" stroke-width="0" stroke="none" transform="matrix(1,0,0,1,-230.37449,-171.05882)"/></g></g></svg>