<svg xmlns="http://www.w3.org/2000/svg" xmlns:xlink="http://www.w3.org/1999/xlink" version="1.1" width="8.01457" height="8.01457" viewBox="0,0,8.01457,8.01457"><defs><radialGradient cx="239.85829" cy="179.85643" r="4.184" gradientUnits="userSpaceOnUse" id="color-1"><stop offset="0" stop-color="#ffe46a"/><stop offset="1" stop-color="#fff4c1"/></radialGradient></defs><g><g data-paper-data="{&quot;isPaintingLayer&quot;:true}" fill-rule="nonzero" stroke-linecap="butt" stroke-linejoin="miter" stroke-miterlimit="10" stroke-dasharray="" stroke-dashoffset="0" style="mix-blend-mode: normal"><path d="M235.99272,178.79653c0,0 2.21338,0.06763 3.0704,-0.39352c0.87933,-0.47315 2.14036,-2.41029 2.14036,-2.41029c0,0 -0.08993,2.40422 0.37574,3.26963c0.46891,0.87146 2.42808,1.94112 2.42808,1.94112c0,0 -2.23848,0.04049 -3.10396,0.50619c-0.87141,0.46889 -2.1068,2.29762 -2.1068,2.29762c0,0 -0.07977,-2.13807 -0.55192,-3.01554c-0.46224,-0.85906 -2.25189,-2.19522 -2.25189,-2.19522z" stroke-width="0" fill="url(#color-1)" stroke="none" transform="matrix(1,0,0,1,-235.99272,-175.99272)"/></g></g></svg>