<svg xmlns="http://www.w3.org/2000/svg" xmlns:xlink="http://www.w3.org/1999/xlink" version="1.1" width="99.24726" height="170.16209" viewBox="0,0,99.24726,170.16209"><g><g data-paper-data="{&quot;isPaintingLayer&quot;:true}" fill-rule="nonzero" stroke-linejoin="miter" stroke-miterlimit="10" stroke-dasharray="" stroke-dashoffset="0" style="mix-blend-mode: normal"><g><path d="M197.28019,148.04879l-2.90381,-24.83078l96.34344,-11.2668l2.90382,24.83078z" data-paper-data="{&quot;origPos&quot;:null,&quot;origRot&quot;:0}" fill="#6b6b6b" stroke="none" stroke-width="0" stroke-linecap="butt" transform="matrix(1,0,0,1,-194.37638,-75.71006)"/><path d="M 89.1236 31.54 C 89.1236 36.9247 86.6612 41.29 83.6236 41.29 C 80.5861 41.29 78.1236 36.9247 78.1236 31.54 C 78.1236 26.1552 80.5861 21.79 83.6236 21.79 C 86.6612 21.79 89.1236 26.1552 89.1236 31.54 Z " fill="none" stroke="#6b6b6b" stroke-width="2" stroke-linecap="butt"/><path d="M 83.6236 40.6233 L 83.6236 21.9566 " data-paper-data="{&quot;origPos&quot;:null}" fill="none" stroke="#6b6b6b" stroke-width="2" stroke-linecap="round"/><path d="M 88.6236 30.9566 L 78.6236 30.9566 " data-paper-data="{&quot;origPos&quot;:null}" fill="none" stroke="#6b6b6b" stroke-width="2" stroke-linecap="round"/></g><path d="M 46.981 62.1962 L 46.981 129.4933 L 34.9334 168.4121 " data-paper-data="{&quot;origPos&quot;:null}" fill="none" stroke="#000000" stroke-width="3.5" stroke-linecap="round"/><path d="M 47.7842 128.0565 L 59.8318 168.2153 " fill="none" stroke="#000000" stroke-width="3.5" stroke-linecap="round"/><path d="M 22.8858 39.3058 C 22.8858 25.333 34.213 14.0058 48.1858 14.0058 C 62.1586 14.0058 73.4858 25.333 73.4858 39.3058 C 73.4858 53.2785 62.1586 64.6058 48.1858 64.6058 C 34.213 64.6058 22.8858 53.2785 22.8858 39.3058 Z " data-paper-data="{&quot;origPos&quot;:null}" fill="#d4d4d4" stroke="#000000" stroke-width="2.5" stroke-linecap="butt"/><path d="M250.47801,108.32534c0,-2.66149 2.15756,-4.81905 4.81905,-4.81905c2.66149,0 4.81905,2.15756 4.81905,4.81905c0,2.66149 -2.15756,4.81905 -4.81905,4.81905c-2.66149,0 -4.81905,-2.15756 -4.81905,-4.81905z" data-paper-data="{&quot;origPos&quot;:null}" fill="#000000" stroke="none" stroke-width="0" stroke-linecap="butt" transform="matrix(1,0,0,1,-194.37638,-75.71006)"/><path d="M 63.742 24.867 L 55.3596 30.0016 " data-paper-data="{&quot;origPos&quot;:null,&quot;index&quot;:null,&quot;origRot&quot;:0}" fill="none" stroke="#000000" stroke-width="2.5" stroke-linecap="round"/><path d="M 42.8561 33.308 C 42.8561 33.308 44.9523 31.6297 46.294 31.6223 C 47.9476 31.6131 50.5313 33.2654 50.5313 33.2654 " data-paper-data="{&quot;origPos&quot;:null,&quot;origRot&quot;:0}" fill="none" stroke="#000000" stroke-width="2.5" stroke-linecap="round"/><path d="M 36.9794 106.0915 C 36.9794 106.0915 38.4686 90.4123 40.0617 83.8971 C 41.8632 76.5301 45.6778 70.52 45.6778 70.52 " data-paper-data="{&quot;origPos&quot;:null}" fill="none" stroke="#000000" stroke-width="3.5" stroke-linecap="round"/><path d="M 73.0667 68.0915 C 73.0667 68.0915 71.6379 85.4673 61.8356 86.412 C 52.0333 87.3567 47.8683 70.52 47.8683 70.52 " data-paper-data="{&quot;origPos&quot;:null,&quot;index&quot;:null}" fill="none" stroke="#000000" stroke-width="3.5" stroke-linecap="round"/><path d="M 74.6236 79.2899 L 74.6236 58.7899 " data-paper-data="{&quot;origPos&quot;:null}" fill="none" stroke="#6b6b6b" stroke-width="5" stroke-linecap="round"/><g data-paper-data="{&quot;origPos&quot;:null}"><path d="M211.29261,105.99454c0,0 2.91177,-15.5818 7.73417,-21.47172c6.2175,-7.59386 13.36186,-7.33644 23.08542,-8.66929c15.48914,-2.12317 25.3533,20.02037 25.3533,20.02037z" data-paper-data="{&quot;origPos&quot;:null,&quot;origRot&quot;:0}" fill="#009927" stroke-width="0" stroke-linecap="butt" stroke="#009927" transform="matrix(1,0,0,1,-194.37638,-75.71006)"/><path d="M 49.8186 66.9164 L 36.5583 26.1212 " data-paper-data="{&quot;origPos&quot;:null}" fill="none" stroke-width="3" stroke-linecap="round" stroke="#009927"/></g></g></g></svg>