<svg xmlns="http://www.w3.org/2000/svg" xmlns:xlink="http://www.w3.org/1999/xlink" version="1.1" width="579.2857055664062" height="414.74566650390625" viewBox="-0.5 -0.4999961853027344 579.2857055664062 414.74566650390625"><defs><linearGradient x1="250.5" y1="-12" x2="250.5" y2="349" gradientUnits="userSpaceOnUse" id="color-1"><stop offset="0" stop-color="#3595de"/><stop offset="1" stop-color="#3183cc"/></linearGradient><linearGradient x1="247.5" y1="266" x2="247.5" y2="354" gradientUnits="userSpaceOnUse" id="color-2"><stop offset="0" stop-color="#2b7f1f" stop-opacity="0"/><stop offset="1" stop-color="#2b7f1f"/></linearGradient></defs><g><g data-paper-data="{&quot;isPaintingLayer&quot;:true}" fill-rule="nonzero" stroke-linecap="butt" stroke-linejoin="miter" stroke-miterlimit="10" stroke-dasharray="" stroke-dashoffset="0" font-family="none" font-weight="none" font-size="none" text-anchor="none" style="mix-blend-mode: normal"><path d="M-2,349v-361h505v361z" data-paper-data="{&quot;origPos&quot;:null}" fill="url(#color-1)" stroke-width="0" stroke="none" transform="matrix(1,0,0,1,43,59.74568)"/><path d="M-4,354v-88h503v88z" data-paper-data="{&quot;origPos&quot;:null}" fill="url(#color-2)" stroke-width="0" stroke="none" transform="matrix(1,0,0,1,43,59.74568)"/><g data-paper-data="{&quot;origPos&quot;:null}"><path d="M421.48023,284.88792c0,-24.91471 20.19736,-45.11209 45.11208,-45.11209c24.91472,0 45.11208,20.19738 45.11208,45.11209c0,24.91472 -20.19737,45.11208 -45.11208,45.11208c-24.91471,0 -45.11208,-20.19737 -45.11208,-45.11208z" fill="#2ab615" stroke-width="0" stroke="none" transform="matrix(1,0,0,1,43,59.74568)"/><path d="M402,278.22363c0,-18.40292 14.91852,-33.32143 33.32143,-33.32143c18.40292,0 33.32142,14.91851 33.32142,33.32143c0,18.40292 -14.91851,33.32143 -33.32142,33.32143c-18.40292,0 -33.32143,-14.91851 -33.32143,-33.32143z" data-paper-data="{&quot;origPos&quot;:null}" fill="#239211" stroke-width="0" stroke="none" transform="matrix(1,0,0,1,43,59.74568)"/><path d="M436.85934,248.49066c0,-18.40292 14.91852,-33.32143 33.32143,-33.32143c18.40292,0 33.32143,14.91851 33.32143,33.32143c0,18.40292 -14.91852,33.32143 -33.32143,33.32143c-18.40292,0 -33.32143,-14.91851 -33.32143,-33.32143z" data-paper-data="{&quot;origPos&quot;:null}" fill="#239211" stroke-width="0" stroke="none" transform="matrix(1,0,0,1,43,59.74568)"/><path d="M468.64286,278.22363c0,-18.40292 14.91852,-33.32143 33.32143,-33.32143c18.40292,0 33.32143,14.91851 33.32143,33.32143c0,18.40292 -14.91851,33.32143 -33.32143,33.32143c-18.40292,0 -33.32143,-14.91851 -33.32143,-33.32143z" data-paper-data="{&quot;origPos&quot;:null}" fill="#239211" stroke-width="0" stroke="none" transform="matrix(1,0,0,1,43,59.74568)"/><path d="M 490.6247 297.471 C 490.6247 296.0554 491.7723 294.9078 493.1879 294.9078 C 494.6035 294.9078 495.7511 296.0554 495.7511 297.471 C 495.7511 298.8866 494.6035 300.0341 493.1879 300.0341 C 491.7723 300.0341 490.6247 298.8866 490.6247 297.471 Z " fill="#ff6666" stroke-width="0.5" stroke="none"/><path d="M 532.661 312.8501 C 532.661 311.4345 533.8086 310.2869 535.2242 310.2869 C 536.6398 310.2869 537.7874 311.4345 537.7874 312.8501 C 537.7874 314.2657 536.6398 315.4133 535.2242 315.4133 C 533.8086 315.4133 532.661 314.2657 532.661 312.8501 Z " fill="#ff6666" stroke-width="0.5" stroke="none"/><path d="M 486.5236 349.76 C 486.5236 348.3443 487.6712 347.1968 489.0868 347.1968 C 490.5024 347.1968 491.65 348.3443 491.65 349.76 C 491.65 351.1756 490.5024 352.3231 489.0868 352.3231 C 487.6712 352.3231 486.5236 351.1756 486.5236 349.76 Z " fill="#ff6666" stroke-width="0.5" stroke="none"/><path d="M 456.7907 317.9764 C 456.7907 316.5608 457.9382 315.4133 459.3538 315.4133 C 460.7695 315.4133 461.917 316.5608 461.917 317.9764 C 461.917 319.3921 460.7695 320.5396 459.3538 320.5396 C 457.9382 320.5396 456.7907 319.3921 456.7907 317.9764 Z " fill="#ff6666" stroke-width="0.5" stroke="none"/><path d="M 549.0654 326.1787 C 549.0654 324.763 550.213 323.6155 551.6286 323.6155 C 553.0442 323.6155 554.1918 324.763 554.1918 326.1787 C 554.1918 327.5943 553.0442 328.7418 551.6286 328.7418 C 550.213 328.7418 549.0654 327.5943 549.0654 326.1787 Z " fill="#ff6666" stroke-width="0.5" stroke="none"/><path d="M 529.5852 327.2039 C 529.5852 325.7883 530.7327 324.6407 532.1484 324.6407 C 533.564 324.6407 534.7115 325.7883 534.7115 327.2039 C 534.7115 328.6195 533.564 329.7671 532.1484 329.7671 C 530.7327 329.7671 529.5852 328.6195 529.5852 327.2039 Z " fill="#ff6666" stroke-width="0.5" stroke="none"/><path d="M 490.6247 381.5435 C 490.6247 380.1279 491.7723 378.9803 493.1879 378.9803 C 494.6035 378.9803 495.7511 380.1279 495.7511 381.5435 C 495.7511 382.9591 494.6035 384.1067 493.1879 384.1067 C 491.7723 384.1067 490.6247 382.9591 490.6247 381.5435 Z " fill="#ff6666" stroke-width="0.5" stroke="none"/><path d="M 533.6863 354.8863 C 533.6863 353.4707 534.8338 352.3231 536.2495 352.3231 C 537.6651 352.3231 538.8126 353.4707 538.8126 354.8863 C 538.8126 356.302 537.6651 357.4495 536.2495 357.4495 C 534.8338 357.4495 533.6863 356.302 533.6863 354.8863 Z " fill="#ff6666" stroke-width="0.5" stroke="none"/><path d="M 514.2061 280.0413 C 514.2061 278.6257 515.3536 277.4781 516.7692 277.4781 C 518.1848 277.4781 519.3324 278.6257 519.3324 280.0413 C 519.3324 281.4569 518.1848 282.6045 516.7692 282.6045 C 515.3536 282.6045 514.2061 281.4569 514.2061 280.0413 Z " fill="#ff6666" stroke-width="0.5" stroke="none"/></g><g data-paper-data="{&quot;origPos&quot;:null}"><path d="M131.48022,280.88792c0,-24.91471 20.19737,-45.11209 45.11208,-45.11209c24.91472,0 45.11208,20.19738 45.11208,45.11209c0,24.91472 -20.19737,45.11208 -45.11208,45.11208c-24.91471,0 -45.11208,-20.19737 -45.11208,-45.11208z" fill="#239211" stroke-width="0" stroke="none" transform="matrix(1,0,0,1,43,59.74568)"/><path d="M112,274.22363c0,-18.40292 14.91851,-33.32143 33.32143,-33.32143c18.40292,0 33.32143,14.91851 33.32143,33.32143c0,18.40292 -14.91851,33.32143 -33.32143,33.32143c-18.40292,0 -33.32143,-14.91851 -33.32143,-33.32143z" data-paper-data="{&quot;origPos&quot;:null}" fill="#239211" stroke-width="0" stroke="none" transform="matrix(1,0,0,1,43,59.74568)"/><path d="M146.85934,244.49066c0,-18.40292 14.91851,-33.32143 33.32143,-33.32143c18.40292,0 33.32143,14.91851 33.32143,33.32143c0,18.40292 -14.91851,33.32143 -33.32143,33.32143c-18.40292,0 -33.32143,-14.91851 -33.32143,-33.32143z" data-paper-data="{&quot;origPos&quot;:null}" fill="#239211" stroke-width="0" stroke="none" transform="matrix(1,0,0,1,43,59.74568)"/><path d="M178.64286,274.22363c0,-18.40292 14.91851,-33.32143 33.32143,-33.32143c18.40292,0 33.32143,14.91851 33.32143,33.32143c0,18.40292 -14.91852,33.32143 -33.32143,33.32143c-18.40292,0 -33.32143,-14.91851 -33.32143,-33.32143z" data-paper-data="{&quot;origPos&quot;:null}" fill="#239211" stroke-width="0" stroke="none" transform="matrix(1,0,0,1,43,59.74568)"/><path d="M 200.6247 293.471 C 200.6247 292.0554 201.7723 290.9078 203.1879 290.9078 C 204.6035 290.9078 205.7511 292.0554 205.7511 293.471 C 205.7511 294.8866 204.6035 296.0341 203.1879 296.0341 C 201.7723 296.0341 200.6247 294.8866 200.6247 293.471 Z " fill="#ff6666" stroke-width="0.5" stroke="none"/><path d="M 242.661 308.8501 C 242.661 307.4345 243.8086 306.2869 245.2242 306.2869 C 246.6398 306.2869 247.7874 307.4345 247.7874 308.8501 C 247.7874 310.2657 246.6398 311.4133 245.2242 311.4133 C 243.8086 311.4133 242.661 310.2657 242.661 308.8501 Z " fill="#ff6666" stroke-width="0.5" stroke="none"/><path d="M 196.5236 345.76 C 196.5236 344.3443 197.6712 343.1968 199.0868 343.1968 C 200.5024 343.1968 201.65 344.3443 201.65 345.76 C 201.65 347.1756 200.5024 348.3231 199.0868 348.3231 C 197.6712 348.3231 196.5236 347.1756 196.5236 345.76 Z " fill="#ff6666" stroke-width="0.5" stroke="none"/><path d="M 166.7907 313.9764 C 166.7907 312.5608 167.9382 311.4133 169.3539 311.4133 C 170.7695 311.4133 171.917 312.5608 171.917 313.9764 C 171.917 315.3921 170.7695 316.5396 169.3539 316.5396 C 167.9382 316.5396 166.7907 315.3921 166.7907 313.9764 Z " fill="#ff6666" stroke-width="0.5" stroke="none"/><path d="M 259.0654 322.1787 C 259.0654 320.763 260.213 319.6155 261.6286 319.6155 C 263.0442 319.6155 264.1918 320.763 264.1918 322.1787 C 264.1918 323.5943 263.0442 324.7418 261.6286 324.7418 C 260.213 324.7418 259.0654 323.5943 259.0654 322.1787 Z " fill="#ff6666" stroke-width="0.5" stroke="none"/><path d="M 239.5852 323.2039 C 239.5852 321.7883 240.7328 320.6407 242.1484 320.6407 C 243.564 320.6407 244.7115 321.7883 244.7115 323.2039 C 244.7115 324.6195 243.564 325.7671 242.1484 325.7671 C 240.7328 325.7671 239.5852 324.6195 239.5852 323.2039 Z " fill="#ff6666" stroke-width="0.5" stroke="none"/><path d="M 200.6247 377.5435 C 200.6247 376.1279 201.7723 374.9803 203.1879 374.9803 C 204.6035 374.9803 205.7511 376.1279 205.7511 377.5435 C 205.7511 378.9591 204.6035 380.1067 203.1879 380.1067 C 201.7723 380.1067 200.6247 378.9591 200.6247 377.5435 Z " fill="#ff6666" stroke-width="0.5" stroke="none"/><path d="M 243.6863 350.8863 C 243.6863 349.4707 244.8339 348.3231 246.2495 348.3231 C 247.6651 348.3231 248.8126 349.4707 248.8126 350.8863 C 248.8126 352.302 247.6651 353.4495 246.2495 353.4495 C 244.8339 353.4495 243.6863 352.302 243.6863 350.8863 Z " fill="#ff6666" stroke-width="0.5" stroke="none"/><path d="M 224.2061 276.0413 C 224.2061 274.6257 225.3536 273.4781 226.7692 273.4781 C 228.1848 273.4781 229.3324 274.6257 229.3324 276.0413 C 229.3324 277.4569 228.1848 278.6045 226.7692 278.6045 C 225.3536 278.6045 224.2061 277.4569 224.2061 276.0413 Z " fill="#ff6666" stroke-width="0.5" stroke="none"/></g><path d="M194.27273,346c0,0 5.34769,-43.21088 5.34769,-69.13281c0,-77.76579 0,-210.10953 0,-210.10953h25.97451c0,0 0,135.28635 0,211.46508c0,25.39292 5.34769,67.77727 5.34769,67.77727z" data-paper-data="{&quot;origPos&quot;:null}" fill="#664518" stroke-width="0" stroke="none" transform="matrix(1,0,0,1,43,59.74568)"/><path d="M140.54546,35.13182c0,-33.58936 28.99973,-60.81891 64.77273,-60.81891c35.773,0 64.77273,27.22955 64.77273,60.81891c0,33.58936 -28.99973,60.81891 -64.77273,60.81891c-35.773,0 -64.77273,-27.22955 -64.77273,-60.81891z" data-paper-data="{&quot;origPos&quot;:null}" fill="#226719" stroke-width="0" stroke="none" transform="matrix(1,0,0,1,43,59.74568)"/><path d="M204.45455,15.66977c0,-23.73647 20.49315,-42.97869 45.77273,-42.97869c25.27958,0 45.77273,19.24222 45.77273,42.9787c0,23.73648 -20.49315,42.9787 -45.77273,42.9787c-25.27958,0 -45.77273,-19.24222 -45.77273,-42.97869z" data-paper-data="{&quot;origPos&quot;:null}" fill="#226719" stroke-width="0" stroke="none" transform="matrix(1,0,0,1,43,59.74568)"/><path d="M190.63637,74.05592c0,-23.73647 20.49314,-42.97869 45.77272,-42.97869c25.27958,0 45.77273,19.24222 45.77273,42.9787c0,23.73648 -20.49315,42.9787 -45.77273,42.9787c-25.27958,0 -45.77272,-19.24223 -45.77272,-42.9787z" data-paper-data="{&quot;origPos&quot;:null}" fill="#226719" stroke-width="0" stroke="none" transform="matrix(1,0,0,1,43,59.74568)"/><path d="M130.18182,74.05592c0,-23.73647 20.49314,-42.97869 45.77273,-42.97869c25.27958,0 45.77273,19.24222 45.77273,42.9787c0,23.73648 -20.49315,42.9787 -45.77273,42.9787c-25.27958,0 -45.77273,-19.24223 -45.77273,-42.9787z" data-paper-data="{&quot;origPos&quot;:null}" fill="#226719" stroke-width="0" stroke="none" transform="matrix(1,0,0,1,43,59.74568)"/><path d="M78,18.91345c0,-23.73647 20.49314,-42.97869 45.77272,-42.97869c25.27958,0 45.77273,19.24222 45.77273,42.9787c0,23.73647 -20.49315,42.9787 -45.77273,42.9787c-25.27958,0 -45.77272,-19.24222 -45.77272,-42.97869z" data-paper-data="{&quot;origPos&quot;:null}" fill="#2b7f1f" stroke-width="0" stroke="none" transform="matrix(1,0,0,1,43,59.74568)"/><path d="M159.54546,-16.76698c0,-23.73647 20.49314,-42.9787 45.77273,-42.9787c25.27958,0 45.77273,19.24222 45.77273,42.9787c0,23.73648 -20.49315,42.9787 -45.77273,42.9787c-25.27958,0 -45.77273,-19.24222 -45.77273,-42.97869z" data-paper-data="{&quot;origPos&quot;:null}" fill="#226719" stroke-width="0" stroke="none" transform="matrix(1,0,0,1,43,59.74568)"/><g data-paper-data="{&quot;origPos&quot;:null}"><path d="M0,339c0,0 3.94033,-18.72394 3.94033,-29.95631c0,-33.69711 0,-91.04369 0,-91.04369h19.13875c0,0 0,58.62166 0,91.63107c0,11.00314 3.94033,29.36893 3.94033,29.36893z" data-paper-data="{&quot;origPos&quot;:null}" fill="#7f571f" stroke-width="0" stroke="none" transform="matrix(1,0,0,1,43,59.74568)"/><path d="M-23,198.5c0,-20.71068 16.78932,-37.5 37.5,-37.5c20.71068,0 37.5,16.78932 37.5,37.5c0,20.71068 -16.78932,37.5 -37.5,37.5c-20.71068,0 -37.5,-16.78932 -37.5,-37.5z" data-paper-data="{&quot;origPos&quot;:null}" fill="#2b7f1f" stroke-width="0" stroke="none" transform="matrix(1,0,0,1,43,59.74568)"/><path d="M14,186.5c0,-14.63555 11.86446,-26.5 26.5,-26.5c14.63555,0 26.5,11.86445 26.5,26.5c0,14.63555 -11.86445,26.5 -26.5,26.5c-14.63554,0 -26.5,-11.86445 -26.5,-26.5z" data-paper-data="{&quot;origPos&quot;:null}" fill="#2b7f1f" stroke-width="0" stroke="none" transform="matrix(1,0,0,1,43,59.74568)"/><path d="M6,222.5c0,-14.63555 11.86446,-26.5 26.5,-26.5c14.63555,0 26.5,11.86445 26.5,26.5c0,14.63555 -11.86445,26.5 -26.5,26.5c-14.63554,0 -26.5,-11.86445 -26.5,-26.5z" data-paper-data="{&quot;origPos&quot;:null}" fill="#2b7f1f" stroke-width="0" stroke="none" transform="matrix(1,0,0,1,43,59.74568)"/><path d="M-29,222.5c0,-14.63555 11.86446,-26.5 26.5,-26.5c14.63555,0 26.5,11.86445 26.5,26.5c0,14.63555 -11.86445,26.5 -26.5,26.5c-14.63554,0 -26.5,-11.86445 -26.5,-26.5z" data-paper-data="{&quot;origPos&quot;:null}" fill="#2b7f1f" stroke-width="0" stroke="none" transform="matrix(1,0,0,1,43,59.74568)"/><path d="M-43,188.5c0,-14.63555 11.86446,-26.5 26.5,-26.5c14.63555,0 26.5,11.86445 26.5,26.5c0,14.63555 -11.86445,26.5 -26.5,26.5c-14.63554,0 -26.5,-11.86445 -26.5,-26.5z" data-paper-data="{&quot;origPos&quot;:null}" fill="#2b7f1f" stroke-width="0" stroke="none" transform="matrix(1,0,0,1,43,59.74568)"/><path d="M-12,166.5c0,-14.63555 11.86446,-26.5 26.5,-26.5c14.63555,0 26.5,11.86445 26.5,26.5c0,14.63555 -11.86445,26.5 -26.5,26.5c-14.63554,0 -26.5,-11.86445 -26.5,-26.5z" data-paper-data="{&quot;origPos&quot;:null}" fill="#2b7f1f" stroke-width="0" stroke="none" transform="matrix(1,0,0,1,43,59.74568)"/></g><g data-paper-data="{&quot;origPos&quot;:null}"><path d="M311.47273,320c0,0 4.44183,-21.10699 4.44183,-33.76893c0,-37.98584 0,-102.63107 0,-102.63107h21.57459c0,0 0,66.08259 0,103.29321c0,12.40354 4.44182,33.10679 4.44182,33.10679z" data-paper-data="{&quot;origPos&quot;:null}" fill="#7f571f" stroke-width="0" stroke="none" transform="matrix(1,0,0,1,43,59.74568)"/><path d="M285.54546,161.61818c0,-23.34659 18.92614,-42.27272 42.27272,-42.27272c23.34659,0 42.27273,18.92614 42.27273,42.27272c0,23.34659 -18.92615,42.27273 -42.27273,42.27273c-23.34659,0 -42.27272,-18.92614 -42.27272,-42.27273z" data-paper-data="{&quot;origPos&quot;:null}" fill="#2b7f1f" stroke-width="0" stroke="none" transform="matrix(1,0,0,1,43,59.74568)"/><path d="M327.25455,148.09091c0,-16.49825 13.37448,-29.87273 29.87273,-29.87273c16.49825,0 29.87273,13.37448 29.87273,29.87273c0,16.49825 -13.37448,29.87273 -29.87273,29.87273c-16.49825,0 -29.87273,-13.37448 -29.87273,-29.87273z" data-paper-data="{&quot;origPos&quot;:null}" fill="#2b7f1f" stroke-width="0" stroke="none" transform="matrix(1,0,0,1,43,59.74568)"/><path d="M318.23636,188.67273c0,-16.49825 13.37448,-29.87273 29.87273,-29.87273c16.49825,0 29.87273,13.37448 29.87273,29.87273c0,16.49825 -13.37448,29.87273 -29.87273,29.87273c-16.49825,0 -29.87273,-13.37448 -29.87273,-29.87273z" data-paper-data="{&quot;origPos&quot;:null}" fill="#2b7f1f" stroke-width="0" stroke="none" transform="matrix(1,0,0,1,43,59.74568)"/><path d="M278.78182,188.67273c0,-16.49825 13.37448,-29.87273 29.87273,-29.87273c16.49825,0 29.87273,13.37448 29.87273,29.87273c0,16.49825 -13.37448,29.87273 -29.87273,29.87273c-16.49825,0 -29.87273,-13.37448 -29.87273,-29.87273z" data-paper-data="{&quot;origPos&quot;:null}" fill="#2b7f1f" stroke-width="0" stroke="none" transform="matrix(1,0,0,1,43,59.74568)"/><path d="M263,150.34545c0,-16.49825 13.37448,-29.87273 29.87273,-29.87273c16.49825,0 29.87273,13.37448 29.87273,29.87273c0,16.49825 -13.37448,29.87273 -29.87273,29.87273c-16.49825,0 -29.87273,-13.37447 -29.87273,-29.87273z" data-paper-data="{&quot;origPos&quot;:null}" fill="#2b7f1f" stroke-width="0" stroke="none" transform="matrix(1,0,0,1,43,59.74568)"/><path d="M297.94545,125.54546c0,-16.49825 13.37448,-29.87273 29.87273,-29.87273c16.49825,0 29.87273,13.37448 29.87273,29.87273c0,16.49825 -13.37448,29.87273 -29.87273,29.87273c-16.49825,0 -29.87273,-13.37448 -29.87273,-29.87273z" data-paper-data="{&quot;origPos&quot;:null}" fill="#2b7f1f" stroke-width="0" stroke="none" transform="matrix(1,0,0,1,43,59.74568)"/></g><g data-paper-data="{&quot;origPos&quot;:null}"><path d="M148,331c0,0 5.94033,-18.72394 5.94033,-29.95631c0,-33.69711 0,-91.04369 0,-91.04369h27.13875c0,0 0,58.62166 0,91.63107c0,11.00314 3.94033,29.36893 3.94033,29.36893z" data-paper-data="{&quot;origPos&quot;:null}" fill="#7f571f" stroke-width="0" stroke="none" transform="matrix(1,0,0,1,43,59.74568)"/><path d="M130,190.5c0,-20.71068 16.78932,-37.5 37.5,-37.5c20.71068,0 37.5,16.78932 37.5,37.5c0,20.71068 -16.78932,37.5 -37.5,37.5c-20.71068,0 -37.5,-16.78932 -37.5,-37.5z" data-paper-data="{&quot;origPos&quot;:null}" fill="#2b7f1f" stroke-width="0" stroke="none" transform="matrix(1,0,0,1,43,59.74568)"/><path d="M167,178.5c0,-14.63555 11.86445,-26.5 26.5,-26.5c14.63555,0 26.5,11.86445 26.5,26.5c0,14.63555 -11.86445,26.5 -26.5,26.5c-14.63555,0 -26.5,-11.86445 -26.5,-26.5z" data-paper-data="{&quot;origPos&quot;:null}" fill="#2b7f1f" stroke-width="0" stroke="none" transform="matrix(1,0,0,1,43,59.74568)"/><path d="M159,214.5c0,-14.63555 11.86445,-26.5 26.5,-26.5c14.63555,0 26.5,11.86445 26.5,26.5c0,14.63555 -11.86445,26.5 -26.5,26.5c-14.63555,0 -26.5,-11.86445 -26.5,-26.5z" data-paper-data="{&quot;origPos&quot;:null}" fill="#2b7f1f" stroke-width="0" stroke="none" transform="matrix(1,0,0,1,43,59.74568)"/><path d="M124,214.5c0,-14.63555 11.86445,-26.5 26.5,-26.5c14.63555,0 26.5,11.86445 26.5,26.5c0,14.63555 -11.86445,26.5 -26.5,26.5c-14.63555,0 -26.5,-11.86445 -26.5,-26.5z" data-paper-data="{&quot;origPos&quot;:null}" fill="#2b7f1f" stroke-width="0" stroke="none" transform="matrix(1,0,0,1,43,59.74568)"/><path d="M110,180.5c0,-14.63555 11.86445,-26.5 26.5,-26.5c14.63555,0 26.5,11.86445 26.5,26.5c0,14.63555 -11.86445,26.5 -26.5,26.5c-14.63555,0 -26.5,-11.86445 -26.5,-26.5z" data-paper-data="{&quot;origPos&quot;:null}" fill="#2b7f1f" stroke-width="0" stroke="none" transform="matrix(1,0,0,1,43,59.74568)"/><path d="M141,158.5c0,-14.63555 11.86445,-26.5 26.5,-26.5c14.63555,0 26.5,11.86445 26.5,26.5c0,14.63555 -11.86445,26.5 -26.5,26.5c-14.63555,0 -26.5,-11.86445 -26.5,-26.5z" data-paper-data="{&quot;origPos&quot;:null}" fill="#2b7f1f" stroke-width="0" stroke="none" transform="matrix(1,0,0,1,43,59.74568)"/></g><g data-paper-data="{&quot;origPos&quot;:null}"><path d="M63.85715,310.85715c0,-13.88601 11.25684,-25.14286 25.14285,-25.14286c13.88602,0 25.14285,11.25684 25.14285,25.14286c0,13.88601 -11.25684,25.14285 -25.14285,25.14285c-13.88601,0 -25.14285,-11.25684 -25.14285,-25.14285z" fill="#2ab615" stroke-width="0" stroke="none" transform="matrix(1,0,0,1,43,59.74568)"/><path d="M53,307.14286c0,-10.25671 8.31472,-18.57142 18.57143,-18.57142c10.25672,0 18.57142,8.31471 18.57142,18.57142c0,10.25671 -8.31471,18.57143 -18.57142,18.57143c-10.25671,0 -18.57143,-8.31472 -18.57143,-18.57143z" data-paper-data="{&quot;origPos&quot;:null}" fill="#2ab615" stroke-width="0" stroke="none" transform="matrix(1,0,0,1,43,59.74568)"/><path d="M72.42857,290.57143c0,-10.25671 8.31472,-18.57143 18.57143,-18.57143c10.25672,0 18.57143,8.31472 18.57143,18.57143c0,10.25671 -8.31472,18.57142 -18.57143,18.57142c-10.25671,0 -18.57143,-8.31471 -18.57143,-18.57142z" data-paper-data="{&quot;origPos&quot;:null}" fill="#2ab615" stroke-width="0" stroke="none" transform="matrix(1,0,0,1,43,59.74568)"/><path d="M90.14286,307.14286c0,-10.25671 8.31472,-18.57142 18.57143,-18.57142c10.25672,0 18.57143,8.31471 18.57143,18.57142c0,10.25671 -8.31471,18.57143 -18.57143,18.57143c-10.25671,0 -18.57143,-8.31472 -18.57143,-18.57143z" data-paper-data="{&quot;origPos&quot;:null}" fill="#2ab615" stroke-width="0" stroke="none" transform="matrix(1,0,0,1,43,59.74568)"/><path d="M 121.4286 344.3171 C 121.4286 343.5281 122.0682 342.8885 122.8571 342.8885 C 123.6461 342.8885 124.2857 343.5281 124.2857 344.3171 C 124.2857 345.1061 123.6461 345.7457 122.8571 345.7457 C 122.0682 345.7457 121.4286 345.1061 121.4286 344.3171 Z " fill="#ff6666" stroke-width="0.5" stroke="none"/><path d="M 144.8571 352.8885 C 144.8571 352.0996 145.4967 351.46 146.2857 351.46 C 147.0747 351.46 147.7143 352.0996 147.7143 352.8885 C 147.7143 353.6775 147.0747 354.3171 146.2857 354.3171 C 145.4967 354.3171 144.8571 353.6775 144.8571 352.8885 Z " fill="#ff6666" stroke-width="0.5" stroke="none"/><path d="M 119.1429 373.46 C 119.1429 372.671 119.7825 372.0314 120.5714 372.0314 C 121.3604 372.0314 122 372.671 122 373.46 C 122 374.2489 121.3604 374.8885 120.5714 374.8885 C 119.7825 374.8885 119.1429 374.2489 119.1429 373.46 Z " fill="#ff6666" stroke-width="0.5" stroke="none"/><path d="M 102.5714 355.7457 C 102.5714 354.9567 103.211 354.3171 104 354.3171 C 104.789 354.3171 105.4286 354.9567 105.4286 355.7457 C 105.4286 356.5347 104.789 357.1742 104 357.1742 C 103.211 357.1742 102.5714 356.5347 102.5714 355.7457 Z " fill="#ff6666" stroke-width="0.5" stroke="none"/><path d="M 154 360.3171 C 154 359.5281 154.6396 358.8885 155.4286 358.8885 C 156.2175 358.8885 156.8571 359.5281 156.8571 360.3171 C 156.8571 361.1061 156.2175 361.7457 155.4286 361.7457 C 154.6396 361.7457 154 361.1061 154 360.3171 Z " fill="#ff6666" stroke-width="0.5" stroke="none"/><path d="M 143.1429 360.8885 C 143.1429 360.0996 143.7825 359.46 144.5714 359.46 C 145.3604 359.46 146 360.0996 146 360.8885 C 146 361.6775 145.3604 362.3171 144.5714 362.3171 C 143.7825 362.3171 143.1429 361.6775 143.1429 360.8885 Z " fill="#ff6666" stroke-width="0.5" stroke="none"/><path d="M 121.4286 391.1742 C 121.4286 390.3853 122.0682 389.7457 122.8571 389.7457 C 123.6461 389.7457 124.2857 390.3853 124.2857 391.1742 C 124.2857 391.9632 123.6461 392.6028 122.8571 392.6028 C 122.0682 392.6028 121.4286 391.9632 121.4286 391.1742 Z " fill="#ff6666" stroke-width="0.5" stroke="none"/><path d="M 145.4286 376.3171 C 145.4286 375.5281 146.0682 374.8885 146.8571 374.8885 C 147.6461 374.8885 148.2857 375.5281 148.2857 376.3171 C 148.2857 377.1061 147.6461 377.7457 146.8571 377.7457 C 146.0682 377.7457 145.4286 377.1061 145.4286 376.3171 Z " fill="#ff6666" stroke-width="0.5" stroke="none"/><path d="M 134.5714 334.6028 C 134.5714 333.8139 135.211 333.1742 136 333.1742 C 136.789 333.1742 137.4286 333.8138 137.4286 334.6028 C 137.4286 335.3918 136.789 336.0314 136 336.0314 C 135.211 336.0314 134.5714 335.3918 134.5714 334.6028 Z " fill="#ff6666" stroke-width="0.5" stroke="none"/></g><path d="M92,14c0,-22.09139 17.90861,-40 40,-40c22.09139,0 40,17.90861 40,40c0,22.09139 -17.90861,40 -40,40c-22.09139,0 -40,-17.90861 -40,-40z" data-paper-data="{&quot;origPos&quot;:null}" fill="#359c25" stroke-width="0" stroke="none" transform="matrix(1,0,0,1,43,59.74568)"/><path d="M79,75c0,-22.09139 17.90861,-40 40,-40c22.09139,0 40,17.90861 40,40c0,22.09139 -17.90861,40 -40,40c-22.09139,0 -40,-17.90861 -40,-40z" data-paper-data="{&quot;origPos&quot;:null}" fill="#359c25" stroke-width="0" stroke="none" transform="matrix(1,0,0,1,43,59.74568)"/><path d="M52,121c0,-22.09139 17.90861,-40 40,-40c22.09139,0 40,17.90861 40,40c0,22.09139 -17.90861,40 -40,40c-22.09139,0 -40,-17.90861 -40,-40z" data-paper-data="{&quot;origPos&quot;:null}" fill="#359c25" stroke-width="0" stroke="none" transform="matrix(1,0,0,1,43,59.74568)"/><path d="M-13,126c0,-22.09139 17.90861,-40 40,-40c22.09139,0 40,17.90861 40,40c0,22.09139 -17.90861,40 -40,40c-22.09139,0 -40,-17.90861 -40,-40z" data-paper-data="{&quot;origPos&quot;:null}" fill="#359c25" stroke-width="0" stroke="none" transform="matrix(1,0,0,1,43,59.74568)"/><path d="M-8,134v-153h118v153z" data-paper-data="{&quot;origPos&quot;:null}" fill="#359c25" stroke-width="0" stroke="none" transform="matrix(1,0,0,1,43,59.74568)"/><path d="M25,334c0,0 6.70833,-34.02428 6.70833,-54.43523c0,-58.73355 0,-150.49741 0,-150.49741l32.58332,-1.06736c0,0 0,93.06547 0,152.63212c0,19.9944 6.70833,53.36788 6.70833,53.36788z" data-paper-data="{&quot;origPos&quot;:null}" fill="#956624" stroke-width="0" stroke="none" transform="matrix(1,0,0,1,43,59.74568)"/><path d="M344,88c-22.09139,0 -40,-17.90861 -40,-40c0,-22.09139 17.90861,-40 40,-40c22.09139,0 40,17.90861 40,40c0,22.09139 -17.90861,40 -40,40z" data-paper-data="{&quot;origPos&quot;:null,&quot;index&quot;:null}" fill="#359c25" stroke-width="0" stroke="none" transform="matrix(1,0,0,1,43,59.74568)"/><path d="M357,149c-22.09139,0 -40,-17.90861 -40,-40c0,-22.09139 17.90861,-40 40,-40c22.09139,0 40,17.90861 40,40c0,22.09139 -17.90861,40 -40,40z" data-paper-data="{&quot;origPos&quot;:null,&quot;index&quot;:null}" fill="#359c25" stroke-width="0" stroke="none" transform="matrix(1,0,0,1,43,59.74568)"/><path d="M384,195c-22.09139,0 -40,-17.90861 -40,-40c0,-22.09139 17.90861,-40 40,-40c22.09139,0 40,17.90861 40,40c0,22.09139 -17.90861,40 -40,40z" data-paper-data="{&quot;origPos&quot;:null,&quot;index&quot;:null}" fill="#359c25" stroke-width="0" stroke="none" transform="matrix(1,0,0,1,43,59.74568)"/><path d="M366,168v-171h118v171z" data-paper-data="{&quot;origPos&quot;:null,&quot;index&quot;:null}" fill="#359c25" stroke-width="0" stroke="none" transform="matrix(1,0,0,1,43,59.74568)"/><path d="M352,40c-22.09139,0 -40,-17.90861 -40,-40c0,-22.09139 17.90861,-40 40,-40c22.09139,0 40,17.90861 40,40c0,22.09139 -17.90861,40 -40,40z" data-paper-data="{&quot;origPos&quot;:null,&quot;index&quot;:null}" fill="#359c25" stroke-width="0" stroke="none" transform="matrix(1,0,0,1,43,59.74568)"/><path d="M449,200c-22.09139,0 -40,-17.90861 -40,-40c0,-22.09139 17.90861,-40 40,-40c22.09139,0 40,17.90861 40,40c0,22.09139 -17.90861,40 -40,40z" data-paper-data="{&quot;origPos&quot;:null,&quot;index&quot;:null}" fill="#359c25" stroke-width="0" stroke="none" transform="matrix(1,0,0,1,43,59.74568)"/><path d="M407,333c0,0 6.70834,-32.08547 6.70834,-51.33333c0,-40.06699 0,-102.66667 0,-102.66667l32.58332,1.00654c0,0 0,62.59968 0,102.66667c0,18.85506 6.70834,50.3268 6.70834,50.3268z" data-paper-data="{&quot;origPos&quot;:null}" fill="#956624" stroke-width="0" stroke="none" transform="matrix(1,0,0,1,43,59.74568)"/><g data-paper-data="{&quot;origPos&quot;:null}"><path d="M417.88022,312.48792c0,-15.1945 12.31759,-27.51209 27.51209,-27.51209c15.1945,0 27.51209,12.31759 27.51209,27.51209c0,15.1945 -12.31758,27.51209 -27.51209,27.51209c-15.1945,0 -27.51209,-12.31758 -27.51209,-27.51209z" fill="#2ab615" stroke-width="0" stroke="none" transform="matrix(1,0,0,1,43,59.74568)"/><path d="M406,308.42363c0,-11.22321 9.09822,-20.32143 20.32143,-20.32143c11.22321,0 20.32142,9.09821 20.32142,20.32143c0,11.22321 -9.09821,20.32143 -20.32142,20.32143c-11.22321,0 -20.32143,-9.09821 -20.32143,-20.32143z" data-paper-data="{&quot;origPos&quot;:null}" fill="#2ab615" stroke-width="0" stroke="none" transform="matrix(1,0,0,1,43,59.74568)"/><path d="M427.25934,290.29066c0,-11.22321 9.09821,-20.32143 20.32143,-20.32143c11.22321,0 20.32143,9.09822 20.32143,20.32143c0,11.22321 -9.09822,20.32142 -20.32143,20.32142c-11.22321,0 -20.32143,-9.09821 -20.32143,-20.32142z" data-paper-data="{&quot;origPos&quot;:null}" fill="#2ab615" stroke-width="0" stroke="none" transform="matrix(1,0,0,1,43,59.74568)"/><path d="M446.64286,308.42363c0,-11.22321 9.09822,-20.32143 20.32143,-20.32143c11.22321,0 20.32143,9.09821 20.32143,20.32143c0,11.22321 -9.09821,20.32143 -20.32143,20.32143c-11.22321,0 -20.32143,-9.09821 -20.32143,-20.32143z" data-paper-data="{&quot;origPos&quot;:null}" fill="#2ab615" stroke-width="0" stroke="none" transform="matrix(1,0,0,1,43,59.74568)"/><path d="M 476.8247 343.471 C 476.8247 342.6076 477.5246 341.9078 478.3879 341.9078 C 479.2512 341.9078 479.9511 342.6076 479.9511 343.471 C 479.9511 344.3343 479.2512 345.0341 478.3879 345.0341 C 477.5246 345.0341 476.8247 344.3343 476.8247 343.471 Z " fill="#ff6666" stroke-width="0.5" stroke="none"/><path d="M 502.461 352.8501 C 502.461 351.9868 503.1608 351.2869 504.0242 351.2869 C 504.8875 351.2869 505.5874 351.9867 505.5874 352.8501 C 505.5874 353.7134 504.8875 354.4133 504.0242 354.4133 C 503.1609 354.4133 502.461 353.7134 502.461 352.8501 Z " fill="#ff6666" stroke-width="0.5" stroke="none"/><path d="M 474.3236 375.36 C 474.3236 374.4966 475.0235 373.7968 475.8868 373.7968 C 476.7501 373.7968 477.45 374.4966 477.45 375.36 C 477.45 376.2233 476.7501 376.9232 475.8868 376.9232 C 475.0235 376.9232 474.3236 376.2233 474.3236 375.36 Z " fill="#ff6666" stroke-width="0.5" stroke="none"/><path d="M 456.1907 355.9764 C 456.1907 355.1131 456.8905 354.4133 457.7538 354.4133 C 458.6172 354.4133 459.317 355.1131 459.317 355.9764 C 459.317 356.8398 458.6172 357.5396 457.7538 357.5396 C 456.8905 357.5396 456.1907 356.8398 456.1907 355.9764 Z " fill="#ff6666" stroke-width="0.5" stroke="none"/><path d="M 512.4654 360.9787 C 512.4654 360.1153 513.1653 359.4155 514.0286 359.4155 C 514.8919 359.4155 515.5918 360.1153 515.5918 360.9787 C 515.5918 361.842 514.8919 362.5418 514.0286 362.5418 C 513.1653 362.5418 512.4654 361.842 512.4654 360.9787 Z " fill="#ff6666" stroke-width="0.5" stroke="none"/><path d="M 500.5852 361.6039 C 500.5852 360.7406 501.285 360.0407 502.1484 360.0407 C 503.0117 360.0407 503.7115 360.7406 503.7115 361.6039 C 503.7115 362.4672 503.0117 363.1671 502.1484 363.1671 C 501.285 363.1671 500.5852 362.4673 500.5852 361.6039 Z " fill="#ff6666" stroke-width="0.5" stroke="none"/><path d="M 476.8247 394.7435 C 476.8247 393.8802 477.5246 393.1803 478.3879 393.1803 C 479.2512 393.1803 479.9511 393.8802 479.9511 394.7435 C 479.9511 395.6068 479.2512 396.3067 478.3879 396.3067 C 477.5246 396.3067 476.8247 395.6068 476.8247 394.7435 Z " fill="#ff6666" stroke-width="0.5" stroke="none"/><path d="M 503.0863 378.4863 C 503.0863 377.623 503.7861 376.9231 504.6495 376.9231 C 505.5128 376.9231 506.2126 377.623 506.2126 378.4863 C 506.2126 379.3497 505.5128 380.0495 504.6495 380.0495 C 503.7861 380.0495 503.0863 379.3497 503.0863 378.4863 Z " fill="#ff6666" stroke-width="0.5" stroke="none"/><path d="M 491.2061 332.8413 C 491.2061 331.978 491.9059 331.2781 492.7692 331.2781 C 493.6325 331.2781 494.3324 331.9779 494.3324 332.8413 C 494.3324 333.7046 493.6326 334.4045 492.7692 334.4045 C 491.9059 334.4045 491.2061 333.7046 491.2061 332.8413 Z " fill="#ff6666" stroke-width="0.5" stroke="none"/></g></g></g></svg>