<svg version="1.1" xmlns="http://www.w3.org/2000/svg" xmlns:xlink="http://www.w3.org/1999/xlink" width="32.75661" height="16.4424" viewBox="0,0,32.75661,16.4424"><g transform="translate(-223.24481,-171.35684)"><g data-paper-data="{&quot;isPaintingLayer&quot;:true}" fill-rule="nonzero" stroke-linecap="butt" stroke-linejoin="miter" stroke-miterlimit="10" stroke-dasharray="" stroke-dashoffset="0" style="mix-blend-mode: normal"><g><path d="M244.14454,175.77201c2.04192,-0.01914 3.71274,1.62063 3.73189,3.66255c0.01914,2.04192 -1.62065,3.71275 -3.66256,3.73189c-2.04192,0.01915 -3.71275,-1.62064 -3.7319,-3.66256c-0.01914,-2.04192 1.62065,-3.71274 3.66257,-3.73188z" fill="#7dfaff" stroke="#62e374" stroke-width="0"/><path d="M251.76954,175.64701c2.04192,-0.01915 3.71274,1.62064 3.73188,3.66256c0.01915,2.04192 -1.62065,3.71275 -3.66256,3.73189c-2.04192,0.01915 -3.71275,-1.62065 -3.7319,-3.66257c-0.01915,-2.04192 1.62065,-3.71274 3.66257,-3.73189z" fill="#7dff8c" stroke="#62e374" stroke-width="1"/><path d="M247.17102,179.90479c2.04192,-0.01915 3.71275,1.62065 3.73189,3.66257c0.01915,2.04192 -1.62065,3.71274 -3.66257,3.73189c-2.04192,0.01915 -3.71274,-1.62064 -3.73188,-3.66256c-0.01915,-2.04192 1.62065,-3.71274 3.66256,-3.73188z" fill="#ffe77d" stroke="#e3ce62" stroke-width="1"/><path d="M246.8841,171.85701c2.04192,-0.01915 3.71275,1.62064 3.7319,3.66257c0.01915,2.04192 -1.62064,3.71275 -3.66258,3.7319c-2.04192,0.01915 -3.71275,-1.62064 -3.73189,-3.66258c-0.01915,-2.04192 1.62064,-3.71275 3.66257,-3.73189z" fill="#ff7de3" stroke="#e461e3" stroke-width="1"/><path d="M224.77966,179.3816l19.13945,-6.59859c0,0 -1.13204,4.41356 -1.11128,6.6271c0.02091,2.22998 1.23534,6.60509 1.23534,6.60509z" fill="#e6a843" stroke="#cb9134" stroke-width="1"/></g></g></g></svg>