<svg xmlns="http://www.w3.org/2000/svg" xmlns:xlink="http://www.w3.org/1999/xlink" version="1.1" width="68.10177" height="156.69546" viewBox="0,0,68.10177,156.69546"><g><g data-paper-data="{&quot;isPaintingLayer&quot;:true}" fill-rule="nonzero" stroke-linejoin="miter" stroke-miterlimit="10" stroke-dasharray="" stroke-dashoffset="0" style="mix-blend-mode: normal"><path d="M 31.6715 48.7296 L 31.6715 116.0267 L 19.6239 154.9455 " data-paper-data="{&quot;origPos&quot;:null}" fill="none" stroke="#000000" stroke-width="3.5" stroke-linecap="round"/><path d="M 44.5223 154.7486 L 32.4747 114.5899 " fill="none" stroke="#000000" stroke-width="3.5" stroke-linecap="round"/><path d="M 47.0906 78.4582 C 47.0906 78.4582 41.7051 79.6662 39.0475 74.6599 C 36.1249 69.1547 32.5588 57.0534 32.5588 57.0534 " data-paper-data="{&quot;origPos&quot;:null,&quot;index&quot;:null}" fill="none" stroke="#000000" stroke-width="3.5" stroke-linecap="round"/><path d="M 29.9907 78.8251 L 29.9907 74.6584 L 47.324 74.6584 L 47.324 78.8251 Z " data-paper-data="{&quot;origPos&quot;:null}" fill="#9a9a9a" stroke="#5e5e5e" stroke-width="1" stroke-linecap="butt"/><path d="M 24.2904 88.6805 L 25.2904 72.6805 L 31.0404 72.6805 L 29.8975 88.6805 Z " data-paper-data="{&quot;origPos&quot;:null}" fill="#9a9a9a" stroke="#5e5e5e" stroke-width="1" stroke-linecap="butt"/><path d="M 27.42 81.3748 C 27.42 81.3748 10.2443 75.3162 13.5176 69.1502 C 16.3863 63.7463 30.3684 57.0534 30.3684 57.0534 " data-paper-data="{&quot;origPos&quot;:null}" fill="none" stroke="#000000" stroke-width="3.5" stroke-linecap="round"/><path d="M 16.75 75.5812 L 16.75 66.3312 L 50.75 66.3312 L 50.75 75.5812 Z " data-paper-data="{&quot;origPos&quot;:null}" fill="#00d8ff" stroke="#5e5e5e" stroke-width="1.5" stroke-linecap="butt"/><path d="M 0.5 81.5812 L 0.5 68.5812 L 17 68.5812 L 17.0375 73.0439 Z " data-paper-data="{&quot;origPos&quot;:null}" fill="#9a9a9a" stroke="#5e5e5e" stroke-width="1" stroke-linecap="butt"/><g data-paper-data="{&quot;origPos&quot;:null}"><path d="M 33.8165 1.25 C 43.5419 1.6718 54.541 8.6882 57.4301 13.4309 C 59.7345 17.2137 58.5947 23.9705 58.5947 23.9705 C 58.5947 23.9705 51.9588 33.5562 48.7622 38.2827 C 44.1655 45.0796 43.9715 51.4963 35.7662 51.4963 C 27.0798 51.4963 26.5236 44.5924 21.4295 37.5565 C 17.6165 32.2901 10.3203 23.4726 10.3203 23.4726 C 10.3203 23.4726 8.9398 14.6127 12.523 11.4834 C 16.1062 8.3541 24.0911 0.8282 33.8165 1.25 Z " data-paper-data="{&quot;origPos&quot;:null}" fill="#cbf2b8" stroke="#000000" stroke-width="2.5" stroke-linecap="butt"/><g data-paper-data="{&quot;origPos&quot;:null}"><path d="M234.39522,109.27628c0,-2.96519 2.40376,-5.36895 5.36895,-5.36895c2.96519,0 5.36895,2.40376 5.36895,5.36895c0,2.96519 -2.40376,5.36895 -5.36895,5.36895c-2.96519,0 -5.36895,-2.40376 -5.36895,-5.36895z" data-paper-data="{&quot;origPos&quot;:null}" fill="#000000" stroke="none" stroke-width="0" stroke-linecap="butt" transform="matrix(1,0,0,1,-209.68583,-89.17668)"/><path d="M249.60722,109.27628c0,-2.96518 2.40377,-5.36895 5.36895,-5.36895c2.96518,0 5.36895,2.40377 5.36895,5.36895c0,2.96518 -2.40377,5.36895 -5.36895,5.36895c-2.96518,0 -5.36895,-2.40377 -5.36895,-5.36895z" data-paper-data="{&quot;origPos&quot;:null}" fill="#000000" stroke="none" stroke-width="0" stroke-linecap="butt" transform="matrix(1,0,0,1,-209.68583,-89.17668)"/><path d="M 35.1219 16.3611 L 24.9534 12.2938 " data-paper-data="{&quot;origPos&quot;:null}" fill="none" stroke="#000000" stroke-width="2.5" stroke-linecap="round"/><path d="M 40.8162 15.9933 L 48.5442 12.3327 " data-paper-data="{&quot;origPos&quot;:null}" fill="none" stroke="#000000" stroke-width="2.5" stroke-linecap="round"/></g></g><path d="M 67.1018 70.9917 L 50.9907 70.9917 " data-paper-data="{&quot;origPos&quot;:null}" fill="none" stroke="#5e5e5e" stroke-width="2" stroke-linecap="round"/><path d="M262.78432,165.66784v-10.88889h2.44444v10.88889z" data-paper-data="{&quot;origPos&quot;:null}" fill="#00d8ff" stroke="none" stroke-width="0" stroke-linecap="butt" transform="matrix(1,0,0,1,-209.68583,-89.17668)"/><path d="M268.11765,164.55673v-8.88889h2.44444v8.88889z" data-paper-data="{&quot;origPos&quot;:null}" fill="#00d8ff" stroke="none" stroke-width="0" stroke-linecap="butt" transform="matrix(1,0,0,1,-209.68583,-89.17668)"/><path d="M273.33987,163.55672v-7h2.44444v7z" data-paper-data="{&quot;origPos&quot;:null}" fill="#00d8ff" stroke="none" stroke-width="0" stroke-linecap="butt" transform="matrix(1,0,0,1,-209.68583,-89.17668)"/></g></g></svg>