<svg version="1.1" xmlns="http://www.w3.org/2000/svg" xmlns:xlink="http://www.w3.org/1999/xlink" width="502" height="462.61574" viewBox="0,0,502,462.61574"><defs><radialGradient cx="237.27872" cy="288.41599" r="251" gradientUnits="userSpaceOnUse" id="color-1"><stop offset="0" stop-color="#fff945"/><stop offset="1" stop-color="#43468b"/></radialGradient><linearGradient x1="239.50014" y1="-4" x2="239.50014" y2="89" gradientUnits="userSpaceOnUse" id="color-2"><stop offset="0" stop-color="#232448"/><stop offset="1" stop-color="#232448" stop-opacity="0"/></linearGradient><linearGradient x1="134.44096" y1="219.20422" x2="134.95009" y2="237.01914" gradientUnits="userSpaceOnUse" id="color-3"><stop offset="0" stop-color="#d0d0d0" stop-opacity="0"/><stop offset="1" stop-color="#d0d0d0"/></linearGradient><linearGradient x1="119.86452" y1="228.45681" x2="120.37364" y2="246.27173" gradientUnits="userSpaceOnUse" id="color-4"><stop offset="0" stop-color="#d0d0d0" stop-opacity="0"/><stop offset="1" stop-color="#d0d0d0"/></linearGradient><linearGradient x1="132.13339" y1="237.12905" x2="132.64251" y2="254.94397" gradientUnits="userSpaceOnUse" id="color-5"><stop offset="0" stop-color="#d0d0d0" stop-opacity="0"/><stop offset="1" stop-color="#d0d0d0"/></linearGradient></defs><g transform="translate(17.06392,4)"><g data-paper-data="{&quot;isPaintingLayer&quot;:true}" fill-rule="nonzero" stroke-linejoin="miter" stroke-miterlimit="10" stroke-dasharray="" stroke-dashoffset="0" style="mix-blend-mode: normal"><path d="M-17.06392,364.81123v-368.53591h502v368.53591z" data-paper-data="{&quot;origPos&quot;:null}" fill="url(#color-1)" stroke="none" stroke-width="NaN" stroke-linecap="butt"/><path d="M-4.49997,89v-93h488v93z" fill="url(#color-2)" stroke="none" stroke-width="0" stroke-linecap="butt"/><text transform="translate(10.80415,48.57864) scale(1.10263,1.10263)" font-size="40" xml:space="preserve" fill="#db2121" fill-rule="nonzero" stroke="#e43434" stroke-width="2" stroke-linecap="butt" stroke-linejoin="miter" stroke-miterlimit="10" stroke-dasharray="" stroke-dashoffset="0" font-family="Serif" font-weight="normal" text-anchor="start" style="mix-blend-mode: normal"><tspan x="0" dy="0">TWO PLAYER BATTLE</tspan></text><g><path d="M411.84965,214.67351l-4.28071,141.46445l-27.80076,81.04455" data-paper-data="{&quot;origPos&quot;:null}" fill="none" stroke="#000000" stroke-width="5" stroke-linecap="round"/><path d="M409.3485,353.16897l22.77091,85.18361" fill="none" stroke="#000000" stroke-width="5" stroke-linecap="round"/><path d="M362.65516,165.0229c0.8888,-29.3721 25.42012,-52.4624 54.79223,-51.57361c29.3721,0.8888 52.4624,25.42012 51.57361,54.79223c-0.8888,29.3721 -25.42012,52.4624 -54.79223,51.57361c-29.3721,-0.8888 -52.4624,-25.42012 -51.57361,-54.79223z" data-paper-data="{&quot;origPos&quot;:null}" fill="#d4d4d4" stroke="#000000" stroke-width="5" stroke-linecap="butt"/><path d="M435.73122,133.88153c0.62327,-3.99817 4.36969,-6.73408 8.36785,-6.11081c3.99817,0.62327 6.73408,4.36969 6.11081,8.36785c-0.62327,3.99817 -4.36969,6.73408 -8.36786,6.11083c-3.99817,-0.62327 -6.73408,-4.36969 -6.11081,-8.36787z" fill="#815100" stroke="none" stroke-width="0" stroke-linecap="butt"/><path d="M374.10871,131.85809c-2.77344,-2.94652 -2.63313,-7.58344 0.31339,-10.35688c2.94652,-2.77344 7.58344,-2.63313 10.35688,0.31339c2.77344,2.94652 2.63313,7.58344 -0.31339,10.35688c-2.94652,2.77344 -7.58344,2.63313 -10.35688,-0.31339z" fill="#815100" stroke="none" stroke-width="0" stroke-linecap="butt"/><path d="M369.36047,139.07243c-2.77344,-2.94652 -2.63313,-7.58344 0.31339,-10.35688c2.94652,-2.77344 7.58344,-2.63313 10.35688,0.31339c2.77344,2.94652 2.63313,7.58344 -0.31339,10.35688c-2.94652,2.77344 -7.58344,2.63313 -10.35688,-0.31339z" fill="#815100" stroke="none" stroke-width="0" stroke-linecap="butt"/><path d="M424.06062,131.46585c0.62327,-3.99817 4.36969,-6.73408 8.36785,-6.11081c3.99817,0.62327 6.73408,4.36969 6.11081,8.36785c-0.62327,3.99817 -4.36969,6.73408 -8.36786,6.11083c-3.99817,-0.62327 -6.73408,-4.36969 -6.11081,-8.36787z" fill="#815100" stroke="none" stroke-width="0" stroke-linecap="butt"/><path d="M411.07043,132.11178c0.12239,-4.04461 3.50041,-7.22419 7.54502,-7.1018c4.04461,0.12239 7.22419,3.50041 7.1018,7.54502c-0.12239,4.04461 -3.50041,7.22419 -7.54502,7.1018c-4.04461,-0.12239 -7.22419,-3.50041 -7.1018,-7.54502z" fill="#815100" stroke="none" stroke-width="0" stroke-linecap="butt"/><path d="M448.20751,136.54186c0.12239,-4.04461 3.50041,-7.22419 7.54502,-7.1018c4.04461,0.12239 7.22419,3.50041 7.1018,7.54502c-0.12239,4.04461 -3.50041,7.22419 -7.54502,7.1018c-4.04461,-0.12239 -7.22419,-3.50041 -7.1018,-7.54502z" fill="#815100" stroke="none" stroke-width="0" stroke-linecap="butt"/><path d="M372.14081,138.5354c0.12239,-4.04461 4.1835,-7.20353 9.07074,-7.05564c4.88724,0.14789 8.74991,3.54657 8.62752,7.59118c-0.12239,4.04461 -4.1835,7.20353 -9.07074,7.05564c-4.88724,-0.14789 -8.74991,-3.54657 -8.62752,-7.59118z" fill="#815100" stroke="none" stroke-width="0" stroke-linecap="butt"/><path d="M387.70169,137.93002c0.12239,-4.04461 3.50041,-7.22419 7.54502,-7.1018c4.04461,0.12239 7.22419,3.50041 7.1018,7.54502c-0.12239,4.04461 -3.50041,7.22419 -7.54502,7.1018c-4.04461,-0.12239 -7.22419,-3.50041 -7.1018,-7.54502z" fill="#815100" stroke="none" stroke-width="0" stroke-linecap="butt"/><path d="M399.30425,133.55917c0.12239,-4.04461 3.50041,-7.22419 7.54502,-7.1018c4.04461,0.12239 7.22419,3.50041 7.1018,7.54502c-0.12239,4.04461 -3.50041,7.22419 -7.54502,7.1018c-4.04461,-0.12239 -7.22419,-3.50041 -7.1018,-7.54502z" fill="#815100" stroke="none" stroke-width="0" stroke-linecap="butt"/><path d="M408.58068,232.08798c0,0 -18.09004,34.29025 -26.41806,44.79305c-6.60424,8.32891 -19.58877,13.22815 -19.58877,13.22815" fill="none" stroke="#000000" stroke-width="5" stroke-linecap="round"/><path d="M455.69297,223.87202c0,0 -8.22222,46.10156 -21.64836,45.43205c-11.46927,1.98042 -20.85948,-37.07679 -20.85948,-37.07679" data-paper-data="{&quot;origPos&quot;:null,&quot;index&quot;:null}" fill="none" stroke="#000000" stroke-width="5" stroke-linecap="round"/><g stroke-width="2" stroke-linecap="butt"><path d="M354.52248,259.32298c0.61393,-4.25035 4.5572,-7.19823 8.80755,-6.5843c4.25035,0.61393 7.19826,4.55723 6.58433,8.80755c-0.61393,4.25035 -4.55722,7.19826 -8.80757,6.58433c-4.25035,-0.61393 -7.19824,-4.55723 -6.5843,-8.80757z" fill="#7dff8c" stroke="#62e374"/><path d="M360.88067,271.68318c0.61393,-4.25035 4.55723,-7.19826 8.80757,-6.5843c4.25035,0.61393 7.19823,4.55723 6.5843,8.80757c-0.61393,4.25035 -4.5572,7.19823 -8.80755,6.5843c-4.25035,-0.61393 -7.19823,-4.55723 -6.5843,-8.80755z" fill="#ffe77d" stroke="#e3ce62"/><path d="M345.39518,270.10803c0.61393,-4.25035 4.55721,-7.19826 8.80757,-6.58432c4.25035,0.61393 7.19826,4.5572 6.58432,8.80759c-0.61393,4.25035 -4.5572,7.19826 -8.80759,6.5843c-4.25035,-0.61393 -7.19826,-4.55721 -6.5843,-8.80757z" fill="#ff7de3" stroke="#e461e3"/><path d="M354.10913,314.89449l-7.58792,-41.89471c0,0 8.81134,3.76599 13.41892,4.43152c4.64181,0.67046 14.12447,-0.45309 14.12447,-0.45309z" fill="#e6a843" stroke="#cb9134"/></g><path d="M371.6477,188.8217c0.09484,-3.13416 -2.45548,-15.5878 -2.25639,-24.07502c0.03839,-1.63638 2.75926,5.72622 3.11406,4.45112c0.62453,-2.24448 -0.8514,-12.60562 0.21228,-12.57343c0.56296,0.01703 4.10781,17.0055 5.47826,18.65981c0.9567,1.15485 -0.18755,-13.08237 0.25722,-12.29764c2.5009,4.41238 2.59396,9.44099 5.23285,16.15165c1.95427,4.9697 2.85918,10.40912 2.80966,12.04557c-0.14531,4.80213 -4.11554,7.23952 -8.91766,7.09421c-4.80213,-0.14531 -6.07557,-4.65412 -5.93025,-9.45624z" fill="#f5b6e7" stroke="none" stroke-width="1" stroke-linecap="butt"/><g stroke-width="2" stroke-linecap="butt"><path d="M375.49511,180.55138c4.20958,-0.84953 5.09439,2.29104 5.94395,6.50065c0.84953,4.20958 1.2187,7.62739 -2.99091,8.47694c-4.20958,0.84953 -5.40855,-2.18102 -6.25808,-6.39062c-0.84953,-4.20958 -0.90456,-7.73744 3.30505,-8.58697z" fill="#ff7de3" stroke="#e461e3"/><path d="M344.36582,192.41791l29.51047,-12.20079c0,0 -0.75391,3.72495 0.16704,8.28834c0.92779,4.59731 3.21889,8.62538 3.21889,8.62538z" fill="#e6a843" stroke="#cb9134"/></g><path d="M423.03956,186.73172c0.04763,-1.57383 -0.17914,-4.93941 0.99646,-5.80718c0.85804,-0.63337 2.93357,0.99204 4.08226,1.0268c1.24482,0.03767 4.147,0.4984 4.99156,1.28578c1.00256,0.93467 -2.27399,1.45136 -2.3187,2.92905c-0.08239,2.72253 -1.10732,4.72275 -3.82985,4.64036c-1.01617,-0.03075 -4.06667,1.96953 -4.83533,1.41882c-1.29068,-0.92477 0.86195,-3.78731 0.91358,-5.49363z" fill="#ffe77d" stroke="none" stroke-width="0" stroke-linecap="butt"/><path d="M442.99938,179.90064c0.02393,-0.79091 -0.59089,-2.26123 -0.47911,-2.60522c0.32645,-1.00455 1.30614,0.62886 3.61583,0.69875c1.96518,0.05947 4.16246,-3.17605 4.94849,-1.96162c0.45413,0.70165 -1.34843,2.55061 -1.38279,3.68601c-0.05177,1.71096 2.4313,3.72107 1.20518,4.31545c-0.99586,0.48276 -3.02208,-0.05976 -4.41173,-0.10181c-3.10059,-0.09382 -3.58971,-0.93098 -3.49588,-4.03156z" fill="#7dff8c" stroke="none" stroke-width="1" stroke-linecap="butt"/><path d="M446.31733,180.6292c0,0 -7.2725,7.54862 -13.81761,7.35056c-7.43369,-0.22494 -14.15637,-8.19705 -14.15637,-8.19705" fill="none" stroke="#000000" stroke-width="3" stroke-linecap="round"/><path d="M446.32952,193.1727c-1.56296,1.66584 -4.41202,1.45126 -6.47314,-0.48257c-1.10842,-1.03998 -2.97029,-2.75752 -3.07199,-4.01897c-0.1114,-1.38186 1.53191,-1.35631 2.42677,-2.21673c0.91283,-0.87769 1.34531,-2.17688 2.75098,-2.33155c1.412,-0.15537 2.28044,1.33967 3.55417,2.53475c2.06111,1.93382 2.37613,4.84924 0.81316,6.51505z" fill="#ff1515" stroke="none" stroke-width="0" stroke-linecap="butt"/><g stroke-width="2" stroke-linecap="butt"><path d="M444.29841,196.62697c-0.50986,-4.26409 2.53359,-8.13416 6.79765,-8.64399c4.26407,-0.50986 8.13412,2.53358 8.64396,6.79765c0.50986,4.26409 -2.53357,8.13413 -6.79763,8.64399c-4.26407,0.50983 -8.13413,-2.53359 -8.64398,-6.79763z" fill="#ffe77d" stroke="#e3ce62"/><path d="M454.88021,232.06851l-10.45399,-30.34846c0,0 3.47559,1.94118 8.09806,1.38848c4.65682,-0.55682 8.20779,-2.67902 8.20779,-2.67902z" fill="#e6a843" stroke="#cb9134"/></g><path d="M410.55704,153.02939c0.16929,-5.59469 4.84193,-9.99284 10.43662,-9.82355c5.59469,0.16929 9.99284,4.84193 9.82355,10.43662c-0.16929,5.59469 -4.84193,9.99284 -10.43662,9.82355c-5.59469,-0.16929 -9.99284,-4.84193 -9.82355,-10.43662z" fill="#000000" stroke="none" stroke-width="0" stroke-linecap="butt"/><path d="M439.25895,153.89792c0.16929,-5.59468 4.84195,-9.99284 10.43662,-9.82355c5.59468,0.16929 9.99284,4.84195 9.82355,10.43662c-0.16929,5.59468 -4.84194,9.99284 -10.43661,9.82355c-5.59468,-0.16929 -9.99284,-4.84195 -9.82355,-10.43662z" fill="#000000" stroke="none" stroke-width="0" stroke-linecap="butt"/><path d="M374.73825,137.03152c0,0 -6.2994,-18.23597 0.85491,-28.25211c7.61059,-10.65492 29.17881,-12.78508 47.40594,-12.64175c17.53295,0.13785 32.04572,8.59367 36.84589,15.1912c9.50612,13.06558 -0.85491,28.25211 -0.85491,28.25211c0,0 -28.24784,-4.7534 -42.34563,-5.18c-13.98526,-0.4232 -41.9062,2.63053 -41.9062,2.63053z" fill="#ecc38e" stroke="none" stroke-width="NaN" stroke-linecap="butt"/><g stroke-width="1.5" stroke-linecap="butt"><path d="M416.51386,116.50793c0.25294,-8.35886 7.23418,-14.93001 15.59305,-14.67707c8.35886,0.25294 14.93002,7.23418 14.67708,15.59305c-0.25294,8.35886 -7.23419,14.93001 -15.59305,14.67707c-8.35886,-0.25294 -14.93001,-7.23418 -14.67707,-15.59305z" fill="#a5762b" stroke="#000000"/><g><path d="M436.02696,109.2421c1.76712,-1.11466 4.10328,-0.58571 5.21792,1.18139c1.11466,1.7671 0.5857,4.10326 -1.18139,5.21792c-1.76712,1.11466 -4.10326,0.58573 -5.21792,-1.18139c-1.11464,-1.76712 -0.58571,-4.10326 1.18139,-5.21792z" fill="#7dff8c" stroke="#62e374"/><path d="M422.66439,121.29426l11.15141,-10.93222c0,0 -0.12701,1.93259 1.08132,3.84824c1.2173,1.92988 2.89149,3.0469 2.89149,3.0469z" fill="#e6a843" stroke="#cb9134"/></g></g><path d="M378.17261,145.55353c0.12239,-4.04461 3.50041,-7.22419 7.54502,-7.1018c4.04461,0.12239 7.22419,3.50041 7.1018,7.54502c-0.12239,4.04461 -3.50041,7.22419 -7.54502,7.1018c-4.04461,-0.12239 -7.22419,-3.50041 -7.1018,-7.54502z" fill="#815100" stroke="none" stroke-width="0" stroke-linecap="butt"/><path d="M368.88918,144.80937c0.12239,-4.04461 3.50041,-7.22419 7.54502,-7.1018c4.04461,0.12239 7.22419,3.50041 7.1018,7.54502c-0.12239,4.04461 -3.50041,7.22419 -7.54502,7.1018c-4.04461,-0.12239 -7.22419,-3.50041 -7.1018,-7.54502z" fill="#815100" stroke="none" stroke-width="0" stroke-linecap="butt"/><path d="M367.26711,274.98867l-0.22263,7.35732" fill="none" stroke="#ffe77d" stroke-width="2" stroke-linecap="round"/><path d="M372.55914,283.86546l0.32259,-10.66061" fill="none" stroke="#ffe77d" stroke-width="2" stroke-linecap="round"/><path d="M352.32057,277.24157l0.14085,-4.65464" fill="none" stroke="#ff7de3" stroke-width="2" stroke-linecap="round"/><path d="M348.26178,272.30956l-0.19992,6.60658" fill="none" stroke="#ff7de3" stroke-width="2" stroke-linecap="round"/><path d="M377.16601,196.18723l0.14994,-4.95493" fill="none" stroke="#ff7de3" stroke-width="1" stroke-linecap="round"/><path d="M448.66893,197.2989l-0.29533,9.75972" fill="none" stroke="#ffe77d" stroke-width="2" stroke-linecap="round"/><path d="M456.08596,210.44802l0.44526,-14.71464" fill="none" stroke="#ffe77d" stroke-width="2" stroke-linecap="round"/><path d="M454.20174,198.21775l-0.2408,7.95791" fill="none" stroke="#ffe77d" stroke-width="2" stroke-linecap="round"/><path d="M425.37759,197.19524l0.209,-6.90687" fill="none" stroke="#ffe77d" stroke-width="2" stroke-linecap="round"/><path d="M422.25606,191.08932l-0.12722,4.20418" fill="none" stroke="#ffe77d" stroke-width="2" stroke-linecap="round"/><path d="M428.60778,189.77867l-0.08179,2.70268" fill="none" stroke="#ffe77d" stroke-width="2" stroke-linecap="round"/><path d="M449.31908,185.74649l0.07724,-2.55255" fill="none" stroke="#7dff8c" stroke-width="2" stroke-linecap="round"/><path d="M450.82945,180.53215l0.12722,-4.20418" fill="none" stroke="#7dff8c" stroke-width="2" stroke-linecap="round"/><path d="M447.2806,183.58078l-0.09995,3.30329" fill="none" stroke="#7dff8c" stroke-width="2" stroke-linecap="round"/></g><g data-paper-data="{&quot;index&quot;:null}"><path d="M8.99945,150.99385c0,0 1.78377,-33.94835 50.79227,-37.26639" fill="none" stroke="#717171" stroke-width="3" stroke-linecap="round"/><path d="M11.32793,151.39774c7.27297,-0.38789 13.67942,8.86986 14.30916,20.67777c0.62974,11.80791 -4.75569,21.69455 -12.02866,22.08244c-7.273,0.38789 -13.67942,-8.86987 -14.30916,-20.67778c-0.62974,-11.80791 4.75569,-21.69455 12.02866,-22.08243z" fill="#909090" stroke="#717171" stroke-width="2" stroke-linecap="butt"/><path d="M-7.78949,290.77033c0,0 -1.66683,-19.72499 10.01343,-27.69523c11.40403,-7.78175 62.40269,-20.24392 62.40269,-20.24392" data-paper-data="{&quot;origPos&quot;:null,&quot;index&quot;:null}" fill="none" stroke="#000000" stroke-width="5" stroke-linecap="round"/><path d="M-0.47231,347.8566l-4.1644,-78.08388l52.05592,-2.77627l4.1644,78.08388z" fill="#c7c7c7" stroke="#848484" stroke-width="1" stroke-linecap="butt"/><path d="M51.22212,345.09959l-4.1644,-78.08388c0,0 21.50319,-11.51455 21.51163,-11.29802c0.00577,0.14773 4.1644,78.08388 4.1644,78.08388z" fill="#c7c7c7" stroke="#848484" stroke-width="1" stroke-linecap="butt"/><path d="M-4.79662,269.43447c0.04994,0.1211 19.98622,-11.23244 19.98622,-11.23244c0,0 53.14435,-2.53763 53.23409,-2.55537c0.24414,-0.0483 -21.42529,11.73476 -21.42529,11.73476c0,0 -51.83183,1.96372 -51.79501,2.05305z" fill="#c7c7c7" stroke="#848484" stroke-width="1" stroke-linecap="butt"/><path d="M24.09185,328.75356c-12.14831,0.6479 -22.5217,-8.67503 -23.16959,-20.82334c-0.6479,-12.14831 8.67503,-22.52168 20.82334,-23.16956c12.14831,-0.6479 22.52167,8.67501 23.16956,20.82331c0.6479,12.14831 -8.67501,22.5217 -20.82331,23.16959z" fill="#949494" stroke="none" stroke-width="0" stroke-linecap="butt"/><path d="M24.09185,328.75353c-12.14831,0.6479 -22.5217,-8.67501 -23.16959,-20.82331c-0.6479,-12.14831 8.67503,-22.5217 20.82334,-23.16959c12.14831,-0.6479 22.52168,8.67503 23.16956,20.82334c0.6479,12.14831 -8.67501,22.52167 -20.82331,23.16956z" fill="none" stroke="#5de93a" stroke-width="2" stroke-linecap="butt"/><path d="M104.00635,453.66243l-30.6333,-83.02109l-7.78479,-145.96714" data-paper-data="{&quot;origPos&quot;:null}" fill="none" stroke="#000000" stroke-width="5" stroke-linecap="round"/><path d="M71.4648,367.61795l-21.48576,88.49779" fill="none" stroke="#000000" stroke-width="5" stroke-linecap="round"/><path d="M69.37775,242.5778c0,0 11.87283,15.98926 17.54215,25.41899c6.66048,11.0783 -29.07979,52.90476 -29.07979,52.90476" data-paper-data="{&quot;origPos&quot;:null}" fill="none" stroke="#000000" stroke-width="5" stroke-linecap="round"/><path d="M63.25391,230.03984c-30.30696,1.61634 -56.18592,-21.64201 -57.80227,-51.94896c-1.61634,-30.30696 21.64201,-56.18592 51.94896,-57.80227c30.30696,-1.61634 56.18592,21.64201 57.80227,51.94896c1.61634,30.30696 -21.64201,56.18592 -51.94896,57.80227z" data-paper-data="{&quot;origPos&quot;:null}" fill="#d4d4d4" stroke="#000000" stroke-width="5" stroke-linecap="butt"/><path d="M59.31684,172.59757c-5.77276,0.30787 -10.70208,-4.12229 -11.00996,-9.89505c-0.30787,-5.77276 4.12229,-10.70208 9.89505,-11.00996c5.77276,-0.30787 10.70208,4.12229 11.00996,9.89505c0.30787,5.77276 -4.12229,10.70208 -9.89505,11.00996z" data-paper-data="{&quot;origPos&quot;:null}" fill="#000000" stroke="none" stroke-width="0" stroke-linecap="butt"/><path d="M29.70143,174.17703c-5.77274,0.30787 -10.70208,-4.1223 -11.00996,-9.89505c-0.30787,-5.77274 4.1223,-10.70208 9.89505,-11.00996c5.77274,-0.30787 10.70208,4.1223 11.00996,9.89505c0.30787,5.77274 -4.1223,10.70208 -9.89505,11.00996z" data-paper-data="{&quot;origPos&quot;:null}" fill="#000000" stroke="none" stroke-width="0" stroke-linecap="butt"/><path d="M48.55222,155.39055l19.37408,-8.97433" data-paper-data="{&quot;origPos&quot;:null}" fill="none" stroke="#000000" stroke-width="3" stroke-linecap="round"/><path d="M22.00271,148.94139l15.42535,6.32429" data-paper-data="{&quot;origPos&quot;:null}" fill="none" stroke="#000000" stroke-width="3" stroke-linecap="round"/><path d="M108.33909,147.05554c7.27297,-0.38789 13.67942,8.86989 14.30917,20.67779c0.62974,11.80791 -4.75569,21.69455 -12.02866,22.08243c-7.273,0.38789 -13.67942,-8.86986 -14.30916,-20.67777c-0.62974,-11.80791 4.75569,-21.69457 12.02866,-22.08246z" fill="#909090" stroke="#717171" stroke-width="2" stroke-linecap="butt"/><path d="M59.54053,113.8156c41.60735,-2.81346 47.75872,31.80775 47.75872,31.80775" fill="none" stroke="#717171" stroke-width="3" stroke-linecap="round"/><path d="M111.88761,155.93459c3.73025,-0.19895 7.04665,5.12362 7.40743,11.88824c0.36077,6.76464 -2.37071,12.40973 -6.10096,12.60867c-3.73025,0.19895 -7.04665,-5.12362 -7.40743,-11.88824c-0.36077,-6.76464 2.37071,-12.40973 6.10096,-12.60867z" fill="#6db86f" stroke="#538b53" stroke-width="2" stroke-linecap="butt"/><path d="M23.62533,321.78006c-8.2421,0.43957 -15.27997,-5.88562 -15.71954,-14.12771c-0.43957,-8.2421 5.88562,-15.28 14.12771,-15.71956c8.2421,-0.43957 15.28,5.88563 15.71956,14.12774c0.43957,8.2421 -5.88563,15.27997 -14.12774,15.71954z" fill="none" stroke="#60f03c" stroke-width="2" stroke-linecap="butt"/><path d="M23.2255,314.28285c-4.25777,0.22707 -7.89344,-3.04043 -8.12051,-7.29819c-0.22707,-4.25777 3.04043,-7.89346 7.29819,-8.12053c4.25777,-0.22707 7.89346,3.04045 8.12054,7.29821c0.22707,4.25777 -3.04046,7.89344 -7.29821,8.12051z" fill="none" stroke="#65fc3f" stroke-width="2" stroke-linecap="butt"/><path d="M111.19485,190.8913c0,0 6.53678,58.28555 -1.91015,72.46261c-8.97194,15.05817 -50.94918,14.94631 -50.94918,14.94631" fill="none" stroke="#535353" stroke-width="3" stroke-linecap="round"/><path d="M57.14017,274.01362c1.19789,-0.06389 2.27834,1.93441 2.41321,4.4633c0.13487,2.52889 -0.72689,4.63078 -1.92479,4.69467c-1.19789,0.06389 -2.27834,-1.93442 -2.41321,-4.46331c-0.13487,-2.52889 0.72689,-4.63078 1.92479,-4.69467z" fill="#535353" stroke="none" stroke-width="0" stroke-linecap="butt"/><path d="M110.94581,188.48773c1.92996,-0.10293 3.54053,0.67682 3.59732,1.74163c0.05679,1.06481 -1.46171,2.01144 -3.39167,2.11437c-1.92996,0.10293 -3.54054,-0.67682 -3.59732,-1.74163c-0.05679,-1.06481 1.46171,-2.01144 3.39167,-2.11437z" fill="#535353" stroke="none" stroke-width="0" stroke-linecap="butt"/><path d="M40.99763,260.28032c0,0 13.171,-0.91887 19.54287,-1.10607c7.2192,-0.21206 7.95163,8.83304 1.57422,9.58687c-1.38455,0.16365 -4.47189,0.28376 -4.47189,0.28376" fill="none" stroke="#535353" stroke-width="3" stroke-linecap="round"/><g stroke="none" stroke-width="0" stroke-linecap="butt"><path d="M19.98909,266.56677l-0.54946,-10.30274l21.81287,1.14778c0,0 0.64099,1.82248 0.7013,2.95346c0.06031,1.13098 -0.39042,2.87573 -0.39042,2.87573z" fill="#6d6d6d"/><path d="M19.44684,266.59568c-2.91988,0.15573 -5.41317,-2.08508 -5.56889,-5.00496c-0.15573,-2.91988 2.08508,-5.41318 5.00496,-5.5689c2.91988,-0.15573 5.41318,2.08508 5.5689,5.00497c0.15573,2.91988 -2.08508,5.41317 -5.00497,5.56889z" fill="#474747"/></g><path d="M56.52999,264.39387c1.19791,-0.06389 2.27834,1.93441 2.41321,4.4633c0.13487,2.52889 -0.72687,4.63078 -1.92479,4.69467c-1.19791,0.06389 -2.27834,-1.93442 -2.41321,-4.46331c-0.13487,-2.52889 0.72687,-4.63077 1.92479,-4.69467z" fill="#535353" stroke="none" stroke-width="0" stroke-linecap="butt"/></g><g><path d="M282.19179,340.06922c0,0 6.30887,-1.12569 9.32977,-1.09677c2.96441,0.02839 8.62937,1.26874 8.62937,1.26874" data-paper-data="{&quot;index&quot;:null}" fill="none" stroke="#d77d00" stroke-width="2.5" stroke-linecap="round"/><path d="M265.96844,207.68915c-4.72575,-1.73896 -4.28174,-7.31072 -2.35676,-11.23435c-0.06527,-0.15658 -0.13148,-0.31223 -0.19871,-0.46647c-0.21731,-0.49833 -3.45733,-4.99857 -3.54652,-6.38508c-1.00412,-0.95753 -1.58693,-1.76426 -1.54789,-2.261c-0.21978,-0.46462 -0.34052,-0.9849 -0.33527,-1.53335c0.01794,-1.87363 1.4999,-3.39049 3.34909,-3.47457c0.14033,-0.02558 0.28666,-0.0332 0.43991,-0.02012c3.59586,0.30702 7.41242,5.94011 10.88872,7.53426c2.81507,1.29093 8.88847,0.39055 8.84653,4.77065c-0.03122,3.2601 -2.26448,4.1126 -5.33377,3.64179c-0.90981,1.25548 -2.60345,0.83955 -3.79557,1.7717c1.20797,4.52573 -0.33056,9.89355 -6.40971,7.65658z" fill="#51cc5f" stroke="none" stroke-width="0.5" stroke-linecap="butt"/><path d="M292.82191,189.85682l-1.50867,157.55153l-29.07753,90.84404" data-paper-data="{&quot;origPos&quot;:null}" fill="none" stroke="#000000" stroke-width="5" stroke-linecap="round"/><path d="M320.53062,438.34959l-27.30477,-94.28698" fill="none" stroke="#000000" stroke-width="5" stroke-linecap="round"/><path d="M236.92499,135.727c0.31324,-32.71219 27.08567,-58.97675 59.79786,-58.66351c32.71219,0.31324 58.97675,27.08567 58.66351,59.79786c-0.31324,32.71219 -27.08567,58.97675 -59.79786,58.66351c-32.71219,-0.31324 -58.97675,-27.08567 -58.66351,-59.79786z" data-paper-data="{&quot;origPos&quot;:null}" fill="#d4d4d4" stroke="#000000" stroke-width="5" stroke-linecap="butt"/><path d="M251.75247,160.84046c-1.55106,-1.58105 4.96172,-2.35071 3.68317,-4.49147c-2.518,-4.21606 -7.90759,-7.20907 -5.37641,-9.69222c1.51605,-1.48729 12.46523,-5.02315 14.26275,-4.78821c2.72744,0.35645 0.71183,7.25331 3.48793,10.08312c1.90656,1.94342 6.78736,2.17689 7.29998,4.48395c0.72571,3.26613 -1.84267,6.84415 -4.07925,9.0383c-1.58756,1.55744 -3.33757,9.01338 -5.59057,9.05084c-3.16303,0.0526 -10.9978,-10.94246 -13.68763,-13.68427z" fill="#82e48d" stroke="none" stroke-width="0" stroke-linecap="butt"/><path d="M304.20824,128.36999c-1.76293,4.48715 -9.08079,-7.76958 -12.19809,-3.32644c-6.13929,8.75047 -7.29608,22.11963 -14.47979,19.29726c-4.30271,-1.69047 -21.06006,-20.30367 -22.1909,-24.08416c-1.71588,-5.73623 13.77966,-7.86112 16.93499,-15.89232c2.16703,-5.51565 -1.70716,-15.42122 2.42133,-18.49025c5.84475,-4.3449 15.237,-2.42171 21.5846,0.07218c4.50565,1.77021 20.87589,-1.37932 22.9528,3.06403c2.91584,6.23816 -11.96767,31.57815 -15.02496,39.35972z" fill="#a3dcab" stroke="none" stroke-width="0" stroke-linecap="butt"/><path d="M285.94883,122.09263c0.05967,-6.2309 5.15917,-11.23367 11.39008,-11.17401c6.2309,0.05967 11.23367,5.15917 11.17401,11.39008c-0.05967,6.2309 -5.15917,11.23367 -11.39008,11.17401c-6.2309,-0.05967 -11.23367,-5.15917 -11.17401,-11.39008z" data-paper-data="{&quot;origPos&quot;:null}" fill="#000000" stroke="none" stroke-width="0" stroke-linecap="butt"/><path d="M317.91457,122.39873c0.05967,-6.23088 5.15919,-11.23367 11.39008,-11.17401c6.23088,0.05967 11.23367,5.15919 11.17401,11.39008c-0.05967,6.23088 -5.15919,11.23367 -11.39008,11.17401c-6.23088,-0.05967 -11.23367,-5.15919 -11.17401,-11.39008z" data-paper-data="{&quot;origPos&quot;:null}" fill="#000000" stroke="none" stroke-width="0" stroke-linecap="butt"/><path d="M289.58457,209.31475c0,0 -11.8562,50.64597 -21.79101,54.19163c-4.59169,1.63892 -9.88902,-0.56623 -17.28082,-1.67453c-9.01102,-1.35108 -12.75956,2.02006 -22.84271,-1.23244" data-paper-data="{&quot;origPos&quot;:null}" fill="none" stroke="#000000" stroke-width="5" stroke-linecap="round"/><path d="M352.52736,235.1371c0,0 -3.47437,0.88235 -6.17768,4.23382c-7.74205,9.59833 -21.01979,30.62206 -26.8288,27.89653c-14.17476,-6.65007 -24.80842,-57.90357 -24.80842,-57.90357" data-paper-data="{&quot;origPos&quot;:null,&quot;index&quot;:null}" fill="none" stroke="#000000" stroke-width="5" stroke-linecap="round"/><path d="M326.15693,101.10011c-0.03363,3.5117 -3.54533,3.47807 -3.54533,3.47807l-4.68228,-0.04484c-5.91585,-0.05991 -13.33953,0.79956 -18.55533,-2.78461c-5.27958,-3.628 -6.99387,-12.13472 -13.59028,-9.90863c0,0 -3.42607,0.77159 -4.19763,-2.65448c-0.77159,-3.42607 2.65448,-4.19763 2.65448,-4.19763c2.19908,-0.36896 4.42883,-1.62662 6.59726,-1.10691c5.46268,1.30927 8.1518,8.87087 12.39218,11.99705c3.57784,2.63772 10.82019,1.59632 14.76659,1.63184l4.68227,0.04484c0,0 3.5117,0.03363 3.47807,3.54533z" fill="#51cc5f" stroke="none" stroke-width="0.5" stroke-linecap="butt"/><path d="M268.43474,156.24464c-3.415,0.81908 -4.23411,-2.59592 -4.23411,-2.59592l-0.68656,-3.0264c-4.99435,-8.3647 -14.89913,-16.45475 -11.20644,-27.24295c0.70776,-2.06776 2.45013,-3.6198 3.6752,-5.42968c0,0 2.01719,-2.87474 4.89194,-0.85756c2.87474,2.01718 0.85755,4.89194 0.85755,4.89194c-7.2793,9.88379 3.14818,17.1296 8.29627,26.01264l1.00203,4.01382c0,0 0.81908,3.415 -2.59592,4.23411z" fill="#51cc5f" stroke="none" stroke-width="0.5" stroke-linecap="butt"/><path d="M286.03871,181.34539c-2.89619,1.98627 -4.88245,-0.90989 -4.88245,-0.90989l-2.30918,-3.45258c-2.21849,-7.97141 -1.33964,-12.46857 2.99964,-19.41892c0,0 1.86912,-2.97315 4.84225,-1.10402c2.97315,1.86911 1.10402,4.84225 1.10402,4.84225c-2.99432,4.72509 -4.0614,7.23088 -2.57616,12.72124l1.73176,2.43948c0,0 1.98627,2.89618 -0.90989,4.88245z" fill="#51cc5f" stroke="none" stroke-width="0.5" stroke-linecap="butt"/><path d="M254.21529,100.52938c-3.42777,-0.76393 -2.66384,-4.1917 -2.66384,-4.1917l1.03109,-2.93856c7.9323,-9.63762 18.21677,-13.13947 30.16826,-15.83966c0,0 3.42606,-0.77159 4.19763,2.65448c0.77159,3.42607 -2.65448,4.19763 -2.65448,4.19763c-10.23989,2.2983 -19.59009,5.01557 -26.25288,13.40762l0.36588,0.04638c0,0 -0.76393,3.42777 -4.1917,2.66385z" fill="#51cc5f" stroke="none" stroke-width="0.5" stroke-linecap="butt"/><path d="M240.52738,169.22934c-3.11438,1.62288 -4.73728,-1.4915 -4.73728,-1.4915l-2.48253,-4.82761c-1.84861,-8.35795 -1.10574,-13.48023 4.65672,-19.91702c0,0 2.35819,-2.60233 4.96052,-0.24416c2.60233,2.35819 0.24416,4.96053 0.24416,4.96053c-3.92146,4.26176 -4.57922,7.10934 -3.26581,12.786l2.11568,3.99648c0,0 1.62288,3.11439 -1.4915,4.73728z" fill="#51cc5f" stroke="none" stroke-width="0.5" stroke-linecap="butt"/><path d="M339.73047,94.50954c-2.76318,2.16748 -4.93068,-0.5957 -4.93068,-0.5957l-0.98961,-1.27701c-4.02737,-4.43731 -7.7971,-7.36858 -13.0414,-10.25115c0,0 -3.07602,-1.6945 -1.38151,-4.77052c1.6945,-3.07602 4.77053,-1.38151 4.77053,-1.38151c5.89615,3.25472 10.2963,6.69623 14.84484,11.67336l1.32349,1.67182c0,0 2.16748,2.76318 -0.5957,4.93068z" fill="#51cc5f" stroke="none" stroke-width="0.5" stroke-linecap="butt"/><g stroke-linecap="butt"><path d="M312.82282,335.41437l0.94598,-98.7899c0,0 25.71417,-1.76063 38.46461,-1.63854c12.62239,0.12087 37.65773,2.36746 37.65773,2.36746l-0.94598,98.7899z" fill="#e1e1e1" stroke="none" stroke-width="0"/><text transform="translate(317.31298,255.17668) rotate(0.54863) scale(0.45436,0.45436)" font-size="40" xml:space="preserve" fill="#000000" fill-rule="nonzero" stroke="none" stroke-width="1" stroke-linecap="butt" stroke-linejoin="miter" stroke-miterlimit="10" stroke-dasharray="" stroke-dashoffset="0" font-family="Marker" font-weight="normal" text-anchor="start" style="mix-blend-mode: normal"><tspan x="0" dy="0">Missing</tspan></text><text transform="translate(315.03708,314.0367) rotate(0.54863) scale(0.26739,0.26739)" font-size="40" xml:space="preserve" fill="#000000" fill-rule="nonzero" stroke="#000000" stroke-width="2" stroke-linecap="butt" stroke-linejoin="miter" stroke-miterlimit="10" stroke-dasharray="" stroke-dashoffset="0" font-family="Handwriting" font-weight="normal" text-anchor="start" style="mix-blend-mode: normal"><tspan x="0" dy="0">Has anyone seen</tspan><tspan x="0" dy="46.150000000000006px">my pirate hat?</tspan></text><path d="M320.86222,297.6896l0.32163,-33.58766l59.75229,0.57217l-0.32163,33.58766z" fill="none" stroke="#3e3e3e" stroke-width="0.5"/><g stroke="none" stroke-width="0"><path d="M377.93249,280.0079c-0.04646,4.85212 -11.74248,13.15851 -26.803,13.01429c-15.06049,-0.14422 -27.19177,-8.3695 -27.1453,-13.22162c0.04646,-4.85212 12.08514,-4.49528 27.14563,-4.35106c15.06049,0.14422 26.84911,-0.29378 26.80265,4.55834z" data-paper-data="{&quot;origPos&quot;:null}" fill="#47270e"/><path d="M338.1779,284.69762l2.82967,-14.90965c0,0 6.34697,0.79299 9.98392,0.82782c4.29228,0.0411 10.33382,-0.63326 10.33382,-0.63326l2.37572,14.95949c0,0 -7.94527,1.0222 -13.02394,0.97357c-4.88206,-0.04675 -12.49917,-1.21797 -12.49917,-1.21797z" data-paper-data="{&quot;origPos&quot;:null}" fill="#201206"/><path d="M361.40517,270.40429c-0.01162,1.21303 -4.60689,2.15245 -10.26384,2.09828c-5.65695,-0.05417 -10.23339,-1.08143 -10.22178,-2.29444c0.01162,-1.21303 4.60688,-2.15245 10.26384,-2.09828c5.65695,0.05417 10.23339,1.08143 10.22178,2.29444z" data-paper-data="{&quot;origPos&quot;:null}" fill="#201206"/><path d="M350.08627,275.77173c0.01798,-1.87777 1.66973,-3.38433 3.68932,-3.36499c2.01958,0.01934 3.64219,1.55725 3.6242,3.43502c-0.01798,1.87777 -1.66978,3.38436 -3.68932,3.36502c-2.01958,-0.01934 -3.64219,-1.55725 -3.6242,-3.43505z" data-paper-data="{&quot;origPos&quot;:null}" fill="#ffffff"/><path d="M354.30443,274.99031c0.00603,-0.62923 0.47888,-1.13488 1.05618,-1.12935c0.5773,0.00553 1.04039,0.52015 1.03436,1.14937c-0.00603,0.62923 -0.47888,1.13488 -1.05618,1.12935c-0.5773,-0.00553 -1.04039,-0.52015 -1.03436,-1.14937z" data-paper-data="{&quot;origPos&quot;:null}" fill="#000000"/><path d="M351.73619,274.96572c0.00603,-0.62923 0.47893,-1.13488 1.05618,-1.12935c0.5773,0.00553 1.04039,0.52015 1.03436,1.14937c-0.00603,0.62923 -0.47888,1.13488 -1.05618,1.12935c-0.5773,-0.00553 -1.04039,-0.52015 -1.03436,-1.14937z" data-paper-data="{&quot;origPos&quot;:null}" fill="#000000"/><path d="M351.37238,281.76651l0.02743,-2.86468c0,0 1.40512,0.66458 2.27529,0.67292c0.97136,0.0093 2.44333,-0.62773 2.44333,-0.62773l-0.02743,2.86468z" data-paper-data="{&quot;origPos&quot;:null}" fill="#ffffff"/></g></g><path d="M210.58887,242.01222c0.14773,-15.42753 12.77394,-27.81423 28.20148,-27.6665c15.42753,0.14773 27.81423,12.77394 27.6665,28.20148c-0.14773,15.42753 -12.6759,17.57664 -28.10342,17.42891c-15.42753,-0.14773 -27.91226,-2.53635 -27.76453,-17.96389z" fill="#82e48d" stroke="none" stroke-width="0" stroke-linecap="butt"/><path d="M220.24665,241.55946c0.09823,-10.25808 8.49369,-18.4943 18.75179,-18.39607c10.25808,0.09823 18.4943,8.49369 18.39607,18.75179c-0.09823,10.25808 -8.4285,11.68709 -18.6866,11.58886c-10.25808,-0.09823 -18.55948,-1.68648 -18.46125,-11.94458z" fill="#13cc29" stroke="none" stroke-width="0" stroke-linecap="butt"/><path d="M253.60992,224.72614c0.00851,-0.88849 0.73568,-1.60186 1.62416,-1.59335c0.88849,0.00851 1.60186,0.73568 1.59335,1.62416c-0.00851,0.88849 -0.73567,1.60186 -1.62416,1.59335c-0.88849,-0.00851 -1.60186,-0.73567 -1.59335,-1.62416z" fill="#13cc29" stroke="none" stroke-width="0.5" stroke-linecap="butt"/><path d="M216.44531,226.12543c0.00851,-0.88849 0.73568,-1.60186 1.62416,-1.59335c0.88849,0.00851 1.60186,0.73568 1.59335,1.62416c-0.00851,0.88849 -0.73567,1.60186 -1.62416,1.59335c-0.88849,-0.00851 -1.60186,-0.73567 -1.59335,-1.62416z" fill="#13cc29" stroke="none" stroke-width="0.5" stroke-linecap="butt"/><path d="M218.54444,251.30305c0.00851,-0.88849 0.73567,-1.60186 1.62416,-1.59335c0.88849,0.00851 1.60186,0.73567 1.59335,1.62416c-0.00851,0.88849 -0.73568,1.60186 -1.62416,1.59335c-0.88849,-0.00851 -1.60186,-0.73568 -1.59335,-1.62416z" fill="#13cc29" stroke="none" stroke-width="0.5" stroke-linecap="butt"/><path d="M228.75121,254.61863c0.00851,-0.88849 0.73567,-1.60186 1.62416,-1.59335c0.88849,0.00851 1.60186,0.73568 1.59335,1.62416c-0.00851,0.88849 -0.73568,1.60186 -1.62416,1.59335c-0.88849,-0.00851 -1.60186,-0.73567 -1.59335,-1.62416z" fill="#13cc29" stroke="none" stroke-width="0.5" stroke-linecap="butt"/><path d="M261.04972,242.05663c0.00851,-0.88849 0.73567,-1.60186 1.62416,-1.59335c0.88849,0.00851 1.60186,0.73567 1.59335,1.62416c-0.00851,0.88849 -0.73568,1.60186 -1.62416,1.59335c-0.88849,-0.00851 -1.60186,-0.73567 -1.59335,-1.62416z" fill="#13cc29" stroke="none" stroke-width="0.5" stroke-linecap="butt"/><path d="M243.30791,231.35568c0.00851,-0.88849 0.73568,-1.60186 1.62416,-1.59335c0.88849,0.00851 1.60186,0.73567 1.59335,1.62416c-0.00851,0.88849 -0.73567,1.60186 -1.62416,1.59335c-0.88849,-0.00851 -1.60186,-0.73567 -1.59335,-1.62416z" fill="#15eb2e" stroke="none" stroke-width="0.5" stroke-linecap="butt"/><path d="M227.10543,243.19422c0.00851,-0.88849 0.73567,-1.60186 1.62416,-1.59335c0.88849,0.00851 1.60186,0.73567 1.59335,1.62416c-0.00851,0.88849 -0.73567,1.60186 -1.62416,1.59335c-0.88849,-0.00851 -1.60186,-0.73567 -1.59335,-1.62416z" fill="#15eb2e" stroke="none" stroke-width="0.5" stroke-linecap="butt"/><path d="M245.221,245.41537c0.00851,-0.88849 0.73567,-1.60186 1.62416,-1.59335c0.88849,0.00851 1.60186,0.73567 1.59335,1.62416c-0.00851,0.88849 -0.73567,1.60186 -1.62416,1.59335c-0.88849,-0.00851 -1.60186,-0.73567 -1.59335,-1.62416z" fill="#15eb2e" stroke="none" stroke-width="0.5" stroke-linecap="butt"/><path d="M234.82535,231.27445c0.00851,-0.88849 0.73567,-1.60186 1.62416,-1.59335c0.88849,0.00851 1.60186,0.73567 1.59335,1.62416c-0.00851,0.88849 -0.73568,1.60186 -1.62416,1.59335c-0.88849,-0.00851 -1.60186,-0.73567 -1.59335,-1.62416z" fill="#15eb2e" stroke="none" stroke-width="0.5" stroke-linecap="butt"/><path d="M254.07837,264.68465l0.06932,-7.23944" fill="none" stroke="#82e48d" stroke-width="3" stroke-linecap="round"/><path d="M215.25264,244.80482l-0.1656,17.29422" fill="none" stroke="#82e48d" stroke-width="3" stroke-linecap="round"/><path d="M234.83096,258.46693l-0.12517,13.07121" fill="none" stroke="#82e48d" stroke-width="3" stroke-linecap="round"/><path d="M242.55346,250.09413l-0.06547,6.83724" fill="none" stroke="#13cc29" stroke-width="3" stroke-linecap="round"/><path d="M224.82818,252.94112l0.0674,-7.03834" fill="none" stroke="#13cc29" stroke-width="3" stroke-linecap="round"/><path d="M245.99629,226.59679l0.04814,-5.02738" fill="none" stroke="#82e48d" stroke-width="3" stroke-linecap="round"/><path d="M230.36668,220.61478l-0.13672,14.27779" fill="none" stroke="#82e48d" stroke-width="3" stroke-linecap="round"/><g stroke="none" stroke-width="0" stroke-linecap="butt"><path d="M275.35934,371.68744c-12.0769,17.86739 -15.66253,15.80589 -15.66253,15.80589l25.97186,-50.22134l5.9084,3.05551c0,0 -4.14082,13.49253 -16.21771,31.35994z" fill="#e8e8e8"/><path d="M292.58018,342.28638l-9.99883,-5.17088l1.7628,-3.40868l9.99883,5.17088z" fill="#c75700"/><path d="M291.15378,337.80444l-3.86318,-1.99782l3.76063,-7.27187l3.86318,1.99782z" fill="#c75700"/></g><path d="M300.1228,341.58118c0,0 -5.68768,1.13162 -8.65209,1.10323c-3.02088,-0.02893 -9.30706,-1.27521 -9.30706,-1.27521" fill="none" stroke="#d77d00" stroke-width="2.5" stroke-linecap="round"/><path d="M286.59711,107.94441l21.32876,4.25207" fill="none" stroke="#000000" stroke-width="3.5" stroke-linecap="round"/><path d="M336.80242,109.4711l-16.90953,2.70992" fill="none" stroke="#000000" stroke-width="3.5" stroke-linecap="round"/></g><g data-paper-data="{&quot;index&quot;:null}"><path d="M204.39303,419.72934l-27.80864,-81.51332l-4.06411,-142.20821" data-paper-data="{&quot;origPos&quot;:null}" fill="none" stroke="#000000" stroke-width="5" stroke-linecap="round"/><path d="M174.80041,335.22846l-23.03311,85.58862" fill="none" stroke="#000000" stroke-width="5" stroke-linecap="round"/><path d="M175.77675,213.51851l34.95879,61.54056" data-paper-data="{&quot;origPos&quot;:null}" fill="none" stroke="#000000" stroke-width="5" stroke-linecap="round"/><path d="M171.14798,213.65079c0,0 -15.30149,38.19139 -22.85185,48.38418c-4.77343,6.44401 -18.07465,6.86563 -18.07465,6.86563" data-paper-data="{&quot;origPos&quot;:null,&quot;index&quot;:null}" fill="none" stroke="#000000" stroke-width="5" stroke-linecap="round"/><path d="M222.05454,146.18189c0.11731,4.10482 0.68318,8.39082 -0.08301,12.25528c-0.55444,2.79632 -2.2419,5.24046 -3.21571,7.86518c-1.95295,5.26376 -7.02862,8.39726 -10.449,12.73866c-2.49278,3.164 -3.02056,7.78848 -6.15841,10.32029c-3.16042,2.55004 -6.87804,6.26704 -10.57748,8.05366c-3.51101,1.69561 -6.98002,1.5018 -10.87498,2.40221c-1.96306,0.4538 -4.16267,-0.70512 -6.20437,-0.47333c-1.50313,0.17065 -2.83179,1.78439 -4.37159,1.8284c-2.59671,0.07421 -7.22548,1.53186 -9.73346,1.24544c-2.72792,-0.31151 -3.32577,-2.39895 -5.91704,-3.10717c-4.29624,-1.17418 -11.09883,-2.79454 -14.89866,-4.94521c-3.37545,-1.91048 -3.80845,-4.25582 -6.68004,-6.83094c-4.41387,-3.95817 -5.00475,-8.88411 -7.91183,-14.11381c-2.01247,-3.62035 -6.78338,-7.26048 -7.91833,-11.3434c-0.66577,-2.39505 -3.08868,-3.29387 -3.41778,-5.8153c-0.23392,-1.79216 1.53952,-5.17864 1.48678,-7.02419c-0.07924,-2.77276 -1.05433,-7.28331 -0.72335,-9.9539c0.24825,-2.00308 1.71611,-2.19202 2.18061,-4.12225c0.81776,-3.39811 0.14539,-6.77224 1.58008,-9.88813c1.36964,-2.9746 4.82049,-5.705 6.69185,-8.35827c1.72125,-2.44045 4.72937,-10.20106 6.86333,-12.31987c2.30231,-2.28596 3.75962,1.09828 6.40534,-0.75206c2.92844,-2.04808 5.17913,-2.72827 8.47718,-4.16437c1.66005,-0.72285 4.23911,-2.44541 5.98301,-2.99755c2.56549,-0.81227 5.72275,0.36417 8.45214,-0.05064c2.1312,-0.32389 3.80461,-2.31986 6.0244,-2.3833c2.91742,-0.08338 5.90338,-1.14333 8.70678,-0.77342c2.93901,0.38781 5.68894,2.22711 8.46165,3.07442c4.7676,1.45692 12.41948,3.17136 16.52686,5.82754c5.54591,3.58647 7.23171,8.56683 11.11706,13.9083c3.13649,4.31195 3.7144,10.22762 5.45965,15.39131c1.66182,4.91688 4.56236,9.04814 4.71835,14.50644z" data-paper-data="{&quot;origPos&quot;:null}" fill="#635953" stroke="#000000" stroke-width="5" stroke-linecap="butt"/><path d="M167.67072,145.18822c-5.6241,0.16073 -10.31363,-4.2682 -10.47436,-9.89231c-0.16073,-5.6241 4.2682,-10.31363 9.89231,-10.47436c5.6241,-0.16073 10.31363,4.2682 10.47436,9.89231c0.16073,5.6241 -4.2682,10.31363 -9.89231,10.47436z" data-paper-data="{&quot;origPos&quot;:null}" fill="#ff743c" stroke="none" stroke-width="0" stroke-linecap="butt"/><path d="M138.81795,146.01279c-5.62408,0.16073 -10.31363,-4.26822 -10.47436,-9.89231c-0.16073,-5.62408 4.26822,-10.31363 9.89231,-10.47436c5.62408,-0.16073 10.31363,4.26822 10.47436,9.89231c0.16073,5.62408 -4.26822,10.31363 -9.89231,10.47436z" data-paper-data="{&quot;origPos&quot;:null}" fill="#ff743c" stroke="none" stroke-width="0" stroke-linecap="butt"/><path d="M176.67703,119.92168l-19.06612,8.26582" data-paper-data="{&quot;origPos&quot;:null}" fill="none" stroke="#ff4800" stroke-width="4.5" stroke-linecap="round"/><path d="M146.79046,127.79849l-14.85625,-6.52427" data-paper-data="{&quot;origPos&quot;:null}" fill="none" stroke="#ff4800" stroke-width="4.5" stroke-linecap="round"/><path d="M194.8367,112.80239l5.36913,2.8678l-2.10448,5.64941l5.43814,5.28282l-0.16816,4.68773" fill="none" stroke="#ff743c" stroke-width="2.5" stroke-linecap="round"/><path d="M184.94135,178.84746l-0.39682,-8.59919l4.83866,0.16385" fill="none" stroke="#ff743c" stroke-width="2.5" stroke-linecap="round"/><path d="M168.75213,183.23775l5.86505,-0.92294l0.19402,-3.7821l9.97921,0.31906" fill="none" stroke="#ff743c" stroke-width="2.5" stroke-linecap="round"/><path d="M183.26648,151.95596l4.32115,-2.08729l4.10557,6.22727l7.00353,-3.37246l6.46452,4.19606" fill="none" stroke="#ff743c" stroke-width="2.5" stroke-linecap="round"/><path d="M152.06926,106.92468l-1.55679,3.66999l-6.33946,-5.10599l-3.76911,5.54595l-3.36379,-1.41447" fill="none" stroke="#ff743c" stroke-width="2.5" stroke-linecap="round"/><path d="M125.15079,158.75293l3.22147,1.72067l-1.65165,5.6365l6.55936,2.22952l-0.53473,2.43228" fill="none" stroke="#ff743c" stroke-width="2.5" stroke-linecap="round"/><path d="M156.70565,163.44043l-1.59993,2.16059l-3.04465,-0.81935l-2.06138,1.87165" fill="none" stroke="#ff743c" stroke-width="2.5" stroke-linecap="round"/><path d="M133.22014,267.24959c-1.70327,0.17616 -3.46797,0.54448 -5.09871,0.3458c-1.17999,-0.14375 -2.24871,-0.76961 -3.37038,-1.0931c-2.24945,-0.64874 -3.70997,-2.66212 -5.62141,-3.9497c-1.39307,-0.9384 -3.33243,-1.01435 -4.48262,-2.24058c-1.15848,-1.23507 -2.81948,-2.66562 -3.67723,-4.14852c-0.81405,-1.40738 -0.84111,-2.8559 -1.33641,-4.44761c-0.24962,-0.80223 0.16404,-1.75286 0.00429,-2.59466c-0.1176,-0.61976 -0.82988,-1.12216 -0.89596,-1.7611c-0.11146,-1.07749 -0.86122,-2.95705 -0.81996,-4.00884c0.04488,-1.14403 0.89437,-1.45741 1.10844,-2.55691c0.35493,-1.82294 0.81761,-4.70196 1.59402,-6.34879c0.68968,-1.46289 1.65153,-1.71574 2.63322,-2.98975c1.50895,-1.95826 3.53898,-2.35683 5.62344,-3.72798c1.443,-0.94919 2.80862,-3.04605 4.47121,-3.6447c0.97526,-0.35117 1.27383,-1.38658 2.31211,-1.60168c0.73799,-0.15289 2.20123,0.47945 2.96702,0.40025c1.15054,-0.119 2.9959,-0.66446 4.1167,-0.6097c0.84065,0.04107 0.96475,0.64559 1.78183,0.77885c1.43843,0.23458 2.82063,-0.1497 4.16084,0.35019c1.27943,0.47722 2.5219,1.82745 3.68329,2.52328c1.06824,0.64001 4.38868,1.65005 5.33598,2.47166c1.02203,0.88643 -0.34001,1.59746 0.51152,2.6402c0.94253,1.1542 1.29523,2.06899 1.99474,3.39585c0.35209,0.66786 1.14842,1.68686 1.43215,2.39489c0.41738,1.04161 0.02616,2.39099 0.28336,3.51309c0.20083,0.87618 1.08274,1.51008 1.17801,2.43117c0.1252,1.21057 0.65862,2.41932 0.5918,3.59655c-0.07005,1.23416 -0.74955,2.43474 -1.01584,3.61403c-0.45787,2.02773 -0.93332,5.26281 -1.91038,7.05322c-1.31926,2.41748 -3.33794,3.27302 -5.4385,5.05445c-1.6957,1.43808 -4.13769,1.86198 -6.23075,2.74795c-1.99303,0.84362 -3.6209,2.17797 -5.88581,2.41223z" fill="#965252" stroke="#000000" stroke-width="2.5" stroke-linecap="butt"/><path d="M118.15817,233.29951l2.87585,0.95367l3.90713,-3.73715l3.92934,1.57097" fill="none" stroke="#eb2d00" stroke-width="2.5" stroke-linecap="round"/><path d="M140.77686,245.47178l-0.88718,-3.85909l-4.2842,-0.3955l1.67445,-4.83868" fill="none" stroke="#eb2d00" stroke-width="2.5" stroke-linecap="round"/><path d="M124.43493,258.11007l-4.01438,-4.54661l1.51183,-1.46751l-4.44319,-5.95865" fill="none" stroke="#eb2d00" stroke-width="2.5" stroke-linecap="round"/><path d="M133.67234,250.59511l0.50274,3.99957l7.68124,1.46375l-1.57466,3.79997" fill="none" stroke="#eb2d00" stroke-width="2.5" stroke-linecap="round"/><path d="M135.65717,229.43289l8.69037,0.52854l1.04613,4.89041l2.6171,0.96107" fill="none" stroke="#eb2d00" stroke-width="2.5" stroke-linecap="round"/><path d="M138.05631,236.85393c0,0 -2.70069,-1.53031 -3.03975,-3.43622c-0.22437,-1.2613 0.64131,-4.29618 0.49359,-6.89561c-0.2826,-4.97267 -5.88452,-6.4923 -5.88452,-6.4923l9.03823,-0.94627c0,0 0.9644,3.71252 0.78436,8.44413c-0.07883,2.07178 -1.9793,3.23929 -1.9473,4.35919c0.05892,2.06166 1.20285,4.6428 1.20285,4.6428z" fill="url(#color-3)" stroke="none" stroke-width="0" stroke-linecap="butt"/><path d="M116.5981,245.99741c0,0 0.99467,-2.64228 0.93576,-4.70392c-0.03201,-1.1199 -1.99605,-2.17695 -2.19307,-4.24085c-0.44995,-4.71359 0.30085,-8.47515 0.30085,-8.47515l9.07752,0.42854c0,0 -5.50598,1.83709 -5.50411,6.81778c0.00098,2.60362 1.03857,5.58413 0.88659,6.85617c-0.22964,1.92214 -2.83854,3.60419 -2.83854,3.60419z" data-paper-data="{&quot;index&quot;:null}" fill="url(#color-4)" stroke="none" stroke-width="0" stroke-linecap="butt"/><path d="M135.74871,254.77875c0,0 -2.70068,-1.53028 -3.03975,-3.4362c-0.22437,-1.2613 0.6413,-4.29618 0.49359,-6.89561c-0.28258,-4.97267 -5.88449,-6.49231 -5.88449,-6.49231l9.03823,-0.94627c0,0 0.96442,3.71254 0.78438,8.44414c-0.07883,2.07178 -1.9793,3.23927 -1.9473,4.35917c0.05892,2.06164 1.20287,4.6428 1.20287,4.6428z" fill="url(#color-5)" stroke="none" stroke-width="0" stroke-linecap="butt"/></g></g></g></svg>