<svg xmlns="http://www.w3.org/2000/svg" xmlns:xlink="http://www.w3.org/1999/xlink" version="1.1" width="21.88888" height="11.22222" viewBox="0,0,21.88888,11.22222"><g><g data-paper-data="{&quot;isPaintingLayer&quot;:true}" fill-rule="nonzero" stroke-linecap="butt" stroke-linejoin="miter" stroke-miterlimit="10" stroke-dasharray="" stroke-dashoffset="0" style="mix-blend-mode: normal"><g data-paper-data="{&quot;origPos&quot;:null}"><path d="M234.44444,179.83333c0,-3.09893 2.51218,-5.61111 5.61111,-5.61111c3.09893,0 5.61111,2.51218 5.61111,5.61111c0,3.09893 -2.51218,5.61111 -5.61111,5.61111c-3.09893,0 -5.61111,-2.51218 -5.61111,-5.61111z" data-paper-data="{&quot;origPos&quot;:null}" stroke-width="NaN" fill="#3b77ff" stroke="none" transform="matrix(1,0,0,1,-223.77778,-174.22222)"/><path d="M223.77778,180.22222l14.44444,-5.66667l-0.11111,10.55556z" data-paper-data="{&quot;origPos&quot;:null}" stroke-width="0" fill="#3b77ff" stroke="none" transform="matrix(1,0,0,1,-223.77778,-174.22222)"/></g><g data-paper-data="{&quot;origPos&quot;:null}"><path d="M236.66743,179.84602c0,-1.80793 1.46562,-3.27355 3.27355,-3.27355c1.80793,0 3.27355,1.46562 3.27355,3.27355c0,1.80793 -1.46562,3.27355 -3.27355,3.27355c-1.80793,0 -3.27355,-1.46562 -3.27355,-3.27355z" data-paper-data="{&quot;origPos&quot;:null}" stroke-width="NaN" fill="#47f3ff" stroke="none" transform="matrix(1,0,0,1,-223.77778,-174.22222)"/><path d="M230.44445,180.0729l8.42695,-3.30596l-0.06482,6.15816z" data-paper-data="{&quot;origPos&quot;:null}" stroke-width="0" fill="#47f3ff" stroke="none" transform="matrix(1,0,0,1,-223.77778,-174.22222)"/></g></g></g></svg>