<svg version="1.1" xmlns="http://www.w3.org/2000/svg" xmlns:xlink="http://www.w3.org/1999/xlink" width="502" height="380.5833" viewBox="0,0,502,380.5833"><defs><radialGradient cx="235.50004" cy="330.62296" r="251" gradientUnits="userSpaceOnUse" id="color-1"><stop offset="0" stop-color="#85d6d6"/><stop offset="1" stop-color="#484848"/></radialGradient><linearGradient x1="239.50005" y1="-4" x2="239.50005" y2="89" gradientUnits="userSpaceOnUse" id="color-2"><stop offset="0" stop-color="#262626"/><stop offset="1" stop-color="#262626" stop-opacity="0"/></linearGradient><radialGradient cx="74.56821" cy="196.33642" r="18.83347" gradientUnits="userSpaceOnUse" id="color-3"><stop offset="0" stop-color="#c300cf"/><stop offset="1" stop-color="#c300cf" stop-opacity="0"/></radialGradient></defs><g transform="translate(17.06392,4)"><g data-paper-data="{&quot;isPaintingLayer&quot;:true}" fill-rule="nonzero" stroke-linejoin="miter" stroke-miterlimit="10" stroke-dasharray="" stroke-dashoffset="0" style="mix-blend-mode: normal"><path d="M-17.06392,364.81123v-368.53591h502v368.53591z" data-paper-data="{&quot;origPos&quot;:null}" fill="url(#color-1)" stroke="none" stroke-width="NaN" stroke-linecap="butt"/><g stroke="none" stroke-linecap="butt"><path d="M314.77078,315.81084c-0.70837,-6.86712 4.28429,-13.00827 11.15141,-13.71663c6.86712,-0.70837 13.00827,4.2843 13.71663,11.15142c0.70837,6.86712 -4.28429,13.00826 -11.15141,13.71663c-6.86712,0.70837 -13.00826,-4.28429 -13.71663,-11.15141z" fill="#7c7c7c" stroke-width="0"/><path d="M319.86976,297.0218c-0.83115,-8.05743 5.02689,-15.26304 13.08432,-16.09418c8.05743,-0.83115 15.26304,5.0269 16.09419,13.08433c0.83115,8.05743 -5.0269,15.26303 -13.08433,16.09418c-8.05743,0.83115 -15.26303,-5.0269 -16.09418,-13.08432z" fill="#7c7c7c" stroke-width="0"/><path d="M322.73323,279.30112c-0.90671,-8.78992 5.4839,-16.65059 14.27381,-17.5573c8.78992,-0.90671 16.65058,5.48389 17.55729,14.27381c0.90671,8.78992 -5.4839,16.65058 -14.27381,17.55729c-8.78992,0.90671 -16.65058,-5.48389 -17.55729,-14.2738z" fill="#7c7c7c" stroke-width="0"/><g fill="#ff7934"><path d="M326.9337,279.37159c-0.6942,-6.72978 4.1986,-12.7481 10.92838,-13.4423c6.72978,-0.6942 12.7481,4.1986 13.4423,10.92838c0.6942,6.72978 -4.19861,12.7481 -10.92839,13.4423c-6.72978,0.6942 -12.7481,-4.1986 -13.4423,-10.92838z" stroke-width="NaN"/><path d="M325.55708,295.26339c-0.5053,-4.89855 3.05613,-9.27923 7.95468,-9.78453c4.89855,-0.5053 9.27923,3.05613 9.78453,7.95467c0.5053,4.89855 -3.05613,9.27923 -7.95467,9.78453c-4.89855,0.5053 -9.27923,-3.05612 -9.78453,-7.95467z" stroke-width="NaN"/><path d="M324.03319,306.47895c-0.37307,-3.61669 2.25639,-6.85102 5.87307,-7.22409c3.61669,-0.37307 6.85102,2.25639 7.22409,5.87308c0.37307,3.61669 -2.25639,6.85102 -5.87307,7.2241c-3.61669,0.37307 -6.85102,-2.25639 -7.22409,-5.87308z" stroke-width="NaN"/></g><path d="M311.4389,332.23944c-0.57614,-5.58526 3.48456,-10.58005 9.06982,-11.15619c5.58526,-0.57614 10.58006,3.48456 11.1562,9.06982c0.57614,5.58526 -3.48456,10.58005 -9.06982,11.15619c-5.58526,0.57614 -10.58005,-3.48455 -11.15619,-9.06982z" fill="#7c7c7c" stroke-width="0"/><path d="M308.75973,345.24969c-0.4628,-4.48652 2.79907,-8.49874 7.28559,-8.96154c4.48652,-0.4628 8.49873,2.79907 8.96153,7.28559c0.4628,4.48652 -2.79907,8.49874 -7.28559,8.96154c-4.48652,0.4628 -8.49873,-2.79907 -8.96153,-7.28559z" fill="#7c7c7c" stroke-width="0"/><path d="M306.80166,355.50473c-0.34946,-3.38778 2.11358,-6.41741 5.50136,-6.76687c3.38778,-0.34946 6.41742,2.11358 6.76688,5.50136c0.34946,3.38778 -2.11359,6.41741 -5.50137,6.76687c-3.38778,0.34946 -6.41741,-2.11358 -6.76687,-5.50136z" fill="#7c7c7c" stroke-width="0"/></g><g stroke="none" stroke-linecap="butt"><path d="M359.51689,323.78283c-2.1068,-6.57423 1.51477,-13.6116 8.089,-15.7184c6.57423,-2.1068 13.6116,1.51477 15.7184,8.089c2.1068,6.57423 -1.51477,13.6116 -8.089,15.7184c-6.57423,2.1068 -13.6116,-1.51477 -15.7184,-8.089z" fill="#7c7c7c" stroke-width="0"/><path d="M360.63894,304.34656c-2.47197,-7.71377 1.77733,-15.97095 9.4911,-18.44293c7.71377,-2.47197 15.97094,1.77734 18.44292,9.49111c2.47197,7.71377 -1.77733,15.97094 -9.4911,18.44291c-7.71377,2.47197 -15.97094,-1.77733 -18.44292,-9.49109z" fill="#7c7c7c" stroke-width="0"/><path d="M359.79326,286.41594c-2.6967,-8.41501 1.93891,-17.42285 10.35393,-20.11955c8.41501,-2.6967 17.42285,1.93891 20.11955,10.35393c2.6967,8.41501 -1.93891,17.42285 -10.35393,20.11955c-8.41501,2.6967 -17.42285,-1.93891 -20.11955,-10.35393z" fill="#7c7c7c" stroke-width="0"/><g fill="#ff7934"><path d="M363.91829,285.62023c-2.06466,-6.44275 1.48447,-13.33936 7.92722,-15.40403c6.44275,-2.06466 13.33937,1.48447 15.40403,7.92722c2.06466,6.44275 -1.48448,13.33937 -7.92723,15.40403c-6.44275,2.06466 -13.33936,-1.48448 -15.40403,-7.92723z" stroke-width="NaN"/><path d="M365.84248,301.45506c-1.50285,-4.68962 1.08053,-9.7096 5.77015,-11.21245c4.68962,-1.50285 9.7096,1.08053 11.21245,5.77015c1.50285,4.68962 -1.08053,9.7096 -5.77015,11.21245c-4.68962,1.50285 -9.7096,-1.08053 -11.21245,-5.77015z" stroke-width="NaN"/><path d="M366.65996,312.74412c-1.10958,-3.46243 0.79778,-7.16878 4.26021,-8.27836c3.46243,-1.10958 7.16878,0.79778 8.27836,4.26021c1.10958,3.46243 -0.79778,7.16878 -4.26021,8.27836c-3.46243,1.10958 -7.16877,-0.79778 -8.27835,-4.26021z" stroke-width="NaN"/></g><path d="M359.63822,340.54545c-1.71353,-5.34704 1.23202,-11.07076 6.57906,-12.78429c5.34704,-1.71353 11.07076,1.23202 12.78429,6.57906c1.71353,5.34704 -1.23202,11.07076 -6.57906,12.78429c-5.34704,1.71353 -11.07076,-1.23202 -12.78429,-6.57906z" fill="#7c7c7c" stroke-width="0"/><path d="M359.69458,353.82857c-1.37644,-4.29516 0.98965,-8.89292 5.28481,-10.26936c4.29516,-1.37644 8.89292,0.98965 10.26936,5.28482c1.37644,4.29516 -0.98965,8.89291 -5.28481,10.26935c-4.29516,1.37644 -8.89292,-0.98965 -10.26936,-5.28481z" fill="#7c7c7c" stroke-width="0"/><path d="M359.88946,364.26706c-1.03936,-3.24329 0.74729,-6.71506 3.99058,-7.75442c3.24329,-1.03936 6.71506,0.7473 7.75441,3.99058c1.03936,3.24329 -0.74729,6.71506 -3.99058,7.75441c-3.24329,1.03936 -6.71506,-0.74729 -7.75441,-3.99057z" fill="#7c7c7c" stroke-width="0"/></g><path d="M-4.49998,89v-93h488v93z" fill="url(#color-2)" stroke="none" stroke-width="0" stroke-linecap="butt"/><g><path d="M377.9243,171.7357c0,0 -26.4439,-4.9968 -21.9673,-11.3339c6.0769,-8.6024 10.9277,-16.9905 10.9277,-16.9905" fill="none" stroke="#ea3c3c" stroke-width="6" stroke-linecap="round"/><path d="M375.7739,125.0371l-11.931,93.451l-23.6296,51.908" fill="none" stroke="#ea3c3c" stroke-width="6" stroke-linecap="round"/><path d="M374.8229,274.537l-9.61,-57.9017" fill="none" stroke="#ea3c3c" stroke-width="6" stroke-linecap="round"/><path d="M346.3726,88.9788c2.4773,-19.4031 20.2148,-33.1242 39.6179,-30.647c19.4031,2.4772 33.1242,20.2148 30.647,39.6179c-2.4772,19.4031 -20.2147,33.1242 -39.6178,30.647c-19.4031,-2.4773 -33.1243,-20.2148 -30.647,-39.6179z" fill="#cabf40" stroke="#ea3c3c" stroke-width="5.5" stroke-linecap="butt"/><path d="M406.1728,172.5197c0,0 -19.1053,1.3452 -22.0862,-6.5493c-3.4805,-9.2174 -8.5563,-29.2172 -8.5563,-29.2172" data-paper-data="{&quot;index&quot;:null}" fill="none" stroke="#ea3c3c" stroke-width="6" stroke-linecap="round"/><path d="M384.8721,85.3934l-13.0906,-7.2947" data-paper-data="{&quot;origRot&quot;:0}" fill="none" stroke="#82ffff" stroke-width="5.5" stroke-linecap="round"/><path d="M393.3375,86.1214l13.4621,-3.9048" data-paper-data="{&quot;origRot&quot;:0,&quot;index&quot;:null}" fill="none" stroke="#82ffff" stroke-width="5.5" stroke-linecap="round"/><path d="M374.5385,112.8003l4.304,-3.1159l15.9019,2.0302l3.5917,3.9867" fill="none" stroke="#000000" stroke-width="3" stroke-linecap="round"/><g data-paper-data="{&quot;index&quot;:null}"><path d="M406.65482,176.74227c-2.97183,-0.37941 -5.07337,-3.09612 -4.69396,-6.06795c0.37941,-2.97182 3.09612,-5.07337 6.06795,-4.69396c2.97183,0.37941 5.07337,3.09613 4.69395,6.06795c-0.37941,2.97182 -3.09612,5.07337 -6.06794,4.69396z" fill="#e23b3b" stroke="none" stroke-width="0" stroke-linecap="butt"/><path d="M411.3772,171.9941l2.1717,-11.4833" data-paper-data="{&quot;origPos&quot;:null}" fill="none" stroke="#e23b3b" stroke-width="2" stroke-linecap="round"/><path d="M408.9704,170.7549l1.2044,-11.6246" data-paper-data="{&quot;origPos&quot;:null,&quot;origRot&quot;:0}" fill="none" stroke="#e23b3b" stroke-width="2" stroke-linecap="round"/><path d="M406.2825,170.1404l0.159,-11.6858" data-paper-data="{&quot;origPos&quot;:null,&quot;origRot&quot;:0}" fill="none" stroke="#e23b3b" stroke-width="2" stroke-linecap="round"/><path d="M403.4703,171.3679l-0.6477,-11.6689" data-paper-data="{&quot;origPos&quot;:null,&quot;origRot&quot;:0}" fill="none" stroke="#e23b3b" stroke-width="2" stroke-linecap="round"/><path d="M403.6757,173.363l-4.6435,-6.0027" data-paper-data="{&quot;origPos&quot;:null}" fill="none" stroke="#e23b3b" stroke-width="2" stroke-linecap="round"/><path d="M407.84097,174.70627c-1.90452,-0.24316 -3.25133,-1.98417 -3.00818,-3.8887c0.24316,-1.90453 1.98419,-3.25134 3.88871,-3.00818c1.90452,0.24316 3.25132,1.98419 3.00817,3.88872c-0.24316,1.90453 -1.98418,3.25132 -3.8887,3.00816z" fill="#00ffe4" stroke="none" stroke-width="0" stroke-linecap="butt"/></g><path d="M363.99216,140.41222c0.6854,-5.36844 5.59301,-9.16481 10.96145,-8.47941c5.36844,0.68539 9.16481,5.59302 8.47941,10.96146c-0.6854,5.36844 -5.59301,9.16481 -10.96145,8.47941c-5.36844,-0.68539 -9.16481,-5.59302 -8.47941,-10.96145z" fill="#ca3434" stroke="none" stroke-width="0" stroke-linecap="butt"/><path d="M368.50906,140.77704c0.38999,-3.05466 3.18243,-5.2148 6.2371,-4.8248c3.05467,0.38999 5.2148,3.18243 4.82481,6.2371c-0.38999,3.05467 -3.18243,5.21481 -6.2371,4.82481c-3.05466,-0.38999 -5.21481,-3.18244 -4.82481,-6.2371z" fill="#00ffe4" stroke="none" stroke-width="0" stroke-linecap="butt"/><g><path d="M374.1957,158.7795l-0.7831,11.6606" data-paper-data="{&quot;origPos&quot;:null}" fill="none" stroke="#e23b3b" stroke-width="2" stroke-linecap="round"/><g><path d="M372.0966,170.15447c0.37941,-2.97182 3.09612,-5.07337 6.06795,-4.69396c2.97183,0.37941 5.07337,3.09612 4.69396,6.06795c-0.37941,2.97182 -3.09612,5.07337 -6.06795,4.69396c-2.97183,-0.37941 -5.07337,-3.09613 -4.69396,-6.06795z" data-paper-data="{&quot;origPos&quot;:null}" fill="#e23b3b" stroke="none" stroke-width="0" stroke-linecap="butt"/><path d="M376.0536,169.8453l1.7549,-11.5543" data-paper-data="{&quot;origPos&quot;:null,&quot;origRot&quot;:0}" fill="none" stroke="#e23b3b" stroke-width="2" stroke-linecap="round"/><path d="M381.5918,158.575l-2.7821,11.3508" data-paper-data="{&quot;origPos&quot;:null,&quot;origRot&quot;:0}" fill="none" stroke="#e23b3b" stroke-width="2" stroke-linecap="round"/><path d="M381.2232,171.8205l3.5588,-11.1318" data-paper-data="{&quot;origPos&quot;:null,&quot;origRot&quot;:0}" fill="none" stroke="#e23b3b" stroke-width="2" stroke-linecap="round"/><path d="M380.5231,173.7l6.0028,-4.6435" data-paper-data="{&quot;origPos&quot;:null}" fill="none" stroke="#e23b3b" stroke-width="2" stroke-linecap="round"/><path d="M374.6242,170.25375c0.24316,-1.90453 1.98418,-3.25133 3.8887,-3.00817c1.90452,0.24316 3.25133,1.98418 3.00818,3.8887c-0.24316,1.90453 -1.98419,3.25134 -3.88871,3.00818c-1.90452,-0.24316 -3.25132,-1.98419 -3.00817,-3.88871z" data-paper-data="{&quot;origPos&quot;:null}" fill="#00ffe4" stroke="none" stroke-width="0" stroke-linecap="butt"/></g></g></g><g><path d="M115.4499,126.104c-1.159,0.8353 7.8634,15.9834 7.8634,15.9834c0,0 -9.4949,-5.4614 -11.6484,-0.493c-2.1536,4.9683 2.7188,10.6176 2.7188,10.6176c0,0 -6.0384,-3.4044 -9.4524,-0.7571c-3.4138,2.6472 5.0178,17.5258 5.0178,17.5258c0,0 -8.6683,-9.1542 -13.9398,-12.5046c-3.509,-2.2302 -12.1269,-1.2123 -12.1269,-1.2123l-2.9971,-15.3815c0,0 15.9921,-6.6909 21.1075,-13.4757c4.5321,-6.0111 6.1674,-22.6802 6.1674,-22.6802l18.1733,24.0934c0,0 -9.1615,-2.9571 -10.8836,-1.7158z" data-paper-data="{&quot;origRot&quot;:0,&quot;index&quot;:null}" fill="#4be83c" stroke="#217d2a" stroke-width="1.5" stroke-linecap="butt"/><path d="M137.85268,152.6405c0,0 -8.9867,-6.7671 -11.3629,-6.0547c-1.599,0.4795 2.5743,20.656 2.5743,20.656c0,0 -8.3976,-9.6601 -12.6748,-4.9968c-4.2771,4.6634 -1.0559,12.7642 -1.0559,12.7642c0,0 -5.367,-6.0675 -10.1487,-4.449c-4.7818,1.6185 -1.1578,21.2715 -1.1578,21.2715c0,0 -6.0733,-13.4221 -10.614,-19.1368c-3.0225,-3.8041 -8.7656,-5.2537 -8.7656,-5.2537l-2.1878,-18.9542c0,0 20.812,-1.1735 29.0542,-6.7106c7.3023,-4.9058 15.4795,-22.6882 15.4795,-22.6882l10.8596,33.5523z" data-paper-data="{&quot;origRot&quot;:0,&quot;index&quot;:null}" fill="#4df33e" stroke="#248a2e" stroke-width="1.5" stroke-linecap="butt"/><path d="M119.7567,273.6149l-25.8605,-53.0268l-15.7499,-96.4238" data-paper-data="{&quot;index&quot;:null}" fill="none" stroke="#248a2e" stroke-width="5" stroke-linecap="round"/><path d="M93.92748,220.8242l-5.3932,57.8627" data-paper-data="{&quot;index&quot;:null}" fill="none" stroke="#248a2e" stroke-width="5" stroke-linecap="round"/><path d="M111.37508,174.4819l-29.4135,-38.6962" data-paper-data="{&quot;index&quot;:null}" fill="none" stroke="#248a2e" stroke-width="5" stroke-linecap="round"/><path d="M63.25098,182.3425l15.5721,-46.0441" data-paper-data="{&quot;index&quot;:null}" fill="none" stroke="#248a2e" stroke-width="5" stroke-linecap="round"/><path d="M33.92855,106.56772l8.68259,-0.7001l-3.90445,9.78212z" data-paper-data="{&quot;origRot&quot;:0,&quot;origPos&quot;:null}" fill="#e1e1e1" stroke="none" stroke-width="0" stroke-linecap="butt"/><path d="M48.04907,105.28212l8.59895,-1.39136l-3.11066,10.06271z" data-paper-data="{&quot;origRot&quot;:0,&quot;origPos&quot;:null}" fill="#e1e1e1" stroke="none" stroke-width="0" stroke-linecap="butt"/><path d="M61.13274,102.32781l8.59893,-1.39136l-3.11066,10.06271z" data-paper-data="{&quot;origRot&quot;:0,&quot;origPos&quot;:null}" fill="#e1e1e1" stroke="none" stroke-width="0" stroke-linecap="butt"/><path d="M59.22485,105.74496l6.15084,8.54994l-8.59473,1.41706z" data-paper-data="{&quot;origRot&quot;:0,&quot;origPos&quot;:null,&quot;index&quot;:null}" fill="#e1e1e1" stroke="none" stroke-width="0" stroke-linecap="butt"/><path d="M45.5304,108.96248l6.15085,8.54994l-8.59473,1.41705z" data-paper-data="{&quot;origRot&quot;:0,&quot;origPos&quot;:null,&quot;index&quot;:null}" fill="#e1e1e1" stroke="none" stroke-width="0" stroke-linecap="butt"/><path d="M107.31299,85.7275c3.2701,20.0204 -10.3086,38.901 -30.329,42.1711c-14.9867,2.448 -9.3446,0.2877 -22.6316,2.5856c-4.429,0.766 -11.3581,-4.7371 -15.4153,-6.6716c-9.4485,-4.5049 20.0079,-6.6686 29.9501,-9.9432c7.0004,-2.3058 6.8939,-14.2491 -0.4523,-13.6524c-12.4695,1.0129 -42.6924,11.1336 -38.0951,-0.5015c2.9833,-7.5501 -6.6652,-14.3185 -2.6333,-21.3646c10.2503,-17.9136 26.1385,-20.3716 46.5075,-23.6987c21.0554,-3.4392 29.6598,10.0198 33.099,31.0753z" data-paper-data="{&quot;origPos&quot;:null}" fill="#4df33e" stroke="#248a2e" stroke-width="3.5" stroke-linecap="butt"/><path d="M61.93706,87.58328c-3.8134,0.62288 -7.40972,-1.96354 -8.0326,-5.77695c-0.62288,-3.81341 1.96355,-7.40972 5.77695,-8.0326c3.81341,-0.62288 7.40972,1.96354 8.0326,5.77695c0.62288,3.81341 -1.96355,7.40972 -5.77695,8.0326z" data-paper-data="{&quot;origPos&quot;:null}" fill="#ee2424" stroke="none" stroke-width="0" stroke-linecap="butt"/><path d="M41.69165,91.1518c-3.81339,0.62288 -7.40972,-1.96356 -8.0326,-5.77695c-0.62288,-3.81339 1.96356,-7.40972 5.77695,-8.0326c3.81339,-0.62288 7.40972,1.96356 8.0326,5.77695c0.62288,3.81339 -1.96356,7.40972 -5.77695,8.0326z" data-paper-data="{&quot;origPos&quot;:null}" fill="#ee2424" stroke="none" stroke-width="0" stroke-linecap="butt"/><path d="M62.23138,70.3632l-10.1378,10.0446" data-paper-data="{&quot;origRot&quot;:0}" fill="none" stroke="#000000" stroke-width="3.5" stroke-linecap="round"/><path d="M48.27558,81.0314l-12.807,-6.2968" data-paper-data="{&quot;origRot&quot;:0,&quot;index&quot;:null}" fill="none" stroke="#000000" stroke-width="3.5" stroke-linecap="round"/></g><g><path d="M22.54998,204.4661c0,-22.3414 18.1113,-40.4527 40.4527,-40.4527c22.3414,0 40.4527,18.1113 40.4527,40.4527c0,22.3414 -18.1113,40.4527 -40.4527,40.4527c-22.3414,0 -40.4527,-18.1113 -40.4527,-40.4527z" fill="#d4d4d4" stroke="#000000" stroke-width="4.5" stroke-linecap="butt"/><path d="M48.73744,195.7672c0,-3.69815 3.41146,-5.97219 7.61969,-5.97219c4.20824,0 7.61969,2.27405 7.61969,5.97219c0,3.69815 -3.41146,5.97219 -7.61969,5.97219c-4.20824,0 -7.61969,-2.27405 -7.61969,-5.97219z" fill="#000000" stroke="none" stroke-width="0" stroke-linecap="butt"/><path d="M32.26238,195.9731c0,0 4.0548,-2.0594 6.1782,-2.0594c1.9862,0 6.1781,2.0594 6.1781,2.0594" fill="none" stroke="#000000" stroke-width="2.5" stroke-linecap="round"/><path d="M38.32828,220.6857h19.3581" fill="none" stroke="#000000" stroke-width="2.5" stroke-linecap="round"/><path d="M49.03698,220.6857h8.6494c0,0 -1.0121,8.4247 -4.7179,8.4247c-3.7058,0 -3.9315,-8.4247 -3.9315,-8.4247z" fill="#ff3434" stroke="#000000" stroke-width="2.5" stroke-linecap="butt"/><path d="M61.90148,242.2587v88.4159l-10.6401,43.2468" fill="none" stroke="#000000" stroke-width="4.5" stroke-linecap="round"/><path d="M72.26698,374.3333l-10.2969,-43.6587" fill="none" stroke="#000000" stroke-width="4.5" stroke-linecap="round"/><path d="M75.15008,234.7076c0,0 33.6526,-0.6899 34.0116,5.3084c0.6303,10.5299 -46.7797,14.8735 -46.7797,14.8735l-59.31,-12.7681" fill="none" stroke="#000000" stroke-width="4.5" stroke-linecap="round"/><path d="M18.72318,174.5738c0,0 55.5169,52.919 55.6032,60.1338c0.0956,7.9948 -55.6032,60.9576 -55.6032,60.9576" fill="none" stroke="#ffffff" stroke-width="3.5" stroke-linecap="round"/><path d="M21.60638,298.9602c0,0 -17.8651,-16.2135 -25.8179,-35.491c-3.4962,-8.475 8.5186,-18.6185 8.5186,-26.7022c0,-9.1669 -11.9872,-20.2994 -7.756,-30.3985c7.9871,-19.0643 25.0553,-35.0897 25.0553,-35.0897" fill="none" stroke="#ab5300" stroke-width="4.5" stroke-linecap="round"/><g><path d="M6.88678,234.1397h67.1408" fill="none" stroke="#ab5300" stroke-width="3.5" stroke-linecap="round"/><path d="M-9.44477,234.13973l24.79976,-8.28742l-6.04873,8.28742l6.04873,8.8054z" fill="#ffffff" stroke="none" stroke-width="0" stroke-linecap="butt"/><path d="M56.31348,232.73952l8.12258,-5.18534l17.6277,-0.07399l-8.03616,5.25933z" fill="#f1f1f1" stroke="none" stroke-width="0" stroke-linecap="butt"/><path d="M73.94118,235.53994l8.03616,5.25934l-17.62769,-0.074l-8.12258,-5.18534z" data-paper-data="{&quot;index&quot;:null}" fill="#f1f1f1" stroke="none" stroke-width="0" stroke-linecap="butt"/></g></g><g><path d="M193.00004,199.81093c0,38.30535 -33.23423,88.42757 -46.75128,88.73515c-12.59107,0.2865 -46.75127,-50.42979 -46.75127,-88.73515c0,-38.30535 20.93125,-49.9808 46.75127,-49.9808c25.82002,0 46.75128,11.67545 46.75128,49.9808z" fill="#663915" stroke="none" stroke-width="0" stroke-linecap="butt"/><path d="M101.2884,193.2192c0,-23.5536 19.094,-42.6476 42.6476,-42.6476c23.5536,0 42.6475,19.094 42.6475,42.6476c0,23.5536 -19.0939,42.6475 -42.6475,42.6475c-23.5536,0 -42.6476,-19.0939 -42.6476,-42.6475z" fill="#d4d4d4" stroke="#000000" stroke-width="4.5" stroke-linecap="butt"/><path d="M143.71578,324.6831v-86.8445" fill="none" stroke="#000000" stroke-width="4.5" stroke-linecap="round"/><path d="M129.8207,365.5l13.9896,-42.1196l13.8006,42.1196" fill="none" stroke="#000000" stroke-width="4.5" stroke-linecap="round"/><path d="M77.42448,251.0101c0,0 22.1982,7.7409 33.3636,9.5489c10.8758,1.761 33.0724,1.1619 33.0724,1.1619c0,0 4.977,7.6188 5.9691,15.3909c1.775,13.9044 2.4983,35.5578 2.4983,35.5578" fill="none" stroke="#000000" stroke-width="4.5" stroke-linecap="round"/><g><path d="M55.7916,197.79855c-0.80751,-10.37005 6.94446,-19.43124 17.3145,-20.23876c10.37005,-0.80751 19.43124,6.94446 20.23876,17.3145c0.80751,10.37005 -6.94446,19.43124 -17.3145,20.23876c-10.37005,0.80751 -19.43124,-6.94446 -20.23876,-17.3145z" fill="url(#color-3)" stroke="none" stroke-width="0" stroke-linecap="butt"/><path d="M68.17279,196.74227c-0.2708,-3.47757 2.32881,-6.51623 5.80639,-6.78703c3.47757,-0.2708 6.51623,2.32881 6.78703,5.80639c0.2708,3.47757 -2.32881,6.51623 -5.80639,6.78703c-3.47757,0.2708 -6.51623,-2.32881 -6.78703,-5.80639z" fill="#9400c7" stroke="none" stroke-width="0" stroke-linecap="butt"/><path d="M75.92729,210.7353l4.1389,53.1523" fill="none" stroke="#9f551d" stroke-width="4.5" stroke-linecap="round"/><path d="M83.28158,185.7503l1.2147,15.5991l-8.5241,9.9637l-10.5864,-9.0569l-1.1247,-14.4435" fill="none" stroke="#9f551d" stroke-width="4.5" stroke-linecap="round"/></g><path d="M58.05155,204.1446c0,-0.63002 -0.85326,-1.20003 -0.57396,-1.64758c0.25099,-0.40219 0.9966,-0.17416 1.7369,-0.14405c0.34851,0.01417 0.78511,-1.24231 1.15336,-1.24231c0.38911,0 0.71793,1.30109 1.06199,1.3749c0.77459,0.16619 1.5726,-0.59371 1.70382,0.06967c0.08126,0.41084 -0.49985,1.05621 -0.49985,1.54409c0,0.50392 1.20815,1.19429 0.68684,1.59215c-0.39765,0.30349 -1.48935,0.18731 -1.79464,0.49514c-0.58557,0.59045 -0.59006,1.21834 -1.15815,1.21834c-0.38072,0 -0.48727,-1.05089 -0.98874,-1.26591c-0.75981,-0.32581 -1.55183,0.09382 -1.8003,-0.29007c-0.36617,-0.56572 0.47275,-0.93991 0.47275,-1.70437z" fill="#b52ded" stroke="none" stroke-width="0" stroke-linecap="butt"/><path d="M78.16131,189.84967c-0.60425,-0.17837 -1.3925,0.4786 -1.74266,0.08403c-0.31469,-0.35459 0.11511,-1.00514 0.35359,-1.70662c0.11226,-0.33023 -0.96921,-1.1047 -0.86495,-1.45788c0.11016,-0.37319 1.45111,-0.3202 1.61931,-0.62928c0.37869,-0.69586 -0.12421,-1.67635 0.54918,-1.61439c0.41704,0.03839 0.87148,0.77843 1.3394,0.91656c0.4833,0.14267 1.48747,-0.82061 1.72147,-0.20799c0.17849,0.4673 -0.242,1.48145 -0.03319,1.8614c0.4005,0.72878 1.00144,0.91085 0.84061,1.4557c-0.10778,0.36515 -1.14583,0.16982 -1.49405,0.58989c-0.52759,0.63648 -0.34937,1.5149 -0.78789,1.64453c-0.64624,0.19103 -0.76762,-0.71951 -1.5008,-0.93594z" fill="#b52ded" stroke="none" stroke-width="0" stroke-linecap="butt"/><path d="M83.80674,205.88447c-0.51676,-0.3604 -1.47239,0.01339 -1.67971,-0.4717c-0.18632,-0.43594 0.42725,-0.91706 0.87543,-1.50705c0.21099,-0.27775 -0.56986,-1.35462 -0.35921,-1.65666c0.22258,-0.31915 1.47788,0.15542 1.73523,-0.08457c0.57941,-0.54028 0.41261,-1.62951 1.03179,-1.35766c0.38346,0.16837 0.5804,1.01419 0.98057,1.29327c0.41332,0.28826 1.67071,-0.30778 1.69882,0.34741c0.02146,0.49977 -0.69833,1.32875 -0.62047,1.75525c0.14932,0.81807 0.66176,1.18094 0.3368,1.64688c-0.21779,0.31228 -1.14069,-0.20148 -1.60393,0.08684c-0.70188,0.43685 -0.81075,1.32651 -1.26776,1.31073c-0.67349,-0.02327 -0.5005,-0.92543 -1.12754,-1.36273z" fill="#b52ded" stroke="none" stroke-width="0" stroke-linecap="butt"/><path d="M61.06081,188.08057c0.20683,-0.5951 -0.41201,-1.41364 -0.00127,-1.74469c0.36912,-0.29751 0.99855,0.16267 1.68793,0.43414c0.32453,0.12781 1.14943,-0.91572 1.49727,-0.79483c0.36753,0.12775 0.25101,1.46467 0.55177,1.64734c0.67711,0.41127 1.68034,-0.04454 1.58651,0.62515c-0.05813,0.41474 -0.81889,0.83358 -0.97905,1.29442c-0.16543,0.47599 0.74912,1.52473 0.12609,1.72939c-0.47525,0.15612 -1.46829,-0.31201 -1.85772,-0.12146c-0.74697,0.36548 -0.95733,0.9571 -1.49393,0.77061c-0.35962,-0.12499 -0.11527,-1.1526 -0.51836,-1.52034c-0.61074,-0.55719 -1.49663,-0.42084 -1.6053,-0.86501c-0.16016,-0.65458 0.75511,-0.73261 1.00608,-1.45471z" fill="#b52ded" stroke="none" stroke-width="0" stroke-linecap="butt"/><path d="M84.57009,177.49692c0.16441,-0.47309 -0.32753,-1.12378 -0.00101,-1.38695c0.29343,-0.2365 0.79379,0.12931 1.34183,0.34513c0.25799,0.1016 0.91374,-0.72795 1.19026,-0.63185c0.29217,0.10156 0.19954,1.16434 0.43863,1.30956c0.53827,0.32693 1.3358,-0.03542 1.26121,0.49696c-0.0462,0.32971 -0.65098,0.66266 -0.77831,1.02901c-0.13151,0.37839 0.59552,1.21209 0.10024,1.37478c-0.37779,0.12411 -1.16722,-0.24804 -1.47681,-0.09655c-0.5938,0.29054 -0.76104,0.76085 -1.18761,0.61259c-0.28587,-0.09936 -0.09163,-0.91626 -0.41207,-1.20861c-0.48552,-0.44294 -1.18975,-0.33455 -1.27614,-0.68765c-0.12731,-0.52036 0.60029,-0.58239 0.79979,-1.15642z" fill="#b52ded" stroke="none" stroke-width="0" stroke-linecap="butt"/><path d="M92.33182,207.56682c0.16441,-0.47309 -0.32753,-1.12378 -0.00101,-1.38695c0.29343,-0.2365 0.79379,0.12931 1.34183,0.34513c0.25799,0.1016 0.91374,-0.72795 1.19026,-0.63185c0.29217,0.10156 0.19954,1.16434 0.43863,1.30956c0.53827,0.32693 1.3358,-0.03542 1.26121,0.49696c-0.0462,0.32971 -0.65098,0.66266 -0.77831,1.02901c-0.13151,0.37839 0.59552,1.21209 0.10024,1.37478c-0.37779,0.12411 -1.16722,-0.24804 -1.47681,-0.09655c-0.5938,0.29054 -0.76104,0.76085 -1.18761,0.61259c-0.28587,-0.09936 -0.09163,-0.91626 -0.41207,-1.20861c-0.48552,-0.44294 -1.18975,-0.33455 -1.27614,-0.68765c-0.12731,-0.52036 0.60029,-0.58239 0.79979,-1.15642z" fill="#b52ded" stroke="none" stroke-width="0" stroke-linecap="butt"/><path d="M61.99052,216.14271c0.16441,-0.47309 -0.32753,-1.12378 -0.00101,-1.38695c0.29343,-0.2365 0.79379,0.12931 1.34183,0.34513c0.25799,0.1016 0.91374,-0.72795 1.19026,-0.63185c0.29217,0.10156 0.19954,1.16434 0.43863,1.30956c0.53827,0.32693 1.3358,-0.03542 1.26121,0.49696c-0.0462,0.32971 -0.65098,0.66266 -0.77831,1.02901c-0.13151,0.37839 0.59552,1.21209 0.10024,1.37478c-0.37779,0.12411 -1.16722,-0.24804 -1.47681,-0.09655c-0.5938,0.29054 -0.76104,0.76085 -1.18761,0.61259c-0.28587,-0.09936 -0.09163,-0.91626 -0.41207,-1.20861c-0.48552,-0.44294 -1.18975,-0.33455 -1.27614,-0.68765c-0.12731,-0.52036 0.60029,-0.58239 0.79979,-1.15642z" fill="#b52ded" stroke="none" stroke-width="0" stroke-linecap="butt"/><path d="M50.70075,184.01026c0.16441,-0.47309 -0.32753,-1.12378 -0.00101,-1.38695c0.29343,-0.2365 0.79379,0.12931 1.34183,0.34513c0.25799,0.1016 0.91374,-0.72795 1.19026,-0.63185c0.29217,0.10156 0.19954,1.16434 0.43863,1.30956c0.53827,0.32693 1.3358,-0.03542 1.26121,0.49696c-0.0462,0.32971 -0.65098,0.66266 -0.77831,1.02901c-0.13151,0.37839 0.59552,1.21209 0.10024,1.37478c-0.37779,0.12411 -1.16722,-0.24804 -1.47681,-0.09655c-0.5938,0.29054 -0.76104,0.76085 -1.18761,0.61259c-0.28587,-0.09936 -0.09163,-0.91626 -0.41207,-1.20861c-0.48552,-0.44294 -1.18975,-0.33455 -1.27614,-0.68765c-0.12731,-0.52036 0.60029,-0.58239 0.79979,-1.15642z" fill="#b52ded" stroke="none" stroke-width="0" stroke-linecap="butt"/><path d="M107.11085,190.59524c0,-3.98092 3.22718,-7.20809 7.20809,-7.20809c3.98092,0 7.20809,3.22717 7.20809,7.20809c0,3.98092 -3.22717,7.20809 -7.20809,7.20809c-3.98092,0 -7.20809,-3.22718 -7.20809,-7.20809z" fill="#000000" stroke="none" stroke-width="0" stroke-linecap="butt"/><path d="M126.04296,190.94262c0,-3.98092 3.22717,-7.20809 7.20809,-7.20809c3.98092,0 7.20809,3.22718 7.20809,7.20809c0,3.98092 -3.22718,7.20809 -7.20809,7.20809c-3.98092,0 -7.20809,-3.22718 -7.20809,-7.20809z" fill="#000000" stroke="none" stroke-width="0" stroke-linecap="butt"/><path d="M126.39032,214.39062c0,2.73388 -1.4775,4.95013 -3.30009,4.95013c-1.82259,0 -3.30009,-2.21624 -3.30009,-4.95013c0,-2.73388 1.4775,-4.95013 3.30009,-4.95013c1.82259,0 3.30009,2.21624 3.30009,4.95013z" fill="#000000" stroke="none" stroke-width="0" stroke-linecap="butt"/><path d="M108.50039,182.345c0,0 3.834,-0.8684 5.7317,-0.8684c2.1285,0 6.4265,0.8684 6.4265,0.8684" fill="none" stroke="#000000" stroke-width="2.5" stroke-linecap="round"/><path d="M127.25878,182.5187c0,0 3.834,-0.8684 5.7317,-0.8684c2.1285,0 6.4265,0.8684 6.4265,0.8684" fill="none" stroke="#000000" stroke-width="2.5" stroke-linecap="round"/><path d="M177.32669,224.59688c0,0 -3.02783,-20.35175 -3.93496,-31.36446c-0.47645,-5.78424 -2.61271,-17.07578 -8.24884,-23.66511c-7.34038,-8.58181 -20.72405,-11.77864 -20.72405,-11.77864c0,0 36.18925,5.13107 40.84791,14.08121c4.65866,8.95014 4.78744,20.03401 2.85346,32.87683c-1.93397,12.84282 -10.79353,19.85016 -10.79353,19.85016z" fill="#663915" stroke="none" stroke-width="0" stroke-linecap="butt"/><g stroke="none" stroke-width="0" stroke-linecap="butt"><path d="M104.07812,172.05396c0,0 19.32519,-33.55015 16.6741,-50.11943c-2.58227,-16.13918 -30.08391,-33.69188 -30.08391,-33.69188c0,0 45.1704,0.76875 66.11185,18.73323c17.18723,14.74395 31.58818,65.07806 31.58818,65.07806c0,0 -26.46838,-12.93089 -43.10295,-12.93089c-16.26077,0 -41.18727,12.93089 -41.18727,12.93089z" data-paper-data="{&quot;origPos&quot;:null}" fill="#9700ff"/><path d="M112.86889,106.1456l0.01502,-4.95119l-3.91863,-3.49222l4.7877,-0.29456l0.83583,-6.24756l4.02108,4.73898l4.05109,-2.58665l-2.1008,5.71072l3.13288,4.38908l-6.3132,-1.19958z" data-paper-data="{&quot;origPos&quot;:null,&quot;origRot&quot;:0}" fill="#fff300"/><path d="M136.53179,140.00936l3.05748,-4.67274l-1.55908,-5.71094l4.70844,2.66424l4.63049,-5.39412l0.88963,6.95292l5.42072,0.044l-5.4967,4.10896l0.26477,6.07608l-5.23261,-5.01481z" data-paper-data="{&quot;origPos&quot;:null,&quot;origRot&quot;:0}" fill="#fff300"/><path d="M163.0424,155.32021l-2.07016,-5.18626l-5.57091,-2.00266l4.88479,-2.32519l-1.75758,-6.88831l6.20334,3.26387l3.14849,-4.41284l0.20803,6.85959l5.12668,3.272l-7.11023,1.4047z" data-paper-data="{&quot;origPos&quot;:null,&quot;origRot&quot;:0}" fill="#fff300"/><path d="M131.80834,156.88656l-5.09238,-2.29141l-5.39797,2.43055l1.89743,-5.0663l-6.05022,-3.73267l6.72913,-1.96296l-0.80184,-5.36128l4.91584,4.78873l5.96047,-1.20901l-4.13748,5.9506z" data-paper-data="{&quot;origPos&quot;:null,&quot;origRot&quot;:0}" fill="#fff300"/><path d="M138.88071,105.75144l5.47969,1.0751l4.70496,-3.59289l-0.69733,5.36483l6.73981,2.2612l-6.10754,3.43983l1.99841,5.03912l-5.87489,-3.54723l-5.53019,2.53103l2.67803,-6.73474z" data-paper-data="{&quot;origPos&quot;:null,&quot;origRot&quot;:0}" fill="#fff300"/><path d="M128.30695,130.25568l-0.43249,-5.56739l-4.7222,-3.57021l5.35549,-0.76566l0.3726,-7.09923l4.95053,4.96251l4.31937,-3.27556l-1.84337,6.61056l3.92025,4.64977l-7.20605,-0.77556z" data-paper-data="{&quot;origPos&quot;:null,&quot;origRot&quot;:0}" fill="#fff300"/></g></g><text transform="translate(10.80413,45.88011) scale(1.10263,1.10263)" font-size="40" xml:space="preserve" fill="#db2121" fill-rule="nonzero" stroke="#e43434" stroke-width="2" stroke-linecap="butt" stroke-linejoin="miter" stroke-miterlimit="10" stroke-dasharray="" stroke-dashoffset="0" font-family="Serif" font-weight="normal" text-anchor="start" style="mix-blend-mode: normal"><tspan x="0" dy="0">TWO PLAYER BATTLE</tspan></text><g><path d="M386.396,314.7133c0,0 1.6368,-23.3615 3.1186,-29.3939c1.1109,-4.5226 4.9847,-11.0079 4.9847,-11.0079c0,0 19.3945,2.0187 28.4149,0.0707c8.1999,-1.7707 23.481,-11.2775 23.481,-11.2775" fill="none" stroke="#000000" stroke-width="4.5" stroke-linecap="round"/><path d="M387.34523,254.61225v-32.58778h70.01534v32.58778z" fill="#676767" stroke="none" stroke-width="0" stroke-linecap="butt"/><path d="M469.1373,238.3184c0,8.5227 -5.3448,15.4318 -11.9381,15.4318c-6.5932,0 -11.9381,-6.9091 -11.9381,-15.4318c0,-8.5228 5.3449,-15.4319 11.9381,-15.4319c6.5933,0 11.9381,6.9091 11.9381,15.4319z" fill="#4c4c4c" stroke="#676767" stroke-width="2.5" stroke-linecap="butt"/><path d="M360.7207,224.2234c0,-18.7043 15.1629,-33.8671 33.8672,-33.8671c18.7043,0 33.8672,15.1628 33.8672,33.8671c0,18.7043 -15.1629,33.8672 -33.8672,33.8672c-18.7043,0 -33.8672,-15.1629 -33.8672,-33.8672z" fill="#d4d4d4" stroke="#000000" stroke-width="4.5" stroke-linecap="butt"/><path d="M394.4131,334.4832v-75.1715" fill="none" stroke="#000000" stroke-width="4.5" stroke-linecap="round"/><path d="M384.0684,370l10.3447,-36.5513l10.3447,36.2065" fill="none" stroke="#000000" stroke-width="4.5" stroke-linecap="round"/><path d="M393.72346,218.27771c0,-3.42793 2.77889,-6.20682 6.20682,-6.20682c3.42793,0 6.20682,2.77889 6.20682,6.20682c0,3.42793 -2.77889,6.20682 -6.20682,6.20682c-3.42793,0 -6.20682,-2.77889 -6.20682,-6.20682z" fill="#000000" stroke="none" stroke-width="0" stroke-linecap="butt"/><path d="M409.58534,218.27771c0,-3.42793 2.77888,-6.20682 6.20682,-6.20682c3.42794,0 6.20682,2.77889 6.20682,6.20682c0,3.42793 -2.77888,6.20682 -6.20682,6.20682c-3.42794,0 -6.20682,-2.77889 -6.20682,-6.20682z" fill="#000000" stroke="none" stroke-width="0" stroke-linecap="butt"/><path d="M395.2117,244.2058c-5.7483,-2.3011 -0.3177,-9.4128 -0.3177,-9.4128l12.4849,4.9977c0,0 -6.4189,6.7161 -12.1672,4.4151z" fill="#ffffff" stroke="#000000" stroke-width="2.5" stroke-linecap="butt"/><path d="M394.2062,212.0709l11.1723,1.5172" fill="none" stroke="#000000" stroke-width="2.5" stroke-linecap="round"/><path d="M420.8955,211.933l-10.5516,1.5172" fill="none" stroke="#000000" stroke-width="2.5" stroke-linecap="round"/><path d="M439.20667,268.12932v-14.34465h7.17233v14.34465c0,0 -0.95227,0.74248 -2.62066,0.82758c-2.82203,0.14394 -4.55167,-0.82758 -4.55167,-0.82758z" fill="#676767" stroke="none" stroke-width="0" stroke-linecap="butt"/><path d="M454.32617,237.97412c0,-2.48919 1.13952,-4.99982 1.13952,-4.99982c0,0 5.19242,-3.71467 10.94164,-1.76262c4.52935,1.53786 9.91705,6.76244 9.91705,6.76244c0,0 -5.23606,5.35297 -9.81173,6.87549c-5.73329,1.90771 -11.04697,-1.52954 -11.04697,-1.52954c0,0 -1.13951,-2.85677 -1.13951,-5.34595z" fill="#e01b1b" stroke="none" stroke-width="0" stroke-linecap="butt"/><g fill="none" stroke="#676767" stroke-width="2.5"><path d="M456.42389,216.3812c0,3.3644 -2.2643,6.0919 -5.0575,6.0919c-2.7931,0 -5.0574,-2.7275 -5.0574,-6.0919c0,-3.3645 2.2643,-6.0919 5.0574,-6.0919c2.7932,0 5.0575,2.7274 5.0575,6.0919z" stroke-linecap="butt"/><path d="M451.8262,210.5192v12.1837" stroke-linecap="round"/><path d="M455.7342,216.4961h-9.1953" stroke-linecap="round"/></g><path d="M383.80531,185.12299c16.67704,-5.87754 37.9775,3.31321 41.8169,19.75646c-12.94416,0.28444 -22.28587,-2.49089 -34.64034,2.22659c-14.48654,5.53161 -24.86057,16.41288 -29.15146,31.99787c-7.1416,-9.22054 -10.8135,-42.42521 21.97489,-53.98093z" fill="#4da241" stroke="none" stroke-width="NaN" stroke-linecap="butt"/><path d="M397.3441,260.0971c0,0 -6.1867,-4.4973 -12.3692,-14.9686c-6.1825,-10.4712 -13.1477,-28.2492 -13.1477,-28.2492" fill="none" stroke="#4da241" stroke-width="2.5" stroke-linecap="round"/></g><g><path d="M312.8948,301.36c0,0 2.1637,-26.2678 6.1694,-34.7946c2.5764,-5.4842 9.2715,-16.0602 9.2715,-16.0602c0,0 21.5112,0.9687 33.9921,-9.2861c12.4809,-10.2547 11.9133,-28.4312 11.9133,-28.4312" fill="none" stroke="#000000" stroke-width="4.5" stroke-linecap="round"/><g data-paper-data="{&quot;origRot&quot;:0,&quot;index&quot;:null}" stroke="none" stroke-width="0" stroke-linecap="butt"><path d="M411.36595,185.29901l-1.81413,26.39345l-50.23377,3.93473l1.99765,-12.54285z" fill="#894c00"/><path d="M361.066,204.65219l-0.74932,10.90164l-89.27197,-6.3277l0.74932,-10.90164z" data-paper-data="{&quot;origPos&quot;:null}" fill="#8a8a8a"/><path d="M314.96835,195.90737l2.25321,8.51992l-38.13833,-2.70327l3.13412,-8.42633z" data-paper-data="{&quot;origPos&quot;:null}" fill="#894c00"/></g><path d="M288.03038,179.4114c0,-22.9877 18.3508,-41.6229 40.9876,-41.6229c22.6368,0 40.9876,18.6352 40.9876,41.6229c0,22.9877 -18.3508,41.6229 -40.9876,41.6229c-22.6368,0 -40.9876,-18.6352 -40.9876,-41.6229z" fill="#d4d4d4" stroke="#000000" stroke-width="4.5" stroke-linecap="butt"/><path d="M328.3357,222.3751v97.4717" fill="none" stroke="#000000" stroke-width="4.5" stroke-linecap="round"/><path d="M316.6507,367.3112l11.685,-47.0406l11.685,46.1931" fill="none" stroke="#000000" stroke-width="4.5" stroke-linecap="round"/><path d="M362.13874,178.24906c0,20.24556 -14.48019,36.65782 -32.34238,36.65782c-17.8622,0 -32.34238,-16.41226 -32.34238,-36.65782c0,-20.24556 14.48019,-36.65782 32.34238,-36.65782c17.8622,0 32.34238,16.41226 32.34238,36.65782z" fill="#da3a3a" stroke="none" stroke-width="0" stroke-linecap="butt"/><g><path d="M309.9736,172.95169c0,-4.447 3.54998,-8.052 7.9291,-8.052c4.37913,0 7.9291,3.60501 7.9291,8.052c0,4.447 -3.54998,8.052 -7.9291,8.052c-4.37913,0 -7.9291,-3.60501 -7.9291,-8.052z" fill="#000000" stroke="none" stroke-width="0" stroke-linecap="butt"/><path d="M313.31219,161.0856l14.6062,8.8996" fill="none" stroke="#000000" stroke-width="3.5" stroke-linecap="round"/></g><g data-paper-data="{&quot;index&quot;:null}"><path d="M341.69,180.57991c-4.37913,0 -7.9291,-3.60502 -7.9291,-8.052c0,-4.447 3.54999,-8.052 7.9291,-8.052c4.37913,0 7.9291,3.60502 7.9291,8.052c0,4.447 -3.54998,8.052 -7.9291,8.052z" fill="#000000" stroke="none" stroke-width="0" stroke-linecap="butt"/><path d="M347.53248,161.0856l-15.0236,8.8996" fill="none" stroke="#000000" stroke-width="3.5" stroke-linecap="round"/></g><path d="M351.7057,192.446c0,0 -11.9606,10.9257 -21.2834,11.0186c-9.3227,0.0928 -21.2833,-10.5948 -21.2833,-10.5948" fill="none" stroke="#000000" stroke-width="4.5" stroke-linecap="round"/><path d="M299.54058,168.5538l-12.5196,-6.7806" fill="none" stroke="#b6b6b6" stroke-width="2.5" stroke-linecap="round"/><path d="M370.4852,162.1969l-10.8504,7.2045" fill="none" stroke="#b6b6b6" stroke-width="2.5" stroke-linecap="round"/></g><g><path d="M188.5989,169.1592c0,-26.6473 21.602,-48.2493 48.2494,-48.2493c26.6473,0 48.2493,21.602 48.2493,48.2493c0,26.6474 -21.602,48.2494 -48.2493,48.2494c-26.6474,0 -48.2494,-21.602 -48.2494,-48.2494z" fill="#d4d4d4" stroke="#000000" stroke-width="4.5" stroke-linecap="butt"/><path d="M235.55388,217.9803v106.6029" fill="none" stroke="#000000" stroke-width="4.5" stroke-linecap="round"/><path d="M299.90869,210.6114c0,0 -19.3259,22.9738 -30.1156,28.8453c-9.4717,5.1543 -33.2567,6.5253 -33.2567,6.5253" fill="none" stroke="#000000" stroke-width="4.5" stroke-linecap="round"/><path d="M263.78414,177.87827c0,0 4.21157,-28.50594 -2.43972,-35.39702c-4.01421,-4.15892 -18.5782,2.52227 -22.32882,2.47386c-3.02002,-0.03896 -14.86367,-8.91375 -21.09175,-3.58567c-12.75516,10.91193 -3.30971,36.49697 -5.69353,37.27487c-6.86565,2.24045 -27.00925,3.23024 -27.00925,3.23024c0,0 0.21428,-7.53195 0.40653,-15.46041c0.12804,-5.28042 3.28969,-20.91069 7.72151,-27.03367c9.18621,-16.22315 26.6829,-21.94437 41.0551,-22.17805c12.1784,-1.61917 35.17807,6.56938 43.47823,17.42408c13.79041,18.0347 10.11561,43.42918 10.11561,43.42918z" fill="#3d3d3d" stroke="none" stroke-width="0" stroke-linecap="butt"/><path d="M163.03033,147.10454c-0.80508,-0.59119 -1.07369,-12.40926 -0.01898,-23.98798c1.11235,-12.21142 6.57912,-17.42762 6.57912,-17.42762l4.37161,28.95322l23.45344,5.11971c0,0 0.96278,3.62519 0.69047,5.94498c-0.2723,2.31978 -2.17106,6.66837 -2.17106,6.66837c0,0 -31.57983,-4.29791 -32.90459,-5.27068z" fill="#2d2d2d" stroke="none" stroke-width="0" stroke-linecap="butt"/><path d="M277.77394,150.49093c0,0 -1.28506,-3.89314 -1.48457,-5.73163c-0.19362,-1.78414 0.30469,-5.14112 0.30469,-5.14112l23.00196,-6.86909l2.18174,-29.19998c0,0 5.84359,4.79028 7.87117,16.88345c1.92254,11.4666 2.54348,23.27143 1.78514,23.92147c-1.24784,1.06964 -33.66014,6.1369 -33.66014,6.1369z" data-paper-data="{&quot;index&quot;:null}" fill="#2d2d2d" stroke="none" stroke-width="0" stroke-linecap="butt"/><g data-paper-data="{&quot;index&quot;:null}"><path d="M305.28801,193.86737l-17.61522,-0.04934l-4.65363,-106.5043c0,0 8.19125,11.73108 14.37025,28.43934c6.179,16.70827 7.89862,78.1143 7.89862,78.1143z" fill="#ffffff" stroke="#c2c2c2" stroke-width="0" stroke-linecap="butt"/><path d="M299.10299,226.0445l-1.7271,-28.0589" fill="none" stroke="#606060" stroke-width="6" stroke-linecap="round"/><path d="M312.4143,195.9821l-30.3346,0.3588" fill="none" stroke="#606060" stroke-width="6" stroke-linecap="round"/></g><path d="M221.1211,367.9631l14.4328,-46.8187l12.7297,46.6758" fill="none" stroke="#000000" stroke-width="4.5" stroke-linecap="round"/><path d="M214.42978,301.4861c0,0 5.5233,-26.0774 9.2608,-36.1331c2.9541,-7.9478 11.372,-19.379 11.372,-19.379" fill="none" stroke="#000000" stroke-width="4.5" stroke-linecap="round"/><g><path d="M217.37736,163.41537c0,-4.61234 3.73904,-8.35138 8.35138,-8.35138c4.61234,0 8.35138,3.73904 8.35138,8.35138c0,4.61234 -3.73904,8.35138 -8.35138,8.35138c-4.61234,0 -8.35138,-3.73904 -8.35138,-8.35138z" fill="#000000" stroke="none" stroke-width="0" stroke-linecap="butt"/><path d="M219.83369,150.1514l14.7377,8.3514" fill="none" stroke="#000000" stroke-width="2.5" stroke-linecap="round"/></g><g data-paper-data="{&quot;index&quot;:null}"><path d="M249.30913,171.2755c-4.61234,0 -8.35138,-3.73904 -8.35138,-8.35138c0,-4.61234 3.73904,-8.35138 8.35138,-8.35138c4.61234,0 8.35138,3.73904 8.35138,8.35138c0,4.61234 -3.73904,8.35138 -8.35138,8.35138z" fill="#000000" stroke="none" stroke-width="0" stroke-linecap="butt"/><path d="M240.46648,158.0115l14.7377,-8.3513" fill="none" stroke="#000000" stroke-width="2.5" stroke-linecap="round"/></g></g></g></g></svg>