<svg xmlns="http://www.w3.org/2000/svg" xmlns:xlink="http://www.w3.org/1999/xlink" version="1.1" width="95.66729736328125" height="158.9062957763672" viewBox="-1 -1 95.66729736328125 158.9062957763672"><g><g data-paper-data="{&quot;isPaintingLayer&quot;:true}" fill-rule="nonzero" stroke-linecap="none" stroke-linejoin="miter" stroke-miterlimit="10" stroke-dasharray="" stroke-dashoffset="0" font-family="none" font-weight="none" font-size="none" text-anchor="none" style="mix-blend-mode: normal"><path d="M 25.3453 49.4404 L 25.3453 116.7375 L 13.2976 155.6563 " data-paper-data="{&quot;origPos&quot;:null}" fill="none" stroke="#000000" stroke-width="4.5" stroke-linecap="round"/><path d="M 26.1484 115.3008 L 38.196 155.4595 " fill="none" stroke="#000000" stroke-width="4.5" stroke-linecap="round"/><path d="M 1.25 26.55 C 1.25 12.5772 12.5772 1.25 26.55 1.25 C 40.5228 1.25 51.85 12.5772 51.85 26.55 C 51.85 40.5228 40.5228 51.85 26.55 51.85 C 12.5772 51.85 1.25 40.5228 1.25 26.55 Z " data-paper-data="{&quot;origPos&quot;:null}" fill="#d4d4d4" stroke="#000000" stroke-width="2.5" stroke-linecap="butt"/><path d="M238.40157,109.34922c0,-2.66149 2.15756,-4.81905 4.81905,-4.81905c2.66149,0 4.81905,2.15756 4.81905,4.81905c0,2.66149 -2.15756,4.81905 -4.81905,4.81905c-2.66149,0 -4.81905,-2.15756 -4.81905,-4.81905z" data-paper-data="{&quot;origPos&quot;:null}" fill="#000000" stroke="none" stroke-width="0" stroke-linecap="butt" transform="matrix(1,0,0,1,-216.26903,-88.82302)"/><path d="M252.05554,109.34922c0,-2.66148 2.15757,-4.81905 4.81905,-4.81905c2.66148,0 4.81905,2.15757 4.81905,4.81905c0,2.66148 -2.15757,4.81905 -4.81905,4.81905c-2.66148,0 -4.81905,-2.15757 -4.81905,-4.81905z" data-paper-data="{&quot;origPos&quot;:null}" fill="#000000" stroke="none" stroke-width="0" stroke-linecap="butt" transform="matrix(1,0,0,1,-216.26903,-88.82302)"/><path d="M 22.3516 13.5199 L 31.4786 17.1706 " data-paper-data="{&quot;origPos&quot;:null}" fill="none" stroke="#000000" stroke-width="2.5" stroke-linecap="round"/><path d="M 36.5897 16.8405 L 43.5262 13.5548 " data-paper-data="{&quot;origPos&quot;:null}" fill="none" stroke="#000000" stroke-width="2.5" stroke-linecap="round"/><path d="M 14.5437 85.9357 C 14.5437 85.9357 12.5568 78.0058 14.6134 71.9061 C 16.2637 67.0115 24.0421 57.7643 24.0421 57.7643 " data-paper-data="{&quot;origPos&quot;:null}" fill="none" stroke="#000000" stroke-width="4.5" stroke-linecap="round"/><path d="M 36.331 84.1357 L 26.2325 57.7643 " data-paper-data="{&quot;origPos&quot;:null,&quot;index&quot;:null}" fill="none" stroke="#000000" stroke-width="4.5" stroke-linecap="round"/><g data-paper-data="{&quot;origPos&quot;:null}" stroke-linecap="butt"><path d="M 14.9428 94.0791 L 14.9428 84.8791 L 35.7428 84.8791 L 35.7428 94.0791 Z " data-paper-data="{&quot;origPos&quot;:null}" fill="none" stroke="#676767" stroke-width="3"/><g data-paper-data="{&quot;origPos&quot;:null}"><path d="M 40.4173 117.6805 L 40.4173 96.0138 L 92.4173 96.0138 L 92.4173 117.6805 Z " data-paper-data="{&quot;origPos&quot;:null}" fill="#cccccc" stroke="#7f7f7f" stroke-width="2"/><path d="M258.5907,200.12636v-2.125h49.625v2.125z" data-paper-data="{&quot;origPos&quot;:null}" fill="#7f7f7f" stroke="none" stroke-width="0" transform="matrix(1,0,0,1,-216.26903,-88.82302)"/><path d="M258.5907,192.87636v-2.125h49.625v2.125z" data-paper-data="{&quot;origPos&quot;:null}" fill="#7f7f7f" stroke="none" stroke-width="0" transform="matrix(1,0,0,1,-216.26903,-88.82302)"/><path d="M 10.4173 122.3472 L 10.4173 92.0138 L 40.7506 92.0138 L 40.7506 122.3472 Z " data-paper-data="{&quot;origPos&quot;:null}" fill="#9e9e9e" stroke="#676767" stroke-width="3"/></g></g><path d="M 42.4309 31.9857 C 42.4309 31.9857 43.4785 36.266 39.1953 37.7693 C 34.912 39.2726 30.0065 38.8312 26.7986 37.4723 C 23.5907 36.1134 24.0437 31.3509 24.0437 31.3509 Z " data-paper-data="{&quot;origPos&quot;:null,&quot;index&quot;:null,&quot;origRot&quot;:0}" fill="#ffffff" stroke="#000000" stroke-width="2" stroke-linecap="butt"/><g data-paper-data="{&quot;origPos&quot;:null,&quot;origRot&quot;:0}" stroke-linecap="butt"><path d="M 53.0418 29.1799 C 53.5096 30.3959 53.5039 31.5298 53.0292 31.7124 C 52.5544 31.8951 51.7903 31.0573 51.3225 29.8413 C 50.8547 28.6253 50.8604 27.4914 51.3352 27.3088 C 51.81 27.1262 52.5741 27.9639 53.0418 29.1799 Z " data-paper-data="{&quot;origPos&quot;:null}" fill="#332000" stroke="#ffa200" stroke-width="0.5"/><path d="M254.37245,124.85803l-0.86,-2.23566l13.73638,-6.51149c0,0 0.1048,1.59183 0.41454,2.39702c0.37611,0.97773 1.34286,2.1715 1.34286,2.1715z" data-paper-data="{&quot;origPos&quot;:null}" fill="#ffa200" stroke="#000000" stroke-width="0" transform="matrix(1,0,0,1,-216.26903,-88.82302)"/></g></g></g></svg>