<svg xmlns="http://www.w3.org/2000/svg" xmlns:xlink="http://www.w3.org/1999/xlink" version="1.1" width="62.65503" height="153.74607" viewBox="0,0,62.65503,153.74607"><defs><radialGradient cx="259.97435" cy="104.31236" r="12.31452" gradientUnits="userSpaceOnUse" id="color-1"><stop offset="0" stop-color="#ff0000"/><stop offset="1" stop-color="#730000"/></radialGradient><radialGradient cx="49.5905" cy="13.0645" r="12.3145" gradientUnits="userSpaceOnUse" id="color-1-,0,0,1,-210.38385,-91.24784"><stop offset="0" stop-color="#ff0000"/><stop offset="1" stop-color="#730000"/></radialGradient></defs><g><g data-paper-data="{&quot;isPaintingLayer&quot;:true}" fill-rule="nonzero" stroke-linecap="none" stroke-linejoin="miter" stroke-miterlimit="10" stroke-dasharray="" stroke-dashoffset="0" font-family="none" font-weight="none" font-size="none" text-anchor="none" style="mix-blend-mode: normal"><path d="M 28.1758 26.0548 C 26.6545 25.3357 22.8574 22.36 22.3462 20.7569 C 21.2572 17.3418 25.4793 13.6541 25.4793 13.6541 " data-paper-data="{&quot;origPos&quot;:null}" fill="none" stroke="#0300ff" stroke-width="2" stroke-linecap="round"/><path d="M 17.4558 150.9429 L 29.5034 112.0241 " data-paper-data="{&quot;origPos&quot;:null}" fill="none" stroke="#3f3f3f" stroke-width="5" stroke-linecap="round"/><path d="M 44.3542 151.2461 L 32.3066 111.0873 " data-paper-data="{&quot;origPos&quot;:null}" fill="#ffc000" stroke="#3f3f3f" stroke-width="5" stroke-linecap="round"/><path d="M 29.0336 45.8842 L 13.3351 75.4556 " data-paper-data="{&quot;origPos&quot;:null}" fill="#ffc000" stroke="#3f3f3f" stroke-width="5" stroke-linecap="round"/><path d="M 47.2558 75.4556 L 31.5574 45.8842 " data-paper-data="{&quot;origPos&quot;:null,&quot;index&quot;:null}" fill="#ffc000" stroke="#3f3f3f" stroke-width="5" stroke-linecap="round"/><path d="M 30.646 109.3207 L 30.646 18.4874 " data-paper-data="{&quot;origPos&quot;:null}" fill="none" stroke="#3f3f3f" stroke-width="5" stroke-linecap="round"/><path d="M 26.896 29.7247 C 26.896 29.7247 16.6132 36.1819 10.1696 35.0231 C 5.6816 34.216 0.8998 28.9597 1.0016 24.4009 C 1.0965 20.15 7.146 14.6541 7.146 14.6541 " data-paper-data="{&quot;origPos&quot;:null}" fill="none" stroke="#ff0000" stroke-width="2" stroke-linecap="round"/><g data-paper-data="{&quot;origPos&quot;:null,&quot;origRot&quot;:0}" stroke-linecap="butt"><path d="M246.11438,123.84758l0.96672,-6.31304l4.61337,0.70645l-0.96672,6.31304z" data-paper-data="{&quot;origPos&quot;:null}" fill="#f7ff00" stroke-width="0" stroke="none" transform="matrix(1,0,0,1,-210.38385,-91.24784)"/><path d="M236.65797,123.39352l1.23939,-8.09364l11.3311,1.73514l-1.23939,8.09364z" data-paper-data="{&quot;origPos&quot;:null}" fill="#068400" stroke-width="0" stroke="none" transform="matrix(1,0,0,1,-210.38385,-91.24784)"/></g><g data-paper-data="{&quot;origPos&quot;:null}" stroke-linecap="butt"><path d="M212.33819,109.91096v-9.91169l46.61496,-8.52299v25.7923z" data-paper-data="{&quot;origPos&quot;:null}" fill="#3f3f3f" stroke="none" stroke-width="0" transform="matrix(1,0,0,1,-210.38385,-91.24784)"/><path d="M 37.276 13.0645 C 37.276 6.2634 42.7894 0.75 49.5905 0.75 C 56.3916 0.75 61.905 6.2634 61.905 13.0645 C 61.905 19.8656 56.3916 25.379 49.5905 25.379 C 42.7894 25.379 37.276 19.8656 37.276 13.0645 Z " data-paper-data="{&quot;origPos&quot;:null}" fill="url(#color-1-,0,0,1,-210.38385,-91.24784)" stroke="#3f3f3f" stroke-width="1.5"/></g></g></g></svg>