<svg xmlns="http://www.w3.org/2000/svg" xmlns:xlink="http://www.w3.org/1999/xlink" version="1.1" width="50.59041" height="50.59041" viewBox="0,0,50.59041,50.59041"><g><g data-paper-data="{&quot;isPaintingLayer&quot;:true}" fill-rule="nonzero" stroke-linecap="none" stroke-linejoin="miter" stroke-miterlimit="10" stroke-dasharray="" stroke-dashoffset="0" font-family="none" font-weight="none" font-size="none" text-anchor="none" style="mix-blend-mode: normal"><path d="M 1.7678 25.3233 L 25.2671 1.7678 L 48.8227 25.2671 L 25.3233 48.8226 Z " data-paper-data="{&quot;origPos&quot;:null,&quot;origRot&quot;:0}" fill="#98deff" stroke="#0057cc" stroke-width="2.5" stroke-linecap="butt"/><g data-paper-data="{&quot;origPos&quot;:null,&quot;origRot&quot;:0}" stroke-linecap="butt"><path d="M230.30175,192.25383l-0.05465,-16.58616l5.18808,-1.43331l2.43836,15.92761z" stroke-width="0" fill="#000000" stroke="none" transform="matrix(1,0,0,1,-214.6048,-154.60479)"/><path d="M235.51703,179.72035l-1.43331,-5.18808l16.40553,-4.53238l1.43331,5.18808z" stroke-width="0" fill="#000000" stroke="none" transform="matrix(1,0,0,1,-214.6048,-154.60479)"/><path d="M230.02832,178.9729l-1.20088,-4.34677l18.36859,-5.0747l1.20088,4.34677z" stroke-width="0" fill="#000000" stroke="none" transform="matrix(1,0,0,1,-214.6048,-154.60479)"/></g><g data-paper-data="{&quot;origPos&quot;:null}" stroke-linecap="round"><path d="M 30.7619 27.2952 L 34.4119 23.1452 L 37.9119 27.2452 " stroke-width="2.5" fill="none" stroke="#ff0000"/><path d="M 34.3619 23.8952 L 34.3619 38.5952 " stroke-width="2.5" fill="none" stroke="#ff0000"/></g><g data-paper-data="{&quot;origPos&quot;:null}" stroke-linecap="round"><path d="M 9.4952 20.4285 L 13.1452 16.2785 L 16.6452 20.3785 " stroke-width="2.5" fill="none" stroke="#ff0000"/><path d="M 13.0952 17.0285 L 13.0952 31.7285 " stroke-width="2.5" fill="none" stroke="#ff0000"/></g><g data-paper-data="{&quot;origPos&quot;:null}" stroke-linecap="round"><path d="M 23.3619 10.4952 L 27.0119 6.3452 L 30.5119 10.4452 " stroke-width="2.5" fill="none" stroke="#ff0000"/><path d="M 26.9619 7.0952 L 26.9619 21.7952 " stroke-width="2.5" fill="none" stroke="#ff0000"/></g></g></g></svg>