<svg xmlns="http://www.w3.org/2000/svg" xmlns:xlink="http://www.w3.org/1999/xlink" version="1.1" width="16.68662" height="13.28467" viewBox="0,0,16.68662,13.28467"><g><g data-paper-data="{&quot;isPaintingLayer&quot;:true}" fill-rule="nonzero" stroke-linecap="butt" stroke-linejoin="miter" stroke-miterlimit="10" stroke-dasharray="" stroke-dashoffset="0" style="mix-blend-mode: normal"><path d="M238.57832,182.79372c0,0 -0.81329,-1.98869 -0.81329,-3.00785c0,-1.11644 0.81329,-3.42561 0.81329,-3.42561l6.42504,-3.25851l-0.39556,2.48192l5.2033,-0.72772l-1.38184,2.32335l6.02239,2.52283l-6.12206,2.53715l1.44894,2.86688l-5.66942,-1.40629l0.7316,2.68655z" fill="#ffec7f" stroke-width="0" stroke="none" transform="matrix(1,0,0,1,-237.76503,-173.10175)"/><path d="M239.2169,182.24309c0,0 -0.68244,-1.62433 -0.68244,-2.45677c0,-0.91189 0.68244,-2.798 0.68244,-2.798l5.03799,-2.66151l-0.33192,2.0272l4.5074,-0.59439l-1.1595,1.89768l5.26535,2.06062l-5.34898,2.0723l1.21581,2.34163l-4.89852,-1.14864l0.61388,2.19434z" fill="#ffc14e" stroke-width="0" stroke="none" transform="matrix(1,0,0,1,-237.76503,-173.10175)"/></g></g></svg>