<svg xmlns="http://www.w3.org/2000/svg" xmlns:xlink="http://www.w3.org/1999/xlink" version="1.1" width="12.38004" height="48.00406" viewBox="0,0,12.38004,48.00406"><g><g data-paper-data="{&quot;isPaintingLayer&quot;:true}" fill-rule="nonzero" stroke-linecap="butt" stroke-linejoin="miter" stroke-miterlimit="10" stroke-dasharray="" stroke-dashoffset="0" style="mix-blend-mode: normal"><path d="M246.16442,191.99555l-12.25716,-0.10151l6.17313,-47.85381z" fill="#bcbcbc" stroke-width="0" stroke="none" transform="matrix(1,0,0,1,-233.84607,-144.04023)"/><path d="M246.22611,191.88746l-12.38004,-0.10253l1.62437,-12.53279c0,0 0.4826,3.14266 1.26536,3.69615c0.78275,0.55348 1.55511,-1.801 2.39496,-2.34368c0.83985,-0.54269 0.41932,-2.67494 1.45636,-2.80722c1.03704,-0.13226 1.63196,3.22171 2.60422,3.93312c0.97226,0.71141 1.70053,-0.83208 1.70053,-0.83208z" fill="#de5e5e" stroke-width="0" stroke="none" transform="matrix(1,0,0,1,-233.84607,-144.04023)"/><path d="M246.22578,192.04428l-12.30017,-0.10188l0.89476,-7.52037c0,0 0.94608,1.25119 1.43016,1.3451c0.48407,0.09391 1.35746,-1.17681 2.31139,-0.6193c0.95393,0.55751 1.60751,3.58692 2.88125,3.16406c1.27372,-0.42282 0.54763,-4.2741 1.74416,-4.69956c1.19653,-0.42545 2.33074,3.25069 2.33074,3.25069z" fill="#de4040" stroke-width="0" stroke="none" transform="matrix(1,0,0,1,-233.84607,-144.04023)"/></g></g></svg>