<svg version="1.1" xmlns="http://www.w3.org/2000/svg" xmlns:xlink="http://www.w3.org/1999/xlink" width="15.27272" height="11.63637" viewBox="0,0,15.27272,11.63637"><g transform="translate(-232.36365,-174.18182)"><g data-paper-data="{&quot;isPaintingLayer&quot;:true}" fill="#439938" fill-rule="nonzero" stroke="none" stroke-width="0" stroke-linecap="butt" stroke-linejoin="miter" stroke-miterlimit="10" stroke-dasharray="" stroke-dashoffset="0" style="mix-blend-mode: normal"><path d="M234.68664,179.64848c0,-2.40997 3.44289,-3.90909 6.08913,-3.90909c2.64624,0 4.79144,1.49912 4.79144,3.90909c0,2.40997 -2.1452,4.36364 -4.79144,4.36364c-2.64624,0 -6.08913,-1.95367 -6.08913,-4.36364z"/><path d="M237.85383,176.86364c0,-1.48113 2.61609,-2.68182 4.24242,-2.68182c1.62634,0 2.94474,1.20069 2.94474,2.68182c0,1.48113 -1.31841,2.22727 -2.94474,2.22727c-1.62634,0 -4.24242,-0.74615 -4.24242,-2.22727z"/><path d="M241.7469,179.40909c0,-1.48112 1.31841,-2.22727 2.94474,-2.22727c1.62633,0 2.94474,0.74614 2.94474,2.22727c0,1.48112 -1.3184,2.68182 -2.94474,2.68182c-1.62633,0 -2.94474,-1.20069 -2.94474,-2.68182z"/><path d="M240.14975,182.95454c0,-1.48112 1.31841,-2.68181 2.94474,-2.68181c1.62633,0 2.94474,1.20069 2.94474,2.68182c0,1.48112 -1.3184,2.68182 -2.94474,2.68182c-1.62633,0 -2.94474,-1.20069 -2.94474,-2.68182z"/><path d="M234.95902,183.13636c0,-1.48112 1.31841,-2.68181 2.94474,-2.68181c1.62633,0 4.24242,1.20069 4.24242,2.68182c0,1.48112 -2.61609,2.68182 -4.24242,2.68182c-1.62633,0 -2.94474,-1.20069 -2.94474,-2.68182z"/><path d="M232.36366,180.13636c0,-1.48112 1.31841,-2.22727 2.94474,-2.22727c1.62633,0 2.94474,0.74614 2.94474,2.22727c0,1.48112 -1.3184,2.68182 -2.94474,2.68182c-1.62633,0 -2.94474,-1.20069 -2.94474,-2.68182z"/><path d="M234.16043,177.04545c0,-1.48112 1.31841,-2.68181 2.94474,-2.68181c1.62633,0 4.24242,1.20069 4.24242,2.68182c0,1.48112 -2.61609,2.22727 -4.24242,2.22727c-1.62633,0 -2.94474,-0.74615 -2.94474,-2.22727z"/></g></g></svg>