<svg xmlns="http://www.w3.org/2000/svg" xmlns:xlink="http://www.w3.org/1999/xlink" version="1.1" width="64.62422180175781" height="171.04733276367188" viewBox="-0.5 -0.25020599365234375 64.62422180175781 171.04733276367188"><defs><linearGradient x1="251.98334" y1="87.75004" x2="278.64324" y2="87.75004" gradientUnits="userSpaceOnUse" id="color-1"><stop offset="0" stop-color="#fffccc"/><stop offset="1" stop-color="#fffccc" stop-opacity="0"/></linearGradient><radialGradient cx="260.0623" cy="155.02524" r="7.63189" gradientUnits="userSpaceOnUse" id="color-2"><stop offset="0" stop-color="#fffdcc"/><stop offset="1" stop-color="#fff64f"/></radialGradient></defs><g><g data-paper-data="{&quot;isPaintingLayer&quot;:true}" fill-rule="nonzero" stroke-linecap="none" stroke-linejoin="miter" stroke-miterlimit="10" stroke-dasharray="" stroke-dashoffset="0" font-family="none" font-weight="none" font-size="none" text-anchor="none" style="mix-blend-mode: normal"><g><path d="M 25.3453 62.8312 L 25.3453 130.1283 L 13.2976 169.0471 " data-paper-data="{&quot;origPos&quot;:null}" fill="none" stroke="#000000" stroke-width="3.5" stroke-linecap="round"/><path d="M 38.196 168.8503 L 26.1484 128.6916 " fill="none" stroke="#000000" stroke-width="3.5" stroke-linecap="round"/><path d="M 45.9309 85.9265 C 45.9309 85.9265 39.1261 85.0736 35.1547 82.0956 C 31.4386 79.3089 26.2325 71.1551 26.2325 71.1551 " data-paper-data="{&quot;origPos&quot;:null,&quot;index&quot;:null}" fill="none" stroke="#000000" stroke-width="3.5" stroke-linecap="round"/><path d="M 1.25 39.9408 C 1.25 25.968 12.5772 14.6408 26.55 14.6408 C 40.5228 14.6408 51.85 25.968 51.85 39.9408 C 51.85 53.9136 40.5228 65.2408 26.55 65.2408 C 12.5772 65.2408 1.25 53.9136 1.25 39.9408 Z " data-paper-data="{&quot;origPos&quot;:null}" fill="#d4d4d4" stroke="#000000" stroke-width="2.5" stroke-linecap="butt"/><path d="M238.40157,110.84921c0,-2.66149 2.15756,-4.81905 4.81905,-4.81905c2.66149,0 4.81905,2.15756 4.81905,4.81905c0,2.66149 -2.15756,4.81905 -4.81905,4.81905c-2.66149,0 -4.81905,-2.15756 -4.81905,-4.81905z" data-paper-data="{&quot;origPos&quot;:null}" fill="#000000" stroke="none" stroke-width="0" stroke-linecap="butt" transform="matrix(1,0,0,1,-216.26903,-75.4322)"/><path d="M252.05554,110.84921c0,-2.66148 2.15757,-4.81905 4.81905,-4.81905c2.66148,0 4.81905,2.15757 4.81905,4.81905c0,2.66148 -2.15757,4.81905 -4.81905,4.81905c-2.66148,0 -4.81905,-2.15757 -4.81905,-4.81905z" data-paper-data="{&quot;origPos&quot;:null}" fill="#000000" stroke="none" stroke-width="0" stroke-linecap="butt" transform="matrix(1,0,0,1,-216.26903,-75.4322)"/><path d="M 49.8092 22.45 C 49.8092 29.3812 3.3092 29.3812 3.3092 22.45 C 3.3092 15.5188 7.9117 1.5583 26.5592 1.5 C 46.4949 1.4377 49.8092 15.5188 49.8092 22.45 Z " data-paper-data="{&quot;origPos&quot;:null}" fill="#fff300" stroke="#cdc200" stroke-width="3" stroke-linecap="butt"/><path d="M260.08333,99.83337c-1.05854,0 -1.91666,-1.04467 -1.91666,-2.33334c0,-1.28866 0.85812,-2.33333 1.91666,-2.33333c1.05854,0 1.91667,1.04467 1.91667,2.33333c0,1.28866 -0.85813,2.33334 -1.91667,2.33334z" data-paper-data="{&quot;origPos&quot;:null,&quot;index&quot;:null}" fill="#cdc200" stroke="none" stroke-width="0" stroke-linecap="butt" transform="matrix(1,0,0,1,-216.26903,-75.4322)"/><g data-paper-data="{&quot;origPos&quot;:null}" stroke-linecap="butt"><path d="M 41.1643 11.7178 C 41.1643 15.6943 38.9705 18.9179 36.2643 18.9179 C 33.5581 18.9179 31.3643 15.6943 31.3643 11.7178 C 31.3643 7.7414 33.5581 4.5178 36.2643 4.5178 C 38.9705 4.5178 41.1643 7.7414 41.1643 11.7178 Z " data-paper-data="{&quot;origPos&quot;:null}" fill="#fffbb3" stroke="#cdc200" stroke-width="3"/><path d="M251.98334,93.15005c0,0 -2.91223,-1.38298 -2.8,-6.4c0.09644,-4.31098 2.8,-5.2 2.8,-5.2l23,-4.2c0,0 4.20708,3.4684 3.6,10.8c-0.6594,7.96345 -3.6,10 -3.6,10z" data-paper-data="{&quot;origPos&quot;:null}" fill="url(#color-1)" stroke="none" stroke-width="0" transform="matrix(1,0,0,1,-216.26903,-75.4322)"/></g><path d="M 22.3516 28.9107 L 31.4786 32.5615 " data-paper-data="{&quot;origPos&quot;:null}" fill="none" stroke="#000000" stroke-width="2.5" stroke-linecap="round"/><g data-paper-data="{&quot;origPos&quot;:null,&quot;origRot&quot;:0}"><path d="M 1.9656 96.8809 L 42.342 106.7273 " data-paper-data="{&quot;origPos&quot;:null}" fill="none" stroke="#a16e1e" stroke-width="3.5" stroke-linecap="round"/><path d="M258.91316,163.63205c0,0 3.74241,6.61877 4.64975,10.49251c0.92734,3.95911 0.05141,9.57819 0.05141,9.57819c0,0 -1.97053,5.11559 -4.4848,8.08447c-2.59951,3.06952 -8.61864,7.3882 -8.61864,7.3882c0,0 2.52492,-5.14911 3.82774,-8.52114c1.3053,-3.37844 2.85523,-8.7761 2.85523,-8.7761c0,0 0.88463,-5.4031 1.21589,-8.91861c0.33972,-3.60528 0.50342,-9.32752 0.50342,-9.32752z" data-paper-data="{&quot;origPos&quot;:null}" fill="#e2e2e2" stroke="none" stroke-width="0" stroke-linecap="butt" transform="matrix(1,0,0,1,-216.26903,-75.4322)"/><path d="M 40.0989 108.5917 L 47.7231 105.5498 " data-paper-data="{&quot;origPos&quot;:null}" fill="none" stroke="#c98b26" stroke-width="2" stroke-linecap="round"/><path d="M 46.5424 110.3952 L 41.3361 103.9933 " data-paper-data="{&quot;origPos&quot;:null}" fill="none" stroke="#c98b26" stroke-width="2" stroke-linecap="round"/></g><path d="M 43.5262 28.6956 L 36.5897 31.9813 " data-paper-data="{&quot;origPos&quot;:null}" fill="none" stroke="#000000" stroke-width="2.5" stroke-linecap="round"/><path d="M240.5,98.16671c0,-1.28866 1.04467,-2.33333 2.33334,-2.33333c1.28867,0 2.33333,1.04466 2.33333,2.33333c0,1.28866 -1.04466,2.33334 -2.33333,2.33334c-1.28867,0 -2.33334,-1.04467 -2.33334,-2.33334z" data-paper-data="{&quot;origPos&quot;:null}" fill="#cdc200" stroke="none" stroke-width="0" stroke-linecap="butt" transform="matrix(1,0,0,1,-216.26903,-75.4322)"/><path d="M224.16667,96.83337c0,-1.28866 0.85813,-2.33333 1.91667,-2.33333c1.05855,0 1.91666,1.04467 1.91666,2.33333c0,1.28866 -0.85812,2.33333 -1.91666,2.33333c-1.05855,0 -1.91667,-1.04467 -1.91667,-2.33333z" data-paper-data="{&quot;origPos&quot;:null}" fill="#cdc200" stroke="none" stroke-width="0" stroke-linecap="butt" transform="matrix(1,0,0,1,-216.26903,-75.4322)"/><path d="M 12.0437 101.1765 L 24.2421 70.9551 " data-paper-data="{&quot;origPos&quot;:null}" fill="none" stroke="#000000" stroke-width="3.5" stroke-linecap="round"/><path d="M267.77264,153.85152l-0.37739,5.60886l-4.70837,2.01175l-4.48169,-0.50065l-2.10758,0.96559l-4.08684,-6.95811l-0.26315,-3.81074l7.2382,-1.1462l5.55215,-3.96995z" data-paper-data="{&quot;origPos&quot;:null,&quot;origRot&quot;:0}" fill="url(#color-2)" stroke="none" stroke-width="0" stroke-linecap="butt" transform="matrix(1,0,0,1,-216.26903,-75.4322)"/></g></g></g></svg>