<svg version="1.1" xmlns="http://www.w3.org/2000/svg" xmlns:xlink="http://www.w3.org/1999/xlink" width="75.50212" height="157.4064" viewBox="0,0,75.50212,157.4064"><defs><radialGradient cx="231.07199" cy="123.19581" r="9.5" gradientUnits="userSpaceOnUse" id="color-1"><stop offset="0" stop-color="#9dcaff"/><stop offset="1" stop-color="#d4d4d4"/></radialGradient></defs><g transform="translate(-202.25289,-88.46578)"><g data-paper-data="{&quot;isPaintingLayer&quot;:true}" fill-rule="nonzero" stroke-linejoin="miter" stroke-miterlimit="10" stroke-dasharray="" stroke-dashoffset="0" style="mix-blend-mode: normal"><path d="M233.52836,168.06139l0.95455,-7.90909l3.40909,-9.40909l0.88636,17.18182z" fill="#3cef48" stroke="none" stroke-width="0" stroke-linecap="butt"/><path d="M238.43745,157.4932l0.40909,10.29545l-0.95455,0.06818" fill="none" stroke="#2db436" stroke-width="0.5" stroke-linecap="round"/><path d="M241.35739,137.90629v67.2971l-12.0476,38.9188" data-paper-data="{&quot;origPos&quot;:null}" fill="none" stroke="#000000" stroke-width="3.5" stroke-linecap="round"/><path d="M254.20819,243.92529l-12.0476,-40.1587" fill="none" stroke="#000000" stroke-width="3.5" stroke-linecap="round"/><path d="M217.26209,115.01579c0,-13.9728 11.3272,-25.3 25.3,-25.3c13.9728,0 25.3001,11.3272 25.3001,25.3c0,13.9728 -11.3273,25.3 -25.3001,25.3c-13.9728,0 -25.3,-11.3272 -25.3,-25.3z" data-paper-data="{&quot;origPos&quot;:null}" fill="#d4d4d4" stroke="#000000" stroke-width="2.5" stroke-linecap="butt"/><path d="M238.14468,108.99199c0,-2.66149 2.15756,-4.81905 4.81905,-4.81905c2.66149,0 4.81905,2.15756 4.81905,4.81905c0,2.66149 -2.15756,4.81905 -4.81905,4.81905c-2.66149,0 -4.81905,-2.15756 -4.81905,-4.81905z" data-paper-data="{&quot;origPos&quot;:null}" fill="#000000" stroke="none" stroke-width="0" stroke-linecap="butt"/><path d="M251.79864,108.99199c0,-2.66148 2.15757,-4.81905 4.81905,-4.81905c2.66148,0 4.81905,2.15757 4.81905,4.81905c0,2.66148 -2.15757,4.81905 -4.81905,4.81905c-2.66148,0 -4.81905,-2.15757 -4.81905,-4.81905z" data-paper-data="{&quot;origPos&quot;:null}" fill="#000000" stroke="none" stroke-width="0" stroke-linecap="butt"/><path d="M238.08452,102.97078l9.68533,1.68052" data-paper-data="{&quot;origPos&quot;:null}" fill="none" stroke="#000000" stroke-width="2.5" stroke-linecap="round"/><path d="M252.32957,104.52169l7.48094,-1.71651" data-paper-data="{&quot;origPos&quot;:null}" fill="none" stroke="#000000" stroke-width="2.5" stroke-linecap="round"/><path d="M240.05419,146.23009c0,0 -4.8567,21.6796 -9.0853,23.2346c-4.337,1.595 -12.8631,-15.1632 -12.8631,-15.1632" data-paper-data="{&quot;origPos&quot;:null}" fill="none" stroke="#000000" stroke-width="3.5" stroke-linecap="round"/><path d="M266.44309,157.30149c0,0 -10.0034,15.0965 -13.3659,13.558c-6.0813,-2.7823 -10.8325,-24.6294 -10.8325,-24.6294" data-paper-data="{&quot;origPos&quot;:null,&quot;index&quot;:null}" fill="none" stroke="#000000" stroke-width="3.5" stroke-linecap="round"/><g data-paper-data="{&quot;origPos&quot;:null,&quot;origRot&quot;:0}" fill="#6686ff" stroke="none" stroke-linecap="butt"><path d="M202.33086,150.61419c0.68794,-5.5494 5.74431,-9.4904 11.29372,-8.80246c5.5494,0.68794 9.4904,5.74431 8.80246,11.29372c-0.68794,5.5494 -5.74431,9.4904 -11.29372,8.80246c-5.5494,-0.68794 -9.4904,-5.74431 -8.80246,-11.29372z" stroke-width="NaN"/><path d="M211.85814,142.85232l-1.33892,-5.45617l6.94682,0.86118l-2.38259,4.99482z" stroke-width="0"/></g><g data-paper-data="{&quot;origPos&quot;:null,&quot;origRot&quot;:0,&quot;index&quot;:null}" fill="#6686ff" stroke="none" stroke-linecap="butt"><path d="M268.87458,161.90791c-5.5494,0.68795 -10.60577,-3.25305 -11.29371,-8.80246c-0.68795,-5.54941 3.25305,-10.60577 8.80245,-11.29372c5.54941,-0.68795 10.60577,3.25305 11.29372,8.80245c0.68795,5.54941 -3.25305,10.60577 -8.80246,11.29372z" stroke-width="NaN"/><path d="M264.92445,143.25215l-2.38259,-4.99482l6.94682,-0.86118l-1.33893,5.45617z" stroke-width="0"/></g><path d="M221.57199,123.19581c0,-5.24671 4.25329,-9.5 9.5,-9.5c5.24671,0 9.5,4.25329 9.5,9.5c0,5.24671 -4.25329,9.5 -9.5,9.5c-5.24671,0 -9.5,-4.25329 -9.5,-9.5z" fill="url(#color-1)" stroke="none" stroke-width="0" stroke-linecap="butt"/><g fill="#a6bef1" stroke="none" stroke-width="0" stroke-linecap="butt"><path d="M232.80535,123.66019c0,0.21011 0.27267,2.70237 0.24747,2.90433c-0.25679,2.05797 -2.06126,1.35282 -3.89645,1.35282c-1.38791,0 -2.7377,0.95313 -3.35464,-0.37771c-0.27887,-0.60157 -0.29434,-3.1475 -0.29434,-3.87943c0,-1.28163 0.34258,-4.14526 1.11065,-4.92572c0.64096,-0.6513 1.62159,0.66858 2.53833,0.66858c1.34226,0 4.22954,-0.01162 4.8633,1.2478c0.31777,0.63148 -1.21432,2.22416 -1.21432,3.00934z"/><path d="M231.12066,132.04979c0,0 1.18696,2.99152 -0.32418,3.04396c-1.43693,0.04986 -0.53297,-3.12088 -0.53297,-3.12088l0.04945,-5.57143l0.54961,-0.01424z"/><path d="M238.68958,122.37166c0.1301,0.66717 -0.0224,1.25832 -1.0857,1.46566c-1.0633,0.20734 -2.66419,-0.19864 -2.76485,-0.71481c-0.10065,-0.51617 1.23042,-1.49388 2.29372,-1.70123c1.0633,-0.20734 1.42673,0.2832 1.55683,0.95037z"/><path d="M224.04106,116.68773c0.73203,0.79859 1.22167,2.3759 0.83401,2.73125c-0.38766,0.35535 -1.91652,-0.26936 -2.64855,-1.06794c-0.73203,-0.79859 -0.50343,-1.36467 -0.00235,-1.82398c0.50107,-0.45931 1.08487,-0.63791 1.81689,0.16067z" data-paper-data="{&quot;index&quot;:null}"/><path d="M237.9262,125.16011c0,0 0.90383,1.74938 -0.24685,1.78004c-1.09418,0.02916 -0.40584,-1.82502 -0.40584,-1.82502l0.03765,-3.25805l0.41851,-0.00833z"/></g><path d="M228.25,229.3889l7.78931,-22.17925l0.21069,-5.82075h10.66667l0.17555,6.16407l8.00318,21.82722l-8.67873,0.00871c0,0 -2.80659,-12.16667 -4.33333,-12.16667c-1.4712,0 -4.66667,12.16667 -4.66667,12.16667z" fill="#ffe640" stroke="#3ffff6" stroke-width="0.5" stroke-linecap="butt"/><path d="M232.69834,177.06451l0.06364,-13.43636c0,0 1.27383,-6.15434 2.01476,-8.51185c0.72541,-2.30811 2.5216,-6.35178 2.5216,-6.35178l0.5,24.4z" fill="#40ff4e" stroke="#3dcc33" stroke-width="0" stroke-linecap="butt"/><path d="M237.41472,149.03866l0.47727,24.06818l-5.11364,3.95455l-0.06818,-13.15909" fill="none" stroke="#2db436" stroke-width="0.5" stroke-linecap="round"/><path d="M241.61905,121.34482c0,0 5.09678,1.05092 7.29756,1.28757c1.94294,0.20892 5.23023,0.05951 5.23023,0.05951c0,0 -3.96182,5.70916 -7.4855,5.33027c-3.52367,-0.37889 -5.04229,-6.67735 -5.04229,-6.67735z" fill="#ffffff" stroke="#000000" stroke-width="1" stroke-linecap="butt"/></g></g></svg>