<svg xmlns="http://www.w3.org/2000/svg" xmlns:xlink="http://www.w3.org/1999/xlink" version="1.1" width="58.03504" height="158.60633" viewBox="0,0,58.03504,158.60633"><g><g data-paper-data="{&quot;isPaintingLayer&quot;:true}" fill-rule="nonzero" stroke-linecap="none" stroke-linejoin="miter" stroke-miterlimit="10" stroke-dasharray="" stroke-dashoffset="0" font-family="none" font-weight="none" font-size="none" text-anchor="none" style="mix-blend-mode: normal"><path d="M228.78323,200.87286c-1.22979,-1.08864 -4.36011,-1.85912 -4.36011,-1.85912c0,0 2.12553,-3.92386 6.44965,-0.05305c3.52652,3.15683 0.19133,5.93179 0.19133,5.93179c0,0 -0.91894,-2.81401 -2.28087,-4.01962z" data-paper-data="{&quot;origPos&quot;:null,&quot;index&quot;:null,&quot;origRot&quot;:0}" fill="#988900" stroke="none" stroke-width="0" stroke-linecap="butt" transform="matrix(1,0,0,1,-211.32787,-86.92911)"/><path d="M 27.2241 118.5832 C 27.2241 118.5832 19.1092 126.3514 10.6562 122.4606 C 8.1261 121.2961 4.6137 118.9023 7.675 113.7166 C 10.7208 108.5571 14.9323 111.5932 14.9323 111.5932 " data-paper-data="{&quot;origPos&quot;:null}" fill="none" stroke="#cdb800" stroke-width="3" stroke-linecap="round"/><path d="M232.00523,212.02682l-1.78861,-4.26515l5.41789,-2.27202l1.78861,4.26515z" data-paper-data="{&quot;origRot&quot;:0,&quot;origPos&quot;:null}" fill="#af9d00" stroke="none" stroke-width="0" stroke-linecap="butt" transform="matrix(1,0,0,1,-211.32787,-86.92911)"/><path d="M 28.7429 49.8905 L 28.7429 117.1875 L 16.6953 156.1063 " data-paper-data="{&quot;origPos&quot;:null}" fill="none" stroke="#cdb800" stroke-width="5" stroke-linecap="round"/><path d="M 29.546 115.5508 L 41.5937 155.7095 " fill="none" stroke="#cdb800" stroke-width="5" stroke-linecap="round"/><path d="M 4.6476 26.8 C 4.6476 12.8272 15.9748 1.5 29.9476 1.5 C 43.9204 1.5 55.2476 12.8272 55.2476 26.8 C 55.2476 41.3936 44.5412 52.1 29.9476 52.1 C 15.9748 52.1 4.6476 40.7728 4.6476 26.8 Z " data-paper-data="{&quot;origPos&quot;:null}" fill="#f1dc4c" stroke="#cdb800" stroke-width="3" stroke-linecap="butt"/><path d="M236.85803,107.70532c0,-2.66149 2.15756,-4.81905 4.81905,-4.81905c2.66149,0 4.81905,2.15756 4.81905,4.81905c0,2.66149 -2.15756,4.81905 -4.81905,4.81905c-2.66149,0 -4.81905,-2.15756 -4.81905,-4.81905z" data-paper-data="{&quot;origPos&quot;:null}" fill="#ff0000" stroke="none" stroke-width="0" stroke-linecap="butt" transform="matrix(1,0,0,1,-211.32787,-86.92911)"/><path d="M250.512,107.70532c0,-2.66148 2.15757,-4.81905 4.81905,-4.81905c2.66148,0 4.81905,2.15757 4.81905,4.81905c0,2.66148 -2.15757,4.81905 -4.81905,4.81905c-2.66148,0 -4.81905,-2.15757 -4.81905,-4.81905z" data-paper-data="{&quot;origPos&quot;:null}" fill="#ff0000" stroke="none" stroke-width="0" stroke-linecap="butt" transform="matrix(1,0,0,1,-211.32787,-86.92911)"/><path d="M 25.7492 13.7699 L 34.8762 17.4207 " data-paper-data="{&quot;origPos&quot;:null}" fill="none" stroke="#000000" stroke-width="2.5" stroke-linecap="round"/><path d="M 39.9873 17.0905 L 46.9238 13.8048 " data-paper-data="{&quot;origPos&quot;:null}" fill="none" stroke="#000000" stroke-width="2.5" stroke-linecap="round"/><path d="M 27.4397 58.0143 L 11.7413 87.5857 " data-paper-data="{&quot;origPos&quot;:null}" fill="none" stroke="#cdb800" stroke-width="5" stroke-linecap="round"/><path d="M 45.3286 87.5857 L 29.6302 58.0143 " data-paper-data="{&quot;origPos&quot;:null,&quot;index&quot;:null}" fill="none" stroke="#cdb800" stroke-width="5" stroke-linecap="round"/><path d="M245.5258,121.17404h6.71518l-3.09761,8.44436z" data-paper-data="{&quot;origPos&quot;:null}" fill="#ffffff" stroke="#000000" stroke-width="0" stroke-linecap="butt" transform="matrix(1,0,0,1,-211.32787,-86.92911)"/><path d="M253.56946,120.96028h6.71518l-3.09761,8.44436z" data-paper-data="{&quot;origPos&quot;:null}" fill="#ffffff" stroke="#000000" stroke-width="0" stroke-linecap="butt" transform="matrix(1,0,0,1,-211.32787,-86.92911)"/><path d="M 26.1301 33.453 L 48.9033 33.453 " data-paper-data="{&quot;origPos&quot;:null}" fill="none" stroke="#000000" stroke-width="1.5" stroke-linecap="round"/><g data-paper-data="{&quot;origPos&quot;:null,&quot;origRot&quot;:0,&quot;index&quot;:null}" stroke-linecap="butt"><path d="M257.98714,189.19047c0,0 -6.82817,0.51615 -6.29642,-6.93506c0.65202,-9.13645 7.37033,-7.02182 7.37033,-7.02182c0,0 -2.38438,3.86538 -2.58261,6.4416c-0.22087,2.87063 1.5087,7.51528 1.5087,7.51528z" data-paper-data="{&quot;origPos&quot;:null}" stroke-width="0" fill="#cdb800" stroke="none" transform="matrix(1,0,0,1,-211.32787,-86.92911)"/><path d="M263.41825,178.94258c-2.02875,-1.61362 -7.02647,-2.56785 -7.02647,-2.56785c0,0 3.02399,-6.36104 10.16089,-0.61956c5.82049,4.68245 0.79447,9.33321 0.79447,9.33321c0,0 -1.68217,-4.3588 -3.9289,-6.1458z" data-paper-data="{&quot;origPos&quot;:null,&quot;index&quot;:null,&quot;origRot&quot;:0}" stroke-width="0" fill="#cdb800" stroke="none" transform="matrix(1,0,0,1,-211.32787,-86.92911)"/></g><path d="M224.21233,181.34185c-0.19823,-2.57621 -2.58261,-6.4416 -2.58261,-6.4416c0,0 6.71831,-2.11463 7.37033,7.02182c0.53175,7.45121 -6.29642,6.93506 -6.29642,6.93506c0,0 1.72958,-4.64465 1.5087,-7.51529z" data-paper-data="{&quot;origPos&quot;:null}" fill="#cdb800" stroke="none" stroke-width="0" stroke-linecap="butt" transform="matrix(1,0,0,1,-211.32787,-86.92911)"/><path d="M213.34363,184.75505c0,0 -5.02601,-4.65076 0.79448,-9.33321c7.13691,-5.74148 10.16089,0.61956 10.16089,0.61956c0,0 -4.99773,0.95423 -7.02647,2.56785c-2.24673,1.787 -3.9289,6.1458 -3.9289,6.1458z" data-paper-data="{&quot;origPos&quot;:null,&quot;index&quot;:null,&quot;origRot&quot;:0}" fill="#cdb800" stroke="none" stroke-width="0" stroke-linecap="butt" transform="matrix(1,0,0,1,-211.32787,-86.92911)"/><path d="M223.98659,212.52922l-0.00399,-4.37658l5.55943,-0.00507l0.00399,4.37657z" data-paper-data="{&quot;origRot&quot;:0,&quot;origPos&quot;:null}" fill="#af9d00" stroke="none" stroke-width="0" stroke-linecap="butt" transform="matrix(1,0,0,1,-211.32787,-86.92911)"/><path d="M217.19523,208.29628l2.23361,-3.0738l3.90456,2.83728l-2.23361,3.0738z" data-paper-data="{&quot;origRot&quot;:0,&quot;origPos&quot;:null}" fill="#af9d00" stroke="none" stroke-width="0" stroke-linecap="butt" transform="matrix(1,0,0,1,-211.32787,-86.92911)"/></g></g></svg>