<svg version="1.1" xmlns="http://www.w3.org/2000/svg" xmlns:xlink="http://www.w3.org/1999/xlink" width="11.83491" height="6.24835" viewBox="0,0,11.83491,6.24835"><g transform="translate(-234.08254,-176.87583)"><g data-paper-data="{&quot;isPaintingLayer&quot;:true}" fill-rule="nonzero" stroke="none" stroke-width="0" stroke-linecap="butt" stroke-linejoin="miter" stroke-miterlimit="10" stroke-dasharray="" stroke-dashoffset="0" style="mix-blend-mode: normal"><g data-paper-data="{&quot;index&quot;:null}"><g fill="#f04f4f"><path d="M245.91695,180.32914c-0.03674,1.31133 -2.05274,2.31871 -4.50284,2.25006c-2.45012,-0.06866 -4.40653,-1.18734 -4.36978,-2.49867c0.03674,-1.31133 2.05274,-2.31871 4.50284,-2.25006c2.45012,0.06866 4.40653,1.18734 4.36978,2.49867z"/><path d="M234.08254,183.12417l0.17508,-6.24835l3.90789,3.36118z"/></g><path d="M243.58955,180.32297c-0.42767,-0.01199 -0.76466,-0.3684 -0.75268,-0.79608c0.01199,-0.42767 0.3684,-0.76466 0.79608,-0.75268c0.42767,0.01199 0.76466,0.3684 0.75268,0.79608c-0.01199,0.42767 -0.3684,0.76466 -0.79608,0.75268z" fill="#000000"/></g></g></g></svg>