<svg version="1.1" xmlns="http://www.w3.org/2000/svg" xmlns:xlink="http://www.w3.org/1999/xlink" width="76.19323" height="168.0489" viewBox="0,0,76.19323,168.0489"><g transform="translate(-207.53,-78.2262)"><g data-paper-data="{&quot;isPaintingLayer&quot;:true}" fill-rule="nonzero" stroke-linejoin="miter" stroke-miterlimit="10" stroke-dasharray="" stroke-dashoffset="0" style="mix-blend-mode: normal"><path d="M241.26127,147.02222c0,0 -10.45629,2.8511 -15.09633,4.71873c-4.42872,1.78274 -7.16859,-9.63998 -7.16859,-9.63998" data-paper-data="{&quot;index&quot;:null}" fill="none" stroke="#000000" stroke-width="3.5" stroke-linecap="round"/><g fill="none"><g><path d="M258.60075,139.73723l18.45684,-2.64386" stroke="#cccccc" stroke-width="1" stroke-linecap="round"/><path d="M269.41277,148.33692l-2.74643,-19.17284" stroke="#cccccc" stroke-width="1" stroke-linecap="round"/><path d="M260.15507,132.45124l15.6891,11.75749" stroke="#cccccc" stroke-width="1" stroke-linecap="round"/><path d="M262.34245,146.02102l11.4167,-15.23434" stroke="#cccccc" stroke-width="1" stroke-linecap="round"/><path d="M269.51316,148.40794c-5.52876,0.79197 -10.65273,-3.04796 -11.44471,-8.57672c-0.79197,-5.52876 3.04796,-10.65273 8.57672,-11.44471c5.52876,-0.79197 10.65273,3.04796 11.44471,8.57672c0.79197,5.52876 -3.04796,10.65273 -8.57672,11.44471z" stroke="#383838" stroke-width="2" stroke-linecap="butt"/></g><path d="M208.78,140.28056l4.39725,-3.30908l7.2355,18.20505l-3.61223,5.3887" stroke="#7a7a7a" stroke-width="2.5" stroke-linecap="round"/><path d="M217.54486,145.35768l38.6639,-5.53844" stroke="#7a7a7a" stroke-width="2.5" stroke-linecap="round"/><path d="M263.2856,148.92114c0,0 -5.73957,-1.89498 -6.6712,-8.78691c-1.06599,-7.88583 3.91718,-10.43896 3.91718,-10.43896" stroke="#7a7a7a" stroke-width="2.5" stroke-linecap="round"/></g><path d="M260.61607,150.2016c0,0 -10.4661,13.4228 -11.2693,9.288c-0.9408,-4.8426 -6.5282,-11.93534 -6.5282,-11.93534" data-paper-data="{&quot;index&quot;:null}" fill="none" stroke="#000000" stroke-width="3.5" stroke-linecap="round"/><path d="M242.20586,138.1654v67.2971l-12.0476,38.9188" fill="none" stroke="#000000" stroke-width="3.5" stroke-linecap="round"/><path d="M242.32777,204.3664l12.0476,40.1587" fill="none" stroke="#000000" stroke-width="3.5" stroke-linecap="round"/><g stroke-linecap="butt"><path d="M218.11056,115.2749c0,-13.9728 11.3272,-25.3 25.3,-25.3c13.9728,0 25.3,11.3272 25.3,25.3c0,13.9728 -11.3272,25.3 -25.3,25.3c-13.9728,0 -25.3,-11.3272 -25.3,-25.3z" fill="#ffffff" stroke="#000000" stroke-width="2.5"/><path d="M238.99312,109.25113c0,-2.66149 2.15756,-4.81905 4.81905,-4.81905c2.66149,0 4.81905,2.15756 4.81905,4.81905c0,2.66149 -2.15756,4.81905 -4.81905,4.81905c-2.66149,0 -4.81905,-2.15756 -4.81905,-4.81905z" fill="#000000" stroke="none" stroke-width="0"/><path d="M252.64708,109.25113c0,-2.66148 2.15757,-4.81905 4.81905,-4.81905c2.66148,0 4.81905,2.15757 4.81905,4.81905c0,2.66148 -2.15757,4.81905 -4.81905,4.81905c-2.66148,0 -4.81905,-2.15757 -4.81905,-4.81905z" fill="#000000" stroke="none" stroke-width="0"/></g><path d="M283.22323,153.02224c-0.05398,0.1359 -1.35649,3.11112 -2.32355,3.24196c-1.10208,0.14911 -1.89295,-2.54946 -2.0949,-2.45423c-2.1179,0.99871 -8.04334,0.24945 -14.35973,-2.25923c-7.44721,-2.9578 -12.6178,-7.24131 -11.85722,-9.15631c0.76058,-1.915 7.49764,-1.48631 14.94485,1.47149c6.10502,2.42472 10.79209,5.79636 11.86426,7.98792c0.23572,0.48182 3.96338,0.82326 3.8263,1.16839z" fill="#e0a059" stroke="#000000" stroke-width="1" stroke-linecap="butt"/><path d="M239.83536,121.63348c1.36652,-1.09322 2.45974,0.2733 2.45974,0.2733l1.14286,1.42857c2.93235,3.715 8.05082,4.28131 12.32837,2.36158c2.08956,-0.93778 3.6642,-3.37921 5.15307,-5.01697c0,0 1.17718,-1.2949 2.47207,-0.11772c1.2949,1.17718 0.11772,2.47207 0.11772,2.47207c-1.87378,2.06116 -3.67919,4.63347 -6.2755,5.84017c-5.72499,2.66082 -12.57163,1.54042 -16.52877,-3.3527l-1.14286,-1.42857c0,0 -1.09322,-1.36652 0.2733,-2.45974z" fill="#ff0000" stroke="none" stroke-width="0.5" stroke-linecap="butt"/><path d="M253.97597,87.00289c0.85314,-2.85359 3.85803,-4.47528 6.71162,-3.62215c2.85359,0.85314 4.47528,3.85803 3.62215,6.71162c-0.85314,2.85359 -3.85803,4.47528 -6.71162,3.62215c-2.85359,-0.85314 -4.47528,-3.85803 -3.62215,-6.71162z" fill="#ff5757" stroke="#be0000" stroke-width="1" stroke-linecap="butt"/><path d="M217.17857,98.40477c0,-2.9784 2.41446,-5.39286 5.39285,-5.39286c2.9784,0 5.39286,2.41446 5.39286,5.39286c0,2.9784 -2.41447,5.39285 -5.39286,5.39285c-2.9784,0 -5.39285,-2.41446 -5.39285,-5.39285z" fill="#ff5757" stroke="#be0000" stroke-width="1" stroke-linecap="butt"/><path d="M222.32143,91.54762c0,-2.9784 2.41446,-5.39286 5.39285,-5.39286c2.9784,0 5.39286,2.41446 5.39286,5.39286c0,2.9784 -2.41447,5.39285 -5.39286,5.39285c-2.9784,0 -5.39285,-2.41446 -5.39285,-5.39285z" fill="#ffe157" stroke="#bfa700" stroke-width="1" stroke-linecap="butt"/><path d="M244.03572,92.83333c0,-2.9784 2.41446,-5.39286 5.39285,-5.39286c2.9784,0 5.39286,2.41446 5.39286,5.39286c0,2.9784 -2.41447,5.39286 -5.39286,5.39286c-2.9784,0 -5.39285,-2.41446 -5.39285,-5.39286z" fill="#ffe157" stroke="#bfa700" stroke-width="1" stroke-linecap="butt"/><path d="M228.75,96.69048c0,-2.9784 2.41446,-5.39286 5.39285,-5.39286c2.9784,0 5.39286,2.41446 5.39286,5.39286c0,2.9784 -2.41446,5.39285 -5.39286,5.39285c-2.9784,0 -5.39285,-2.41446 -5.39285,-5.39285z" fill="#74ff57" stroke="#13bf00" stroke-width="1" stroke-linecap="butt"/><path d="M248.46429,86.83334c0,-2.9784 2.41446,-5.39286 5.39286,-5.39286c2.9784,0 5.39286,2.41446 5.39286,5.39286c0,2.9784 -2.41446,5.39286 -5.39286,5.39286c-2.9784,0 -5.39286,-2.41446 -5.39286,-5.39286z" fill="#74ff57" stroke="#13bf00" stroke-width="1" stroke-linecap="butt"/><path d="M214.75001,91.54762c0,-2.9784 2.41446,-5.39286 5.39285,-5.39286c2.97839,0 5.39286,2.41446 5.39286,5.39286c0,2.9784 -2.41447,5.39285 -5.39286,5.39285c-2.9784,0 -5.39285,-2.41446 -5.39285,-5.39285z" fill="#74ff57" stroke="#13bf00" stroke-width="1" stroke-linecap="butt"/><path d="M238.32143,84.54763c0,-2.9784 2.41446,-5.39286 5.39286,-5.39286c2.9784,0 5.39286,2.41446 5.39286,5.39286c0,2.9784 -2.41446,5.39285 -5.39286,5.39285c-2.9784,0 -5.39286,-2.41446 -5.39286,-5.39285z" fill="#57ffed" stroke="#008ebf" stroke-width="1" stroke-linecap="butt"/><path d="M221.46429,100.83334c0,-2.9784 2.41446,-5.39286 5.39285,-5.39286c2.9784,0 5.39286,2.41446 5.39286,5.39286c0,2.9784 -2.41446,5.39285 -5.39286,5.39285c-2.9784,0 -5.39285,-2.41446 -5.39285,-5.39285z" fill="#57ffed" stroke="#008ebf" stroke-width="1" stroke-linecap="butt"/><path d="M227.75001,84.11906c0,-2.9784 2.41446,-5.39286 5.39285,-5.39286c2.9784,0 5.39286,2.41446 5.39286,5.39286c0,2.9784 -2.41446,5.39285 -5.39286,5.39285c-2.9784,0 -5.39285,-2.41446 -5.39285,-5.39285z" fill="#ff57f2" stroke="#7500bf" stroke-width="1" stroke-linecap="butt"/><path d="M255.4643,95.69048c0,-2.9784 2.41446,-5.39286 5.39285,-5.39286c2.9784,0 5.39286,2.41446 5.39286,5.39286c0,2.9784 -2.41447,5.39285 -5.39286,5.39285c-2.97839,0 -5.39285,-2.41446 -5.39285,-5.39285z" fill="#ff57f2" stroke="#7500bf" stroke-width="1" stroke-linecap="butt"/><path d="M234.03572,90.54763c0,-2.9784 2.41446,-5.39286 5.39286,-5.39286c2.97839,0 5.39286,2.41446 5.39286,5.39286c0,2.9784 -2.41447,5.39285 -5.39286,5.39285c-2.97839,0 -5.39286,-2.41446 -5.39286,-5.39285z" fill="#ff5757" stroke="#be0000" stroke-width="1" stroke-linecap="butt"/><path d="M214.89286,106.83334c0,-2.9784 2.41446,-5.39286 5.39285,-5.39286c2.97839,0 5.39286,2.41446 5.39286,5.39286c0,2.9784 -2.41447,5.39285 -5.39286,5.39285c-2.9784,0 -5.39285,-2.41446 -5.39285,-5.39285z" fill="#ffe157" stroke="#bfa700" stroke-width="1" stroke-linecap="butt"/></g></g></svg>