<svg xmlns="http://www.w3.org/2000/svg" xmlns:xlink="http://www.w3.org/1999/xlink" version="1.1" width="80.71289" height="158.52679" viewBox="0,0,80.71289,158.52679"><g><g data-paper-data="{&quot;isPaintingLayer&quot;:true}" fill-rule="nonzero" stroke-linejoin="miter" stroke-miterlimit="10" stroke-dasharray="" stroke-dashoffset="0" style="mix-blend-mode: normal"><g data-paper-data="{&quot;origRot&quot;:0,&quot;origPos&quot;:null}"><path d="M 27.4098 3.7184 C 27.4098 3.7184 33.6365 5.3754 38.3617 5.1475 C 41.7532 4.9839 44.8049 2.6291 48.1994 2.7123 C 50.7063 2.7738 53.7965 4.3655 53.7965 4.3655 L 49.0647 13.1706 C 49.0647 13.1706 47.5472 9.9444 45.3764 8.9968 C 45.3764 8.9968 39.4487 9.2672 36.4128 8.381 C 32.4249 7.217 27.4098 3.7184 27.4098 3.7184 Z " fill="#ffac00" stroke-linecap="butt" stroke-width="1" stroke="#943800"/><path d="M 10.7227 0.5 C 10.7227 0.5 12.8075 1.7731 15.0344 1.9481 C 17.8956 2.173 20.9196 1.1519 23.7246 1.7596 C 25.3717 2.1165 28.1585 4.2778 28.1585 4.2778 " data-paper-data="{&quot;origPos&quot;:null}" fill="none" stroke-linecap="round" stroke-width="1" stroke="#943800"/></g><path d="M 27.4071 62.7972 L 34.3392 49.6214 C 34.3392 49.6214 36.461 57.6071 39.1456 60.1734 C 42.1758 63.0699 50.7488 65.0558 50.7488 65.0558 L 48.4747 72.7831 C 48.4747 72.7831 45.9813 72.9728 44.4502 74.3377 C 42.1501 76.3882 38.6577 81.5345 38.6577 81.5345 C 38.6577 81.5345 41.5796 73.6199 39.7069 72.6025 C 37.8342 71.5851 35.165 73.7229 35.165 73.7229 C 35.165 73.7229 37.088 70.5849 35.6444 68.3372 C 34.2007 66.0894 30.0122 69.5036 30.0122 69.5036 C 30.0122 69.5036 33.2003 61.4108 32.5696 61.0962 C 31.6325 60.6289 27.4071 62.7972 27.4071 62.7972 Z " data-paper-data="{&quot;origPos&quot;:null,&quot;origRot&quot;:0}" fill="#ffac00" stroke="#943800" stroke-width="1" stroke-linecap="butt"/><path d="M 21.1192 77.5859 L 21.1928 59.0914 C 21.1928 59.0914 28.1144 66.671 32.545 67.9571 C 37.5459 69.4088 48.1305 66.6754 48.1305 66.6754 L 50.0608 76.4936 C 50.0608 76.4936 47.4229 78.1339 46.5196 80.5165 C 45.1627 84.0958 44.2694 91.77 44.2694 91.77 C 44.2694 91.77 42.9452 81.3736 40.2981 81.3277 C 37.651 81.2818 35.9375 85.1691 35.9375 85.1691 C 35.9375 85.1691 36.2547 80.6082 33.374 78.9607 C 30.4934 77.3132 27.8389 83.4787 27.8389 83.4787 C 27.8389 83.4787 26.7056 72.7331 25.8302 72.7486 C 24.5295 72.7717 21.1192 77.5859 21.1192 77.5859 Z " data-paper-data="{&quot;origPos&quot;:null,&quot;origRot&quot;:0}" fill="#ffac00" stroke="#943800" stroke-width="1" stroke-linecap="butt"/><path d="M267.22275,127.73888l-3.7404,-6.21628l5.98011,-0.48817z" data-paper-data="{&quot;origRot&quot;:0,&quot;origPos&quot;:null}" fill="#cfcfcf" stroke="none" stroke-width="0" stroke-linecap="butt" transform="matrix(1,0,0,1,-192.27047,-87.34536)"/><path d="M256.95261,128.23253l-3.23194,-6.49517l6,-0.00897z" data-paper-data="{&quot;origRot&quot;:0,&quot;origPos&quot;:null}" fill="#cfcfcf" stroke="none" stroke-width="0" stroke-linecap="butt" transform="matrix(1,0,0,1,-192.27047,-87.34536)"/><path d="M247.73039,127.67699l-3.23194,-6.49517l5.99999,-0.00897z" data-paper-data="{&quot;origRot&quot;:0,&quot;origPos&quot;:null}" fill="#cfcfcf" stroke="none" stroke-width="0" stroke-linecap="butt" transform="matrix(1,0,0,1,-192.27047,-87.34536)"/><path d="M254.94289,129.7881l-5.99999,-0.00897l3.23194,-6.49517z" data-paper-data="{&quot;origRot&quot;:0,&quot;origPos&quot;:null,&quot;index&quot;:null}" fill="#cfcfcf" stroke="none" stroke-width="0" stroke-linecap="butt" transform="matrix(1,0,0,1,-192.27047,-87.34536)"/><path d="M264.60955,130.45475l-5.99999,-0.00897l3.23194,-6.49517z" data-paper-data="{&quot;origRot&quot;:0,&quot;origPos&quot;:null,&quot;index&quot;:null}" fill="#cfcfcf" stroke="none" stroke-width="0" stroke-linecap="butt" transform="matrix(1,0,0,1,-192.27047,-87.34536)"/><path d="M 49.0869 50.5609 L 49.0869 117.858 L 37.0393 156.7768 " data-paper-data="{&quot;origPos&quot;:null}" fill="none" stroke="#943800" stroke-width="3.5" stroke-linecap="round"/><path d="M 49.8901 116.4212 L 61.9377 156.58 " fill="none" stroke="#943800" stroke-width="3.5" stroke-linecap="round"/><path d="M 24.9917 27.6705 C 24.9917 12.9752 29.3464 2.8705 44.0417 2.8705 C 58.2578 2.8705 69.3315 2.7772 78.2886 13.8166 C 81.8118 18.1588 76.0044 23.8312 78.8707 28.6325 C 83.2879 36.0315 61.6188 32.5074 53.0297 33.2034 C 47.9695 33.6134 49.2232 41.7443 54.2381 42.5344 C 61.3603 43.6565 81.6249 41.8566 75.702 45.9682 C 73.1588 47.7337 69.0595 52.2441 65.9636 52.2151 C 56.676 52.1284 60.7514 52.9704 50.2917 52.9704 C 36.3189 52.9704 24.9917 41.6432 24.9917 27.6705 Z " data-paper-data="{&quot;origPos&quot;:null}" fill="#ffac00" stroke="#943800" stroke-width="2.5" stroke-linecap="butt"/><path d="M243.00897,106.41343c0,-2.66149 2.15756,-4.81905 4.81905,-4.81905c2.66149,0 4.81905,2.15756 4.81905,4.81905c0,2.66149 -2.15756,4.81905 -4.81905,4.81905c-2.66149,0 -4.81905,-2.15756 -4.81905,-4.81905z" fill="#ff0000" stroke="none" stroke-width="0" stroke-linecap="butt" transform="matrix(1,0,0,1,-192.27047,-87.34536)"/><path d="M257.29864,106.24201c0,-2.66148 2.15757,-4.81905 4.81905,-4.81905c2.66148,0 4.81905,2.15757 4.81905,4.81905c0,2.66148 -2.15757,4.81905 -4.81905,4.81905c-2.66148,0 -4.81905,-2.15757 -4.81905,-4.81905z" data-paper-data="{&quot;origPos&quot;:null}" fill="#ff0000" stroke="none" stroke-width="0" stroke-linecap="butt" transform="matrix(1,0,0,1,-192.27047,-87.34536)"/><path d="M 32.0853 88.4562 L 47.7837 58.8847 " data-paper-data="{&quot;origPos&quot;:null}" fill="none" stroke="#943800" stroke-width="3.5" stroke-linecap="round"/><path d="M 49.9742 58.8847 L 65.6726 88.4562 " data-paper-data="{&quot;origPos&quot;:null,&quot;index&quot;:null}" fill="none" stroke="#943800" stroke-width="3.5" stroke-linecap="round"/><g data-paper-data="{&quot;origRot&quot;:0}"><path d="M 17.4084 8.1325 C 17.4084 8.1325 23.7587 9.2245 28.4444 8.5737 C 31.8076 8.1066 34.6358 5.4876 38.0241 5.2661 C 40.5264 5.1025 43.7469 6.4107 43.7469 6.4107 L 39.8238 15.6046 C 39.8238 15.6046 38.0231 12.5275 35.7761 11.7785 C 35.7761 11.7785 29.8965 12.5793 26.7933 11.969 C 22.7171 11.1673 17.4084 8.1325 17.4084 8.1325 Z " fill="#ffac00" stroke-linecap="butt" stroke-width="1" stroke="#943800"/><path d="M 0.5 6.4236 C 0.5 6.4236 2.6906 7.5046 4.9242 7.4792 C 7.794 7.4465 10.7143 6.1583 13.5624 6.5121 C 15.235 6.7198 18.2044 8.6225 18.2044 8.6225 " data-paper-data="{&quot;origPos&quot;:null}" fill="none" stroke-linecap="round" stroke-width="1" stroke="#943800"/></g><path d="M231.56213,101.11228l1.88889,-7.44444l3.44444,0.77778l-3.77777,9.33333z" data-paper-data="{&quot;origPos&quot;:null}" fill="#ffac00" stroke="none" stroke-width="0" stroke-linecap="butt" transform="matrix(1,0,0,1,-192.27047,-87.34536)"/><path d="M 60.8679 17.567 L 52.861 11.8644 " data-paper-data="{&quot;origPos&quot;:null,&quot;origRot&quot;:0}" fill="none" stroke="#000000" stroke-width="2.5" stroke-linecap="round"/><path d="M 64.3318 17.7139 L 72.3387 12.0113 " data-paper-data="{&quot;origRot&quot;:0,&quot;index&quot;:null}" fill="none" stroke="#000000" stroke-width="2.5" stroke-linecap="round"/></g></g></svg>