<svg xmlns="http://www.w3.org/2000/svg" xmlns:xlink="http://www.w3.org/1999/xlink" version="1.1" width="24.12325" height="24.13978" viewBox="0,0,24.12325,24.13978"><g><g data-paper-data="{&quot;isPaintingLayer&quot;:true}" fill-rule="evenodd" stroke-linecap="butt" stroke-linejoin="miter" stroke-miterlimit="10" stroke-dasharray="" stroke-dashoffset="0" style="mix-blend-mode: normal"><path d="M 22.1797 17.6606 C 21.6737 18.8832 20.8475 19.9467 19.7881 20.7393 C 19.6031 20.8814 19.4115 21.0201 19.2166 21.1523 C 16.7183 23.1281 13.5142 23.9829 10.3637 23.5141 C 7.1793 23.24 4.2294 21.7204 2.5546 18.6417 C -0.2794 14.5466 -0.1727 9.0968 2.8196 5.1158 C 5.8118 1.1347 11.0171 -0.4828 15.7387 1.1011 C 20.4603 2.685 23.6371 7.1144 23.6232 12.0946 C 23.6205 14.0421 23.1238 15.9572 22.1797 17.6606 Z " fill="#e6781e" stroke-width="1" stroke="#000000"/><g><path d="M 12.3424 23.6182 L 12.0517 23.6182 L 12.012 23.6182 C 11.9493 15.753 12.0087 7.3163 12.0583 0.528 L 12.3886 0.528 C 12.3391 7.3163 12.2796 15.7464 12.3424 23.6182 Z " stroke-width="1" fill="#824600" stroke="#000000"/><path d="M 23.61 11.6503 C 23.61 11.7659 23.61 11.8849 23.61 12.0038 L 0.5231 12.0038 C 0.5231 11.8848 0.5231 11.7692 0.5231 11.6536 Z " stroke-width="1" fill="#824600" stroke="#000000"/><path d="M 19.504 20.9095 C 19.4082 20.9789 19.3157 21.0516 19.2166 21.1176 C 15.8274 17.7053 15.1601 11.7891 16.3394 7.3791 C 16.7724 5.6447 17.6463 4.0516 18.8764 2.7545 C 18.9688 2.8205 19.0613 2.8932 19.1505 2.9626 C 17.9391 4.2241 17.0792 5.781 16.6565 7.4782 C 15.1601 13.084 16.8811 18.2536 19.504 20.9095 Z " stroke-width="1" fill="#824600" stroke="#000000"/><path d="M 4.6159 21.1903 C 4.5234 21.1154 4.4342 21.0361 4.3483 20.9525 C 7.0703 18.4948 8.9697 13.5563 7.731 7.7887 C 7.342 5.9226 6.4914 4.1838 5.2568 2.7313 L 5.5342 2.5331 C 6.7881 4.0241 7.6529 5.8026 8.0514 7.7094 C 8.6039 10.3665 8.5236 13.1163 7.8168 15.7365 C 7.1859 18.0257 6.0892 19.8822 4.6159 21.1903 Z " stroke-width="1" fill="#824600" stroke="#000000"/></g></g></g></svg>