<svg xmlns="http://www.w3.org/2000/svg" xmlns:xlink="http://www.w3.org/1999/xlink" version="1.1" width="511.12755" height="300.35624" viewBox="0,0,511.12755,300.35624"><g><g data-paper-data="{&quot;isPaintingLayer&quot;:true}" fill-rule="nonzero" stroke-linejoin="miter" stroke-miterlimit="10" stroke-dasharray="" stroke-dashoffset="0" style="mix-blend-mode: normal"><g data-paper-data="{&quot;origPos&quot;:null,&quot;origRot&quot;:0}" stroke-linecap="butt"><path d="M162.25598,333.87642l-12.57813,-29.46194l28.97581,10.69491c0,0 -2.2113,5.01987 -5.41742,8.68925c-3.19329,3.6547 -10.98026,10.07778 -10.98026,10.07778z" data-paper-data="{&quot;origPos&quot;:null}" fill="#ffc166" stroke-width="0" stroke="none" transform="matrix(1,0,0,1,15.32507,-78.45761)"/><path d="M154.50565,311.75881c-0.5841,-0.86753 -0.35433,-2.04429 0.51319,-2.62839c0.86753,-0.5841 2.04429,-0.35433 2.62839,0.51319c0.5841,0.86753 0.35433,2.04429 -0.51319,2.62839c-0.86753,0.5841 -2.04429,0.35433 -2.62839,-0.51319z" data-paper-data="{&quot;origPos&quot;:null}" fill="#ff4141" stroke-width="0" stroke="none" transform="matrix(1,0,0,1,15.32507,-78.45761)"/><path d="M167.83149,316.24969c-0.5841,-0.86753 -0.35433,-2.04429 0.51319,-2.62839c0.86753,-0.5841 2.04429,-0.35433 2.62839,0.51319c0.5841,0.86753 0.35433,2.04429 -0.51319,2.62839c-0.86753,0.5841 -2.04429,0.35433 -2.62839,-0.51319z" data-paper-data="{&quot;origPos&quot;:null}" fill="#4041ff" stroke-width="0" stroke="none" transform="matrix(1,0,0,1,15.32507,-78.45761)"/><path d="M166.652,323.36561c-0.5841,-0.86753 -0.35433,-2.04429 0.51319,-2.62839c0.86753,-0.5841 2.0443,-0.35433 2.62839,0.51319c0.58409,0.86752 0.35433,2.04429 -0.51319,2.62839c-0.86753,0.5841 -2.0443,0.35433 -2.62839,-0.51319z" data-paper-data="{&quot;origPos&quot;:null}" fill="#fff640" stroke-width="0" stroke="none" transform="matrix(1,0,0,1,15.32507,-78.45761)"/><path d="M160.68125,313.45433c-0.5841,-0.86753 -0.35433,-2.04429 0.51319,-2.62839c0.86753,-0.5841 2.04429,-0.35433 2.62839,0.51319c0.5841,0.86753 0.35433,2.04429 -0.51319,2.62839c-0.86753,0.5841 -2.04429,0.35433 -2.62839,-0.51319z" data-paper-data="{&quot;origPos&quot;:null}" fill="#58ff40" stroke-width="0" stroke="none" transform="matrix(1,0,0,1,15.32507,-78.45761)"/><path d="M158.09963,320.22652c-0.5841,-0.86753 -0.35433,-2.04429 0.51319,-2.62839c0.86753,-0.5841 2.04429,-0.35433 2.62839,0.51319c0.58409,0.86752 0.35433,2.04429 -0.51319,2.62839c-0.86753,0.5841 -2.0443,0.35433 -2.62839,-0.51319z" data-paper-data="{&quot;origPos&quot;:null}" fill="#ff40d3" stroke-width="0" stroke="none" transform="matrix(1,0,0,1,15.32507,-78.45761)"/><path d="M160.313,327.16533c-0.5841,-0.86753 -0.35433,-2.04429 0.51319,-2.62839c0.86753,-0.5841 2.04429,-0.35433 2.62839,0.51319c0.5841,0.86753 0.35433,2.04429 -0.51319,2.62839c-0.86753,0.5841 -2.04429,0.35433 -2.62839,-0.51319z" data-paper-data="{&quot;origPos&quot;:null}" fill="#40fffd" stroke-width="0" stroke="none" transform="matrix(1,0,0,1,15.32507,-78.45761)"/></g><g data-paper-data="{&quot;origPos&quot;:null,&quot;origRot&quot;:0}"><g data-paper-data="{&quot;origPos&quot;:null}" stroke-linecap="butt"><path d="M346.20584,331.97398c-3.14509,-5.4655 -1.26403,-12.44575 4.20147,-15.59085c5.4655,-3.14509 12.44575,-1.26403 15.59085,4.20147c3.14509,5.4655 1.26403,12.44575 -4.20147,15.59085c-5.4655,3.14509 -12.44575,1.26404 -15.59085,-4.20146z" data-paper-data="{&quot;origPos&quot;:null}" stroke-width="0" fill="#cc9100" stroke="none" transform="matrix(1,0,0,1,15.32507,-78.45761)"/><path d="M361.22575,336.504l-11.38938,-19.7923l11.60895,-6.68031l11.38938,19.79231z" stroke-width="0" fill="#cc9100" stroke="none" transform="matrix(1,0,0,1,15.32507,-78.45761)"/><path d="M356.22385,326.15135c-3.14509,-5.4655 -1.26403,-12.44575 4.20147,-15.59085c5.4655,-3.14509 12.44575,-1.26403 15.59085,4.20146c3.14509,5.4655 1.26403,12.44575 -4.20147,15.59085c-5.4655,3.14509 -12.44575,1.26403 -15.59085,-4.20146z" data-paper-data="{&quot;origPos&quot;:null}" stroke-width="0" fill="#cc9100" stroke="none" transform="matrix(1,0,0,1,15.32507,-78.45761)"/></g><path d="M379.46009,318.97364l2.25773,-6.65329l35.62757,9.55991l-4.7262,7.04909z" data-paper-data="{&quot;origRot&quot;:0,&quot;origPos&quot;:null}" fill="#cc9100" stroke="none" stroke-width="0" stroke-linecap="butt" transform="matrix(1,0,0,1,15.32507,-78.45761)"/><path d="M423.34653,328.2851c-0.72283,2.69382 -4.82181,3.93494 -9.15535,2.77213c-4.33354,-1.16281 -4.29842,-4.76417 -3.57559,-7.45798c0.72283,-2.69382 4.82182,-3.93494 9.15535,-2.77214c4.33354,1.16281 4.29841,4.76418 3.57559,7.458z" data-paper-data="{&quot;origRot&quot;:0,&quot;origPos&quot;:null}" fill="#cc9100" stroke="none" stroke-width="0" stroke-linecap="butt" transform="matrix(1,0,0,1,15.32507,-78.45761)"/><g data-paper-data="{&quot;origPos&quot;:null}" stroke-linecap="butt"><path d="M351.08091,329.10028c-1.99845,-3.47286 -0.80318,-7.90823 2.66968,-9.90667c3.47286,-1.99845 7.90823,-0.80318 9.90666,2.66968c1.99845,3.47286 0.80318,7.90823 -2.66968,9.90667c-3.47286,1.99845 -7.90823,0.80319 -9.90666,-2.66968z" data-paper-data="{&quot;origPos&quot;:null}" stroke-width="0" fill="#946a00" stroke="none" transform="matrix(1,0,0,1,15.32507,-78.45761)"/><path d="M360.62479,331.97872l-7.237,-12.57635l7.37651,-4.24478l7.237,12.57635z" stroke-width="0" fill="#946a00" stroke="none" transform="matrix(1,0,0,1,15.32507,-78.45761)"/><path d="M357.44651,325.40046c-1.99845,-3.47286 -0.80318,-7.90823 2.66968,-9.90667c3.47286,-1.99845 7.90823,-0.80318 9.90667,2.66968c1.99845,3.47286 0.80319,7.90823 -2.66968,9.90667c-3.47286,1.99845 -7.90823,0.80319 -9.90667,-2.66968z" data-paper-data="{&quot;origPos&quot;:null}" stroke-width="0" fill="#946a00" stroke="none" transform="matrix(1,0,0,1,15.32507,-78.45761)"/></g><path d="M 361.9949 250.2072 L 395.2713 234.4995 L 433.4511 245.1109 " data-paper-data="{&quot;origPos&quot;:null,&quot;origRot&quot;:0}" fill="none" stroke="#d0d0d0" stroke-width="1" stroke-linecap="round"/><path d="M 363.4222 251.7378 L 394.9898 236.5485 L 437.385 247.9244 " data-paper-data="{&quot;origPos&quot;:null,&quot;origRot&quot;:0}" fill="none" stroke="#d0d0d0" stroke-width="1" stroke-linecap="round"/><path d="M 364.2827 253.4338 L 394.6588 238.69 L 432.5298 248.8519 " data-paper-data="{&quot;origPos&quot;:null,&quot;origRot&quot;:0}" fill="none" stroke="#d0d0d0" stroke-width="1" stroke-linecap="round"/><path d="M348.45477,333.74014l-3.14288,-5.46165l1.87257,-1.07756l3.14288,5.46165z" data-paper-data="{&quot;origPos&quot;:null}" fill="#946a00" stroke="none" stroke-width="0" stroke-linecap="butt" transform="matrix(1,0,0,1,15.32507,-78.45761)"/></g><g data-paper-data="{&quot;origPos&quot;:null,&quot;origRot&quot;:0}"><path d="M 262.2715 235.3463 L 268.2772 235.0996 L 274.3213 240.3332 " data-paper-data="{&quot;origPos&quot;:null}" fill="none" stroke="#000000" stroke-width="1.5" stroke-linecap="round"/><path d="M265.77401,323.94642c0,0 -4.52177,5.28112 -8.36747,1.9961c-3.64117,-3.11033 0.97633,-8.43124 0.97633,-8.43124z" data-paper-data="{&quot;origPos&quot;:null}" fill="#000000" stroke="none" stroke-width="0" stroke-linecap="butt" transform="matrix(1,0,0,1,15.32507,-78.45761)"/><g data-paper-data="{&quot;origRot&quot;:0,&quot;origPos&quot;:null}"><path d="M 277.3705 240.6183 L 280.3316 238.3877 L 288.4731 243.6021 " data-paper-data="{&quot;origPos&quot;:null}" fill="none" stroke="#000000" stroke-width="1.5" stroke-linecap="round"/><path d="M275.28243,321.17586c0,0 1.14235,6.85797 -3.84569,7.69478c-4.72277,0.7923 -5.83411,-6.16459 -5.83411,-6.16459z" data-paper-data="{&quot;origPos&quot;:null}" fill="#000000" stroke="none" stroke-width="0" stroke-linecap="butt" transform="matrix(1,0,0,1,15.32507,-78.45761)"/></g></g><g data-paper-data="{&quot;origPos&quot;:null}" stroke-linecap="butt"><path d="M 64.0666 276.4788 C 59.7202 282.3159 51.4647 283.5245 45.6275 279.178 C 39.7904 274.8316 38.5818 266.5762 42.9283 260.739 C 47.2747 254.9018 55.5302 253.6933 61.3673 258.0397 C 67.2045 262.3861 68.413 270.6416 64.0666 276.4788 Z " data-paper-data="{&quot;origPos&quot;:null}" fill="none" stroke="#b0b0b0" stroke-width="15"/><path d="M 36.3773 263.0668 C 36.3773 263.0668 33.9197 259.2192 31.7281 257.5873 C 28.9576 255.5244 23.6625 253.5993 23.6625 253.5993 C 23.6625 253.5993 29.8728 250.4917 33.411 250.5756 C 37.4521 250.6716 43.0835 254.0605 43.0835 254.0605 Z " data-paper-data="{&quot;origPos&quot;:null}" fill="#b0b0b0" stroke="none" stroke-width="20"/><path d="M 70.9292 274.5065 C 70.9292 274.5065 73.3868 278.3541 75.5784 279.9859 C 78.349 282.0489 83.644 283.974 83.644 283.974 C 83.644 283.974 77.4337 287.0816 73.8955 286.9976 C 69.8544 286.9016 64.223 283.5128 64.223 283.5128 Z " data-paper-data="{&quot;origPos&quot;:null,&quot;index&quot;:null}" fill="#b0b0b0" stroke="none" stroke-width="20"/><path d="M 59.3508 251.3508 C 59.3508 251.3508 63.1981 248.8928 64.8297 246.701 C 66.8924 243.9302 68.8169 238.635 68.8169 238.635 C 68.8169 238.635 71.9252 244.8449 71.8416 248.3831 C 71.746 252.4242 68.3578 258.0559 68.3578 258.0559 Z " data-paper-data="{&quot;origPos&quot;:null,&quot;index&quot;:null,&quot;origRot&quot;:0}" fill="#b0b0b0" stroke="none" stroke-width="20"/><path d="M 47.815 285.2546 C 47.815 285.2546 43.9677 287.7126 42.3361 289.9044 C 40.2734 292.6752 38.3488 297.9704 38.3488 297.9704 C 38.3488 297.9704 35.2405 291.7604 35.3242 288.2223 C 35.4198 284.1812 38.808 278.5494 38.808 278.5494 Z " data-paper-data="{&quot;origPos&quot;:null,&quot;index&quot;:null,&quot;origRot&quot;:0}" fill="#b0b0b0" stroke="none" stroke-width="20"/><path d="M 37.2997 277.5938 C 37.2997 277.5938 32.8226 276.7 30.1274 277.1496 C 26.7203 277.7179 21.6633 280.202 21.6633 280.202 C 21.6633 280.202 23.7255 273.5708 26.2377 271.0778 C 29.1069 268.2305 35.4523 266.518 35.4523 266.518 Z " data-paper-data="{&quot;origPos&quot;:null,&quot;origRot&quot;:0}" fill="#b0b0b0" stroke="none" stroke-width="20"/><path d="M 69.4886 260.6064 C 69.4886 260.6064 73.9657 261.5002 76.6609 261.0506 C 80.0681 260.4823 85.125 257.9982 85.125 257.9982 C 85.125 257.9982 83.0628 264.6293 80.5507 267.1223 C 77.6815 269.9697 71.336 271.6821 71.336 271.6821 Z " data-paper-data="{&quot;origPos&quot;:null,&quot;index&quot;:null,&quot;origRot&quot;:0}" fill="#b0b0b0" stroke="none" stroke-width="20"/><path d="M 44.7696 252.9109 C 44.7696 252.9109 45.663 248.4337 45.2131 245.7385 C 44.6445 242.3315 42.1598 237.2747 42.1598 237.2747 C 42.1598 237.2747 48.7912 239.3362 51.2844 241.8481 C 54.1321 244.717 55.8452 251.0622 55.8452 251.0622 Z " data-paper-data="{&quot;origPos&quot;:null,&quot;index&quot;:null,&quot;origRot&quot;:0}" fill="#b0b0b0" stroke="none" stroke-width="20"/><path d="M 61.2233 284.7201 C 61.2233 284.7201 60.3299 289.1973 60.7798 291.8925 C 61.3484 295.2995 63.8331 300.3562 63.8331 300.3562 C 63.8331 300.3562 57.2017 298.2948 54.7085 295.7829 C 51.8608 292.914 50.1477 286.5688 50.1477 286.5688 Z " data-paper-data="{&quot;origPos&quot;:null,&quot;index&quot;:null,&quot;origRot&quot;:0}" fill="#b0b0b0" stroke="none" stroke-width="20"/></g><g data-paper-data="{&quot;origPos&quot;:null}" stroke-linecap="butt"><path d="M 114.0666 276.4788 C 109.7202 282.3159 101.4647 283.5245 95.6276 279.178 C 89.7904 274.8316 88.5819 266.5761 92.9283 260.739 C 97.2747 254.9018 105.5302 253.6933 111.3674 258.0397 C 117.2045 262.3861 118.4131 270.6416 114.0666 276.4788 Z " data-paper-data="{&quot;origPos&quot;:null}" fill="none" stroke="#b0b0b0" stroke-width="15"/><path d="M 86.3773 263.0668 C 86.3773 263.0668 83.9197 259.2192 81.7281 257.5873 C 78.9575 255.5244 73.6625 253.5993 73.6625 253.5993 C 73.6625 253.5993 79.8728 250.4916 83.411 250.5756 C 87.4521 250.6716 93.0835 254.0605 93.0835 254.0605 Z " data-paper-data="{&quot;origPos&quot;:null}" fill="#b0b0b0" stroke="none" stroke-width="20"/><path d="M 120.9292 274.5065 C 120.9292 274.5065 123.3868 278.3541 125.5784 279.9859 C 128.349 282.0489 133.644 283.974 133.644 283.974 C 133.644 283.974 127.4337 287.0816 123.8955 286.9976 C 119.8544 286.9017 114.223 283.5128 114.223 283.5128 Z " data-paper-data="{&quot;origPos&quot;:null,&quot;index&quot;:null}" fill="#b0b0b0" stroke="none" stroke-width="20"/><path d="M 109.3508 251.3508 C 109.3508 251.3508 113.1981 248.8928 114.8297 246.701 C 116.8924 243.9302 118.8169 238.635 118.8169 238.635 C 118.8169 238.635 121.9252 244.8449 121.8416 248.3831 C 121.746 252.4242 118.3578 258.0559 118.3578 258.0559 Z " data-paper-data="{&quot;origPos&quot;:null,&quot;index&quot;:null,&quot;origRot&quot;:0}" fill="#b0b0b0" stroke="none" stroke-width="20"/><path d="M 97.815 285.2546 C 97.815 285.2546 93.9677 287.7126 92.3361 289.9044 C 90.2734 292.6752 88.3488 297.9704 88.3488 297.9704 C 88.3488 297.9704 85.2405 291.7605 85.3242 288.2223 C 85.4198 284.1812 88.808 278.5494 88.808 278.5494 Z " data-paper-data="{&quot;origPos&quot;:null,&quot;index&quot;:null,&quot;origRot&quot;:0}" fill="#b0b0b0" stroke="none" stroke-width="20"/><path d="M 87.2997 277.5938 C 87.2997 277.5938 82.8226 276.7 80.1274 277.1496 C 76.7203 277.7179 71.6633 280.202 71.6633 280.202 C 71.6633 280.202 73.7255 273.5709 76.2377 271.0778 C 79.1069 268.2305 85.4523 266.518 85.4523 266.518 Z " data-paper-data="{&quot;origPos&quot;:null,&quot;origRot&quot;:0}" fill="#b0b0b0" stroke="none" stroke-width="20"/><path d="M 119.4886 260.6064 C 119.4886 260.6064 123.9657 261.5002 126.6609 261.0506 C 130.0681 260.4823 135.125 257.9982 135.125 257.9982 C 135.125 257.9982 133.0628 264.6293 130.5507 267.1223 C 127.6815 269.9697 121.336 271.6821 121.336 271.6821 Z " data-paper-data="{&quot;origPos&quot;:null,&quot;index&quot;:null,&quot;origRot&quot;:0}" fill="#b0b0b0" stroke="none" stroke-width="20"/><path d="M 94.7696 252.9109 C 94.7696 252.9109 95.663 248.4337 95.2132 245.7385 C 94.6445 242.3315 92.1598 237.2748 92.1598 237.2748 C 92.1598 237.2748 98.7912 239.3362 101.2844 241.8481 C 104.1321 244.717 105.8452 251.0622 105.8452 251.0622 Z " data-paper-data="{&quot;origPos&quot;:null,&quot;index&quot;:null,&quot;origRot&quot;:0}" fill="#b0b0b0" stroke="none" stroke-width="20"/><path d="M 111.2233 284.7201 C 111.2233 284.7201 110.3299 289.1973 110.7798 291.8925 C 111.3484 295.2995 113.8331 300.3562 113.8331 300.3562 C 113.8331 300.3562 107.2017 298.2947 104.7085 295.7829 C 101.8608 292.914 100.1477 286.5688 100.1477 286.5688 Z " data-paper-data="{&quot;origPos&quot;:null,&quot;index&quot;:null,&quot;origRot&quot;:0}" fill="#b0b0b0" stroke="none" stroke-width="20"/></g><g data-paper-data="{&quot;origPos&quot;:null}" stroke-linecap="butt"><path d="M 166.0666 275.4788 C 161.7202 281.3159 153.4647 282.5245 147.6276 278.178 C 141.7904 273.8316 140.5818 265.5761 144.9283 259.739 C 149.2747 253.9018 157.5302 252.6933 163.3674 257.0397 C 169.2045 261.3861 170.4131 269.6416 166.0666 275.4788 Z " data-paper-data="{&quot;origPos&quot;:null}" fill="none" stroke="#b0b0b0" stroke-width="15"/><path d="M 138.3773 262.0668 C 138.3773 262.0668 135.9197 258.2192 133.7281 256.5873 C 130.9576 254.5244 125.6625 252.5993 125.6625 252.5993 C 125.6625 252.5993 131.8728 249.4916 135.411 249.5756 C 139.4521 249.6716 145.0835 253.0605 145.0835 253.0605 Z " data-paper-data="{&quot;origPos&quot;:null}" fill="#b0b0b0" stroke="none" stroke-width="20"/><path d="M 172.9292 273.5065 C 172.9292 273.5065 175.3868 277.3541 177.5784 278.9859 C 180.3489 281.0489 185.644 282.974 185.644 282.974 C 185.644 282.974 179.4337 286.0816 175.8955 285.9976 C 171.8544 285.9017 166.223 282.5128 166.223 282.5128 Z " data-paper-data="{&quot;origPos&quot;:null,&quot;index&quot;:null}" fill="#b0b0b0" stroke="none" stroke-width="20"/><path d="M 161.3508 250.3508 C 161.3508 250.3508 165.1981 247.8928 166.8297 245.701 C 168.8924 242.9302 170.8169 237.635 170.8169 237.635 C 170.8169 237.635 173.9252 243.8449 173.8416 247.3831 C 173.746 251.4242 170.3578 257.0559 170.3578 257.0559 Z " data-paper-data="{&quot;origPos&quot;:null,&quot;index&quot;:null,&quot;origRot&quot;:0}" fill="#b0b0b0" stroke="none" stroke-width="20"/><path d="M 149.815 284.2546 C 149.815 284.2546 145.9677 286.7126 144.3361 288.9044 C 142.2734 291.6752 140.3488 296.9704 140.3488 296.9704 C 140.3488 296.9704 137.2406 290.7605 137.3242 287.2223 C 137.4198 283.1812 140.808 277.5494 140.808 277.5494 Z " data-paper-data="{&quot;origPos&quot;:null,&quot;index&quot;:null,&quot;origRot&quot;:0}" fill="#b0b0b0" stroke="none" stroke-width="20"/><path d="M 139.2997 276.5938 C 139.2997 276.5938 134.8226 275.7 132.1274 276.1496 C 128.7203 276.7179 123.6633 279.202 123.6633 279.202 C 123.6633 279.202 125.7255 272.5709 128.2377 270.0778 C 131.1069 267.2305 137.4523 265.518 137.4523 265.518 Z " data-paper-data="{&quot;origPos&quot;:null,&quot;origRot&quot;:0}" fill="#b0b0b0" stroke="none" stroke-width="20"/><path d="M 171.4886 259.6064 C 171.4886 259.6064 175.9657 260.5002 178.6609 260.0506 C 182.0681 259.4823 187.125 256.9982 187.125 256.9982 C 187.125 256.9982 185.0628 263.6293 182.5507 266.1223 C 179.6815 268.9697 173.336 270.6821 173.336 270.6821 Z " data-paper-data="{&quot;origPos&quot;:null,&quot;index&quot;:null,&quot;origRot&quot;:0}" fill="#b0b0b0" stroke="none" stroke-width="20"/><path d="M 146.7696 251.9109 C 146.7696 251.9109 147.663 247.4337 147.2132 244.7385 C 146.6445 241.3315 144.1598 236.2748 144.1598 236.2748 C 144.1598 236.2748 150.7912 238.3362 153.2844 240.8481 C 156.1321 243.717 157.8452 250.0622 157.8452 250.0622 Z " data-paper-data="{&quot;origPos&quot;:null,&quot;index&quot;:null,&quot;origRot&quot;:0}" fill="#b0b0b0" stroke="none" stroke-width="20"/><path d="M 163.2233 283.7201 C 163.2233 283.7201 162.33 288.1973 162.7798 290.8925 C 163.3484 294.2995 165.8331 299.3562 165.8331 299.3562 C 165.8331 299.3562 159.2017 297.2947 156.7085 294.7829 C 153.8608 291.914 152.1477 285.5688 152.1477 285.5688 Z " data-paper-data="{&quot;origPos&quot;:null,&quot;index&quot;:null,&quot;origRot&quot;:0}" fill="#b0b0b0" stroke="none" stroke-width="20"/></g><g data-paper-data="{&quot;origPos&quot;:null}" stroke-linecap="butt"><path d="M 216.0666 275.4788 C 211.7202 281.3159 203.4647 282.5245 197.6276 278.178 C 191.7904 273.8316 190.5818 265.5761 194.9283 259.739 C 199.2747 253.9018 207.5302 252.6933 213.3674 257.0397 C 219.2045 261.3861 220.4131 269.6416 216.0666 275.4788 Z " data-paper-data="{&quot;origPos&quot;:null}" fill="none" stroke="#b0b0b0" stroke-width="15"/><path d="M 188.3773 262.0668 C 188.3773 262.0668 185.9197 258.2192 183.7281 256.5873 C 180.9576 254.5244 175.6625 252.5993 175.6625 252.5993 C 175.6625 252.5993 181.8728 249.4916 185.411 249.5756 C 189.4521 249.6716 195.0835 253.0605 195.0835 253.0605 Z " data-paper-data="{&quot;origPos&quot;:null}" fill="#b0b0b0" stroke="none" stroke-width="20"/><path d="M 222.9292 273.5065 C 222.9292 273.5065 225.3869 277.3541 227.5784 278.9859 C 230.349 281.0489 235.644 282.974 235.644 282.974 C 235.644 282.974 229.4337 286.0816 225.8955 285.9976 C 221.8544 285.9017 216.223 282.5128 216.223 282.5128 Z " data-paper-data="{&quot;origPos&quot;:null,&quot;index&quot;:null}" fill="#b0b0b0" stroke="none" stroke-width="20"/><path d="M 211.3508 250.3508 C 211.3508 250.3508 215.1981 247.8928 216.8297 245.701 C 218.8924 242.9302 220.8169 237.635 220.8169 237.635 C 220.8169 237.635 223.9252 243.8449 223.8416 247.3831 C 223.746 251.4242 220.3578 257.0559 220.3578 257.0559 Z " data-paper-data="{&quot;origPos&quot;:null,&quot;index&quot;:null,&quot;origRot&quot;:0}" fill="#b0b0b0" stroke="none" stroke-width="20"/><path d="M 199.815 284.2546 C 199.815 284.2546 195.9677 286.7126 194.3361 288.9044 C 192.2734 291.6752 190.3488 296.9704 190.3488 296.9704 C 190.3488 296.9704 187.2406 290.7605 187.3242 287.2223 C 187.4198 283.1812 190.808 277.5494 190.808 277.5494 Z " data-paper-data="{&quot;origPos&quot;:null,&quot;index&quot;:null,&quot;origRot&quot;:0}" fill="#b0b0b0" stroke="none" stroke-width="20"/><path d="M 189.2997 276.5938 C 189.2997 276.5938 184.8226 275.7 182.1274 276.1496 C 178.7203 276.7179 173.6633 279.202 173.6633 279.202 C 173.6633 279.202 175.7255 272.5709 178.2377 270.0778 C 181.1069 267.2305 187.4523 265.518 187.4523 265.518 Z " data-paper-data="{&quot;origPos&quot;:null,&quot;origRot&quot;:0}" fill="#b0b0b0" stroke="none" stroke-width="20"/><path d="M 221.4886 259.6064 C 221.4886 259.6064 225.9657 260.5002 228.6609 260.0506 C 232.0681 259.4823 237.125 256.9982 237.125 256.9982 C 237.125 256.9982 235.0628 263.6293 232.5507 266.1223 C 229.6815 268.9697 223.336 270.6821 223.336 270.6821 Z " data-paper-data="{&quot;origPos&quot;:null,&quot;index&quot;:null,&quot;origRot&quot;:0}" fill="#b0b0b0" stroke="none" stroke-width="20"/><path d="M 196.7696 251.9109 C 196.7696 251.9109 197.663 247.4337 197.2132 244.7385 C 196.6445 241.3315 194.1598 236.2748 194.1598 236.2748 C 194.1598 236.2748 200.7912 238.3362 203.2844 240.8481 C 206.1321 243.717 207.8452 250.0622 207.8452 250.0622 Z " data-paper-data="{&quot;origPos&quot;:null,&quot;index&quot;:null,&quot;origRot&quot;:0}" fill="#b0b0b0" stroke="none" stroke-width="20"/><path d="M 213.2233 283.7201 C 213.2233 283.7201 212.33 288.1973 212.7798 290.8925 C 213.3484 294.2995 215.8331 299.3562 215.8331 299.3562 C 215.8331 299.3562 209.2017 297.2947 206.7085 294.7829 C 203.8608 291.914 202.1477 285.5688 202.1477 285.5688 Z " data-paper-data="{&quot;origPos&quot;:null,&quot;index&quot;:null,&quot;origRot&quot;:0}" fill="#b0b0b0" stroke="none" stroke-width="20"/></g><g data-paper-data="{&quot;origPos&quot;:null}" stroke-linecap="butt"><path d="M 266.0666 274.4788 C 261.7202 280.3159 253.4647 281.5245 247.6276 277.178 C 241.7904 272.8316 240.5818 264.5761 244.9283 258.739 C 249.2747 252.9018 257.5302 251.6933 263.3674 256.0397 C 269.2045 260.3861 270.4131 268.6416 266.0666 274.4788 Z " data-paper-data="{&quot;origPos&quot;:null}" fill="none" stroke="#b0b0b0" stroke-width="15"/><path d="M 238.3773 261.0668 C 238.3773 261.0668 235.9197 257.2192 233.7281 255.5873 C 230.9576 253.5244 225.6625 251.5993 225.6625 251.5993 C 225.6625 251.5993 231.8728 248.4916 235.411 248.5756 C 239.4521 248.6716 245.0835 252.0605 245.0835 252.0605 Z " data-paper-data="{&quot;origPos&quot;:null}" fill="#b0b0b0" stroke="none" stroke-width="20"/><path d="M 272.9292 272.5065 C 272.9292 272.5065 275.3868 276.3541 277.5784 277.9859 C 280.3489 280.0489 285.644 281.974 285.644 281.974 C 285.644 281.974 279.4337 285.0816 275.8955 284.9976 C 271.8544 284.9017 266.223 281.5128 266.223 281.5128 Z " data-paper-data="{&quot;origPos&quot;:null,&quot;index&quot;:null}" fill="#b0b0b0" stroke="none" stroke-width="20"/><path d="M 261.3508 249.3508 C 261.3508 249.3508 265.1981 246.8928 266.8297 244.701 C 268.8924 241.9302 270.8169 236.635 270.8169 236.635 C 270.8169 236.635 273.9252 242.8449 273.8416 246.3831 C 273.746 250.4242 270.3578 256.0559 270.3578 256.0559 Z " data-paper-data="{&quot;origPos&quot;:null,&quot;index&quot;:null,&quot;origRot&quot;:0}" fill="#b0b0b0" stroke="none" stroke-width="20"/><path d="M 249.815 283.2546 C 249.815 283.2546 245.9677 285.7126 244.3361 287.9044 C 242.2734 290.6752 240.3488 295.9704 240.3488 295.9704 C 240.3488 295.9704 237.2406 289.7605 237.3242 286.2223 C 237.4198 282.1812 240.808 276.5494 240.808 276.5494 Z " data-paper-data="{&quot;origPos&quot;:null,&quot;index&quot;:null,&quot;origRot&quot;:0}" fill="#b0b0b0" stroke="none" stroke-width="20"/><path d="M 239.2997 275.5938 C 239.2997 275.5938 234.8226 274.7 232.1274 275.1496 C 228.7203 275.7179 223.6633 278.202 223.6633 278.202 C 223.6633 278.202 225.7255 271.5709 228.2377 269.0778 C 231.1069 266.2305 237.4523 264.518 237.4523 264.518 Z " data-paper-data="{&quot;origPos&quot;:null,&quot;origRot&quot;:0}" fill="#b0b0b0" stroke="none" stroke-width="20"/><path d="M 271.4886 258.6064 C 271.4886 258.6064 275.9657 259.5002 278.6609 259.0506 C 282.0681 258.4823 287.125 255.9982 287.125 255.9982 C 287.125 255.9982 285.0628 262.6293 282.5507 265.1223 C 279.6815 267.9697 273.336 269.6821 273.336 269.6821 Z " data-paper-data="{&quot;origPos&quot;:null,&quot;index&quot;:null,&quot;origRot&quot;:0}" fill="#b0b0b0" stroke="none" stroke-width="20"/><path d="M 246.7696 250.9109 C 246.7696 250.9109 247.663 246.4337 247.2132 243.7385 C 246.6445 240.3315 244.1598 235.2748 244.1598 235.2748 C 244.1598 235.2748 250.7912 237.3362 253.2844 239.8481 C 256.1321 242.717 257.8452 249.0622 257.8452 249.0622 Z " data-paper-data="{&quot;origPos&quot;:null,&quot;index&quot;:null,&quot;origRot&quot;:0}" fill="#b0b0b0" stroke="none" stroke-width="20"/><path d="M 263.2233 282.7201 C 263.2233 282.7201 262.3299 287.1973 262.7798 289.8925 C 263.3484 293.2995 265.8331 298.3562 265.8331 298.3562 C 265.8331 298.3562 259.2017 296.2947 256.7085 293.7829 C 253.8608 290.914 252.1477 284.5688 252.1477 284.5688 Z " data-paper-data="{&quot;origPos&quot;:null,&quot;index&quot;:null,&quot;origRot&quot;:0}" fill="#b0b0b0" stroke="none" stroke-width="20"/></g><g data-paper-data="{&quot;origPos&quot;:null}" stroke-linecap="butt"><path d="M 317.0666 274.4788 C 312.7202 280.3159 304.4647 281.5245 298.6275 277.178 C 292.7904 272.8316 291.5818 264.5761 295.9283 258.739 C 300.2747 252.9018 308.5302 251.6933 314.3673 256.0397 C 320.2045 260.3861 321.4131 268.6416 317.0666 274.4788 Z " data-paper-data="{&quot;origPos&quot;:null}" fill="none" stroke="#b0b0b0" stroke-width="15"/><path d="M 289.3773 261.0668 C 289.3773 261.0668 286.9197 257.2192 284.7281 255.5873 C 281.9576 253.5244 276.6625 251.5993 276.6625 251.5993 C 276.6625 251.5993 282.8728 248.4916 286.411 248.5756 C 290.4521 248.6716 296.0835 252.0605 296.0835 252.0605 Z " data-paper-data="{&quot;origPos&quot;:null}" fill="#b0b0b0" stroke="none" stroke-width="20"/><path d="M 323.9292 272.5065 C 323.9292 272.5065 326.3868 276.3541 328.5784 277.9859 C 331.3489 280.0489 336.644 281.974 336.644 281.974 C 336.644 281.974 330.4337 285.0816 326.8955 284.9976 C 322.8544 284.9017 317.223 281.5128 317.223 281.5128 Z " data-paper-data="{&quot;origPos&quot;:null,&quot;index&quot;:null}" fill="#b0b0b0" stroke="none" stroke-width="20"/><path d="M 312.3508 249.3508 C 312.3508 249.3508 316.1981 246.8928 317.8297 244.701 C 319.8924 241.9302 321.8169 236.635 321.8169 236.635 C 321.8169 236.635 324.9252 242.8449 324.8416 246.3831 C 324.746 250.4242 321.3578 256.0559 321.3578 256.0559 Z " data-paper-data="{&quot;origPos&quot;:null,&quot;index&quot;:null,&quot;origRot&quot;:0}" fill="#b0b0b0" stroke="none" stroke-width="20"/><path d="M 300.815 283.2546 C 300.815 283.2546 296.9677 285.7126 295.3361 287.9044 C 293.2734 290.6752 291.3488 295.9704 291.3488 295.9704 C 291.3488 295.9704 288.2405 289.7605 288.3242 286.2223 C 288.4198 282.1812 291.808 276.5494 291.808 276.5494 Z " data-paper-data="{&quot;origPos&quot;:null,&quot;index&quot;:null,&quot;origRot&quot;:0}" fill="#b0b0b0" stroke="none" stroke-width="20"/><path d="M 290.2997 275.5938 C 290.2997 275.5938 285.8226 274.7 283.1274 275.1496 C 279.7203 275.7179 274.6633 278.202 274.6633 278.202 C 274.6633 278.202 276.7255 271.5709 279.2376 269.0778 C 282.1069 266.2305 288.4523 264.518 288.4523 264.518 Z " data-paper-data="{&quot;origPos&quot;:null,&quot;origRot&quot;:0}" fill="#b0b0b0" stroke="none" stroke-width="20"/><path d="M 322.4886 258.6064 C 322.4886 258.6064 326.9657 259.5002 329.6609 259.0506 C 333.0681 258.4823 338.125 255.9982 338.125 255.9982 C 338.125 255.9982 336.0628 262.6293 333.5507 265.1223 C 330.6815 267.9697 324.336 269.6821 324.336 269.6821 Z " data-paper-data="{&quot;origPos&quot;:null,&quot;index&quot;:null,&quot;origRot&quot;:0}" fill="#b0b0b0" stroke="none" stroke-width="20"/><path d="M 297.7696 250.9109 C 297.7696 250.9109 298.663 246.4337 298.2131 243.7385 C 297.6445 240.3315 295.1598 235.2748 295.1598 235.2748 C 295.1598 235.2748 301.7912 237.3362 304.2844 239.8481 C 307.1321 242.717 308.8452 249.0622 308.8452 249.0622 Z " data-paper-data="{&quot;origPos&quot;:null,&quot;index&quot;:null,&quot;origRot&quot;:0}" fill="#b0b0b0" stroke="none" stroke-width="20"/><path d="M 314.2233 282.7201 C 314.2233 282.7201 313.3299 287.1973 313.7798 289.8925 C 314.3484 293.2995 316.8331 298.3562 316.8331 298.3562 C 316.8331 298.3562 310.2017 296.2947 307.7085 293.7829 C 304.8608 290.914 303.1477 284.5688 303.1477 284.5688 Z " data-paper-data="{&quot;origPos&quot;:null,&quot;index&quot;:null,&quot;origRot&quot;:0}" fill="#b0b0b0" stroke="none" stroke-width="20"/></g><g data-paper-data="{&quot;origPos&quot;:null}" stroke-linecap="butt"><path d="M 368.0666 273.4788 C 363.7202 279.3159 355.4647 280.5245 349.6276 276.178 C 343.7904 271.8316 342.5819 263.5761 346.9283 257.739 C 351.2747 251.9018 359.5302 250.6933 365.3674 255.0397 C 371.2045 259.3861 372.4131 267.6416 368.0666 273.4788 Z " data-paper-data="{&quot;origPos&quot;:null}" fill="none" stroke="#b0b0b0" stroke-width="15"/><path d="M 340.3773 260.0668 C 340.3773 260.0668 337.9197 256.2192 335.7281 254.5873 C 332.9576 252.5244 327.6625 250.5993 327.6625 250.5993 C 327.6625 250.5993 333.8728 247.4916 337.411 247.5756 C 341.4521 247.6716 347.0835 251.0605 347.0835 251.0605 Z " data-paper-data="{&quot;origPos&quot;:null}" fill="#b0b0b0" stroke="none" stroke-width="20"/><path d="M 374.9292 271.5065 C 374.9292 271.5065 377.3868 275.3541 379.5784 276.9859 C 382.3489 279.0489 387.644 280.974 387.644 280.974 C 387.644 280.974 381.4337 284.0816 377.8955 283.9976 C 373.8544 283.9017 368.223 280.5128 368.223 280.5128 Z " data-paper-data="{&quot;origPos&quot;:null,&quot;index&quot;:null}" fill="#b0b0b0" stroke="none" stroke-width="20"/><path d="M 363.3508 248.3508 C 363.3508 248.3508 367.1981 245.8928 368.8297 243.701 C 370.8924 240.9302 372.8169 235.635 372.8169 235.635 C 372.8169 235.635 375.9252 241.8449 375.8416 245.3831 C 375.746 249.4242 372.3578 255.0559 372.3578 255.0559 Z " data-paper-data="{&quot;origPos&quot;:null,&quot;index&quot;:null,&quot;origRot&quot;:0}" fill="#b0b0b0" stroke="none" stroke-width="20"/><path d="M 351.815 282.2546 C 351.815 282.2546 347.9677 284.7126 346.3361 286.9044 C 344.2734 289.6752 342.3488 294.9704 342.3488 294.9704 C 342.3488 294.9704 339.2405 288.7605 339.3242 285.2223 C 339.4198 281.1812 342.808 275.5494 342.808 275.5494 Z " data-paper-data="{&quot;origPos&quot;:null,&quot;index&quot;:null,&quot;origRot&quot;:0}" fill="#b0b0b0" stroke="none" stroke-width="20"/><path d="M 341.2997 274.5938 C 341.2997 274.5938 336.8226 273.7 334.1274 274.1496 C 330.7203 274.7179 325.6633 277.202 325.6633 277.202 C 325.6633 277.202 327.7255 270.5709 330.2376 268.0778 C 333.1069 265.2305 339.4523 263.518 339.4523 263.518 Z " data-paper-data="{&quot;origPos&quot;:null,&quot;origRot&quot;:0}" fill="#b0b0b0" stroke="none" stroke-width="20"/><path d="M 373.4886 257.6064 C 373.4886 257.6064 377.9657 258.5002 380.6609 258.0506 C 384.0681 257.4823 389.125 254.9982 389.125 254.9982 C 389.125 254.9982 387.0628 261.6293 384.5507 264.1223 C 381.6815 266.9697 375.336 268.6821 375.336 268.6821 Z " data-paper-data="{&quot;origPos&quot;:null,&quot;index&quot;:null,&quot;origRot&quot;:0}" fill="#b0b0b0" stroke="none" stroke-width="20"/><path d="M 348.7696 249.9109 C 348.7696 249.9109 349.663 245.4337 349.2131 242.7385 C 348.6445 239.3315 346.1598 234.2748 346.1598 234.2748 C 346.1598 234.2748 352.7912 236.3362 355.2844 238.8481 C 358.1321 241.717 359.8452 248.0622 359.8452 248.0622 Z " data-paper-data="{&quot;origPos&quot;:null,&quot;index&quot;:null,&quot;origRot&quot;:0}" fill="#b0b0b0" stroke="none" stroke-width="20"/><path d="M 365.2233 281.7201 C 365.2233 281.7201 364.3299 286.1973 364.7798 288.8925 C 365.3484 292.2995 367.8331 297.3562 367.8331 297.3562 C 367.8331 297.3562 361.2017 295.2947 358.7085 292.7829 C 355.8608 289.914 354.1477 283.5688 354.1477 283.5688 Z " data-paper-data="{&quot;origPos&quot;:null,&quot;index&quot;:null,&quot;origRot&quot;:0}" fill="#b0b0b0" stroke="none" stroke-width="20"/></g><g data-paper-data="{&quot;origPos&quot;:null}" stroke-linecap="butt"><path d="M 418.0666 273.4788 C 413.7202 279.3159 405.4647 280.5245 399.6276 276.178 C 393.7904 271.8316 392.5819 263.5761 396.9283 257.739 C 401.2747 251.9018 409.5302 250.6933 415.3674 255.0397 C 421.2045 259.3861 422.4131 267.6416 418.0666 273.4788 Z " data-paper-data="{&quot;origPos&quot;:null}" fill="none" stroke="#b0b0b0" stroke-width="15"/><path d="M 390.3773 260.0668 C 390.3773 260.0668 387.9197 256.2192 385.7281 254.5873 C 382.9576 252.5244 377.6625 250.5993 377.6625 250.5993 C 377.6625 250.5993 383.8728 247.4916 387.411 247.5756 C 391.4521 247.6716 397.0835 251.0605 397.0835 251.0605 Z " data-paper-data="{&quot;origPos&quot;:null}" fill="#b0b0b0" stroke="none" stroke-width="20"/><path d="M 424.9292 271.5065 C 424.9292 271.5065 427.3868 275.3541 429.5784 276.9859 C 432.3489 279.0489 437.644 280.974 437.644 280.974 C 437.644 280.974 431.4337 284.0816 427.8955 283.9976 C 423.8544 283.9017 418.223 280.5128 418.223 280.5128 Z " data-paper-data="{&quot;origPos&quot;:null,&quot;index&quot;:null}" fill="#b0b0b0" stroke="none" stroke-width="20"/><path d="M 413.3508 248.3508 C 413.3508 248.3508 417.1981 245.8928 418.8297 243.701 C 420.8924 240.9302 422.8169 235.635 422.8169 235.635 C 422.8169 235.635 425.9252 241.8449 425.8416 245.3831 C 425.746 249.4242 422.3578 255.0559 422.3578 255.0559 Z " data-paper-data="{&quot;origPos&quot;:null,&quot;index&quot;:null,&quot;origRot&quot;:0}" fill="#b0b0b0" stroke="none" stroke-width="20"/><path d="M 401.815 282.2546 C 401.815 282.2546 397.9677 284.7126 396.3361 286.9044 C 394.2734 289.6752 392.3488 294.9704 392.3488 294.9704 C 392.3488 294.9704 389.2405 288.7605 389.3242 285.2223 C 389.4198 281.1812 392.808 275.5494 392.808 275.5494 Z " data-paper-data="{&quot;origPos&quot;:null,&quot;index&quot;:null,&quot;origRot&quot;:0}" fill="#b0b0b0" stroke="none" stroke-width="20"/><path d="M 391.2997 274.5938 C 391.2997 274.5938 386.8226 273.7 384.1274 274.1496 C 380.7203 274.7179 375.6633 277.202 375.6633 277.202 C 375.6633 277.202 377.7255 270.5709 380.2376 268.0778 C 383.1069 265.2305 389.4523 263.518 389.4523 263.518 Z " data-paper-data="{&quot;origPos&quot;:null,&quot;origRot&quot;:0}" fill="#b0b0b0" stroke="none" stroke-width="20"/><path d="M 423.4886 257.6064 C 423.4886 257.6064 427.9657 258.5002 430.6609 258.0506 C 434.0681 257.4823 439.125 254.9982 439.125 254.9982 C 439.125 254.9982 437.0628 261.6293 434.5507 264.1223 C 431.6815 266.9697 425.336 268.6821 425.336 268.6821 Z " data-paper-data="{&quot;origPos&quot;:null,&quot;index&quot;:null,&quot;origRot&quot;:0}" fill="#b0b0b0" stroke="none" stroke-width="20"/><path d="M 398.7696 249.9109 C 398.7696 249.9109 399.663 245.4337 399.2131 242.7385 C 398.6445 239.3315 396.1598 234.2748 396.1598 234.2748 C 396.1598 234.2748 402.7912 236.3362 405.2844 238.8481 C 408.1321 241.717 409.8452 248.0622 409.8452 248.0622 Z " data-paper-data="{&quot;origPos&quot;:null,&quot;index&quot;:null,&quot;origRot&quot;:0}" fill="#b0b0b0" stroke="none" stroke-width="20"/><path d="M 415.2233 281.7201 C 415.2233 281.7201 414.3299 286.1973 414.7798 288.8925 C 415.3484 292.2995 417.8331 297.3562 417.8331 297.3562 C 417.8331 297.3562 411.2017 295.2947 408.7085 292.7829 C 405.8608 289.914 404.1477 283.5688 404.1477 283.5688 Z " data-paper-data="{&quot;origPos&quot;:null,&quot;index&quot;:null,&quot;origRot&quot;:0}" fill="#b0b0b0" stroke="none" stroke-width="20"/></g><g data-paper-data="{&quot;origPos&quot;:null}" stroke-linecap="butt"><path d="M 470.0666 273.4788 C 465.7202 279.3159 457.4647 280.5245 451.6276 276.178 C 445.7904 271.8316 444.5819 263.5761 448.9283 257.739 C 453.2747 251.9018 461.5302 250.6933 467.3674 255.0397 C 473.2045 259.3861 474.4131 267.6416 470.0666 273.4788 Z " data-paper-data="{&quot;origPos&quot;:null}" fill="none" stroke="#b0b0b0" stroke-width="15"/><path d="M 442.3773 260.0668 C 442.3773 260.0668 439.9197 256.2192 437.7281 254.5873 C 434.9576 252.5244 429.6625 250.5993 429.6625 250.5993 C 429.6625 250.5993 435.8728 247.4916 439.411 247.5756 C 443.4521 247.6716 449.0835 251.0605 449.0835 251.0605 Z " data-paper-data="{&quot;origPos&quot;:null}" fill="#b0b0b0" stroke="none" stroke-width="20"/><path d="M 476.9292 271.5065 C 476.9292 271.5065 479.3868 275.3541 481.5784 276.9859 C 484.3489 279.0489 489.644 280.974 489.644 280.974 C 489.644 280.974 483.4337 284.0816 479.8955 283.9976 C 475.8544 283.9017 470.223 280.5128 470.223 280.5128 Z " data-paper-data="{&quot;origPos&quot;:null,&quot;index&quot;:null}" fill="#b0b0b0" stroke="none" stroke-width="20"/><path d="M 465.3508 248.3508 C 465.3508 248.3508 469.1981 245.8928 470.8297 243.701 C 472.8924 240.9302 474.8169 235.635 474.8169 235.635 C 474.8169 235.635 477.9252 241.8449 477.8416 245.3831 C 477.746 249.4242 474.3578 255.0559 474.3578 255.0559 Z " data-paper-data="{&quot;origPos&quot;:null,&quot;index&quot;:null,&quot;origRot&quot;:0}" fill="#b0b0b0" stroke="none" stroke-width="20"/><path d="M 453.815 282.2546 C 453.815 282.2546 449.9677 284.7126 448.3361 286.9044 C 446.2734 289.6752 444.3488 294.9704 444.3488 294.9704 C 444.3488 294.9704 441.2405 288.7605 441.3242 285.2223 C 441.4198 281.1812 444.808 275.5494 444.808 275.5494 Z " data-paper-data="{&quot;origPos&quot;:null,&quot;index&quot;:null,&quot;origRot&quot;:0}" fill="#b0b0b0" stroke="none" stroke-width="20"/><path d="M 443.2997 274.5938 C 443.2997 274.5938 438.8226 273.7 436.1274 274.1496 C 432.7203 274.7179 427.6633 277.202 427.6633 277.202 C 427.6633 277.202 429.7255 270.5709 432.2376 268.0778 C 435.1069 265.2305 441.4523 263.518 441.4523 263.518 Z " data-paper-data="{&quot;origPos&quot;:null,&quot;origRot&quot;:0}" fill="#b0b0b0" stroke="none" stroke-width="20"/><path d="M 475.4886 257.6064 C 475.4886 257.6064 479.9657 258.5002 482.6609 258.0506 C 486.0681 257.4823 491.125 254.9982 491.125 254.9982 C 491.125 254.9982 489.0628 261.6293 486.5507 264.1223 C 483.6815 266.9697 477.336 268.6821 477.336 268.6821 Z " data-paper-data="{&quot;origPos&quot;:null,&quot;index&quot;:null,&quot;origRot&quot;:0}" fill="#b0b0b0" stroke="none" stroke-width="20"/><path d="M 450.7696 249.9109 C 450.7696 249.9109 451.663 245.4337 451.2131 242.7385 C 450.6445 239.3315 448.1598 234.2748 448.1598 234.2748 C 448.1598 234.2748 454.7912 236.3362 457.2844 238.8481 C 460.1321 241.717 461.8452 248.0622 461.8452 248.0622 Z " data-paper-data="{&quot;origPos&quot;:null,&quot;index&quot;:null,&quot;origRot&quot;:0}" fill="#b0b0b0" stroke="none" stroke-width="20"/><path d="M 467.2233 281.7201 C 467.2233 281.7201 466.3299 286.1973 466.7798 288.8925 C 467.3484 292.2995 469.8331 297.3562 469.8331 297.3562 C 469.8331 297.3562 463.2017 295.2947 460.7085 292.7829 C 457.8608 289.914 456.1477 283.5688 456.1477 283.5688 Z " data-paper-data="{&quot;origPos&quot;:null,&quot;index&quot;:null,&quot;origRot&quot;:0}" fill="#b0b0b0" stroke="none" stroke-width="20"/></g><g data-paper-data="{&quot;origPos&quot;:null}" stroke-linecap="butt"><path d="M 214.0666 225.4788 C 209.7202 231.3159 201.4647 232.5245 195.6276 228.178 C 189.7904 223.8316 188.5819 215.5761 192.9283 209.739 C 197.2747 203.9018 205.5302 202.6933 211.3674 207.0397 C 217.2045 211.3861 218.4131 219.6416 214.0666 225.4788 Z " data-paper-data="{&quot;origPos&quot;:null}" fill="none" stroke="#b0b0b0" stroke-width="15"/><path d="M 186.3773 212.0668 C 186.3773 212.0668 183.9197 208.2192 181.7281 206.5873 C 178.9576 204.5244 173.6625 202.5993 173.6625 202.5993 C 173.6625 202.5993 179.8728 199.4916 183.411 199.5756 C 187.4521 199.6716 193.0835 203.0605 193.0835 203.0605 Z " data-paper-data="{&quot;origPos&quot;:null}" fill="#b0b0b0" stroke="none" stroke-width="20"/><path d="M 220.9292 223.5065 C 220.9292 223.5065 223.3869 227.3541 225.5784 228.9859 C 228.349 231.0489 233.644 232.974 233.644 232.974 C 233.644 232.974 227.4337 236.0816 223.8955 235.9976 C 219.8544 235.9017 214.223 232.5128 214.223 232.5128 Z " data-paper-data="{&quot;origPos&quot;:null,&quot;index&quot;:null}" fill="#b0b0b0" stroke="none" stroke-width="20"/><path d="M 209.3508 200.3508 C 209.3508 200.3508 213.1981 197.8928 214.8297 195.701 C 216.8924 192.9302 218.8169 187.635 218.8169 187.635 C 218.8169 187.635 221.9252 193.8449 221.8416 197.3831 C 221.746 201.4242 218.3578 207.0559 218.3578 207.0559 Z " data-paper-data="{&quot;origPos&quot;:null,&quot;index&quot;:null,&quot;origRot&quot;:0}" fill="#b0b0b0" stroke="none" stroke-width="20"/><path d="M 197.815 234.2546 C 197.815 234.2546 193.9677 236.7126 192.3361 238.9044 C 190.2734 241.6752 188.3488 246.9704 188.3488 246.9704 C 188.3488 246.9704 185.2406 240.7605 185.3242 237.2223 C 185.4198 233.1812 188.808 227.5494 188.808 227.5494 Z " data-paper-data="{&quot;origPos&quot;:null,&quot;index&quot;:null,&quot;origRot&quot;:0}" fill="#b0b0b0" stroke="none" stroke-width="20"/><path d="M 187.2997 226.5938 C 187.2997 226.5938 182.8226 225.7 180.1274 226.1496 C 176.7203 226.7179 171.6633 229.202 171.6633 229.202 C 171.6633 229.202 173.7255 222.5709 176.2377 220.0778 C 179.1069 217.2305 185.4523 215.518 185.4523 215.518 Z " data-paper-data="{&quot;origPos&quot;:null,&quot;origRot&quot;:0}" fill="#b0b0b0" stroke="none" stroke-width="20"/><path d="M 219.4886 209.6064 C 219.4886 209.6064 223.9657 210.5002 226.6609 210.0506 C 230.0681 209.4823 235.125 206.9982 235.125 206.9982 C 235.125 206.9982 233.0628 213.6293 230.5507 216.1223 C 227.6815 218.9697 221.336 220.6821 221.336 220.6821 Z " data-paper-data="{&quot;origPos&quot;:null,&quot;index&quot;:null,&quot;origRot&quot;:0}" fill="#b0b0b0" stroke="none" stroke-width="20"/><path d="M 194.7696 201.9109 C 194.7696 201.9109 195.663 197.4337 195.2132 194.7385 C 194.6445 191.3315 192.1598 186.2748 192.1598 186.2748 C 192.1598 186.2748 198.7912 188.3362 201.2844 190.8481 C 204.1321 193.717 205.8452 200.0622 205.8452 200.0622 Z " data-paper-data="{&quot;origPos&quot;:null,&quot;index&quot;:null,&quot;origRot&quot;:0}" fill="#b0b0b0" stroke="none" stroke-width="20"/><path d="M 211.2233 233.7201 C 211.2233 233.7201 210.3299 238.1973 210.7798 240.8925 C 211.3484 244.2995 213.8331 249.3562 213.8331 249.3562 C 213.8331 249.3562 207.2017 247.2947 204.7085 244.7829 C 201.8608 241.914 200.1477 235.5688 200.1477 235.5688 Z " data-paper-data="{&quot;origPos&quot;:null,&quot;index&quot;:null,&quot;origRot&quot;:0}" fill="#b0b0b0" stroke="none" stroke-width="20"/></g><g data-paper-data="{&quot;origPos&quot;:null}" stroke-linecap="butt"><path d="M 264.0666 224.4788 C 259.7202 230.3159 251.4647 231.5245 245.6276 227.178 C 239.7904 222.8316 238.5819 214.5761 242.9283 208.739 C 247.2747 202.9018 255.5302 201.6933 261.3674 206.0397 C 267.2045 210.3861 268.4131 218.6416 264.0666 224.4788 Z " data-paper-data="{&quot;origPos&quot;:null}" fill="none" stroke="#b0b0b0" stroke-width="15"/><path d="M 236.3773 211.0668 C 236.3773 211.0668 233.9197 207.2192 231.7281 205.5873 C 228.9576 203.5244 223.6625 201.5993 223.6625 201.5993 C 223.6625 201.5993 229.8728 198.4916 233.411 198.5756 C 237.4521 198.6716 243.0835 202.0605 243.0835 202.0605 Z " data-paper-data="{&quot;origPos&quot;:null}" fill="#b0b0b0" stroke="none" stroke-width="20"/><path d="M 270.9292 222.5065 C 270.9292 222.5065 273.3868 226.3541 275.5784 227.9859 C 278.349 230.0489 283.644 231.974 283.644 231.974 C 283.644 231.974 277.4337 235.0816 273.8955 234.9976 C 269.8544 234.9017 264.223 231.5128 264.223 231.5128 Z " data-paper-data="{&quot;origPos&quot;:null,&quot;index&quot;:null}" fill="#b0b0b0" stroke="none" stroke-width="20"/><path d="M 259.3508 199.3508 C 259.3508 199.3508 263.1981 196.8928 264.8297 194.701 C 266.8924 191.9302 268.8169 186.635 268.8169 186.635 C 268.8169 186.635 271.9252 192.8449 271.8416 196.3831 C 271.746 200.4242 268.3578 206.0559 268.3578 206.0559 Z " data-paper-data="{&quot;origPos&quot;:null,&quot;index&quot;:null,&quot;origRot&quot;:0}" fill="#b0b0b0" stroke="none" stroke-width="20"/><path d="M 247.815 233.2546 C 247.815 233.2546 243.9677 235.7126 242.3361 237.9044 C 240.2734 240.6752 238.3488 245.9704 238.3488 245.9704 C 238.3488 245.9704 235.2406 239.7605 235.3242 236.2223 C 235.4198 232.1812 238.808 226.5494 238.808 226.5494 Z " data-paper-data="{&quot;origPos&quot;:null,&quot;index&quot;:null,&quot;origRot&quot;:0}" fill="#b0b0b0" stroke="none" stroke-width="20"/><path d="M 237.2997 225.5938 C 237.2997 225.5938 232.8226 224.7 230.1274 225.1496 C 226.7203 225.7179 221.6633 228.202 221.6633 228.202 C 221.6633 228.202 223.7255 221.5709 226.2377 219.0778 C 229.1069 216.2305 235.4523 214.518 235.4523 214.518 Z " data-paper-data="{&quot;origPos&quot;:null,&quot;origRot&quot;:0}" fill="#b0b0b0" stroke="none" stroke-width="20"/><path d="M 269.4886 208.6064 C 269.4886 208.6064 273.9657 209.5002 276.6609 209.0506 C 280.0681 208.4823 285.125 205.9982 285.125 205.9982 C 285.125 205.9982 283.0628 212.6293 280.5507 215.1223 C 277.6815 217.9697 271.336 219.6821 271.336 219.6821 Z " data-paper-data="{&quot;origPos&quot;:null,&quot;index&quot;:null,&quot;origRot&quot;:0}" fill="#b0b0b0" stroke="none" stroke-width="20"/><path d="M 244.7696 200.9109 C 244.7696 200.9109 245.663 196.4337 245.2132 193.7385 C 244.6445 190.3315 242.1598 185.2748 242.1598 185.2748 C 242.1598 185.2748 248.7912 187.3362 251.2844 189.8481 C 254.1321 192.717 255.8452 199.0622 255.8452 199.0622 Z " data-paper-data="{&quot;origPos&quot;:null,&quot;index&quot;:null,&quot;origRot&quot;:0}" fill="#b0b0b0" stroke="none" stroke-width="20"/><path d="M 261.2233 232.7201 C 261.2233 232.7201 260.3299 237.1973 260.7798 239.8925 C 261.3484 243.2995 263.8331 248.3562 263.8331 248.3562 C 263.8331 248.3562 257.2017 246.2947 254.7085 243.7829 C 251.8608 240.914 250.1477 234.5688 250.1477 234.5688 Z " data-paper-data="{&quot;origPos&quot;:null,&quot;index&quot;:null,&quot;origRot&quot;:0}" fill="#b0b0b0" stroke="none" stroke-width="20"/></g><g data-paper-data="{&quot;origPos&quot;:null}" stroke-linecap="butt"><path d="M 315.0666 224.4788 C 310.7202 230.3159 302.4647 231.5245 296.6275 227.178 C 290.7904 222.8316 289.5818 214.5761 293.9283 208.739 C 298.2747 202.9018 306.5302 201.6933 312.3673 206.0397 C 318.2045 210.3861 319.4131 218.6416 315.0666 224.4788 Z " data-paper-data="{&quot;origPos&quot;:null}" fill="none" stroke="#b0b0b0" stroke-width="15"/><path d="M 287.3773 211.0668 C 287.3773 211.0668 284.9197 207.2192 282.7281 205.5873 C 279.9576 203.5244 274.6625 201.5993 274.6625 201.5993 C 274.6625 201.5993 280.8728 198.4916 284.411 198.5756 C 288.4521 198.6716 294.0835 202.0605 294.0835 202.0605 Z " data-paper-data="{&quot;origPos&quot;:null}" fill="#b0b0b0" stroke="none" stroke-width="20"/><path d="M 321.9292 222.5065 C 321.9292 222.5065 324.3868 226.3541 326.5784 227.9859 C 329.3489 230.0489 334.644 231.974 334.644 231.974 C 334.644 231.974 328.4337 235.0816 324.8955 234.9976 C 320.8544 234.9017 315.223 231.5128 315.223 231.5128 Z " data-paper-data="{&quot;origPos&quot;:null,&quot;index&quot;:null}" fill="#b0b0b0" stroke="none" stroke-width="20"/><path d="M 310.3508 199.3508 C 310.3508 199.3508 314.1981 196.8928 315.8297 194.701 C 317.8924 191.9302 319.8169 186.635 319.8169 186.635 C 319.8169 186.635 322.9252 192.8449 322.8416 196.3831 C 322.746 200.4242 319.3578 206.0559 319.3578 206.0559 Z " data-paper-data="{&quot;origPos&quot;:null,&quot;index&quot;:null,&quot;origRot&quot;:0}" fill="#b0b0b0" stroke="none" stroke-width="20"/><path d="M 298.815 233.2546 C 298.815 233.2546 294.9677 235.7126 293.3361 237.9044 C 291.2734 240.6752 289.3488 245.9704 289.3488 245.9704 C 289.3488 245.9704 286.2405 239.7605 286.3242 236.2223 C 286.4198 232.1812 289.808 226.5494 289.808 226.5494 Z " data-paper-data="{&quot;origPos&quot;:null,&quot;index&quot;:null,&quot;origRot&quot;:0}" fill="#b0b0b0" stroke="none" stroke-width="20"/><path d="M 288.2997 225.5938 C 288.2997 225.5938 283.8226 224.7 281.1274 225.1496 C 277.7203 225.7179 272.6633 228.202 272.6633 228.202 C 272.6633 228.202 274.7255 221.5709 277.2376 219.0778 C 280.1069 216.2305 286.4523 214.518 286.4523 214.518 Z " data-paper-data="{&quot;origPos&quot;:null,&quot;origRot&quot;:0}" fill="#b0b0b0" stroke="none" stroke-width="20"/><path d="M 320.4886 208.6064 C 320.4886 208.6064 324.9657 209.5002 327.6609 209.0506 C 331.0681 208.4823 336.125 205.9982 336.125 205.9982 C 336.125 205.9982 334.0628 212.6293 331.5507 215.1223 C 328.6815 217.9697 322.336 219.6821 322.336 219.6821 Z " data-paper-data="{&quot;origPos&quot;:null,&quot;index&quot;:null,&quot;origRot&quot;:0}" fill="#b0b0b0" stroke="none" stroke-width="20"/><path d="M 295.7696 200.9109 C 295.7696 200.9109 296.663 196.4337 296.2131 193.7385 C 295.6445 190.3315 293.1598 185.2748 293.1598 185.2748 C 293.1598 185.2748 299.7912 187.3362 302.2844 189.8481 C 305.1321 192.717 306.8452 199.0622 306.8452 199.0622 Z " data-paper-data="{&quot;origPos&quot;:null,&quot;index&quot;:null,&quot;origRot&quot;:0}" fill="#b0b0b0" stroke="none" stroke-width="20"/><path d="M 312.2233 232.7201 C 312.2233 232.7201 311.3299 237.1973 311.7798 239.8925 C 312.3484 243.2995 314.8331 248.3562 314.8331 248.3562 C 314.8331 248.3562 308.2017 246.2947 305.7085 243.7829 C 302.8608 240.914 301.1477 234.5688 301.1477 234.5688 Z " data-paper-data="{&quot;origPos&quot;:null,&quot;index&quot;:null,&quot;origRot&quot;:0}" fill="#b0b0b0" stroke="none" stroke-width="20"/></g><g data-paper-data="{&quot;origPos&quot;:null,&quot;origRot&quot;:0}" stroke-linecap="butt"><path d="M 260.179 174.6245 C 256.8488 181.0955 248.9034 183.6417 242.4324 180.3116 C 235.9614 176.9814 233.4152 169.036 236.7453 162.565 C 240.0755 156.0939 248.0209 153.5477 254.4919 156.8779 C 260.9629 160.208 263.5092 168.1534 260.179 174.6245 Z " data-paper-data="{&quot;origPos&quot;:null}" fill="none" stroke="#b0b0b0" stroke-width="15"/><path d="M 230.6649 165.9357 C 230.6649 165.9357 227.6094 162.5434 225.1799 161.2931 C 222.1085 159.7125 216.5694 158.6819 216.5694 158.6819 C 216.5694 158.6819 222.1859 154.5978 225.6899 154.1003 C 229.6921 153.5322 235.803 155.9515 235.803 155.9515 Z " data-paper-data="{&quot;origPos&quot;:null}" fill="#b0b0b0" stroke="none" stroke-width="20"/><path d="M 266.6252 171.5533 C 266.6252 171.5533 269.6806 174.9457 272.1102 176.196 C 275.1815 177.7765 280.7206 178.8071 280.7206 178.8071 C 280.7206 178.8071 275.1041 182.8913 271.6001 183.3887 C 267.598 183.9569 261.487 181.5376 261.487 181.5376 Z " data-paper-data="{&quot;origPos&quot;:null,&quot;index&quot;:null}" fill="#b0b0b0" stroke="none" stroke-width="20"/><path d="M 251.4055 150.6103 C 251.4055 150.6103 254.7976 147.5545 256.0476 145.1248 C 257.6279 142.0533 258.6579 136.514 258.6579 136.514 C 258.6579 136.514 262.7426 142.1301 263.2404 145.6341 C 263.809 149.6361 261.3903 155.7473 261.3903 155.7473 Z " data-paper-data="{&quot;origPos&quot;:null,&quot;index&quot;:null,&quot;origRot&quot;:0}" fill="#b0b0b0" stroke="none" stroke-width="20"/><path d="M 245.5869 185.9471 C 245.5869 185.9471 242.1949 189.0028 240.9449 191.4325 C 239.3646 194.5041 238.3346 200.0433 238.3346 200.0433 C 238.3346 200.0433 234.2498 194.4273 233.752 190.9233 C 233.1835 186.9212 235.6021 180.81 235.6021 180.81 Z " data-paper-data="{&quot;origPos&quot;:null,&quot;index&quot;:null,&quot;origRot&quot;:0}" fill="#b0b0b0" stroke="none" stroke-width="20"/><path d="M 233.9575 180.1148 C 233.9575 180.1148 229.3944 179.9674 226.8095 180.8529 C 223.5417 181.9724 218.9607 185.2523 218.9607 185.2523 C 218.9607 185.2523 219.9073 178.3727 221.9765 175.5014 C 224.3398 172.222 230.3185 169.492 230.3185 169.492 Z " data-paper-data="{&quot;origPos&quot;:null,&quot;origRot&quot;:0}" fill="#b0b0b0" stroke="none" stroke-width="20"/><path d="M 262.9242 158.0777 C 262.9242 158.0777 267.4873 158.2251 270.0722 157.3395 C 273.34 156.2201 277.921 152.9402 277.921 152.9402 C 277.921 152.9402 276.9744 159.8197 274.9052 162.691 C 272.5419 165.9705 266.5632 168.7005 266.5632 168.7005 Z " data-paper-data="{&quot;origPos&quot;:null,&quot;index&quot;:null,&quot;origRot&quot;:0}" fill="#b0b0b0" stroke="none" stroke-width="20"/><path d="M 237.2778 154.5409 C 237.2778 154.5409 237.4247 149.9778 236.5388 147.3929 C 235.4191 144.1253 232.1386 139.5446 232.1386 139.5446 C 232.1386 139.5446 239.0183 140.4905 241.8898 142.5593 C 245.1695 144.9223 247.9001 150.9006 247.9001 150.9006 Z " data-paper-data="{&quot;origPos&quot;:null,&quot;index&quot;:null,&quot;origRot&quot;:0}" fill="#b0b0b0" stroke="none" stroke-width="20"/><path d="M 258.7259 183.2205 C 258.7259 183.2205 258.579 187.7836 259.4648 190.3685 C 260.5846 193.6362 263.8651 198.2169 263.8651 198.2169 C 263.8651 198.2169 256.9854 197.271 254.1139 195.2021 C 250.8342 192.8391 248.1036 186.8608 248.1036 186.8608 Z " data-paper-data="{&quot;origPos&quot;:null,&quot;index&quot;:null,&quot;origRot&quot;:0}" fill="#b0b0b0" stroke="none" stroke-width="20"/></g><g data-paper-data="{&quot;origPos&quot;:null}" stroke-linecap="butt"><path d="M 503.6276 277.178 C 497.7904 272.8316 496.5818 264.5761 500.9283 258.739 C 505.2747 252.9018 509.4647 281.5245 503.6276 277.178 Z " data-paper-data="{&quot;origPos&quot;:null}" fill="none" stroke="#b0b0b0" stroke-width="15"/><path d="M 494.3773 261.0668 C 494.3773 261.0668 491.9197 257.2192 489.7281 255.5873 C 486.9576 253.5244 481.6625 251.5993 481.6625 251.5993 C 481.6625 251.5993 487.8728 248.4916 491.411 248.5756 C 495.4521 248.6716 501.0835 252.0605 501.0835 252.0605 Z " data-paper-data="{&quot;origPos&quot;:null}" fill="#b0b0b0" stroke="none" stroke-width="20"/><path d="" data-paper-data="{&quot;origPos&quot;:null,&quot;index&quot;:null}" fill="#b0b0b0" stroke="none" stroke-width="20" transform="matrix(1,0,0,1,15.32507,-78.45761)"/><path d="" data-paper-data="{&quot;origPos&quot;:null,&quot;index&quot;:null,&quot;origRot&quot;:0}" fill="#b0b0b0" stroke="none" stroke-width="20" transform="matrix(1,0,0,1,15.32507,-78.45761)"/><path d="M 505.815 283.2546 C 505.815 283.2546 501.9677 285.7126 500.3361 287.9044 C 498.2734 290.6752 496.3488 295.9704 496.3488 295.9704 C 496.3488 295.9704 493.2405 289.7605 493.3242 286.2223 C 493.4198 282.1812 496.808 276.5494 496.808 276.5494 Z " data-paper-data="{&quot;origPos&quot;:null,&quot;index&quot;:null,&quot;origRot&quot;:0}" fill="#b0b0b0" stroke="none" stroke-width="20"/><path d="M 495.2997 275.5938 C 495.2997 275.5938 490.8226 274.7 488.1274 275.1496 C 484.7203 275.7179 479.6633 278.202 479.6633 278.202 C 479.6633 278.202 481.7255 271.5709 484.2376 269.0778 C 487.1069 266.2305 493.4523 264.518 493.4523 264.518 Z " data-paper-data="{&quot;origPos&quot;:null,&quot;origRot&quot;:0}" fill="#b0b0b0" stroke="none" stroke-width="20"/><path d="" data-paper-data="{&quot;origPos&quot;:null,&quot;index&quot;:null,&quot;origRot&quot;:0}" fill="#b0b0b0" stroke="none" stroke-width="20" transform="matrix(1,0,0,1,15.32507,-78.45761)"/><path d="" data-paper-data="{&quot;origPos&quot;:null,&quot;index&quot;:null,&quot;origRot&quot;:0}" fill="#b0b0b0" stroke="none" stroke-width="20" transform="matrix(1,0,0,1,15.32507,-78.45761)"/></g><g data-paper-data="{&quot;origPos&quot;:null}" stroke-linecap="butt"><path d="M 13.0666 279.4788 C 8.7202 285.3159 4.5302 256.6933 10.3674 261.0397 C 16.2045 265.3861 17.4131 273.6416 13.0666 279.4788 Z " data-paper-data="{&quot;origPos&quot;:null}" fill="none" stroke="#b0b0b0" stroke-width="15"/><path d="" data-paper-data="{&quot;origPos&quot;:null}" fill="#b0b0b0" stroke="none" stroke-width="20" transform="matrix(1,0,0,1,15.32507,-78.45761)"/><path d="M 19.9292 277.5065 C 19.9292 277.5065 22.3869 281.3541 24.5784 282.9859 C 27.349 285.0489 32.644 286.974 32.644 286.974 C 32.644 286.974 26.4337 290.0816 22.8955 289.9976 C 18.8544 289.9017 13.223 286.5128 13.223 286.5128 Z " data-paper-data="{&quot;origPos&quot;:null,&quot;index&quot;:null}" fill="#b0b0b0" stroke="none" stroke-width="20"/><path d="M 8.3508 254.3508 C 8.3508 254.3508 12.1981 251.8928 13.8297 249.701 C 15.8924 246.9302 17.8169 241.635 17.8169 241.635 C 17.8169 241.635 20.9252 247.8449 20.8416 251.3831 C 20.746 255.4242 17.3578 261.0559 17.3578 261.0559 Z " data-paper-data="{&quot;origPos&quot;:null,&quot;index&quot;:null,&quot;origRot&quot;:0}" fill="#b0b0b0" stroke="none" stroke-width="20"/><path d="" data-paper-data="{&quot;origPos&quot;:null,&quot;index&quot;:null,&quot;origRot&quot;:0}" fill="#b0b0b0" stroke="none" stroke-width="20" transform="matrix(1,0,0,1,15.32507,-78.45761)"/><path d="" data-paper-data="{&quot;origPos&quot;:null,&quot;origRot&quot;:0}" fill="#b0b0b0" stroke="none" stroke-width="20" transform="matrix(1,0,0,1,15.32507,-78.45761)"/><path d="M 18.4886 263.6064 C 18.4886 263.6064 22.9657 264.5002 25.6609 264.0506 C 29.0681 263.4823 34.125 260.9982 34.125 260.9982 C 34.125 260.9982 32.0628 267.6293 29.5507 270.1223 C 26.6815 272.9697 20.336 274.6821 20.336 274.6821 Z " data-paper-data="{&quot;origPos&quot;:null,&quot;index&quot;:null,&quot;origRot&quot;:0}" fill="#b0b0b0" stroke="none" stroke-width="20"/><path d="M 4.8452 254.0622 Z " data-paper-data="{&quot;origPos&quot;:null,&quot;index&quot;:null,&quot;origRot&quot;:0}" fill="#b0b0b0" stroke="none" stroke-width="20"/></g><path d="M 174.6483 236.7924 L 174.6483 242.7924 " fill="none" stroke="#000000" stroke-width="0.5" stroke-linecap="round"/><path d="M 176.6483 237.5424 L 176.6483 244.0424 " fill="none" stroke="#000000" stroke-width="0.5" stroke-linecap="round"/><path d="M 178.6483 239.2924 L 178.8983 246.2924 " fill="none" stroke="#000000" stroke-width="0.5" stroke-linecap="round"/><path d="M 174.3983 230.2924 L 169.6483 230.2924 " fill="none" stroke="#000000" stroke-width="0.5" stroke-linecap="round"/><path d="M 177.1483 231.5424 L 172.1483 231.2924 " fill="none" stroke="#000000" stroke-width="0.5" stroke-linecap="round"/><path d="M 175.3983 232.7924 L 179.8983 233.5424 " fill="none" stroke="#000000" stroke-width="0.5" stroke-linecap="round"/><g data-paper-data="{&quot;origRot&quot;:0,&quot;origPos&quot;:null}" stroke-linecap="butt"><path d="M432.79643,161.18826l-18.84362,-51.25174l69.95987,-29.16201l-0.43419,59.78524z" stroke-width="0" fill="#7d7d7d" stroke="none" transform="matrix(1,0,0,1,15.32507,-78.45761)"/><path d="M420.52472,160.88314l-15.4175,-41.93324l21.9972,-9.0711l15.4175,41.93324z" data-paper-data="{&quot;origPos&quot;:null}" stroke-width="0" fill="#7d7d7d" stroke="none" transform="matrix(1,0,0,1,15.32507,-78.45761)"/></g><g data-paper-data="{&quot;origRot&quot;:0,&quot;origPos&quot;:null,&quot;index&quot;:null}" stroke-linecap="butt"><path d="M-3.76166,78.45761l71.79719,30.47891l-18.47268,51.25174l-52.56239,-21.55673z" stroke-width="0" fill="#7d7d7d" stroke="none" transform="matrix(1,0,0,1,15.32507,-78.45761)"/><path d="M40.02882,150.81204l15.11401,-41.93324l21.56418,9.07111l-15.11401,41.93324z" data-paper-data="{&quot;origPos&quot;:null}" stroke-width="0" fill="#7d7d7d" stroke="none" transform="matrix(1,0,0,1,15.32507,-78.45761)"/></g></g></g></svg>