<svg xmlns="http://www.w3.org/2000/svg" xmlns:xlink="http://www.w3.org/1999/xlink" version="1.1" width="20.87483" height="24.65584" viewBox="0,0,20.87483,24.65584"><g><g data-paper-data="{&quot;isPaintingLayer&quot;:true}" fill-rule="nonzero" stroke-linecap="none" stroke-linejoin="miter" stroke-miterlimit="10" stroke-dasharray="" stroke-dashoffset="0" font-family="none" font-weight="none" font-size="none" text-anchor="none" style="mix-blend-mode: normal"><g data-paper-data="{&quot;origPos&quot;:null}"><g data-paper-data="{&quot;origPos&quot;:null,&quot;index&quot;:null}"><path d="M 7.5822 22.8183 C 7.5573 21.0456 12.1876 18.2948 14.2065 18.2664 C 16.2254 18.238 17.8822 19.652 17.9071 21.4247 C 17.932 23.1974 16.3429 24.3775 14.324 24.4058 C 12.3052 24.4342 7.6072 24.591 7.5822 22.8183 Z " data-paper-data="{&quot;origPos&quot;:null}" fill="#16a600" stroke="#000000" stroke-linecap="butt" stroke-width="0.5"/><path d="M 8.8601 0.641 C 11.5811 -0.2276 14.2118 0.3994 14.736 2.0414 C 15.2601 3.6833 12.8978 4.8712 10.1769 5.7398 C 7.4558 6.6084 3.6409 8.1021 3.1168 6.4601 C 2.5926 4.8181 6.1392 1.5096 8.8602 0.641 Z " data-paper-data="{&quot;origRot&quot;:0,&quot;origPos&quot;:null}" fill="#16a600" stroke="#000000" stroke-linecap="butt" stroke-width="0.5"/><path d="M 16.231 10.0337 C 14.2121 10.0621 10.3189 8.5563 10.2939 6.7836 C 10.269 5.0109 14.1219 3.6427 16.1407 3.6143 C 18.1596 3.5859 19.8165 4.9999 19.8414 6.7726 C 19.8663 8.5453 18.2499 10.0053 16.231 10.0337 Z " data-paper-data="{&quot;origPos&quot;:null}" fill="#16a600" stroke="#000000" stroke-linecap="butt" stroke-width="0.5"/><path d="M 13.3138 11.8582 C 13.2889 10.0856 14.9053 8.6255 16.9242 8.5971 C 18.9431 8.5687 20.5999 9.9828 20.6248 11.7555 C 20.6497 13.5281 19.0333 14.9882 17.0144 15.0166 C 14.9955 15.0449 13.3387 13.6309 13.3138 11.8582 Z " data-paper-data="{&quot;origPos&quot;:null}" fill="#16a600" stroke="#000000" stroke-linecap="butt" stroke-width="0.5"/><path d="M 16.723 19.6578 C 14.7041 19.6862 13.0472 18.2722 13.0223 16.4995 C 12.9974 14.7268 14.6138 13.2668 16.6327 13.2384 C 18.6516 13.21 20.3084 14.624 20.3333 16.3967 C 20.3583 18.1694 18.7418 19.6294 16.723 19.6578 Z " data-paper-data="{&quot;origPos&quot;:null}" fill="#16a600" stroke="#000000" stroke-linecap="butt" stroke-width="0.5"/><path d="M 0.2535 13.7362 C 0.1721 7.938 2.2755 4.4766 7.1873 4.4076 C 8.4705 4.3896 8.5989 4.2169 9.775 4.7304 C 13.3033 6.2708 17.9751 8.8144 18.0407 13.4861 C 18.1222 19.2843 14.2065 24.0406 9.2947 24.1096 C 4.3829 24.1787 0.335 19.5343 0.2535 13.7362 Z " data-paper-data="{&quot;origPos&quot;:null}" fill="#16a600" stroke="#000000" stroke-linecap="butt" stroke-width="0.5"/><path d="M 8.8231 23.5274 C 8.8231 23.5274 7.8913 7.0191 7.9368 6.9567 C 8.0734 6.7696 14.4099 4.0393 14.4099 4.0393 C 15.9347 5.4364 16.2092 5.0737 17.2333 6.8704 C 19.2135 10.3443 19.0467 15.5687 17.4294 19.2257 C 16.5044 21.3174 15.4283 22.6238 13.4487 23.7528 C 12.7888 24.1291 11.507 24.0688 11.507 24.0688 L 8.8231 23.5274 Z " data-paper-data="{&quot;origPos&quot;:null}" fill="#16a600" stroke="none" stroke-linecap="butt" stroke-width="0.5"/><path d="M 10.6662 5.1758 L 14.4926 3.8581 " data-paper-data="{&quot;origPos&quot;:null}" fill="none" stroke="#000000" stroke-linecap="round" stroke-width="0.5"/><path d="M 15.0747 9.0926 C 15.0747 9.0926 15.908 8.7513 16.4972 8.6918 C 17.1274 8.6281 18.1993 8.7769 18.1993 8.7769 " data-paper-data="{&quot;origPos&quot;:null}" fill="none" stroke="#000000" stroke-linecap="round" stroke-width="0.5"/><path d="M 15.6354 14.0278 C 15.6354 14.0278 16.6828 13.4872 17.3058 13.5148 C 18.0871 13.5494 19.2336 14.1874 19.2336 14.1874 " data-paper-data="{&quot;origPos&quot;:null}" fill="none" stroke="#000000" stroke-linecap="round" stroke-width="0.5"/><path d="M 8.6208 5.6057 L 3.2978 6.777 C 3.2978 6.777 3.312 5.9024 3.7055 5.1373 C 4.0015 4.5615 5.0647 3.341 5.0647 3.341 L 8.4646 1.4602 Z " data-paper-data="{&quot;origPos&quot;:null}" fill="#16a600" stroke="none" stroke-linecap="butt" stroke-width="0.5"/></g><path d="M 14.1082 19.392 C 14.1082 19.392 15.2869 19.0894 15.9357 19.1219 C 16.522 19.1513 17.273 19.5507 17.273 19.5507 " data-paper-data="{&quot;origPos&quot;:null}" fill="none" stroke="#000000" stroke-linecap="round" stroke-width="0.5"/></g></g></g></svg>