<svg version="1.1" xmlns="http://www.w3.org/2000/svg" xmlns:xlink="http://www.w3.org/1999/xlink" width="29.9091" height="18.25592" viewBox="0,0,29.9091,18.25592"><g transform="translate(-219.79545,-170.99704)"><g data-paper-data="{&quot;isPaintingLayer&quot;:true}" fill-rule="nonzero" stroke="none" stroke-width="0" stroke-linecap="butt" stroke-linejoin="miter" stroke-miterlimit="10" stroke-dasharray="" stroke-dashoffset="0" style="mix-blend-mode: normal"><g><path d="M219.79545,180.125c0,0 13.65572,-9.12796 19.43848,-9.12796c5.78277,0 10.47062,4.08673 10.47062,9.12796c0,5.04124 -4.68786,9.12796 -10.47062,9.12796c-5.78277,0 -19.43848,-9.12796 -19.43848,-9.12796z" data-paper-data="{&quot;origPos&quot;:null}" fill="#00ebff"/><path d="M222.96158,180.10454c0,0 11.35267,-7.82321 16.30885,-7.82321c4.95617,0 8.97394,3.50256 8.97394,7.82321c0,4.32064 -4.01777,7.82321 -8.97394,7.82321c-4.95618,0 -16.30885,-7.82321 -16.30885,-7.82321z" data-paper-data="{&quot;origPos&quot;:null}" fill="#00ccde"/><path d="M225.80804,180.11174c0,0 9.24022,-6.5768 13.40677,-6.5768c4.16655,0 7.5442,2.94454 7.5442,6.5768c0,3.63226 -3.37765,6.5768 -7.5442,6.5768c-4.16655,0 -13.40677,-6.5768 -13.40677,-6.5768z" data-paper-data="{&quot;origPos&quot;:null}" fill="#00abb9"/><path d="M228.50691,180.02952c0,0 7.27749,-5.30917 10.64097,-5.30917c3.36348,0 6.09012,2.37699 6.09012,5.30917c0,2.93218 -2.72664,5.30918 -6.09012,5.30918c-3.36348,0 -10.64097,-5.30918 -10.64097,-5.30918z" data-paper-data="{&quot;origPos&quot;:null}" fill="#007b85"/><path d="M231.70042,180.15151c0,0 5.05927,-3.90895 7.53568,-3.90895c2.47641,0 4.48393,1.75009 4.48393,3.90895c0,2.15885 -2.00752,3.90895 -4.48393,3.90895c-2.47641,0 -7.53568,-3.90895 -7.53568,-3.90895z" data-paper-data="{&quot;origPos&quot;:null}" fill="#005f5d"/></g></g></g></svg>