<svg xmlns="http://www.w3.org/2000/svg" xmlns:xlink="http://www.w3.org/1999/xlink" version="1.1" width="486.18303" height="276.40668" viewBox="0,0,486.18303,276.40668"><defs><linearGradient x1="231.26478" y1="185.87761" x2="264.76478" y2="185.87761" gradientUnits="userSpaceOnUse" id="color-1"><stop offset="0" stop-color="#000000"/><stop offset="1" stop-color="#000000" stop-opacity="0"/></linearGradient><linearGradient x1="294.26478" y1="185.87761" x2="260.76478" y2="185.87761" gradientUnits="userSpaceOnUse" id="color-2"><stop offset="0" stop-color="#000000"/><stop offset="1" stop-color="#000000" stop-opacity="0"/></linearGradient><linearGradient x1="262.8195" y1="154.62769" x2="262.71004" y2="188.12752" gradientUnits="userSpaceOnUse" id="color-3"><stop offset="0" stop-color="#000000"/><stop offset="1" stop-color="#000000" stop-opacity="0"/></linearGradient></defs><g><g data-paper-data="{&quot;isPaintingLayer&quot;:true}" fill-rule="nonzero" stroke-linejoin="miter" stroke-miterlimit="10" stroke-dasharray="" stroke-dashoffset="0" style="mix-blend-mode: normal"><path d="M-3.16545,363.76828v-23.0872h486.18303v23.0872z" data-paper-data="{&quot;origPos&quot;:null}" fill="#654000" stroke="none" stroke-width="0" stroke-linecap="butt" transform="matrix(1,0,0,1,3.16546,-87.36159)"/><path d="M174.559,341.69146v-159l86.5,-80l89.5,80v159z" data-paper-data="{&quot;origPos&quot;:null}" fill="#b77400" stroke="none" stroke-width="0" stroke-linecap="butt" transform="matrix(1,0,0,1,3.16546,-87.36159)"/><path d="M 160.5226 100.4618 L 263.0855 0.3453 L 371.4795 101.1321 L 343.3665 101.3918 L 263.2241 28.7755 L 191.4669 98.0619 Z " data-paper-data="{&quot;origPos&quot;:null,&quot;origRot&quot;:0}" fill="#955f00" stroke="#955f00" stroke-width="0.5" stroke-linecap="round"/><path d="M 173.7245 253.8299 L 173.7245 96.8299 L 179.7245 96.8299 L 179.7245 253.8299 Z " data-paper-data="{&quot;origPos&quot;:null}" fill="#955f00" stroke="#955f00" stroke-width="0.5" stroke-linecap="butt"/><path d="M 348.7245 253.8299 L 348.7245 96.8299 L 354.7245 96.8299 L 354.7245 253.8299 Z " data-paper-data="{&quot;origPos&quot;:null}" fill="#955f00" stroke="#955f00" stroke-width="0.5" stroke-linecap="butt"/><path d="M 200.7245 253.3299 L 200.7245 185.3299 L 250.7245 185.3299 L 250.7245 253.3299 Z " data-paper-data="{&quot;origPos&quot;:null}" fill="#955f00" stroke="#955f00" stroke-width="0.5" stroke-linecap="butt"/><path d="M 245.7245 224.3299 C 245.7245 227.0913 243.262 229.3299 240.2245 229.3299 C 237.1869 229.3299 234.7245 227.0913 234.7245 224.3299 C 234.7245 221.5685 237.1869 219.3299 240.2245 219.3299 C 243.262 219.3299 245.7245 221.5685 245.7245 224.3299 Z " data-paper-data="{&quot;origPos&quot;:null}" fill="#f8f000" stroke="#fffa00" stroke-width="0.5" stroke-linecap="butt"/><path d="M347.559,287.69146v-9h47v9z" data-paper-data="{&quot;origPos&quot;:null}" fill="#955f00" stroke="none" stroke-width="0" stroke-linecap="butt" transform="matrix(1,0,0,1,3.16546,-87.36159)"/><path d="M422.559,231.69146v-9h58v9z" data-paper-data="{&quot;origPos&quot;:null}" fill="#955f00" stroke="none" stroke-width="0" stroke-linecap="butt" transform="matrix(1,0,0,1,3.16546,-87.36159)"/><path d="M 270.7245 229.6488 L 270.7245 169.6488 L 330.7245 169.6488 L 330.7245 229.6488 Z " data-paper-data="{&quot;origPos&quot;:null}" fill="#000b33" stroke="#955f00" stroke-width="5" stroke-linecap="butt"/><path d="M 232.2245 132.6488 L 232.2245 64.6488 L 300.2245 64.6488 L 300.2245 132.6488 Z " data-paper-data="{&quot;origPos&quot;:null}" fill="#001662" stroke="#955f00" stroke-width="5" stroke-linecap="butt"/><g data-paper-data="{&quot;origPos&quot;:null}"><path d="M243.96583,198.57198c0,-10.32135 8.36711,-18.68846 18.68846,-18.68846c10.32135,0 18.68845,8.36711 18.68845,18.68846c0,10.32135 -8.3671,18.68845 -18.68845,18.68845c-10.32135,0 -18.68846,-8.3671 -18.68846,-18.68845z" data-paper-data="{&quot;origPos&quot;:null}" fill="#e2caca" stroke="none" stroke-width="0" stroke-linecap="butt" transform="matrix(1,0,0,1,3.16546,-87.36159)"/><path d="M251.44121,193.35478c0,-2.70935 2.19637,-4.90572 4.90572,-4.90572c2.70935,0 4.90571,2.19637 4.90571,4.90572c0,2.70935 -2.19637,4.90572 -4.90571,4.90572c-2.70935,0 -4.90572,-2.19637 -4.90572,-4.90572z" data-paper-data="{&quot;origPos&quot;:null}" fill="#ffffff" stroke="none" stroke-width="0" stroke-linecap="butt" transform="matrix(1,0,0,1,3.16546,-87.36159)"/><path d="M254.08874,193.19905c0,-1.24716 1.01103,-2.25819 2.25819,-2.25819c1.24716,0 2.25818,1.01103 2.25818,2.25819c0,1.24716 -1.01102,2.25819 -2.25818,2.25819c-1.24716,0 -2.25819,-1.01103 -2.25819,-2.25819z" data-paper-data="{&quot;origPos&quot;:null}" fill="#ff0000" stroke="none" stroke-width="0" stroke-linecap="butt" transform="matrix(1,0,0,1,3.16546,-87.36159)"/><path d="M263.90017,193.35478c0,-2.70935 2.19637,-4.90572 4.90572,-4.90572c2.70935,0 4.90571,2.19637 4.90571,4.90572c0,2.70935 -2.19637,4.90572 -4.90571,4.90572c-2.70935,0 -4.90572,-2.19637 -4.90572,-4.90572z" data-paper-data="{&quot;origPos&quot;:null}" fill="#ffffff" stroke="none" stroke-width="0" stroke-linecap="butt" transform="matrix(1,0,0,1,3.16546,-87.36159)"/><path d="M266.70344,193.51052c0,-1.24716 1.01103,-2.25819 2.25819,-2.25819c1.24716,0 2.25819,1.01103 2.25819,2.25819c0,1.24716 -1.01103,2.25818 -2.25819,2.25818c-1.24716,0 -2.25819,-1.01102 -2.25819,-2.25818z" data-paper-data="{&quot;origPos&quot;:null}" fill="#ff0000" stroke="none" stroke-width="0" stroke-linecap="butt" transform="matrix(1,0,0,1,3.16546,-87.36159)"/><path d="M 275.2159 116.3757 C 275.2159 116.3757 270.7224 123.9808 265.8197 123.9808 C 260.9171 123.9808 256.9427 116.168 256.9427 116.168 C 256.9427 116.168 260.8133 117.4918 265.7159 117.4918 C 270.6185 117.4918 275.2159 116.3757 275.2159 116.3757 Z " data-paper-data="{&quot;origPos&quot;:null}" fill="#ffffff" stroke="#ff0000" stroke-width="2" stroke-linecap="butt"/><path d="M256.34532,176.78988c0,-3.65547 2.96335,-6.61883 6.61883,-6.61883c3.65548,0 6.61883,2.96335 6.61883,6.61883c0,3.65547 -2.96335,6.61882 -6.61883,6.61882c-3.65548,0 -6.61883,-2.96335 -6.61883,-6.61882z" data-paper-data="{&quot;origPos&quot;:null}" fill="#ff0000" stroke="none" stroke-width="0" stroke-linecap="butt" transform="matrix(1,0,0,1,3.16546,-87.36159)"/><path d="M 263.7969 102.7331 L 257.5674 99.9921 " data-paper-data="{&quot;origPos&quot;:null}" fill="none" stroke="#000000" stroke-width="2.5" stroke-linecap="round"/><path d="M 274.2624 100.2413 L 268.0329 102.9823 " data-paper-data="{&quot;origPos&quot;:null,&quot;index&quot;:null}" fill="none" stroke="#000000" stroke-width="2.5" stroke-linecap="round"/><path d="M266.26058,180.00845c0,-3.65547 2.96335,-6.61882 6.61883,-6.61882c3.65548,0 6.61883,2.96335 6.61883,6.61882c0,3.65547 -2.96335,6.61883 -6.61883,6.61883c-3.65548,0 -6.61883,-2.96336 -6.61883,-6.61883z" data-paper-data="{&quot;origPos&quot;:null}" fill="#ff0000" stroke="none" stroke-width="0" stroke-linecap="butt" transform="matrix(1,0,0,1,3.16546,-87.36159)"/><path d="M246.68961,178.71064c0,-3.65547 2.96335,-6.61883 6.61883,-6.61883c3.65548,0 6.61883,2.96335 6.61883,6.61883c0,3.65547 -2.96335,6.61882 -6.61883,6.61882c-3.65547,0 -6.61883,-2.96335 -6.61883,-6.61882z" data-paper-data="{&quot;origPos&quot;:null}" fill="#ff0000" stroke="none" stroke-width="0" stroke-linecap="butt" transform="matrix(1,0,0,1,3.16546,-87.36159)"/><path d="M273.52831,187.27618c0,-3.65547 2.96335,-6.61883 6.61882,-6.61883c3.65548,0 6.61883,2.96335 6.61883,6.61883c0,3.65547 -2.96335,6.61882 -6.61883,6.61882c-3.65548,0 -6.61882,-2.96335 -6.61882,-6.61882z" data-paper-data="{&quot;origPos&quot;:null}" fill="#ff0000" stroke="none" stroke-width="0" stroke-linecap="butt" transform="matrix(1,0,0,1,3.16546,-87.36159)"/><path d="M239.68144,186.65323c0,-3.65547 2.96336,-6.61883 6.61883,-6.61883c3.65547,0 6.61882,2.96335 6.61882,6.61883c0,3.65547 -2.96335,6.61883 -6.61882,6.61883c-3.65547,0 -6.61883,-2.96336 -6.61883,-6.61883z" data-paper-data="{&quot;origPos&quot;:null}" fill="#ff0000" stroke="none" stroke-width="0" stroke-linecap="butt" transform="matrix(1,0,0,1,3.16546,-87.36159)"/></g><path d="M 327.6802 172.141 L 273.1802 226.641 " fill="none" stroke="#b3b3b3" stroke-width="2.5" stroke-linecap="round"/><path d="M 273.1802 172.141 L 327.6802 226.641 " fill="none" stroke="#b3b3b3" stroke-width="2.5" stroke-linecap="round"/><path d="M 328.1802 199.641 L 272.9302 199.641 " data-paper-data="{&quot;origPos&quot;:null}" fill="none" stroke="#b3b3b3" stroke-width="2.5" stroke-linecap="round"/><path d="M 300.4302 226.891 L 300.4302 171.891 " data-paper-data="{&quot;origPos&quot;:null}" fill="none" stroke="#b3b3b3" stroke-width="2.5" stroke-linecap="round"/><path d="M 290.6802 199.016 C 290.6802 193.5622 295.1014 189.141 300.5552 189.141 C 306.009 189.141 310.4302 193.5622 310.4302 199.016 C 310.4302 204.4698 306.009 208.891 300.5552 208.891 C 295.1014 208.891 290.6802 204.4698 290.6802 199.016 Z " data-paper-data="{&quot;origPos&quot;:null}" fill="none" stroke="#b3b3b3" stroke-width="2.5" stroke-linecap="butt"/><path d="M 283.9302 199.766 C 283.9302 190.5843 291.3734 183.141 300.5552 183.141 C 309.7369 183.141 317.1802 190.5843 317.1802 199.766 C 317.1802 208.9478 309.7369 216.391 300.5552 216.391 C 291.3734 216.391 283.9302 208.9478 283.9302 199.766 Z " data-paper-data="{&quot;origPos&quot;:null}" fill="none" stroke="#b3b3b3" stroke-width="2.5" stroke-linecap="butt"/><path d="M 277.6802 199.391 C 277.6802 186.8265 287.8657 176.641 300.4302 176.641 C 312.9947 176.641 323.1802 186.8265 323.1802 199.391 C 323.1802 211.9555 312.9947 222.141 300.4302 222.141 C 287.8657 222.141 277.6802 211.9555 277.6802 199.391 Z " data-paper-data="{&quot;origPos&quot;:null}" fill="none" stroke="#b3b3b3" stroke-width="2.5" stroke-linecap="butt"/><path d="M107.02952,341.50521l0.72185,-30.97606l8.85956,-30.00928l1.11918,-34.37993l13.06361,0.17757l3.73313,34.50406l-7.03736,30.2359l3.04003,30.44774z" data-paper-data="{&quot;origPos&quot;:null}" fill="#4b2f00" stroke="none" stroke-width="0" stroke-linecap="butt" transform="matrix(1,0,0,1,3.16546,-87.36159)"/><path d="M 121.695 159.1436 L 99.695 169.1436 " fill="none" stroke="#4b2f00" stroke-width="3" stroke-linecap="round"/><path d="M 105.195 165.1436 L 92.195 163.1436 " fill="none" stroke="#4b2f00" stroke-width="3" stroke-linecap="round"/><path d="M 114.695 163.1436 L 110.695 175.1436 " fill="none" stroke="#4b2f00" stroke-width="3" stroke-linecap="round"/><path d="M 104.695 145.1436 L 125.195 159.1436 " fill="none" stroke="#4b2f00" stroke-width="3" stroke-linecap="round"/><path d="M 114.195 142.6436 L 116.195 152.1436 " fill="none" stroke="#4b2f00" stroke-width="3" stroke-linecap="round"/><path d="M 152.195 118.6436 L 157.195 129.1436 L 129.195 161.6436 L 118.695 125.1436 " data-paper-data="{&quot;origPos&quot;:null}" fill="none" stroke="#4b2f00" stroke-width="3" stroke-linecap="round"/><path d="M 113.695 129.6436 L 121.695 135.1436 " fill="none" stroke="#4b2f00" stroke-width="3" stroke-linecap="round"/><path d="M 128.195 134.6436 L 125.195 144.6436 " data-paper-data="{&quot;origPos&quot;:null}" fill="none" stroke="#4b2f00" stroke-width="3" stroke-linecap="round"/><g data-paper-data="{&quot;origPos&quot;:null,&quot;origRot&quot;:0,&quot;index&quot;:null}" stroke-linecap="round"><path d="M 132.8574 186.5733 L 153.5488 171.1504 " stroke-width="3" fill="none" stroke="#4b2f00"/><path d="M 146.6212 174.7916 L 147.4892 168.2727 " stroke-width="3" fill="none" stroke="#4b2f00"/><path d="M 143.7131 179.3516 L 148.3136 184.2592 " stroke-width="3" fill="none" stroke="#4b2f00"/></g><g data-paper-data="{&quot;origPos&quot;:null,&quot;origRot&quot;:0}" stroke-linecap="round"><path d="M 152.4105 208.1202 L 127.6248 215.3081 " stroke-width="3" fill="none" stroke="#4b2f00"/><path d="M 145.3259 211.4456 L 151.0473 214.6884 " stroke-width="3" fill="none" stroke="#4b2f00"/><path d="M 138.799 204.3817 L 139.935 211.0119 " stroke-width="3" fill="none" stroke="#4b2f00"/></g><path d="M 140.195 148.6436 L 153.695 149.6436 " fill="none" stroke="#4b2f00" stroke-width="3" stroke-linecap="round"/><path d="M 145.195 142.1436 L 144.695 130.1436 " fill="none" stroke="#4b2f00" stroke-width="3" stroke-linecap="round"/><path d="M 154.695 131.6436 L 162.195 134.1436 " fill="none" stroke="#4b2f00" stroke-width="3" stroke-linecap="round"/><path d="M 161.195 123.1436 L 156.695 128.6436 " fill="none" stroke="#4b2f00" stroke-width="3" stroke-linecap="round"/><path d="M 138.195 119.6436 L 130.195 159.1436 " data-paper-data="{&quot;origPos&quot;:null}" fill="none" stroke="#4b2f00" stroke-width="3" stroke-linecap="round"/><path d="M 127.695 123.6436 L 134.195 139.1436 " data-paper-data="{&quot;origPos&quot;:null}" fill="none" stroke="#4b2f00" stroke-width="3" stroke-linecap="round"/><path d="M 144.195 122.6436 L 137.195 125.6436 " fill="none" stroke="#4b2f00" stroke-width="3" stroke-linecap="round"/><path d="M 70.5185 252.6419 L 70.5185 225.6419 " fill="none" stroke="#4b2f00" stroke-width="5" stroke-linecap="round"/><g data-paper-data="{&quot;origPos&quot;:null,&quot;origRot&quot;:0,&quot;index&quot;:null}" stroke-linecap="round"><path d="M 79.0669 208.8958 L 71.7674 225.3965 " stroke-width="3" fill="none" stroke="#4b2f00"/><path d="M 85.4657 211.7534 L 76.8609 214.6132 " data-paper-data="{&quot;origPos&quot;:null}" stroke-width="3" fill="none" stroke="#4b2f00"/><path d="M 73.6774 221.3527 L 69.8552 214.4365 " stroke-width="3" fill="none" stroke="#4b2f00"/></g><g data-paper-data="{&quot;origPos&quot;:null}" stroke-linecap="round"><path d="M 53.5185 233.6419 L 69.8518 225.9752 " stroke-width="3" fill="none" stroke="#4b2f00"/><path d="M 56.5185 239.9752 L 59.1851 231.3086 " data-paper-data="{&quot;origPos&quot;:null}" stroke-width="3" fill="none" stroke="#4b2f00"/><path d="M 58.8518 224.3086 L 65.8518 227.9752 " stroke-width="3" fill="none" stroke="#4b2f00"/></g><g stroke-linecap="round"><path d="M 95.195 194.1436 L 119.695 199.6436 " stroke-width="3" fill="none" stroke="#4b2f00"/><path d="M 111.195 197.1436 L 109.195 190.1436 " stroke-width="3" fill="none" stroke="#4b2f00"/></g><g data-paper-data="{&quot;origPos&quot;:null,&quot;origRot&quot;:0}" stroke-linecap="round"><path d="M 71.3199 226.2102 L 56.0097 212.767 " data-paper-data="{&quot;origPos&quot;:null}" stroke-width="3" fill="none" stroke="#4b2f00"/><path d="M 65.0163 219.9841 L 66.5685 212.8714 " stroke-width="3" fill="none" stroke="#4b2f00"/></g><path d="M231.26478,217.25261v-62.75h33.5v62.75z" data-paper-data="{&quot;origPos&quot;:null}" fill="url(#color-1)" stroke="none" stroke-width="NaN" stroke-linecap="butt" transform="matrix(1,0,0,1,3.16546,-87.36159)"/><path d="M260.76478,217.25261v-62.75h33.5v62.75z" data-paper-data="{&quot;origPos&quot;:null,&quot;index&quot;:null}" fill="url(#color-2)" stroke="none" stroke-width="NaN" stroke-linecap="butt" transform="matrix(1,0,0,1,3.16546,-87.36159)"/><path d="M231.44467,154.52516l62.74966,0.20502l-0.10945,33.49982l-62.74967,-0.20502z" data-paper-data="{&quot;origPos&quot;:null,&quot;origRot&quot;:0}" fill="url(#color-3)" stroke="none" stroke-width="NaN" stroke-linecap="butt" transform="matrix(1,0,0,1,3.16546,-87.36159)"/><g data-paper-data="{&quot;origPos&quot;:null,&quot;index&quot;:null,&quot;origRot&quot;:0}" stroke-linecap="butt"><path d="M 138.4474 173.6399 C 137.4803 172.6374 137.5091 171.0407 138.5117 170.0737 C 139.5142 169.1066 141.1109 169.1354 142.0779 170.138 C 143.045 171.1405 143.0162 172.7372 142.0137 173.7042 C 141.0111 174.6713 139.4144 174.6425 138.4474 173.6399 Z " data-paper-data="{&quot;origPos&quot;:null}" fill="none" stroke="#b0b0b0" stroke-width="2.5"/><path d="M138.72067,256.23541c0,0 0.98674,-0.78026 1.75162,-0.8967c0.66968,-0.10195 1.92423,0.33708 1.92423,0.33708c0,0 -0.95847,0.49419 -1.43431,0.95318c-0.37641,0.36308 -0.74947,1.15328 -0.74947,1.15328z" data-paper-data="{&quot;origPos&quot;:null}" fill="#b0b0b0" stroke="none" stroke-width="0" transform="matrix(1,0,0,1,3.16546,-87.36159)"/><path d="M135.42321,262.34073c0,0 -0.98674,0.78025 -1.75162,0.8967c-0.66968,0.10195 -1.92423,-0.33708 -1.92423,-0.33708c0,0 0.95847,-0.49419 1.43431,-0.95318c0.37641,-0.36308 0.74947,-1.15328 0.74947,-1.15328z" data-paper-data="{&quot;origPos&quot;:null,&quot;index&quot;:null}" fill="#b0b0b0" stroke="none" stroke-width="0" transform="matrix(1,0,0,1,3.16546,-87.36159)"/><path d="M134.01947,257.60826c0,0 -0.78015,-0.98683 -0.89651,-1.75171c-0.10188,-0.66969 0.33729,-1.92419 0.33729,-1.92419c0,0 0.49408,0.95853 0.95303,1.43441c0.36304,0.37645 1.1532,0.74959 1.1532,0.74959z" data-paper-data="{&quot;origPos&quot;:null,&quot;index&quot;:null,&quot;origRot&quot;:0}" fill="#b0b0b0" stroke="none" stroke-width="0" transform="matrix(1,0,0,1,3.16546,-87.36159)"/><path d="M140.12759,260.78069c0,0 0.78014,0.98683 0.89651,1.75171c0.10188,0.66969 -0.33728,1.9242 -0.33728,1.9242c0,0 -0.49409,-0.95853 -0.95303,-1.43441c-0.36304,-0.37645 -1.1532,-0.74959 -1.1532,-0.74959z" data-paper-data="{&quot;origPos&quot;:null,&quot;index&quot;:null,&quot;origRot&quot;:0}" fill="#b0b0b0" stroke="none" stroke-width="0" transform="matrix(1,0,0,1,3.16546,-87.36159)"/><path d="M140.47224,258.41498c0,0 1.2463,0.17088 1.86023,0.64171c0.53752,0.41224 1.0902,1.62103 1.0902,1.62103c0,0 -1.02044,-0.3487 -1.6811,-0.37378c-0.52261,-0.01984 -1.35087,0.25868 -1.35087,0.25868z" data-paper-data="{&quot;origPos&quot;:null,&quot;origRot&quot;:0}" fill="#b0b0b0" stroke="none" stroke-width="0" transform="matrix(1,0,0,1,3.16546,-87.36159)"/><path d="M133.78524,260.26758c0,0 -1.2463,-0.17088 -1.86023,-0.64171c-0.53752,-0.41224 -1.0902,-1.62103 -1.0902,-1.62103c0,0 1.02044,0.3487 1.6811,0.37378c0.52261,0.01984 1.35087,-0.25867 1.35087,-0.25867z" data-paper-data="{&quot;origPos&quot;:null,&quot;index&quot;:null,&quot;origRot&quot;:0}" fill="#b0b0b0" stroke="none" stroke-width="0" transform="matrix(1,0,0,1,3.16546,-87.36159)"/><path d="M136.22498,255.97638c0,0 0.17101,-1.24628 0.64191,-1.86016c0.41229,-0.53748 1.62115,-1.09003 1.62115,-1.09003c0,0 -0.34881,1.02041 -0.37396,1.68106c-0.01989,0.5226 0.25853,1.35089 0.25853,1.35089z" data-paper-data="{&quot;origPos&quot;:null,&quot;index&quot;:null,&quot;origRot&quot;:0}" fill="#b0b0b0" stroke="none" stroke-width="0" transform="matrix(1,0,0,1,3.16546,-87.36159)"/><path d="M138.16968,262.57878c0,0 -0.17101,1.24628 -0.64191,1.86016c-0.41229,0.53748 -1.62115,1.09003 -1.62115,1.09003c0,0 0.34881,-1.0204 0.37396,-1.68106c0.01989,-0.5226 -0.25853,-1.3509 -0.25853,-1.3509z" data-paper-data="{&quot;origPos&quot;:null,&quot;index&quot;:null,&quot;origRot&quot;:0}" fill="#b0b0b0" stroke="none" stroke-width="0" transform="matrix(1,0,0,1,3.16546,-87.36159)"/></g></g></g></svg>