<svg xmlns="http://www.w3.org/2000/svg" xmlns:xlink="http://www.w3.org/1999/xlink" version="1.1" width="68.19616" height="160.61297" viewBox="0,0,68.19616,160.61297"><g><g data-paper-data="{&quot;isPaintingLayer&quot;:true}" fill-rule="nonzero" stroke-linejoin="miter" stroke-miterlimit="10" stroke-dasharray="" stroke-dashoffset="0" style="mix-blend-mode: normal"><path d="M 25.6105 52.6471 L 25.6105 119.9442 L 13.5628 158.863 " data-paper-data="{&quot;origPos&quot;:null}" fill="none" stroke="#000000" stroke-width="3.5" stroke-linecap="round"/><path d="M 38.4613 158.6662 L 26.4136 118.5075 " fill="none" stroke="#000000" stroke-width="3.5" stroke-linecap="round"/><path d="M 8.6089 90.5424 L 24.3073 60.971 " data-paper-data="{&quot;origPos&quot;:null}" fill="none" stroke="#000000" stroke-width="3.5" stroke-linecap="round"/><path d="M 66.4462 61.7924 L 26.4977 60.971 " data-paper-data="{&quot;origPos&quot;:null,&quot;index&quot;:null}" fill="none" stroke="#000000" stroke-width="3.5" stroke-linecap="round"/><path d="M 1.5152 29.7566 C 1.5152 15.7838 12.8424 4.4566 26.8152 4.4566 C 40.788 4.4566 52.1152 15.7838 52.1152 29.7566 C 52.1152 43.7294 40.788 55.0566 26.8152 55.0566 C 12.8424 55.0566 1.5152 43.7294 1.5152 29.7566 Z " data-paper-data="{&quot;origPos&quot;:null}" fill="#d4d4d4" stroke="#000000" stroke-width="2.5" stroke-linecap="butt"/><g data-paper-data="{&quot;origPos&quot;:null}" stroke-linecap="round"><path d="M 11.1629 39.0504 L 7.4962 42.217 " data-paper-data="{&quot;origPos&quot;:null}" stroke-width="1.5" fill="none" stroke="#462929"/><path d="M 7.8295 38.717 L 13.9962 46.0503 " data-paper-data="{&quot;origPos&quot;:null}" stroke-width="1.5" fill="none" stroke="#462929"/><path d="M 9.8295 44.5503 L 13.6629 41.217 " data-paper-data="{&quot;origPos&quot;:null}" stroke-width="1.5" fill="none" stroke="#462929"/></g><path d="M238.40158,109.34919c0,-2.66149 2.15756,-4.81905 4.81905,-4.81905c2.66149,0 4.81905,2.15756 4.81905,4.81905c0,2.66149 -2.15756,4.81905 -4.81905,4.81905c-2.66149,0 -4.81905,-2.15756 -4.81905,-4.81905z" data-paper-data="{&quot;origPos&quot;:null}" fill="#000000" stroke="none" stroke-width="0" stroke-linecap="butt" transform="matrix(1,0,0,1,-216.00382,-85.61635)"/><path d="M252.05555,109.34919c0,-2.66148 2.15757,-4.81905 4.81905,-4.81905c2.66148,0 4.81905,2.15757 4.81905,4.81905c0,2.66148 -2.15757,4.81905 -4.81905,4.81905c-2.66148,0 -4.81905,-2.15757 -4.81905,-4.81905z" data-paper-data="{&quot;origPos&quot;:null}" fill="#000000" stroke="none" stroke-width="0" stroke-linecap="butt" transform="matrix(1,0,0,1,-216.00382,-85.61635)"/><path d="M218.70001,128.35002c-7.35,-18.87605 1.63277,-32.42461 11.3,-37.6c9.66723,-5.17539 23.49113,-4.67764 32.25,5c5.58535,6.17122 8.47399,9.82418 7.55058,25.89584c-0.02582,0.44947 -8.30459,-0.03531 -8.30459,-0.03531c0,0 6.52694,-11.40464 0.25031,-17.94736c-3.63565,-3.78978 -20.66558,-3.62012 -23.67962,-0.5974c-7.8356,7.85819 -6.56577,18.51942 -6.56577,18.51942c0,0 -3.93239,1.26673 -6.1933,2.46154c-2.73481,1.44525 -6.60762,4.30326 -6.60762,4.30326z" data-paper-data="{&quot;origPos&quot;:null}" fill="#182a62" stroke="none" stroke-width="0" stroke-linecap="butt" transform="matrix(1,0,0,1,-216.00382,-85.61635)"/><path d="M 31.7438 20.3773 L 22.6168 16.7265 " data-paper-data="{&quot;origPos&quot;:null}" fill="none" stroke="#000000" stroke-width="2.5" stroke-linecap="round"/><path d="M 43.7914 16.7614 L 36.8549 20.0471 " data-paper-data="{&quot;origPos&quot;:null}" fill="none" stroke="#000000" stroke-width="2.5" stroke-linecap="round"/><path d="M231.30001,121.55002l-0.8,-5.75c0,0 11.72979,1.29256 16.94881,-2.60258c2.91297,-2.17405 -1.48363,-16.59743 3.15119,-16.39742c5.5796,0.24077 -0.46738,13.1247 2.71185,16.70056c2.82459,3.17698 13.93815,2.29944 13.93815,2.29944l-5.4,5.75c0,0 -2.67673,-0.17437 -4.00575,-0.83816c-2.9169,-1.45686 -4.18376,-2.96184 -7.24425,-3.16184c-3.06048,-0.2 -5.78349,2.03128 -10.13895,3.09903c-3.14193,0.77025 -9.16105,0.90097 -9.16105,0.90097z" data-paper-data="{&quot;origPos&quot;:null}" fill="#182a62" stroke="none" stroke-width="0" stroke-linecap="butt" transform="matrix(1,0,0,1,-216.00382,-85.61635)"/><text transform="matrix(0.30123,0,0,0.30123,30.596190000000007,13.10351)" font-size="40" xml:space="preserve" data-paper-data="{&quot;origPos&quot;:null}" fill="#8995b9" fill-rule="nonzero" stroke="none" stroke-width="1" stroke-linecap="butt" stroke-linejoin="miter" stroke-miterlimit="10" stroke-dasharray="" stroke-dashoffset="0" font-family="Sans Serif" font-weight="normal" text-anchor="start" style="mix-blend-mode: normal"><tspan x="0" dy="0">A</tspan></text><path d="M 17.1962 22.3837 C 17.1962 17.634 21.0465 13.7837 25.7962 13.7837 C 30.5458 13.7837 34.3962 17.634 34.3962 22.3837 C 34.3962 27.1333 30.5458 30.9837 25.7962 30.9837 C 21.0465 30.9837 17.1962 27.1333 17.1962 22.3837 Z " data-paper-data="{&quot;origPos&quot;:null}" fill="none" stroke="#182a62" stroke-width="2.5" stroke-linecap="butt"/><path d="M 34.3962 22.7837 C 34.3962 18.2549 38.0675 14.5837 42.5962 14.5837 C 47.1249 14.5837 50.7962 18.2549 50.7962 22.7837 C 50.7962 27.3124 47.1249 30.9837 42.5962 30.9837 C 38.0675 30.9837 34.3962 27.3124 34.3962 22.7837 Z " data-paper-data="{&quot;origPos&quot;:null}" fill="none" stroke="#182a62" stroke-width="2.5" stroke-linecap="butt"/><path d="M229.40001,117.80002l1.4,-8.2l4.6,4l2,4.2z" data-paper-data="{&quot;origPos&quot;:null}" fill="#182a62" stroke="none" stroke-width="0" stroke-linecap="butt" transform="matrix(1,0,0,1,-216.00382,-85.61635)"/></g></g></svg>