<svg xmlns="http://www.w3.org/2000/svg" xmlns:xlink="http://www.w3.org/1999/xlink" version="1.1" width="191.345703125" height="84.35810089111328" viewBox="0 0 191.345703125 84.35810089111328"><g><g data-paper-data="{&quot;isPaintingLayer&quot;:true}" fill-rule="nonzero" stroke-linecap="none" stroke-linejoin="miter" stroke-miterlimit="10" stroke-dasharray="" stroke-dashoffset="0" font-family="none" font-weight="none" font-size="none" text-anchor="none" style="mix-blend-mode: normal"><path d="M 2.5 81.8581 L 2.5 2.5 L 188.8457 2.5 L 188.8457 81.8581 Z " data-paper-data="{&quot;origPos&quot;:null}" fill="#1500b4" stroke="#4d009c" stroke-width="5" stroke-linecap="butt"/><text transform="matrix(0.5,0,0,0.5,14.360270000000014,46.23752)" font-size="40" xml:space="preserve" data-paper-data="{&quot;origPos&quot;:null}" fill="#00fff3" fill-rule="nonzero" stroke="none" stroke-width="1" stroke-linecap="butt" stroke-linejoin="miter" stroke-miterlimit="10" stroke-dasharray="" stroke-dashoffset="0" font-family="Serif" font-weight="normal" text-anchor="start" style="mix-blend-mode: normal"><tspan x="0" dy="0">Created by --nerd--</tspan></text><text transform="matrix(0.5,0,0,0.5,9.19201000000001,70.93853)" font-size="40" xml:space="preserve" data-paper-data="{&quot;origPos&quot;:null}" fill="#ff44da" fill-rule="nonzero" stroke="none" stroke-width="1" stroke-linecap="butt" stroke-linejoin="miter" stroke-miterlimit="10" stroke-dasharray="" stroke-dashoffset="0" font-family="Serif" font-weight="normal" text-anchor="start" style="mix-blend-mode: normal"><tspan x="0" dy="0">Artwork by hawk999</tspan></text><text transform="matrix(0.5,0,0,0.5,36.23001000000002,22.51041)" font-size="40" xml:space="preserve" data-paper-data="{&quot;origPos&quot;:null}" fill="#ffffff" fill-rule="nonzero" stroke="none" stroke-width="1" stroke-linecap="butt" stroke-linejoin="miter" stroke-miterlimit="10" stroke-dasharray="" stroke-dashoffset="0" font-family="Serif" font-weight="normal" text-anchor="start" style="mix-blend-mode: normal"><tspan x="0" dy="0">Trooper Grave</tspan></text><g data-paper-data="{&quot;origPos&quot;:null}"><g data-paper-data="{&quot;origPos&quot;:null,&quot;index&quot;:null}"><path d="M 173.2106 23.5044 L 169.5856 15.6572 L 172.8633 8.0183 L 181.0856 8.0183 L 185.4744 15.6572 L 181.3217 23.5044 Z " data-paper-data="{&quot;origPos&quot;:null}" fill="#adadad" stroke-width="1.5" stroke-linecap="butt" stroke="#373737"/><path d="M 172.9745 8.2405 L 177.8879 15.8416 L 180.8772 23.2822 " fill="none" stroke-width="1" stroke-linecap="round" stroke="#373737"/><path d="M 180.9745 8.0183 L 177.9116 15.6745 L 173.4328 23.06 " data-paper-data="{&quot;origPos&quot;:null}" fill="none" stroke-width="1" stroke-linecap="round" stroke="#373737"/><path d="M 169.5856 15.6572 L 185.3633 15.7683 " fill="none" stroke-width="1" stroke-linecap="round" stroke="#373737"/></g><path d="M328.06694,20.22664c-3.1603,0 -5.72223,-2.56193 -5.72223,-5.72222c0,-3.1603 2.56193,-5.72223 5.72223,-5.72223c3.16029,0 5.72222,2.56194 5.72222,5.72223c0,3.16029 -2.56193,5.72222 -5.72222,5.72222z" data-paper-data="{&quot;origPos&quot;:null,&quot;index&quot;:null}" fill="#2a2a2a" stroke="none" stroke-width="NaN" stroke-linecap="butt" transform="matrix(1,0,0,1,-152.62909,1.5)"/><g data-paper-data="{&quot;origPos&quot;:null,&quot;index&quot;:null}"><path d="M 165.4202 24.9817 L 161.2674 17.1345 L 165.6563 9.4956 L 173.8785 9.4956 L 177.1563 17.1345 L 173.5313 24.9817 Z " fill="#c0c0c0" stroke-width="1.5" stroke-linecap="butt" stroke="#4a4a4a"/><path d="M 165.8646 24.7595 L 168.8539 17.3189 L 173.7674 9.7178 " fill="none" stroke-width="1" stroke-linecap="round" stroke="#4a4a4a"/><path d="M 173.3091 24.5372 L 168.8302 17.1518 L 165.7674 9.4956 " data-paper-data="{&quot;origPos&quot;:null}" fill="none" stroke-width="1" stroke-linecap="round" stroke="#4a4a4a"/><path d="M 161.3785 17.2456 L 177.1563 17.1345 " fill="none" stroke-width="1" stroke-linecap="round" stroke="#4a4a4a"/></g></g><g data-paper-data="{&quot;origPos&quot;:null,&quot;index&quot;:null}"><g data-paper-data="{&quot;origPos&quot;:null,&quot;index&quot;:null}"><path d="M 9.4202 24.5044 L 5.2674 16.6572 L 9.6563 9.0183 L 17.8785 9.0183 L 21.1563 16.6572 L 17.5313 24.5044 Z " data-paper-data="{&quot;origPos&quot;:null}" fill="#adadad" stroke-width="1.5" stroke-linecap="butt" stroke="#373737"/><path d="M 9.8646 24.2822 L 12.8539 16.8416 L 17.7674 9.2405 " fill="none" stroke-width="1" stroke-linecap="round" stroke="#373737"/><path d="M 17.3091 24.06 L 12.8302 16.6745 L 9.7674 9.0183 " data-paper-data="{&quot;origPos&quot;:null}" fill="none" stroke-width="1" stroke-linecap="round" stroke="#373737"/><path d="M 21.1563 16.6572 L 5.3785 16.7683 " fill="none" stroke-width="1" stroke-linecap="round" stroke="#373737"/></g><path d="M162.21086,15.50442c0,-3.16029 2.56193,-5.72223 5.72222,-5.72223c3.1603,0 5.72223,2.56193 5.72223,5.72223c0,3.16029 -2.56193,5.72222 -5.72223,5.72222c-3.16029,0 -5.72222,-2.56193 -5.72222,-5.72222z" data-paper-data="{&quot;origPos&quot;:null,&quot;index&quot;:null}" fill="#2a2a2a" stroke="none" stroke-width="NaN" stroke-linecap="butt" transform="matrix(1,0,0,1,-152.62909,1.5)"/><g data-paper-data="{&quot;origPos&quot;:null,&quot;index&quot;:null}"><path d="M 17.2106 25.9817 L 13.5856 18.1345 L 16.8633 10.4956 L 25.0856 10.4956 L 29.4745 18.1345 L 25.3217 25.9817 Z " fill="#c0c0c0" stroke-width="1.5" stroke-linecap="butt" stroke="#4a4a4a"/><path d="M 16.9745 10.7178 L 21.8879 18.3189 L 24.8772 25.7595 " fill="none" stroke-width="1" stroke-linecap="round" stroke="#4a4a4a"/><path d="M 24.9745 10.4956 L 21.9116 18.1518 L 17.4328 25.5372 " data-paper-data="{&quot;origPos&quot;:null}" fill="none" stroke-width="1" stroke-linecap="round" stroke="#4a4a4a"/><path d="M 29.3633 18.2456 L 13.5856 18.1345 " fill="none" stroke-width="1" stroke-linecap="round" stroke="#4a4a4a"/></g></g></g></g></svg>