<svg version="1.1" xmlns="http://www.w3.org/2000/svg" xmlns:xlink="http://www.w3.org/1999/xlink" width="68.711" height="65.79704" viewBox="0,0,68.711,65.79704"><g transform="translate(-205.69606,-148.89533)"><g data-paper-data="{&quot;isPaintingLayer&quot;:true}" fill="#ea81ff" fill-rule="nonzero" stroke="#a800ff" stroke-width="7.5" stroke-linecap="butt" stroke-linejoin="miter" stroke-miterlimit="10" stroke-dasharray="" stroke-dashoffset="0" style="mix-blend-mode: normal"><path d="M233.64296,206.33403c-3.495,-1.2433 -7.7505,4.1522 -10.8135,2.0596c-2.6699,-1.8241 -0.1919,-10.1113 -1.2794,-13.1564c-2.09,-5.8519 -10.578,-5.0845 -12.104,-11.1081c-1.1017,-4.3486 5.8294,-10.8417 7.4749,-15.015c1.4389,-3.6491 -0.9454,-10.5146 2.4179,-12.5331c4.417,-2.6508 11.4014,2.2841 16.5528,2.2841c4.6828,0 7.2538,-9.5266 11.9155,-9.9698c3.9363,-0.3743 6.4332,8.0943 9.8666,10.0554c3.1089,1.7758 12.6184,0.3038 12.9833,3.8655c0.4349,4.2447 -8.7845,10.4329 -8.7845,14.6997c0,7.6373 9.73,12.9159 5.1215,17.9792c-1.5361,1.6877 -10.6491,3.0014 -12.9154,2.7327c0,0 -4.1478,11.6656 -10.9068,12.763c-2.4731,0.4015 3.8073,0.0873 -9.5289,-4.6568z"/></g></g></svg>