<svg xmlns="http://www.w3.org/2000/svg" xmlns:xlink="http://www.w3.org/1999/xlink" version="1.1" width="86.4000015258789" height="20.00337028503418" viewBox="0 -0.16201460361480713 86.4000015258789 20.00337028503418"><g><g data-paper-data="{&quot;isPaintingLayer&quot;:true}" fill-rule="nonzero" stroke-linecap="butt" stroke-linejoin="miter" stroke-miterlimit="10" stroke-dasharray="" stroke-dashoffset="0" font-family="none" font-weight="none" font-size="none" text-anchor="none" style="mix-blend-mode: normal"><g data-paper-data="{&quot;origPos&quot;:null}"><path d="M 1 18.3164 L 1 1 L 85.4 1 L 85.4 18.3164 Z " data-paper-data="{&quot;origPos&quot;:null}" fill="#ffd500" stroke="#ff6100" stroke-width="2"/><text transform="matrix(0.28181,0,0,0.28181,1.9264300000000105,13.267130000000009)" font-size="40" xml:space="preserve" data-paper-data="{&quot;origPos&quot;:null}" fill="#ff6100" fill-rule="nonzero" stroke="none" stroke-width="1" stroke-linecap="butt" stroke-linejoin="miter" stroke-miterlimit="10" stroke-dasharray="" stroke-dashoffset="0" font-family="Sans Serif" font-weight="normal" text-anchor="start" style="mix-blend-mode: normal"><tspan x="0" dy="0">Buy skin</tspan></text><g data-paper-data="{&quot;origPos&quot;:null}"><path d="M248.53334,180.76628c0,-3.69666 2.99673,-6.69339 6.69339,-6.69339c3.69666,0 6.69339,2.99673 6.69339,6.69339c0,3.69666 -2.99673,6.69339 -6.69339,6.69339c-3.69666,0 -6.69339,-2.99673 -6.69339,-6.69339z" data-paper-data="{&quot;origPos&quot;:null}" fill="#bbb54b" stroke-width="NaN" stroke="none" transform="matrix(1,0,0,1,-197,-170.93364)"/><path d="M249.78277,180.85553c0,-3.74595 3.03669,-6.78263 6.78264,-6.78263c3.74595,0 6.78264,3.03669 6.78264,6.78263c0,3.74595 -3.03669,6.78264 -6.78264,6.78264c-3.74595,0 -6.78263,-3.03669 -6.78263,-6.78264z" data-paper-data="{&quot;origPos&quot;:null}" fill="#fff766" stroke-width="NaN" stroke="none" transform="matrix(1,0,0,1,-197,-170.93364)"/><text transform="matrix(0.26774,0,0,0.26774,55.817110000000014,13.670189999999991)" font-size="40" xml:space="preserve" data-paper-data="{&quot;origPos&quot;:null}" fill="#bbb54b" fill-rule="nonzero" stroke="none" stroke-width="1" stroke-linecap="butt" stroke-linejoin="miter" stroke-miterlimit="10" stroke-dasharray="" stroke-dashoffset="0" font-family="Sans Serif" font-weight="normal" text-anchor="start" style="mix-blend-mode: normal"><tspan x="0" dy="0">C</tspan></text></g><text transform="matrix(0.33829,0,0,0.33829,67.05162999999999,14.84002000000001)" font-size="40" xml:space="preserve" data-paper-data="{&quot;origPos&quot;:null}" fill="#ff6100" fill-rule="nonzero" stroke="none" stroke-width="1" stroke-linecap="butt" stroke-linejoin="miter" stroke-miterlimit="10" stroke-dasharray="" stroke-dashoffset="0" font-family="Sans Serif" font-weight="normal" text-anchor="start" style="mix-blend-mode: normal"><tspan x="0" dy="0">50</tspan></text></g></g></g></svg>