<svg xmlns="http://www.w3.org/2000/svg" xmlns:xlink="http://www.w3.org/1999/xlink" version="1.1" width="30.02242" height="50.41601" viewBox="0,0,30.02242,50.41601"><defs><linearGradient x1="232.81427" y1="153.36723" x2="232.81427" y2="193.28933" gradientUnits="userSpaceOnUse" id="color-1"><stop offset="0" stop-color="#ff9700"/><stop offset="1" stop-color="#ffca00"/></linearGradient><linearGradient x1="247.04458" y1="159.33478" x2="247.04458" y2="193.2893" gradientUnits="userSpaceOnUse" id="color-2"><stop offset="0" stop-color="#ff9700"/><stop offset="1" stop-color="#ffca00"/></linearGradient><linearGradient x1="239.74847" y1="145.59764" x2="239.74847" y2="194.62587" gradientUnits="userSpaceOnUse" id="color-3"><stop offset="0" stop-color="#ff8d00"/><stop offset="1" stop-color="#ffca00"/></linearGradient></defs><g><g data-paper-data="{&quot;isPaintingLayer&quot;:true}" fill-rule="nonzero" stroke-linecap="butt" stroke-linejoin="miter" stroke-miterlimit="10" stroke-dasharray="" stroke-dashoffset="0" font-family="none" font-weight="none" font-size="none" text-anchor="none" style="mix-blend-mode: normal"><g><path d="M240.56898,196.01363c-5.99234,0 -10.85009,-2.27773 -10.85009,-4.18145c0,-1.90372 4.85774,-3.44699 10.85009,-3.44699c5.99234,0 10.85009,1.54326 10.85009,3.44699c0,1.90372 -4.85774,4.18145 -10.85009,4.18145z" data-paper-data="{&quot;origPos&quot;:null}" fill="#ffca00" stroke-width="0" stroke="none" transform="matrix(1,0,0,1,-224.91822,-145.59762)"/><path d="M226.92441,153.36723c0,0 3.94244,2.11517 4.79289,4.83495c0.8995,2.87658 -0.4788,5.56159 0.49644,8.86127c0.97528,3.29969 2.5936,2.27082 3.44449,4.47237c0.85088,2.20155 -0.57725,3.37051 0.27572,5.15321c0.85297,1.7827 3.90866,2.07778 4.5217,4.8732c1.10036,5.01757 -1.46716,10.13392 -5.73471,11.42768c-4.26753,1.29374 -8.6191,-1.72499 -9.71947,-6.74258c-0.55579,-2.53444 1.85291,-4.92267 1.86825,-8.33116c0.01534,-3.40846 -1.96299,-4.26182 -1.7983,-7.21766c0.1647,-2.95581 2.99094,-6.57718 2.8192,-11.10506c-0.16313,-4.30178 -0.96625,-6.22621 -0.96625,-6.22621z" data-paper-data="{&quot;origPos&quot;:null,&quot;origRot&quot;:0,&quot;index&quot;:null}" fill="url(#color-1)" stroke-width="0" stroke="none" transform="matrix(1,0,0,1,-224.91822,-145.59762)"/><path d="M252.93448,159.33479c0,0 -0.8031,1.63676 -0.96623,5.29551c-0.17172,3.85105 2.65451,6.9311 2.8192,9.44508c0.16469,2.51398 -1.81364,3.23979 -1.7983,6.13875c0.01534,2.89896 2.42403,4.93021 1.86825,7.08581c-1.10036,4.26757 -5.45193,6.83507 -9.71947,5.73471c-4.26757,-1.10036 -6.83507,-5.45192 -5.73471,-9.71947c0.61304,-2.37754 3.6687,-2.62854 4.5217,-4.14475c0.85299,-1.51622 -0.57514,-2.51045 0.27573,-4.38292c0.85088,-1.87247 2.4692,-0.99739 3.44449,-3.80384c0.97526,-2.80646 -0.40304,-5.0901 0.49644,-7.5367c0.85046,-2.31322 4.79289,-4.11221 4.79289,-4.11221z" data-paper-data="{&quot;origPos&quot;:null,&quot;origRot&quot;:0,&quot;index&quot;:null}" fill="url(#color-2)" stroke-width="0" stroke="none" transform="matrix(1,0,0,1,-224.91822,-145.59762)"/><path d="M238.31488,145.59764c0,0 4.38266,3.49275 4.91303,6.93427c0.56097,3.63997 -1.59916,6.48575 -1.0241,10.64706c0.57507,4.16129 2.72197,3.34203 3.34789,6.16824c0.62591,2.82621 -1.31652,3.85919 -0.61126,6.18848c0.70525,2.32931 4.34864,3.43992 4.57787,6.91222c0.41145,6.23255 -3.63348,11.66994 -9.03463,12.14471c-5.40113,0.47478 -10.11316,-4.19279 -10.52459,-10.42538c-0.20782,-3.14815 3.14471,-5.38515 3.78825,-9.42921c0.64354,-4.04403 -1.59384,-5.54964 -0.85257,-9.01897c0.74128,-3.46932 4.82514,-7.06692 5.4476,-12.48689c0.59139,-5.14933 -0.02752,-7.63455 -0.02752,-7.63455z" data-paper-data="{&quot;origPos&quot;:null,&quot;origRot&quot;:0}" fill="url(#color-3)" stroke-width="0" stroke="none" transform="matrix(1,0,0,1,-224.91822,-145.59762)"/></g></g></g></svg>