<svg xmlns="http://www.w3.org/2000/svg" xmlns:xlink="http://www.w3.org/1999/xlink" version="1.1" width="13.56676" height="9.92764" viewBox="0,0,13.56676,9.92764"><g><g data-paper-data="{&quot;isPaintingLayer&quot;:true}" fill-rule="nonzero" stroke-linecap="butt" stroke-linejoin="miter" stroke-miterlimit="10" stroke-dasharray="" stroke-dashoffset="0" style="mix-blend-mode: normal"><g><path d="M233.31375,177.47693l7.59424,0.08545l-0.09712,6.15073l-7.59425,-0.08543z" stroke-width="NaN" fill="#ff3333" stroke="none" transform="matrix(1,0,0,1,-233.21662,-175.03618)"/><path d="M246.78279,180.57545c-0.03867,2.44951 -1.94489,4.41413 -4.25766,4.38811c-2.31276,-0.02602 -4.15627,-2.03283 -4.11759,-4.48234c0.03867,-2.44951 1.94488,-4.41413 4.25765,-4.38811c2.31276,0.02602 4.15627,2.03283 4.11759,4.48234z" stroke-width="0" fill="#ff3333" stroke="none" transform="matrix(1,0,0,1,-233.21662,-175.03618)"/><path d="M241.19393,177.71464c-1.47447,0.56379 -2.94478,0.50833 -3.28404,-0.12386c-0.33925,-0.63219 0.58103,-1.60173 2.0555,-2.16551c1.47447,-0.56379 2.94478,-0.50833 3.28404,0.12386c0.33925,0.63219 -0.58103,1.60173 -2.0555,2.16551z" data-paper-data="{&quot;origRot&quot;:0}" stroke-width="0" fill="#ff3333" stroke="none" transform="matrix(1,0,0,1,-233.21662,-175.03618)"/></g></g></g></svg>