<svg xmlns="http://www.w3.org/2000/svg" xmlns:xlink="http://www.w3.org/1999/xlink" version="1.1" width="57.33330154418945" height="178.13189697265625" viewBox="0 -0.9999923706054688 57.33330154418945 178.13189697265625"><g><g data-paper-data="{&quot;isPaintingLayer&quot;:true}" fill-rule="nonzero" stroke-linecap="none" stroke-linejoin="miter" stroke-miterlimit="10" stroke-dasharray="" stroke-dashoffset="0" font-family="none" font-weight="none" font-size="none" text-anchor="none" style="mix-blend-mode: normal"><g><path d="M229.33824,152.57669c0,-7.76021 6.2909,-14.05111 14.05111,-14.05111c7.76021,0 14.05111,6.29089 14.05111,14.05111c0,7.76021 -6.29089,14.05111 -14.05111,14.05111c-7.76021,0 -14.05111,-6.2909 -14.05111,-14.05111z" data-paper-data="{&quot;origPos&quot;:null}" fill="#e2f9ff" stroke="#bccace" stroke-width="0" stroke-linecap="butt" transform="matrix(1,0,0,1,-213.83335,-70.43021)"/><path d="M217.42883,115.62041c0,-13.9728 11.3272,-25.3 25.3,-25.3c13.9728,0 25.3,11.3272 25.3,25.3c0,13.9728 -11.3272,25.3 -25.3,25.3c-13.9728,0 -25.3,-11.3272 -25.3,-25.3z" data-paper-data="{&quot;origPos&quot;:null}" fill="#e2f9ff" stroke="#1800ff" stroke-width="0" stroke-linecap="butt" transform="matrix(1,0,0,1,-213.83335,-70.43021)"/><path d="M238.31137,109.59661c0,-2.66149 2.15756,-4.81905 4.81905,-4.81905c2.66149,0 4.81905,2.15756 4.81905,4.81905c0,2.66149 -2.15756,4.81905 -4.81905,4.81905c-2.66149,0 -4.81905,-2.15756 -4.81905,-4.81905z" data-paper-data="{&quot;origPos&quot;:null}" fill="#000000" stroke="none" stroke-width="0" stroke-linecap="butt" transform="matrix(1,0,0,1,-213.83335,-70.43021)"/><path d="M251.96534,109.59661c0,-2.66148 2.15757,-4.81905 4.81905,-4.81905c2.66148,0 4.81905,2.15757 4.81905,4.81905c0,2.66148 -2.15757,4.81905 -4.81905,4.81905c-2.66148,0 -4.81905,-2.15757 -4.81905,-4.81905z" data-paper-data="{&quot;origPos&quot;:null}" fill="#000000" stroke="none" stroke-width="0" stroke-linecap="butt" transform="matrix(1,0,0,1,-213.83335,-70.43021)"/><path d="M218.29569,221.89821c0,-13.6215 11.04241,-24.6639 24.6639,-24.6639c13.6215,0 24.6639,11.04241 24.6639,24.6639c0,13.6215 -11.04241,24.6639 -24.6639,24.6639c-13.6215,0 -24.6639,-11.04241 -24.6639,-24.6639z" data-paper-data="{&quot;origPos&quot;:null}" fill="#e2f9ff" stroke="#bccace" stroke-width="0" stroke-linecap="butt" transform="matrix(1,0,0,1,-213.83335,-70.43021)"/><path d="M223.72973,182.40978c0,-10.43293 8.45756,-18.89049 18.89049,-18.89049c10.43293,0 18.89049,8.45755 18.89049,18.89049c0,10.43293 -8.45755,18.89049 -18.89049,18.89049c-10.43293,0 -18.89049,-8.45756 -18.89049,-18.89049z" data-paper-data="{&quot;origPos&quot;:null}" fill="#e2f9ff" stroke="#bccace" stroke-width="0" stroke-linecap="butt" transform="matrix(1,0,0,1,-213.83335,-70.43021)"/><path d="M249.22344,123.67664v-9.00428l18.79154,4.3064z" data-paper-data="{&quot;origPos&quot;:null}" fill="#ff6e00" stroke="none" stroke-width="0" stroke-linecap="butt" transform="matrix(1,0,0,1,-213.83335,-70.43021)"/><path d="M238.26171,126.22133c0,-0.97296 0.78874,-1.76171 1.76171,-1.76171c0.97296,0 1.76171,0.78874 1.76171,1.76171c0,0.97296 -0.78874,1.76171 -1.76171,1.76171c-0.97296,0 -1.76171,-0.78874 -1.76171,-1.76171z" data-paper-data="{&quot;origPos&quot;:null}" fill="#000000" stroke="none" stroke-width="0" stroke-linecap="butt" transform="matrix(1,0,0,1,-213.83335,-70.43021)"/><path d="M241.46132,129.78101c0,-0.97297 0.78875,-1.76171 1.76171,-1.76171c0.97296,0 1.76171,0.78874 1.76171,1.76171c0,0.97297 -0.78874,1.76171 -1.76171,1.76171c-0.97296,0 -1.76171,-0.78874 -1.76171,-1.76171z" data-paper-data="{&quot;origPos&quot;:null}" fill="#000000" stroke="none" stroke-width="0" stroke-linecap="butt" transform="matrix(1,0,0,1,-213.83335,-70.43021)"/><path d="M246.28127,132.0804c0,-0.97296 0.78875,-1.76171 1.76171,-1.76171c0.97296,0 1.7617,0.78874 1.7617,1.76171c0,0.97296 -0.78874,1.76171 -1.7617,1.76171c-0.97296,0 -1.76171,-0.78875 -1.76171,-1.76171z" data-paper-data="{&quot;origPos&quot;:null}" fill="#000000" stroke="none" stroke-width="0" stroke-linecap="butt" transform="matrix(1,0,0,1,-213.83335,-70.43021)"/><path d="M251.46131,132.03931c0,-0.97296 0.78875,-1.76171 1.76171,-1.76171c0.97296,0 1.76171,0.78874 1.76171,1.76171c0,0.97296 -0.78874,1.76171 -1.76171,1.76171c-0.97296,0 -1.76171,-0.78875 -1.76171,-1.76171z" data-paper-data="{&quot;origPos&quot;:null}" fill="#000000" stroke="none" stroke-width="0" stroke-linecap="butt" transform="matrix(1,0,0,1,-213.83335,-70.43021)"/><path d="M256.10124,129.83772c0,-0.97296 0.78875,-1.76171 1.76171,-1.76171c0.97296,0 1.76171,0.78874 1.76171,1.76171c0,0.97296 -0.78874,1.76171 -1.76171,1.76171c-0.97296,0 -1.76171,-0.78875 -1.76171,-1.76171z" data-paper-data="{&quot;origPos&quot;:null}" fill="#000000" stroke="none" stroke-width="0" stroke-linecap="butt" transform="matrix(1,0,0,1,-213.83335,-70.43021)"/><path d="M259.30084,125.83577c0,-0.97296 0.78875,-1.76171 1.76171,-1.76171c0.97296,0 1.76171,0.78874 1.76171,1.76171c0,0.97296 -0.78874,1.76171 -1.76171,1.76171c-0.97296,0 -1.76171,-0.78874 -1.76171,-1.76171z" data-paper-data="{&quot;origPos&quot;:null}" fill="#000000" stroke="none" stroke-width="0" stroke-linecap="butt" transform="matrix(1,0,0,1,-213.83335,-70.43021)"/><path d="M238.83335,222.77126c0,-2.11709 1.71624,-3.83333 3.83333,-3.83333c2.11709,0 3.83333,1.71624 3.83333,3.83333c0,2.11709 -1.71624,3.83333 -3.83333,3.83333c-2.11709,0 -3.83333,-1.71624 -3.83333,-3.83333z" data-paper-data="{&quot;origPos&quot;:null}" fill="#000000" stroke="none" stroke-width="0" stroke-linecap="butt" transform="matrix(1,0,0,1,-213.83335,-70.43021)"/><path d="M239.16668,203.1046c0,-2.11709 1.71625,-3.83334 3.83334,-3.83334c2.11709,0 3.83334,1.71625 3.83334,3.83334c0,2.11709 -1.71625,3.83334 -3.83334,3.83334c-2.11709,0 -3.83334,-1.71625 -3.83334,-3.83334z" data-paper-data="{&quot;origPos&quot;:null}" fill="#000000" stroke="none" stroke-width="0" stroke-linecap="butt" transform="matrix(1,0,0,1,-213.83335,-70.43021)"/><path d="M239.16668,185.1046c0,-2.11709 1.71625,-3.83334 3.83334,-3.83334c2.11709,0 3.83334,1.71625 3.83334,3.83334c0,2.11709 -1.71625,3.83334 -3.83334,3.83334c-2.11709,0 -3.83334,-1.71625 -3.83334,-3.83334z" data-paper-data="{&quot;origPos&quot;:null}" fill="#000000" stroke="none" stroke-width="0" stroke-linecap="butt" transform="matrix(1,0,0,1,-213.83335,-70.43021)"/><g data-paper-data="{&quot;origPos&quot;:null}" stroke-linecap="round"><path d="M 1 68.8411 L 16.3333 78.8411 " stroke-width="2" fill="none" stroke="#ba7200"/><path d="M 4 65.5077 L 4.6667 70.5077 " stroke-width="2" fill="none" stroke="#ba7200"/></g><g data-paper-data="{&quot;origPos&quot;:null,&quot;index&quot;:null}" stroke-linecap="round"><path d="M 56.3333 69.8411 L 41 79.8411 " stroke-width="2" fill="none" stroke="#ba7200"/><path d="M 53.3333 66.5077 L 52.6667 71.5077 " stroke-width="2" fill="none" stroke="#ba7200"/></g><g data-paper-data="{&quot;origPos&quot;:null,&quot;origRot&quot;:0}" stroke-linecap="butt"><path d="M221.46142,101.99747l-0.99269,-4.38914l34.62543,-7.83129l0.9927,4.38914z" data-paper-data="{&quot;origPos&quot;:null}" stroke-width="0" fill="#000000" stroke="none" transform="matrix(1,0,0,1,-213.83335,-70.43021)"/><path d="M224.39145,97.5755l0.20168,-23.2848l17.06887,-3.86049l9.87708,21.00526z" data-paper-data="{&quot;origPos&quot;:null}" stroke-width="0" fill="#000000" stroke="none" transform="matrix(1,0,0,1,-213.83335,-70.43021)"/></g><path d="M 22.8129 39.2405 C 22.8129 35.6162 25.751 32.678 29.3754 32.678 C 32.9998 32.678 35.9379 35.6162 35.9379 39.2405 C 35.9379 42.8649 32.9998 45.803 29.3754 45.803 C 25.751 45.803 22.8129 42.8649 22.8129 39.2405 Z " data-paper-data="{&quot;origPos&quot;:null}" fill="none" stroke="#e6d800" stroke-width="1.5" stroke-linecap="butt"/><path d="M 24.4091 46.1251 C 24.1515 47.5517 23.1441 48.5641 22.159 48.3862 C 21.1739 48.2084 20.5842 46.9076 20.8418 45.481 C 21.0994 44.0543 22.1067 43.0419 23.0918 43.2198 C 24.0769 43.3976 24.6667 44.6984 24.4091 46.1251 Z " data-paper-data="{&quot;origPos&quot;:null,&quot;origRot&quot;:0}" fill="none" stroke="#e6d800" stroke-width="0.5" stroke-linecap="butt"/><path d="M 23.9368 50.6168 C 23.8858 52.0656 23.0335 53.2116 22.0331 53.1764 C 21.0327 53.1412 20.2631 51.9381 20.314 50.4893 C 20.365 49.0404 21.2173 47.8944 22.2177 47.9296 C 23.2181 47.9648 23.9878 49.1679 23.9368 50.6168 Z " data-paper-data="{&quot;origPos&quot;:null,&quot;origRot&quot;:0}" fill="none" stroke="#e6d800" stroke-width="0.5" stroke-linecap="butt"/><path d="M 23.8118 55.3668 C 23.7608 56.8156 22.9085 57.9616 21.9081 57.9264 C 20.9077 57.8912 20.1381 56.6881 20.189 55.2393 C 20.24 53.7904 21.0923 52.6444 22.0927 52.6796 C 23.0931 52.7149 23.8628 53.9179 23.8118 55.3668 Z " data-paper-data="{&quot;origPos&quot;:null,&quot;origRot&quot;:0}" fill="none" stroke="#e6d800" stroke-width="0.5" stroke-linecap="butt"/><g data-paper-data="{&quot;origPos&quot;:null}" stroke-linecap="butt"><g><path d="M238.08899,144.34026c0,-2.60721 2.11356,-4.72077 4.72077,-4.72077c2.60721,0 4.72077,2.11356 4.72077,4.72077c0,2.60721 -2.11356,4.72077 -4.72077,4.72077c-2.60721,0 -4.72077,-2.11356 -4.72077,-4.72077z" data-paper-data="{&quot;origPos&quot;:null}" stroke-width="0" fill="#000000" stroke="none" transform="matrix(1,0,0,1,-213.83335,-70.43021)"/><path d="M231.78713,148.92801v-8.56326l8.56326,1.90405v4.23588z" data-paper-data="{&quot;origPos&quot;:null}" stroke-width="0" fill="#000000" stroke="none" transform="matrix(1,0,0,1,-213.83335,-70.43021)"/><path d="M245.35534,146.48492v-4.23588l8.56326,-1.90404v8.56326z" data-paper-data="{&quot;origPos&quot;:null,&quot;index&quot;:null}" stroke-width="0" fill="#000000" stroke="none" transform="matrix(1,0,0,1,-213.83335,-70.43021)"/></g><path d="M237.58202,169.24117l2.27395,-21.2235h5.68487l2.36869,21.12875c0,0 -2.89803,0.50554 -5.11677,0.5259c-1.8117,0.01662 -5.21074,-0.43115 -5.21074,-0.43115z" data-paper-data="{&quot;origPos&quot;:null}" stroke-width="0" fill="#000000" stroke="none" transform="matrix(1,0,0,1,-213.83335,-70.43021)"/></g></g></g></g></svg>