<svg version="1.1" xmlns="http://www.w3.org/2000/svg" xmlns:xlink="http://www.w3.org/1999/xlink" width="83.20996" height="174.5278" viewBox="0,0,83.20996,174.5278"><defs><linearGradient x1="218.1593" y1="86.63025" x2="227.00508" y2="97.96543" gradientUnits="userSpaceOnUse" id="color-1"><stop offset="0" stop-color="#e44242"/><stop offset="1" stop-color="#ca0000"/></linearGradient><linearGradient x1="229.9894" y1="80.10994" x2="233.76784" y2="93.98287" gradientUnits="userSpaceOnUse" id="color-2"><stop offset="0" stop-color="#e84a4a"/><stop offset="1" stop-color="#ca0000"/></linearGradient><linearGradient x1="241.8016" y1="78.21219" x2="241.29946" y2="92.58168" gradientUnits="userSpaceOnUse" id="color-3"><stop offset="0" stop-color="#e54343"/><stop offset="1" stop-color="#ca0000"/></linearGradient><linearGradient x1="251.90687" y1="79.1238" x2="249.64896" y2="93.32367" gradientUnits="userSpaceOnUse" id="color-4"><stop offset="0" stop-color="#e64747"/><stop offset="1" stop-color="#ca0000"/></linearGradient><linearGradient x1="260.52896" y1="73.58003" x2="253.26008" y2="93.28192" gradientUnits="userSpaceOnUse" id="color-5"><stop offset="0" stop-color="#ff8383"/><stop offset="1" stop-color="#ca0000"/></linearGradient><linearGradient x1="246.91505" y1="70.60706" x2="245.58209" y2="91.56471" gradientUnits="userSpaceOnUse" id="color-6"><stop offset="0" stop-color="#ff8383"/><stop offset="1" stop-color="#ca0000"/></linearGradient><linearGradient x1="235.02834" y1="71.07141" x2="237.40451" y2="91.93655" gradientUnits="userSpaceOnUse" id="color-7"><stop offset="0" stop-color="#ff8383"/><stop offset="1" stop-color="#ca0000"/></linearGradient><linearGradient x1="219.90671" y1="76.19433" x2="229.96957" y2="94.62636" gradientUnits="userSpaceOnUse" id="color-8"><stop offset="0" stop-color="#ff8383"/><stop offset="1" stop-color="#ca0000"/></linearGradient><linearGradient x1="207.52769" y1="87.33812" x2="224.57003" y2="99.60835" gradientUnits="userSpaceOnUse" id="color-9"><stop offset="0" stop-color="#ff8383"/><stop offset="1" stop-color="#ca0000"/></linearGradient><linearGradient x1="265.60684" y1="148.41071" x2="263.93129" y2="150.5578" gradientUnits="userSpaceOnUse" id="color-10"><stop offset="0" stop-color="#e44242"/><stop offset="1" stop-color="#ca0000"/></linearGradient><linearGradient x1="263.366" y1="147.17566" x2="262.65029" y2="149.80343" gradientUnits="userSpaceOnUse" id="color-11"><stop offset="0" stop-color="#e84a4a"/><stop offset="1" stop-color="#ca0000"/></linearGradient><linearGradient x1="261.12856" y1="146.81619" x2="261.22368" y2="149.53803" gradientUnits="userSpaceOnUse" id="color-12"><stop offset="0" stop-color="#e54343"/><stop offset="1" stop-color="#ca0000"/></linearGradient><linearGradient x1="259.21445" y1="146.98886" x2="259.64214" y2="149.67857" gradientUnits="userSpaceOnUse" id="color-13"><stop offset="0" stop-color="#e64747"/><stop offset="1" stop-color="#ca0000"/></linearGradient><linearGradient x1="257.58128" y1="145.93878" x2="258.95813" y2="149.67066" gradientUnits="userSpaceOnUse" id="color-14"><stop offset="0" stop-color="#ff8383"/><stop offset="1" stop-color="#ca0000"/></linearGradient><linearGradient x1="260.15999" y1="145.37565" x2="260.41247" y2="149.34539" gradientUnits="userSpaceOnUse" id="color-15"><stop offset="0" stop-color="#ff8383"/><stop offset="1" stop-color="#ca0000"/></linearGradient><linearGradient x1="262.41154" y1="145.4636" x2="261.96144" y2="149.41582" gradientUnits="userSpaceOnUse" id="color-16"><stop offset="0" stop-color="#ff8383"/><stop offset="1" stop-color="#ca0000"/></linearGradient><linearGradient x1="265.27583" y1="146.43397" x2="263.36976" y2="149.92532" gradientUnits="userSpaceOnUse" id="color-17"><stop offset="0" stop-color="#ff8383"/><stop offset="1" stop-color="#ca0000"/></linearGradient><linearGradient x1="267.62064" y1="148.5448" x2="264.39252" y2="150.86899" gradientUnits="userSpaceOnUse" id="color-18"><stop offset="0" stop-color="#ff8383"/><stop offset="1" stop-color="#ca0000"/></linearGradient></defs><g transform="translate(-207.47899,-70.60176)"><g data-paper-data="{&quot;isPaintingLayer&quot;:true}" fill-rule="nonzero" stroke-linejoin="miter" stroke-miterlimit="10" stroke-dasharray="" stroke-dashoffset="0" style="mix-blend-mode: normal"><g data-paper-data="{&quot;index&quot;:null}" fill="#d18989" stroke="none" stroke-width="0" stroke-linecap="butt"><path d="M277.14324,156.05601l-1.3727,-5.04939l4.45126,2.72559z" data-paper-data="{&quot;index&quot;:null}"/><path d="M282.67612,153.64466l4.33672,-2.92806l-1.14411,5.09249z" data-paper-data="{&quot;index&quot;:null}"/><path d="M279.55449,154.53558l1.73718,-4.93587l2.11645,4.77107z" data-paper-data="{&quot;index&quot;:null}"/></g><g fill="#d18989" stroke="none" stroke-width="0" stroke-linecap="butt"><path d="M286.35375,156.70965l4.3352,2.9303l-5.15148,0.83948z" data-paper-data="{&quot;index&quot;:null}"/><path d="M283.7349,162.14736l-1.37532,5.04868l-2.45626,-4.60534z" data-paper-data="{&quot;index&quot;:null}"/><path d="M285.51885,159.43523l1.90468,4.87368l-4.71715,-2.23406z" data-paper-data="{&quot;index&quot;:null}"/></g><path d="M241.92659,137.16377v67.297l-12.0477,38.9188" data-paper-data="{&quot;origPos&quot;:null}" fill="none" stroke="#000000" stroke-width="3.5" stroke-linecap="round"/><path d="M254.77738,243.18277l-12.0477,-40.1587" fill="none" stroke="#000000" stroke-width="3.5" stroke-linecap="round"/><path d="M217.83128,114.27327c0,-13.9728 11.3272,-25.3 25.3,-25.3c13.9728,0 25.3,11.3272 25.3,25.3c0,13.9728 -11.3272,25.3 -25.3,25.3c-13.9728,0 -25.3,-11.3272 -25.3,-25.3z" data-paper-data="{&quot;origPos&quot;:null}" fill="#d4d4d4" stroke="#000000" stroke-width="2.5" stroke-linecap="butt"/><path d="M266.26228,168.72567c0,0 -7.5016,2.7269 -10.5962,-1.3948c-4.2027,-5.5977 -12.8522,-21.8433 -12.8522,-21.8433" data-paper-data="{&quot;origPos&quot;:null,&quot;index&quot;:null}" fill="none" stroke="#000000" stroke-width="3.5" stroke-linecap="round"/><path d="M264.23578,163.25747c0,0 2.6735,2.2957 2.4645,5.1518" data-paper-data="{&quot;origPos&quot;:null}" fill="none" stroke="#000000" stroke-width="3.5" stroke-linecap="round"/><g data-paper-data="{&quot;origPos&quot;:null}"><g data-paper-data="{&quot;origPos&quot;:null}" fill="#363636" stroke="none" stroke-width="0" stroke-linecap="butt"><path d="M217.64878,183.16355c-2.24015,-5.89449 0.72228,-12.48891 6.61677,-14.72906c5.89449,-2.24015 12.48891,0.72228 14.72906,6.61677c2.24015,5.89449 -0.72228,12.48891 -6.61677,14.72906c-5.89449,2.24015 -12.48891,-0.72227 -14.72906,-6.61676z" data-paper-data="{&quot;origPos&quot;:null}"/><path d="M231.76209,190.01435l-8.11229,-21.34582l12.52015,-4.75817l8.11229,21.34583z"/><path d="M228.46226,179.00038c-2.24015,-5.89449 0.72228,-12.48891 6.61677,-14.72906c5.89449,-2.24015 12.48891,0.72228 14.72906,6.61676c2.24015,5.89449 -0.72228,12.48891 -6.61677,14.72906c-5.89449,2.24015 -12.48891,-0.72228 -14.72906,-6.61676z" data-paper-data="{&quot;origPos&quot;:null}"/></g><path d="M244.19161,176.36467l-2.41809,-6.3627l34.48172,-13.10447l2.41809,6.3627z" data-paper-data="{&quot;origPos&quot;:null}" fill="#363636" stroke="none" stroke-width="0" stroke-linecap="butt"/><path d="M286.99395,156.10485c0.99084,2.60718 -1.60597,6.01286 -5.80013,7.60681c-4.19416,1.59395 -8.39742,0.77257 -9.38825,-1.8346c-0.99084,-2.60718 1.60597,-6.01287 5.80012,-7.60682c4.19416,-1.59395 8.39742,-0.77256 9.38826,1.83461z" data-paper-data="{&quot;origPos&quot;:null}" fill="#363636" stroke="none" stroke-width="0" stroke-linecap="butt"/><g data-paper-data="{&quot;origPos&quot;:null}" fill="#940000" stroke="none" stroke-width="0" stroke-linecap="butt"><path d="M222.91731,181.09791c-1.42343,-3.74545 0.45895,-7.93565 4.2044,-9.35908c3.74545,-1.42343 7.93565,0.45895 9.35907,4.2044c1.42343,3.74545 -0.45895,7.93565 -4.2044,9.35908c-3.74545,1.42343 -7.93565,-0.45894 -9.35907,-4.2044z" data-paper-data="{&quot;origPos&quot;:null}"/><path d="M231.88514,185.45099l-5.15468,-13.56348l7.9555,-3.02342l5.15468,13.56348z"/><path d="M229.78838,178.45252c-1.42343,-3.74545 0.45895,-7.93565 4.2044,-9.35908c3.74545,-1.42343 7.93565,0.45895 9.35908,4.2044c1.42343,3.74545 -0.45894,7.93565 -4.2044,9.35908c-3.74545,1.42343 -7.93565,-0.45894 -9.35908,-4.2044z" data-paper-data="{&quot;origPos&quot;:null}"/></g><path d="M218.35469,180.07657l59.5221,-22.6208" data-paper-data="{&quot;origPos&quot;:null}" fill="none" stroke="#d0d0d0" stroke-width="1" stroke-linecap="round"/><path d="M218.99208,181.89477l63.8977,-24.2838" data-paper-data="{&quot;origPos&quot;:null}" fill="none" stroke="#d0d0d0" stroke-width="1" stroke-linecap="round"/><path d="M219.79778,183.64896l59.522,-22.6208" data-paper-data="{&quot;origPos&quot;:null}" fill="none" stroke="#d0d0d0" stroke-width="1" stroke-linecap="round"/><path d="M219.58974,185.26349l-2.23857,-5.89034l2.01955,-0.76751l2.23857,5.89034z" data-paper-data="{&quot;origPos&quot;:null}" fill="#000000" stroke="none" stroke-width="0" stroke-linecap="butt"/></g><path d="M259.44347,121.93097c0,0 -5.3901,1.6 -8.2,1.6c-3.9026,0 -9,-1.6 -9,-1.6" data-paper-data="{&quot;origPos&quot;:null}" fill="none" stroke="#000000" stroke-width="2" stroke-linecap="round"/><g data-paper-data="{&quot;origPos&quot;:null}"><path d="M264.6887,105.62745c0,0 -0.54259,10.72445 -7.25893,10.7678c-7.10575,0.04586 -7.25893,-10.7678 -7.25893,-10.7678z" data-paper-data="{&quot;origPos&quot;:null}" fill="#000000" stroke="none" stroke-width="NaN" stroke-linecap="butt"/><path d="M252.41371,105.62745c0,0 -0.54259,10.72445 -7.25893,10.7678c-7.10575,0.04586 -7.25893,-10.7678 -7.25893,-10.7678z" data-paper-data="{&quot;origPos&quot;:null}" fill="#000000" stroke="none" stroke-width="NaN" stroke-linecap="butt"/><path d="M250.24762,105.99369l-9.127,-3.6508" data-paper-data="{&quot;origPos&quot;:null}" fill="none" stroke="#000000" stroke-width="2.5" stroke-linecap="round"/><path d="M259.04522,102.37779l-6.9365,3.2857" data-paper-data="{&quot;origPos&quot;:null}" fill="none" stroke="#000000" stroke-width="2.5" stroke-linecap="round"/><path d="M221.78692,110.42389l4.5058,-3.7688l11.9121,0.3902" data-paper-data="{&quot;origPos&quot;:null}" fill="none" stroke="#000000" stroke-width="2.5" stroke-linecap="round"/></g><path d="M223.8557,187.20356c0,-1.13218 2.17357,-2.28246 2.43961,-1.77727c0.13694,0.26004 -0.67854,0.95352 0.20398,1.3568c1.38664,0.63365 5.88955,-0.20743 10.10741,-1.70142c4.34241,-1.53812 8.09382,-3.92978 8.2569,-3.86878c0.09763,0.03652 -2.88702,2.85964 -7.4018,4.61541c-5.07983,1.97551 -9.14986,3.03022 -10.97168,3.1915c-1.40595,0.12446 -2.63442,-0.68405 -2.63442,-1.81623z" fill="#ff8130" stroke="none" stroke-width="NaN" stroke-linecap="butt"/><path d="M242.77502,166.96267c0,1.13218 -2.17357,2.28247 -2.43961,1.77728c-0.13694,-0.26004 0.67854,-0.95352 -0.20399,-1.3568c-1.38664,-0.63365 -5.88955,0.20742 -10.10741,1.70142c-4.34241,1.53812 -8.09382,3.92978 -8.2569,3.86878c-0.09762,-0.03652 2.88702,-2.85964 7.40181,-4.61541c5.07983,-1.9755 9.14986,-3.03022 10.97168,-3.1915c1.40595,-0.12446 2.63441,0.68404 2.63441,1.81623z" data-paper-data="{&quot;index&quot;:null}" fill="#ff8130" stroke="none" stroke-width="NaN" stroke-linecap="butt"/><path d="M229.92499,178.05897c0,0 -7.5334,-5.9319 -4.1945,-16.6625c3.3388,-10.7305 14.8929,-15.9089 14.8929,-15.9089" data-paper-data="{&quot;origPos&quot;:null}" fill="none" stroke="#000000" stroke-width="3.5" stroke-linecap="round"/><path d="M268.21732,158.27479c0.05888,0.14571 0.47157,0.32289 0.02682,0.6423c-0.99766,0.7165 -3.62392,1.80656 -5.17954,2.43514c-2.2491,0.90879 -2.80103,0.68617 -2.99198,0.21359c-0.19095,-0.47258 0.05139,-1.01614 2.30049,-1.92493c1.6314,-0.6592 4.27517,-1.78791 5.4549,-1.92602c0.44669,-0.05229 0.33687,0.43013 0.38931,0.55992z" fill="#756d65" stroke="none" stroke-width="0" stroke-linecap="butt"/><path d="M261.74706,157.52c-0.74775,-3.0043 2.57798,-4.266 6.72035,-5.1834c4.14237,-0.91739 7.62991,-1.25207 8.28049,1.8612c0.73766,3.53002 -2.57798,4.266 -6.72035,5.1834c-4.14236,0.9174 -7.49147,1.30893 -8.28049,-1.86119z" fill="#ab9f93" stroke="none" stroke-width="0" stroke-linecap="butt"/><path d="M255.79311,153.39734c0,-2.6019 2.10926,-4.71116 4.71116,-4.71116c2.6019,0 4.71116,2.10926 4.71116,4.71116c0,2.6019 -2.10926,4.71115 -4.71116,4.71115c-2.6019,0 -4.71116,-2.10925 -4.71116,-4.71115z" fill="#ccbeb0" stroke="none" stroke-width="0" stroke-linecap="butt"/><path d="M270.77835,158.6527c0.05888,0.14571 0.47156,0.3229 0.02682,0.6423c-0.99766,0.7165 -3.62392,1.80656 -5.17953,2.43514c-2.2491,0.90879 -2.80104,0.68617 -2.99199,0.21359c-0.19095,-0.47258 0.05139,-1.01614 2.30049,-1.92494c1.6314,-0.6592 4.27516,-1.78791 5.4549,-1.92602c0.44669,-0.05229 0.33687,0.43013 0.38932,0.55992z" fill="#ccbeb0" stroke="none" stroke-width="0" stroke-linecap="butt"/><path d="M276.46682,156.58171c0.42662,0.30842 0.21401,0.6566 -0.1168,0.89539c-0.74208,0.53566 -2.697,1.3526 -3.855,1.82376c-1.67422,0.6812 -2.08588,0.5163 -2.22901,0.16452c-0.14313,-0.35178 0.03647,-0.75724 1.71069,-1.43843c0,0 3.95473,-1.83231 4.49012,-1.44524z" fill="#ccbeb0" stroke="none" stroke-width="0" stroke-linecap="butt"/><path d="M256.28022,151.433c0,0 -0.085,-0.68148 -0.48214,-1.07694c-0.40794,-0.40622 -1.12311,-0.52784 -0.72068,-0.61592c0.41215,-0.09021 1.04762,-0.34983 1.52332,-0.30246c0.86279,0.08593 1.46146,0.4361 1.46146,0.4361z" data-paper-data="{&quot;index&quot;:null}" fill="#756d65" stroke="#ccbeb0" stroke-width="0.5" stroke-linecap="butt"/><path d="M273.75406,152.84805v-1.06918c0,0 1.27159,-0.13064 2.4966,0.60383c0.61582,0.36922 1.44191,1.25214 1.78136,1.84902c0.85927,1.51092 1.10044,2.66408 0.70185,3.15746c-0.50542,0.62561 -1.02846,1.03494 -1.36692,0.75648c-0.3489,-0.28705 0.14142,-0.56186 0.40291,-1.01646c0.18004,-0.313 0.1121,-1.37694 -0.42795,-1.95268c-0.22102,-0.23563 -0.62438,-1.1778 -1.30466,-1.60688c-0.9819,-0.61934 -2.2832,-0.7216 -2.2832,-0.7216z" fill="#ab9f93" stroke="none" stroke-width="0" stroke-linecap="butt"/><g><g fill="none" stroke="#ffffff" stroke-width="0.25" stroke-linecap="round"><g><path d="M258.63129,154.58238l-2.2,0.03333"/><path d="M258.59796,154.92833l-2.06667,0.63333"/><path d="M259.53128,154.58238l2.56667,-0.2"/><path d="M259.53128,154.89499l2.43333,0.56667"/></g><path d="M256.45401,153.8802l2.18182,0.42424"/><path d="M261.93886,153.69838l-2.54546,0.63636"/></g><path d="M259.75703,154.63777c0,0.25104 -0.30526,0.45455 -0.68182,0.45455c-0.37656,0 -0.68182,-0.20351 -0.68182,-0.45455c0,-0.25104 0.30526,-0.45454 0.68182,-0.45454c0.37656,0 0.68182,0.20351 0.68182,0.45454z" fill="#ffaf8f" stroke="none" stroke-width="0" stroke-linecap="butt"/></g><path d="M259.49235,156.05055c0,0 -0.26663,0.11842 -0.39474,0.11842c-0.12154,0 -0.35526,-0.11842 -0.35526,-0.11842" fill="none" stroke="#000000" stroke-width="0.25" stroke-linecap="round"/><g data-paper-data="{&quot;index&quot;:null}" stroke-width="0.25"><path d="M259.27487,151.54235c0,0 -0.026,1.83554 -1.23215,1.82776c-1.14006,-0.00736 -1.23215,-1.82776 -1.23215,-1.82776z" data-paper-data="{&quot;origPos&quot;:null}" fill="#000000" stroke="none" stroke-linecap="butt"/><path d="M261.35846,151.54235c0,0 -0.026,1.83554 -1.23215,1.82776c-1.14006,-0.00736 -1.23215,-1.82776 -1.23215,-1.82776z" data-paper-data="{&quot;origPos&quot;:null}" fill="#000000" stroke="none" stroke-linecap="butt"/><path d="M260.81108,150.98482l-1.54925,0.61969" data-paper-data="{&quot;origPos&quot;:null}" fill="none" stroke="#000000" stroke-linecap="round"/><path d="M257.7685,150.99074l1.17742,0.55773" data-paper-data="{&quot;origPos&quot;:null}" fill="none" stroke="#000000" stroke-linecap="round"/><path d="M261.30602,151.78302l2.022,-0.06624l0.76483,0.63973" data-paper-data="{&quot;origPos&quot;:null}" fill="none" stroke="#000000" stroke-linecap="round"/></g><g stroke="none" stroke-width="0" stroke-linecap="butt"><path d="M224.75604,99.72056l-6.55176,-13.1254l11.04985,9.61517z" data-paper-data="{&quot;origRot&quot;:0,&quot;index&quot;:null}" fill="url(#color-1)"/><path d="M231.01527,94.73256l-0.97082,-14.6376l6.47595,13.13822z" data-paper-data="{&quot;origRot&quot;:0,&quot;index&quot;:null}" fill="url(#color-2)"/><path d="M238.44837,92.48205l3.41025,-14.26787l2.29192,14.46712z" data-paper-data="{&quot;origRot&quot;:0,&quot;index&quot;:null}" fill="url(#color-3)"/><path d="M246.83153,92.87568l5.13168,-13.74292l0.50319,14.6389z" data-paper-data="{&quot;origRot&quot;:0,&quot;index&quot;:null}" fill="url(#color-4)"/><path d="M249.35097,91.83968l11.0998,-18.28847l-3.2816,21.17295z" data-paper-data="{&quot;origPos&quot;:null,&quot;origRot&quot;:0}" fill="url(#color-5)"/><path d="M241.42384,91.30024l5.40804,-20.69847l2.90849,21.22742z" data-paper-data="{&quot;origPos&quot;:null,&quot;origRot&quot;:0}" fill="url(#color-6)"/><path d="M233.26461,92.40801l1.68094,-21.32717l6.59888,20.38424z" data-paper-data="{&quot;origPos&quot;:null,&quot;origRot&quot;:0}" fill="url(#color-7)"/><path d="M226.31242,96.62296l-6.47886,-20.38867l13.79315,16.39547z" data-paper-data="{&quot;origPos&quot;:null,&quot;origRot&quot;:0}" fill="url(#color-8)"/><path d="M222.13547,102.98977l-14.65647,-15.58401l19.52561,8.82117z" data-paper-data="{&quot;origPos&quot;:null,&quot;origRot&quot;:0}" fill="url(#color-9)"/><path d="M221.73698,103.39151l-2.22222,-3.16667c0,0 6.38341,-8.47783 12.17592,-10.27711c5.07732,-1.57713 9.53439,-2.5917 14.84742,-2.39599c4.92451,0.1814 11.22667,2.45088 11.22667,2.45088l-0.77778,4.83333c0,0 -10.41026,-2.81305 -19.68248,-1.48114c-9.96697,1.43172 -15.56752,10.03669 -15.56752,10.03669z" data-paper-data="{&quot;origPos&quot;:null}" fill="#d21414"/></g><g data-paper-data="{&quot;index&quot;:null}" stroke="none" stroke-width="0" stroke-linecap="butt"><path d="M263.50528,150.22535l2.09304,-1.82128l-1.24102,2.48618z" data-paper-data="{&quot;origRot&quot;:0,&quot;index&quot;:null}" fill="url(#color-10)"/><path d="M262.12892,149.66143l1.22666,-2.48861l-0.18389,2.77262z" data-paper-data="{&quot;origRot&quot;:0,&quot;index&quot;:null}" fill="url(#color-11)"/><path d="M260.68363,149.5569l0.43413,-2.74033l0.64596,2.70259z" data-paper-data="{&quot;origRot&quot;:0,&quot;index&quot;:null}" fill="url(#color-12)"/><path d="M259.10846,149.76342l0.09531,-2.77287l0.97203,2.60315z" data-paper-data="{&quot;origRot&quot;:0,&quot;index&quot;:null}" fill="url(#color-13)"/><path d="M258.21768,149.94385l-0.62159,-4.01053l2.1025,3.46416z" data-paper-data="{&quot;origPos&quot;:null,&quot;origRot&quot;:0}" fill="url(#color-14)"/><path d="M259.62482,149.39549l0.55092,-4.02085l1.02438,3.92065z" data-paper-data="{&quot;origPos&quot;:null,&quot;origRot&quot;:0}" fill="url(#color-15)"/><path d="M261.17728,149.32652l1.24994,-3.86113l0.3184,4.03974z" data-paper-data="{&quot;origPos&quot;:null,&quot;origRot&quot;:0}" fill="url(#color-16)"/><path d="M262.67704,149.54713l2.61267,-3.10559l-1.22721,3.86197z" data-paper-data="{&quot;origPos&quot;:null,&quot;origRot&quot;:0}" fill="url(#color-17)"/><path d="M263.93138,150.2285l3.69849,-1.67088l-2.77619,2.95189z" data-paper-data="{&quot;origPos&quot;:null,&quot;origRot&quot;:0}" fill="url(#color-18)"/><path d="M264.92915,151.5856c0,0 -1.06084,-1.62993 -2.94876,-1.90113c-1.75632,-0.25229 -3.72821,0.28055 -3.72821,0.28055l-0.14733,-0.91552c0,0 1.19374,-0.42988 2.12653,-0.46424c1.00638,-0.03707 1.85063,0.15511 2.81236,0.45384c1.0972,0.34082 2.30633,1.94667 2.30633,1.94667l-0.42093,0.59982z" data-paper-data="{&quot;origPos&quot;:null}" fill="#d21414"/></g><path d="M262.61681,150.12252c0,0 0.4582,-0.36 0.94907,-0.80171c0.49045,-0.44135 1.01353,-0.96442 1.14474,-0.9357c0.07358,0.01611 0.15833,0.7628 0.08326,1.4742c-0.08975,0.85049 -0.35055,1.68877 -0.35055,1.68877z" fill="#756d65" stroke="#ccbeb0" stroke-width="0.5" stroke-linecap="butt"/></g></g></svg>