<svg xmlns="http://www.w3.org/2000/svg" xmlns:xlink="http://www.w3.org/1999/xlink" version="1.1" width="73.30067443847656" height="157.9062957763672" viewBox="-0.5 -0.5 73.30067443847656 157.9062957763672"><g><g data-paper-data="{&quot;isPaintingLayer&quot;:true}" fill-rule="nonzero" stroke-linecap="none" stroke-linejoin="miter" stroke-miterlimit="10" stroke-dasharray="" stroke-dashoffset="0" font-family="none" font-weight="none" font-size="none" text-anchor="none" style="mix-blend-mode: normal"><path d="M 25.3453 49.4404 L 25.3453 116.7375 L 13.2976 155.6563 " data-paper-data="{&quot;origPos&quot;:null}" fill="none" stroke="#000000" stroke-width="3.5" stroke-linecap="round"/><path d="M 26.1484 115.3008 L 38.196 155.4595 " fill="none" stroke="#000000" stroke-width="3.5" stroke-linecap="round"/><path d="M 1.25 26.55 C 1.25 12.5772 12.5772 1.25 26.55 1.25 C 40.5228 1.25 51.85 12.5772 51.85 26.55 C 51.85 40.5228 40.5228 51.85 26.55 51.85 C 12.5772 51.85 1.25 40.5228 1.25 26.55 Z " data-paper-data="{&quot;origPos&quot;:null}" fill="#d4d4d4" stroke="#000000" stroke-width="2.5" stroke-linecap="butt"/><path d="M238.40157,109.34919c0,-2.66149 2.15756,-4.81905 4.81905,-4.81905c2.66149,0 4.81905,2.15756 4.81905,4.81905c0,2.66149 -2.15756,4.81905 -4.81905,4.81905c-2.66149,0 -4.81905,-2.15756 -4.81905,-4.81905z" data-paper-data="{&quot;origPos&quot;:null}" fill="#000000" stroke="none" stroke-width="0" stroke-linecap="butt" transform="matrix(1,0,0,1,-216.26903,-88.82299)"/><path d="M252.05554,109.34919c0,-2.66148 2.15757,-4.81905 4.81905,-4.81905c2.66148,0 4.81905,2.15757 4.81905,4.81905c0,2.66148 -2.15757,4.81905 -4.81905,4.81905c-2.66148,0 -4.81905,-2.15757 -4.81905,-4.81905z" data-paper-data="{&quot;origPos&quot;:null}" fill="#000000" stroke="none" stroke-width="0" stroke-linecap="butt" transform="matrix(1,0,0,1,-216.26903,-88.82299)"/><path d="M 31.4786 17.1706 L 22.3516 13.5198 " data-paper-data="{&quot;origPos&quot;:null}" fill="none" stroke="#000000" stroke-width="2.5" stroke-linecap="round"/><path d="M 43.5262 13.5548 L 36.5897 16.8405 " data-paper-data="{&quot;origPos&quot;:null}" fill="none" stroke="#000000" stroke-width="2.5" stroke-linecap="round"/><path d="M 37.0937 53.0857 C 37.0937 53.0857 27.1771 80.1252 18.912 80.3393 C 12.9411 80.4941 24.0421 57.7643 24.0421 57.7643 " data-paper-data="{&quot;origPos&quot;:null}" fill="none" stroke="#000000" stroke-width="3.5" stroke-linecap="round"/><path d="M 57.4309 53.3357 C 57.4309 53.3357 43.5873 77.5949 39.3671 76.8007 C 33.0704 75.6157 26.2325 57.7643 26.2325 57.7643 " data-paper-data="{&quot;origPos&quot;:null,&quot;index&quot;:null}" fill="none" stroke="#000000" stroke-width="3.5" stroke-linecap="round"/><g data-paper-data="{&quot;origPos&quot;:null,&quot;origRot&quot;:0,&quot;index&quot;:null}" stroke-linecap="butt"><path d="M264.22212,142.68908l5.48463,-13.79981l13.24075,5.26243l-5.48463,13.79981z" data-paper-data="{&quot;origPos&quot;:null}" stroke-width="NaN" fill="#e72e2e" stroke="none" transform="matrix(1,0,0,1,-216.26903,-88.82299)"/><path d="M280.32605,120.65036c5.27308,2.09575 8.19371,7.20157 6.52342,11.40417c-1.67029,4.20261 -7.29901,5.91055 -12.57209,3.81481c-5.27308,-2.09575 -8.19371,-7.20157 -6.52342,-11.40417c1.67029,-4.20261 7.29901,-5.91055 12.57209,-3.81481z" data-paper-data="{&quot;origPos&quot;:null}" stroke-width="0" fill="#e72e2e" stroke="none" transform="matrix(1,0,0,1,-216.26903,-88.82299)"/><path d="M270.23576,128.49291c0.1909,3.15915 -0.95517,5.79874 -2.55982,5.8957c-1.60464,0.09696 -3.06022,-2.38542 -3.25112,-5.54457c-0.1909,-3.15915 0.95518,-5.79874 2.55982,-5.8957c1.60464,-0.09696 3.06022,2.38543 3.25111,5.54457z" data-paper-data="{&quot;origPos&quot;:null,&quot;origRot&quot;:0}" stroke-width="0" fill="#e72e2e" stroke="none" transform="matrix(1,0,0,1,-216.26903,-88.82299)"/></g><g data-paper-data="{&quot;origPos&quot;:null,&quot;origRot&quot;:0,&quot;index&quot;:null}" stroke-linecap="butt"><path d="M246.72211,141.6891l5.48463,-13.7998l13.24075,5.26243l-5.48462,13.79981z" data-paper-data="{&quot;origPos&quot;:null}" stroke-width="NaN" fill="#ff3333" stroke="none" transform="matrix(1,0,0,1,-216.26903,-88.82299)"/><path d="M262.82605,119.65036c5.27308,2.09574 8.19372,7.20157 6.52342,11.40418c-1.6703,4.20261 -7.29901,5.91055 -12.57209,3.8148c-5.27308,-2.09574 -8.19371,-7.20156 -6.52342,-11.40417c1.6703,-4.20261 7.29901,-5.91055 12.57209,-3.81481z" data-paper-data="{&quot;origPos&quot;:null}" stroke-width="0" fill="#ff3333" stroke="none" transform="matrix(1,0,0,1,-216.26903,-88.82299)"/><path d="M252.73576,127.49292c0.1909,3.15914 -0.95517,5.79874 -2.55982,5.8957c-1.60465,0.09696 -3.06022,-2.38542 -3.25112,-5.54457c-0.1909,-3.15914 0.95517,-5.79874 2.55982,-5.89571c1.60465,-0.09696 3.06022,2.38543 3.25112,5.54457z" data-paper-data="{&quot;origPos&quot;:null,&quot;origRot&quot;:0}" stroke-width="0" fill="#ff3333" stroke="none" transform="matrix(1,0,0,1,-216.26903,-88.82299)"/></g></g></g></svg>