<svg xmlns="http://www.w3.org/2000/svg" xmlns:xlink="http://www.w3.org/1999/xlink" version="1.1" width="61.37522" height="162.95726" viewBox="0,0,61.37522,162.95726"><defs><linearGradient x1="232.28149" y1="90.31698" x2="232.28149" y2="136.21574" gradientUnits="userSpaceOnUse" id="color-1"><stop offset="0" stop-color="#ffe500"/><stop offset="1" stop-color="#b29100"/></linearGradient><linearGradient x1="232.15933" y1="92.81025" x2="232.15933" y2="140.88684" gradientUnits="userSpaceOnUse" id="color-2"><stop offset="0" stop-color="#ffe500"/><stop offset="1" stop-color="#b29100"/></linearGradient><linearGradient x1="224.80389" y1="90.09365" x2="224.80389" y2="138.17459" gradientUnits="userSpaceOnUse" id="color-3"><stop offset="0" stop-color="#ffe500"/><stop offset="1" stop-color="#b29100"/></linearGradient><linearGradient x1="227.22822" y1="86.34874" x2="227.22822" y2="128.11914" gradientUnits="userSpaceOnUse" id="color-4"><stop offset="0" stop-color="#ffe500"/><stop offset="1" stop-color="#b29100"/></linearGradient><linearGradient x1="239.63693" y1="87.59944" x2="239.63693" y2="133.50349" gradientUnits="userSpaceOnUse" id="color-5"><stop offset="0" stop-color="#ffe500"/><stop offset="1" stop-color="#b29100"/></linearGradient><linearGradient x1="239.57819" y1="90.09365" x2="239.57819" y2="138.17459" gradientUnits="userSpaceOnUse" id="color-6"><stop offset="0" stop-color="#ffe500"/><stop offset="1" stop-color="#b29100"/></linearGradient><linearGradient x1="239.59152" y1="91.1774" x2="239.59152" y2="143.90043" gradientUnits="userSpaceOnUse" id="color-7"><stop offset="0" stop-color="#ffe500"/><stop offset="1" stop-color="#b29100"/></linearGradient><linearGradient x1="249.38761" y1="84.81715" x2="249.38761" y2="130.70366" gradientUnits="userSpaceOnUse" id="color-8"><stop offset="0" stop-color="#ffe500"/><stop offset="1" stop-color="#b29100"/></linearGradient><linearGradient x1="249.32446" y1="87.31067" x2="249.32446" y2="135.45009" gradientUnits="userSpaceOnUse" id="color-9"><stop offset="0" stop-color="#ffe500"/><stop offset="1" stop-color="#b29100"/></linearGradient><linearGradient x1="259.00726" y1="88.69139" x2="259.00726" y2="141.47731" gradientUnits="userSpaceOnUse" id="color-10"><stop offset="0" stop-color="#ffe500"/><stop offset="1" stop-color="#b29100"/></linearGradient><linearGradient x1="258.95761" y1="87.61203" x2="258.95761" y2="135.75147" gradientUnits="userSpaceOnUse" id="color-11"><stop offset="0" stop-color="#ffe500"/><stop offset="1" stop-color="#b29100"/></linearGradient><linearGradient x1="249.36909" y1="88.46537" x2="249.36909" y2="141.2513" gradientUnits="userSpaceOnUse" id="color-12"><stop offset="0" stop-color="#ffe500"/><stop offset="1" stop-color="#b29100"/></linearGradient><linearGradient x1="225.01395" y1="92.53398" x2="225.01395" y2="92.53398" gradientUnits="userSpaceOnUse" id="color-13"><stop offset="0" stop-color="#ffe500"/><stop offset="1" stop-color="#b29100"/></linearGradient><linearGradient x1="244.0941" y1="84.83121" x2="244.0941" y2="104.06103" gradientUnits="userSpaceOnUse" id="color-14"><stop offset="0" stop-color="#ffe500"/><stop offset="1" stop-color="#b29100"/></linearGradient><linearGradient x1="258.52249" y1="85.11851" x2="258.52249" y2="131.00502" gradientUnits="userSpaceOnUse" id="color-15"><stop offset="0" stop-color="#ffe500"/><stop offset="1" stop-color="#b29100"/></linearGradient><linearGradient x1="256.85363" y1="83.85471" x2="256.85363" y2="130.01799" gradientUnits="userSpaceOnUse" id="color-16"><stop offset="0" stop-color="#ffe500"/><stop offset="1" stop-color="#b29100"/></linearGradient><linearGradient x1="256.67341" y1="86.32303" x2="256.67341" y2="134.60735" gradientUnits="userSpaceOnUse" id="color-17"><stop offset="0" stop-color="#ffe500"/><stop offset="1" stop-color="#b29100"/></linearGradient><linearGradient x1="257.90214" y1="86.96123" x2="257.90214" y2="135.29083" gradientUnits="userSpaceOnUse" id="color-18"><stop offset="0" stop-color="#ffe500"/><stop offset="1" stop-color="#b29100"/></linearGradient><linearGradient x1="230.06207" y1="84.1216" x2="230.06207" y2="128.98308" gradientUnits="userSpaceOnUse" id="color-19"><stop offset="0" stop-color="#ffe500"/><stop offset="1" stop-color="#b29100"/></linearGradient><linearGradient x1="232.02635" y1="85.46966" x2="232.02635" y2="133.12679" gradientUnits="userSpaceOnUse" id="color-20"><stop offset="0" stop-color="#ffe500"/><stop offset="1" stop-color="#b29100"/></linearGradient><linearGradient x1="235.60232" y1="87.60957" x2="235.60232" y2="137.72255" gradientUnits="userSpaceOnUse" id="color-21"><stop offset="0" stop-color="#ffe500"/><stop offset="1" stop-color="#b29100"/></linearGradient><linearGradient x1="255.08287" y1="115.82061" x2="216.12913" y2="225.09312" gradientUnits="userSpaceOnUse" id="color-22"><stop offset="0" stop-color="#ffffff"/><stop offset="1" stop-color="#0057ff"/></linearGradient><linearGradient x1="232.80958" y1="90.32908" x2="232.80958" y2="136.22784" gradientUnits="userSpaceOnUse" id="color-23"><stop offset="0" stop-color="#ffe500"/><stop offset="1" stop-color="#b29100"/></linearGradient><linearGradient x1="232.68742" y1="92.82235" x2="232.68742" y2="140.89893" gradientUnits="userSpaceOnUse" id="color-24"><stop offset="0" stop-color="#ffe500"/><stop offset="1" stop-color="#b29100"/></linearGradient><linearGradient x1="225.33198" y1="90.10575" x2="225.33198" y2="138.18669" gradientUnits="userSpaceOnUse" id="color-25"><stop offset="0" stop-color="#ffe500"/><stop offset="1" stop-color="#b29100"/></linearGradient><linearGradient x1="227.75631" y1="86.36084" x2="227.75631" y2="128.13123" gradientUnits="userSpaceOnUse" id="color-26"><stop offset="0" stop-color="#ffe500"/><stop offset="1" stop-color="#b29100"/></linearGradient><linearGradient x1="240.16502" y1="87.61154" x2="240.16502" y2="133.51558" gradientUnits="userSpaceOnUse" id="color-27"><stop offset="0" stop-color="#ffe500"/><stop offset="1" stop-color="#b29100"/></linearGradient><linearGradient x1="240.10627" y1="90.10575" x2="240.10627" y2="138.18669" gradientUnits="userSpaceOnUse" id="color-28"><stop offset="0" stop-color="#ffe500"/><stop offset="1" stop-color="#b29100"/></linearGradient><linearGradient x1="225.54204" y1="92.54607" x2="225.54204" y2="92.54607" gradientUnits="userSpaceOnUse" id="color-29"><stop offset="0" stop-color="#ffe500"/><stop offset="1" stop-color="#b29100"/></linearGradient><linearGradient x1="244.62219" y1="84.84331" x2="244.62219" y2="104.07313" gradientUnits="userSpaceOnUse" id="color-30"><stop offset="0" stop-color="#ffe500"/><stop offset="1" stop-color="#b29100"/></linearGradient><linearGradient x1="230.59015" y1="84.1337" x2="230.59015" y2="128.99517" gradientUnits="userSpaceOnUse" id="color-31"><stop offset="0" stop-color="#ffe500"/><stop offset="1" stop-color="#b29100"/></linearGradient><linearGradient x1="232.55444" y1="85.48176" x2="232.55444" y2="133.13888" gradientUnits="userSpaceOnUse" id="color-32"><stop offset="0" stop-color="#ffe500"/><stop offset="1" stop-color="#b29100"/></linearGradient><linearGradient x1="236.13041" y1="87.62167" x2="236.13041" y2="137.73465" gradientUnits="userSpaceOnUse" id="color-33"><stop offset="0" stop-color="#ffe500"/><stop offset="1" stop-color="#b29100"/></linearGradient><linearGradient x1="242.66619" y1="145.72573" x2="242.66619" y2="183.92573" gradientUnits="userSpaceOnUse" id="color-34"><stop offset="0" stop-color="#0da3ff"/><stop offset="1" stop-color="#ffffff"/></linearGradient><linearGradient x1="233.5662" y1="145.12572" x2="233.5662" y2="188.52572" gradientUnits="userSpaceOnUse" id="color-35"><stop offset="0" stop-color="#ffffff"/><stop offset="1" stop-color="#ffffff"/></linearGradient><linearGradient x1="250.5662" y1="145.72572" x2="250.5662" y2="189.12572" gradientUnits="userSpaceOnUse" id="color-36"><stop offset="0" stop-color="#ffffff"/><stop offset="1" stop-color="#ffffff"/></linearGradient><linearGradient x1="21.6358" y1="6.4623" x2="21.6358" y2="52.361" gradientUnits="userSpaceOnUse" id="color-1-,0,0,1,-210.64572,-83.85471"><stop offset="0" stop-color="#ffe500"/><stop offset="1" stop-color="#b29100"/></linearGradient><linearGradient x1="21.5136" y1="8.9555" x2="21.5136" y2="57.0321" gradientUnits="userSpaceOnUse" id="color-2-,0,0,1,-210.64572,-83.85471"><stop offset="0" stop-color="#ffe500"/><stop offset="1" stop-color="#b29100"/></linearGradient><linearGradient x1="14.1582" y1="6.2389" x2="14.1582" y2="54.3199" gradientUnits="userSpaceOnUse" id="color-3-,0,0,1,-210.64572,-83.85471"><stop offset="0" stop-color="#ffe500"/><stop offset="1" stop-color="#b29100"/></linearGradient><linearGradient x1="16.5825" y1="2.494" x2="16.5825" y2="44.2644" gradientUnits="userSpaceOnUse" id="color-4-,0,0,1,-210.64572,-83.85471"><stop offset="0" stop-color="#ffe500"/><stop offset="1" stop-color="#b29100"/></linearGradient><linearGradient x1="28.9912" y1="3.7447" x2="28.9912" y2="49.6488" gradientUnits="userSpaceOnUse" id="color-5-,0,0,1,-210.64572,-83.85471"><stop offset="0" stop-color="#ffe500"/><stop offset="1" stop-color="#b29100"/></linearGradient><linearGradient x1="28.9325" y1="6.2389" x2="28.9325" y2="54.3199" gradientUnits="userSpaceOnUse" id="color-6-,0,0,1,-210.64572,-83.85471"><stop offset="0" stop-color="#ffe500"/><stop offset="1" stop-color="#b29100"/></linearGradient><linearGradient x1="28.9458" y1="7.3227" x2="28.9458" y2="60.0457" gradientUnits="userSpaceOnUse" id="color-7-,0,0,1,-210.64572,-83.85471"><stop offset="0" stop-color="#ffe500"/><stop offset="1" stop-color="#b29100"/></linearGradient><linearGradient x1="38.7419" y1="0.9624" x2="38.7419" y2="46.849" gradientUnits="userSpaceOnUse" id="color-8-,0,0,1,-210.64572,-83.85471"><stop offset="0" stop-color="#ffe500"/><stop offset="1" stop-color="#b29100"/></linearGradient><linearGradient x1="38.6787" y1="3.456" x2="38.6787" y2="51.5954" gradientUnits="userSpaceOnUse" id="color-9-,0,0,1,-210.64572,-83.85471"><stop offset="0" stop-color="#ffe500"/><stop offset="1" stop-color="#b29100"/></linearGradient><linearGradient x1="48.3615" y1="4.8367" x2="48.3615" y2="57.6226" gradientUnits="userSpaceOnUse" id="color-10-,0,0,1,-210.64572,-83.85471"><stop offset="0" stop-color="#ffe500"/><stop offset="1" stop-color="#b29100"/></linearGradient><linearGradient x1="48.3119" y1="3.7573" x2="48.3119" y2="51.8968" gradientUnits="userSpaceOnUse" id="color-11-,0,0,1,-210.64572,-83.85471"><stop offset="0" stop-color="#ffe500"/><stop offset="1" stop-color="#b29100"/></linearGradient><linearGradient x1="38.7234" y1="4.6107" x2="38.7234" y2="57.3966" gradientUnits="userSpaceOnUse" id="color-12-,0,0,1,-210.64572,-83.85471"><stop offset="0" stop-color="#ffe500"/><stop offset="1" stop-color="#b29100"/></linearGradient><linearGradient x1="33.4484" y1="0.9765" x2="33.4484" y2="20.2063" gradientUnits="userSpaceOnUse" id="color-14-,0,0,1,-210.64572,-83.85471"><stop offset="0" stop-color="#ffe500"/><stop offset="1" stop-color="#b29100"/></linearGradient><linearGradient x1="47.8768" y1="1.2638" x2="47.8768" y2="47.1503" gradientUnits="userSpaceOnUse" id="color-15-,0,0,1,-210.64572,-83.85471"><stop offset="0" stop-color="#ffe500"/><stop offset="1" stop-color="#b29100"/></linearGradient><linearGradient x1="46.2079" y1="0" x2="46.2079" y2="46.1633" gradientUnits="userSpaceOnUse" id="color-16-,0,0,1,-210.64572,-83.85471"><stop offset="0" stop-color="#ffe500"/><stop offset="1" stop-color="#b29100"/></linearGradient><linearGradient x1="46.0277" y1="2.4683" x2="46.0277" y2="50.7526" gradientUnits="userSpaceOnUse" id="color-17-,0,0,1,-210.64572,-83.85471"><stop offset="0" stop-color="#ffe500"/><stop offset="1" stop-color="#b29100"/></linearGradient><linearGradient x1="47.2564" y1="3.1065" x2="47.2564" y2="51.4361" gradientUnits="userSpaceOnUse" id="color-18-,0,0,1,-210.64572,-83.85471"><stop offset="0" stop-color="#ffe500"/><stop offset="1" stop-color="#b29100"/></linearGradient><linearGradient x1="19.4163" y1="0.2669" x2="19.4163" y2="45.1284" gradientUnits="userSpaceOnUse" id="color-19-,0,0,1,-210.64572,-83.85471"><stop offset="0" stop-color="#ffe500"/><stop offset="1" stop-color="#b29100"/></linearGradient><linearGradient x1="21.3806" y1="1.615" x2="21.3806" y2="49.2721" gradientUnits="userSpaceOnUse" id="color-20-,0,0,1,-210.64572,-83.85471"><stop offset="0" stop-color="#ffe500"/><stop offset="1" stop-color="#b29100"/></linearGradient><linearGradient x1="24.9566" y1="3.7549" x2="24.9566" y2="53.8678" gradientUnits="userSpaceOnUse" id="color-21-,0,0,1,-210.64572,-83.85471"><stop offset="0" stop-color="#ffe500"/><stop offset="1" stop-color="#b29100"/></linearGradient><linearGradient x1="44.4372" y1="31.9659" x2="5.4834" y2="141.2384" gradientUnits="userSpaceOnUse" id="color-22-,0,0,1,-210.64572,-83.85471"><stop offset="0" stop-color="#ffffff"/><stop offset="1" stop-color="#0057ff"/></linearGradient><linearGradient x1="22.1639" y1="6.4744" x2="22.1639" y2="52.3731" gradientUnits="userSpaceOnUse" id="color-23-,0,0,1,-210.64572,-83.85471"><stop offset="0" stop-color="#ffe500"/><stop offset="1" stop-color="#b29100"/></linearGradient><linearGradient x1="22.0417" y1="8.9676" x2="22.0417" y2="57.0442" gradientUnits="userSpaceOnUse" id="color-24-,0,0,1,-210.64572,-83.85471"><stop offset="0" stop-color="#ffe500"/><stop offset="1" stop-color="#b29100"/></linearGradient><linearGradient x1="14.6863" y1="6.251" x2="14.6863" y2="54.332" gradientUnits="userSpaceOnUse" id="color-25-,0,0,1,-210.64572,-83.85471"><stop offset="0" stop-color="#ffe500"/><stop offset="1" stop-color="#b29100"/></linearGradient><linearGradient x1="17.1106" y1="2.5061" x2="17.1106" y2="44.2765" gradientUnits="userSpaceOnUse" id="color-26-,0,0,1,-210.64572,-83.85471"><stop offset="0" stop-color="#ffe500"/><stop offset="1" stop-color="#b29100"/></linearGradient><linearGradient x1="29.5193" y1="3.7568" x2="29.5193" y2="49.6609" gradientUnits="userSpaceOnUse" id="color-27-,0,0,1,-210.64572,-83.85471"><stop offset="0" stop-color="#ffe500"/><stop offset="1" stop-color="#b29100"/></linearGradient><linearGradient x1="29.4605" y1="6.251" x2="29.4605" y2="54.332" gradientUnits="userSpaceOnUse" id="color-28-,0,0,1,-210.64572,-83.85471"><stop offset="0" stop-color="#ffe500"/><stop offset="1" stop-color="#b29100"/></linearGradient><linearGradient x1="33.9765" y1="0.9886" x2="33.9765" y2="20.2184" gradientUnits="userSpaceOnUse" id="color-30-,0,0,1,-210.64572,-83.85471"><stop offset="0" stop-color="#ffe500"/><stop offset="1" stop-color="#b29100"/></linearGradient><linearGradient x1="19.9444" y1="0.279" x2="19.9444" y2="45.1405" gradientUnits="userSpaceOnUse" id="color-31-,0,0,1,-210.64572,-83.85471"><stop offset="0" stop-color="#ffe500"/><stop offset="1" stop-color="#b29100"/></linearGradient><linearGradient x1="21.9087" y1="1.627" x2="21.9087" y2="49.2842" gradientUnits="userSpaceOnUse" id="color-32-,0,0,1,-210.64572,-83.85471"><stop offset="0" stop-color="#ffe500"/><stop offset="1" stop-color="#b29100"/></linearGradient><linearGradient x1="25.4847" y1="3.767" x2="25.4847" y2="53.8799" gradientUnits="userSpaceOnUse" id="color-33-,0,0,1,-210.64572,-83.85471"><stop offset="0" stop-color="#ffe500"/><stop offset="1" stop-color="#b29100"/></linearGradient><linearGradient x1="32.0205" y1="61.871" x2="32.0205" y2="100.071" gradientUnits="userSpaceOnUse" id="color-34-,0,0,1,-210.64572,-83.85471"><stop offset="0" stop-color="#0da3ff"/><stop offset="1" stop-color="#ffffff"/></linearGradient><linearGradient x1="22.9205" y1="61.271" x2="22.9205" y2="104.671" gradientUnits="userSpaceOnUse" id="color-35-,0,0,1,-210.64572,-83.85471"><stop offset="0" stop-color="#ffffff"/><stop offset="1" stop-color="#ffffff"/></linearGradient><linearGradient x1="39.9205" y1="61.871" x2="39.9205" y2="105.271" gradientUnits="userSpaceOnUse" id="color-36-,0,0,1,-210.64572,-83.85471"><stop offset="0" stop-color="#ffffff"/><stop offset="1" stop-color="#ffffff"/></linearGradient></defs><g><g data-paper-data="{&quot;isPaintingLayer&quot;:true}" fill-rule="nonzero" stroke-linejoin="miter" stroke-miterlimit="10" stroke-dasharray="" stroke-dashoffset="0" style="mix-blend-mode: normal"><g><g stroke-linecap="butt"><path d="M 35.0396 8.0012 C 36.0541 9.3573 14.8755 8.9806 14.8755 29.0965 C 14.8755 49.2123 13.2269 52.904 10.3101 52.3013 C 5.8714 51.4725 9.8028 49.4383 9.8028 29.3225 C 9.676 16.0626 24.3868 1.6726 35.0396 8.0012 Z " fill="url(#color-1-,0,0,1,-210.64572,-83.85471)" stroke-width="1" stroke="none"/><path d="M 32.63 10.3368 C 33.6446 11.6929 17.0314 13.6517 17.0314 33.7676 C 17.0314 53.8834 15.3828 57.5751 12.466 56.9724 C 8.0273 56.1436 11.9587 54.1094 11.9587 33.9936 C 11.9587 20.7337 22.1041 4.0082 32.63 10.3368 Z " fill="url(#color-2-,0,0,1,-210.64572,-83.85471)" stroke-width="1" stroke="none"/><path d="M 25.2746 7.6245 C 26.2891 8.9806 9.676 10.9395 9.676 31.0553 C 9.676 51.1712 8.0273 54.8628 5.1105 54.2601 C 0.6719 53.4314 4.6032 51.3972 4.6032 31.2813 C 4.6032 17.9461 14.7487 1.2959 25.2746 7.6245 Z " fill="url(#color-3-,0,0,1,-210.64572,-83.85471)" stroke-width="1" stroke="none"/><path d="M 8.7882 24.124 C 8.7882 44.2399 17.5387 44.6166 14.6219 44.0892 C 10.1832 44.8426 7.6469 44.0138 4.4764 23.9733 C 2.3205 10.1107 11.9587 0.0151 28.9523 3.0288 C 29.9668 4.3849 8.7882 4.0082 8.7882 24.124 Z " fill="url(#color-4-,0,0,1,-210.64572,-83.85471)" stroke-width="1" stroke="none"/><path d="M 42.395 5.289 C 43.4095 6.6451 22.2309 6.2684 22.2309 26.3842 C 22.2309 46.5001 20.5823 50.1917 17.6655 49.589 C 13.2269 48.7603 17.1582 46.7261 17.1582 26.6102 C 17.0314 13.275 31.8691 -1.0396 42.395 5.2889 Z " fill="url(#color-5-,0,0,1,-210.64572,-83.85471)" stroke-width="1" stroke="none"/><path d="M 40.1123 7.6245 C 41.1268 8.9806 24.5137 10.9395 24.5137 31.0553 C 24.5137 51.1712 22.865 54.8628 19.8214 54.2601 C 15.3828 53.4314 19.3141 51.3972 19.3141 31.2813 C 19.4409 17.9461 29.4596 1.2959 40.1123 7.6245 Z " fill="url(#color-6-,0,0,1,-210.64572,-83.85471)" stroke-width="1" stroke="none"/><path d="M 36.815 8.9806 C 37.8296 10.3368 27.6841 16.6653 27.6841 36.7812 C 27.6841 56.897 26.0355 60.5887 23.1187 59.986 C 18.68 59.1572 22.6114 57.123 22.6114 37.0072 C 22.6114 23.7473 30.8546 0.9946 36.815 8.9806 Z " fill="url(#color-7-,0,0,1,-210.64572,-83.85471)" stroke-width="1" stroke="none"/><path d="M 25.2746 2.5014 C 35.8005 -3.8272 50.6382 10.5628 50.6382 23.8227 C 50.6382 43.9385 54.5695 45.9727 50.1309 46.8014 C 47.2141 47.3288 45.5655 43.7125 45.5655 23.5966 C 45.5655 3.4808 24.26 3.8575 25.2746 2.5014 Z " fill="url(#color-8-,0,0,1,-210.64572,-83.85471)" stroke-width="1" stroke="none"/><path d="M 27.5573 4.8369 C 38.0832 -1.4917 48.2286 15.2339 48.2286 28.5691 C 48.2286 48.6849 52.16 50.7191 47.7214 51.5479 C 44.8046 52.0752 43.1559 48.4589 43.1559 28.3431 C 43.1559 8.2272 26.6696 6.193 27.5573 4.8369 Z " fill="url(#color-9-,0,0,1,-210.64572,-83.85471)" stroke-width="1" stroke="none"/><path d="M 40.4927 6.4944 C 46.4532 -1.4917 54.6964 21.2611 54.6964 34.5963 C 54.6964 54.7121 58.6277 56.7463 54.1891 57.5751 C 51.2723 58.1024 49.4968 54.4861 49.4968 34.3703 C 49.4968 14.2544 39.4782 7.7752 40.4927 6.4944 Z " fill="url(#color-10-,0,0,1,-210.64572,-83.85471)" stroke-width="1" stroke="none"/><path d="M 37.1955 5.1383 C 47.7214 -1.1903 57.8668 15.5352 57.8668 28.8705 C 57.8668 48.9863 61.7982 51.0205 57.3595 51.8492 C 54.4427 52.3766 52.7941 48.7603 52.7941 28.6444 C 52.7941 8.5286 36.1809 6.4191 37.1955 5.1383 Z " fill="url(#color-11-,0,0,1,-210.64572,-83.85471)" stroke-width="1" stroke="none"/><path d="M 30.8546 6.2684 C 36.815 -1.7177 45.0582 21.0351 45.0582 34.3703 C 45.0582 54.4861 48.9895 56.5203 44.5509 57.3491 C 41.6341 57.8764 39.8586 54.2601 39.8586 34.1443 C 39.8586 14.0284 29.84 7.5492 30.8546 6.2684 Z " fill="url(#color-12-,0,0,1,-210.64572,-83.85471)" stroke-width="1" stroke="none"/><path d="M 14.3682 8.6793 " fill="#b29100" stroke-width="1" stroke="none"/></g><path d="M 45.8191 7.4738 C 42.6486 7.0971 26.7964 7.3985 23.8796 8.2272 C 16.651 10.4121 14.8755 20.2063 14.8755 20.2063 L 11.5782 19.6036 C 11.5782 19.6036 7.1396 0.8439 34.2787 0.9946 C 48.7359 0.5425 54.95 8.6793 55.5841 13.5764 C 55.5841 13.501 56.0914 8.6793 45.8191 7.4738 Z " fill="url(#color-14-,0,0,1,-210.64572,-83.85471)" stroke="none" stroke-width="1" stroke-linecap="butt"/><g stroke-linecap="butt"><g data-paper-data="{&quot;origPos&quot;:null}"><path d="M 34.4055 2.8027 C 44.9314 -3.5259 59.7691 10.8641 59.7691 24.124 C 59.7691 44.2399 63.7004 46.2741 59.2618 47.1028 C 56.345 47.6302 54.6964 44.0138 54.6964 23.898 C 54.6964 3.7822 33.5177 4.0835 34.4055 2.8027 Z " fill="url(#color-15-,0,0,1,-210.64572,-83.85471)" stroke-width="1" stroke="none"/><path d="M 31.8691 1.748 C 42.395 -4.5806 60.53 7.3232 60.53 20.6584 C 60.53 40.7742 61.2909 45.2946 56.7254 46.1234 C 53.8086 46.6508 55.2036 42.1303 55.2036 21.9392 C 55.2036 1.748 30.8546 3.0288 31.8691 1.748 Z " data-paper-data="{&quot;origPos&quot;:null}" fill="url(#color-16-,0,0,1,-210.64572,-83.85471)" stroke-width="1" stroke="none"/><path d="M 34.1518 4.0835 C 44.6777 -2.2451 57.8668 11.1655 57.8668 24.5007 C 57.8668 44.6166 58.7545 49.8904 54.3159 50.7191 C 51.3991 51.2465 54.0623 45.6713 54.0623 25.5555 C 54.0623 5.4397 33.1373 5.4397 34.1518 4.0835 Z " fill="url(#color-17-,0,0,1,-210.64572,-83.85471)" stroke-width="1" stroke="none"/><path d="M 36.5614 5.2136 C 42.5218 -2.7724 57.9936 13.5764 57.9936 26.9116 C 57.9936 47.0275 50.765 53.9588 47.3409 50.6438 C 45.3118 48.6849 53.1745 46.8768 53.1745 26.7609 C 53.1745 6.6451 35.5468 6.4944 36.5614 5.2136 Z " fill="url(#color-18-,0,0,1,-210.64572,-83.85471)" stroke-width="1" stroke="none"/></g><g data-paper-data="{&quot;origPos&quot;:null}"><path d="M 12.5928 21.8638 C 12.5928 41.9797 10.9441 45.6713 8.0273 45.0686 C 3.5887 44.2399 7.52 42.2057 7.52 22.0898 C 7.52 8.7546 15.89 -2.2451 32.8836 0.7685 C 33.8982 2.1247 12.5928 1.748 12.5928 21.8638 Z " fill="url(#color-19-,0,0,1,-210.64572,-83.85471)" stroke-width="1" stroke="none"/><path d="M 13.6073 26.0075 C 13.6073 46.1234 11.9587 49.815 9.0419 49.2123 C 4.6032 48.3836 8.5346 46.3494 8.5346 26.2335 C 8.5346 12.8983 25.1477 -3.2998 35.8005 3.0287 C 36.815 4.4602 13.6073 5.8917 13.6073 26.0075 Z " fill="url(#color-20-,0,0,1,-210.64572,-83.85471)" stroke-width="1" stroke="none"/><path d="M 16.9046 30.6033 C 18.9337 50.7191 15.256 54.4108 12.3391 53.8081 C 7.9005 52.9793 11.8319 50.9451 11.8319 30.8293 C 11.8319 17.4941 15.2559 0.6932 39.605 4.2342 C 41.3805 10.2614 13.861 0.7686 16.9046 30.6033 Z " fill="url(#color-21-,0,0,1,-210.64572,-83.85471)" stroke-width="1" stroke="none"/></g></g><path d="M 44.4372 31.9659 C 52.2687 34.7577 49.8973 61.4824 39.1405 91.6572 C 31.9281 111.8894 22.7771 128.5356 15.1689 136.4673 C 14.1933 135.767 13.1352 135.2119 11.9336 134.9112 C 11.7844 134.8739 11.6351 134.8389 11.4856 134.8059 C 11.3637 134.7193 11.2294 134.6485 11.0839 134.5967 C 10.77 134.4848 10.4413 134.4739 10.1251 134.5481 C 7.7232 134.1483 5.3542 133.9412 3.3409 132.2795 C 3.3409 132.2795 2.7349 131.7875 1.9745 131.8966 C 1.7924 131.6998 1.5679 131.5465 1.3073 131.4536 C 1.2051 131.4172 1.1013 131.3914 0.9969 131.3759 C 0.1335 120.4146 3.5765 101.7545 10.78 81.5471 C 21.5368 51.3724 36.6056 29.1741 44.4372 31.9659 Z " fill="url(#color-22-,0,0,1,-210.64572,-83.85471)" stroke="#000000" stroke-width="2" stroke-linecap="butt"/><path d="M 30.8478 54.9914 L 30.8478 122.2885 L 18.8002 161.2073 " data-paper-data="{&quot;origPos&quot;:null}" fill="none" stroke="#000000" stroke-width="3.5" stroke-linecap="round"/><path d="M 31.651 120.8517 L 43.6986 161.0104 " fill="none" stroke="#000000" stroke-width="3.5" stroke-linecap="round"/><path d="M 6.7525 32.1009 C 6.7525 18.1281 18.0797 6.8009 32.0525 6.8009 C 46.0253 6.8009 57.3525 18.1281 57.3525 32.1009 C 57.3525 46.0737 46.0253 57.4009 32.0525 57.4009 C 18.0797 57.4009 6.7525 46.0737 6.7525 32.1009 Z " data-paper-data="{&quot;origPos&quot;:null}" fill="#d4d4d4" stroke="#000000" stroke-width="2.5" stroke-linecap="butt"/><path d="M238.2808,109.93183c0,-2.66149 2.15756,-4.81905 4.81905,-4.81905c2.66149,0 4.81905,2.15756 4.81905,4.81905c0,2.66149 -2.15756,4.81905 -4.81905,4.81905c-2.66149,0 -4.81905,-2.15756 -4.81905,-4.81905z" data-paper-data="{&quot;origPos&quot;:null}" fill="#000000" stroke="none" stroke-width="0" stroke-linecap="butt" transform="matrix(1,0,0,1,-210.64572,-83.85471)"/><path d="M251.93477,109.93183c0,-2.66148 2.15757,-4.81905 4.81905,-4.81905c2.66148,0 4.81905,2.15757 4.81905,4.81905c0,2.66148 -2.15757,4.81905 -4.81905,4.81905c-2.66148,0 -4.81905,-2.15757 -4.81905,-4.81905z" data-paper-data="{&quot;origPos&quot;:null}" fill="#000000" stroke="none" stroke-width="0" stroke-linecap="butt" transform="matrix(1,0,0,1,-210.64572,-83.85471)"/><path d="M 27.8541 19.0708 L 36.9811 22.7216 " data-paper-data="{&quot;origPos&quot;:null}" fill="none" stroke="#000000" stroke-width="2.5" stroke-linecap="round"/><path d="M 49.0287 19.1057 L 42.0922 22.3914 " data-paper-data="{&quot;origPos&quot;:null}" fill="none" stroke="#000000" stroke-width="2.5" stroke-linecap="round"/><path d="M 29.5446 63.3152 L 13.8462 92.8866 " data-paper-data="{&quot;origPos&quot;:null}" fill="none" stroke="#000000" stroke-width="3.5" stroke-linecap="round"/><path d="M 47.4335 92.8866 L 31.7351 63.3152 " data-paper-data="{&quot;origPos&quot;:null,&quot;index&quot;:null}" fill="none" stroke="#000000" stroke-width="3.5" stroke-linecap="round"/><g stroke-linecap="butt"><path d="M 35.5676 8.0133 C 36.5822 9.3694 15.4036 8.9927 15.4036 29.1086 C 15.4036 49.2244 13.755 52.9161 10.8381 52.3134 C 6.3995 51.4846 10.3309 49.4504 10.3309 29.3346 C 10.2041 16.0747 24.9149 1.6847 35.5676 8.0133 Z " fill="url(#color-23-,0,0,1,-210.64572,-83.85471)" stroke-width="1" stroke="none"/><path d="M 33.1581 10.3488 C 34.1727 11.705 17.5595 13.6638 17.5595 33.7797 C 17.5595 53.8955 15.9109 57.5872 12.994 56.9844 C 8.5554 56.1557 12.4868 54.1215 12.4868 34.0057 C 12.4868 20.7458 22.6322 4.0203 33.1581 10.3488 Z " fill="url(#color-24-,0,0,1,-210.64572,-83.85471)" stroke-width="1" stroke="none"/><path d="M 25.8027 7.6366 C 26.8172 8.9927 10.2041 10.9516 10.2041 31.0674 C 10.2041 51.1833 8.5554 54.8749 5.6386 54.2722 C 1.2 53.4435 5.1313 51.4093 5.1313 31.2934 C 5.1313 17.9582 15.2768 1.308 25.8027 7.6366 Z " fill="url(#color-25-,0,0,1,-210.64572,-83.85471)" stroke-width="1" stroke="none"/><path d="M 9.3163 24.1361 C 9.3163 44.252 18.0668 44.6287 15.1499 44.1013 C 10.7113 44.8547 8.1749 44.0259 5.0045 23.9854 C 2.8486 10.1228 12.4868 0.0273 29.4804 3.0409 C 30.4949 4.397 9.3163 4.0203 9.3163 24.1361 Z " fill="url(#color-26-,0,0,1,-210.64572,-83.85471)" stroke-width="1" stroke="none"/><path d="M 42.9231 5.3011 C 43.9376 6.6572 22.759 6.2805 22.759 26.3963 C 22.759 46.5122 21.1104 50.2038 18.1936 49.6011 C 13.7549 48.7724 17.6863 46.7382 17.6863 26.6223 C 17.5595 13.2871 32.3972 -1.0275 42.9231 5.3011 Z " fill="url(#color-27-,0,0,1,-210.64572,-83.85471)" stroke-width="1" stroke="none"/><path d="M 40.6404 7.6366 C 41.6549 8.9927 25.0418 10.9516 25.0418 31.0674 C 25.0418 51.1833 23.3931 54.8749 20.3495 54.2722 C 15.9109 53.4435 19.8422 51.4093 19.8422 31.2934 C 19.969 17.9582 29.9877 1.308 40.6404 7.6366 Z " fill="url(#color-28-,0,0,1,-210.64572,-83.85471)" stroke-width="1" stroke="none"/><path d="M 14.8963 8.6914 " fill="#b29100" stroke-width="1" stroke="none"/></g><path d="M 46.3472 7.4859 C 43.1767 7.1092 27.3245 7.4106 24.4077 8.2393 C 17.179 10.4242 15.4036 20.2184 15.4036 20.2184 L 12.1063 19.6157 C 12.1063 19.6157 7.6677 0.856 34.8067 1.0067 C 49.264 0.5546 55.4781 8.6914 56.1122 13.5885 C 56.1122 13.5131 56.6194 8.6914 46.3472 7.4859 Z " fill="url(#color-30-,0,0,1,-210.64572,-83.85471)" stroke="none" stroke-width="1" stroke-linecap="butt"/><g stroke-linecap="butt"><g data-paper-data="{&quot;origPos&quot;:null}" font-family="sans-serif" font-weight="normal" font-size="12" text-anchor="start"/><g data-paper-data="{&quot;origPos&quot;:null}"><path d="M 13.1209 21.8759 C 13.1209 41.9918 11.4722 45.6834 8.5554 45.0807 C 4.1168 44.252 8.0481 42.2178 8.0481 22.1019 C 8.0481 8.7667 16.4181 -2.233 33.4117 0.7806 C 34.4263 2.1368 13.1209 1.7601 13.1209 21.8759 Z " fill="url(#color-31-,0,0,1,-210.64572,-83.85471)" stroke-width="1" stroke="none"/><path d="M 14.1354 26.0196 C 14.1354 46.1355 12.4868 49.8271 9.57 49.2244 C 5.1313 48.3957 9.0627 46.3615 9.0627 26.2456 C 9.0627 12.9104 25.6758 -3.2877 36.3286 3.0409 C 37.3431 4.4723 14.1354 5.9038 14.1354 26.0196 Z " fill="url(#color-32-,0,0,1,-210.64572,-83.85471)" stroke-width="1" stroke="none"/><path d="M 17.4327 30.6154 C 19.4618 50.7312 15.784 54.4229 12.8672 53.8202 C 8.4286 52.9914 12.3599 50.9572 12.3599 30.8414 C 12.3599 17.5062 15.784 0.7053 40.1331 4.2463 C 41.9085 10.2735 14.389 0.7807 17.4327 30.6154 Z " fill="url(#color-33-,0,0,1,-210.64572,-83.85471)" stroke-width="1" stroke="none"/></g></g><path d="M 26.5385 62.7014 L 29.406 62.1478 L 30.7554 68.2377 L 31.9361 72.9435 L 32.7795 61.871 L 36.8277 61.871 L 39.0205 96.7493 L 25.0205 100.071 Z " fill="url(#color-34-,0,0,1,-210.64572,-83.85471)" stroke="#000000" stroke-width="0.5" stroke-linecap="round"/><path d="M 24.0205 103.871 L 23.2205 82.671 L 20.2205 90.071 L 14.8205 82.271 L 20.6205 63.271 L 29.4205 61.271 L 31.0205 101.071 L 28.6205 104.671 Z " fill="url(#color-35-,0,0,1,-210.64572,-83.85471)" stroke="#000000" stroke-width="0.5" stroke-linecap="round"/><path d="M 34.2205 105.271 L 31.8205 101.671 L 33.4205 61.871 L 42.2205 63.871 L 48.0205 82.871 L 42.6205 90.671 L 39.6205 83.271 L 38.8205 104.471 Z " data-paper-data="{&quot;index&quot;:null}" fill="url(#color-36-,0,0,1,-210.64572,-83.85471)" stroke="#000000" stroke-width="0.5" stroke-linecap="round"/></g></g></g></svg>