<svg xmlns="http://www.w3.org/2000/svg" xmlns:xlink="http://www.w3.org/1999/xlink" version="1.1" width="46.68044" height="82.14816" viewBox="0,0,46.68044,82.14816"><g><g data-paper-data="{&quot;isPaintingLayer&quot;:true}" fill-rule="nonzero" stroke-linejoin="miter" stroke-miterlimit="10" stroke-dasharray="" stroke-dashoffset="0" style="mix-blend-mode: normal"><g data-paper-data="{&quot;index&quot;:null}" stroke-linecap="butt"><path d="M257.8501,196.70459c0,0 -0.38773,-9.69321 -0.71717,-13.75307c-0.35328,-4.35355 -2.0234,-11.509 -2.0234,-11.509l-0.40502,-6.02479c0,0 4.45043,1.70972 6.46163,7.36714c1.31203,3.69067 1.48497,6.42281 1.82772,9.83233c0.69823,6.94568 -0.33193,13.80934 -0.33193,13.80934z" stroke-width="NaN" fill="#1e1e1e" stroke="none" transform="matrix(1,0,0,1,-216.78846,-140.179)"/><path d="M262.92564,197.69826c0.32143,0.98508 0.41513,1.58777 0.46199,2.25987c0.06887,0.98762 0.18236,2.59003 -0.10381,2.66289c-0.45144,0.11493 -0.67502,-1.26022 -0.67502,-1.26022c0,0 -0.03198,2.62504 -0.45168,2.59845c-0.29877,-0.01892 -0.78259,-2.1997 -0.78259,-2.1997c0,0 0.12422,2.72639 -0.2804,2.72404c-0.48482,-0.0028 -0.77019,-2.62204 -0.77019,-2.62204c0,0 -0.09686,1.77957 -0.57489,1.70003c-0.63998,-0.10648 -0.33114,-3.24903 -0.71631,-3.34277c-0.5177,-0.12599 -0.38323,0.9011 -0.88411,0.24643c-0.3772,-0.493 -0.08323,-3.1532 0.25118,-3.7132c0.40668,-0.68104 1.96302,-0.60467 2.6977,-0.64712c1.38912,-0.08027 1.46898,0.4927 1.82811,1.59334z" stroke-width="0" fill="#1e1e1e" stroke="none" transform="matrix(1,0,0,1,-216.78846,-140.179)"/></g><g stroke-linecap="butt"><path d="M217.59544,196.42654c0,0 -1.03016,-6.86366 -0.33193,-13.80934c0.34275,-3.40952 0.51569,-6.14166 1.82772,-9.83233c2.0112,-5.65742 6.46163,-7.36714 6.46163,-7.36714l-0.40502,6.02479c0,0 -1.67011,7.15545 -2.0234,11.509c-0.32944,4.05986 -0.71717,13.75307 -0.71717,13.75307z" stroke-width="NaN" fill="#1e1e1e" stroke="none" transform="matrix(1,0,0,1,-216.78846,-140.179)"/><path d="M217.33172,197.69826c0.35913,-1.10064 0.43899,-1.6736 1.82811,-1.59334c0.73468,0.04245 2.29102,-0.03391 2.6977,0.64712c0.33441,0.56 0.62838,3.2202 0.25118,3.7132c-0.50088,0.65467 -0.36641,-0.37242 -0.88411,-0.24643c-0.38517,0.09373 -0.07632,3.23629 -0.71631,3.34277c-0.47803,0.07954 -0.57489,-1.70003 -0.57489,-1.70003c0,0 -0.28536,2.61924 -0.77019,2.62204c-0.40462,0.00234 -0.2804,-2.72404 -0.2804,-2.72404c0,0 -0.48382,2.18078 -0.78259,2.1997c-0.4197,0.02658 -0.45168,-2.59845 -0.45168,-2.59845c0,0 -0.22358,1.37516 -0.67502,1.26022c-0.28616,-0.07286 -0.17268,-1.67526 -0.10381,-2.66289c0.04687,-0.6721 0.14057,-1.27479 0.46199,-2.25987z" stroke-width="0" fill="#1e1e1e" stroke="none" transform="matrix(1,0,0,1,-216.78846,-140.179)"/></g><path d="M222.87645,164.81743v-6.19256h34.54984v6.19256z" fill="#000000" stroke="none" stroke-width="0" stroke-linecap="butt" transform="matrix(1,0,0,1,-216.78846,-140.179)"/><path d="M222.42771,164.54818c0,0 9.8778,-1.98198 17.03593,-1.76484c6.68263,0.20273 17.5139,1.76484 17.5139,1.76484c0,0 -11.67722,5.02274 -17.51236,4.97727c-5.67714,-0.04424 -17.03749,-4.97727 -17.03749,-4.97727z" fill="#171717" stroke="none" stroke-width="0" stroke-linecap="butt" transform="matrix(1,0,0,1,-216.78846,-140.179)"/><g><path d="M 27.92 3.8644 L 29.4521 0 L 31.997 1.009 L 30.4648 4.8734 Z " data-paper-data="{&quot;origPos&quot;:null}" fill="#995400" stroke="none" stroke-linecap="butt" stroke-width="1"/><path d="M 39.3516 22.6843 C 36.5447 29.7637 27.6019 32.8594 19.3772 29.5985 C 11.1526 26.3376 6.7605 17.9551 9.5673 10.8757 C 12.3741 3.7962 21.3169 0.7006 29.5416 3.9614 C 37.7663 7.2223 42.1584 15.6048 39.3516 22.6843 Z " data-paper-data="{&quot;origPos&quot;:null}" fill="#ff6400" stroke="#e35b00" stroke-linecap="butt" stroke-width="1"/><path d="M 18.0193 28.1197 C 18.0193 28.1197 16.9834 22.1123 19.849 14.7439 C 22.4374 8.0883 27.9279 3.4571 27.9279 3.4571 " fill="none" stroke="#e35b00" stroke-linecap="round" stroke-width="1"/><path d="M 30.5811 4.509 C 30.5811 4.509 31.4066 11.6442 28.7311 18.2654 C 25.7691 25.5956 20.8982 29.2611 20.8982 29.2611 " data-paper-data="{&quot;index&quot;:null}" fill="none" stroke="#e35b00" stroke-linecap="round" stroke-width="1"/><path d="M 16.9768 27.5758 C 16.9768 27.5758 10.4379 21.0819 13.6397 12.1516 C 16.6774 3.6789 26.9883 2.954 26.9883 2.954 " data-paper-data="{&quot;index&quot;:null}" fill="none" stroke="#e35b00" stroke-linecap="round" stroke-width="1"/><path d="M 32.0615 4.9654 C 32.0615 4.9654 38.2134 12.5162 35.1427 20.6769 C 32.0717 28.8384 22.4814 29.7583 22.4814 29.7583 " data-paper-data="{&quot;index&quot;:null}" fill="none" stroke="#e35b00" stroke-linecap="round" stroke-width="1"/></g><path d="M219.63929,220.75234l5.42513,-56.27146c0,0 8.35786,3.76938 14.69319,3.76938c7.21486,0 15.41749,-3.76938 15.41749,-3.76938l5.42267,56.27146c0,0 -7.10145,1.17439 -20.04485,1.21129c-12.47795,0.03559 -20.9136,-1.21129 -20.9136,-1.21129z" fill="#2a2a2a" stroke="none" stroke-width="NaN" stroke-linecap="butt" transform="matrix(1,0,0,1,-216.78846,-140.179)"/><path d="M233.58566,221.96378l2.35669,-54.06357c0,0 2.62542,0.24226 3.97331,0.24226c1.39652,0 4.26509,-0.24226 4.26509,-0.24226l2.93152,53.94244c0,0 -4.14806,0.48451 -6.72806,0.48451c-2.58,0 -6.79857,-0.36338 -6.79857,-0.36338z" fill="#a80000" stroke="none" stroke-width="NaN" stroke-linecap="butt" transform="matrix(1,0,0,1,-216.78846,-140.179)"/><path d="M219.97952,164.14432l2.90781,-5.70792l7.39068,8.81766l-6.31371,-0.68656c0,0 -2.51699,-0.36996 -3.21034,-0.79158c-0.62855,-0.38223 -0.77444,-1.63159 -0.77444,-1.63159z" fill="#191919" stroke="none" stroke-width="0" stroke-linecap="butt" transform="matrix(1,0,0,1,-216.78846,-140.179)"/><path d="M259.61821,165.749c-0.69334,0.42162 -3.21034,0.79158 -3.21034,0.79158l-6.70411,0.96927l7.78107,-9.10037l2.90781,5.70792c0,0 -0.14589,1.24936 -0.77444,1.6316z" data-paper-data="{&quot;index&quot;:null}" fill="#191919" stroke="none" stroke-width="0" stroke-linecap="butt" transform="matrix(1,0,0,1,-216.78846,-140.179)"/><g stroke-linecap="butt"><path d="M 20.5731 14.8025 C 18.4794 12.6609 21.0618 8.343 21.0618 8.343 L 28.2011 15.6454 C 28.2011 15.6454 22.6669 16.9441 20.5731 14.8025 Z " stroke-width="1" fill="#fff86a" stroke="none"/><path d="M 29.5905 16.1629 L 39.794 15.7365 C 39.794 15.7365 38.716 20.6509 35.7236 20.7759 C 32.7312 20.901 29.5905 16.1629 29.5905 16.1629 Z " data-paper-data="{&quot;index&quot;:null}" stroke-width="1" fill="#fff86a" stroke="none"/><path d="M 17.0015 16.0028 C 17.0015 16.0028 22.3063 19.8138 26.0761 21.3085 C 30.1077 22.9069 36.9918 23.9284 36.9918 23.9284 C 36.9918 23.9284 28.5616 28.3487 24.0016 26.5408 C 19.4416 24.7329 17.0015 16.0028 17.0015 16.0028 Z " stroke-width="1" fill="#fff86a" stroke="none"/></g></g></g></svg>