<svg xmlns="http://www.w3.org/2000/svg" xmlns:xlink="http://www.w3.org/1999/xlink" version="1.1" width="64.39219" height="83.89782" viewBox="0,0,64.39219,83.89782"><g><g data-paper-data="{&quot;isPaintingLayer&quot;:true}" fill-rule="nonzero" stroke-linejoin="miter" stroke-miterlimit="10" stroke-dasharray="" stroke-dashoffset="0" style="mix-blend-mode: normal"><g stroke-linecap="butt"><path d="M208.34517,210.64489c0,0 1.32659,-6.81258 4.30934,-13.12393c1.46418,-3.09814 2.54162,-5.61481 5.01328,-8.65346c3.78879,-4.65794 8.55479,-4.77944 8.55479,-4.77944l-2.39822,5.54172c0,0 -3.96878,6.18373 -5.75887,10.16792c-1.66931,3.71543 -5.2791,12.71976 -5.2791,12.71976z" stroke-width="NaN" fill="#1e1e1e" stroke="none" transform="matrix(1,0,0,1,-205.63155,-156.82359)"/><path d="M207.67101,211.75499c0.70681,-0.91695 0.97384,-1.43013 2.25597,-0.88955c0.6781,0.28591 2.17023,0.73487 2.3255,1.51274c0.12768,0.63963 -0.4857,3.24479 -1.00615,3.5831c-0.69111,0.44926 -0.22062,-0.47358 -0.75063,-0.52814c-0.39433,-0.0406 -1.15514,3.02408 -1.79385,2.91021c-0.47708,-0.08505 0.02729,-1.7944 0.02729,-1.7944c0,0 -1.14559,2.37265 -1.60339,2.21301c-0.38207,-0.13323 0.64754,-2.66077 0.64754,-2.66077c0,0 -1.18584,1.89306 -1.47371,1.81088c-0.40439,-0.11543 0.4441,-2.59976 0.4441,-2.59976c0,0 -0.67096,1.22101 -1.05789,0.9616c-0.24527,-0.16444 0.39801,-1.63643 0.79347,-2.54404c0.26913,-0.61765 0.55915,-1.15421 1.19174,-1.97489z" stroke-width="0" fill="#1e1e1e" stroke="none" transform="matrix(1,0,0,1,-205.63155,-156.82359)"/></g><path d="M222.75145,183.81743v-6.19256h34.54984v6.19256z" fill="#000000" stroke="none" stroke-width="0" stroke-linecap="butt" transform="matrix(1,0,0,1,-205.63155,-156.82359)"/><path d="M222.30271,183.54818c0,0 9.8778,-1.98198 17.03593,-1.76484c6.68263,0.20273 17.5139,1.76484 17.5139,1.76484c0,0 -11.67722,5.02274 -17.51236,4.97727c-5.67714,-0.04424 -17.03749,-4.97727 -17.03749,-4.97727z" fill="#171717" stroke="none" stroke-width="0" stroke-linecap="butt" transform="matrix(1,0,0,1,-205.63155,-156.82359)"/><g><path d="M 32.9615 4.157 L 32.9615 0 L 35.6991 0 L 35.6991 4.157 Z " data-paper-data="{&quot;origPos&quot;:null}" fill="#995400" stroke="none" stroke-linecap="butt" stroke-width="1"/><path d="M 50.5247 17.4388 C 50.5247 25.0544 43.3523 31.2281 34.5048 31.2281 C 25.6573 31.2281 18.4849 25.0544 18.4849 17.4388 C 18.4849 9.8232 25.6573 3.6496 34.5048 3.6496 C 43.3523 3.6496 50.5247 9.8232 50.5247 17.4388 Z " data-paper-data="{&quot;origPos&quot;:null}" fill="#ff6400" stroke="#e35b00" stroke-linecap="butt" stroke-width="1"/><path d="M 32.6974 30.3539 C 32.6974 30.3539 29.5203 25.1511 29.4685 17.2454 C 29.4217 10.1042 32.8188 3.7755 32.8188 3.7755 " fill="none" stroke="#e35b00" stroke-linecap="round" stroke-width="1"/><path d="M 35.6729 3.7755 C 35.6729 3.7755 39.07 10.1042 39.0232 17.2454 C 38.9714 25.1511 35.7943 30.3539 35.7943 30.3539 " data-paper-data="{&quot;index&quot;:null}" fill="none" stroke="#e35b00" stroke-linecap="round" stroke-width="1"/><path d="M 31.5278 30.2325 C 31.5278 30.2325 23.0559 26.6057 22.7409 17.124 C 22.442 8.1282 31.7599 3.6541 31.7599 3.6541 " data-paper-data="{&quot;index&quot;:null}" fill="none" stroke="#e35b00" stroke-linecap="round" stroke-width="1"/><path d="M 37.2173 3.6541 C 37.2173 3.6541 45.719 8.406 45.8722 17.124 C 46.0254 25.8428 37.4493 30.2325 37.4493 30.2325 " data-paper-data="{&quot;index&quot;:null}" fill="none" stroke="#e35b00" stroke-linecap="round" stroke-width="1"/></g><path d="M219.63929,221.27379c0,0 -1.49825,-12.94316 -0.60984,-19.10682c0.91894,-6.37553 6.03497,-18.53224 6.03497,-18.53224c0,0 8.35786,2.52128 14.69319,2.52128c7.21486,0 15.41749,-2.52128 15.41749,-2.52128c0,0 4.53872,11.59437 5.41809,17.69809c0.9258,6.42604 0.00458,19.94097 0.00458,19.94097c0,0 -7.10145,0.78553 -20.04485,0.81021c-12.47795,0.02381 -20.9136,-0.81021 -20.9136,-0.81021z" fill="#2a2a2a" stroke="none" stroke-width="NaN" stroke-linecap="butt" transform="matrix(1,0,0,1,-205.63155,-156.82359)"/><path d="M233.58566,222.0841c0,0 -0.76069,-13.34559 -0.35524,-19.56703c0.37822,-5.80356 2.71193,-16.59521 2.71193,-16.59521c0,0 2.62542,0.16204 3.97331,0.16204c1.39652,0 4.26509,-0.16204 4.26509,-0.16204c0,0 2.82426,11.32256 3.2965,17.13493c0.50299,6.19081 -0.36498,18.94629 -0.36498,18.94629c0,0 -4.14806,0.32408 -6.72806,0.32408c-2.58,0 -6.79857,-0.24306 -6.79857,-0.24306z" fill="#a80000" stroke="none" stroke-width="NaN" stroke-linecap="butt" transform="matrix(1,0,0,1,-205.63155,-156.82359)"/><path d="M219.85452,183.14432l2.90781,-5.70792l7.39068,8.81766l-6.31371,-0.68656c0,0 -2.51699,-0.36996 -3.21034,-0.79158c-0.62855,-0.38223 -0.77444,-1.63159 -0.77444,-1.63159z" fill="#191919" stroke="none" stroke-width="0" stroke-linecap="butt" transform="matrix(1,0,0,1,-205.63155,-156.82359)"/><path d="M259.49321,184.749c-0.69334,0.42162 -3.21034,0.79158 -3.21034,0.79158l-6.70411,0.96927l7.78107,-9.10037l2.90781,5.70792c0,0 -0.14589,1.24936 -0.77444,1.6316z" data-paper-data="{&quot;index&quot;:null}" fill="#191919" stroke="none" stroke-width="0" stroke-linecap="butt" transform="matrix(1,0,0,1,-205.63155,-156.82359)"/><g stroke-linecap="butt"><path d="M 28.1192 20.2101 C 25.3836 18.991 26.1928 14.0253 26.1928 14.0253 L 35.5208 18.1823 C 35.5208 18.1823 30.8549 21.4293 28.1192 20.2101 Z " stroke-width="1" fill="#fff86a" stroke="none"/><path d="M 37.0032 18.1514 L 46.3312 13.9943 C 46.3312 13.9943 47.1404 18.96 44.4048 20.1792 C 41.6691 21.3983 37.0032 18.1514 37.0032 18.1514 Z " data-paper-data="{&quot;index&quot;:null}" stroke-width="1" fill="#fff86a" stroke="none"/><path d="M 25.8664 22.6424 C 25.8664 22.6424 32.2023 24.2299 36.2576 24.2299 C 40.5946 24.2299 47.3705 22.6424 47.3705 22.6424 C 47.3705 22.6424 41.163 29.8585 36.2576 29.8585 C 31.3523 29.8585 25.8664 22.6424 25.8664 22.6424 Z " stroke-width="1" fill="#fff86a" stroke="none"/></g><g data-paper-data="{&quot;index&quot;:null}" stroke-linecap="butt"><path d="M245.5319,217.48717c0,0 3.75898,-9.9443 5.16486,-14.18084c1.50757,-4.54302 2.88637,-12.47633 2.88637,-12.47633l1.94015,-6.328c0,0 3.98825,3.70708 3.59491,10.27525c-0.2566,4.28481 -1.2519,7.11497 -2.36591,10.70117c-2.26941,7.30559 -6.24726,13.78844 -6.24726,13.78844z" stroke-width="NaN" fill="#1e1e1e" stroke="none" transform="matrix(1,0,0,1,-205.63155,-156.82359)"/><path d="M250.22655,220.66263c-0.09751,1.13135 -0.26102,1.77944 -0.50151,2.47751c-0.35337,1.02578 -1.0824,1.98298 -1.40228,1.93396c-0.50461,-0.07734 0.01606,-0.85243 0.01606,-0.85243c0,0 -1.06187,1.11761 -1.47387,0.9111c-0.29329,-0.147 0.05804,-1.03729 0.05804,-1.03729c0,0 -0.69594,0.47781 -1.10311,0.3022c-0.48788,-0.2104 -0.00037,-0.64912 -0.00037,-0.64912c0,0 -0.54427,0.14762 -0.99244,-0.13729c-0.60001,-0.38142 0.74165,-1.81322 0.39324,-2.07269c-0.4683,-0.34875 -0.78187,1.19879 -1.00685,0.32392c-0.16943,-0.65882 1.27554,-3.67037 1.85265,-4.09211c0.70183,-0.5129 2.23914,0.23048 2.99844,0.50221c1.43568,0.51377 1.27093,1.12596 1.16197,2.39002z" stroke-width="0" fill="#1e1e1e" stroke="none" transform="matrix(1,0,0,1,-205.63155,-156.82359)"/></g><path d="M 52.4114 80.4555 L 42.8729 77.2247 L 48.2576 71.4555 L 41.4114 67.8401 L 38.3345 70.994 L 28.5653 68.2247 L 22.4114 73.3017 L 17.6185 72.6764 " fill="none" stroke="#000000" stroke-width="1.5" stroke-linecap="round"/><path d="M 44.1037 83.1478 L 47.796 79.3786 " fill="none" stroke="#000000" stroke-width="1.5" stroke-linecap="round"/><path d="M 38.0268 71.1478 L 35.9499 75.7632 L 28.4883 77.994 " fill="none" stroke="#000000" stroke-width="1.5" stroke-linecap="round"/><path d="M 34.796 80.2247 L 31.7191 77.7632 " fill="none" stroke="#000000" stroke-width="1.5" stroke-linecap="round"/><path d="M 63.6422 69.6094 L 58.0268 71.8401 L 47.6422 71.4555 " fill="none" stroke="#000000" stroke-width="1.5" stroke-linecap="round"/><path d="M 56.6422 71.7632 L 63.2576 76.3786 " fill="none" stroke="#000000" stroke-width="1.5" stroke-linecap="round"/><path d="M 41.4114 66.994 L 48.1806 66.2247 " fill="none" stroke="#000000" stroke-width="1.5" stroke-linecap="round"/><path d="M 33.4883 66.2247 L 40.796 67.5324 " fill="none" stroke="#000000" stroke-width="1.5" stroke-linecap="round"/></g></g></svg>