<svg xmlns="http://www.w3.org/2000/svg" xmlns:xlink="http://www.w3.org/1999/xlink" version="1.1" width="486.83448" height="171.141" viewBox="0,0,486.83448,171.141"><defs><linearGradient x1="240.05899" y1="255.0104" x2="240.05899" y2="327.0104" gradientUnits="userSpaceOnUse" id="color-1"><stop offset="0" stop-color="#ffd040"/><stop offset="1" stop-color="#f3c53d"/></linearGradient></defs><g><g data-paper-data="{&quot;isPaintingLayer&quot;:true}" fill-rule="nonzero" stroke-linecap="butt" stroke-linejoin="miter" stroke-miterlimit="10" stroke-dasharray="" stroke-dashoffset="0" style="mix-blend-mode: normal"><path d="M-3.29576,365.1514v-40.15138h486.83448v40.15138z" data-paper-data="{&quot;origPos&quot;:null}" fill="#f3c53d" stroke-width="0" stroke="none" transform="matrix(1,0,0,1,3.29576,-194.01039)"/><path d="M107.05899,327.0104c0,0 33.7964,-18.62443 51.85509,-35.08299c18.05869,-16.45855 27.14491,-36.91701 27.14491,-36.91701h108c0,0 14.7407,25.6511 28.47696,38.17023c13.73626,12.51912 50.52304,33.82977 50.52304,33.82977z" data-paper-data="{&quot;origPos&quot;:null}" fill="url(#color-1)" stroke-width="0" stroke="none" transform="matrix(1,0,0,1,3.29576,-194.01039)"/><path d="M378.05902,214.0104v-20h105.24647v20z" data-paper-data="{&quot;origPos&quot;:null}" fill="#d9a300" stroke-width="0" stroke="none" transform="matrix(1,0,0,1,3.29576,-194.01039)"/><path d="M-3.18745,214.0104v-20h105.24647v20z" data-paper-data="{&quot;origPos&quot;:null}" fill="#d9a300" stroke-width="0" stroke="none" transform="matrix(1,0,0,1,3.29576,-194.01039)"/></g></g></svg>