<svg xmlns="http://www.w3.org/2000/svg" xmlns:xlink="http://www.w3.org/1999/xlink" version="1.1" width="61.204498291015625" height="159.4062957763672" viewBox="-0.5 -0.5 61.204498291015625 159.4062957763672"><defs><radialGradient cx="245.54344" cy="144.47169" r="7" gradientUnits="userSpaceOnUse" id="color-1"><stop offset="0" stop-color="#8d8d8d"/><stop offset="1" stop-color="#4d4d4d"/></radialGradient></defs><g><g data-paper-data="{&quot;isPaintingLayer&quot;:true}" fill-rule="nonzero" stroke-linecap="none" stroke-linejoin="miter" stroke-miterlimit="10" stroke-dasharray="" stroke-dashoffset="0" font-family="none" font-weight="none" font-size="none" text-anchor="none" style="mix-blend-mode: normal"><path d="M 26.0952 50.1905 L 26.0952 117.4875 L 14.0476 156.4063 " data-paper-data="{&quot;origPos&quot;:null}" fill="none" stroke="#4d4d4d" stroke-width="5" stroke-linecap="round"/><path d="M 26.8984 116.0508 L 38.946 156.2095 " data-paper-data="{&quot;origPos&quot;:null}" fill="none" stroke="#4d4d4d" stroke-width="5" stroke-linecap="round"/><path d="M 2 27.3 C 2 13.3272 13.3272 2 27.3 2 C 41.2728 2 52.6 13.3272 52.6 27.3 C 52.6 41.2728 41.2728 52.6 27.3 52.6 C 13.3272 52.6 2 41.2728 2 27.3 Z " data-paper-data="{&quot;origPos&quot;:null}" fill="#8d8d8d" stroke="#4d4d4d" stroke-width="4" stroke-linecap="butt"/><path d="M 51.9309 81.0857 C 51.9309 81.0857 38.515 83.7673 35.6885 78.4431 C 32.3885 72.2267 26.9825 58.5143 26.9825 58.5143 " data-paper-data="{&quot;origPos&quot;:null,&quot;index&quot;:null}" fill="none" stroke="#404040" stroke-width="4.5" stroke-linecap="round"/><path d="M 19.02 17.2919 L 28.9557 21.2765 " data-paper-data="{&quot;origPos&quot;:null,&quot;origRot&quot;:0}" fill="none" stroke="#ff0000" stroke-width="4.5" stroke-linecap="round"/><path d="M 35.02 21.0265 L 44.2057 17.0419 " data-paper-data="{&quot;origPos&quot;:null,&quot;origRot&quot;:0,&quot;index&quot;:null}" fill="none" stroke="#ff0000" stroke-width="4.5" stroke-linecap="round"/><path d="M 24.1129 41.6314 L 26.8807 39.0342 L 38.3322 39.0342 L 41.2379 41.5342 " data-paper-data="{&quot;origPos&quot;:null}" fill="none" stroke="#000000" stroke-width="2" stroke-linecap="round"/><path d="M234.48513,148.21336c0,-3.86599 3.13401,-7 7,-7c3.86599,0 7,3.13401 7,7c0,3.86599 -3.13401,7 -7,7c-3.86599,0 -7,-3.13401 -7,-7z" data-paper-data="{&quot;origPos&quot;:null}" fill="url(#color-1)" stroke="none" stroke-width="0" stroke-linecap="butt" transform="matrix(1,0,0,1,-215.14728,-86.26252)"/><path d="M 31.8437 83.0857 C 31.8437 83.0857 12.6539 81.9374 15.2526 77.042 C 18.7804 70.3967 21.4587 64.0143 21.4587 64.0143 " data-paper-data="{&quot;origPos&quot;:null}" fill="none" stroke="#4d4d4d" stroke-width="4.5" stroke-linecap="round"/><path d="M238.51846,148.01338c0,-1.87777 1.52223,-3.4 3.4,-3.4c1.87777,0 3.4,1.52223 3.4,3.4c0,1.87777 -1.52223,3.4 -3.4,3.4c-1.87777,0 -3.4,-1.52223 -3.4,-3.4z" data-paper-data="{&quot;origPos&quot;:null}" fill="#ff0000" stroke="none" stroke-width="0" stroke-linecap="butt" transform="matrix(1,0,0,1,-215.14728,-86.26252)"/><g data-paper-data="{&quot;origPos&quot;:null}"><path d="M269.47678,170.69669c-2.14011,0 -3.875,-1.73489 -3.875,-3.875c0,-2.14011 1.73489,-3.875 3.875,-3.875c2.14011,0 3.875,1.73489 3.875,3.875c0,2.14011 -1.73489,3.875 -3.875,3.875z" data-paper-data="{&quot;origPos&quot;:null}" fill="#404040" stroke="none" stroke-width="0" stroke-linecap="butt" transform="matrix(1,0,0,1,-215.14728,-86.26252)"/><path d="M 57.2462 80.6425 L 57.7462 72.3092 " data-paper-data="{&quot;origPos&quot;:null}" fill="none" stroke="#404040" stroke-width="2" stroke-linecap="round"/><path d="M 55.4286 79.9822 L 55.2304 71.6362 " data-paper-data="{&quot;origPos&quot;:null,&quot;origRot&quot;:0}" fill="none" stroke="#404040" stroke-width="2" stroke-linecap="round"/><path d="M 53.4684 79.7899 L 52.5239 71.4951 " data-paper-data="{&quot;origPos&quot;:null,&quot;origRot&quot;:0}" fill="none" stroke="#404040" stroke-width="2" stroke-linecap="round"/><path d="M 51.5868 80.9141 L 50.0722 72.7043 " data-paper-data="{&quot;origPos&quot;:null,&quot;origRot&quot;:0}" fill="none" stroke="#404040" stroke-width="2" stroke-linecap="round"/><path d="M 48.0795 78.4758 L 51.9128 82.3092 " data-paper-data="{&quot;origPos&quot;:null}" fill="none" stroke="#404040" stroke-width="2" stroke-linecap="round"/><path d="M269.46843,169.14671c-1.37151,0 -2.48334,-1.11182 -2.48334,-2.48333c0,-1.37151 1.11183,-2.48334 2.48334,-2.48334c1.37151,0 2.48333,1.11183 2.48333,2.48334c0,1.37151 -1.11182,2.48333 -2.48333,2.48333z" data-paper-data="{&quot;origPos&quot;:null}" fill="#ff0000" stroke="none" stroke-width="0" stroke-linecap="butt" transform="matrix(1,0,0,1,-215.14728,-86.26252)"/></g><g data-paper-data="{&quot;origPos&quot;:null}"><path d="M244.35178,169.82169c0,-2.14011 1.73489,-3.875 3.875,-3.875c2.14011,0 3.875,1.73489 3.875,3.875c0,2.14011 -1.73489,3.875 -3.875,3.875c-2.14011,0 -3.875,-1.73489 -3.875,-3.875z" data-paper-data="{&quot;origPos&quot;:null}" fill="#4d4d4d" stroke="none" stroke-width="0" stroke-linecap="butt" transform="matrix(1,0,0,1,-215.14728,-86.26252)"/><path d="M 30.1628 83.6425 L 29.6628 75.3092 " data-paper-data="{&quot;origPos&quot;:null}" fill="none" stroke="#4d4d4d" stroke-width="2" stroke-linecap="round"/><path d="M 32.1786 74.6362 L 31.9804 82.9822 " data-paper-data="{&quot;origPos&quot;:null,&quot;origRot&quot;:0}" fill="none" stroke="#4d4d4d" stroke-width="2" stroke-linecap="round"/><path d="M 33.9406 82.7899 L 34.8851 74.4951 " data-paper-data="{&quot;origPos&quot;:null,&quot;origRot&quot;:0}" fill="none" stroke="#4d4d4d" stroke-width="2" stroke-linecap="round"/><path d="M 35.8222 83.9141 L 37.3368 75.7043 " data-paper-data="{&quot;origPos&quot;:null,&quot;origRot&quot;:0}" fill="none" stroke="#4d4d4d" stroke-width="2" stroke-linecap="round"/><path d="M 39.3295 81.4758 L 35.4962 85.3092 " data-paper-data="{&quot;origPos&quot;:null}" fill="none" stroke="#4d4d4d" stroke-width="2" stroke-linecap="round"/><path d="M245.7518,169.66338c0,-1.37151 1.11182,-2.48334 2.48333,-2.48334c1.37151,0 2.48334,1.11183 2.48334,2.48334c0,1.37151 -1.11183,2.48333 -2.48334,2.48333c-1.37151,0 -2.48333,-1.11182 -2.48333,-2.48333z" data-paper-data="{&quot;origPos&quot;:null}" fill="#ff0000" stroke="none" stroke-width="0" stroke-linecap="butt" transform="matrix(1,0,0,1,-215.14728,-86.26252)"/></g></g></g></svg>