<svg version="1.1" xmlns="http://www.w3.org/2000/svg" xmlns:xlink="http://www.w3.org/1999/xlink" width="57.02996" height="157.63847" viewBox="0,0,57.02996,157.63847"><defs><linearGradient x1="258.94757" y1="148.62592" x2="258.94757" y2="157.05646" gradientUnits="userSpaceOnUse" id="color-1"><stop offset="0" stop-color="#d0d0d0" stop-opacity="0"/><stop offset="1" stop-color="#d0d0d0"/></linearGradient><linearGradient x1="265.96497" y1="152.80397" x2="265.96497" y2="161.23451" gradientUnits="userSpaceOnUse" id="color-2"><stop offset="0" stop-color="#d0d0d0" stop-opacity="0"/><stop offset="1" stop-color="#d0d0d0"/></linearGradient><linearGradient x1="260.28091" y1="157.07037" x2="260.28091" y2="165.50091" gradientUnits="userSpaceOnUse" id="color-3"><stop offset="0" stop-color="#d0d0d0" stop-opacity="0"/><stop offset="1" stop-color="#d0d0d0"/></linearGradient></defs><g transform="translate(-215.28333,-88.49963)"><g data-paper-data="{&quot;isPaintingLayer&quot;:true}" fill-rule="nonzero" stroke-linejoin="miter" stroke-miterlimit="10" stroke-dasharray="" stroke-dashoffset="0" style="mix-blend-mode: normal"><g><path d="M240.62858,138.17223v67.29708l-12.04762,38.91879" data-paper-data="{&quot;origPos&quot;:null}" fill="none" stroke="#000000" stroke-width="3.5" stroke-linecap="round"/><path d="M253.47937,244.19129l-12.04762,-40.15873" fill="none" stroke="#000000" stroke-width="3.5" stroke-linecap="round"/><path d="M239.3254,146.49605l-15.69841,29.57143" data-paper-data="{&quot;origPos&quot;:null}" fill="none" stroke="#000000" stroke-width="3.5" stroke-linecap="round"/><path d="M261.61428,172.06749c0,0 -6.29509,-0.01962 -8.63925,-3.00212c-3.70787,-4.71756 -11.45916,-22.56932 -11.45916,-22.56932" data-paper-data="{&quot;origPos&quot;:null,&quot;index&quot;:null}" fill="none" stroke="#000000" stroke-width="3.5" stroke-linecap="round"/><path d="M216.53333,115.28176c0,-2.58303 1.31567,-4.57566 2.03501,-6.92303c0.75545,-2.4652 0.94877,-5.27019 2.37357,-7.35145c1.76498,-2.57818 2.4948,-4.95589 5.06868,-6.72667c1.90625,-1.31146 5.50122,-2.22552 7.73586,-2.97884c1.29961,-0.43811 2.57504,-1.34497 3.95949,-1.56806c1.32057,-0.21279 2.74678,0.24805 4.12739,0.24805c1.05047,0 1.8687,0.92117 2.8808,1.04552c1.29618,0.15926 2.77317,-0.43968 3.99722,-0.09027c0.83205,0.23751 2.07482,1.01716 2.86953,1.33652c1.57887,0.63448 2.65228,0.92569 4.06465,1.85454c1.27601,0.83917 1.91936,-0.78074 3.03888,0.26905c1.03766,0.97303 2.5649,4.60193 3.41176,5.73262c0.92071,1.22929 2.58932,2.47371 3.27714,3.86172c0.72049,1.45394 0.44816,3.05846 0.88075,4.65418c0.24572,0.90642 0.94234,0.97592 1.08679,1.91971c0.19259,1.2583 -0.20752,3.40426 -0.20752,4.71641c0,0.87337 0.88432,2.45068 0.79793,3.30125c-0.12154,1.19669 -1.25505,1.65443 -1.53749,2.79591c-0.48148,1.94592 -2.68818,3.7316 -3.59084,5.47065c-1.30392,2.51211 -1.51675,4.84929 -3.55033,6.78053c-1.32301,1.25643 -1.49606,2.37126 -3.0663,3.32023c-1.76766,1.06828 -4.96232,1.92638 -6.9779,2.53964c-1.21569,0.36989 -1.47017,1.365 -2.75584,1.54916c-1.18201,0.16932 -3.39039,-0.45737 -4.61923,-0.45737c-0.72868,0 -1.37873,-0.74509 -2.09178,-0.80547c-0.96854,-0.08201 -1.99295,0.4957 -2.9273,0.30765c-1.85387,-0.37312 -3.49155,-0.2346 -5.17462,-0.98891c-1.7734,-0.7948 -3.58148,-2.50212 -5.11032,-3.66518c-1.51792,-1.15475 -1.82997,-3.33427 -3.05142,-4.79666c-1.67597,-2.00658 -4.11831,-3.41965 -5.11288,-5.88219c-0.49593,-1.22792 -1.32686,-2.36081 -1.62681,-3.67554c-0.41451,-1.81693 -0.20486,-3.85118 -0.20486,-5.7937z" data-paper-data="{&quot;origPos&quot;:null}" fill="#635953" stroke="#000000" stroke-width="2.5" stroke-linecap="butt"/><path d="M237.41587,109.25796c0,-2.66149 2.15756,-4.81905 4.81905,-4.81905c2.66149,0 4.81905,2.15756 4.81905,4.81905c0,2.66149 -2.15756,4.81905 -4.81905,4.81905c-2.66149,0 -4.81905,-2.15756 -4.81905,-4.81905z" data-paper-data="{&quot;origPos&quot;:null}" fill="#ff743c" stroke="none" stroke-width="0" stroke-linecap="butt"/><path d="M251.06984,109.25796c0,-2.66148 2.15757,-4.81905 4.81905,-4.81905c2.66148,0 4.81905,2.15757 4.81905,4.81905c0,2.66148 -2.15757,4.81905 -4.81905,4.81905c-2.66148,0 -4.81905,-2.15757 -4.81905,-4.81905z" data-paper-data="{&quot;origPos&quot;:null}" fill="#ff743c" stroke="none" stroke-width="0" stroke-linecap="butt"/><path d="M237.63492,102.25161l9.12698,3.65079" data-paper-data="{&quot;origPos&quot;:null}" fill="none" stroke="#ff4800" stroke-width="2.5" stroke-linecap="round"/><path d="M251.87301,105.57224l6.93651,-3.28571" data-paper-data="{&quot;origPos&quot;:null}" fill="none" stroke="#ff4800" stroke-width="2.5" stroke-linecap="round"/><path d="M225.16633,107.98784l-0.14286,-2.21429l2.5,-2.57143l-1.07143,-2.64285l2.5,-1.42857" fill="none" stroke="#ff743c" stroke-width="1" stroke-linecap="round"/><path d="M232.30919,126.29736l2.28571,-0.14286l-0.07143,4.07143" fill="none" stroke="#ff743c" stroke-width="1" stroke-linecap="round"/><path d="M234.59489,130.22593l4.71429,-0.28572l0.14285,1.78572l2.78572,0.35715" fill="none" stroke="#ff743c" stroke-width="1" stroke-linecap="round"/><path d="M224.66632,120.1307l3,-2.07143l3.35714,1.5l1.85714,-3l2.07143,0.92857" fill="none" stroke="#ff743c" stroke-width="1" stroke-linecap="round"/><path d="M256.23775,96.84498l-1.57143,0.71428l-1.85714,-2.57143l-2.92857,2.5l-0.78571,-1.71429" fill="none" stroke="#ff743c" stroke-width="1" stroke-linecap="round"/><path d="M259.0949,125.70212l-0.28571,-1.14286l3.07142,-1.14285l-0.85714,-2.64286l1.5,-0.85714" fill="none" stroke="#ff743c" stroke-width="1" stroke-linecap="round"/><path d="M250.8806,123.98784l-1,-0.85714l-1.42857,0.42857l-0.78571,-1" fill="none" stroke="#ff743c" stroke-width="1" stroke-linecap="round"/><path d="M260.17407,171.32735c-1.07411,-0.08016 -1.86187,-0.6891 -2.81566,-1.06107c-1.00166,-0.39064 -2.16207,-0.55808 -2.9833,-1.21515c-1.01731,-0.81395 -1.98339,-1.19121 -2.63986,-2.31647c-0.48619,-0.83338 -0.75472,-2.35664 -0.99862,-3.30925c-0.14185,-0.55402 -0.47937,-1.11252 -0.52917,-1.69514c-0.0475,-0.55574 0.18839,-1.1345 0.23123,-1.7086c0.0326,-0.43682 0.44104,-0.74847 0.52416,-1.16548c0.10645,-0.53405 -0.09677,-1.16681 0.08651,-1.66497c0.12459,-0.33862 0.48736,-0.83121 0.64482,-1.15176c0.31283,-0.63685 0.46724,-1.07417 0.89731,-1.63266c0.38855,-0.50456 -0.26509,-0.82236 0.20619,-1.25531c0.43682,-0.40129 1.99322,-0.92375 2.48968,-1.24081c0.53975,-0.34471 1.109,-0.99995 1.70752,-1.24289c0.62695,-0.25448 1.28571,-0.09145 1.96269,-0.22181c0.38455,-0.07405 0.43506,-0.36157 0.832,-0.39235c0.52922,-0.04104 1.40916,0.19194 1.95479,0.23266c0.36317,0.0271 1.04651,-0.29167 1.39753,-0.22935c0.49385,0.08768 0.64902,0.57323 1.11491,0.7261c0.79423,0.2606 1.46829,1.23363 2.16343,1.66295c1.00415,0.62017 1.96942,0.7812 2.70938,1.68676c0.4814,0.58914 0.93962,0.6957 1.2855,1.3781c0.38937,0.7682 0.64705,2.12327 0.83951,2.98044c0.11608,0.517 0.52199,0.6537 0.55867,1.19404c0.03372,0.49677 -0.2954,1.39564 -0.33354,1.90663c-0.02261,0.30301 -0.35262,0.55019 -0.39985,0.84483c-0.06416,0.4002 0.14428,0.84411 0.03709,1.22681c-0.21269,0.75932 -0.20591,1.44461 -0.57181,2.12108c-0.38554,0.71277 -1.1516,1.41164 -1.68269,2.01129c-0.52729,0.59536 -1.44328,0.65748 -2.0893,1.12002c-0.88641,0.63465 -1.5498,1.6064 -2.60467,1.94355c-0.526,0.16812 -1.02288,0.47849 -1.57889,0.56241c-0.7684,0.11598 -1.6078,-0.03433 -2.41556,-0.09461z" fill="#965252" stroke="#000000" stroke-width="1" stroke-linecap="butt"/><path d="M261.75562,154.64218l1.83673,-0.79592l1.89796,1.71429l1.34694,-0.4898" fill="none" stroke="#eb2d00" stroke-width="1" stroke-linecap="round"/><path d="M257.83726,156.78503l0.85714,2.26531l-2.02041,0.2449l-0.36735,1.83673" fill="none" stroke="#eb2d00" stroke-width="1" stroke-linecap="round"/><path d="M267.32705,161.13197l-2.02041,2.87755l0.73469,0.67347l-1.83673,2.20408" fill="none" stroke="#eb2d00" stroke-width="1" stroke-linecap="round"/><path d="M256.73521,167.92789l-0.79592,-1.77551l3.61224,-0.79592l0.18367,-1.89796" fill="none" stroke="#eb2d00" stroke-width="1" stroke-linecap="round"/><path d="M252.75562,156.66259l1.22449,-0.4898l0.42857,-2.32653l4.10204,-0.36735" fill="none" stroke="#eb2d00" stroke-width="1" stroke-linecap="round"/><path d="M257.16605,156.87574c0,0 0.50602,-1.23593 0.50602,-2.21157c0,-0.52997 -0.9144,-1.05634 -0.97967,-2.0349c-0.14907,-2.23488 0.25677,-4.00335 0.25677,-4.00335l4.28645,0.3253c0,0 -2.62829,0.79425 -2.69472,3.14936c-0.03472,1.23112 0.41562,2.65444 0.32657,3.25387c-0.13457,0.90578 -1.39089,1.66587 -1.39089,1.66587z" fill="url(#color-1)" stroke="none" stroke-width="0" stroke-linecap="butt"/><path d="M267.43595,161.19836c0,0 -1.25633,-0.76009 -1.39089,-1.66586c-0.08905,-0.59942 0.36129,-2.02275 0.32657,-3.25387c-0.06642,-2.35511 -2.69471,-3.14936 -2.69471,-3.14936l4.28645,-0.3253c0,0 0.40584,1.76848 0.25678,4.00335c-0.06527,0.97856 -0.97967,1.50492 -0.97967,2.03489c0,0.97563 0.50603,2.21157 0.50603,2.21157z" data-paper-data="{&quot;index&quot;:null}" fill="url(#color-2)" stroke="none" stroke-width="0" stroke-linecap="butt"/><path d="M258.49938,165.32018c0,0 0.50603,-1.23594 0.50603,-2.21157c0,-0.52997 -0.9144,-1.05633 -0.97967,-2.03489c-0.14907,-2.23487 0.25678,-4.00335 0.25678,-4.00335l4.28645,0.3253c0,0 -2.62829,0.79425 -2.69471,3.14936c-0.03472,1.23112 0.41562,2.65444 0.32657,3.25387c-0.13457,0.90578 -1.39089,1.66586 -1.39089,1.66586z" fill="url(#color-3)" stroke="none" stroke-width="0" stroke-linecap="butt"/></g></g></g></svg>