<svg xmlns="http://www.w3.org/2000/svg" xmlns:xlink="http://www.w3.org/1999/xlink" version="1.1" width="103.31221008300781" height="157.9062957763672" viewBox="-1.75 -0.5 103.31221008300781 157.9062957763672"><g><g data-paper-data="{&quot;isPaintingLayer&quot;:true}" fill-rule="nonzero" stroke-linecap="none" stroke-linejoin="miter" stroke-miterlimit="10" stroke-dasharray="" stroke-dashoffset="0" font-family="none" font-weight="none" font-size="none" text-anchor="none" style="mix-blend-mode: normal"><g><g data-paper-data="{&quot;origPos&quot;:null}" stroke-linecap="butt"><path d="M207.69511,144.66667v-27.35899h70.72314v27.35899z" data-paper-data="{&quot;origPos&quot;:null}" fill="#7c7c7c" stroke-width="0" stroke="none" transform="matrix(1,0,0,1,-206.73939,-88.46581)"/><path d="M206.73939,117.72858l22.93724,-5.05089h71.67885l-22.93723,5.05089z" fill="#9a9a9a" stroke-width="0" stroke="none" transform="matrix(1,0,0,1,-206.73939,-88.46581)"/><path d="M277.94039,144.6137v-27.359l23.89296,-4.62998v27.35899z" data-paper-data="{&quot;origPos&quot;:null}" fill="#666666" stroke-width="NaN" stroke="none" transform="matrix(1,0,0,1,-206.73939,-88.46581)"/></g><g data-paper-data="{&quot;origPos&quot;:null}"><g data-paper-data="{&quot;origPos&quot;:null}"><path d="M 66.7606 17.8675 C 66.7606 13.2652 69.7454 9.5342 73.4273 9.5342 C 77.1092 9.5342 80.094 13.2651 80.094 17.8675 C 80.094 22.4699 77.1092 26.2009 73.4273 26.2009 C 69.7454 26.2009 66.7606 22.4699 66.7606 17.8675 Z " data-paper-data="{&quot;origPos&quot;:null}" stroke-linecap="butt" stroke-width="2" fill="none" stroke="#5a5a5a"/><path d="M 73.9987 9.8675 L 73.9987 25.8675 " data-paper-data="{&quot;origPos&quot;:null}" stroke-linecap="round" stroke-width="2" fill="none" stroke="#5a5a5a"/><path d="M 79.9273 17.9942 L 66.9273 17.9942 " data-paper-data="{&quot;origPos&quot;:null}" stroke-linecap="round" stroke-width="2" fill="none" stroke="#5a5a5a"/></g><path d="M 67.6495 23.5342 L 66.2686 27.7723 " data-paper-data="{&quot;origPos&quot;:null}" stroke-linecap="round" stroke-width="2" fill="none" stroke="#5a5a5a"/><path d="M 80.7924 25.2485 L 79.3162 21.8675 " data-paper-data="{&quot;origPos&quot;:null}" stroke-linecap="round" stroke-width="2" fill="none" stroke="#5a5a5a"/></g><path d="M294.55159,126.33334c0,0 -0.86963,-1.98673 -1,-5.25c-0.10751,-2.69112 1,-5.5 1,-5.5l12,5.25z" data-paper-data="{&quot;origPos&quot;:null}" fill="#e5ac00" stroke="none" stroke-width="0" stroke-linecap="butt" transform="matrix(1,0,0,1,-206.73939,-88.46581)"/><path d="M294.55159,139.66667c0,0 -0.86963,-1.98674 -1,-5.25c-0.10751,-2.69112 1,-5.5 1,-5.5l12,5.25z" data-paper-data="{&quot;origPos&quot;:null}" fill="#e5ac00" stroke="none" stroke-width="0" stroke-linecap="butt" transform="matrix(1,0,0,1,-206.73939,-88.46581)"/><path d="M284.05159,128c0,0 -0.86963,-1.98673 -1,-5.25c-0.10751,-2.69112 1,-5.5 1,-5.5l12,5.25z" data-paper-data="{&quot;origPos&quot;:null}" fill="#ffc000" stroke="none" stroke-width="0" stroke-linecap="butt" transform="matrix(1,0,0,1,-206.73939,-88.46581)"/><path d="M284.05159,141.5c0,0 -0.86963,-1.98674 -1,-5.25c-0.10751,-2.69112 1,-5.5 1,-5.5l12,5.25z" data-paper-data="{&quot;origPos&quot;:null}" fill="#ffc000" stroke="none" stroke-width="0" stroke-linecap="butt" transform="matrix(1,0,0,1,-206.73939,-88.46581)"/><path d="M 34.618 49.4405 L 34.618 116.7375 L 22.5704 155.6563 " data-paper-data="{&quot;origPos&quot;:null}" fill="none" stroke="#000000" stroke-width="3.5" stroke-linecap="round"/><path d="M 35.4212 115.3008 L 47.4688 155.4595 " fill="none" stroke="#000000" stroke-width="3.5" stroke-linecap="round"/><path d="M 10.5228 26.55 C 10.5228 12.5772 21.85 1.25 35.8228 1.25 C 49.7956 1.25 61.1228 12.5772 61.1228 26.55 C 61.1228 40.5228 49.7956 51.85 35.8228 51.85 C 21.85 51.85 10.5228 40.5228 10.5228 26.55 Z " data-paper-data="{&quot;origPos&quot;:null}" fill="#d4d4d4" stroke="#000000" stroke-width="2.5" stroke-linecap="butt"/><path d="M250.47801,108.32534c0,-2.66149 2.15756,-4.81905 4.81905,-4.81905c2.66149,0 4.81905,2.15756 4.81905,4.81905c0,2.66149 -2.15756,4.81905 -4.81905,4.81905c-2.66149,0 -4.81905,-2.15756 -4.81905,-4.81905z" data-paper-data="{&quot;origPos&quot;:null}" fill="#000000" stroke="none" stroke-width="0" stroke-linecap="butt" transform="matrix(1,0,0,1,-206.73939,-88.46581)"/><path d="M 51.379 12.1112 L 42.9966 17.2459 " data-paper-data="{&quot;origPos&quot;:null,&quot;index&quot;:null,&quot;origRot&quot;:0}" fill="none" stroke="#000000" stroke-width="2.5" stroke-linecap="round"/><path d="M 30.4931 20.5523 C 30.4931 20.5523 32.5893 18.874 33.931 18.8665 C 35.5846 18.8573 38.1683 20.5096 38.1683 20.5096 " data-paper-data="{&quot;origPos&quot;:null,&quot;origRot&quot;:0}" fill="none" stroke="#000000" stroke-width="2.5" stroke-linecap="round"/><path d="M 24.6164 93.3357 C 24.6164 93.3357 26.1056 77.6565 27.6987 71.1414 C 29.5002 63.7743 33.3148 57.7643 33.3148 57.7643 " data-paper-data="{&quot;origPos&quot;:null}" fill="none" stroke="#000000" stroke-width="3.5" stroke-linecap="round"/><path d="M 64.6204 65.7357 C 64.6204 65.7357 54.5109 72.8767 46.4226 73.6562 C 36.6203 74.601 35.5053 57.7643 35.5053 57.7643 " data-paper-data="{&quot;origPos&quot;:null,&quot;index&quot;:null}" fill="none" stroke="#000000" stroke-width="3.5" stroke-linecap="round"/><path d="M267.1,163.06667c0,0 -1.21947,-5.57284 -1.48794,-9.13974c-0.27789,-3.69199 0.08794,-9.46026 0.08794,-9.46026h9.2c0,0 -0.572,5.68632 -0.29805,9.32585c0.27242,3.61936 1.69806,9.27415 1.69806,9.27415z" data-paper-data="{&quot;origPos&quot;:null}" fill="#9a9a9a" stroke="none" stroke-width="0" stroke-linecap="butt" transform="matrix(1,0,0,1,-206.73939,-88.46581)"/></g></g></g></svg>