<svg xmlns="http://www.w3.org/2000/svg" xmlns:xlink="http://www.w3.org/1999/xlink" version="1.1" width="485.05902" height="202.48677" viewBox="0,0,485.05902,202.48677"><g><g data-paper-data="{&quot;isPaintingLayer&quot;:true}" fill-rule="nonzero" stroke-linecap="butt" stroke-linejoin="miter" stroke-miterlimit="10" stroke-dasharray="" stroke-dashoffset="0" style="mix-blend-mode: normal"><path d="M-2.3662,363.05967v-43.04929h485.05902v43.04929z" data-paper-data="{&quot;origPos&quot;:null}" fill="#7c4500" stroke="none" stroke-width="0" transform="matrix(1,0,0,1,2.3662,-160.5729)"/><g data-paper-data="{&quot;origPos&quot;:null}"><g data-paper-data="{&quot;origPos&quot;:null}"><path d="M174.42127,288.03268v-5.90348h3.88765v5.90348z" data-paper-data="{&quot;origPos&quot;:null}" fill="#995400" stroke="none" stroke-width="0" transform="matrix(1,0,0,1,2.3662,-160.5729)"/><path d="M 201.729 146.3214 C 201.729 157.1364 191.5435 165.9037 178.979 165.9037 C 166.4145 165.9037 156.229 157.1364 156.229 146.3214 C 156.229 135.5064 166.4145 126.7391 178.979 126.7391 C 191.5435 126.7391 201.729 135.5064 201.729 146.3214 Z " data-paper-data="{&quot;origPos&quot;:null}" fill="#ff6400" stroke="#e35b00" stroke-width="1.5"/><path d="M164.05417,306.60705c-3.88493,-1.73133 -2.73575,-8.78322 -2.73575,-8.78322l13.24684,5.90348c0,0 -6.62615,4.61108 -10.51108,2.87974z" data-paper-data="{&quot;origPos&quot;:null}" fill="#fff300" stroke="none" stroke-width="0" transform="matrix(1,0,0,1,2.3662,-160.5729)"/><path d="M179.30204,303.87129l13.24684,-5.90348c0,0 1.14917,7.0519 -2.73576,8.78323c-3.88493,1.73133 -10.51108,-2.87975 -10.51108,-2.87975z" data-paper-data="{&quot;origPos&quot;:null,&quot;index&quot;:null}" fill="#fff300" stroke="none" stroke-width="0" transform="matrix(1,0,0,1,2.3662,-160.5729)"/></g><path d="M161.50238,311.12631c0,0 8.99774,2.2545 14.75675,2.2545c6.15894,0 15.78153,-2.2545 15.78153,-2.2545c0,0 -8.81537,10.24775 -15.78153,10.24775c-6.96616,0 -14.75675,-10.24775 -14.75675,-10.24775z" data-paper-data="{&quot;origPos&quot;:null}" fill="#fff300" stroke="none" stroke-width="0" transform="matrix(1,0,0,1,2.3662,-160.5729)"/></g><g data-paper-data="{&quot;origPos&quot;:null}"><g data-paper-data="{&quot;origPos&quot;:null}"><path d="M301.08793,287.69935v-5.90349h3.88765v5.90349z" data-paper-data="{&quot;origPos&quot;:null}" fill="#995400" stroke="none" stroke-width="0" transform="matrix(1,0,0,1,2.3662,-160.5729)"/><path d="M 328.3957 145.988 C 328.3957 156.803 318.2102 165.5703 305.6457 165.5703 C 293.0812 165.5703 282.8957 156.803 282.8957 145.988 C 282.8957 135.1731 293.0812 126.4058 305.6457 126.4058 C 318.2102 126.4058 328.3957 135.173 328.3957 145.988 Z " data-paper-data="{&quot;origPos&quot;:null}" fill="#ff6400" stroke="#e35b00" stroke-width="1.5"/><path d="M290.72084,306.27372c-3.88493,-1.73133 -2.73575,-8.78322 -2.73575,-8.78322l13.24684,5.90348c0,0 -6.62615,4.61108 -10.51108,2.87974z" data-paper-data="{&quot;origPos&quot;:null}" fill="#fff300" stroke="none" stroke-width="0" transform="matrix(1,0,0,1,2.3662,-160.5729)"/><path d="M305.9687,303.53796l13.24683,-5.90348c0,0 1.14918,7.0519 -2.73575,8.78323c-3.88493,1.73133 -10.51108,-2.87975 -10.51108,-2.87975z" data-paper-data="{&quot;origPos&quot;:null,&quot;index&quot;:null}" fill="#fff300" stroke="none" stroke-width="0" transform="matrix(1,0,0,1,2.3662,-160.5729)"/></g><path d="M288.16904,310.79297c0,0 8.99774,2.2545 14.75675,2.2545c6.15895,0 15.78153,-2.2545 15.78153,-2.2545c0,0 -8.81537,10.24775 -15.78153,10.24775c-6.96616,0 -14.75675,-10.24775 -14.75675,-10.24775z" data-paper-data="{&quot;origPos&quot;:null}" fill="#fff300" stroke="none" stroke-width="0" transform="matrix(1,0,0,1,2.3662,-160.5729)"/></g><g data-paper-data="{&quot;origPos&quot;:null}"><g><g data-paper-data="{&quot;origPos&quot;:null}"><path d="M53.72273,172.43004v-8.85714h40.42857v8.85714z" stroke-width="NaN" fill="#d9d9d9" stroke="none" transform="matrix(1,0,0,1,2.3662,-160.5729)"/><g data-paper-data="{&quot;origPos&quot;:null}"><path d="M49.86559,164.50147c0,-2.16969 1.75888,-3.92857 3.92857,-3.92857c2.16969,0 3.92857,1.75888 3.92857,3.92857c0,2.16969 -1.75888,3.92857 -3.92857,3.92857c-2.16969,0 -3.92857,-1.75888 -3.92857,-3.92857z" data-paper-data="{&quot;origPos&quot;:null}" stroke-width="0" fill="#d9d9d9" stroke="none" transform="matrix(1,0,0,1,2.3662,-160.5729)"/><path d="M50.00844,171.50147c0,-2.16969 1.75888,-3.92858 3.92857,-3.92858c2.16969,0 3.92857,1.75889 3.92857,3.92858c0,2.16969 -1.75888,3.92857 -3.92857,3.92857c-2.16969,0 -3.92857,-1.75888 -3.92857,-3.92857z" data-paper-data="{&quot;origPos&quot;:null}" stroke-width="0" fill="#d9d9d9" stroke="none" transform="matrix(1,0,0,1,2.3662,-160.5729)"/></g><g data-paper-data="{&quot;origPos&quot;:null}"><path d="M90.29416,164.50147c0,-2.16969 1.75888,-3.92857 3.92857,-3.92857c2.16969,0 3.92857,1.75888 3.92857,3.92857c0,2.16969 -1.75888,3.92857 -3.92857,3.92857c-2.16969,0 -3.92857,-1.75888 -3.92857,-3.92857z" data-paper-data="{&quot;origPos&quot;:null}" stroke-width="0" fill="#d9d9d9" stroke="none" transform="matrix(1,0,0,1,2.3662,-160.5729)"/><path d="M90.43701,171.50147c0,-2.16969 1.75888,-3.92858 3.92857,-3.92858c2.16969,0 3.92857,1.75889 3.92857,3.92858c0,2.16969 -1.75888,3.92857 -3.92857,3.92857c-2.16969,0 -3.92857,-1.75888 -3.92857,-3.92857z" data-paper-data="{&quot;origPos&quot;:null}" stroke-width="0" fill="#d9d9d9" stroke="none" transform="matrix(1,0,0,1,2.3662,-160.5729)"/></g></g><g data-paper-data="{&quot;origPos&quot;:null}"><path d="M101.05606,172.43004v-8.85714h40.42857v8.85714z" stroke-width="NaN" fill="#d9d9d9" stroke="none" transform="matrix(1,0,0,1,2.3662,-160.5729)"/><g data-paper-data="{&quot;origPos&quot;:null}"><path d="M97.19892,164.50147c0,-2.16969 1.75888,-3.92857 3.92857,-3.92857c2.16969,0 3.92857,1.75888 3.92857,3.92857c0,2.16969 -1.75888,3.92857 -3.92857,3.92857c-2.16969,0 -3.92857,-1.75888 -3.92857,-3.92857z" data-paper-data="{&quot;origPos&quot;:null}" stroke-width="0" fill="#d9d9d9" stroke="none" transform="matrix(1,0,0,1,2.3662,-160.5729)"/><path d="M97.34178,171.50147c0,-2.16969 1.75888,-3.92858 3.92857,-3.92858c2.16969,0 3.92857,1.75889 3.92857,3.92858c0,2.16969 -1.75888,3.92857 -3.92857,3.92857c-2.16969,0 -3.92857,-1.75888 -3.92857,-3.92857z" data-paper-data="{&quot;origPos&quot;:null}" stroke-width="0" fill="#d9d9d9" stroke="none" transform="matrix(1,0,0,1,2.3662,-160.5729)"/></g><g data-paper-data="{&quot;origPos&quot;:null}"><path d="M137.6275,164.50147c0,-2.16969 1.75888,-3.92857 3.92857,-3.92857c2.16969,0 3.92857,1.75888 3.92857,3.92857c0,2.16969 -1.75888,3.92857 -3.92857,3.92857c-2.16969,0 -3.92857,-1.75888 -3.92857,-3.92857z" data-paper-data="{&quot;origPos&quot;:null}" stroke-width="0" fill="#d9d9d9" stroke="none" transform="matrix(1,0,0,1,2.3662,-160.5729)"/><path d="M137.77035,171.50147c0,-2.16969 1.75888,-3.92858 3.92857,-3.92858c2.16969,0 3.92857,1.75889 3.92857,3.92858c0,2.16969 -1.75888,3.92857 -3.92857,3.92857c-2.16969,0 -3.92857,-1.75888 -3.92857,-3.92857z" data-paper-data="{&quot;origPos&quot;:null}" stroke-width="0" fill="#d9d9d9" stroke="none" transform="matrix(1,0,0,1,2.3662,-160.5729)"/></g></g></g><g data-paper-data="{&quot;origPos&quot;:null}"><path d="M148.38939,172.93004v-8.85714h40.42857v8.85714z" stroke-width="NaN" fill="#d9d9d9" stroke="none" transform="matrix(1,0,0,1,2.3662,-160.5729)"/><g data-paper-data="{&quot;origPos&quot;:null}"><path d="M144.53226,165.00147c0,-2.16969 1.75888,-3.92857 3.92857,-3.92857c2.16969,0 3.92857,1.75888 3.92857,3.92857c0,2.16969 -1.75888,3.92857 -3.92857,3.92857c-2.16969,0 -3.92857,-1.75888 -3.92857,-3.92857z" data-paper-data="{&quot;origPos&quot;:null}" stroke-width="0" fill="#d9d9d9" stroke="none" transform="matrix(1,0,0,1,2.3662,-160.5729)"/><path d="M144.67511,172.00147c0,-2.16969 1.75888,-3.92858 3.92857,-3.92858c2.16969,0 3.92857,1.75889 3.92857,3.92858c0,2.16969 -1.75888,3.92857 -3.92857,3.92857c-2.16969,0 -3.92857,-1.75888 -3.92857,-3.92857z" data-paper-data="{&quot;origPos&quot;:null}" stroke-width="0" fill="#d9d9d9" stroke="none" transform="matrix(1,0,0,1,2.3662,-160.5729)"/></g><g data-paper-data="{&quot;origPos&quot;:null}"><path d="M184.96083,165.00147c0,-2.16969 1.75888,-3.92857 3.92857,-3.92857c2.16969,0 3.92857,1.75888 3.92857,3.92857c0,2.16969 -1.75888,3.92857 -3.92857,3.92857c-2.16969,0 -3.92857,-1.75888 -3.92857,-3.92857z" data-paper-data="{&quot;origPos&quot;:null}" stroke-width="0" fill="#d9d9d9" stroke="none" transform="matrix(1,0,0,1,2.3662,-160.5729)"/><path d="M185.10368,172.00147c0,-2.16969 1.75888,-3.92858 3.92857,-3.92858c2.16969,0 3.92857,1.75889 3.92857,3.92858c0,2.16969 -1.75888,3.92857 -3.92857,3.92857c-2.16969,0 -3.92857,-1.75888 -3.92857,-3.92857z" data-paper-data="{&quot;origPos&quot;:null}" stroke-width="0" fill="#d9d9d9" stroke="none" transform="matrix(1,0,0,1,2.3662,-160.5729)"/></g></g></g><g data-paper-data="{&quot;origPos&quot;:null}"><g data-paper-data="{&quot;origPos&quot;:null}"><path d="M117.42127,179.03268v-5.90348h3.88765v5.90348z" data-paper-data="{&quot;origPos&quot;:null}" fill="#995400" stroke="none" stroke-width="0" transform="matrix(1,0,0,1,2.3662,-160.5729)"/><path d="M 144.729 37.3214 C 144.729 48.1364 134.5435 56.9037 121.979 56.9037 C 109.4146 56.9037 99.229 48.1364 99.229 37.3214 C 99.229 26.5064 109.4146 17.7391 121.979 17.7391 C 134.5435 17.7391 144.729 26.5064 144.729 37.3214 Z " data-paper-data="{&quot;origPos&quot;:null}" fill="#ff6400" stroke="#e35b00" stroke-width="1.5"/><path d="M107.05417,197.60705c-3.88493,-1.73133 -2.73575,-8.78322 -2.73575,-8.78322l13.24684,5.90348c0,0 -6.62615,4.61108 -10.51108,2.87974z" data-paper-data="{&quot;origPos&quot;:null}" fill="#fff300" stroke="none" stroke-width="0" transform="matrix(1,0,0,1,2.3662,-160.5729)"/><path d="M122.30204,194.87129l13.24684,-5.90348c0,0 1.14917,7.0519 -2.73576,8.78323c-3.88493,1.73133 -10.51108,-2.87975 -10.51108,-2.87975z" data-paper-data="{&quot;origPos&quot;:null,&quot;index&quot;:null}" fill="#fff300" stroke="none" stroke-width="0" transform="matrix(1,0,0,1,2.3662,-160.5729)"/></g><path d="M104.50238,202.12631c0,0 8.99774,2.2545 14.75675,2.2545c6.15894,0 15.78153,-2.2545 15.78153,-2.2545c0,0 -8.81537,10.24775 -15.78153,10.24775c-6.96616,0 -14.75675,-10.24775 -14.75675,-10.24775z" data-paper-data="{&quot;origPos&quot;:null}" fill="#fff300" stroke="none" stroke-width="0" transform="matrix(1,0,0,1,2.3662,-160.5729)"/></g><g data-paper-data="{&quot;origPos&quot;:null}"><g data-paper-data="{&quot;origPos&quot;:null}"><path d="M353.42127,178.03268v-5.90348h3.88765v5.90348z" data-paper-data="{&quot;origPos&quot;:null}" fill="#995400" stroke="none" stroke-width="0" transform="matrix(1,0,0,1,2.3662,-160.5729)"/><path d="M 380.729 36.3214 C 380.729 47.1364 370.5435 55.9037 357.979 55.9037 C 345.4145 55.9037 335.229 47.1364 335.229 36.3214 C 335.229 25.5064 345.4145 16.7391 357.979 16.7391 C 370.5435 16.7391 380.729 25.5064 380.729 36.3214 Z " data-paper-data="{&quot;origPos&quot;:null}" fill="#ff6400" stroke="#e35b00" stroke-width="1.5"/><path d="M343.05418,196.60705c-3.88493,-1.73133 -2.73575,-8.78322 -2.73575,-8.78322l13.24684,5.90348c0,0 -6.62614,4.61107 -10.51107,2.87974z" data-paper-data="{&quot;origPos&quot;:null}" fill="#fff300" stroke="none" stroke-width="0" transform="matrix(1,0,0,1,2.3662,-160.5729)"/><path d="M358.30204,193.8713l13.24683,-5.90348c0,0 1.14917,7.0519 -2.73575,8.78323c-3.88493,1.73133 -10.51108,-2.87975 -10.51108,-2.87975z" data-paper-data="{&quot;origPos&quot;:null,&quot;index&quot;:null}" fill="#fff300" stroke="none" stroke-width="0" transform="matrix(1,0,0,1,2.3662,-160.5729)"/></g><path d="M340.50238,201.12631c0,0 8.99774,2.2545 14.75675,2.2545c6.15894,0 15.78153,-2.2545 15.78153,-2.2545c0,0 -8.81536,10.24775 -15.78153,10.24775c-6.96617,0 -14.75675,-10.24775 -14.75675,-10.24775z" data-paper-data="{&quot;origPos&quot;:null}" fill="#fff300" stroke="none" stroke-width="0" transform="matrix(1,0,0,1,2.3662,-160.5729)"/></g><g><g data-paper-data="{&quot;origPos&quot;:null}"><g data-paper-data="{&quot;origPos&quot;:null}"><path d="M290.72273,172.43004v-8.85714h40.42857v8.85714z" stroke-width="NaN" fill="#d9d9d9" stroke="none" transform="matrix(1,0,0,1,2.3662,-160.5729)"/><g data-paper-data="{&quot;origPos&quot;:null}"><path d="M286.86559,164.50147c0,-2.16969 1.75888,-3.92857 3.92857,-3.92857c2.16969,0 3.92857,1.75888 3.92857,3.92857c0,2.16969 -1.75888,3.92857 -3.92857,3.92857c-2.16969,0 -3.92857,-1.75888 -3.92857,-3.92857z" data-paper-data="{&quot;origPos&quot;:null}" stroke-width="0" fill="#d9d9d9" stroke="none" transform="matrix(1,0,0,1,2.3662,-160.5729)"/><path d="M287.00845,171.50147c0,-2.16969 1.75888,-3.92857 3.92857,-3.92857c2.16969,0 3.92857,1.75888 3.92857,3.92857c0,2.16969 -1.75888,3.92857 -3.92857,3.92857c-2.16969,0 -3.92857,-1.75888 -3.92857,-3.92857z" data-paper-data="{&quot;origPos&quot;:null}" stroke-width="0" fill="#d9d9d9" stroke="none" transform="matrix(1,0,0,1,2.3662,-160.5729)"/></g><g data-paper-data="{&quot;origPos&quot;:null}"><path d="M327.29416,164.50147c0,-2.16969 1.75888,-3.92857 3.92857,-3.92857c2.16969,0 3.92857,1.75888 3.92857,3.92857c0,2.16969 -1.75888,3.92857 -3.92857,3.92857c-2.16969,0 -3.92857,-1.75888 -3.92857,-3.92857z" data-paper-data="{&quot;origPos&quot;:null}" stroke-width="0" fill="#d9d9d9" stroke="none" transform="matrix(1,0,0,1,2.3662,-160.5729)"/><path d="M327.43702,171.50147c0,-2.16969 1.75888,-3.92858 3.92857,-3.92858c2.16969,0 3.92857,1.75889 3.92857,3.92858c0,2.16969 -1.75888,3.92857 -3.92857,3.92857c-2.16969,0 -3.92857,-1.75888 -3.92857,-3.92857z" data-paper-data="{&quot;origPos&quot;:null}" stroke-width="0" fill="#d9d9d9" stroke="none" transform="matrix(1,0,0,1,2.3662,-160.5729)"/></g></g><g data-paper-data="{&quot;origPos&quot;:null}"><path d="M338.05606,172.43004v-8.85714h40.42857v8.85714z" stroke-width="NaN" fill="#d9d9d9" stroke="none" transform="matrix(1,0,0,1,2.3662,-160.5729)"/><g data-paper-data="{&quot;origPos&quot;:null}"><path d="M334.19892,164.50147c0,-2.16969 1.75888,-3.92857 3.92857,-3.92857c2.16969,0 3.92857,1.75888 3.92857,3.92857c0,2.16969 -1.75888,3.92857 -3.92857,3.92857c-2.16969,0 -3.92857,-1.75888 -3.92857,-3.92857z" data-paper-data="{&quot;origPos&quot;:null}" stroke-width="0" fill="#d9d9d9" stroke="none" transform="matrix(1,0,0,1,2.3662,-160.5729)"/><path d="M334.34178,171.50147c0,-2.16969 1.75888,-3.92858 3.92857,-3.92858c2.16969,0 3.92857,1.75889 3.92857,3.92858c0,2.16969 -1.75888,3.92857 -3.92857,3.92857c-2.16969,0 -3.92857,-1.75888 -3.92857,-3.92857z" data-paper-data="{&quot;origPos&quot;:null}" stroke-width="0" fill="#d9d9d9" stroke="none" transform="matrix(1,0,0,1,2.3662,-160.5729)"/></g><g data-paper-data="{&quot;origPos&quot;:null}"><path d="M374.62749,164.50147c0,-2.16969 1.75888,-3.92857 3.92857,-3.92857c2.16969,0 3.92857,1.75888 3.92857,3.92857c0,2.16969 -1.75888,3.92857 -3.92857,3.92857c-2.16969,0 -3.92857,-1.75888 -3.92857,-3.92857z" data-paper-data="{&quot;origPos&quot;:null}" stroke-width="0" fill="#d9d9d9" stroke="none" transform="matrix(1,0,0,1,2.3662,-160.5729)"/><path d="M374.77035,171.50147c0,-2.16969 1.75888,-3.92858 3.92857,-3.92858c2.16969,0 3.92857,1.75889 3.92857,3.92858c0,2.16969 -1.75888,3.92857 -3.92857,3.92857c-2.16969,0 -3.92857,-1.75888 -3.92857,-3.92857z" data-paper-data="{&quot;origPos&quot;:null}" stroke-width="0" fill="#d9d9d9" stroke="none" transform="matrix(1,0,0,1,2.3662,-160.5729)"/></g></g></g><g data-paper-data="{&quot;origPos&quot;:null}"><path d="M385.3894,172.93004v-8.85714h40.42857v8.85714z" stroke-width="NaN" fill="#d9d9d9" stroke="none" transform="matrix(1,0,0,1,2.3662,-160.5729)"/><g data-paper-data="{&quot;origPos&quot;:null}"><path d="M381.53226,165.00147c0,-2.16969 1.75888,-3.92857 3.92857,-3.92857c2.16969,0 3.92857,1.75888 3.92857,3.92857c0,2.16969 -1.75888,3.92857 -3.92857,3.92857c-2.16969,0 -3.92857,-1.75888 -3.92857,-3.92857z" data-paper-data="{&quot;origPos&quot;:null}" stroke-width="0" fill="#d9d9d9" stroke="none" transform="matrix(1,0,0,1,2.3662,-160.5729)"/><path d="M381.67511,172.00147c0,-2.16969 1.75888,-3.92858 3.92857,-3.92858c2.16969,0 3.92857,1.75889 3.92857,3.92858c0,2.16969 -1.75888,3.92857 -3.92857,3.92857c-2.16969,0 -3.92857,-1.75888 -3.92857,-3.92857z" data-paper-data="{&quot;origPos&quot;:null}" stroke-width="0" fill="#d9d9d9" stroke="none" transform="matrix(1,0,0,1,2.3662,-160.5729)"/></g><g data-paper-data="{&quot;origPos&quot;:null}"><path d="M421.96083,165.00147c0,-2.16969 1.75888,-3.92857 3.92857,-3.92857c2.16969,0 3.92857,1.75888 3.92857,3.92857c0,2.16969 -1.75888,3.92857 -3.92857,3.92857c-2.16969,0 -3.92857,-1.75888 -3.92857,-3.92857z" data-paper-data="{&quot;origPos&quot;:null}" stroke-width="0" fill="#d9d9d9" stroke="none" transform="matrix(1,0,0,1,2.3662,-160.5729)"/><path d="M422.10368,172.00147c0,-2.16969 1.75888,-3.92858 3.92857,-3.92858c2.16969,0 3.92857,1.75889 3.92857,3.92858c0,2.16969 -1.75888,3.92857 -3.92857,3.92857c-2.16969,0 -3.92857,-1.75888 -3.92857,-3.92857z" data-paper-data="{&quot;origPos&quot;:null}" stroke-width="0" fill="#d9d9d9" stroke="none" transform="matrix(1,0,0,1,2.3662,-160.5729)"/></g></g></g></g></g></svg>