<svg xmlns="http://www.w3.org/2000/svg" xmlns:xlink="http://www.w3.org/1999/xlink" version="1.1" width="572.42439" height="527.18501" viewBox="0,0,572.42439,527.18501"><defs><linearGradient x1="249" y1="-23.26796" x2="249" y2="383.26796" gradientUnits="userSpaceOnUse" id="color-1"><stop offset="0" stop-color="#363636"/><stop offset="1" stop-color="#7b9884"/></linearGradient><radialGradient cx="342" cy="162.5" r="137.5" gradientUnits="userSpaceOnUse" id="color-2"><stop offset="0" stop-color="#cbffff"/><stop offset="1" stop-color="#cbffff" stop-opacity="0"/></radialGradient><radialGradient cx="150" cy="168.5" r="137.5" gradientUnits="userSpaceOnUse" id="color-3"><stop offset="0" stop-color="#ff8200"/><stop offset="1" stop-color="#ff8200" stop-opacity="0"/></radialGradient><linearGradient x1="163.12626" y1="35.32273" x2="152.2153" y2="131.66877" gradientUnits="userSpaceOnUse" id="color-4"><stop offset="0" stop-color="#ffd400"/><stop offset="1" stop-color="#ffa100"/></linearGradient><radialGradient cx="154.99944" cy="128.18341" r="40.96069" gradientUnits="userSpaceOnUse" id="color-5"><stop offset="0" stop-color="#ffab00"/><stop offset="1" stop-color="#ff6e00"/></radialGradient><linearGradient x1="92.98283" y1="115.41617" x2="82.35236" y2="156.22864" gradientUnits="userSpaceOnUse" id="color-6"><stop offset="0" stop-color="#ff9700"/><stop offset="1" stop-color="#ffca00"/></linearGradient><linearGradient x1="105.94146" y1="125.30607" x2="96.90004" y2="160.01789" gradientUnits="userSpaceOnUse" id="color-7"><stop offset="0" stop-color="#ff9700"/><stop offset="1" stop-color="#ffca00"/></linearGradient><linearGradient x1="102.14058" y1="109.31976" x2="89.08532" y2="159.44142" gradientUnits="userSpaceOnUse" id="color-8"><stop offset="0" stop-color="#ff8d00"/><stop offset="1" stop-color="#ffca00"/></linearGradient><linearGradient x1="179.32731" y1="193.32903" x2="170.53798" y2="227.07293" gradientUnits="userSpaceOnUse" id="color-9"><stop offset="0" stop-color="#ff9700"/><stop offset="1" stop-color="#ffca00"/></linearGradient><linearGradient x1="190.04158" y1="201.50604" x2="182.5661" y2="230.2059" gradientUnits="userSpaceOnUse" id="color-10"><stop offset="0" stop-color="#ff9700"/><stop offset="1" stop-color="#ffca00"/></linearGradient><linearGradient x1="186.89898" y1="188.2885" x2="176.10482" y2="229.72929" gradientUnits="userSpaceOnUse" id="color-11"><stop offset="0" stop-color="#ff8d00"/><stop offset="1" stop-color="#ffca00"/></linearGradient><linearGradient x1="327.50444" y1="393.78338" x2="330.12048" y2="401.18012" gradientUnits="userSpaceOnUse" id="color-12"><stop offset="0" stop-color="#7c7c7c"/><stop offset="1" stop-color="#7c7c7c"/></linearGradient><linearGradient x1="379.70208" y1="389.28566" x2="378.77431" y2="396.80938" gradientUnits="userSpaceOnUse" id="color-13"><stop offset="0" stop-color="#7c7c7c"/><stop offset="1" stop-color="#7c7c7c"/></linearGradient><linearGradient x1="200.7366" y1="58.5907" x2="189.8256" y2="154.9367" gradientUnits="userSpaceOnUse" id="color-4-,0,0,1,37.6103,23.26795"><stop offset="0" stop-color="#ffd400"/><stop offset="1" stop-color="#ffa100"/></linearGradient><radialGradient cx="192.6097" cy="151.4514" r="40.9607" gradientUnits="userSpaceOnUse" id="color-5-,0,0,1,37.6103,23.26795"><stop offset="0" stop-color="#ffab00"/><stop offset="1" stop-color="#ff6e00"/></radialGradient></defs><g><g data-paper-data="{&quot;isPaintingLayer&quot;:true}" fill-rule="nonzero" stroke-linecap="none" stroke-linejoin="miter" stroke-miterlimit="10" stroke-dasharray="" stroke-dashoffset="0" font-family="none" font-weight="none" font-size="none" text-anchor="none" style="mix-blend-mode: normal"><path d="M-2,383.26796v-406.53591h502v406.53591z" data-paper-data="{&quot;origPos&quot;:null}" fill="url(#color-1)" stroke="none" stroke-width="NaN" stroke-linecap="butt" transform="matrix(1,0,0,1,37.6103,23.26795)"/><path d="M328.27828,25.68639c51.65561,-5.1808 99.67418,51.87287 107.25248,127.43295c7.5783,75.56007 -28.15343,141.01348 -79.80904,146.19428c-51.65561,5.1808 -99.67418,-51.87287 -107.25248,-127.43295c-7.5783,-75.56007 28.15343,-141.01348 79.80904,-146.19428z" data-paper-data="{&quot;origPos&quot;:null,&quot;index&quot;:null,&quot;origRot&quot;:0}" fill="url(#color-2)" stroke="none" stroke-width="NaN" stroke-linecap="butt" transform="matrix(1,0,0,1,37.6103,23.26795)"/><path d="M243.61146,177.03785c-6.89742,75.62526 -54.40016,133.10913 -106.10034,128.3938c-51.70018,-4.71533 -88.02,-69.84424 -81.12258,-145.46951c6.89742,-75.62526 54.40016,-133.10913 106.10034,-128.3938c51.70018,4.71533 88.02,69.84424 81.12258,145.46951z" data-paper-data="{&quot;origPos&quot;:null,&quot;origRot&quot;:0}" fill="url(#color-3)" stroke="none" stroke-width="NaN" stroke-linecap="butt" transform="matrix(1,0,0,1,37.6103,23.26795)"/><g data-paper-data="{&quot;origRot&quot;:0,&quot;origPos&quot;:null}"><path d="M 186.4964 190.2926 L 174.2359 298.5545 " data-paper-data="{&quot;origPos&quot;:null}" fill="none" stroke="#c80000" stroke-width="5" stroke-linecap="round"/><path d="M 150.3546 134.5747 C 153.8507 103.7042 176.1738 109.2809 183.1926 99.5606 C 187.2205 93.9824 171.8458 86.2204 171.8748 79.4142 C 171.9183 69.227 176.6541 55.0355 187.1456 57.0879 C 193.2314 58.2785 186.1915 73.1966 191.9296 75.4939 C 201.8874 79.4804 214.2917 80.6011 213.1384 90.7852 C 211.1118 108.6804 242.3359 128.1389 231.3404 142.6823 C 218.5294 159.627 214.5872 148.6009 192.6884 146.1209 C 164.1317 142.887 146.8586 165.4453 150.3547 134.5748 Z " data-paper-data="{&quot;origPos&quot;:null,&quot;index&quot;:null}" fill="url(#color-4-,0,0,1,37.6103,23.26795)" stroke="#c80000" stroke-width="3.5" stroke-linecap="butt"/><path d="M 151.6109 146.8729 C 154.1565 124.3946 174.4423 108.236 196.9206 110.7816 C 219.3989 113.3272 235.5575 133.6131 233.0119 156.0914 C 230.4663 178.5697 210.1804 194.7283 187.7021 192.1827 C 165.2239 189.6371 149.0652 169.3512 151.6109 146.8729 Z " data-paper-data="{&quot;origPos&quot;:null}" fill="url(#color-5-,0,0,1,37.6103,23.26795)" stroke="#c80000" stroke-width="3.5" stroke-linecap="butt"/><path d="M 174.1811 296.2074 " data-paper-data="{&quot;origPos&quot;:null}" fill="none" stroke="#c80000" stroke-width="5" stroke-linecap="round"/><path d="M 184.2584 205.0164 C 184.2584 205.0164 153.9261 203.6599 136.5209 200.3006 C 127.1983 198.5013 122.9077 180.959 122.9077 180.959 " data-paper-data="{&quot;origPos&quot;:null,&quot;index&quot;:null,&quot;origRot&quot;:0}" fill="none" stroke="#c80000" stroke-width="5" stroke-linecap="round"/><path d="M 209.0303 252.9598 C 209.0303 252.9598 198.0703 246.8132 196.0017 241.562 C 190.317 227.1314 186.4073 203.845 186.4073 203.845 " data-paper-data="{&quot;origPos&quot;:null,&quot;index&quot;:null}" fill="none" stroke="#c80000" stroke-width="5" stroke-linecap="round"/><path d="M152.55062,117.21813c0.38426,-3.3931 3.44643,-5.83226 6.83954,-5.448c3.3931,0.38426 5.83225,3.44642 5.44799,6.83953c-0.38426,3.3931 -3.44643,5.83226 -6.83953,5.448c-3.3931,-0.38426 -5.83226,-3.44643 -5.448,-6.83954z" data-paper-data="{&quot;origPos&quot;:null}" fill="#c80000" stroke="none" stroke-width="0" stroke-linecap="butt" transform="matrix(1,0,0,1,37.6103,23.26795)"/><path d="M 203.2722 136.7643 L 188.8458 131.6221 " data-paper-data="{&quot;origPos&quot;:null,&quot;origRot&quot;:0}" fill="none" stroke="#c80000" stroke-width="2.5" stroke-linecap="round"/><path d="M 223.1206 136.0824 L 210.7737 137.4852 " data-paper-data="{&quot;origPos&quot;:null,&quot;origRot&quot;:0}" fill="none" stroke="#c80000" stroke-width="2.5" stroke-linecap="round"/><path d="M173.14456,119.78311c0.38426,-3.39312 3.44642,-5.83226 6.83954,-5.448c3.3931,0.38426 5.83226,3.44643 5.448,6.83954c-0.38426,3.39312 -3.44643,5.83226 -6.83954,5.448c-3.39312,-0.38426 -5.83226,-3.44643 -5.448,-6.83954z" data-paper-data="{&quot;origPos&quot;:null}" fill="#c80000" stroke="none" stroke-width="0" stroke-linecap="butt" transform="matrix(1,0,0,1,37.6103,23.26795)"/><g data-paper-data="{&quot;origPos&quot;:null,&quot;origRot&quot;:0}" stroke-linecap="butt"><path d="M89.55454,161.07865c-6.12598,-1.59565 -10.48556,-5.21771 -9.97862,-7.16389c0.50692,-1.94618 5.88394,-2.23034 12.00993,-0.63472c6.12598,1.59565 10.68115,4.46688 10.1742,6.41305c-0.50692,1.94618 -6.07952,2.98119 -12.20552,1.38553z" data-paper-data="{&quot;origPos&quot;:null}" fill="#ffca00" stroke-width="0" stroke="none" transform="matrix(1,0,0,1,37.6103,23.26795)"/><path d="M86.9616,113.84783c0,0 3.46714,3.21215 3.61233,6.21901c0.15358,3.18027 -1.97041,5.55815 -1.85208,9.19111c0.1184,3.63297 2.04675,3.01208 2.33039,5.48933c0.28363,2.4772 -1.48762,3.29195 -1.09032,5.34156c0.39731,2.04958 3.44254,3.16491 3.3249,6.18592c-0.21117,5.42248 -4.19834,9.96928 -8.90557,10.1555c-4.70719,0.18622 -8.35198,-4.05856 -8.14081,-9.48108c0.10667,-2.73896 3.20505,-4.53907 4.12833,-8.01948c0.92328,-3.4804 -0.87194,-4.87959 0.08352,-7.8575c0.95546,-2.9779 4.80901,-5.92744 5.83914,-10.60203c0.97873,-4.44117 0.67013,-6.62234 0.67013,-6.62234z" data-paper-data="{&quot;origPos&quot;:null,&quot;origRot&quot;:0,&quot;index&quot;:null}" fill="url(#color-6)" stroke-width="0" stroke="none" transform="matrix(1,0,0,1,37.6103,23.26795)"/><path d="M111.96271,126.87446c0,0 -1.25685,1.45942 -2.39788,5.15633c-1.20102,3.89123 0.86809,7.7925 0.36703,10.40641c-0.50105,2.6139 -2.71678,2.8291 -3.47305,5.7968c-0.75626,2.9677 1.16526,5.68566 0.0231,7.74131c-2.26129,4.06973 -7.39356,5.53579 -11.46326,3.2745c-4.06973,-2.26129 -5.53577,-7.39354 -3.27448,-11.46326c1.25981,-2.26734 4.45047,-1.71026 5.72619,-3.03314c1.27577,-1.32289 0.08053,-2.7196 1.44897,-4.40724c1.36844,-1.68764 2.78982,-0.36215 4.53418,-2.97146c1.74434,-2.60935 0.94337,-5.31095 2.51438,-7.57257c1.48539,-2.13837 5.99478,-2.92765 5.99478,-2.92765z" data-paper-data="{&quot;origPos&quot;:null,&quot;origRot&quot;:0,&quot;index&quot;:null}" fill="url(#color-7)" stroke-width="0" stroke="none" transform="matrix(1,0,0,1,37.6103,23.26795)"/><path d="M100.67502,108.93803c0,0 3.55035,4.73767 3.17614,8.39718c-0.39575,3.87053 -3.36183,6.20459 -3.88204,10.61182c-0.52018,4.40724 1.89273,4.14138 1.78007,7.19728c-0.11269,3.05591 -2.37351,3.5947 -2.27277,6.16373c0.10074,2.56906 3.52964,4.67461 2.83938,8.28539c-1.23897,6.48112 -6.82201,10.96269 -12.47005,10.00984c-5.64803,-0.95285 -9.22225,-6.97926 -7.98323,-13.46039c0.62586,-3.27368 4.64882,-4.66786 6.38354,-8.63075c1.73475,-3.96287 -0.15161,-6.09782 1.53,-9.44712c1.68163,-3.3493 6.81453,-5.93968 8.89411,-11.3148c1.97576,-5.1067 2.00478,-7.81213 2.00478,-7.81213z" data-paper-data="{&quot;origPos&quot;:null,&quot;origRot&quot;:0}" fill="url(#color-8)" stroke-width="0" stroke="none" transform="matrix(1,0,0,1,37.6103,23.26795)"/></g><g data-paper-data="{&quot;origPos&quot;:null,&quot;origRot&quot;:0}" stroke-linecap="butt"><path d="M176.4928,231.08294c-5.06499,-1.31929 -8.66949,-4.31402 -8.25036,-5.92313c0.41913,-1.60911 4.86487,-1.84405 9.92986,-0.52479c5.06499,1.31929 8.83119,3.69323 8.41206,5.30234c-0.41913,1.60911 -5.02657,2.46487 -10.09156,1.14558z" data-paper-data="{&quot;origPos&quot;:null}" fill="#ffca00" stroke-width="0" stroke="none" transform="matrix(1,0,0,1,37.6103,23.26795)"/><path d="M174.34895,192.03232c0,0 2.86665,2.65579 2.9867,5.14192c0.12696,2.62945 -1.62917,4.59548 -1.53133,7.59923c0.09786,3.00375 1.69228,2.4904 1.92679,4.5386c0.2345,2.04816 -1.22997,2.72182 -0.90148,4.41642c0.32847,1.6946 2.84631,2.61678 2.74903,5.11454c-0.17461,4.48333 -3.47119,8.24264 -7.36316,8.39661c-3.89196,0.15397 -6.90546,-3.35564 -6.73087,-7.83898c0.0882,-2.26458 2.64995,-3.75292 3.41335,-6.63055c0.76337,-2.87761 -0.72092,-4.03446 0.06905,-6.4966c0.78999,-2.46214 3.97612,-4.90083 4.82783,-8.76581c0.80919,-3.67199 0.55406,-5.47539 0.55406,-5.47539z" data-paper-data="{&quot;origPos&quot;:null,&quot;origRot&quot;:0,&quot;index&quot;:null}" fill="url(#color-9)" stroke-width="0" stroke="none" transform="matrix(1,0,0,1,37.6103,23.26795)"/><path d="M195.01999,202.80279c0,0 -1.03919,1.20666 -1.98257,4.26326c-0.993,3.21728 0.71773,6.44287 0.30348,8.60406c-0.41427,2.16118 -2.24621,2.33912 -2.87152,4.79282c-0.62528,2.4537 0.96344,4.70092 0.01909,6.40057c-1.86964,3.36487 -6.11303,4.57699 -9.47789,2.70735c-3.36485,-1.86964 -4.57701,-6.11301 -2.70737,-9.47786c1.04161,-1.87465 3.67967,-1.41404 4.73448,-2.50782c1.05481,-1.09377 0.06659,-2.24857 1.19801,-3.64392c1.13143,-1.39535 2.30665,-0.29943 3.74891,-2.45683c1.44222,-2.15742 0.77998,-4.39112 2.0789,-6.26104c1.22813,-1.76801 4.95653,-2.42059 4.95653,-2.42059z" data-paper-data="{&quot;origPos&quot;:null,&quot;origRot&quot;:0,&quot;index&quot;:null}" fill="url(#color-10)" stroke-width="0" stroke="none" transform="matrix(1,0,0,1,37.6103,23.26795)"/><path d="M185.68726,187.97288c0,0 2.93545,3.91711 2.62604,6.94282c-0.32721,3.20017 -2.77957,5.12996 -3.20968,8.77388c-0.43008,3.64392 1.56492,3.4241 1.47176,5.95073c-0.09318,2.52664 -1.96243,2.97211 -1.87914,5.0962c0.08329,2.12411 2.91832,3.86497 2.34761,6.85039c-1.0244,5.35861 -5.64046,9.06399 -10.31028,8.27617c-4.66981,-0.78782 -7.62498,-5.77045 -6.60055,-11.1291c0.51743,-2.70669 3.84364,-3.85943 5.27794,-7.13597c1.4343,-3.27652 -0.12536,-5.0417 1.265,-7.81091c1.39038,-2.76921 5.63428,-4.91095 7.35369,-9.35512c1.63357,-4.22224 1.65759,-6.45911 1.65759,-6.45911z" data-paper-data="{&quot;origPos&quot;:null,&quot;origRot&quot;:0}" fill="url(#color-11)" stroke-width="0" stroke="none" transform="matrix(1,0,0,1,37.6103,23.26795)"/></g><path d="M 186.9554 155.8477 L 215.867 163.855 C 215.867 163.855 206.844 176.4018 198.1434 173.9921 C 189.4428 171.5825 186.9554 155.8477 186.9554 155.8477 Z " data-paper-data="{&quot;origPos&quot;:null,&quot;origRot&quot;:0}" fill="#e5e5e5" stroke="#c80000" stroke-width="2.5" stroke-linecap="butt"/></g><path d="M 282.9308 156.7602 L 266.0131 82.3587 L 282.9308 11.1009 L 306.0004 11.1009 L 291.3896 85.5024 L 309.8453 156.7602 L 293.5268 238.9338 L 313.7762 299.7186 L 291.3849 403.4405 L 263.8452 404.8144 L 288.1539 304.3761 L 267.5511 239.545 Z " data-paper-data="{&quot;origPos&quot;:null}" fill="#b9faf8" stroke="#00e6ff" stroke-width="7" stroke-linecap="butt"/><text transform="matrix(1.88994,0,0,1.88994,238.18653,221.97906)" font-size="40" xml:space="preserve" data-paper-data="{&quot;origPos&quot;:null}" fill="#c80000" fill-rule="nonzero" stroke="#ff0000" stroke-width="1" stroke-linecap="butt" stroke-linejoin="miter" stroke-miterlimit="10" stroke-dasharray="" stroke-dashoffset="0" font-family="Serif" font-weight="normal" text-anchor="start" style="mix-blend-mode: normal"><tspan x="0" dy="0">VS</tspan></text><g data-paper-data="{&quot;origPos&quot;:null}"><path d="M 15.3066 274.5912 L 30.904 252.0061 C 30.904 252.0061 33.0242 267.0911 37.3712 272.3809 C 42.2777 278.3517 57.5306 283.8796 57.5306 283.8796 L 51.6619 297.5207 C 51.6619 297.5207 47.0563 297.3174 43.9525 299.4775 C 39.2898 302.7226 31.7612 311.3708 31.7612 311.3708 C 31.7612 311.3708 38.8569 297.5299 35.654 295.2542 C 32.451 292.9785 27.0934 296.3018 27.0934 296.3018 C 27.0934 296.3018 31.306 290.9829 29.16 286.5501 C 27.0141 282.1173 18.5939 287.4413 18.5939 287.4413 C 18.5939 287.4413 26.2161 273.3329 25.1313 272.618 C 23.5191 271.5556 15.3065 274.5912 15.3065 274.5912 Z " data-paper-data="{&quot;origPos&quot;:null,&quot;origRot&quot;:0}" fill="#00ff1a" stroke="#00ba13" stroke-width="1" stroke-linecap="butt"/><path d="M 0.5321 300.2708 L 4.7507 266.4362 C 4.7507 266.4362 15.7457 281.8378 23.5712 285.1701 C 32.4039 288.9314 52.3807 286.2657 52.3807 286.2657 L 53.7457 304.6625 C 53.7457 304.6625 48.5552 307.0822 46.3758 311.2436 C 43.1018 317.4952 39.7722 331.3443 39.7722 331.3443 C 39.7722 331.3443 39.6442 312.023 34.8093 311.3545 C 29.9744 310.686 25.9798 317.4227 25.9798 317.4227 C 25.9798 317.4227 27.5675 309.1449 22.6588 305.4933 C 17.7501 301.8416 11.53 312.5404 11.53 312.5404 C 11.53 312.5404 11.8285 292.6222 10.2229 292.4573 C 7.837 292.2123 0.5321 300.2709 0.5321 300.2709 Z " data-paper-data="{&quot;origPos&quot;:null,&quot;origRot&quot;:0}" fill="#00ff1a" stroke="#00ba13" stroke-width="1" stroke-linecap="butt"/><path d="M 57.6895 256.9823 L 42.8291 380.1574 L 12.1842 448.7308 " data-paper-data="{&quot;origPos&quot;:null}" fill="none" stroke="#00940e" stroke-width="3.5" stroke-linecap="round"/><path d="M 57.7996 453.8686 L 44.6164 377.705 " fill="none" stroke="#00940e" stroke-width="3.5" stroke-linecap="round"/><path d="M 53.4663 271.9297 L 18.2033 322.5884 " data-paper-data="{&quot;origPos&quot;:null}" fill="none" stroke="#00940e" stroke-width="3.5" stroke-linecap="round"/><path d="M 57.4755 272.4134 L 79.6787 330.0051 " data-paper-data="{&quot;origPos&quot;:null,&quot;index&quot;:null}" fill="none" stroke="#00940e" stroke-width="3.5" stroke-linecap="round"/><g data-paper-data="{&quot;origRot&quot;:0}"><path d="M78.76256,197.14069l-11.01195,-7.59121l9.66994,-5.37122z" data-paper-data="{&quot;origRot&quot;:0,&quot;origPos&quot;:null}" fill="#cfcfcf" stroke="none" stroke-width="0" stroke-linecap="butt" transform="matrix(1,0,0,1,37.6103,23.26795)"/><path d="M61.89319,205.78631l-10.37044,-8.44651l10.06807,-4.58172z" data-paper-data="{&quot;origRot&quot;:0,&quot;origPos&quot;:null}" fill="#cfcfcf" stroke="none" stroke-width="0" stroke-linecap="butt" transform="matrix(1,0,0,1,37.6103,23.26795)"/><path d="M45.98488,211.87256l-10.37044,-8.4465l10.06805,-4.5817z" data-paper-data="{&quot;origRot&quot;:0,&quot;origPos&quot;:null}" fill="#cfcfcf" stroke="none" stroke-width="0" stroke-linecap="butt" transform="matrix(1,0,0,1,37.6103,23.26795)"/><path d="M59.70253,209.92794l-10.0817,4.55158l0.48338,-13.36621z" data-paper-data="{&quot;origRot&quot;:0,&quot;origPos&quot;:null,&quot;index&quot;:null}" fill="#cfcfcf" stroke="none" stroke-width="0" stroke-linecap="butt" transform="matrix(1,0,0,1,37.6103,23.26795)"/><path d="M76.44169,203.68998l-10.08171,4.55158l0.48338,-13.36621z" data-paper-data="{&quot;origRot&quot;:0,&quot;origPos&quot;:null,&quot;index&quot;:null}" fill="#cfcfcf" stroke="none" stroke-width="0" stroke-linecap="butt" transform="matrix(1,0,0,1,37.6103,23.26795)"/><path d="M 22.7979 237.0702 C 11.6133 212.3947 11.2347 192.1128 35.9102 180.9281 C 59.7813 170.1081 78.3046 161.5233 101.7472 173.2427 C 110.968 177.8524 105.5339 191.7973 114.0011 197.6777 C 127.0497 206.7398 87.9817 217.3148 74.0891 225.0208 C 65.9044 229.5607 74.1981 242.2593 83.2201 239.7692 C 96.0335 236.2326 128.6907 217.7869 121.8748 229.1987 C 118.948 234.0989 115.4976 244.7925 110.2772 247.1002 C 94.6159 254.0234 102.0999 252.3356 84.5365 260.2965 C 61.0741 270.9314 33.4328 260.5325 22.798 237.0701 Z " data-paper-data="{&quot;origPos&quot;:null}" fill="#00ff1a" stroke="#00940e" stroke-width="2.5" stroke-linecap="butt"/><path d="M19.8715,180.32166c-2.02569,-4.46904 -0.04496,-9.73404 4.42408,-11.75973c4.46904,-2.02569 9.73404,-0.04495 11.75972,4.42408c2.02569,4.46904 0.04496,9.73404 -4.42408,11.75972c-4.46904,2.02569 -9.73404,0.04496 -11.75972,-4.42408z" data-paper-data="{&quot;origPos&quot;:null}" fill="#ff0000" stroke="none" stroke-width="0" stroke-linecap="butt" transform="matrix(1,0,0,1,37.6103,23.26795)"/><path d="M45.73705,168.59757c-2.02567,-4.46901 -0.04493,-9.73404 4.42408,-11.75972c4.46901,-2.02567 9.73405,-0.04494 11.75972,4.42408c2.02567,4.46901 0.04494,9.73405 -4.42408,11.75972c-4.46901,2.02567 -9.73405,0.04494 -11.75972,-4.42408z" data-paper-data="{&quot;origPos&quot;:null}" fill="#ff0000" stroke="none" stroke-width="0" stroke-linecap="butt" transform="matrix(1,0,0,1,37.6103,23.26795)"/><path d="M 74.1613 193.3379 L 56.3762 189.8565 " data-paper-data="{&quot;origPos&quot;:null,&quot;origRot&quot;:0}" fill="none" stroke="#000000" stroke-width="2.5" stroke-linecap="round"/><path d="M 89.1086 176.6925 L 82.3244 189.1104 " data-paper-data="{&quot;origPos&quot;:null,&quot;origRot&quot;:0}" fill="none" stroke="#000000" stroke-width="2.5" stroke-linecap="round"/></g></g><g data-paper-data="{&quot;origPos&quot;:null}"><path d="M 174.6792 332.599 L 154.7764 441.0346 L 123.8541 500.1814 " data-paper-data="{&quot;origPos&quot;:null}" fill="none" stroke="#000000" stroke-width="6.5" stroke-linecap="round"/><path d="M 156.4955 438.9571 L 164.0311 507.2278 " fill="none" stroke="#000000" stroke-width="3.5" stroke-linecap="round"/><path d="M 142.6243 288.5896 C 146.7567 266.0753 168.3581 251.1738 190.8725 255.3061 C 213.3868 259.4385 228.2883 281.04 224.156 303.5543 C 220.0236 326.0686 198.4221 340.9702 175.9078 336.8378 C 153.3935 332.7054 138.4919 311.1039 142.6243 288.5896 Z " data-paper-data="{&quot;origPos&quot;:null}" fill="#d4d4d4" stroke="#000000" stroke-width="2.5" stroke-linecap="butt"/><path d="M 206.2915 359.2762 C 206.2915 359.2762 194.6403 380.6236 185.8561 377.3903 C 173.2408 372.7468 174.6471 347.2736 174.6471 347.2736 " data-paper-data="{&quot;origPos&quot;:null,&quot;index&quot;:null}" fill="none" stroke="#000000" stroke-width="6.5" stroke-linecap="round"/><g data-paper-data="{&quot;origPos&quot;:null,&quot;origRot&quot;:0}" stroke-linecap="butt"><path d="M74.56002,360.95826l16.03832,-14.10097l31.50834,26.69692l-8.28358,6.04663z" fill="#894c00" stroke-width="0" stroke="none" transform="matrix(1,0,0,1,37.6103,23.26795)"/><path d="M114.85854,378.84501l6.62452,-5.82431l48.43378,55.0881l-6.62452,5.82431z" data-paper-data="{&quot;origPos&quot;:null}" fill="#8a8a8a" stroke-width="0" stroke="none" transform="matrix(1,0,0,1,37.6103,23.26795)"/><path d="M136.75944,410.43436l3.52285,-6.18816l20.69165,23.53447l-6.60932,3.02917z" data-paper-data="{&quot;origPos&quot;:null}" fill="#894c00" stroke-width="0" stroke="none" transform="matrix(1,0,0,1,37.6103,23.26795)"/></g><path d="M 138.3852 401.1174 C 138.3852 401.1174 136.6987 379.6069 143.6188 370.8643 C 149.9834 362.8234 170.1176 345.6257 170.1176 345.6257 " data-paper-data="{&quot;origPos&quot;:null}" fill="none" stroke="#000000" stroke-width="6.5" stroke-linecap="round"/><g data-paper-data="{&quot;origPos&quot;:null,&quot;origRot&quot;:0}"><path d="M183.67371,324.86432c-14.30649,15.11156 -36.20158,17.6131 -48.90404,5.58736c-12.70247,-12.02575 -11.40215,-34.02487 2.90434,-49.13644c14.30649,-15.11156 36.20158,-17.6131 48.90404,-5.58736c12.70247,12.02575 11.40215,34.02487 -2.90434,49.13644z" data-paper-data="{&quot;origPos&quot;:null}" fill="#ff3f3f" stroke="none" stroke-width="0" stroke-linecap="butt" transform="matrix(1,0,0,1,37.6103,23.26795)"/><path d="M157.32648,285.66998c2.99755,-3.16623 7.99429,-3.30298 11.16052,-0.30542c3.16623,2.99755 3.30298,7.99429 0.30542,11.16052c-2.99755,3.16623 -7.99429,3.30298 -11.16052,0.30542c-3.16623,-2.99755 -3.30298,-7.99429 -0.30542,-11.16052z" data-paper-data="{&quot;origPos&quot;:null}" fill="#000000" stroke="none" stroke-width="0" stroke-linecap="butt" transform="matrix(1,0,0,1,37.6103,23.26795)"/><path d="M173.9453,300.65147c2.99755,-3.16623 7.99429,-3.30297 11.16052,-0.30542c3.16623,2.99755 3.30297,7.99429 0.30542,11.16052c-2.99755,3.16623 -7.99429,3.30297 -11.16052,0.30542c-3.16623,-2.99755 -3.30297,-7.99429 -0.30542,-11.16052z" data-paper-data="{&quot;origPos&quot;:null}" fill="#000000" stroke="none" stroke-width="0" stroke-linecap="butt" transform="matrix(1,0,0,1,37.6103,23.26795)"/><path d="M 202.7341 302.0181 L 209.4802 316.6407 " data-paper-data="{&quot;origPos&quot;:null}" fill="none" stroke="#000000" stroke-width="2.5" stroke-linecap="round"/><path d="M 214.7217 320.1061 L 226.6743 324.0097 " data-paper-data="{&quot;origPos&quot;:null}" fill="none" stroke="#000000" stroke-width="2.5" stroke-linecap="round"/><path d="M 206.3045 352.2461 C 206.3045 352.2461 192.1979 352.6202 187.4942 348.2911 C 181.0635 342.3725 177.7741 325.9876 177.7741 325.9876 " data-paper-data="{&quot;origPos&quot;:null}" fill="none" stroke="#000000" stroke-width="2.5" stroke-linecap="round"/></g><path d="M 139.0198 275.8301 L 177.3581 305.9407 " data-paper-data="{&quot;origPos&quot;:null}" fill="none" stroke="#505050" stroke-width="2.5" stroke-linecap="round"/><g data-paper-data="{&quot;origPos&quot;:null,&quot;origRot&quot;:0}"><path d="M132.25753,261.25826c-0.95659,-4.92966 2.26421,-9.7014 7.19387,-10.65799c4.92966,-0.95659 9.7014,2.26421 10.65799,7.19387c0.95659,4.92966 -2.26421,9.7014 -7.19387,10.65799c-4.92966,0.95659 -9.7014,-2.26421 -10.65799,-7.19387z" data-paper-data="{&quot;origPos&quot;:null}" fill="#000000" stroke="none" stroke-width="0" stroke-linecap="butt" transform="matrix(1,0,0,1,37.6103,23.26795)"/><path d="M157.54766,256.35076c-0.95659,-4.92964 2.26423,-9.7014 7.19387,-10.65799c4.92964,-0.95659 9.7014,2.26423 10.65799,7.19387c0.95659,4.92964 -2.26423,9.7014 -7.19387,10.65799c-4.92964,0.95659 -9.7014,-2.26423 -10.65799,-7.19387z" data-paper-data="{&quot;origPos&quot;:null}" fill="#000000" stroke="none" stroke-width="0" stroke-linecap="butt" transform="matrix(1,0,0,1,37.6103,23.26795)"/><path d="M 164.4325 271.18 L 180.0255 261.1375 " data-paper-data="{&quot;origPos&quot;:null,&quot;index&quot;:null}" fill="none" stroke="#000000" stroke-width="2.5" stroke-linecap="round"/><path d="M 209.8535 270.2513 L 195.8246 266.6586 " data-paper-data="{&quot;origPos&quot;:null,&quot;index&quot;:null}" fill="none" stroke="#000000" stroke-width="2.5" stroke-linecap="round"/></g></g><g data-paper-data="{&quot;origPos&quot;:null}"><path d="M 423.1858 520.9312 L 397.2246 463.367 L 384.1234 359.8072 " data-paper-data="{&quot;origPos&quot;:null}" fill="none" stroke="#000000" stroke-width="3.5" stroke-linecap="round"/><path d="M 395.7193 461.3111 L 385.1527 525.435 " fill="none" stroke="#000000" stroke-width="3.5" stroke-linecap="round"/><path d="M 417.4451 414.8399 L 387.7325 372.3646 " data-paper-data="{&quot;origPos&quot;:null}" fill="none" stroke="#000000" stroke-width="3.5" stroke-linecap="round"/><path d="M 384.3899 372.7875 L 366.1911 421.324 " data-paper-data="{&quot;origPos&quot;:null,&quot;index&quot;:null}" fill="none" stroke="#000000" stroke-width="3.5" stroke-linecap="round"/><g data-paper-data="{&quot;origPos&quot;:null,&quot;origRot&quot;:0}" stroke-linecap="butt"><path d="M327.39543,393.98462c0,0 6.34472,-1.25099 8.96071,-2.34256c3.15933,-1.3183 5.83784,-3.83248 5.83784,-3.83248c0,0 -1.34005,4.90576 -3.80054,7.60611c-2.28267,2.5052 -8.35318,5.73251 -8.35318,5.73251z" data-paper-data="{&quot;origPos&quot;:null,&quot;origRot&quot;:0,&quot;index&quot;:null}" fill="#ff0000" stroke-width="0" stroke="none" transform="matrix(1,0,0,1,37.6103,23.26795)"/><path d="M332.4293,396.62225c0,0 1.16622,6.41579 2.21814,9.07024c1.27042,3.2058 3.73255,5.94591 3.73255,5.94591c0,0 -4.84988,-1.429 -7.49925,-3.9523c-2.45792,-2.34099 -5.58748,-8.51182 -5.58748,-8.51182z" data-paper-data="{&quot;origPos&quot;:null,&quot;index&quot;:null}" fill="#ff0000" stroke-width="0" stroke="none" transform="matrix(1,0,0,1,37.6103,23.26795)"/><path d="M325.22381,398.62896c0,0 -1.16622,-6.41579 -2.21814,-9.07024c-1.27042,-3.2058 -3.73255,-5.94591 -3.73255,-5.94591c0,0 4.84988,1.429 7.49925,3.9523c2.45791,2.34095 5.58748,8.51178 5.58748,8.51178z" data-paper-data="{&quot;origPos&quot;:null}" fill="#ff0000" stroke-width="0" stroke="none" transform="matrix(1,0,0,1,37.6103,23.26795)"/><path d="M330.77344,400.84707c0,0 -6.34472,1.25099 -8.96071,2.34256c-3.15933,1.3183 -5.83784,3.83248 -5.83784,3.83248c0,0 1.34005,-4.90576 3.80054,-7.60611c2.28267,-2.5052 8.35318,-5.73251 8.35318,-5.73251z" data-paper-data="{&quot;origPos&quot;:null,&quot;origRot&quot;:0}" fill="#ff0000" stroke-width="0" stroke="none" transform="matrix(1,0,0,1,37.6103,23.26795)"/><path d="M330.1205,401.18011c-2.02451,0.72403 -4.25133,-0.34483 -4.97374,-2.38739c-0.72241,-2.04253 0.33316,-4.28529 2.3577,-5.00933c2.02451,-0.72403 4.25133,0.34483 4.97374,2.38739c0.72241,2.04253 -0.33316,4.28529 -2.3577,5.00933z" data-paper-data="{&quot;origPos&quot;:null}" fill="url(#color-12)" stroke-width="0" stroke="none" transform="matrix(1,0,0,1,37.6103,23.26795)"/></g><g data-paper-data="{&quot;origPos&quot;:null,&quot;origRot&quot;:0}" stroke-linecap="butt"><path d="M379.52116,389.4114c0,0 6.02134,1.70088 8.75212,1.90569c3.29802,0.24736 6.696,-0.74702 6.696,-0.74702c0,0 -3.27234,3.64283 -6.5622,4.89327c-3.05213,1.16006 -9.68833,1.28336 -9.68833,1.28336z" data-paper-data="{&quot;origPos&quot;:null,&quot;origRot&quot;:0,&quot;index&quot;:null}" fill="#ff0000" stroke-width="0" stroke="none" transform="matrix(1,0,0,1,37.6103,23.26795)"/><path d="M382.7338,393.89086c0,0 -1.75768,6.04275 -1.99291,8.7923c-0.28404,3.32067 0.66227,6.76187 0.66227,6.76187c0,0 -3.57458,-3.35674 -4.77614,-6.69303c-1.11471,-3.09518 -1.15907,-9.78685 -1.15907,-9.78685z" data-paper-data="{&quot;origPos&quot;:null,&quot;index&quot;:null}" fill="#ff0000" stroke-width="0" stroke="none" transform="matrix(1,0,0,1,37.6103,23.26795)"/><path d="M375.64299,392.46457c0,0 1.75768,-6.04278 1.9929,-8.79233c0.28407,-3.32069 -0.66227,-6.76187 -0.66227,-6.76187c0,0 3.57458,3.35674 4.77614,6.69303c1.11471,3.09518 1.15907,9.78685 1.15907,9.78685z" data-paper-data="{&quot;origPos&quot;:null}" fill="#ff0000" stroke-width="0" stroke="none" transform="matrix(1,0,0,1,37.6103,23.26795)"/><path d="M379.48204,396.80826c0,0 -6.02134,-1.70088 -8.75212,-1.90569c-3.29802,-0.24736 -6.696,0.74702 -6.696,0.74702c0,0 3.27234,-3.64283 6.5622,-4.89327c3.05213,-1.16006 9.68833,-1.28336 9.68833,-1.28336z" data-paper-data="{&quot;origPos&quot;:null,&quot;origRot&quot;:0}" fill="#ff0000" stroke-width="0" stroke="none" transform="matrix(1,0,0,1,37.6103,23.26795)"/><path d="M382.97057,393.52301c-0.25617,2.0776 -2.1349,3.54897 -4.19625,3.28634c-2.06134,-0.26263 -3.5247,-2.15976 -3.2685,-4.23737c0.2562,-2.07761 2.13494,-3.54894 4.19628,-3.28632c2.06134,0.26263 3.5247,2.15976 3.2685,4.23737z" data-paper-data="{&quot;origPos&quot;:null}" fill="url(#color-13)" stroke-width="0" stroke="none" transform="matrix(1,0,0,1,37.6103,23.26795)"/></g><g data-paper-data="{&quot;origRot&quot;:0}"><path d="M 362.7407 360.8692 C 342.9041 352.5968 333.5859 329.6745 341.928 309.6709 C 350.27 289.6673 373.1133 280.1572 392.9499 288.4296 C 412.7865 296.702 422.1046 319.6242 413.7626 339.6278 C 405.4206 359.6315 382.5773 369.1415 362.7407 360.8692 Z " data-paper-data="{&quot;origPos&quot;:null}" fill="#d4d4d4" stroke="#000000" stroke-width="2.5" stroke-linecap="butt"/><path d="M332.69956,302.41966c-3.7784,-1.5757 -5.55329,-5.94183 -3.96434,-9.75205c1.58896,-3.81022 5.94006,-5.62166 9.71847,-4.04597c3.7784,1.5757 5.55329,5.94183 3.96434,9.75205c-1.58896,3.81022 -5.94006,5.62166 -9.71847,4.04597z" data-paper-data="{&quot;origPos&quot;:null}" fill="#000000" stroke="none" stroke-width="0" stroke-linecap="butt" transform="matrix(1,0,0,1,37.6103,23.26795)"/><path d="M318.58723,296.56096c-3.77839,-1.57569 -5.55329,-5.94184 -3.96434,-9.75205c1.58896,-3.81021 5.94008,-5.62166 9.71847,-4.04597c3.77839,1.57569 5.55329,5.94184 3.96434,9.75205c-1.58896,3.81021 -5.94008,5.62166 -9.71847,4.04597z" data-paper-data="{&quot;origPos&quot;:null}" fill="#000000" stroke="none" stroke-width="0" stroke-linecap="butt" transform="matrix(1,0,0,1,37.6103,23.26795)"/><path d="M 370.1841 308.4679 C 370.1841 308.4679 373.5911 311.8039 377.7073 311.852 C 379.4985 311.873 382.6569 318.6456 382.6569 318.6456 " data-paper-data="{&quot;origPos&quot;:null}" fill="none" stroke="#000000" stroke-width="2.5" stroke-linecap="round"/><path d="M 352.9088 307.1921 L 362.7998 304.4709 " data-paper-data="{&quot;origPos&quot;:null}" fill="none" stroke="#000000" stroke-width="2.5" stroke-linecap="round"/><path d="M336.84152,341.67232c-9.62046,-1.97088 -25.54602,-11.02093 -25.54602,-11.02093c0,0 -5.90657,-6.18095 -7.48464,-13.91064c-1.07233,-5.25249 -3.87183,-16.39287 -3.87183,-16.39287l0.40056,-6.55529l72.40251,30.19372l-14.39789,12.14602c0,0 -14.60216,6.95365 -21.50269,5.54z" data-paper-data="{&quot;origPos&quot;:null}" fill="#000000" stroke="none" stroke-width="0" stroke-linecap="butt" transform="matrix(1,0,0,1,37.6103,23.26795)"/><path d="M378.89083,288.45202l2.06324,16.64178l-69.84712,-29.12807l3.99377,-4.17945c0,0 9.19889,-4.8351 13.36445,-7.27607c6.13014,-3.5922 14.25068,-3.43824 14.25068,-3.43824c0,0 16.93294,4.96716 24.8839,10.05763c5.70305,3.65128 11.2911,17.32241 11.2911,17.32241z" data-paper-data="{&quot;origPos&quot;:null,&quot;index&quot;:null}" fill="#000000" stroke="none" stroke-width="0" stroke-linecap="butt" transform="matrix(1,0,0,1,37.6103,23.26795)"/><path d="M345.69431,313.71508l10.98516,-26.34166l22.79515,14.77709l-7.09075,22.69481z" data-paper-data="{&quot;origPos&quot;:null}" fill="#000000" stroke="none" stroke-width="0" stroke-linecap="butt" transform="matrix(1,0,0,1,37.6103,23.26795)"/></g></g><g data-paper-data="{&quot;origPos&quot;:null}"><g data-paper-data="{&quot;origPos&quot;:null,&quot;origRot&quot;:0}"><path d="M 470.9353 282.4261 L 504.7837 290.9482 " data-paper-data="{&quot;origPos&quot;:null}" fill="none" stroke="#6b6b6b" stroke-width="5" stroke-linecap="round"/><g><path d="M426.85647,300.764l-39.79208,-15.11713l58.65442,-154.3933l39.79208,15.11711z" data-paper-data="{&quot;origPos&quot;:null,&quot;origRot&quot;:0}" fill="#6b6b6b" stroke="none" stroke-width="0" stroke-linecap="butt" transform="matrix(1,0,0,1,37.6103,23.26795)"/><path d="M 406.1015 281.905 C 407.3642 276.8895 415.5955 274.6384 424.4866 276.8769 C 433.3776 279.1154 439.5616 284.996 438.2988 290.0114 C 437.0361 295.0269 428.8048 297.278 419.9137 295.0395 C 411.0227 292.801 404.8387 286.9205 406.1015 281.905 Z " fill="none" stroke="#6b6b6b" stroke-width="2" stroke-linecap="butt"/><path d="M 437.1981 289.7343 L 406.3767 281.9743 " data-paper-data="{&quot;origPos&quot;:null}" fill="none" stroke="#6b6b6b" stroke-width="2" stroke-linecap="round"/><path d="M 419.1584 293.9714 L 423.3156 277.46 " data-paper-data="{&quot;origPos&quot;:null}" fill="none" stroke="#6b6b6b" stroke-width="2" stroke-linecap="round"/></g></g><path d="M 570.6744 392.85 L 533.5935 334.2242 L 503.7183 223.6024 " data-paper-data="{&quot;origPos&quot;:null}" fill="none" stroke="#000000" stroke-width="3.5" stroke-linecap="round"/><path d="M 533.6354 332.2191 L 531.6594 403.5797 " data-paper-data="{&quot;origPos&quot;:null}" fill="none" stroke="#000000" stroke-width="3.5" stroke-linecap="round"/><path d="M 502.8076 228.098 C 479.8393 234.3009 456.1913 220.7099 449.9884 197.7416 C 443.7854 174.7734 457.3764 151.1254 480.3447 144.9225 C 503.313 138.7195 526.9609 152.3105 533.1639 175.2788 C 539.3668 198.247 525.7758 221.895 502.8076 228.098 Z " data-paper-data="{&quot;origPos&quot;:null}" fill="#d4d4d4" stroke="#000000" stroke-width="2.5" stroke-linecap="butt"/><path d="M427.20159,159.81947c-4.37492,1.18152 -8.87928,-1.40724 -10.0608,-5.78215c-1.18152,-4.37492 1.40724,-8.87929 5.78215,-10.0608c4.37492,-1.18152 8.87928,1.40724 10.0608,5.78216c1.18152,4.37492 -1.40724,8.87928 -5.78215,10.0608z" data-paper-data="{&quot;origPos&quot;:null}" fill="#000000" stroke="none" stroke-width="0" stroke-linecap="butt" transform="matrix(1,0,0,1,37.6103,23.26795)"/><path d="M 509.5556 236.7064 C 509.5556 236.7064 518.494 244.8922 524.7257 256.2023 C 530.2368 266.2046 539.6451 291.3167 539.6451 291.3167 " data-paper-data="{&quot;origPos&quot;:null}" fill="none" stroke="#000000" stroke-width="3.5" stroke-linecap="round"/><path d="M 487.4561 287.8731 C 487.4561 287.8731 488.2731 272.8029 491.3562 264.4372 C 495.4925 253.2139 505.9549 237.6788 505.9549 237.6788 " data-paper-data="{&quot;origPos&quot;:null,&quot;index&quot;:null}" fill="none" stroke="#000000" stroke-width="3.5" stroke-linecap="round"/><g data-paper-data="{&quot;origPos&quot;:null}"><path d="M404.5324,142.83245c0,0 6.38436,-40.7782 32.7877,-44.16426c16.57513,-2.12567 28.20464,-5.7204 41.79601,4.00213c10.5417,7.54095 22.24525,31.86144 22.24525,31.86144z" data-paper-data="{&quot;origPos&quot;:null,&quot;origRot&quot;:0}" fill="#009927" stroke-width="0" stroke-linecap="butt" stroke="#009927" transform="matrix(1,0,0,1,37.6103,23.26795)"/><path d="M 501.1492 232.6211 L 504.8362 159.6759 " data-paper-data="{&quot;origPos&quot;:null}" fill="none" stroke-width="3" stroke-linecap="round" stroke="#009927"/></g><path d="M445.7016,162.31947c-4.37492,1.18152 -8.87928,-1.40724 -10.0608,-5.78215c-1.18152,-4.37492 1.40724,-8.87929 5.78215,-10.0608c4.37492,-1.18152 8.87928,1.40724 10.0608,5.78216c1.18152,4.37492 -1.40724,8.87928 -5.78215,10.0608z" data-paper-data="{&quot;origPos&quot;:null}" fill="#000000" stroke="none" stroke-width="0" stroke-linecap="butt" transform="matrix(1,0,0,1,37.6103,23.26795)"/><path d="M 454.1053 167.1397 L 470.1053 167.1397 " data-paper-data="{&quot;origPos&quot;:null}" fill="none" stroke="#000000" stroke-width="2.5" stroke-linecap="round"/><path d="M 473.6053 166.6397 C 473.6053 166.6397 478.7881 164.6397 482.1053 164.6397 C 485.0323 164.6397 489.6053 166.6397 489.6053 166.6397 " data-paper-data="{&quot;origPos&quot;:null}" fill="none" stroke="#000000" stroke-width="2.5" stroke-linecap="round"/></g><g data-paper-data="{&quot;origPos&quot;:null,&quot;index&quot;:null,&quot;origRot&quot;:0}"><path d="M 376.2062 148.2278 L 386.7558 244.8073 L 414.1029 265.5853 L 379.5355 281.3483 " data-paper-data="{&quot;origPos&quot;:null}" fill="none" stroke="#2bbbe3" stroke-width="5" stroke-linecap="round"/><path d="M 375.1243 149.9091 C 355.0716 152.0995 337.04 137.6192 334.8496 117.5665 C 332.6592 97.5139 347.1395 79.4823 367.1921 77.2919 C 387.2448 75.1015 405.2764 89.5817 407.4668 109.6344 C 409.6572 129.6871 395.1769 147.7187 375.1243 149.9091 Z " data-paper-data="{&quot;origPos&quot;:null}" fill="#cbffff" stroke="#2bbbe3" stroke-width="3.5" stroke-linecap="butt"/><path d="M 402.9556 276.6719 L 363.4404 270.312 L 386.813 242.7147 " data-paper-data="{&quot;origPos&quot;:null}" fill="none" stroke="#2bbbe3" stroke-width="5" stroke-linecap="round"/><path d="M 379.3813 159.9693 C 379.3813 159.9693 393.6117 175.4667 400.5153 185.6267 C 404.2131 191.0685 397.7424 201.78 397.7424 201.78 " data-paper-data="{&quot;origPos&quot;:null}" fill="none" stroke="#2bbbe3" stroke-width="5" stroke-linecap="round"/><path d="M 376.2378 160.3128 C 376.2378 160.3128 372.6691 181.0633 367.5491 193.9108 C 365.686 198.5859 355.8913 204.028 355.8913 204.028 " data-paper-data="{&quot;origPos&quot;:null,&quot;index&quot;:null}" fill="none" stroke="#2bbbe3" stroke-width="5" stroke-linecap="round"/><path d="M330.89719,89.13166c-3.02696,0.33064 -5.74884,-1.85516 -6.07948,-4.88212c-0.33064,-3.02696 1.85516,-5.74884 4.88212,-6.07948c3.02696,-0.33064 5.74884,1.85516 6.07948,4.88212c0.33064,3.02696 -1.85516,5.74884 -4.88212,6.07948z" data-paper-data="{&quot;origPos&quot;:null}" fill="#6db3c6" stroke="none" stroke-width="0" stroke-linecap="butt" transform="matrix(1,0,0,1,37.6103,23.26795)"/><path d="M 361.5819 101.7681 L 374.464 97.2338 " data-paper-data="{&quot;origPos&quot;:null,&quot;origRot&quot;:0}" fill="none" stroke="#6db3c6" stroke-width="3.5" stroke-linecap="round"/><path d="M 343.8856 101.0898 L 354.8903 102.3843 " data-paper-data="{&quot;origPos&quot;:null,&quot;origRot&quot;:0}" fill="none" stroke="#6db3c6" stroke-width="3.5" stroke-linecap="round"/><path d="M313.41115,91.24917c-3.02696,0.33064 -5.74884,-1.85515 -6.07948,-4.88212c-0.33064,-3.02696 1.85516,-5.74884 4.88212,-6.07948c3.02697,-0.33064 5.74884,1.85515 6.07948,4.88212c0.33064,3.02696 -1.85515,5.74884 -4.88212,6.07948z" data-paper-data="{&quot;origPos&quot;:null}" fill="#6db3c6" stroke="none" stroke-width="0" stroke-linecap="butt" transform="matrix(1,0,0,1,37.6103,23.26795)"/><path d="M 356.313 83.5486 C 362.0061 82.9268 366.9953 85.8468 367.4567 90.0707 C 367.918 94.2945 363.6769 98.2228 357.9838 98.8447 C 352.2908 99.4665 347.3016 96.5465 346.8402 92.3226 C 346.3788 88.0988 350.62 84.1705 356.313 83.5486 Z " data-paper-data="{&quot;origPos&quot;:null}" fill="#cbffff" stroke="#6db3c6" stroke-width="2.5" stroke-linecap="butt"/><path d="M321.94601,68.25386c0.3009,2.7547 -1.68829,5.23177 -4.443,5.53267c-2.75472,0.3009 -5.23178,-1.68831 -5.53269,-4.44302c-0.3009,-2.75472 1.68831,-5.23178 4.44302,-5.53269c2.7547,-0.3009 5.23177,1.6883 5.53267,4.443z" data-paper-data="{&quot;origPos&quot;:null}" fill="#6db3c6" stroke="none" stroke-width="0" stroke-linecap="butt" transform="matrix(1,0,0,1,37.6103,23.26795)"/><path d="M 343.0407 201.5509 L 364.8909 191.3275 L 362.7249 215.1474 Z " data-paper-data="{&quot;origPos&quot;:null,&quot;origRot&quot;:0}" fill="none" stroke="#63ddff" stroke-width="3.5" stroke-linecap="butt"/><path d="M 353.61 130.7144 C 353.61 130.7144 358.689 129.82 361.9633 129.4624 C 365.3685 129.0904 370.7254 128.8449 370.7254 128.8449 " data-paper-data="{&quot;origPos&quot;:null}" fill="none" stroke="#6db3c6" stroke-width="3.5" stroke-linecap="round"/><path d="M 413.8131 207.9978 L 389.7135 209.0713 L 400.8387 187.8981 Z " data-paper-data="{&quot;origPos&quot;:null,&quot;origRot&quot;:0}" fill="none" stroke="#63ddff" stroke-width="3.5" stroke-linecap="butt"/></g><text transform="matrix(1.10263,0,0,1.10263,48.664390000000004,67.14806)" font-size="40" xml:space="preserve" data-paper-data="{&quot;origPos&quot;:null}" fill="#c80000" fill-rule="nonzero" stroke="#ff0000" stroke-width="2" stroke-linecap="butt" stroke-linejoin="miter" stroke-miterlimit="10" stroke-dasharray="" stroke-dashoffset="0" font-family="Serif" font-weight="normal" text-anchor="start" style="mix-blend-mode: normal"><tspan x="0" dy="0">TWO PLAYER BATTLE</tspan></text></g></g></svg>