<svg version="1.1" xmlns="http://www.w3.org/2000/svg" xmlns:xlink="http://www.w3.org/1999/xlink" width="502" height="485.63096" viewBox="0,0,502,485.63096"><defs><radialGradient cx="237.27872" cy="288.41599" r="251" gradientUnits="userSpaceOnUse" id="color-1"><stop offset="0" stop-color="#35c742"/><stop offset="1" stop-color="#303147"/></radialGradient><linearGradient x1="239.50008" y1="-4" x2="239.50008" y2="89" gradientUnits="userSpaceOnUse" id="color-2"><stop offset="0" stop-color="#262626"/><stop offset="1" stop-color="#262626" stop-opacity="0"/></linearGradient><radialGradient cx="268.5442" cy="217.96311" r="21.66287" gradientUnits="userSpaceOnUse" id="color-3"><stop offset="0" stop-color="#959595"/><stop offset="1" stop-color="#959595" stop-opacity="0"/></radialGradient><linearGradient x1="431.04303" y1="196.78387" x2="453.58972" y2="213.89752" gradientUnits="userSpaceOnUse" id="color-4"><stop offset="0" stop-color="#a96b6b"/><stop offset="1" stop-color="#d8d8d8"/></linearGradient><linearGradient x1="437.46769" y1="151.52379" x2="404.62193" y2="147.24877" gradientUnits="userSpaceOnUse" id="color-5"><stop offset="0" stop-color="#795636" stop-opacity="0"/><stop offset="1" stop-color="#795636"/></linearGradient><linearGradient x1="430.66072" y1="162.55518" x2="397.81495" y2="158.28017" gradientUnits="userSpaceOnUse" id="color-6"><stop offset="0" stop-color="#795636" stop-opacity="0"/><stop offset="1" stop-color="#795636"/></linearGradient><radialGradient cx="423.59796" cy="129.77303" r="23.21926" gradientUnits="userSpaceOnUse" id="color-7"><stop offset="0" stop-color="#9c8066"/><stop offset="1" stop-color="#9c8066" stop-opacity="0"/></radialGradient><linearGradient x1="400.5729" y1="126.77622" x2="446.62302" y2="132.76984" gradientUnits="userSpaceOnUse" id="color-8"><stop offset="0" stop-color="#000000" stop-opacity="0"/><stop offset="1" stop-color="#000000" stop-opacity="0"/></linearGradient></defs><g transform="translate(17.06392,4)"><g data-paper-data="{&quot;isPaintingLayer&quot;:true}" fill-rule="nonzero" stroke-linejoin="miter" stroke-miterlimit="10" stroke-dasharray="" stroke-dashoffset="0" style="mix-blend-mode: normal"><path d="M-17.06392,364.81123v-368.53591h502v368.53591z" data-paper-data="{&quot;origPos&quot;:null}" fill="url(#color-1)" stroke="none" stroke-width="NaN" stroke-linecap="butt"/><path d="M-4.49997,89v-93h488v93z" fill="url(#color-2)" stroke="none" stroke-width="0" stroke-linecap="butt"/><text transform="translate(10.80415,48.57864) scale(1.10263,1.10263)" font-size="40" xml:space="preserve" fill="#db2121" fill-rule="nonzero" stroke="#e43434" stroke-width="2" stroke-linecap="butt" stroke-linejoin="miter" stroke-miterlimit="10" stroke-dasharray="" stroke-dashoffset="0" font-family="Serif" font-weight="normal" text-anchor="start" style="mix-blend-mode: normal"><tspan x="0" dy="0">TWO PLAYER BATTLE</tspan></text><g><path d="M286.72908,273.238c0,0 -19.5659,4.05416 -28.31707,6.96179c-8.35264,2.77551 -19.75646,-14.10513 -19.75646,-14.10513" data-paper-data="{&quot;index&quot;:null}" fill="none" stroke="#000000" stroke-width="5" stroke-linecap="round"/><g><path d="M238.15523,271.72128l92.77881,-10.17523" fill="none" stroke="#ab5b00" stroke-width="4.5" stroke-linecap="round"/><path d="M332.08679,245.50529c8.85263,-1.01856 28.63659,-0.56027 29.96336,12.12744c1.32677,12.68771 -17.78882,18.62117 -26.64144,19.63975c-8.85261,1.01856 -9.47566,-6.3478 -10.49424,-15.20041c-1.01856,-8.85263 -1.68029,-15.54822 7.1723,-16.5668z" fill="#989898" stroke="#000000" stroke-width="0" stroke-linecap="butt"/></g><path d="M321.9817,281.29521c0,0 -20.7893,23.50625 -21.79585,15.80614c-1.17906,-9.01822 -10.65184,-22.70677 -10.65184,-22.70677" data-paper-data="{&quot;index&quot;:null}" fill="none" stroke="#000000" stroke-width="5" stroke-linecap="round"/><path d="M289.47704,257.04809l-7.67299,123.8347l-26.60641,70.24162" fill="none" stroke="#000000" stroke-width="5" stroke-linecap="round"/><path d="M299.74365,454.15017l-17.59027,-75.27043" fill="none" stroke="#000000" stroke-width="5" stroke-linecap="round"/><path d="M247.74873,212.17958c1.59313,-25.71161 23.72802,-45.26353 49.43963,-43.67039c25.71162,1.59313 45.26353,23.72802 43.67041,49.43963c-1.59313,25.71161 -23.72803,45.26353 -49.43965,43.6704c-25.71162,-1.59313 -45.26353,-23.72803 -43.67039,-49.43964z" fill="#d4d4d4" stroke="#000000" stroke-width="5" stroke-linecap="butt"/><g stroke="none" stroke-width="0" stroke-linecap="butt"><path d="M327.98464,274.03584c1.69402,-3.49016 9.38275,-3.25414 17.17327,0.52715c7.79052,3.78129 12.73269,9.67597 11.0387,13.1661c-1.69402,3.49016 -9.38275,3.25414 -17.17327,-0.52715c-7.79052,-3.78129 -12.73269,-9.67596 -11.03871,-13.1661z" fill="#d70000"/><path d="M305.13209,277.16603l13.60235,-7.34112l46.71899,22.67601l0.16509,14.02343z" fill="#561616"/></g><path d="M246.92282,216.62341c0.73989,-11.94118 11.01992,-21.0216 22.9611,-20.2817c11.94118,0.73989 21.0216,11.01992 20.2817,22.9611c-0.73989,11.94118 -11.01992,21.02161 -22.9611,20.28172c-11.94118,-0.73989 -21.0216,-11.01992 -20.2817,-22.96111z" fill="url(#color-3)" stroke="none" stroke-width="0" stroke-linecap="butt"/><path d="M286.86194,203.47607c0.30346,-4.89746 4.51963,-8.62162 9.41708,-8.31818c4.89745,0.30346 8.62162,4.51962 8.31818,9.41708c-0.30346,4.89746 -4.51963,8.62162 -9.41708,8.31818c-4.89746,-0.30346 -8.62162,-4.51962 -8.31818,-9.41708z" fill="#000000" stroke="none" stroke-width="0" stroke-linecap="butt"/><path d="M311.98685,205.03285c0.30346,-4.89744 4.51964,-8.62162 9.41708,-8.31818c4.89744,0.30346 8.62162,4.51964 8.31818,9.41708c-0.30346,4.89744 -4.51964,8.62162 -9.41708,8.31818c-4.89744,-0.30346 -8.62162,-4.51964 -8.31818,-9.41708z" fill="#000000" stroke="none" stroke-width="0" stroke-linecap="butt"/></g><g><path d="M117.94467,355.22922l-31.3003,-65.26023l-17.51292,-118.26709" fill="none" stroke="#000000" stroke-width="4.5" stroke-linecap="round"/><path d="M74.13729,361.36277l10.72172,-73.70965" fill="none" stroke="#000000" stroke-width="4.5" stroke-linecap="round"/><path d="M67.64127,176.24991c-24.55564,3.63618 -47.40963,-13.32238 -51.04581,-37.87802c-3.63618,-24.55564 13.3224,-47.40962 37.87803,-51.0458c24.55564,-3.63618 47.40962,13.3224 51.0458,37.87803c3.63618,24.55564 -13.32239,47.40962 -37.87802,51.0458z" fill="#d4d4d4" stroke="#000000" stroke-width="4" stroke-linecap="butt"/><path d="M85.42164,126.3285c-4.67727,0.69261 -9.03041,-2.5376 -9.72301,-7.21488c-0.69261,-4.67727 2.5376,-9.0304 7.21486,-9.723c4.67727,-0.69261 9.03041,2.53759 9.72301,7.21485c0.69261,4.67727 -2.5376,9.03041 -7.21488,9.72303z" fill="#000000" stroke="none" stroke-width="0" stroke-linecap="butt"/><path d="M61.42631,129.88171c-4.67725,0.6926 -9.03041,-2.53761 -9.72303,-7.21488c-0.6926,-4.67725 2.53762,-9.0304 7.21488,-9.723c4.67725,-0.6926 9.03041,2.5376 9.72301,7.21485c0.6926,4.67725 -2.53761,9.03041 -7.21486,9.72303z" fill="#000000" stroke="none" stroke-width="0" stroke-linecap="butt"/><path d="M75.65899,113.01625l13.26196,-5.11227" fill="none" stroke="#000000" stroke-width="2.5" stroke-linecap="round"/><path d="M66.89959,114.80922l-15.03548,-1.59476" fill="none" stroke="#000000" stroke-width="2.5" stroke-linecap="round"/><path d="M69.84064,185.5196c0,0 -1.15635,32.26334 -7.6936,35.92191c-13.00526,7.27835 -35.18171,23.25277 -35.18171,23.25277" data-paper-data="{&quot;index&quot;:null}" fill="none" stroke="#000000" stroke-width="4.5" stroke-linecap="round"/><path d="M52.43103,82.22983c26.441,-3.91537 48.6099,-2.13121 49.51559,3.98503c0.90569,6.11624 -19.79477,14.24848 -46.2358,18.16385c-26.44102,3.91537 -48.6099,2.13121 -49.5156,-3.98504c-0.90569,-6.11624 19.79477,-14.24847 46.2358,-18.16384z" fill="#c1a875" stroke="#000000" stroke-width="0" stroke-linecap="butt"/><path d="M29.8703,80.28022c-1.90035,-12.83329 42.75982,-19.44654 44.66016,-6.61325c1.90035,12.83328 -6.55666,24.71714 -18.88922,26.54333c-12.33257,1.82619 -23.87062,-7.09679 -25.77097,-19.93008z" fill="#c1a875" stroke="none" stroke-width="0" stroke-linecap="butt"/><path d="M62.02358,91.30348c-0.77686,1.67456 -4.68073,5.15048 -4.68073,5.15048l-15.62394,-7.24826l4.92879,-10.6243l15.62397,7.24826c0,0 0.60991,3.62434 -0.24808,5.4738z" fill="#a99367" stroke="none" stroke-width="0" stroke-linecap="butt"/><path d="M47.5929,79.40775c2.69554,0.93674 4.01603,4.18437 2.94937,7.25379c-1.06665,3.06942 -4.11652,4.79833 -6.81206,3.8616c-2.69554,-0.93674 -4.01603,-4.18437 -2.94937,-7.25379c1.06665,-3.06942 4.11651,-4.79832 6.81205,-3.8616z" fill="#ffde9c" stroke="none" stroke-width="0" stroke-linecap="butt"/><path d="M47.05143,87.93085c-0.8787,0.13012 -1.00881,-0.74858 -1.00881,-0.74858l-0.02922,-0.83756c0.1762,-0.52696 0.30053,-1.07617 0.3512,-1.62949c0,0 0.08689,-0.88402 0.9709,-0.79712c0.884,0.08688 0.79712,0.9709 0.79712,0.9709c-0.07061,0.68122 -0.22096,1.35704 -0.43098,2.0089l0.09839,0.02417c0,0 0.13012,0.8787 -0.74858,1.0088z" fill="#eccb8e" stroke="none" stroke-width="0.5" stroke-linecap="butt"/><path d="M43.64466,84.25229c-0.48528,0.07186 -0.93694,-0.26329 -1.0088,-0.74858c-0.07186,-0.48528 0.26328,-0.93696 0.74858,-1.00881c0.48528,-0.07186 0.93696,0.26328 1.00883,0.74859c0.07186,0.48528 -0.2633,0.93696 -0.74859,1.00881z" fill="#eccb8e" stroke="none" stroke-width="0.5" stroke-linecap="butt"/><path d="M43.89882,88.41913l0.11706,-0.05608c-0.05317,-0.35905 -0.10633,-0.71812 -0.15951,-1.07717c0,0 -0.13012,-0.8787 0.74858,-1.0088c0.8787,-0.13012 1.00883,0.74858 1.00883,0.74858c0.05317,0.35905 0.10633,0.71812 0.15951,1.07717l-0.18621,0.86946c0,0 -0.2766,0.84414 -1.12071,0.56755c-0.84412,-0.27659 -0.56754,-1.1207 -0.56754,-1.1207z" fill="#eccb8e" stroke="none" stroke-width="0.5" stroke-linecap="butt"/><path d="M46.59695,83.37481c-0.48528,0.07186 -0.93696,-0.26328 -1.00881,-0.74858c-0.07186,-0.48528 0.26329,-0.93696 0.74858,-1.00881c0.48528,-0.07186 0.93696,0.26329 1.00883,0.74858c0.07186,0.48528 -0.2633,0.93694 -0.74859,1.0088z" fill="#eccb8e" stroke="none" stroke-width="0.5" stroke-linecap="butt"/><path d="M54.2896,91.11139c-0.80331,-0.37914 -0.42415,-1.18244 -0.42415,-1.18244l0.25444,-0.41785c0.02927,-0.29788 0.05856,-0.59576 0.08783,-0.89364c0,0 0.0869,-0.884 0.9709,-0.79712c0.884,0.08688 0.79712,0.97089 0.79712,0.97089c-0.02927,0.29788 -0.05856,0.59576 -0.08783,0.89364l-0.41589,1.00238c0,0 -0.37914,0.80329 -1.18244,0.42415z" fill="#eccb8e" stroke="none" stroke-width="0.5" stroke-linecap="butt"/><path d="M56.2984,85.92251c0.27659,-0.84412 1.12069,-0.56755 1.12069,-0.56755l0.63351,0.22834c0.5314,0.32193 1.11817,0.63055 1.738,0.67347c0,0 0.88402,0.08688 0.79712,0.9709c-0.08689,0.88402 -0.9709,0.79712 -0.9709,0.79712c-0.86763,-0.10176 -1.69854,-0.47652 -2.45888,-0.90667l-0.29205,-0.07494c0,0 -0.84412,-0.27658 -0.56754,-1.1207z" fill="#eccb8e" stroke="none" stroke-width="0.5" stroke-linecap="butt"/><path d="M50.6542,91.56307l-0.19141,-1.29261c-0.0638,-0.43087 -0.1276,-0.86174 -0.19141,-1.29262c0,0 -0.13012,-0.8787 0.74858,-1.0088c0.8787,-0.13012 1.0088,0.74858 1.0088,0.74858c0.0638,0.43087 0.31901,2.15434 0.38282,2.58523c0,0 0.13012,0.8787 -0.74858,1.00881c-0.8787,0.13012 -1.0088,-0.74858 -1.0088,-0.74858z" fill="#eccb8e" stroke="none" stroke-width="0.5" stroke-linecap="butt"/><path d="M49.32025,74.80832c7.5115,-1.1123 14.43648,3.62973 15.46739,10.5916c1.03091,6.96188 -4.22262,13.50729 -11.73413,14.61958c-7.5115,1.1123 -14.43649,-3.62973 -15.4674,-10.5916c-1.03091,-6.96188 4.22264,-13.50729 11.73414,-14.61958z" fill="none" stroke="#ff0000" stroke-width="1" stroke-linecap="butt"/><path d="M55.59837,75.23465l-9.20787,23.28549" fill="none" stroke="#ff0000" stroke-width="1" stroke-linecap="round"/><g><path d="M75.66827,211.89905c-1.91839,-2.24112 -1.58409,-5.67527 0.74667,-7.67042c2.33075,-1.99513 5.77539,-1.79573 7.69378,0.4454c1.91839,2.24112 1.58409,5.67527 -0.74665,7.67041c-2.33075,1.99513 -5.77539,1.79573 -7.69379,-0.4454z" fill="none" stroke="#62512d" stroke-width="2" stroke-linecap="butt"/><path d="M79.8007,209.03493l0.55684,-3.16962" fill="none" stroke="#888888" stroke-width="1.5" stroke-linecap="round"/><path d="M106.97761,220.89199l-35.83699,-18.13159l3.25806,-11.41726l35.83696,18.13159z" fill="#bd9c57" stroke="#000000" stroke-width="0.5" stroke-linecap="butt"/><path d="M6.10032,256.36027l-10.12434,-13.73884l77.77499,-52.33744l10.12436,13.73883z" fill="#bd9c57" stroke="#000000" stroke-width="0.5" stroke-linecap="butt"/><path d="M78.83557,204.84527c-0.3127,-0.42429 -0.5519,-0.8722 -0.71865,-1.32474c-0.50877,-0.41661 -1.00589,-0.84746 -1.46791,-1.32117c-0.49192,-0.50436 -0.51863,-1.6589 -1.14284,-1.76789c-0.63952,-0.11168 -0.60424,1.01649 -1.04184,1.38644c-0.90813,0.76771 -1.9762,1.33351 -2.96431,2.00026l-0.28178,0.18963c0,0 -2.92881,1.97086 -5.55948,-1.59895c-2.63066,-3.56983 0.29816,-5.54072 0.29816,-5.54072l0.28181,-0.18963c1.96128,-1.31648 6.41647,-4.68072 8.89896,-4.26999c1.41611,0.2343 7.28531,5.38564 8.98657,6.82958c0,0 3.22042,2.73339 1.43499,5.58149c-0.19321,0.6625 -0.58286,1.23346 -1.16415,1.62463c-1.61752,1.08849 -4.10659,0.37263 -5.55948,-1.59895z" fill="#bd9c57" stroke="none" stroke-width="0.5" stroke-linecap="butt"/><path d="M74.64864,198.47559c-0.57765,-0.67479 0.09717,-1.25244 0.09717,-1.25244l0.2154,0.15811c0.10855,-0.83794 0.55432,-1.66915 1.1684,-2.2495c0,0 0.67481,-0.57763 1.25244,0.09718c0.57765,0.67479 -0.09718,1.25243 -0.09718,1.25243c-0.32093,0.22467 -0.56371,0.6457 -0.55245,1.03728l-0.83136,1.05412c0,0 -0.67483,0.57763 -1.25244,-0.09718z" fill="#947a44" stroke="none" stroke-width="0.5" stroke-linecap="butt"/><path d="M65.98475,204.90498c-0.8856,-0.06873 -0.8169,-0.95434 -0.8169,-0.95434l0.16191,-0.87452c0.41492,-0.67615 0.93228,-1.30129 1.52987,-1.82302c0,0 0.67483,-0.57763 1.25245,0.09719c0.57765,0.67479 -0.09717,1.25243 -0.09717,1.25243c-0.46355,0.38658 -0.85779,0.86733 -1.16238,1.38842l0.08656,0.09689c0,0 -0.06873,0.8856 -0.95434,0.8169z" fill="#947a44" stroke="none" stroke-width="0.5" stroke-linecap="butt"/><path d="M42.00545,221.2399c-0.46001,-0.75989 0.29987,-1.21989 0.29987,-1.21989l0.69641,-0.37023c4.16288,-0.96723 6.75976,-0.53608 9.72467,-3.12458c0,0 0.67483,-0.57765 1.25244,0.09717c0.57764,0.67481 -0.09719,1.25244 -0.09719,1.25244c-3.3275,2.77496 -6.04279,2.47296 -10.47747,3.50536l-0.17881,0.15958c0,0 -0.75989,0.46 -1.2199,-0.29985z" fill="#947a44" stroke="none" stroke-width="0.5" stroke-linecap="butt"/><path d="M21.13102,239.37887c0.06873,-0.8856 0.95434,-0.8169 0.95434,-0.8169l0.88381,0.0729c0.38188,-0.04749 0.76377,-0.09498 1.14565,-0.14245c0,0 0.8819,-0.10632 0.98821,0.77556c0.10632,0.8819 -0.77557,0.9882 -0.77557,0.9882c-0.44016,0.05161 -0.88033,0.10321 -1.32049,0.15483l-1.05898,-0.07782c0,0 -0.88562,-0.0687 -0.81693,-0.95432z" fill="#947a44" stroke="none" stroke-width="0.5" stroke-linecap="butt"/><path d="M29.30376,227.39524c0.88562,0.0687 0.8169,0.95434 0.8169,0.95434l-0.24851,-0.16066c0.51997,0.75938 0.58722,1.92017 0.19752,2.75392c0,0 -0.45753,0.76137 -1.2189,0.30386c-0.76138,-0.45753 -0.30387,-1.2189 -0.30387,-1.2189c0.16785,-0.15434 0.17031,-0.5649 -0.02438,-0.68361l-0.17312,-1.13204c0,0 0.06874,-0.88561 0.95434,-0.8169z" fill="#947a44" stroke="none" stroke-width="0.5" stroke-linecap="butt"/><path d="M15.79705,239.06795l0.78505,-0.67199c0.46355,-0.38658 0.85779,-0.86732 1.16238,-1.38841c0,0 0.45754,-0.7614 1.21891,-0.30389c0.76138,0.45753 0.30387,1.2189 0.30387,1.2189c-0.41492,0.67615 -0.93229,1.3013 -1.52988,1.82302l-0.78508,0.67202c0,0 -0.67479,0.57763 -1.25243,-0.09719c-0.57765,-0.67479 0.09717,-1.25244 0.09717,-1.25244z" fill="#947a44" stroke="none" stroke-width="0.5" stroke-linecap="butt"/><path d="M4.68073,248.76578c-0.8856,-0.06874 -0.81691,-0.95435 -0.81691,-0.95435l0.24851,0.16066c-1.19918,-1.49385 -1.04428,-2.90172 -1.10688,-4.77072c0,0 -0.02952,-0.8878 0.85829,-0.91731c0.88781,-0.0295 0.9173,0.85828 0.9173,0.85828c0.04281,1.29837 -0.24983,2.69802 0.68094,3.67447l0.17311,1.13204c0,0 -0.06873,0.88562 -0.95433,0.81691z" fill="#947a44" stroke="none" stroke-width="0.5" stroke-linecap="butt"/><path d="M38.94434,225.9445c0.8856,0.06873 0.8169,0.95434 0.8169,0.95434l-0.09779,1.11234c-0.40167,0.93513 -0.90903,1.87997 -1.66935,2.55654c0,0 -0.67483,0.57765 -1.25244,-0.09717c-0.57765,-0.67483 0.09718,-1.25245 0.09718,-1.25245c0.5089,-0.41096 0.85024,-1.02099 1.09825,-1.62628l0.05292,-0.83042c0,0 0.06874,-0.8856 0.95434,-0.81689z" fill="#947a44" stroke="none" stroke-width="0.5" stroke-linecap="butt"/><path d="M47.84132,215.66692l-0.74738,0.18632c-1.4525,0.36044 -2.32942,0.23795 -3.41181,1.2302c0,0 -0.67483,0.57764 -1.25245,-0.09717c-0.57765,-0.67483 0.09717,-1.25244 0.09717,-1.25244c1.44755,-1.18179 2.36377,-1.16005 4.13734,-1.60438l0.74738,-0.18631c0,0 0.86189,-0.21487 1.07677,0.64702c0.21488,0.86189 -0.64701,1.07677 -0.64701,1.07677z" fill="#947a44" stroke="none" stroke-width="0.5" stroke-linecap="butt"/><path d="M59.30379,210.96626c-0.67479,0.57765 -1.25244,-0.09718 -1.25244,-0.09718l-0.896,-1.04676c-0.29866,-0.34891 -0.59734,-0.69784 -0.896,-1.04676c0,0 -0.57765,-0.67483 0.09717,-1.25244c0.6748,-0.57766 1.25244,0.09717 1.25244,0.09717c0.29866,0.34891 1.49337,1.7446 1.79204,2.09351c0,0 0.57761,0.67483 -0.09718,1.25245z" fill="#947a44" stroke="none" stroke-width="0.5" stroke-linecap="butt"/><path d="M70.46304,205.68596c0.57764,0.67481 -0.09717,1.25244 -0.09717,1.25244l-0.52338,0.44801c-1.11676,0.9194 -2.21868,1.06567 -3.53191,1.60301c0,0 -0.82285,0.33458 -1.15746,-0.48825c-0.33457,-0.82284 0.48825,-1.15746 0.48825,-1.15746c1.09441,-0.44254 2.16691,-0.50984 3.04585,-1.30695l0.52338,-0.44801c0,0 0.67483,-0.57764 1.25244,0.09717z" fill="#947a44" stroke="none" stroke-width="0.5" stroke-linecap="butt"/><path d="M103.5641,210.06824l-0.00075,0.38463c1.61159,2.03991 1.00691,2.8874 -0.21488,4.92068c0,0 -0.45753,0.76138 -1.21891,0.30387c-0.7614,-0.45754 -0.30389,-1.21891 -0.30389,-1.21891c0.79308,-1.31981 1.55185,-1.65738 0.38804,-2.85038l-0.3734,-1.11013c0,0 -0.21488,-0.86192 0.64701,-1.07679c0.86189,-0.21487 1.07677,0.64702 1.07677,0.64702z" fill="#947a44" stroke="none" stroke-width="0.5" stroke-linecap="butt"/><path d="M93.43279,211.80011c-0.21487,-0.86189 0.64701,-1.07677 0.64701,-1.07677l1.20332,-0.17937c1.23128,0.34716 2.00488,0.67265 3.27646,0.4985c0,0 0.88187,-0.10632 0.9882,0.77557c0.10632,0.8819 -0.77557,0.98821 -0.77557,0.98821c-1.52962,0.16551 -2.50806,-0.13987 -3.9712,-0.55241l-0.29145,0.19328c0,0 -0.86188,0.21488 -1.07677,-0.64701z" fill="#947a44" stroke="none" stroke-width="0.5" stroke-linecap="butt"/><path d="M86.54648,203.0633c-0.6748,0.57766 -1.25244,-0.09717 -1.25244,-0.09717l-0.34395,-0.44258c-0.39833,-0.83834 -0.697,-1.78062 -0.64983,-2.70758c0,0 0.06874,-0.88561 0.95435,-0.81692c0.88562,0.0687 0.8169,0.95434 0.8169,0.95434c-0.074,0.60797 0.17975,1.23639 0.46811,1.7767l0.10406,0.08078c0,0 0.57763,0.67483 -0.09717,1.25244z" fill="#604f2c" stroke="none" stroke-width="0.5" stroke-linecap="butt"/><path d="M72.18103,202.93873c-0.33459,-0.82284 0.48825,-1.15746 0.48825,-1.15746l1.20706,-0.46518c0.59962,0.04654 1.23158,-0.03866 1.78243,-0.28009c0,0 0.82286,-0.33458 1.15747,0.48825c0.33457,0.82284 -0.48825,1.15746 -0.48825,1.15746c-0.68835,0.26524 -1.44298,0.44688 -2.17846,0.38981l-0.81108,0.35546c0,0 -0.82286,0.33459 -1.15747,-0.48825z" fill="#604f2c" stroke="none" stroke-width="0.5" stroke-linecap="butt"/><path d="M33.67345,227.27171c-0.81843,-0.34526 -0.4732,-1.16368 -0.4732,-1.16368l0.35642,-0.82199c0.64828,-1.07884 1.13581,-1.92283 2.09094,-2.7567c0,0 0.67483,-0.57764 1.25245,0.09717c0.57765,0.67479 -0.09718,1.25244 -0.09718,1.25244c-0.81762,0.68184 -1.17579,1.41079 -1.72342,2.32213l-0.24231,0.59742c0,0 -0.34526,0.81843 -1.1637,0.4732z" fill="#604f2c" stroke="none" stroke-width="0.5" stroke-linecap="butt"/><path d="M11.8646,245.16603c-0.45753,0.76138 -1.2189,0.30387 -1.2189,0.30387l-0.93371,-0.56106c-0.99245,-0.59639 -1.72394,-1.0576 -2.84632,-1.36561c0,0 -0.85493,-0.24107 -0.61386,-1.09603c0.24107,-0.85494 1.09601,-0.61386 1.09601,-0.61386c1.27063,0.36621 2.15551,0.8775 3.27925,1.55274l0.93369,0.56105c0,0 0.76139,0.45751 0.30387,1.2189z" fill="#604f2c" stroke="none" stroke-width="0.5" stroke-linecap="butt"/><path d="M90.02122,205.313c0.73979,-0.29345 1.3714,-0.56006 2.01897,-1.12897c0,0 0.67483,-0.57761 1.25245,0.09719c0.57764,0.67481 -0.0972,1.25244 -0.0972,1.25244c-0.97118,0.81506 -1.88028,1.16659 -3.04621,1.6407l-1.23341,-0.50691c0,0 -0.57764,-0.67483 0.09717,-1.25244c0.40622,-0.34773 0.77725,-0.24157 1.00824,-0.10199z" fill="#604f2c" stroke="none" stroke-width="0.5" stroke-linecap="butt"/></g><path d="M73.58777,185.99095c0,0 23.61439,11.2977 27.00839,16.35428c3.29732,4.91254 -6.92605,13.56556 -6.92605,13.56556" fill="none" stroke="#000000" stroke-width="4.5" stroke-linecap="round"/></g><g><path d="M400.2565,173.51615l-17.34852,133.29196" data-paper-data="{&quot;origPos&quot;:null}" fill="none" stroke="#000000" stroke-width="4.5" stroke-linecap="round"/><path d="M419.7405,218.58695c0,0 -5.62878,9.68779 -9.24886,0.02942c-4.13463,-11.03117 -10.62352,-28.38492 -10.62352,-28.38492" data-paper-data="{&quot;origPos&quot;:null,&quot;index&quot;:null}" fill="none" stroke="#000000" stroke-width="4.5" stroke-linecap="round"/><path d="M358.43318,121.96662c3.60205,-27.67523 28.95731,-47.19041 56.63253,-43.58836c27.67523,3.60205 47.19041,28.95731 43.58836,56.63253c-3.60205,27.67523 -28.95731,47.19041 -56.63253,43.58836c-27.67523,-3.60205 -47.19041,-28.95731 -43.58836,-56.63253z" data-paper-data="{&quot;origPos&quot;:null}" fill="#d4d4d4" stroke="#000000" stroke-width="4" stroke-linecap="butt"/><path d="M375.67053,302.39191c0,0 7.84499,-69.36346 10.72087,-91.45937c1.63321,-12.54827 5.74435,-29.64125 5.74435,-29.64125l13.34838,1.91321c0,0 -1.35945,18.18262 -3.08276,31.42316c-2.8933,22.22975 -12.66821,89.59456 -12.66821,89.59456z" fill="#3b6b3f" stroke="none" stroke-width="0" stroke-linecap="butt"/><path d="M400.83189,206.56801l2.60368,-20.00457c0,0 4.68589,8.45221 6.43248,12.92914c1.51912,3.89388 3.46017,12.42813 3.46017,12.42813c0,0 -3.32687,2.93813 -4.20726,4.9818c-0.98409,2.28439 -1.22281,8.10874 -1.22281,8.10874c0,0 -2.78285,-6.7722 -4.00221,-9.95475c-1.12915,-2.94711 -3.06408,-8.48854 -3.06408,-8.48854z" fill="#3b6b3f" stroke="none" stroke-width="0" stroke-linecap="butt"/><path d="M402.79246,194.97166c-0.98486,1.12876 -2.11364,0.14387 -2.11364,0.14387l-1.04981,-1.46871c-0.11988,-1.34345 -0.28248,-2.68323 -0.4667,-4.01938c0,0 -0.20433,-1.48401 1.27968,-1.68834c1.48403,-0.20433 1.68836,1.27968 1.68836,1.27968c0.19021,1.3833 0.35802,2.77029 0.48279,4.16102l0.03544,-0.52178c0,0 1.12876,0.98486 0.1439,2.11362z" fill="#508655" stroke="none" stroke-width="0.5" stroke-linecap="butt"/><path d="M393.13078,225.97021c-1.18711,0.91369 -2.10079,-0.27343 -2.10079,-0.27343l-0.59469,-0.78276c-1.38923,-2.28155 -1.31208,-4.02898 -1.46378,-6.72042c0,0 -0.08374,-1.49569 1.41195,-1.5794c1.49569,-0.08373 1.5794,1.41195 1.5794,1.41195c0.11638,2.09411 -0.13502,3.59583 1.00234,5.28295l0.43902,0.56031c0,0 0.91369,1.18711 -0.27343,2.1008z" fill="#508655" stroke="none" stroke-width="0.5" stroke-linecap="butt"/><path d="M385.65265,247.58173c-1.17432,-0.93006 -0.24426,-2.10439 -0.24426,-2.10439l0.5493,-0.63609c0.53156,-1.09672 1.08025,-2.18542 1.65174,-3.26187c0,0 0.70262,-1.32303 2.02564,-0.62039c1.32303,0.70262 0.62039,2.02564 0.62039,2.02564c-0.55445,1.04364 -1.0864,2.09938 -1.60153,3.16298l-0.89688,1.18988c0,0 -0.93007,1.17432 -2.10439,0.24426z" fill="#508655" stroke="none" stroke-width="0.5" stroke-linecap="butt"/><path d="M388.5516,264.89457c-1.38568,0.56915 -1.95482,-0.81655 -1.95482,-0.81655l-0.67252,-1.66886c-0.11608,-0.81386 -0.23218,-1.62771 -0.34826,-2.44157c0,0 -0.20433,-1.48403 1.2797,-1.68836c1.48403,-0.20433 1.68834,1.2797 1.68834,1.2797c0.09101,0.69017 0.18201,1.38036 0.27302,2.07053l0.55109,1.31028c0,0 0.56915,1.38569 -0.81655,1.95482z" fill="#508655" stroke="none" stroke-width="0.5" stroke-linecap="butt"/><path d="M386.24148,285.70103c-0.91369,-1.18711 0.27343,-2.1008 0.27343,-2.1008l0.06514,-0.03114c1.51876,-1.55072 2.54359,-2.93493 3.42367,-4.92327c0,0 0.61204,-1.36728 1.97932,-0.75524c1.36728,0.61204 0.75524,1.97932 0.75524,1.97932c-1.03764,2.29579 -2.25987,3.98659 -4.01346,5.79113l-0.38254,0.31343c0,0 -1.18711,0.91369 -2.10079,-0.27343z" fill="#508655" stroke="none" stroke-width="0.5" stroke-linecap="butt"/><path d="M383.42561,292.48987c-1.43233,0.43868 -1.87102,-0.99367 -1.87102,-0.99367l-0.75794,-2.53844c0.02198,-2.23033 -0.13641,-4.17683 0.37994,-6.35952c0,0 0.3562,-1.45507 1.81126,-1.09885c1.45506,0.35622 1.09884,1.81126 1.09884,1.81126c-0.45648,1.78777 -0.26854,3.39866 -0.323,5.23137l0.65559,2.07679c0,0 0.43868,1.43236 -0.99366,1.87104z" fill="#508655" stroke="none" stroke-width="0.5" stroke-linecap="butt"/><path d="M381.58951,297.92536c0.19334,-1.48549 1.67883,-1.29215 1.67883,-1.29215l0.23091,0.0393c1.03881,0.02686 2.0914,-0.07116 3.10154,-0.31505c0,0 1.4588,-0.34057 1.79935,1.11823c0.34055,1.4588 -1.11823,1.79935 -1.11823,1.79935c-1.25439,0.28479 -2.55269,0.40971 -3.8389,0.39299l-0.56136,-0.06384c0,0 -1.48549,-0.19334 -1.29215,-1.67883z" fill="#508655" stroke="none" stroke-width="0.5" stroke-linecap="butt"/><path d="M395.8818,239.38267c-1.34811,-0.65317 -0.69494,-2.00128 -0.69494,-2.00128l0.12757,0.00591c0.08993,-1.38768 -0.03967,-2.83296 -0.51466,-4.13993c0,0 -0.49141,-1.41512 0.92372,-1.90652c1.41513,-0.4914 1.90653,0.92373 1.90653,0.92373c0.56349,1.68267 0.75254,3.50753 0.67629,5.28039l-0.42323,1.14276c0,0 -0.65317,1.34811 -2.00128,0.69494z" fill="#508655" stroke="none" stroke-width="0.5" stroke-linecap="butt"/><path d="M404.3339,212.16002c-1.48549,-0.19334 -1.29215,-1.67883 -1.29215,-1.67883l0.27169,-1.74096c0.30118,-0.76648 0.60236,-1.53296 0.90354,-2.29944c0,0 0.54785,-1.39425 1.94208,-0.84638c1.39425,0.54785 0.84638,1.94208 0.84638,1.94208c-0.30118,0.76648 -0.60236,1.53296 -0.90354,2.29944l-0.0892,1.03195c0,0 -0.19334,1.48549 -1.67883,1.29215z" fill="#508655" stroke="none" stroke-width="0.5" stroke-linecap="butt"/><path d="M394.58532,209.68268c-1.15842,-0.15077 -1.29592,-1.08734 -1.30029,-1.49245c-0.16059,-0.46243 -0.32115,-0.92489 -0.48174,-1.38734c0,0 -0.4914,-1.41512 0.92373,-1.90652c1.41513,-0.4914 1.90652,0.92373 1.90652,0.92373c0.19534,0.56253 0.3907,1.12509 0.58603,1.68763l0.04458,0.88281c0,0 -0.19334,1.48549 -1.67883,1.29214z" fill="#508655" stroke="none" stroke-width="0.5" stroke-linecap="butt"/><g><path d="M423.34582,206.92472l15.5997,-20.55211c0,0 7.58359,6.334 11.11557,7.57034c3.62729,1.26967 14.12753,-0.4586 14.12753,-0.4586c0,0 -0.27602,15.94836 -5.99428,23.48199c-5.71826,7.53363 -21.69362,12.99599 -21.69362,12.99599c0,0 -0.32273,-11.56411 -2.98916,-14.45475c-2.86933,-3.11059 -10.16572,-8.58286 -10.16572,-8.58286z" fill="url(#color-4)" stroke="none" stroke-width="0" stroke-linecap="butt"/><path d="M373.87998,267.41776l64.49631,-84.97188" fill="none" stroke="#9b5d23" stroke-width="6" stroke-linecap="round"/></g><path d="M387.2182,249.93829c0,0 -19.51222,-9.82972 -18.18064,-19.97787c0.76161,-5.8044 9.50526,-18.5542 16.66481,-28.17797" data-paper-data="{&quot;origPos&quot;:null}" fill="none" stroke="#000000" stroke-width="4.5" stroke-linecap="round"/><path d="M384.67868,212.75674c-1.99337,2.76437 -6.417,8.59864 -6.417,8.59864c0,0 1.26011,-5.69142 0.89355,-8.1516c-0.32793,-2.20094 -2.79189,-5.89275 -2.79189,-5.89275c0,0 4.06094,-7.75308 6.52617,-11.12839c2.83437,-3.8807 9.52768,-10.85186 9.52768,-10.85186l-2.60368,20.00457c0,0 -3.28892,4.86153 -5.13483,7.42142z" data-paper-data="{&quot;index&quot;:null}" fill="#3b6b3f" stroke="none" stroke-width="0" stroke-linecap="butt"/><path d="M385.29934,199.0648c-0.3722,-1.45105 1.07886,-1.82325 1.07886,-1.82325l1.00661,-0.25773c2.0487,-0.57902 3.98248,-1.22103 5.97822,-1.98338c0,0 1.39961,-0.53404 1.93364,0.86556c0.53402,1.3996 -0.86556,1.93364 -0.86556,1.93364c-2.07816,0.79211 -4.09792,1.46418 -6.23138,2.06725l-1.07716,0.27674c0,0 -1.45106,0.3722 -1.82323,-1.07885z" fill="#508655" stroke="none" stroke-width="0.5" stroke-linecap="butt"/><path d="M365.04212,342.04715l10.51926,-39.92203l14.28897,1.85977l1.61658,40.63833l-10.06314,-1.16589l-0.78559,-16.07199l-6.41706,16.14164z" fill="#2e5432" stroke="none" stroke-width="0" stroke-linecap="butt"/><g><path d="M376.73162,384.33957l3.34447,-43.10612l12.62664,1.64341l-3.34447,43.10612z" fill="#3d250e" stroke="none" stroke-width="0" stroke-linecap="butt"/><path d="M383.16873,385.17739l2.6774,-16.70209c0,0 9.38377,-0.08929 14.37758,3.66612c4.99382,3.75538 4.237,15.80724 4.237,15.80724z" fill="#3d250e" stroke="none" stroke-width="0" stroke-linecap="butt"/><path d="M390.07047,371.21474c0,0 0.56847,-1.2429 0.86756,-1.57761c0.29006,-0.32462 0.90064,-0.40123 0.90064,-0.40123" fill="none" stroke="#7f4c1d" stroke-width="1" stroke-linecap="round"/><path d="M393.69995,372.79164c0,0 0.68051,-1.60042 1.01621,-2.03132c0.31388,-0.40289 0.93696,-0.47571 0.93696,-0.47571" fill="none" stroke="#7f4c1d" stroke-width="1" stroke-linecap="round"/><path d="M397.8478,374.85016c0,0 0.6542,-1.77775 0.97177,-2.23233c0.30034,-0.42992 0.88479,-0.42531 0.88479,-0.42531" fill="none" stroke="#7f4c1d" stroke-width="1" stroke-linecap="round"/></g><path d="M383.67856,312.58083c-1.49611,0.0755 -1.57161,-1.42061 -1.57161,-1.42061l-0.0502,-1.35998c-0.22822,-0.58087 -0.45644,-1.16174 -0.68466,-1.74261c0,0 -0.53405,-1.39959 0.86556,-1.93364c1.3996,-0.53402 1.93363,0.86556 1.93363,0.86556c0.2724,0.73118 0.54483,1.46236 0.81724,2.19355l0.11062,1.82611c0,0 0.0755,1.49611 -1.42061,1.57161z" fill="#457349" stroke="none" stroke-width="0.5" stroke-linecap="butt"/><path d="M374.46393,323.02349c-1.49206,0.13351 -1.62557,-1.35854 -1.62557,-1.35854l-0.11877,-1.5586c0.1339,-1.61976 0.37135,-3.26418 0.95312,-4.78176c0,0 0.54787,-1.39425 1.94209,-0.84638c1.39425,0.54785 0.84638,1.9421 0.84638,1.9421c-0.49941,1.23196 -0.66118,2.58997 -0.75442,3.91606l0.1157,1.06159c0,0 0.13349,1.49204 -1.35856,1.62557z" fill="#457349" stroke="none" stroke-width="0.5" stroke-linecap="butt"/><path d="M383.54498,334.74404c-1.48549,-0.19334 -1.29214,-1.67883 -1.29214,-1.67883l0.00629,0.08664c-0.03341,-1.96636 -0.57018,-3.66672 -1.05607,-5.56097c0,0 -0.37218,-1.45105 1.07887,-1.82322c1.45105,-0.3722 1.82323,1.07885 1.82323,1.07885c0.54494,2.12467 1.08665,4.03229 1.14919,6.23579l-0.03054,0.3696c0,0 -0.19334,1.48548 -1.67883,1.29214z" fill="#457349" stroke="none" stroke-width="0.5" stroke-linecap="butt"/><path d="M389.94635,333.11671c1.1061,1.01025 0.09583,2.11635 0.09583,2.11635l-1.17446,1.28586c0,0 -1.01025,1.10608 -2.11635,0.09583c-1.1061,-1.01025 -0.09583,-2.11634 -0.09583,-2.11634l1.17447,-1.28587c0,0 1.01025,-1.10608 2.11634,-0.09583z" fill="#457349" stroke="none" stroke-width="0.5" stroke-linecap="butt"/><path d="M373.14405,335.53754c-1.18711,0.91369 -2.1008,-0.27343 -2.1008,-0.27343l-1.06873,-1.40054c-0.32757,-0.65803 -0.65515,-1.31609 -0.98272,-1.97414c0,0 -0.66314,-1.34325 0.68012,-2.00637c1.34325,-0.66312 2.00637,0.68012 2.00637,0.68012c0.27965,0.57196 0.55931,1.14391 0.83896,1.71586l0.90023,1.15769c0,0 0.91369,1.18711 -0.27343,2.10079z" fill="#457349" stroke="none" stroke-width="0.5" stroke-linecap="butt"/><path d="M383.67231,318.9629c-0.4914,-1.41513 0.92373,-1.90652 0.92373,-1.90652l0.25117,-0.08621c0.55558,-0.21542 1.11114,-0.43088 1.6667,-0.6463c0,0 1.39668,-0.54159 1.93828,0.85509c0.5416,1.39668 -0.85509,1.93828 -0.85509,1.93828c-0.55558,0.21542 -1.11114,0.43088 -1.6667,0.6463l-0.35155,0.12308c0,0 -1.41512,0.4914 -1.90652,-0.92373z" fill="#457349" stroke="none" stroke-width="0.5" stroke-linecap="butt"/><path d="M368.36723,344.13446c-1.48549,-0.19334 -1.29215,-1.67883 -1.29215,-1.67883c0.06752,-0.51875 0.26393,-2.02781 0.33144,-2.54654c0,0 0.19334,-1.48549 1.67883,-1.29215c1.48549,0.19334 1.29215,1.67883 1.29215,1.67883c-0.06752,0.51875 -0.13503,1.03749 -0.20255,1.55622l-0.12889,0.99032c0,0 -0.19334,1.48549 -1.67883,1.29215z" fill="#457349" stroke="none" stroke-width="0.5" stroke-linecap="butt"/><g><path d="M355.2603,384.13654l7.80093,-42.52612l12.62664,1.64341l-7.80093,42.52612z" fill="#523113" stroke="none" stroke-width="0" stroke-linecap="butt"/><path d="M361.69742,384.97436l2.6774,-16.70209c0,0 9.38377,-0.0893 14.37759,3.6661c4.99382,3.7554 4.23701,15.80724 4.23701,15.80724z" fill="#523113" stroke="none" stroke-width="0" stroke-linecap="butt"/><path d="M368.59916,371.01171c0,0 0.56846,-1.24289 0.86754,-1.5776c0.29006,-0.3246 0.90067,-0.40123 0.90067,-0.40123" fill="none" stroke="#7f4c1d" stroke-width="1" stroke-linecap="round"/><path d="M372.22863,372.58858c0,0 0.68051,-1.60042 1.0162,-2.03131c0.31388,-0.40289 0.93696,-0.47571 0.93696,-0.47571" fill="none" stroke="#7f4c1d" stroke-width="1" stroke-linecap="round"/><path d="M376.37648,374.64711c0,0 0.65421,-1.77775 0.97177,-2.23233c0.30034,-0.42992 0.88479,-0.42531 0.88479,-0.42531" fill="none" stroke="#7f4c1d" stroke-width="1" stroke-linecap="round"/></g><path d="M403.84856,153.19072l34.39251,-7.60888" data-paper-data="{&quot;index&quot;:null}" fill="none" stroke="url(#color-5)" stroke-width="1.5" stroke-linecap="round"/><path d="M397.04158,164.22211l34.39252,-7.60888" data-paper-data="{&quot;index&quot;:null}" fill="none" stroke="url(#color-6)" stroke-width="1.5" stroke-linecap="round"/><path d="M400.5729,126.77622c1.65509,-12.71639 13.30548,-21.68334 26.02187,-20.02825c12.71639,1.65509 21.68334,13.30548 20.02825,26.02186c-1.65509,12.71639 -13.30548,21.68334 -26.02186,20.02825c-12.71639,-1.65509 -21.68334,-13.30548 -20.02825,-26.02187z" fill="url(#color-7)" stroke="url(#color-8)" stroke-width="0" stroke-linecap="butt"/><path d="M402.39051,114.67539c0.6861,-5.27146 5.5157,-8.98865 10.78716,-8.30255c5.27146,0.6861 8.98865,5.5157 8.30255,10.78716c-0.6861,5.27146 -5.51569,8.98865 -10.78715,8.30255c-5.27146,-0.6861 -8.98865,-5.51569 -8.30255,-10.78715z" fill="#000000" stroke="none" stroke-width="0" stroke-linecap="butt"/><path d="M419.51727,102.86264l-14.58582,4.71968" fill="none" stroke="#000000" stroke-width="3" stroke-linecap="round"/><path d="M375.34677,111.15553c0.68611,-5.27148 5.51568,-8.98866 10.78716,-8.30255c5.27148,0.68611 8.98865,5.51568 8.30255,10.78716c-0.68611,5.27148 -5.51567,8.98865 -10.78715,8.30255c-5.27148,-0.68611 -8.98866,-5.51567 -8.30255,-10.78715z" fill="#000000" stroke="none" stroke-width="0" stroke-linecap="butt"/><path d="M394.72302,106.91865l-17.13622,-9.58378" fill="none" stroke="#000000" stroke-width="3" stroke-linecap="round"/><g><g><path d="M373.13904,317.02538c-0.09127,0.70121 -1.23352,1.13061 -2.55134,0.95909c-1.31779,-0.17152 -2.31208,-0.879 -2.22081,-1.58021c0.09127,-0.70121 1.23351,-1.13062 2.55132,-0.9591c1.31779,0.17152 2.31211,0.87901 2.22084,1.58022z" fill="#6b4019" stroke="none" stroke-width="0" stroke-linecap="butt"/><path d="M367.67743,321.70179l0.6838,-5.25373l4.77214,0.62111l-0.6838,5.25373z" fill="#6b4019" stroke="none" stroke-width="0" stroke-linecap="butt"/><path d="M372.43815,322.41047c-0.09127,0.70121 -1.23352,1.13061 -2.55134,0.95909c-1.31779,-0.17152 -2.31208,-0.879 -2.22081,-1.58021c0.09127,-0.70121 1.23351,-1.13062 2.55132,-0.9591c1.31779,0.17152 2.31211,0.87901 2.22084,1.58022z" fill="#6b4019" stroke="none" stroke-width="0" stroke-linecap="butt"/><path d="M372.73336,316.92808c-0.06294,0.4836 -0.99807,0.76054 -2.08865,0.61859c-1.09059,-0.14194 -1.92366,-0.64904 -1.86072,-1.13262c0.06294,-0.4836 0.99806,-0.76055 2.08865,-0.61861c1.09059,0.14194 1.92367,0.64904 1.86072,1.13264z" fill="#a8703b" stroke="none" stroke-width="0" stroke-linecap="butt"/><path d="M368.81255,318.06509l-0.45586,3.50248" fill="none" stroke="#543313" stroke-width="0.25" stroke-linecap="round"/><path d="M370.49087,318.72876l-0.45586,3.50248" fill="none" stroke="#543313" stroke-width="0.25" stroke-linecap="round"/><path d="M371.7493,322.05368l0.45586,-3.50248" fill="none" stroke="#543313" stroke-width="0.25" stroke-linecap="round"/></g><g fill="none" stroke="#3c3c3c" stroke-width="0.5" stroke-linecap="butt"><path d="M376.40492,303.772c-0.93597,1.80591 -2.37392,2.91793 -3.21173,2.48372c-0.83781,-0.43422 -0.75821,-2.25023 0.17778,-4.05616c0.93597,-1.80591 2.37392,-2.91794 3.21171,-2.48372c0.83781,0.43422 0.75821,2.25024 -0.17778,4.05615z"/><path d="M374.6757,308.99569c-0.5447,1.95979 -1.7233,3.34368 -2.63247,3.09098c-0.90917,-0.2527 -1.20467,-2.04625 -0.65997,-4.00606c0.5447,-1.95979 1.72329,-3.34366 2.63247,-3.09096c0.90917,0.2527 1.20467,2.04625 0.65997,4.00604z"/><path d="M369.64766,315.69077c-0.04451,-0.56379 0.08034,-1.37092 0.22265,-1.88292c0.5447,-1.95979 1.72329,-3.34366 2.63247,-3.09096c0.90917,0.2527 1.20467,2.04625 0.65997,4.00606c-0.15406,0.55426 -0.3645,1.10625 -0.77467,1.52159"/></g></g><g data-paper-data="{&quot;index&quot;:null}" stroke="none" stroke-linecap="butt"><path d="M436.07937,143.58125c-8.31566,-6.82848 -1.59881,-37.53777 -1.59881,-37.53777l29.00787,-1.2355c0,0 9.30374,30.02693 1.5988,37.53775c-7.70492,7.51082 -20.69221,8.06399 -29.00787,1.23551z" fill="#508354" stroke-width="NaN"/><path d="M461.58078,114.39171c-0.10678,0.82041 -0.8584,1.39892 -1.67883,1.29214c-0.75724,-0.09856 -1.30843,-0.74648 -1.30483,-1.4908c-0.24345,-0.30628 -0.36738,-0.70698 -0.3129,-1.1256c0.10678,-0.82041 0.85841,-1.39893 1.67883,-1.29215c0.75724,0.09856 1.30843,0.7465 1.30483,1.49083c0.24344,0.30626 0.36737,0.70696 0.31288,1.12557z" fill="#6eb774" stroke-width="0.5"/><path d="M443.96794,119.53175c0.3796,-1.19672 0.70129,-2.41278 0.97417,-3.63777c0,0 0.32705,-1.46188 1.78894,-1.13485c1.46187,0.32701 1.13483,1.78891 1.13483,1.78891c-0.35556,1.58309 -0.78539,3.15231 -1.30489,4.68945l-1.83213,0.97594c0,0 -1.48548,-0.19334 -1.29214,-1.67883c0.06531,-0.50182 0.27809,-0.81205 0.53123,-1.00288z" fill="#6eb774" stroke-width="0.5"/><path d="M452.28922,128.177l0.10102,-0.18054c-0.13414,-0.68887 -0.26828,-1.37771 -0.40242,-2.06658c0,0 -0.28633,-1.47039 1.18406,-1.75672c1.4704,-0.28635 1.75672,1.18406 1.75672,1.18406c0.13414,0.68887 0.2683,1.37771 0.40244,2.06658l-0.07085,1.13988c0,0 -0.19334,1.48549 -1.67883,1.29215c-1.48549,-0.19334 -1.29214,-1.67883 -1.29214,-1.67883z" fill="#6eb774" stroke-width="0.5"/><path d="M448.97231,137.82049c-0.83726,1.2422 -2.07947,0.40493 -2.07947,0.40493l-1.83417,-1.25958c-0.94312,-1.30851 -1.72181,-2.95858 -1.59957,-4.5669c0,0 0.19334,-1.48549 1.67883,-1.29215c1.48549,0.19334 1.29215,1.67883 1.29215,1.67883c-0.17064,0.68183 0.21372,1.4697 0.67944,1.99612l1.45785,0.95929c0,0 1.24219,0.83726 0.40493,2.07945z" fill="#6eb774" stroke-width="0.5"/><path d="M460.11529,136.36557c-1.2422,-0.83726 -0.40493,-2.07946 -0.40493,-2.07946l0.36235,-0.5255c0.80615,-0.95443 1.408,-2.10244 1.79458,-3.29045c0,0 0.48093,-1.41874 1.89964,-0.93781c1.41873,0.48093 0.93781,1.89964 0.93781,1.89964c-0.53087,1.51794 -1.30927,2.97843 -2.31758,4.23116l-0.19239,0.29749c0,0 -0.83726,1.2422 -2.07945,0.40494z" fill="#6eb774" stroke-width="0.5"/><path d="M434.24955,113.74384l0.38537,-1.01161c0.72026,-0.82453 1.40698,-1.67894 2.06787,-2.55181c0,0 0.90487,-1.19383 2.0987,-0.28895c1.19383,0.90489 0.28896,2.09872 0.28896,2.09872c-0.62236,0.82027 -1.26579,1.62542 -1.93541,2.40771c-0.13616,0.41813 -0.53311,1.16536 -1.61335,1.02476c-1.48549,-0.19334 -1.29214,-1.67883 -1.29214,-1.67883z" fill="#6eb774" stroke-width="0.5"/></g><g data-paper-data="{&quot;index&quot;:null}" stroke="none" stroke-linecap="butt"><path d="M401.21061,93.05784c-12.89502,-1.67834 -32.54111,2.41151 -32.54111,2.41151c0,0 -2.50572,-1.06369 -2.39779,-6.46576c0.13105,-6.5596 4.23158,-15.82539 26.3126,-19.42615c22.08102,-3.60075 41.24092,1.48629 52.01376,7.37407c10.77284,5.88778 19.22682,20.95964 18.36671,27.56804c-0.48392,3.71806 -28.47669,2.13483 -28.47669,2.13483c0,0 -18.34672,-11.65324 -33.27748,-13.59654z" fill="#3b6b3f" stroke-width="0"/><path d="M434.29652,94.89992c-1.18711,0.91369 -2.10079,-0.27343 -2.10079,-0.27343l0.01083,-0.03364c-0.99118,-0.8887 -2.18145,-1.60571 -3.44827,-2.01483c0,0 -1.41873,-0.48094 -0.93781,-1.89965c0.48092,-1.41871 1.89963,-0.93781 1.89963,-0.93781c1.62164,0.56993 3.14913,1.47847 4.45618,2.59478l0.39368,0.46379c0,0 0.91369,1.18711 -0.27343,2.10079z" fill="#548b59" stroke-width="0.5"/><path d="M445.13272,88.27977c0.43493,-1.4335 1.86843,-0.99857 1.86843,-0.99857l1.23296,0.37539c0.5773,0.14972 1.15463,0.29947 1.73193,0.44922c0,0 1.45004,0.37609 1.07393,1.82613c-0.37611,1.45004 -1.82613,1.07393 -1.82613,1.07393c-0.57732,-0.14975 -1.15464,-0.29948 -1.73194,-0.44922l-1.35061,-0.40846c0,0 -1.4335,-0.43493 -0.99857,-1.86843z" fill="#548b59" stroke-width="0.5"/><path d="M429.58771,83.23735c-1.07238,-1.04597 -0.02642,-2.11835 -0.02642,-2.11835l0.36168,0.05827c0.1665,-1.2675 0.26076,-2.54654 0.28323,-3.82473c0,0 0.0281,-1.49775 1.52587,-1.46963c1.49777,0.02812 1.46965,1.52587 1.46965,1.52587c-0.02759,1.38857 -0.13004,2.77772 -0.30777,4.15516l-1.18791,1.64698c0,0 -1.04597,1.07238 -2.11835,0.02642z" fill="#548b59" stroke-width="0.5"/><path d="M411.56341,81.1987l0.04442,-0.00518c-0.53911,-0.44316 -1.07826,-0.88632 -1.61737,-1.3295c0,0 -1.15722,-0.95126 -0.20596,-2.10848c0.95126,-1.15722 2.10848,-0.20596 2.10848,-0.20596c0.53911,0.44316 1.07825,0.88632 1.61736,1.3295l0.42728,0.49225c0,0 0.91369,1.18711 -0.27343,2.10079c-1.18711,0.91369 -2.10079,-0.27343 -2.10079,-0.27343z" fill="#548b59" stroke-width="0.5"/><path d="M399.34484,85.70183c0.19334,-1.48549 1.67883,-1.29215 1.67883,-1.29215l1.47299,0.19327c0.79388,0.03029 1.58779,0.06057 2.38167,0.09084c0,0 1.4969,0.05804 1.43883,1.55493c-0.05806,1.49689 -1.55496,1.43883 -1.55496,1.43883c-0.83909,-0.03305 -1.67815,-0.06612 -2.51721,-0.09918l-1.60803,-0.20774c0,0 -1.48548,-0.19334 -1.29214,-1.67883z" fill="#548b59" stroke-width="0.5"/><path d="M387.69043,83.68141c-1.48549,-0.19334 -1.29214,-1.67883 -1.29214,-1.67883l0.21975,-0.94943c0.72941,-1.36745 1.30216,-2.81633 1.84099,-4.26946c0,0 0.52241,-1.40397 1.92639,-0.88156c1.40397,0.52241 0.88156,1.92639 0.88156,1.92639c-0.58807,1.57533 -1.21663,3.1435 -2.00289,4.62986l0.10518,-0.06914c0,0 -0.19334,1.48549 -1.67883,1.29215z" fill="#548b59" stroke-width="0.5"/><path d="M374.94229,86.43139l0.49713,0.2434c0.6746,0.14728 1.45384,-0.09606 2.00837,-0.50748c0,0 1.26495,-0.80246 2.06741,0.46251c0.80246,1.26495 -0.4625,2.0674 -0.4625,2.0674c-1.18545,0.68734 -2.63473,1.06636 -3.99995,0.94853l-1.20617,-0.42589c0,0 -1.39423,-0.54786 -0.84638,-1.94209c0.54785,-1.39423 1.9421,-0.84638 1.9421,-0.84638z" fill="#548b59" stroke-width="0.5"/><path d="M376.6383,81.52643c-1.39423,-0.54785 -0.84637,-1.9421 -0.84637,-1.9421l0.2434,-0.49715c0.09548,-0.73358 0.19096,-1.46714 0.28643,-2.20072c0,0 0.19334,-1.48549 1.67883,-1.29215c1.48549,0.19334 1.29215,1.67883 1.29215,1.67883c-0.09548,0.73358 -0.19096,1.46714 -0.28643,2.20072l-0.4259,1.20616c0,0 -0.54787,1.39422 -1.9421,0.84637z" fill="#548b59" stroke-width="0.5"/><path d="M411.18083,71.0562c0.10173,1.49454 -1.39282,1.59629 -1.39282,1.59629l-1.15524,0.07841c-3.16289,0.15964 -6.25855,0.4045 -9.40362,0.76956c0,0 -1.48803,0.17271 -1.66075,-1.31531c-0.17273,-1.48802 1.31531,-1.66075 1.31531,-1.66075c3.20902,-0.37246 6.37071,-0.62282 9.59802,-0.7857l1.10277,-0.07529c0,0 1.49454,-0.10173 1.59629,1.39282z" fill="#548b59" stroke-width="0.5"/><path d="M435.92808,100.60966c-0.10469,-1.49437 1.38967,-1.59904 1.38967,-1.59904l1.00381,-0.06294c1.32526,-0.19508 2.76167,-0.57813 3.72427,-1.50967c0,0 1.11355,-1.00203 2.11558,0.11152c1.00203,1.11355 -0.1115,2.11559 -0.1115,2.11559c-1.43802,1.23289 -3.36283,1.88487 -5.22422,2.23588l-1.29859,0.09835c0,0 -1.49435,0.10469 -1.59904,-1.38967z" fill="#548b59" stroke-width="0.5"/></g></g><g><path d="M230.81846,474.52371l-32.11052,-74.6923l-14.18414,-133.54624" data-paper-data="{&quot;origPos&quot;:null}" fill="none" stroke="#000000" stroke-width="4.5" stroke-linecap="round"/><path d="M196.81129,397.14957l-15.44343,82.23139" fill="none" stroke="#000000" stroke-width="4.5" stroke-linecap="round"/><path d="M188.86428,282.52853l37.38511,55.37365" data-paper-data="{&quot;origPos&quot;:null}" fill="none" stroke="#000000" stroke-width="4.5" stroke-linecap="round"/><path d="M184.51745,282.99021l-24.91963,61.99115" data-paper-data="{&quot;origPos&quot;:null,&quot;index&quot;:null}" fill="none" stroke="#000000" stroke-width="4.5" stroke-linecap="round"/><path d="M182.64092,271.32063c-27.72802,2.94503 -52.59346,-17.14557 -55.53849,-44.87359c-2.94503,-27.72802 17.14556,-52.59346 44.87358,-55.53849c27.72802,-2.94503 52.59347,17.14556 55.5385,44.87358c2.94503,27.72802 -17.14557,52.59347 -44.87359,55.5385z" data-paper-data="{&quot;origPos&quot;:null}" fill="#343434" stroke="#000000" stroke-width="4" stroke-linecap="butt"/><path d="M176.25762,218.80849c-5.28154,0.56096 -10.01781,-3.26582 -10.57877,-8.54735c-0.56096,-5.28154 3.26582,-10.01781 8.54735,-10.57877c5.28154,-0.56096 10.01781,3.26582 10.57877,8.54735c0.56096,5.28154 -3.26582,10.01781 -8.54735,10.57877z" data-paper-data="{&quot;origPos&quot;:null}" fill="#ffffff" stroke="none" stroke-width="0" stroke-linecap="butt"/><path d="M149.16229,221.68632c-5.28152,0.56096 -10.01781,-3.26583 -10.57877,-8.54735c-0.56096,-5.28152 3.26584,-10.01781 8.54736,-10.57877c5.28152,-0.56096 10.01781,3.26583 10.57877,8.54735c0.56096,5.28152 -3.26583,10.01781 -8.54735,10.57877z" data-paper-data="{&quot;origPos&quot;:null}" fill="#ffffff" stroke="none" stroke-width="0" stroke-linecap="butt"/><path d="M176.54922,211.21665c-2.17235,0.23073 -4.12046,-1.34329 -4.35119,-3.51566c-0.23073,-2.17238 1.34326,-4.12046 3.51564,-4.35119c2.17238,-0.23073 4.12048,1.34327 4.35121,3.51564c0.23073,2.17238 -1.34328,4.12048 -3.51566,4.35121z" fill="#000000" stroke="none" stroke-width="0" stroke-linecap="butt"/><path d="M146.47084,217.85153c-2.2311,0.23697 -4.23184,-1.37956 -4.4688,-3.61065c-0.23697,-2.2311 1.37958,-4.23184 3.61067,-4.46881c2.23107,-0.23697 4.23182,1.37958 4.46879,3.61067c0.23697,2.23107 -1.37959,4.23182 -3.61066,4.46878z" fill="#000000" stroke="none" stroke-width="0" stroke-linecap="butt"/><path d="M219.32436,158.79656l-22.59158,28.2014" fill="none" stroke="#823f00" stroke-width="4.5" stroke-linecap="round"/><g fill="none" stroke="#ffdb33" stroke-width="3" stroke-linecap="round"><path d="M218.98532,149.61738l1.6711,15.73368"/><path d="M227.19059,161.60132l-14.48165,-7.83152"/><path d="M213.98905,163.59362l12.13846,-11.12246" data-paper-data="{&quot;index&quot;:null}"/></g><path d="M156.40041,245.16505c-3.22043,-5.77565 7.45659,-3.92923 16.84197,-9.16245c9.38541,-5.23323 13.92517,-15.56436 17.1456,-9.78871c3.22043,5.77565 -1.20623,16.89499 -10.59162,22.12821c-9.38539,5.2332 -20.17551,2.59858 -23.39594,-3.17707z" fill="#ffffff" stroke="#000000" stroke-width="0.5" stroke-linecap="butt"/></g></g></g></svg>