<svg xmlns="http://www.w3.org/2000/svg" xmlns:xlink="http://www.w3.org/1999/xlink" version="1.1" width="79.80069" height="162.60321" viewBox="0,0,79.80069,162.60321"><defs><radialGradient cx="254.20405" cy="128.89006" r="17.25" gradientUnits="userSpaceOnUse" id="color-1"><stop offset="0" stop-color="#8d00ff"/><stop offset="1" stop-color="#8d00ff" stop-opacity="0"/></radialGradient></defs><g><g data-paper-data="{&quot;isPaintingLayer&quot;:true}" fill-rule="nonzero" stroke-linejoin="miter" stroke-miterlimit="10" stroke-dasharray="" stroke-dashoffset="0" style="mix-blend-mode: normal"><g><path d="M237.44775,100.36506v-13h8v13z" data-paper-data="{&quot;origPos&quot;:null}" fill="#666666" stroke="none" stroke-width="0" stroke-linecap="butt" transform="matrix(1,0,0,1,-194.76632,-87.36506)"/><path d="M 14.5033 75.273 C 14.5033 75.273 14.3034 67.2356 15.3469 61.8791 C 16.6773 55.0504 20.5861 44.0498 20.5861 44.0498 L 48.4852 62.041 L 44.2888 73.8776 C 44.2888 73.8776 42.3651 70.0089 40.7032 70.0868 C 38.9842 70.1673 35.6257 74.2835 35.6257 74.2835 C 35.6257 74.2835 33.025 70.6159 30.9935 70.7686 C 28.9677 70.9209 25.2292 75.0651 25.2292 75.0651 C 25.2292 75.0651 22.2919 71.6915 20.0514 71.7349 C 18.1059 71.7726 14.5033 75.273 14.5033 75.273 Z " data-paper-data="{&quot;origRot&quot;:0,&quot;origPos&quot;:null}" fill="#232323" stroke="#030031" stroke-width="2.5" stroke-linecap="butt"/><path d="M 15.9325 56.2333 L 19.9448 42.6904 L 43.5868 58.6096 " data-paper-data="{&quot;origPos&quot;:null,&quot;origRot&quot;:0}" fill="none" stroke="#838383" stroke-width="2" stroke-linecap="round"/><path d="M233.10249,204.71174l0.34971,-3.61951l3.43854,0.33222l-0.34971,3.61951z" data-paper-data="{&quot;origRot&quot;:0,&quot;origPos&quot;:null}" fill="#838383" stroke="none" stroke-width="0" stroke-linecap="butt" transform="matrix(1,0,0,1,-194.76632,-87.36506)"/><path d="M227.79456,204.12482l0.42813,-3.61108l3.43052,0.40673l-0.42813,3.61107z" data-paper-data="{&quot;origRot&quot;:0,&quot;origPos&quot;:null}" fill="#838383" stroke="none" stroke-width="0" stroke-linecap="butt" transform="matrix(1,0,0,1,-194.76632,-87.36506)"/><path d="M222.31671,203.15816l0.69648,-3.56904l3.39059,0.66165l-0.69648,3.56904z" data-paper-data="{&quot;origRot&quot;:0,&quot;origPos&quot;:null}" fill="#838383" stroke="none" stroke-width="0" stroke-linecap="butt" transform="matrix(1,0,0,1,-194.76632,-87.36506)"/><path d="M216.65151,202.66219l0.76816,-3.5543l3.37659,0.72975l-0.76816,3.55431z" data-paper-data="{&quot;origRot&quot;:0,&quot;origPos&quot;:null}" fill="#838383" stroke="none" stroke-width="0" stroke-linecap="butt" transform="matrix(1,0,0,1,-194.76632,-87.36506)"/><path d="M211.09298,202.13235l1.04346,-3.48344l3.30926,0.99129l-1.04346,3.48344z" data-paper-data="{&quot;origRot&quot;:0,&quot;origPos&quot;:null}" fill="#838383" stroke="none" stroke-width="0" stroke-linecap="butt" transform="matrix(1,0,0,1,-194.76632,-87.36506)"/><path d="M239.1545,211.62302c0,0 -2.61997,-14.01023 -3.61616,-23.03088c-0.8197,-7.4225 -0.83929,-11.61221 -0.95412,-19.07895c-0.2602,-16.91984 4.32028,-28.45529 4.32028,-28.45529l9.81577,1.91666v68.64846z" data-paper-data="{&quot;origPos&quot;:null}" fill="#000000" stroke="none" stroke-width="0" stroke-linecap="butt" transform="matrix(1,0,0,1,-194.76632,-87.36506)"/><path d="M 51.3163 53.8873 L 51.3163 121.1844 L 39.2687 160.1032 " data-paper-data="{&quot;origPos&quot;:null}" fill="none" stroke="#000000" stroke-width="5" stroke-linecap="round"/><path d="M 63.7337 159.9064 L 51.6861 119.7477 " data-paper-data="{&quot;origPos&quot;:null}" fill="#000000" stroke="#000000" stroke-width="5" stroke-linecap="round"/><path d="M228.07861,203.4459c5.92605,0.87165 16.5421,1.50651 16.5421,1.50651v13.8127c0,0 -12.7452,-4.15783 -20.90278,-7.63333c-7.03947,-2.57507 -14.93056,-11.45 -14.93056,-11.45c0,0 11.23287,2.57885 19.29123,3.76413z" data-paper-data="{&quot;origPos&quot;:null,&quot;index&quot;:null}" fill="#000000" stroke="none" stroke-width="0" stroke-linecap="butt" transform="matrix(1,0,0,1,-194.76632,-87.36506)"/><path d="M236.95405,128.89006c0,-7.52488 7.72309,-13.625 17.25,-13.625c9.52691,0 17.25,6.10012 17.25,13.625c0,7.52488 -7.72309,13.625 -17.25,13.625c-9.52691,0 -17.25,-6.10012 -17.25,-13.625z" data-paper-data="{&quot;origPos&quot;:null}" fill="url(#color-1)" stroke="none" stroke-width="0" stroke-linecap="butt" transform="matrix(1,0,0,1,-194.76632,-87.36506)"/><path d="M268.0315,129.9556l-3.7404,-6.21628l5.98011,-0.48817z" data-paper-data="{&quot;origRot&quot;:0,&quot;origPos&quot;:null}" fill="#cccccc" stroke="none" stroke-width="0" stroke-linecap="butt" transform="matrix(1,0,0,1,-194.76632,-87.36506)"/><path d="M258.42806,129.8493l-3.23194,-6.49517l6,-0.00897z" data-paper-data="{&quot;origRot&quot;:0,&quot;origPos&quot;:null}" fill="#cccccc" stroke="none" stroke-width="0" stroke-linecap="butt" transform="matrix(1,0,0,1,-194.76632,-87.36506)"/><path d="M249.70584,129.96041l-3.23194,-6.49517l5.99999,-0.00897z" data-paper-data="{&quot;origRot&quot;:0,&quot;origPos&quot;:null}" fill="#cccccc" stroke="none" stroke-width="0" stroke-linecap="butt" transform="matrix(1,0,0,1,-194.76632,-87.36506)"/><path d="M256.38785,136.32028l-5.86055,-1.28605l4.54056,-5.65828z" data-paper-data="{&quot;origRot&quot;:0,&quot;origPos&quot;:null,&quot;index&quot;:null}" fill="#cccccc" stroke="none" stroke-width="0" stroke-linecap="butt" transform="matrix(1,0,0,1,-194.76632,-87.36506)"/><path d="M265.69097,138.62947l-5.86055,-1.28605l4.54056,-5.65828z" data-paper-data="{&quot;origRot&quot;:0,&quot;origPos&quot;:null,&quot;index&quot;:null}" fill="#cccccc" stroke="none" stroke-width="0" stroke-linecap="butt" transform="matrix(1,0,0,1,-194.76632,-87.36506)"/><path d="M 24.1379 30.4342 C 24.1379 15.739 28.4927 5.6342 43.1879 5.6342 C 57.4041 5.6342 68.4777 5.5409 77.4349 16.5803 C 80.9581 20.9226 74.7507 26.595 77.617 31.3962 C 82.0342 38.7952 60.765 35.2711 52.1759 35.9671 C 47.1158 36.3772 48.6056 44.1292 52.9844 46.6981 C 57.3993 49.2882 73.8682 50.837 73.3974 52.6075 C 73.2405 53.1977 72.85 53.3837 72.3483 53.7319 C 69.805 55.4974 65.7058 60.0078 62.6099 59.9789 C 53.3223 59.8921 58.2685 58.3572 49.438 55.7342 C 28.2269 49.4337 24.138 44.407 24.138 30.4342 Z " data-paper-data="{&quot;origPos&quot;:null}" fill="#252525" stroke="#000000" stroke-width="2.5" stroke-linecap="butt"/><path d="M 52.2036 62.2112 C 52.2036 62.2112 55.9192 66.4851 57.4074 69.7278 C 58.8956 72.9704 63.1127 85.9811 63.1127 85.9811 " data-paper-data="{&quot;origPos&quot;:null,&quot;index&quot;:null}" fill="#000000" stroke="#000000" stroke-width="5" stroke-linecap="round"/><g data-paper-data="{&quot;origPos&quot;:null,&quot;origRot&quot;:0}" stroke-linecap="round"><path d="M 65.0106 85.6701 C 65.0106 85.6701 65.6127 87.0241 65.7939 87.6558 C 65.9751 88.2875 65.4256 89.567 65.4256 89.567 " data-paper-data="{&quot;origPos&quot;:null,&quot;origRot&quot;:0}" stroke-width="1" fill="none" stroke="#cccccc"/><path d="M 63.1239 86.089 C 63.1239 86.089 63.6962 87.1088 63.7287 87.7437 C 63.7611 88.3785 63.178 89.8148 63.178 89.8148 " data-paper-data="{&quot;origPos&quot;:null,&quot;origRot&quot;:0}" stroke-width="1" fill="none" stroke="#cccccc"/><path d="M 61.4766 86.1578 C 61.4766 86.1578 61.6416 87.3746 61.455 87.9823 C 61.2683 88.59 60.2512 89.9351 60.2512 89.9351 " data-paper-data="{&quot;origPos&quot;:null,&quot;origRot&quot;:0}" stroke-width="1" fill="none" stroke="#cccccc"/></g><path d="M244.78388,108.43002c0,-2.70006 2.18883,-4.88889 4.88889,-4.88889c2.70006,0 4.88889,2.18883 4.88889,4.88889c0,2.70006 -2.18883,4.88889 -4.88889,4.88889c-2.70006,0 -4.88889,-2.18883 -4.88889,-4.88889z" data-paper-data="{&quot;origPos&quot;:null}" fill="#c379ff" stroke="none" stroke-width="0" stroke-linecap="butt" transform="matrix(1,0,0,1,-194.76632,-87.36506)"/><path d="M258.45055,108.65224c0,-2.70006 2.18883,-4.88888 4.88889,-4.88888c2.70006,0 4.88889,2.18882 4.88889,4.88888c0,2.70006 -2.18883,4.88889 -4.88889,4.88889c-2.70006,0 -4.88889,-2.18883 -4.88889,-4.88889z" data-paper-data="{&quot;origPos&quot;:null}" fill="#c379ff" stroke="none" stroke-width="0" stroke-linecap="butt" transform="matrix(1,0,0,1,-194.76632,-87.36506)"/><path d="M 20.0991 43.9 L 21.5991 63.5667 " data-paper-data="{&quot;origPos&quot;:null}" fill="none" stroke="#838383" stroke-width="2" stroke-linecap="round"/><path d="M 30.0991 64.7333 L 20.7658 44.2333 " data-paper-data="{&quot;origPos&quot;:null}" fill="none" stroke="#838383" stroke-width="2" stroke-linecap="round"/><path d="M 38.4325 63.0667 L 22.2658 45.4 " data-paper-data="{&quot;origPos&quot;:null}" fill="none" stroke="#838383" stroke-width="2" stroke-linecap="round"/><path d="M 16.0669 87.5094 C 16.0669 87.5094 12.1825 84.1402 10.2297 84.2239 C 7.7817 84.3289 4.7903 87.9929 4.7903 87.9929 L 1.3338 68.5267 L 12.0501 55.9538 L 44.1842 64.2871 L 43.9119 76.8427 C 43.9119 76.8427 40.8719 73.7725 39.3183 74.3677 C 37.7112 74.9833 35.8132 79.9451 35.8132 79.9451 C 35.8132 79.9451 32.1934 77.2782 30.3124 78.0604 C 28.4365 78.8404 26.1864 83.948 26.1864 83.948 C 26.1864 83.948 22.3392 81.6658 20.2253 82.4097 C 18.3899 83.0557 16.0668 87.5094 16.0668 87.5094 Z " data-paper-data="{&quot;origPos&quot;:null}" fill="#252525" stroke="#000000" stroke-width="2.5" stroke-linecap="butt"/><path d="M 1.0991 68.2333 L 11.7639 54.9744 L 42.1146 63.3265 " data-paper-data="{&quot;origPos&quot;:null}" fill="none" stroke="#838383" stroke-width="2" stroke-linecap="round"/><path d="M 33.7792 85.8144 C 33.7792 85.8144 36.6993 75.1298 39.6411 68.7199 C 42.5829 62.3101 44.6883 62.0445 44.6883 62.0445 " data-paper-data="{&quot;origPos&quot;:null,&quot;index&quot;:null}" fill="#000000" stroke="#000000" stroke-width="5" stroke-linecap="round"/><g data-paper-data="{&quot;origPos&quot;:null,&quot;origRot&quot;:0,&quot;index&quot;:null}" stroke-linecap="round"><path d="M 30.9195 89.7422 C 30.9195 89.7422 30.4534 88.4299 30.6749 87.8112 C 30.8964 87.1924 31.5844 85.88 31.5844 85.88 " data-paper-data="{&quot;origPos&quot;:null,&quot;origRot&quot;:0}" stroke-width="1" fill="none" stroke="#cccccc"/><path d="M 33.1465 90.1339 C 33.1465 90.1339 32.6569 88.6632 32.7302 88.0317 C 32.8034 87.4003 33.4401 86.4194 33.4401 86.4194 " data-paper-data="{&quot;origPos&quot;:null,&quot;origRot&quot;:0}" stroke-width="1" fill="none" stroke="#cccccc"/><path d="M 36.0595 90.4424 C 36.0595 90.4424 35.131 89.0345 34.9838 88.4161 C 34.8366 87.7977 35.0797 86.594 35.0797 86.594 " data-paper-data="{&quot;origPos&quot;:null,&quot;origRot&quot;:0}" stroke-width="1" fill="none" stroke="#cccccc"/></g><path d="M 8.5991 80.0667 L 11.9325 55.5667 " data-paper-data="{&quot;origPos&quot;:null}" fill="none" stroke="#838383" stroke-width="2" stroke-linecap="round"/><path d="M 12.5991 56.2333 L 20.0991 78.5667 " data-paper-data="{&quot;origPos&quot;:null}" fill="none" stroke="#838383" stroke-width="2" stroke-linecap="round"/><path d="M 12.9325 55.2333 L 30.7658 74.4 " data-paper-data="{&quot;origPos&quot;:null}" fill="none" stroke="#838383" stroke-width="2" stroke-linecap="round"/><path d="M224.44775,101.56506v-13h8v13z" data-paper-data="{&quot;origPos&quot;:null}" fill="#737373" stroke="none" stroke-width="0" stroke-linecap="butt" transform="matrix(1,0,0,1,-194.76632,-87.36506)"/><path d="M 56.5404 18.6857 L 56.5404 24.2571 " data-paper-data="{&quot;origPos&quot;:null}" fill="none" stroke="#8c00ff" stroke-width="2" stroke-linecap="round"/><path d="M 69.9689 24.5429 L 69.9689 18.9714 " data-paper-data="{&quot;origPos&quot;:null}" fill="none" stroke="#8c00ff" stroke-width="2" stroke-linecap="round"/><path d="M 60.462 19.3983 L 52.462 14.0649 " data-paper-data="{&quot;origPos&quot;:null}" fill="none" stroke="#838383" stroke-width="2.5" stroke-linecap="round"/><path d="M 63.462 19.6205 L 71.9064 15.2872 " data-paper-data="{&quot;origPos&quot;:null}" fill="none" stroke="#838383" stroke-width="2.5" stroke-linecap="round"/></g></g></g></svg>