<svg xmlns="http://www.w3.org/2000/svg" xmlns:xlink="http://www.w3.org/1999/xlink" version="1.1" width="6.21609" height="6.44884" viewBox="0,0,6.21609,6.44884"><g><g data-paper-data="{&quot;isPaintingLayer&quot;:true}" fill-rule="nonzero" stroke-linecap="butt" stroke-linejoin="miter" stroke-miterlimit="10" stroke-dasharray="" stroke-dashoffset="0" style="mix-blend-mode: normal"><path d="M237.25,180c0,-1.21174 0.18373,-2.74044 1.27194,-3.10684c0.27574,-0.09284 1.17102,0.35684 1.47806,0.35684c1.20337,0 2.52621,0.47293 2.89915,1.54941c0.09775,0.28216 -0.74915,0.68517 -0.74915,1.00059c0,1.23005 -0.20758,3.07148 -1.32146,3.42299c-0.26146,0.08251 -0.5398,-0.47299 -0.82854,-0.47299c-0.42012,0 -0.42741,0.80121 -1.01056,0.51925c-0.69192,-0.33454 -1.94987,-1.78616 -2.22088,-2.16169c-0.32629,-0.45213 0.48145,-0.50739 0.48145,-1.10756z" stroke-width="0" fill="#ffffff" stroke="none" transform="matrix(1,0,0,1,-236.69092,-176.88054)"/></g></g></svg>