<svg xmlns="http://www.w3.org/2000/svg" xmlns:xlink="http://www.w3.org/1999/xlink" version="1.1" width="60.047298431396484" height="157.9062957763672" viewBox="-1 -0.5 60.047298431396484 157.9062957763672"><g><g data-paper-data="{&quot;isPaintingLayer&quot;:true}" fill-rule="nonzero" stroke-linecap="none" stroke-linejoin="miter" stroke-miterlimit="10" stroke-dasharray="" stroke-dashoffset="0" font-family="none" font-weight="none" font-size="none" text-anchor="none" style="mix-blend-mode: normal"><path d="M 27.32 49.4404 L 27.32 116.7375 L 15.2723 155.6563 " data-paper-data="{&quot;origPos&quot;:null}" fill="none" stroke="#000000" stroke-width="3.5" stroke-linecap="round"/><path d="M 28.1231 115.3008 L 40.1708 155.4595 " fill="none" stroke="#000000" stroke-width="3.5" stroke-linecap="round"/><path d="M 3.2247 26.55 C 3.2247 12.5772 14.5519 1.25 28.5247 1.25 C 42.4975 1.25 53.8247 12.5772 53.8247 26.55 C 53.8247 40.5228 42.4975 51.85 28.5247 51.85 C 14.5519 51.85 3.2247 40.5228 3.2247 26.55 Z " data-paper-data="{&quot;origPos&quot;:null}" fill="#d4d4d4" stroke="#000000" stroke-width="2.5" stroke-linecap="butt"/><path d="M238.1447,108.99205c0,-2.66149 2.15756,-4.81905 4.81905,-4.81905c2.66149,0 4.81905,2.15756 4.81905,4.81905c0,2.66149 -2.15756,4.81905 -4.81905,4.81905c-2.66149,0 -4.81905,-2.15756 -4.81905,-4.81905z" data-paper-data="{&quot;origPos&quot;:null}" fill="#000000" stroke="none" stroke-width="0" stroke-linecap="butt" transform="matrix(1,0,0,1,-214.03744,-88.46585)"/><path d="M251.79867,108.99205c0,-2.66148 2.15757,-4.81905 4.81905,-4.81905c2.66148,0 4.81905,2.15757 4.81905,4.81905c0,2.66148 -2.15757,4.81905 -4.81905,4.81905c-2.66148,0 -4.81905,-2.15757 -4.81905,-4.81905z" data-paper-data="{&quot;origPos&quot;:null}" fill="#000000" stroke="none" stroke-width="0" stroke-linecap="butt" transform="matrix(1,0,0,1,-214.03744,-88.46585)"/><path d="M 24.3263 13.5198 L 33.4533 17.1706 " data-paper-data="{&quot;origPos&quot;:null}" fill="none" stroke="#000000" stroke-width="2.5" stroke-linecap="round"/><path d="M 38.5644 16.8405 L 45.5009 13.5548 " data-paper-data="{&quot;origPos&quot;:null}" fill="none" stroke="#000000" stroke-width="2.5" stroke-linecap="round"/><path d="M 10.3184 87.3357 L 26.0168 57.7643 " data-paper-data="{&quot;origPos&quot;:null}" fill="none" stroke="#000000" stroke-width="3.5" stroke-linecap="round"/><path d="M 46.9057 69.8357 C 46.9057 69.8357 38.5503 83.4105 35.6027 77.858 C 32.4238 71.8699 28.2073 57.7643 28.2073 57.7643 " data-paper-data="{&quot;origPos&quot;:null,&quot;index&quot;:null}" fill="none" stroke="#000000" stroke-width="3.5" stroke-linecap="round"/><path d="M 4.7752 101.5995 C 4.7752 101.5995 5.138 97.4339 5.8052 95.3116 C 6.8307 92.0493 9.1125 87.802 9.1125 87.802 " data-paper-data="{&quot;origPos&quot;:null}" fill="none" stroke="#a2a2a2" stroke-width="1.5" stroke-linecap="round"/><path d="M 7.8863 102.385 C 7.8863 102.385 7.7259 98.2068 8.1226 96.0177 C 8.7325 92.6528 10.4658 88.1537 10.4658 88.1537 " data-paper-data="{&quot;origPos&quot;:null,&quot;origRot&quot;:0}" fill="none" stroke="#a2a2a2" stroke-width="1.5" stroke-linecap="round"/><path d="M 11.7041 102.68 C 11.7041 102.68 10.8243 98.5923 10.837 96.3676 C 10.8564 92.948 11.7864 88.2171 11.7864 88.2171 " data-paper-data="{&quot;origPos&quot;:null,&quot;origRot&quot;:0}" fill="none" stroke="#a2a2a2" stroke-width="1.5" stroke-linecap="round"/><path d="M 52.2856 51.0567 C 52.2856 51.0567 52.019 56.497 51.4009 59.2833 C 50.4509 63.5663 48.2677 69.171 48.2677 69.171 " data-paper-data="{&quot;origPos&quot;:null}" fill="none" stroke="#a4a4a4" stroke-width="1.5" stroke-linecap="round"/><path d="M 49.1572 50.1264 C 49.1572 50.1264 49.414 55.5675 49.0678 58.4327 C 48.5357 62.8369 46.9067 68.7532 46.9067 68.7532 " data-paper-data="{&quot;origPos&quot;:null,&quot;origRot&quot;:0}" fill="none" stroke="#a4a4a4" stroke-width="1.5" stroke-linecap="round"/><path d="M 45.3336 49.8567 C 45.3336 49.8567 46.3075 55.1582 46.3461 58.0583 C 46.4056 62.5161 45.5849 68.7103 45.5849 68.7103 " data-paper-data="{&quot;origPos&quot;:null,&quot;origRot&quot;:0}" fill="none" stroke="#a4a4a4" stroke-width="1.5" stroke-linecap="round"/><path d="M 57.2973 54.5124 C 57.2973 54.5124 55.4825 59.6481 54.0918 62.1404 C 51.9541 65.9714 48.2561 70.7152 48.2561 70.7152 " data-paper-data="{&quot;origPos&quot;:null,&quot;origRot&quot;:0}" fill="none" stroke="#a4a4a4" stroke-width="1.5" stroke-linecap="round"/><path d="M 0.75 98.5921 C 0.75 98.5921 2.382 94.7424 3.6721 92.93 C 5.6553 90.144 9.1377 86.8094 9.1377 86.8094 " data-paper-data="{&quot;origPos&quot;:null,&quot;origRot&quot;:0}" fill="none" stroke="#a2a2a2" stroke-width="1.5" stroke-linecap="round"/></g></g></svg>