<svg xmlns="http://www.w3.org/2000/svg" xmlns:xlink="http://www.w3.org/1999/xlink" version="1.1" width="499.54382" height="369.27271" viewBox="0,0,499.54382,369.27271"><defs><radialGradient cx="21.27933" cy="14.23673" r="243.64729" gradientUnits="userSpaceOnUse" id="color-1"><stop offset="0" stop-color="#7d3030"/><stop offset="1" stop-color="#001950"/></radialGradient><radialGradient cx="309.55724" cy="312.00504" r="26.77191" gradientUnits="userSpaceOnUse" id="color-2"><stop offset="0" stop-color="#ffd366"/><stop offset="1" stop-color="#ffd366" stop-opacity="0"/></radialGradient><radialGradient cx="130.55724" cy="312.00504" r="26.77191" gradientUnits="userSpaceOnUse" id="color-3"><stop offset="0" stop-color="#ffd366"/><stop offset="1" stop-color="#ffd366" stop-opacity="0"/></radialGradient><radialGradient cx="463.55724" cy="199.50505" r="26.77191" gradientUnits="userSpaceOnUse" id="color-4"><stop offset="0" stop-color="#ffd366"/><stop offset="1" stop-color="#ffd366" stop-opacity="0"/></radialGradient><radialGradient cx="8.7001" cy="90.57645" r="17.91477" gradientUnits="userSpaceOnUse" id="color-5"><stop offset="0" stop-color="#ffd366"/><stop offset="1" stop-color="#ffd366" stop-opacity="0"/></radialGradient></defs><g><g data-paper-data="{&quot;isPaintingLayer&quot;:true}" fill-rule="nonzero" stroke-linecap="butt" stroke-linejoin="miter" stroke-miterlimit="10" stroke-dasharray="" stroke-dashoffset="0" style="mix-blend-mode: normal"><path d="M-3.1433,363.28313v-367.25058h487.29457v367.25058z" data-paper-data="{&quot;origPos&quot;:null}" fill="url(#color-1)" stroke-width="NaN" stroke="none" transform="matrix(1,0,0,1,9.21467,5.98959)"/><path d="M-7.94101,39.01041c0,-24.85281 20.14719,-45 45,-45c24.85281,0 45,20.14719 45,45c0,24.85281 -20.14719,45 -45,45c-24.85281,0 -45,-20.14719 -45,-45z" data-paper-data="{&quot;origPos&quot;:null}" fill="#af0000" stroke-width="0" stroke="none" transform="matrix(1,0,0,1,9.21467,5.98959)"/><path d="M22.05899,16.5104c0,-8.00812 6.49188,-14.5 14.5,-14.5c8.00812,0 14.5,6.49188 14.5,14.5c0,8.00812 -6.49188,14.5 -14.5,14.5c-8.00812,0 -14.5,-6.49188 -14.5,-14.5z" data-paper-data="{&quot;origPos&quot;:null}" fill="#7a0000" stroke-width="0" stroke="none" transform="matrix(1,0,0,1,9.21467,5.98959)"/><path d="M54.05899,49.51041c0,-4.69442 3.80558,-8.5 8.5,-8.5c4.69442,0 8.5,3.80558 8.5,8.5c0,4.69442 -3.80558,8.5 -8.5,8.5c-4.69442,0 -8.5,-3.80558 -8.5,-8.5z" data-paper-data="{&quot;origPos&quot;:null}" fill="#7a0000" stroke-width="0" stroke="none" transform="matrix(1,0,0,1,9.21467,5.98959)"/><path d="M2.05899,35.51041c0,-5.24671 4.25329,-9.5 9.5,-9.5c5.24671,0 9.5,4.25329 9.5,9.5c0,5.24671 -4.25329,9.5 -9.5,9.5c-5.24671,0 -9.5,-4.25329 -9.5,-9.5z" data-paper-data="{&quot;origPos&quot;:null}" fill="#7a0000" stroke-width="0" stroke="none" transform="matrix(1,0,0,1,9.21467,5.98959)"/><path d="M 342.7737 80 C 342.7737 79.7239 342.9975 79.5 343.2737 79.5 C 343.5498 79.5 343.7737 79.7239 343.7737 80 C 343.7737 80.2761 343.5498 80.5 343.2737 80.5 C 342.9975 80.5 342.7737 80.2761 342.7737 80 Z " fill="#f5f5f5" stroke-width="0.5" stroke="none"/><path d="M 357.7737 184 C 357.7737 183.7239 357.9975 183.5 358.2737 183.5 C 358.5498 183.5 358.7737 183.7239 358.7737 184 C 358.7737 184.2762 358.5498 184.5 358.2737 184.5 C 357.9975 184.5 357.7737 184.2762 357.7737 184 Z " fill="#f5f5f5" stroke-width="0.5" stroke="none"/><path d="M 229.7737 280 C 229.7737 279.7239 229.9975 279.5 230.2737 279.5 C 230.5498 279.5 230.7737 279.7239 230.7737 280 C 230.7737 280.2761 230.5498 280.5 230.2737 280.5 C 229.9975 280.5 229.7737 280.2761 229.7737 280 Z " fill="#f5f5f5" stroke-width="0.5" stroke="none"/><path d="M 395.7737 330 C 395.7737 329.7239 395.9975 329.5 396.2737 329.5 C 396.5498 329.5 396.7737 329.7239 396.7737 330 C 396.7737 330.2761 396.5498 330.5 396.2737 330.5 C 395.9975 330.5 395.7737 330.2761 395.7737 330 Z " fill="#f5f5f5" stroke-width="0.5" stroke="none"/><path d="M 276.7737 191 C 276.7737 190.7239 276.9975 190.5 277.2737 190.5 C 277.5498 190.5 277.7737 190.7239 277.7737 191 C 277.7737 191.2762 277.5498 191.5 277.2737 191.5 C 276.9975 191.5 276.7737 191.2762 276.7737 191 Z " fill="#f5f5f5" stroke-width="0.5" stroke="none"/><path d="M 411.7737 93 C 411.7737 92.7239 411.9975 92.5 412.2737 92.5 C 412.5498 92.5 412.7737 92.7239 412.7737 93 C 412.7737 93.2762 412.5498 93.5 412.2737 93.5 C 411.9975 93.5 411.7737 93.2762 411.7737 93 Z " fill="#f5f5f5" stroke-width="0.5" stroke="none"/><path d="M 190.7737 88 C 190.7737 87.7239 190.9975 87.5 191.2737 87.5 C 191.5498 87.5 191.7737 87.7239 191.7737 88 C 191.7737 88.2761 191.5498 88.5 191.2737 88.5 C 190.9975 88.5 190.7737 88.2761 190.7737 88 Z " fill="#f5f5f5" stroke-width="0.5" stroke="none"/><path d="M 65.7737 257 C 65.7737 256.7239 65.9975 256.5 66.2737 256.5 C 66.5498 256.5 66.7737 256.7239 66.7737 257 C 66.7737 257.2762 66.5498 257.5 66.2737 257.5 C 65.9975 257.5 65.7737 257.2762 65.7737 257 Z " fill="#f5f5f5" stroke-width="0.5" stroke="none"/><path d="M 135.7737 364.0001 C 135.7737 363.7239 135.9975 363.5001 136.2737 363.5001 C 136.5498 363.5001 136.7737 363.7239 136.7737 364.0001 C 136.7737 364.2762 136.5498 364.5001 136.2737 364.5001 C 135.9975 364.5001 135.7737 364.2762 135.7737 364.0001 Z " fill="#f5f5f5" stroke-width="0.5" stroke="none"/><path d="M 142.7737 198 C 142.7737 197.7239 142.9975 197.5 143.2737 197.5 C 143.5498 197.5 143.7737 197.7239 143.7737 198 C 143.7737 198.2762 143.5498 198.5 143.2737 198.5 C 142.9975 198.5 142.7737 198.2762 142.7737 198 Z " fill="#f5f5f5" stroke-width="0.5" stroke="none"/><path d="M 320.7737 300 C 320.7737 299.7239 320.9975 299.5 321.2737 299.5 C 321.5498 299.5 321.7737 299.7239 321.7737 300 C 321.7737 300.2761 321.5498 300.5 321.2737 300.5 C 320.9975 300.5 320.7737 300.2761 320.7737 300 Z " fill="#f5f5f5" stroke-width="0.5" stroke="none"/><path d="M 415.5237 143 C 415.5237 142.5858 415.8594 142.25 416.2737 142.25 C 416.6879 142.25 417.0237 142.5858 417.0237 143 C 417.0237 143.4142 416.6879 143.75 416.2737 143.75 C 415.8594 143.75 415.5237 143.4142 415.5237 143 Z " fill="#f5f5f5" stroke-width="0.5" stroke="none"/><path d="M 280.5237 60 C 280.5237 59.5858 280.8594 59.25 281.2737 59.25 C 281.6879 59.25 282.0237 59.5858 282.0237 60 C 282.0237 60.4142 281.6879 60.75 281.2737 60.75 C 280.8594 60.75 280.5237 60.4142 280.5237 60 Z " fill="#f5f5f5" stroke-width="0.5" stroke="none"/><path d="M 165.5237 334 C 165.5237 333.5858 165.8595 333.25 166.2737 333.25 C 166.6879 333.25 167.0237 333.5858 167.0237 334 C 167.0237 334.4142 166.6879 334.75 166.2737 334.75 C 165.8595 334.75 165.5237 334.4142 165.5237 334 Z " fill="#f5f5f5" stroke-width="0.5" stroke="none"/><path d="M 420.0237 16 C 420.0237 15.3096 420.5833 14.75 421.2737 14.75 C 421.964 14.75 422.5237 15.3096 422.5237 16 C 422.5237 16.6904 421.964 17.25 421.2737 17.25 C 420.5833 17.25 420.0237 16.6904 420.0237 16 Z " fill="#f5f5f5" stroke-width="0.5" stroke="none"/><path d="M 323.0237 235 C 323.0237 234.3097 323.5833 233.75 324.2737 233.75 C 324.964 233.75 325.5237 234.3097 325.5237 235 C 325.5237 235.6904 324.964 236.25 324.2737 236.25 C 323.5833 236.25 323.0237 235.6904 323.0237 235 Z " fill="#f5f5f5" stroke-width="0.5" stroke="none"/><path d="M 49.0237 175 C 49.0237 174.3097 49.5833 173.75 50.2737 173.75 C 50.964 173.75 51.5237 174.3097 51.5237 175 C 51.5237 175.6904 50.964 176.25 50.2737 176.25 C 49.5833 176.25 49.0237 175.6904 49.0237 175 Z " fill="#f5f5f5" stroke-width="0.5" stroke="none"/><path d="M 453.5237 282 C 453.5237 281.0335 454.3072 280.25 455.2737 280.25 C 456.2402 280.25 457.0237 281.0335 457.0237 282 C 457.0237 282.9665 456.2402 283.75 455.2737 283.75 C 454.3072 283.75 453.5237 282.9665 453.5237 282 Z " fill="#f5f5f5" stroke-width="0.5" stroke="none"/><path d="M 72.5237 336 C 72.5237 335.0335 73.3072 334.25 74.2737 334.25 C 75.2402 334.25 76.0237 335.0335 76.0237 336 C 76.0237 336.9665 75.2402 337.75 74.2737 337.75 C 73.3072 337.75 72.5237 336.9665 72.5237 336 Z " fill="#f5f5f5" stroke-width="0.5" stroke="none"/><path d="M 223.5237 104 C 223.5237 103.0335 224.3072 102.25 225.2737 102.25 C 226.2402 102.25 227.0237 103.0335 227.0237 104 C 227.0237 104.9665 226.2402 105.75 225.2737 105.75 C 224.3072 105.75 223.5237 104.9665 223.5237 104 Z " fill="#f5f5f5" stroke-width="0.5" stroke="none"/><path d="M 136.7737 30 C 136.7737 29.7239 136.9975 29.5 137.2737 29.5 C 137.5498 29.5 137.7737 29.7239 137.7737 30 C 137.7737 30.2761 137.5498 30.5 137.2737 30.5 C 136.9975 30.5 136.7737 30.2761 136.7737 30 Z " fill="#f5f5f5" stroke-width="0.5" stroke="none"/><path d="M 69.7737 92 C 69.7737 91.7239 69.9975 91.5 70.2737 91.5 C 70.5498 91.5 70.7737 91.7239 70.7737 92 C 70.7737 92.2762 70.5498 92.5 70.2737 92.5 C 69.9975 92.5 69.7737 92.2762 69.7737 92 Z " fill="#f5f5f5" stroke-width="0.5" stroke="none"/><path d="M20.05899,56.5104c0,-6.35128 5.14872,-11.5 11.5,-11.5c6.35128,0 11.5,5.14872 11.5,11.5c0,6.35128 -5.14872,11.5 -11.5,11.5c-6.35128,0 -11.5,-5.14872 -11.5,-11.5z" data-paper-data="{&quot;origPos&quot;:null}" fill="#7a0000" stroke-width="0" stroke="none" transform="matrix(1,0,0,1,9.21467,5.98959)"/><g><path d="M282.78533,312.00504c0,-14.78572 11.98619,-26.77191 26.77191,-26.77191c14.78572,0 26.77191,11.98619 26.77191,26.77191c0,14.78572 -11.98619,26.77191 -26.77191,26.77191c-14.78572,0 -26.77191,-11.98619 -26.77191,-26.77191z" data-paper-data="{&quot;index&quot;:null}" fill="url(#color-2)" stroke-width="0" stroke="none" transform="matrix(1,0,0,1,9.21467,5.98959)"/><path d="M103.78533,312.00504c0,-14.78572 11.98619,-26.77191 26.77191,-26.77191c14.78572,0 26.77191,11.98619 26.77191,26.77191c0,14.78572 -11.98619,26.77191 -26.77191,26.77191c-14.78572,0 -26.77191,-11.98619 -26.77191,-26.77191z" fill="url(#color-3)" stroke-width="0" stroke="none" transform="matrix(1,0,0,1,9.21467,5.98959)"/><g><path d="M130.99687,321.07849v-8.4953h4.89614v8.4953z" fill="#a87999" stroke-width="0" stroke="none" transform="matrix(1,0,0,1,9.21467,5.98959)"/><path d="M124.64569,320.59988v-8.49529h4.89614v8.49529z" fill="#d47981" stroke-width="0" stroke="none" transform="matrix(1,0,0,1,9.21467,5.98959)"/><path d="M127.98387,321.73425v-8.68212h5.39831v8.68212z" fill="#b4888b" stroke-width="0" stroke="none" transform="matrix(1,0,0,1,9.21467,5.98959)"/><path d="M132.10141,311.74866c0,1.27237 -0.66742,1.49071 -1.49071,1.49071c-0.8233,0 -1.51851,-0.21864 -1.49071,-1.49071c0.06776,-3.10188 2.77815,-3.5235 2.77815,-3.5235c0,0 -0.65114,1.04337 -0.59099,2.11095c0.0282,0.50055 0.79427,1.00642 0.79427,1.41256z" data-paper-data="{&quot;index&quot;:null}" fill="#ffb500" stroke-width="0" stroke="none" transform="matrix(1,0,0,1,9.21467,5.98959)"/><path d="M128.25518,310.97146c0,1.11762 -0.58625,1.30941 -1.30941,1.30941c-0.72316,0 -1.33383,-0.19205 -1.30942,-1.30941c0.05952,-2.72463 2.44026,-3.09498 2.44026,-3.09498c0,0 -0.57194,0.91647 -0.51911,1.85421c0.02477,0.43967 0.69767,0.88402 0.69767,1.24077z" data-paper-data="{&quot;index&quot;:null}" fill="#ffb500" stroke-width="0" stroke="none" transform="matrix(1,0,0,1,9.21467,5.98959)"/><path d="M134.9777,311.51649c0,1.04885 -0.55017,1.22883 -1.22884,1.22883c-0.67866,0 -1.25173,-0.18023 -1.22883,-1.22883c0.05586,-2.55696 2.29009,-2.90452 2.29009,-2.90452c0,0 -0.53674,0.86007 -0.48716,1.7401c0.02325,0.41262 0.65473,0.82962 0.65473,1.16442z" data-paper-data="{&quot;index&quot;:null}" fill="#ffb500" stroke-width="0" stroke="none" transform="matrix(1,0,0,1,9.21467,5.98959)"/></g><g><path d="M309.99687,321.07849v-8.4953h4.89614v8.4953z" fill="#6eab9c" stroke-width="0" stroke="none" transform="matrix(1,0,0,1,9.21467,5.98959)"/><path d="M303.64569,320.59988v-8.49529h4.89614v8.49529z" fill="#8cab8e" stroke-width="0" stroke="none" transform="matrix(1,0,0,1,9.21467,5.98959)"/><path d="M306.98386,321.73425v-8.68212h5.3983v8.68212z" fill="#8f9c7d" stroke-width="0" stroke="none" transform="matrix(1,0,0,1,9.21467,5.98959)"/><path d="M311.10141,311.74866c0,1.27237 -0.66742,1.49071 -1.49072,1.49071c-0.8233,0 -1.5185,-0.21864 -1.49071,-1.49071c0.06776,-3.10188 2.77815,-3.5235 2.77815,-3.5235c0,0 -0.65115,1.04337 -0.591,2.11095c0.0282,0.50055 0.79428,1.00642 0.79428,1.41256z" data-paper-data="{&quot;index&quot;:null}" fill="#ffb500" stroke-width="0" stroke="none" transform="matrix(1,0,0,1,9.21467,5.98959)"/><path d="M307.25518,310.97146c0,1.11762 -0.58625,1.30941 -1.30941,1.30941c-0.72316,0 -1.33382,-0.19205 -1.30942,-1.30941c0.05952,-2.72463 2.44027,-3.09498 2.44027,-3.09498c0,0 -0.57195,0.91647 -0.51911,1.85421c0.02477,0.43967 0.69767,0.88402 0.69767,1.24077z" data-paper-data="{&quot;index&quot;:null}" fill="#ffb500" stroke-width="0" stroke="none" transform="matrix(1,0,0,1,9.21467,5.98959)"/><path d="M313.9777,311.51649c0,1.04885 -0.55017,1.22883 -1.22884,1.22883c-0.67867,0 -1.25173,-0.18023 -1.22883,-1.22883c0.05586,-2.55696 2.2901,-2.90452 2.2901,-2.90452c0,0 -0.53674,0.86007 -0.48717,1.7401c0.02325,0.41262 0.65474,0.82962 0.65474,1.16442z" data-paper-data="{&quot;index&quot;:null}" fill="#ffb500" stroke-width="0" stroke="none" transform="matrix(1,0,0,1,9.21467,5.98959)"/></g></g><g><g data-paper-data="{&quot;index&quot;:null}"><path d="M436.78533,199.50505c0,-14.78572 11.98619,-26.77191 26.77191,-26.77191c14.78572,0 26.77191,11.98619 26.77191,26.77191c0,14.78572 -11.98619,26.77191 -26.77191,26.77191c-14.78572,0 -26.77191,-11.98619 -26.77191,-26.77191z" data-paper-data="{&quot;index&quot;:null}" fill="url(#color-4)" stroke-width="0" stroke="none" transform="matrix(1,0,0,1,9.21467,5.98959)"/><g><path d="M463.99687,208.57849v-8.4953h4.89614v8.4953z" fill="#b07f70" stroke-width="0" stroke="none" transform="matrix(1,0,0,1,9.21467,5.98959)"/><path d="M457.64569,208.09989v-8.49529h4.89614v8.49529z" fill="#a55e48" stroke-width="0" stroke="none" transform="matrix(1,0,0,1,9.21467,5.98959)"/><path d="M460.98386,209.23427v-8.68212h5.3983v8.68212z" fill="#d18770" stroke-width="0" stroke="none" transform="matrix(1,0,0,1,9.21467,5.98959)"/><path d="M465.10141,199.24869c0,1.27237 -0.66742,1.49071 -1.49072,1.49071c-0.8233,0 -1.5185,-0.21864 -1.49071,-1.49071c0.06776,-3.10188 2.77815,-3.5235 2.77815,-3.5235c0,0 -0.65115,1.04337 -0.591,2.11095c0.0282,0.50055 0.79428,1.00642 0.79428,1.41256z" data-paper-data="{&quot;index&quot;:null}" fill="#ffb500" stroke-width="0" stroke="none" transform="matrix(1,0,0,1,9.21467,5.98959)"/><path d="M461.25518,198.47149c0,1.11762 -0.58625,1.30941 -1.30941,1.30941c-0.72316,0 -1.33382,-0.19205 -1.30942,-1.30941c0.05952,-2.72463 2.44027,-3.09498 2.44027,-3.09498c0,0 -0.57195,0.91647 -0.51911,1.85421c0.02477,0.43967 0.69767,0.88402 0.69767,1.24077z" data-paper-data="{&quot;index&quot;:null}" fill="#ffb500" stroke-width="0" stroke="none" transform="matrix(1,0,0,1,9.21467,5.98959)"/><path d="M467.9777,199.01651c0,1.04885 -0.55017,1.22883 -1.22884,1.22883c-0.67867,0 -1.25173,-0.18023 -1.22883,-1.22883c0.05586,-2.55696 2.2901,-2.90452 2.2901,-2.90452c0,0 -0.53674,0.86007 -0.48717,1.7401c0.02325,0.41262 0.65474,0.82962 0.65474,1.16442z" data-paper-data="{&quot;index&quot;:null}" fill="#ffb500" stroke-width="0" stroke="none" transform="matrix(1,0,0,1,9.21467,5.98959)"/></g></g><g><path d="M-9.21467,90.57645c0,-9.89405 8.02071,-17.91477 17.91477,-17.91477c9.89405,0 17.91477,8.02071 17.91477,17.91477c0,9.89405 -8.02071,17.91477 -17.91477,17.91477c-9.89405,0 -17.91477,-8.02071 -17.91477,-17.91477z" fill="url(#color-5)" stroke-width="0" stroke="none" transform="matrix(1,0,0,1,9.21467,5.98959)"/><g><path d="M6.26958,100.73425v-8.68212h5.39831v8.68212z" fill="#565eb5" stroke-width="0" stroke="none" transform="matrix(1,0,0,1,9.21467,5.98959)"/><path d="M10.38712,90.74866c0,1.27237 -0.66742,1.49071 -1.49071,1.49071c-0.8233,0 -1.51851,-0.21864 -1.49071,-1.49071c0.06776,-3.10188 2.77815,-3.5235 2.77815,-3.5235c0,0 -0.65114,1.04337 -0.59099,2.11095c0.0282,0.50055 0.79427,1.00642 0.79427,1.41256z" data-paper-data="{&quot;index&quot;:null}" fill="#ffb500" stroke-width="0" stroke="none" transform="matrix(1,0,0,1,9.21467,5.98959)"/></g></g></g></g></g></svg>