<svg xmlns="http://www.w3.org/2000/svg" xmlns:xlink="http://www.w3.org/1999/xlink" version="1.1" width="33.03974" height="31.72807" viewBox="0,0,33.03974,31.72807"><g><g data-paper-data="{&quot;isPaintingLayer&quot;:true}" fill-rule="nonzero" stroke-linejoin="miter" stroke-miterlimit="10" stroke-dasharray="" stroke-dashoffset="0" style="mix-blend-mode: normal"><path d="M 14.9766 4.1571 L 14.9766 0 L 17.7142 0 L 17.7142 4.1571 Z " data-paper-data="{&quot;origPos&quot;:null}" fill="#995400" stroke="none" stroke-linecap="butt" stroke-width="1"/><path d="M 32.5397 17.4388 C 32.5397 25.0544 25.3674 31.2281 16.5199 31.2281 C 7.6723 31.2281 0.5 25.0544 0.5 17.4388 C 0.5 9.8232 7.6723 3.6496 16.5199 3.6496 C 25.3674 3.6496 32.5397 9.8232 32.5397 17.4388 Z " data-paper-data="{&quot;origPos&quot;:null}" fill="#ff9700" stroke="#e38b00" stroke-linecap="butt" stroke-width="1"/><path d="M 14.7125 30.3539 C 14.7125 30.3539 11.5354 25.1512 11.4836 17.2454 C 11.4368 10.1042 14.8338 3.7755 14.8338 3.7755 " fill="none" stroke="#e38b00" stroke-linecap="round" stroke-width="1"/><path d="M 17.688 3.7755 C 17.688 3.7755 21.0851 10.1042 21.0383 17.2454 C 20.9864 25.1511 17.8094 30.3539 17.8094 30.3539 " data-paper-data="{&quot;index&quot;:null}" fill="none" stroke="#e38b00" stroke-linecap="round" stroke-width="1"/><path d="M 13.5429 30.2325 C 13.5429 30.2325 5.071 26.6057 4.7559 17.124 C 4.4571 8.1282 13.775 3.6541 13.775 3.6541 " data-paper-data="{&quot;index&quot;:null}" fill="none" stroke="#e38b00" stroke-linecap="round" stroke-width="1"/><path d="M 19.2323 3.6541 C 19.2323 3.6541 27.7341 8.406 27.8873 17.124 C 28.0405 25.8428 19.4644 30.2325 19.4644 30.2325 " data-paper-data="{&quot;index&quot;:null}" fill="none" stroke="#e38b00" stroke-linecap="round" stroke-width="1"/><g stroke-linecap="butt"><path d="M 12.8841 17.0261 C 10.1485 15.807 10.9577 10.8412 10.9577 10.8412 L 20.2857 14.9983 C 20.2857 14.9983 15.6198 18.2452 12.8841 17.0261 Z " stroke-width="1" fill="#ff0000" stroke="none"/><path d="M 21.7681 14.9673 L 31.0961 10.8102 C 31.0961 10.8102 31.9053 15.776 29.1696 16.9951 C 26.434 18.2143 21.7681 14.9673 21.7681 14.9673 Z " data-paper-data="{&quot;index&quot;:null}" stroke-width="1" fill="#ff0000" stroke="none"/></g></g></g></svg>