<svg version="1.1" xmlns="http://www.w3.org/2000/svg" xmlns:xlink="http://www.w3.org/1999/xlink" width="62.1026" height="58.06918" viewBox="0,0,62.1026,58.06918"><g transform="translate(-212.9121,-156.48797)"><g data-paper-data="{&quot;isPaintingLayer&quot;:true}" fill="#ffffff" fill-rule="nonzero" stroke="#ffffff" stroke-width="1" stroke-linecap="butt" stroke-linejoin="miter" stroke-miterlimit="10" stroke-dasharray="" stroke-dashoffset="0" style="mix-blend-mode: normal"><path d="M264.51611,180.71899c-0.5,0 -0.5,-0.5 -0.5,-0.5l0.12227,-0.80128c1.45638,-1.67093 5.02393,-3.80757 7.7391,-4.42625c-2.7502,-0.26321 -7.13589,-0.53386 -7.99542,-2.9883c-0.65625,-1.87396 1.97274,-3.32521 3.22347,-4.05773c0.25557,-0.14968 0.64843,-0.49476 0.99173,-0.76234c-0.12606,-0.01482 -0.24852,-0.02961 -0.34726,-0.02732c-3.35866,0.47764 -7.10946,1.09271 -10.49707,1.08954c-1.15129,-0.00108 -3.25832,-0.16498 -3.63644,-1.61827c-0.39932,-1.53476 0.27088,-3.47063 0.46514,-4.99462c0.30466,-0.89535 0.587,-1.77493 0.83487,-2.68733c0.03952,-0.14548 0.09369,-0.39051 0.15585,-0.61406c-0.6405,0.47321 -1.99975,1.08981 -2.2277,1.20375c-2.53186,1.26559 -4.85925,3.41191 -7.62835,4.11665c0,0 -0.48507,0.12127 -0.60634,-0.3638c-0.12127,-0.48507 0.3638,-0.60634 0.3638,-0.60634c2.81863,-0.68969 5.54888,-3.00162 8.09587,-4.37682c0.51319,-0.27709 2.24057,-1.66014 2.88449,-1.23647c0.92867,0.61102 -0.63467,4.03213 -0.89831,4.7902c-0.17433,1.42504 -0.71182,3.03448 -0.48223,4.47906c0.14617,0.91968 2.11579,0.90862 2.67935,0.90805c3.36619,-0.00339 7.08045,-0.6123 10.41705,-1.08633c5.85994,-0.09153 -3.51839,3.7684 -2.83564,5.53901c0.85821,2.22565 6.45184,2.14343 8.36645,2.44002l0.66814,0.05603c0.25884,0.01896 0.46296,0.23497 0.46296,0.49865c0,0.17631 -0.09125,0.3313 -0.2291,0.42033l-0.8256,0.5504l-0.09657,-0.14485c-2.59519,1.77215 -6.11833,2.04023 -8.2868,4.55435l0.12227,0.14609c0,0 0,0.5 -0.5,0.5z"/><path d="M229.7415,210.8128c0.35355,-0.35355 0.70711,0 0.70711,0l-0.19566,0.01145c0.44082,0.01219 0.8973,-0.1332 1.27089,-0.36751c1.41234,-1.43213 2.33411,-5.30477 4.30961,-5.77951c1.05171,-0.25274 2.11605,0.69459 2.89138,1.23433c2.45525,1.70921 4.64803,4.0546 6.84387,6.08113c2.02661,1.88609 3.26902,1.19268 4.19265,-1.19341c1.24956,-3.22807 0.83371,-6.80114 0.83371,-10.21187c0,0 0,-0.5 0.5,-0.5c0.5,0 0.5,0.5 0.5,0.5c0,3.54381 0.40427,7.21957 -0.9015,10.57379c-1.17808,3.02623 -3.26218,3.90066 -5.80364,1.56584c-2.15616,-1.99627 -4.32089,-4.3143 -6.73631,-5.99468c-0.48178,-0.33517 -1.43132,-1.22938 -2.11274,-1.07688c-1.33565,0.29893 -2.79701,4.48983 -3.90092,5.58891c-0.56856,0.33127 -1.2291,0.56692 -1.88701,0.57986l-0.51145,-0.30434c0,0 -0.35355,-0.35355 0,-0.70711z"/><path d="M228.47227,158.08933c0.49807,-0.04384 0.54191,0.45424 0.54191,0.45424l0.03653,0.42156c0.17221,1.26379 1.29936,6.49063 -0.13286,7.32194c-0.48482,0.2814 -1.90601,-0.57401 -2.28734,-0.83284c-1.3992,-0.94973 -4.28333,-3.22031 -5.20249,-5.13061c-0.12007,4.22527 -1.43023,7.02316 -4.52523,10.1071c-2.23393,3.3851 3.08669,4.64723 4.3297,7.20866c1.42022,2.92661 -2.65026,5.2884 -4.54639,6.70497c-0.96495,0.83716 -3.26623,2.75539 -2.2493,4.26341c0.55373,0.82114 2.17199,1.11506 3.0256,1.3996c2.49833,0.8328 5.07941,1.37735 7.58026,2.21096c0,0 0.47434,0.15811 0.31623,0.63246c-0.15811,0.47434 -0.63246,0.31623 -0.63246,0.31623c-3.59544,-1.19848 -14.97144,-2.3776 -10.13581,-8.11356c0.44893,-0.53251 0.94249,-1.02973 1.46754,-1.48737c1.3748,-1.02856 5.4174,-3.27964 4.26791,-5.50433c-1.57123,-3.04093 -7.07431,-3.98507 -4.19662,-8.26503c3.0903,-3.10095 4.30268,-5.72302 4.30772,-10.10427c0,-0.01324 0,-0.63136 0,-0.63136c0,-0.27614 0.22386,-0.5 0.5,-0.5c0.11438,0 0.21979,0.03841 0.30404,0.10303l0.62754,0.47065l-0.09401,0.12534c1.71433,1.28773 2.98213,3.41328 4.66974,4.76581c0.13286,0.10648 1.84678,1.4829 1.98569,1.38813c0.43087,-0.29396 -0.0132,-1.04386 0.01439,-1.56473c0.08321,-1.57119 -0.17196,-3.19061 -0.38466,-4.74908l-0.04185,-0.46901c0,0 -0.04384,-0.49807 0.45424,-0.54191z"/></g></g></svg>