<svg xmlns="http://www.w3.org/2000/svg" xmlns:xlink="http://www.w3.org/1999/xlink" version="1.1" width="79.79924011230469" height="157.5491943359375" viewBox="-0.5 -0.5 79.79924011230469 157.5491943359375"><defs><radialGradient cx="248.84882" cy="168.31113" r="9.75284" gradientUnits="userSpaceOnUse" id="color-1"><stop offset="0" stop-color="#fff4c0"/><stop offset="1" stop-color="#fff4c0" stop-opacity="0"/></radialGradient></defs><g><g data-paper-data="{&quot;isPaintingLayer&quot;:true}" fill-rule="nonzero" stroke-linecap="none" stroke-linejoin="miter" stroke-miterlimit="10" stroke-dasharray="" stroke-dashoffset="0" font-family="none" font-weight="none" font-size="none" text-anchor="none" style="mix-blend-mode: normal"><path d="M 47.4101 60.3002 C 47.4101 60.3002 50.6644 65.8068 51.4672 70.398 C 52.3719 75.5713 52.7852 83.6539 52.7852 83.6539 " data-paper-data="{&quot;origPos&quot;:null,&quot;origRot&quot;:0}" fill="none" stroke="#000000" stroke-width="3.5" stroke-linecap="round"/><g data-paper-data="{&quot;origPos&quot;:null}" stroke-linecap="butt"><g data-paper-data="{&quot;origPos&quot;:null}"><path d="M233.9618,181.00003v-27.35899h31.72314v27.35899z" data-paper-data="{&quot;origPos&quot;:null}" fill="#004497" stroke-width="0" stroke="none" transform="matrix(1,0,0,1,-216.26903,-88.82299)"/><path d="M233.00608,154.06192l23.27058,-5.05089h32.34551l-22.93723,5.05089z" data-paper-data="{&quot;origPos&quot;:null}" fill="#0051b5" stroke-width="0" stroke="none" transform="matrix(1,0,0,1,-216.26903,-88.82299)"/><path d="M265.20708,180.94705v-27.359l23.89296,-4.62998v27.35899z" data-paper-data="{&quot;origPos&quot;:null}" fill="#0064cd" stroke-width="NaN" stroke="none" transform="matrix(1,0,0,1,-216.26903,-88.82299)"/></g><path d="M281.81827,162.6667c0,0 -0.86963,-1.98673 -1,-5.25c-0.10751,-2.69112 1,-5.5 1,-5.5l12,5.25z" data-paper-data="{&quot;origPos&quot;:null}" fill="#e5ac00" stroke-width="0" stroke="none" transform="matrix(1,0,0,1,-216.26903,-88.82299)"/><path d="M281.81827,176.00003c0,0 -0.86963,-1.98674 -1,-5.25c-0.10751,-2.69112 1,-5.5 1,-5.5l12,5.25z" data-paper-data="{&quot;origPos&quot;:null}" fill="#e5ac00" stroke-width="0" stroke="none" transform="matrix(1,0,0,1,-216.26903,-88.82299)"/><path d="M271.31827,164.33333c0,0 -0.86963,-1.98673 -1,-5.25c-0.10751,-2.69112 1,-5.5 1,-5.5l12,5.25z" data-paper-data="{&quot;origPos&quot;:null}" fill="#ffc000" stroke-width="0" stroke="none" transform="matrix(1,0,0,1,-216.26903,-88.82299)"/><path d="M271.31827,177.83333c0,0 -0.86963,-1.98674 -1,-5.25c-0.10751,-2.69112 1,-5.5 1,-5.5l12,5.25z" data-paper-data="{&quot;origPos&quot;:null}" fill="#ffc000" stroke-width="0" stroke="none" transform="matrix(1,0,0,1,-216.26903,-88.82299)"/></g><g data-paper-data="{&quot;origPos&quot;:null}"><path d="M239.09598,168.31113c0,-5.38635 4.36649,-9.75284 9.75284,-9.75284c5.38635,0 9.75284,4.36649 9.75284,9.75284c0,5.38635 -4.36649,9.75284 -9.75284,9.75284c-5.38635,0 -9.75284,-4.36649 -9.75284,-9.75284z" data-paper-data="{&quot;origPos&quot;:null}" fill="url(#color-1)" stroke="none" stroke-width="NaN" stroke-linecap="butt" transform="matrix(1,0,0,1,-216.26903,-88.82299)"/><g data-paper-data="{&quot;origPos&quot;:null}"><path d="M246.18555,167.91729c0,-1.58483 1.28475,-2.86959 2.86958,-2.86959c1.58483,0 2.86959,1.28476 2.86959,2.86959c0,1.58483 -1.28476,2.86959 -2.86959,2.86959c-1.58483,0 -2.86958,-1.28475 -2.86958,-2.86959z" fill="#ffd400" stroke="none" stroke-width="0" stroke-linecap="butt" transform="matrix(1,0,0,1,-216.26903,-88.82299)"/><path d="M 32.486 82.8641 L 32.486 90.3663 " fill="none" stroke="#ffdf3e" stroke-width="2" stroke-linecap="round"/><path d="M 32.5798 75.0806 L 32.5798 71.6108 " fill="none" stroke="#ffdf3e" stroke-width="2" stroke-linecap="round"/><path d="M 37.1749 78.9255 C 37.1749 78.9255 39.0324 78.7774 40.3455 79.0213 C 41.6586 79.2652 43.3642 80.5197 43.3642 80.5197 " data-paper-data="{&quot;origPos&quot;:null}" fill="none" stroke="#ffdf3e" stroke-width="2" stroke-linecap="round"/><path d="M 21.8892 80.7072 C 21.8892 80.7072 23.5948 79.3589 24.9078 79.1151 C 26.2209 78.8712 28.1723 79.0193 28.1723 79.0193 " data-paper-data="{&quot;origPos&quot;:null,&quot;index&quot;:null}" fill="none" stroke="#ffdf3e" stroke-width="2" stroke-linecap="round"/><path d="M 35.9962 76.2979 C 35.9962 76.2979 35.9495 74.5006 38.3486 73.9912 C 40.1823 73.6018 41.095 74.514 41.095 74.514 " data-paper-data="{&quot;origPos&quot;:null,&quot;origRot&quot;:0}" fill="none" stroke="#ffdf3e" stroke-width="2" stroke-linecap="round"/><path d="M 24.0864 74.514 C 24.0864 74.514 24.9991 73.6018 26.8328 73.9912 C 29.2319 74.5006 29.1853 76.2979 29.1853 76.2979 " data-paper-data="{&quot;origPos&quot;:null,&quot;origRot&quot;:0,&quot;index&quot;:null}" fill="none" stroke="#ffdf3e" stroke-width="2" stroke-linecap="round"/><path d="M 36.2373 82.0994 C 36.2373 82.0994 38.078 83.1122 38.8044 84.0117 C 39.5308 84.9112 40.0671 87.2837 40.0671 87.2837 " data-paper-data="{&quot;origPos&quot;:null,&quot;origRot&quot;:0}" fill="none" stroke="#ffdf3e" stroke-width="2" stroke-linecap="round"/><path d="M 24.8903 87.3775 C 24.8903 87.3775 25.5204 85.0049 26.2468 84.1054 C 26.9732 83.2059 28.8138 82.1932 28.8138 82.1932 " data-paper-data="{&quot;origPos&quot;:null,&quot;origRot&quot;:0,&quot;index&quot;:null}" fill="none" stroke="#ffdf3e" stroke-width="2" stroke-linecap="round"/></g></g><text transform="matrix(0.25443,0,0,0.25443,22.222520000000003,73.06862999999998)" font-size="40" xml:space="preserve" data-paper-data="{&quot;origPos&quot;:null}" fill="#ffffff" fill-rule="nonzero" stroke="none" stroke-width="1" stroke-linecap="butt" stroke-linejoin="miter" stroke-miterlimit="10" stroke-dasharray="" stroke-dashoffset="0" font-family="Serif" font-weight="normal" text-anchor="start" style="mix-blend-mode: normal"><tspan x="0" dy="0">FIRE</tspan></text><text transform="matrix(0.2147,0,0,0.2147,17.55585000000002,89.02698000000001)" font-size="40" xml:space="preserve" data-paper-data="{&quot;origPos&quot;:null}" fill="#ffffff" fill-rule="nonzero" stroke="none" stroke-width="1" stroke-linecap="butt" stroke-linejoin="miter" stroke-miterlimit="10" stroke-dasharray="" stroke-dashoffset="0" font-family="Serif" font-weight="normal" text-anchor="start" style="mix-blend-mode: normal"><tspan x="0" dy="0">WORKS</tspan></text><path d="M 25.0884 49.0833 L 25.0884 116.3804 L 13.0408 155.2992 " data-paper-data="{&quot;origPos&quot;:null}" fill="none" stroke="#000000" stroke-width="3.5" stroke-linecap="round"/><path d="M 25.8916 114.9436 L 37.9392 155.1024 " fill="none" stroke="#000000" stroke-width="3.5" stroke-linecap="round"/><path d="M 13.0868 92.9785 C 13.0868 92.9785 14.0759 77.2994 15.6691 70.7842 C 17.4706 63.4172 23.7852 57.4071 23.7852 57.4071 " data-paper-data="{&quot;origPos&quot;:null}" fill="none" stroke="#000000" stroke-width="3.5" stroke-linecap="round"/><path d="M 25.9756 57.4071 C 25.9756 57.4071 42.2437 57.7859 47.493 59.2231 " data-paper-data="{&quot;origPos&quot;:null,&quot;index&quot;:null}" fill="none" stroke="#000000" stroke-width="3.5" stroke-linecap="round"/><g><path d="M 1.25 26.55 C 1.25 12.5772 12.5772 1.25 26.55 1.25 C 40.5228 1.25 51.85 12.5772 51.85 26.55 C 51.85 40.5228 40.5228 51.85 26.55 51.85 C 12.5772 51.85 1.25 40.5228 1.25 26.55 Z " data-paper-data="{&quot;origPos&quot;:null}" fill="#d4d4d4" stroke="#000000" stroke-width="2.5" stroke-linecap="butt"/><path d="M238.40157,109.3492c0,-2.66149 2.15756,-4.81905 4.81905,-4.81905c2.66149,0 4.81905,2.15756 4.81905,4.81905c0,2.66149 -2.15756,4.81905 -4.81905,4.81905c-2.66149,0 -4.81905,-2.15756 -4.81905,-4.81905z" data-paper-data="{&quot;origPos&quot;:null}" fill="#000000" stroke="none" stroke-width="0" stroke-linecap="butt" transform="matrix(1,0,0,1,-216.26903,-88.82299)"/><path d="M252.05554,109.3492c0,-2.66148 2.15757,-4.81905 4.81905,-4.81905c2.66148,0 4.81905,2.15757 4.81905,4.81905c0,2.66148 -2.15757,4.81905 -4.81905,4.81905c-2.66148,0 -4.81905,-2.15757 -4.81905,-4.81905z" data-paper-data="{&quot;origPos&quot;:null}" fill="#000000" stroke="none" stroke-width="0" stroke-linecap="butt" transform="matrix(1,0,0,1,-216.26903,-88.82299)"/><path d="M 22.3516 13.5199 L 31.4786 17.1706 " data-paper-data="{&quot;origPos&quot;:null}" fill="none" stroke="#000000" stroke-width="2.5" stroke-linecap="round"/><path d="M 43.5262 13.5548 L 36.5897 16.8405 " data-paper-data="{&quot;origPos&quot;:null}" fill="none" stroke="#000000" stroke-width="2.5" stroke-linecap="round"/></g></g></g></svg>