<svg xmlns="http://www.w3.org/2000/svg" xmlns:xlink="http://www.w3.org/1999/xlink" version="1.1" width="61.46099" height="72.34551" viewBox="0,0,61.46099,72.34551"><g><g data-paper-data="{&quot;isPaintingLayer&quot;:true}" fill-rule="nonzero" stroke-linecap="butt" stroke-linejoin="miter" stroke-miterlimit="10" stroke-dasharray="" stroke-dashoffset="0" style="mix-blend-mode: normal"><path d="M 16.1334 66.9983 C 12.9682 64.0938 17.4187 53.7418 14.854 49.0919 C 12.2893 44.4421 3.8758 44.3372 2.75 37.9839 C 1.6242 31.6306 2.6955 29.3161 4.9749 22.9688 C 7.2543 16.6215 2.9946 12.8119 7.3928 10.4358 C 11.791 8.0596 17.5247 14.4534 23.9456 12.7199 C 30.3665 10.9864 29.6895 2.7258 35.8611 2.75 C 42.0327 2.7743 40.777 9.7893 45.7277 12.8055 C 50.6784 15.8216 57.5371 11.4805 58.711 16.671 C 59.8849 21.8614 47.4427 24.5345 46.6765 31.3707 C 45.9102 38.2069 51.8964 42.4447 49.298 49.3498 C 46.6996 56.2549 43.7043 48.9462 38.8826 52.0826 C 34.0609 55.219 37.3497 67.1663 31.2258 69.5955 C 25.1019 72.0247 31.0591 66.9484 26.9469 64.9388 C 22.8347 62.9291 19.2987 69.9028 16.1334 66.9983 Z " stroke-width="5.5" fill="#fff52f" stroke="#ffa32b"/></g></g></svg>