<svg version="1.1" xmlns="http://www.w3.org/2000/svg" xmlns:xlink="http://www.w3.org/1999/xlink" width="637.95854" height="456" viewBox="0,0,637.95854,456"><defs><radialGradient cx="-10.86005" cy="161.67353" r="15.42867" gradientUnits="userSpaceOnUse" id="color-1"><stop offset="0" stop-color="#ff7d66"/><stop offset="1" stop-color="#ff7d66" stop-opacity="0"/></radialGradient><radialGradient cx="-10.92909" cy="166.98777" r="7.93476" gradientUnits="userSpaceOnUse" id="color-2"><stop offset="0" stop-color="#580000"/><stop offset="1" stop-color="#580000" stop-opacity="0"/></radialGradient><radialGradient cx="-10.84194" cy="160.97303" r="6.8131" gradientUnits="userSpaceOnUse" id="color-3"><stop offset="0" stop-color="#9c0000"/><stop offset="1" stop-color="#bc0000"/></radialGradient><radialGradient cx="183.47454" cy="168.31307" r="15.42866" gradientUnits="userSpaceOnUse" id="color-4"><stop offset="0" stop-color="#ff7d66"/><stop offset="1" stop-color="#ff7d66" stop-opacity="0"/></radialGradient><radialGradient cx="183.12915" cy="173.61652" r="7.93475" gradientUnits="userSpaceOnUse" id="color-5"><stop offset="0" stop-color="#580000"/><stop offset="1" stop-color="#580000" stop-opacity="0"/></radialGradient><radialGradient cx="183.51107" cy="167.61331" r="6.81311" gradientUnits="userSpaceOnUse" id="color-6"><stop offset="0" stop-color="#9c0000"/><stop offset="1" stop-color="#bc0000"/></radialGradient></defs><g transform="translate(78.62197,54.99999)"><g data-paper-data="{&quot;isPaintingLayer&quot;:true}" fill-rule="nonzero" stroke-linejoin="miter" stroke-miterlimit="10" stroke-dasharray="" stroke-dashoffset="0" style="mix-blend-mode: normal"><path d="M-71.5,401.00001v-456h627v456z" fill="#000000" stroke="none" stroke-width="none" stroke-linecap="butt"/><g stroke="none" stroke-width="0" stroke-linecap="butt"><path d="M-71.17241,363.28292l-4.72556,-364.72344l630.50897,-1.87544l4.72557,364.72344z" fill="#c14747"/><path d="M-75.70236,298.24766l-2.91961,-225.33869l634.19616,-1.88641l2.91961,225.33869z" fill="#ffac39"/></g><text transform="translate(179.97517,149.25053) rotate(0.16282) scale(0.76787,0.76787)" font-size="40" xml:space="preserve" data-paper-data="{&quot;index&quot;:null}" fill="#ffb0b0" fill-rule="nonzero" stroke="#7d2f2f" stroke-width="1.5" stroke-linecap="butt" stroke-linejoin="miter" stroke-miterlimit="10" stroke-dasharray="" stroke-dashoffset="0" font-family="Pixel" font-weight="normal" text-anchor="start" style="mix-blend-mode: normal"><tspan x="0" dy="0">THE PUMPKIN</tspan></text><text transform="translate(237.15053,185.38399) rotate(0.16282) scale(0.76787,0.76787)" font-size="40" xml:space="preserve" data-paper-data="{&quot;index&quot;:null}" fill="#ffb0b0" fill-rule="nonzero" stroke="#7d2f2f" stroke-width="1.5" stroke-linecap="butt" stroke-linejoin="miter" stroke-miterlimit="10" stroke-dasharray="" stroke-dashoffset="0" font-family="Pixel" font-weight="normal" text-anchor="start" style="mix-blend-mode: normal"><tspan x="0" dy="0">BOSS</tspan></text><g><g stroke="none" stroke-linecap="butt"><g data-paper-data="{&quot;index&quot;:null}"><path d="M-1.13925,163.26155c0,0 2.05915,2.20724 4.56631,4.84737c2.23415,2.35265 4.4053,6.04295 7.19276,6.9195c3.61846,1.1379 10.31367,-2.64831 12.91338,-6.00233c10.03818,-12.81444 22.7651,-14.20743 22.7651,-14.20743l-3.06062,17.36893c0,0 -10.45535,8.78392 -17.80833,13.29944c-7.84011,4.81465 -16.07446,3.96474 -17.91024,3.21912c-7.90945,-3.21243 -14.23156,-13.65891 -14.23156,-13.65891z" data-paper-data="{&quot;index&quot;:null}" fill="#1e1e1e" stroke-width="NaN"/><g stroke-width="0"><path d="M-8.67828,174.82692c-2.9555,-0.1181 -4.66145,-0.46589 -6.50668,-1.00794c-1.65269,-0.4855 -4.73537,-0.52272 -6.5891,-1.13988c-1.18755,-0.39538 -1.6582,-1.38534 -1.62336,-1.71261c0.06069,-0.57001 0.83204,-0.06978 1.92821,-0.1068c1.44673,-0.04884 3.30394,-0.51801 3.30394,-0.51801c0,0 -2.85941,-0.81798 -4.68489,-2.09036c-1.05491,-0.73528 -1.63289,-1.98059 -1.4542,-2.38226c0.16093,-0.36175 0.98971,0.60643 2.40711,0.86036c1.64183,0.29414 3.8906,-0.08687 3.8906,-0.08687c0,0 -2.39668,-0.66259 -4.09339,-1.92801c-1.16108,-0.86593 -1.88618,-2.3419 -1.72039,-2.78091c0.22662,-0.60003 1.53236,0.36409 3.00243,0.90373c1.70199,0.62477 3.58172,0.89234 3.58172,0.89234c0,0 -1.69402,-0.66481 -2.70819,-1.82522c-0.99183,-1.13485 -1.30822,-2.7591 -0.96825,-3.35258c0.41066,-0.71689 1.60619,0.49023 3.50824,1.4874c2.36166,1.23812 5.49596,2.38573 5.84676,1.86636c0.3587,-0.53107 0.40647,-1.06597 0.15999,-1.76742c-0.33851,-0.96324 -0.96404,-2.08089 0.33757,-2.48032c0.74689,-0.22922 2.03327,0.75533 3.79014,1.90915c2.22782,1.46314 4.96642,3.27632 5.61866,4.08764c1.41872,1.7647 -0.33131,5.85392 -0.94731,7.86225c-1.16475,3.79726 -2.77743,3.44197 -6.07962,3.31002z" data-paper-data="{&quot;index&quot;:null}" fill="#1e1e1e"/><path d="M-10.76049,177.10184c-8.52084,0.05499 -15.4729,-6.80796 -15.52789,-15.32879c-0.05499,-8.52083 6.80796,-15.47291 15.32879,-15.52789c8.52083,-0.05499 15.47291,6.80795 15.52789,15.32879c0.05499,8.52083 -6.80795,15.47291 -15.32879,15.5279z" fill="url(#color-1)"/><path d="M-2.9945,166.93654c0.01268,1.96499 -3.52947,3.58087 -7.91162,3.60916c-4.38214,0.02826 -7.94484,-1.54175 -7.95754,-3.50677c-0.01267,-1.96499 3.52947,-3.58087 7.91162,-3.60916c4.38215,-0.02826 7.94488,1.54175 7.95755,3.50677z" fill="url(#color-2)"/><path d="M-17.1979,161.4234c-0.00159,-0.24689 -0.35893,-0.76384 -0.42159,-1.04238c-0.07969,-0.35412 0.81202,-0.85922 0.69745,-1.23228c-0.32936,-1.07226 -0.52972,-2.2119 -0.0036,-2.86266c0.51235,-0.63375 1.58136,-0.1252 2.74183,-0.32168c1.34821,-0.22826 2.00932,-1.2908 3.02996,-1.29737c0.73389,-0.00475 1.54757,0.90898 2.30351,0.88066c0.7614,-0.0285 1.4643,-0.99745 1.99549,-0.56391c0.53459,0.43633 0.28573,1.82824 0.94245,2.67204c0.33887,0.4354 1.79348,0.21091 1.88435,0.7133c0.18012,0.99603 -1.00001,2.21466 -0.99508,2.9757c0.00346,0.53874 0.94888,1.7478 0.82074,2.2461c-0.24481,0.95172 -1.10977,0.27601 -1.91497,0.87249c-0.4148,0.30731 0.08315,1.69606 -0.2709,2.08876c-0.32946,0.36541 -1.5073,-0.26607 -1.9755,0.05131c-0.41862,0.28379 -0.36062,0.77314 -0.91898,0.92879c-0.41777,0.11647 -1.45849,-0.06296 -1.78845,-0.06083c-0.60697,0.0039 -2.0717,0.49132 -2.62594,0.32949c-0.89663,-0.26176 -0.47138,-1.61767 -1.17402,-2.37355c-0.56984,-0.61301 -2.3325,-0.56979 -2.55401,-1.31033c-0.27168,-0.90832 0.23362,-1.71696 0.2273,-2.69374z" fill="url(#color-3)"/></g></g><g><path d="M178.29715,181.32289c0,0 -7.11712,9.92193 -15.25286,12.50814c-1.88828,0.60024 -10.16385,0.80577 -17.60485,-4.6053c-6.97867,-5.07486 -16.71758,-14.647 -16.71758,-14.647l-1.69754,-17.55465c0,0 12.57964,2.38071 21.5885,15.93856c2.33039,3.5464 8.71011,7.84297 12.40626,6.99055c2.84732,-0.65663 5.29945,-4.16647 7.71019,-6.33784c2.70531,-2.43668 4.93024,-4.47673 4.93024,-4.47673z" data-paper-data="{&quot;index&quot;:null}" fill="#1e1e1e" stroke-width="NaN"/><g stroke-width="0"><path d="M180.27422,181.25642c-3.30242,-0.12581 -4.93787,0.10269 -5.80315,-3.7738c-0.45759,-2.05021 -1.88357,-6.26337 -0.33164,-7.91216c0.71346,-0.75797 3.58507,-2.35221 5.92015,-3.63728c1.84143,-1.0134 3.20066,-1.89467 3.92739,-1.60795c1.26649,0.49965 0.55577,1.56516 0.14321,2.49908c-0.30043,0.6801 -0.2945,1.2171 0.02174,1.77451c0.30927,0.54514 3.52347,-0.35469 5.97446,-1.40498c1.97395,-0.84589 3.25997,-1.95613 3.6135,-1.20945c0.29267,0.61817 -0.14935,2.21282 -1.22661,3.26691c-1.10153,1.07784 -2.8422,1.60858 -2.8422,1.60858c0,0 1.89486,-0.12027 3.64037,-0.61048c1.50767,-0.4234 2.88458,-1.28282 3.06373,-0.66695c0.13109,0.45058 -0.70685,1.86556 -1.93191,2.63836c-1.79016,1.12932 -4.23122,1.6031 -4.23122,1.6031c0,0 2.21224,0.55511 3.872,0.38984c1.43288,-0.14269 2.33459,-1.04332 2.46684,-0.67013c0.14687,0.41439 -0.52644,1.61083 -1.63544,2.26167c-1.91911,1.1262 -4.83357,1.71885 -4.83357,1.71885c0,0 1.81501,0.61247 3.25351,0.77396c1.08995,0.12234 1.89795,-0.31624 1.91402,0.25677c0.00923,0.32901 -0.53716,1.27928 -1.75191,1.58087c-1.8962,0.47081 -4.97238,0.26763 -6.65792,0.62284c-1.88183,0.39658 -3.60973,0.61033 -6.56544,0.49773z" data-paper-data="{&quot;index&quot;:null}" fill="#1e1e1e"/><path d="M168.10086,167.01135c0.71894,-8.49064 8.18479,-14.79083 16.67541,-14.0719c8.49064,0.71894 14.79082,8.18478 14.07189,16.67543c-0.71894,8.49064 -8.18478,14.79082 -16.6754,14.0719c-8.49064,-0.71894 -14.79083,-8.18478 -14.0719,-16.6754z" fill="url(#color-4)"/><path d="M183.42933,170.07118c4.36661,0.36972 7.77203,2.25678 7.60624,4.21483c-0.16579,1.95804 -3.84005,3.24561 -8.20666,2.87588c-4.36661,-0.36972 -7.77203,-2.25678 -7.60624,-4.21483c0.16579,-1.95804 3.84005,-3.24561 8.20666,-2.87588z" fill="url(#color-5)"/><path d="M189.82925,171.26094c-0.27855,0.72103 -2.03248,0.54054 -2.64836,1.10729c-0.75943,0.6988 -0.44114,2.08375 -1.35545,2.27483c-0.56517,0.1181 -1.98746,-0.48197 -2.59227,-0.53317c-0.32879,-0.02784 -1.38035,0.06991 -1.78775,-0.07875c-0.54453,-0.19873 -0.44855,-0.68202 -0.84379,-0.99758c-0.44205,-0.35291 -1.66553,0.18484 -1.9655,-0.20513c-0.32238,-0.41909 0.28232,-1.76481 -0.10727,-2.10351c-0.75627,-0.65747 -1.67126,-0.0512 -1.84116,-1.0191c-0.08895,-0.50678 0.94783,-1.63848 0.9933,-2.1753c0.06424,-0.75834 -1.01735,-2.06526 -0.76014,-3.04421c0.12975,-0.49378 1.56244,-0.15661 1.93421,-0.56427c0.72049,-0.79003 0.58086,-2.19713 1.14782,-2.59047c0.56336,-0.39085 1.18861,0.62996 1.94547,0.71774c0.75142,0.08712 1.63383,-0.76037 2.36516,-0.69846c1.01698,0.08611 1.59328,1.19693 2.91962,1.52959c1.14162,0.28634 2.24706,-0.13732 2.70842,0.5344c0.47379,0.68981 0.18522,1.81038 -0.22671,2.85368c-0.14332,0.363 0.70634,0.93603 0.59929,1.28289c-0.08422,0.27283 -0.48076,0.76035 -0.50155,1.00636c-0.0824,0.97331 0.35832,1.81886 0.01665,2.70325z" fill="url(#color-6)"/></g></g></g><path d="M39.12022,150.43796l0.681,-17.44782l97.3457,3.79941l-0.68099,17.44781z" fill="#000000" stroke="none" stroke-width="0" stroke-linecap="butt"/><path d="M37.88547,149.62998c0,0 28.04911,-4.49807 48.19357,-3.09909c18.80631,1.30607 49.1521,6.8985 49.1521,6.8985c0,0 -33.45343,12.86767 -49.8892,12.09786c-15.99073,-0.74896 -47.45655,-15.89728 -47.45655,-15.89728z" fill="#171717" stroke="none" stroke-width="0" stroke-linecap="butt"/><g stroke-width="1"><path d="M86.26609,87.83638l0.45713,-11.7127l7.71323,0.30107l-0.45713,11.7127z" data-paper-data="{&quot;origPos&quot;:null}" fill="#995400" stroke="none" stroke-linecap="butt"/><path d="M134.29035,127.18975c-0.83751,21.45728 -21.72482,38.06309 -46.65306,37.09015c-24.92833,-0.97298 -44.4578,-19.1562 -43.62031,-40.61354c0.83751,-21.45728 21.72476,-38.06308 46.65307,-37.09009c24.92831,0.97292 44.4578,19.1562 43.6203,40.61348z" data-paper-data="{&quot;origPos&quot;:null}" fill="#ff6400" stroke="#e35b00" stroke-linecap="butt"/><path d="M82.64104,161.61809c0,0 -8.37943,-15.00837 -7.65614,-37.28892c0.65344,-20.12568 10.92085,-37.58358 10.92085,-37.58358" fill="none" stroke="#e35b00" stroke-linecap="round"/><path d="M93.94753,87.05949c0,0 8.87551,18.20501 7.95823,38.32041c-1.01544,22.26915 -10.53908,36.57873 -10.53908,36.57873" data-paper-data="{&quot;index&quot;:null}" fill="none" stroke="#e35b00" stroke-linecap="round"/><path d="M79.35901,161.14755c0,0 -23.47125,-11.15033 -23.31614,-37.90014c0.14719,-25.37891 26.89278,-36.96015 26.89278,-36.96015" data-paper-data="{&quot;index&quot;:null}" fill="none" stroke="#e35b00" stroke-linecap="round"/><path d="M98.31214,86.88734c0,0 23.43147,14.32361 22.90434,38.90375c-0.52711,24.58259 -25.17332,36.00763 -25.17332,36.00763" data-paper-data="{&quot;index&quot;:null}" fill="none" stroke="#e35b00" stroke-linecap="round"/></g><g fill="#fff86a" stroke="none" stroke-width="1" stroke-linecap="butt"><path d="M76.96583,123.80698c-7.57373,-3.73582 -4.74768,-17.63803 -4.74768,-17.63803l25.82498,12.73847c0,0 -13.50357,8.63539 -21.07729,4.89957z"/><path d="M102.22314,118.98315l26.73924,-10.68693c0,0 1.73397,14.08022 -6.10796,17.21441c-7.84187,3.13411 -20.63127,-6.52748 -20.63127,-6.52748z" data-paper-data="{&quot;index&quot;:null}"/><path d="M68.58991,130.34338c0,0 17.67716,5.16978 29.10328,5.61574c12.21952,0.47694 31.4856,-3.25093 31.4856,-3.25093c0,0 -18.28358,19.64921 -32.10455,19.10977c-13.8211,-0.53939 -28.48433,-21.47458 -28.48433,-21.47458z"/></g><path d="M23.84825,307.68107l21.47366,-157.95074c0,0 23.13412,11.53949 40.98419,12.23619c20.32818,0.79342 43.85398,-8.92494 43.85398,-8.92494l9.0905,159.14366c0,0 -20.1378,2.52795 -56.61046,1.20855c-35.16109,-1.2719 -58.79179,-5.7127 -58.79179,-5.7127z" fill="#2a2a2a" stroke="none" stroke-width="NaN" stroke-linecap="butt"/><path d="M63.00956,312.62801l12.58539,-152.06735c0,0 7.37059,0.9713 11.16835,1.11951c3.93475,0.15357 12.04372,-0.21355 12.04372,-0.21355l2.32771,152.30759c0,0 -11.74062,0.90897 -19.0099,0.62525c-7.26927,-0.28372 -19.1153,-1.77147 -19.1153,-1.77147z" fill="#a80000" stroke="none" stroke-width="NaN" stroke-linecap="butt"/><path d="M31.032,148.22288l8.82059,-15.76255l19.85389,25.65689l-17.71366,-2.62872c0,0 -7.05105,-1.31918 -8.95821,-2.58335c-1.72893,-1.14607 -2.00259,-4.68224 -2.00259,-4.68224z" fill="#191919" stroke="none" stroke-width="0" stroke-linecap="butt"/><path d="M142.5393,157.10315c-1.99989,1.11169 -9.13233,1.87728 -9.13233,1.87728l-18.99572,1.99372l22.92426,-24.78503l7.56519,16.40209c0,0 -0.54845,3.50409 -2.36145,4.51194z" data-paper-data="{&quot;index&quot;:null}" fill="#191919" stroke="none" stroke-width="0" stroke-linecap="butt"/></g></g></g></svg>