<svg xmlns="http://www.w3.org/2000/svg" xmlns:xlink="http://www.w3.org/1999/xlink" version="1.1" width="80.8482" height="165.24595" viewBox="0,0,80.8482,165.24595"><defs><radialGradient cx="263.16484" cy="143.64216" r="7.26952" gradientUnits="userSpaceOnUse" id="color-1"><stop offset="0" stop-color="#fffc66" stop-opacity="0"/><stop offset="1" stop-color="#fffc66"/></radialGradient><radialGradient cx="46.5889" cy="62.2651" r="7.2695" gradientUnits="userSpaceOnUse" id="color-1-,0,0,1,-216.5759,-81.37702"><stop offset="0" stop-color="#fffc66" stop-opacity="0"/><stop offset="1" stop-color="#fffc66"/></radialGradient></defs><g><g data-paper-data="{&quot;isPaintingLayer&quot;:true}" fill-rule="nonzero" stroke-linejoin="miter" stroke-miterlimit="10" stroke-dasharray="" stroke-dashoffset="0" style="mix-blend-mode: normal"><g><path d="M 25.3452 57.0301 L 25.3452 124.3272 L 13.2976 163.2459 " fill="none" stroke="#000000" stroke-width="4" stroke-linecap="round"/><path d="M 37.696 163.0492 L 25.6484 122.8904 " fill="none" stroke="#000000" stroke-width="4" stroke-linecap="round"/><path d="M 1.25 34.1396 C 1.25 20.1668 12.5772 8.8396 26.55 8.8396 C 40.5228 8.8396 51.85 20.1668 51.85 34.1396 C 51.85 48.1124 40.5228 59.4396 26.55 59.4396 C 12.5772 59.4396 1.25 48.1124 1.25 34.1396 Z " fill="#d4d4d4" stroke="#000000" stroke-width="2.5" stroke-linecap="butt"/><path d="M238.70844,112.24283c0,-2.66149 2.15756,-4.81905 4.81905,-4.81905c2.66149,0 4.81905,2.15756 4.81905,4.81905c0,2.66149 -2.15756,4.81905 -4.81905,4.81905c-2.66149,0 -4.81905,-2.15756 -4.81905,-4.81905z" fill="#000000" stroke="none" stroke-width="0" stroke-linecap="butt" transform="matrix(1,0,0,1,-216.5759,-81.37702)"/><path d="M252.3624,112.24283c0,-2.66148 2.15757,-4.81905 4.81905,-4.81905c2.66148,0 4.81905,2.15757 4.81905,4.81905c0,2.66148 -2.15757,4.81905 -4.81905,4.81905c-2.66148,0 -4.81905,-2.15757 -4.81905,-4.81905z" fill="#000000" stroke="none" stroke-width="0" stroke-linecap="butt" transform="matrix(1,0,0,1,-216.5759,-81.37702)"/><path d="M 22.3516 24.1095 L 31.4786 27.7603 " fill="none" stroke="#000000" stroke-width="2.5" stroke-linecap="round"/><path d="M 43.5262 23.8944 L 36.5897 27.1801 " fill="none" stroke="#000000" stroke-width="2.5" stroke-linecap="round"/><path d="M 49.2643 68.2587 L 25.5659 64.6872 " data-paper-data="{&quot;index&quot;:null}" fill="none" stroke="#000000" stroke-width="4" stroke-linecap="round"/><g><path d="M268.36276,90.78737c0,3.9224 -10.55811,10.72713 -24.24767,10.72713c-13.68955,0 -24.78713,-6.55473 -24.78713,-10.47713c0,-3.9224 10.94494,-3.72713 24.6345,-3.72713c13.68955,0 24.4003,-0.44527 24.4003,3.47713z" data-paper-data="{&quot;origPos&quot;:null}" fill="#47270e" stroke="none" stroke-width="0" stroke-linecap="butt" transform="matrix(1,0,0,1,-216.5759,-81.37702)"/><path d="M232.27099,94.88585l2.44208,-12.07362c0,0 5.77559,0.59184 9.08149,0.59184c3.90156,0 9.38675,-0.59184 9.38675,-0.59184l2.28946,12.07362c0,0 -7.21248,0.88777 -11.82883,0.88777c-4.43766,0 -11.37094,-0.88777 -11.37094,-0.88777z" data-paper-data="{&quot;origPos&quot;:null}" fill="#201206" stroke="none" stroke-width="0" stroke-linecap="butt" transform="matrix(1,0,0,1,-216.5759,-81.37702)"/><path d="M253.25764,83.15255c0,0.9806 -4.16842,1.77553 -9.31043,1.77553c-5.14201,0 -9.31043,-0.79493 -9.31043,-1.77553c0,-0.9806 4.16842,-1.77553 9.31043,-1.77553c5.14201,0 9.31043,0.79493 9.31043,1.77553z" data-paper-data="{&quot;origPos&quot;:null}" fill="#201206" stroke="none" stroke-width="0" stroke-linecap="butt" transform="matrix(1,0,0,1,-216.5759,-81.37702)"/><path d="M243.01679,87.57882c0,-1.51798 1.48816,-2.74854 3.3239,-2.74854c1.83574,0 3.3239,1.23056 3.3239,2.74854c0,1.51798 -1.48816,2.74854 -3.3239,2.74854c-1.83574,0 -3.3239,-1.23056 -3.3239,-2.74854z" data-paper-data="{&quot;origPos&quot;:null}" fill="#ffffff" stroke="none" stroke-width="0" stroke-linecap="butt" transform="matrix(1,0,0,1,-216.5759,-81.37702)"/><path d="M246.84386,86.91447c0,-0.50868 0.42538,-0.92105 0.95011,-0.92105c0.52473,0 0.95011,0.41237 0.95011,0.92105c0,0.50868 -0.42538,0.92105 -0.95011,0.92105c-0.52473,0 -0.95011,-0.41237 -0.95011,-0.92105z" data-paper-data="{&quot;origPos&quot;:null}" fill="#000000" stroke="none" stroke-width="0" stroke-linecap="butt" transform="matrix(1,0,0,1,-216.5759,-81.37702)"/><path d="M244.50929,86.91447c0,-0.50868 0.42539,-0.92105 0.95012,-0.92105c0.52473,0 0.95011,0.41237 0.95011,0.92105c0,0.50868 -0.42538,0.92105 -0.95011,0.92105c-0.52473,0 -0.95012,-0.41237 -0.95012,-0.92105z" data-paper-data="{&quot;origPos&quot;:null}" fill="#000000" stroke="none" stroke-width="0" stroke-linecap="butt" transform="matrix(1,0,0,1,-216.5759,-81.37702)"/><path d="M244.23783,92.41447v-2.31579c0,0 1.28289,0.52632 2.07385,0.52632c0.88292,0 2.21525,-0.52632 2.21525,-0.52632v2.31579z" data-paper-data="{&quot;origPos&quot;:null}" fill="#ffffff" stroke="none" stroke-width="0" stroke-linecap="butt" transform="matrix(1,0,0,1,-216.5759,-81.37702)"/><path d="M 28.4763 10.4059 L 28.4763 9.0374 " data-paper-data="{&quot;origPos&quot;:null}" fill="none" stroke="#000000" stroke-width="0.5" stroke-linecap="round"/><path d="M 31.2452 8.9322 L 31.2452 10.3006 " data-paper-data="{&quot;origPos&quot;:null}" fill="none" stroke="#000000" stroke-width="0.5" stroke-linecap="round"/><path d="M 29.8879 10.3006 L 29.8879 9.3006 " data-paper-data="{&quot;origPos&quot;:null}" fill="none" stroke="#000000" stroke-width="0.5" stroke-linecap="round"/></g><path d="M 24.5496 63.7372 L 13.9556 99.4658 " fill="none" stroke="#000000" stroke-width="4" stroke-linecap="round"/><g stroke-linecap="butt"><path d="M260.681,162.27941l4.79565,-20.02202l7.54464,1.30937l-4.79565,20.02202z" data-paper-data="{&quot;origPos&quot;:null,&quot;origRot&quot;:0}" fill="#000000" stroke="none" stroke-width="0" transform="matrix(1,0,0,1,-216.5759,-81.37702)"/><path d="M265.71881,149.26042v-10.87621h31.70529v10.87621z" fill="#000000" stroke="none" stroke-width="0" transform="matrix(1,0,0,1,-216.5759,-81.37702)"/><g><g><path d="M257.5925,144.8184c0,-1.94917 1.58013,-3.52931 3.5293,-3.52931c1.94917,0 3.5293,1.58013 3.5293,3.52931c0,1.94917 -1.58012,3.5293 -3.5293,3.5293c-1.94917,0 -3.5293,-1.58011 -3.5293,-3.5293z" data-paper-data="{&quot;origPos&quot;:null}" fill="#bbb54b" stroke-width="NaN" stroke="none" transform="matrix(1,0,0,1,-216.5759,-81.37702)"/><path d="M258.2513,144.86546c0,-1.97517 1.6012,-3.57636 3.57636,-3.57636c1.97517,0 3.57637,1.6012 3.57637,3.57636c0,1.97517 -1.6012,3.57636 -3.57637,3.57636c-1.97517,0 -3.57636,-1.6012 -3.57636,-3.57636z" data-paper-data="{&quot;origPos&quot;:null}" fill="#fff766" stroke-width="NaN" stroke="none" transform="matrix(1,0,0,1,-216.5759,-81.37702)"/><text transform="matrix(0.14117,0,0,0.14117,43.27535,65.46484)" font-size="40" xml:space="preserve" data-paper-data="{&quot;origPos&quot;:null}" fill="#bbb54b" fill-rule="nonzero" stroke="none" stroke-width="1" stroke-linecap="butt" stroke-linejoin="miter" stroke-miterlimit="10" stroke-dasharray="" stroke-dashoffset="0" font-family="Sans Serif" font-weight="normal" text-anchor="start" style="mix-blend-mode: normal"><tspan x="0" dy="0">C</tspan></text></g><g><path d="M260.97848,147.09636c-0.53673,-1.39952 0.16268,-2.96915 1.56218,-3.50588c1.39952,-0.53673 2.96916,0.16267 3.5059,1.56218c0.53673,1.39952 -0.16268,2.96914 -1.56218,3.5059c-1.39952,0.53673 -2.96916,-0.16267 -3.5059,-1.56219z" data-paper-data="{&quot;origPos&quot;:null}" fill="#bbb54b" stroke-width="NaN" stroke="none" transform="matrix(1,0,0,1,-216.5759,-81.37702)"/><path d="M261.46446,146.94873c-0.54389,-1.41817 0.16485,-3.00874 1.58302,-3.55263c1.41817,-0.54389 3.00875,0.16483 3.55264,1.583c0.5439,1.41817 -0.16485,3.00874 -1.58301,3.55265c-1.41817,0.54389 -3.00874,-0.16485 -3.55264,-1.58302z" data-paper-data="{&quot;origPos&quot;:null}" fill="#fff766" stroke-width="NaN" stroke="none" transform="matrix(1,0,0,1,-216.5759,-81.37702)"/><text transform="matrix(0.10137130304829226,-0.03887549122893877,0.03887549122893877,0.10137130304829226,46.58157,66.55021)" font-size="40" xml:space="preserve" data-paper-data="{&quot;origPos&quot;:null}" fill="#bbb54b" fill-rule="nonzero" stroke="none" stroke-width="1" stroke-linecap="butt" stroke-linejoin="miter" stroke-miterlimit="10" stroke-dasharray="" stroke-dashoffset="0" font-family="Sans Serif" font-weight="normal" text-anchor="start" style="mix-blend-mode: normal"><tspan x="0" dy="0">C</tspan></text></g><g><path d="M261.94034,144.30712c0.16451,-1.69125 1.6689,-2.92889 3.36013,-2.76438c1.69125,0.16451 2.92889,1.66889 2.76438,3.36012c-0.16452,1.69125 -1.66888,2.9289 -3.36013,2.76438c-1.69125,-0.16451 -2.9289,-1.66888 -2.76439,-3.36013z" data-paper-data="{&quot;origPos&quot;:null}" fill="#bbb54b" stroke-width="NaN" stroke="none" transform="matrix(1,0,0,1,-216.5759,-81.37702)"/><path d="M262.50799,144.40356c0.16671,-1.71379 1.69115,-2.96794 3.40493,-2.80123c1.71379,0.16671 2.96796,1.69114 2.80125,3.40492c-0.16671,1.71379 -1.69115,2.96795 -3.40494,2.80124c-1.71378,-0.16671 -2.96793,-1.69115 -2.80122,-3.40493z" data-paper-data="{&quot;origPos&quot;:null}" fill="#fff766" stroke-width="NaN" stroke="none" transform="matrix(1,0,0,1,-216.5759,-81.37702)"/><text transform="matrix(0.12249233205347836,0.011910226198540378,-0.011910226198540378,0.12249233205347836,47.15350999999998,64.87643999999999)" font-size="40" xml:space="preserve" data-paper-data="{&quot;origPos&quot;:null}" fill="#bbb54b" fill-rule="nonzero" stroke="none" stroke-width="1" stroke-linecap="butt" stroke-linejoin="miter" stroke-miterlimit="10" stroke-dasharray="" stroke-dashoffset="0" font-family="Sans Serif" font-weight="normal" text-anchor="start" style="mix-blend-mode: normal"><tspan x="0" dy="0">C</tspan></text></g><g><path d="M258.78535,147.00801c-0.73777,-1.5307 -0.09499,-3.36965 1.4357,-4.10743c1.5307,-0.73777 3.36965,-0.095 4.10743,1.4357c0.73777,1.5307 0.095,3.36966 -1.4357,4.10743c-1.5307,0.73777 -3.36965,0.09499 -4.10743,-1.43571z" data-paper-data="{&quot;origPos&quot;:null}" fill="#bbb54b" stroke-width="NaN" stroke="none" transform="matrix(1,0,0,1,-216.5759,-81.37702)"/><path d="M259.32052,146.79562c-0.74761,-1.5511 -0.09626,-3.41458 1.45484,-4.16219c1.5511,-0.74761 3.41459,-0.09626 4.1622,1.45484c0.74761,1.5511 0.09626,3.41459 -1.45485,4.1622c-1.5511,0.74761 -3.41459,0.09625 -4.1622,-1.45486z" data-paper-data="{&quot;origPos&quot;:null}" fill="#fff766" stroke-width="NaN" stroke="none" transform="matrix(1,0,0,1,-216.5759,-81.37702)"/><text transform="matrix(0.11086259975177465,-0.05343883303626507,0.05343883303626507,0.11086259975177465,44.749149999999986,66.36507999999999)" font-size="40" xml:space="preserve" data-paper-data="{&quot;origPos&quot;:null}" fill="#bbb54b" fill-rule="nonzero" stroke="none" stroke-width="1" stroke-linecap="butt" stroke-linejoin="miter" stroke-miterlimit="10" stroke-dasharray="" stroke-dashoffset="0" font-family="Sans Serif" font-weight="normal" text-anchor="start" style="mix-blend-mode: normal"><tspan x="0" dy="0">C</tspan></text></g><g><path d="M260.93552,144.57732c0.5998,-1.58983 2.37484,-2.39244 3.96467,-1.79264c1.58983,0.5998 2.39244,2.37485 1.79265,3.96469c-0.5998,1.58983 -2.37483,2.39243 -3.96467,1.79263c-1.58983,-0.5998 -2.39244,-2.37483 -1.79265,-3.96468z" data-paper-data="{&quot;origPos&quot;:null}" fill="#bbb54b" stroke-width="NaN" stroke="none" transform="matrix(1,0,0,1,-216.5759,-81.37702)"/><path d="M261.45838,144.81845c0.60779,-1.61104 2.4065,-2.42433 4.01754,-1.81654c1.61104,0.60779 2.42435,2.4065 1.81655,4.01754c-0.60779,1.61104 -2.40652,2.42433 -4.01756,1.81654c-1.61104,-0.60779 -2.42433,-2.40651 -1.81653,-4.01755z" data-paper-data="{&quot;origPos&quot;:null}" fill="#fff766" stroke-width="NaN" stroke="none" transform="matrix(1,0,0,1,-216.5759,-81.37702)"/><text transform="matrix(0.11514873825658108,0.04343953243207598,-0.04343953243207598,0.11514873825658108,45.57929999999999,65.54579)" font-size="40" xml:space="preserve" data-paper-data="{&quot;origPos&quot;:null}" fill="#bbb54b" fill-rule="nonzero" stroke="none" stroke-width="1" stroke-linecap="butt" stroke-linejoin="miter" stroke-miterlimit="10" stroke-dasharray="" stroke-dashoffset="0" font-family="Sans Serif" font-weight="normal" text-anchor="start" style="mix-blend-mode: normal"><tspan x="0" dy="0">C</tspan></text></g><g><path d="M257.86586,141.9087c0.5998,-1.58983 2.37485,-2.39244 3.96468,-1.79264c1.58983,0.5998 2.39244,2.37484 1.79265,3.96469c-0.5998,1.58983 -2.37483,2.39243 -3.96468,1.79263c-1.58983,-0.5998 -2.39244,-2.37483 -1.79265,-3.96467z" data-paper-data="{&quot;origPos&quot;:null}" fill="#bbb54b" stroke-width="NaN" stroke="none" transform="matrix(1,0,0,1,-216.5759,-81.37702)"/><path d="M258.38872,142.14978c0.60779,-1.61104 2.4065,-2.42433 4.01754,-1.81654c1.61104,0.60779 2.42434,2.4065 1.81654,4.01754c-0.60779,1.61104 -2.40651,2.42433 -4.01754,1.81654c-1.61104,-0.60779 -2.42433,-2.40651 -1.81654,-4.01755z" data-paper-data="{&quot;origPos&quot;:null}" fill="#fff766" stroke-width="NaN" stroke="none" transform="matrix(1,0,0,1,-216.5759,-81.37702)"/><text transform="matrix(0.11514873825658108,0.04343953243207598,-0.04343953243207598,0.11514873825658108,42.50965000000002,62.87714000000001)" font-size="40" xml:space="preserve" data-paper-data="{&quot;origPos&quot;:null}" fill="#bbb54b" fill-rule="nonzero" stroke="none" stroke-width="1" stroke-linecap="butt" stroke-linejoin="miter" stroke-miterlimit="10" stroke-dasharray="" stroke-dashoffset="0" font-family="Sans Serif" font-weight="normal" text-anchor="start" style="mix-blend-mode: normal"><tspan x="0" dy="0">C</tspan></text></g><path d="M 53.8585 62.2651 C 53.8585 66.1021 50.6038 69.2126 46.5889 69.2126 C 42.5741 69.2126 39.3194 66.1021 39.3194 62.2651 C 39.3194 58.4282 42.5741 55.3177 46.5889 55.3177 C 50.6038 55.3177 53.8585 58.4282 53.8585 62.2651 Z " fill="url(#color-1-,0,0,1,-216.5759,-81.37702)" stroke="#000000" stroke-width="3"/></g></g></g></g></g></svg>