<svg xmlns="http://www.w3.org/2000/svg" xmlns:xlink="http://www.w3.org/1999/xlink" version="1.1" width="32.38904" height="67.20837" viewBox="0,0,32.38904,67.20837"><g><g data-paper-data="{&quot;isPaintingLayer&quot;:true}" fill-rule="nonzero" stroke-linecap="none" stroke-linejoin="miter" stroke-miterlimit="10" stroke-dasharray="" stroke-dashoffset="0" font-family="none" font-weight="none" font-size="none" text-anchor="none" style="mix-blend-mode: normal"><g data-paper-data="{&quot;origPos&quot;:null}"><path d="M 16.1945 64.2084 L 16.1945 27.9584 " data-paper-data="{&quot;origPos&quot;:null}" fill="none" stroke="#05cb00" stroke-width="6" stroke-linecap="round"/><g data-paper-data="{&quot;origPos&quot;:null,&quot;index&quot;:null}" stroke-linecap="butt"><path d="M246.74476,160.20484l-4.72142,-6.91861l7.37929,1.74761z" data-paper-data="{&quot;origRot&quot;:0,&quot;origPos&quot;:null}" stroke-width="0" fill="#e2e2e2" stroke="none" transform="matrix(1,0,0,1,-223.88881,-151.62496)"/><path d="M244.19059,164.64537l-4.72142,-6.91861l7.37929,1.74761z" data-paper-data="{&quot;origRot&quot;:0,&quot;origPos&quot;:null}" stroke-width="0" fill="#e2e2e2" stroke="none" transform="matrix(1,0,0,1,-223.88881,-151.62496)"/></g><g data-paper-data="{&quot;origPos&quot;:null}" stroke-linecap="butt"><path d="M230.10387,154.84077l7.37929,-1.7476l-4.72142,6.91861z" data-paper-data="{&quot;origRot&quot;:0,&quot;origPos&quot;:null}" fill="#e2e2e2" stroke-width="0" stroke="none" transform="matrix(1,0,0,1,-223.88881,-151.62496)"/><path d="M232.65804,159.2813l7.37929,-1.74761l-4.72142,6.91861z" data-paper-data="{&quot;origRot&quot;:0,&quot;origPos&quot;:null}" fill="#e2e2e2" stroke-width="0" stroke="none" transform="matrix(1,0,0,1,-223.88881,-151.62496)"/></g><path d="M225.24212,165.42427c0,-4.93192 1.03934,-7.87995 4.03967,-11.45083c2.95735,-3.51973 3.07863,3.61741 5.12911,7.88671c1.46554,3.05141 5.47515,8.00465 5.47515,8.00465c0,0 3.60889,-5.10225 5.03874,-8.25422c1.93143,-4.25765 2.11082,-11.44768 5.14497,-8.11777c3.29292,3.6139 4.46022,6.73531 4.46022,11.93147c0,9.16997 -6.55631,16.6037 -14.64393,16.6037c-8.08762,0 -14.64393,-7.43373 -14.64393,-16.6037z" data-paper-data="{&quot;origPos&quot;:null}" fill="#ff1313" stroke="#ffffff" stroke-width="0" stroke-linecap="butt" transform="matrix(1,0,0,1,-223.88881,-151.62496)"/><path d="M 5.44 1.6361 C 5.44 1.6361 -3.134 13.0802 4.248 24.0318 C 10.5706 33.4116 22.5725 31.0194 27.7464 24.0318 C 36.4301 12.3044 25.7031 1.25 25.7031 1.25 " data-paper-data="{&quot;origPos&quot;:null}" fill="none" stroke="#ffffff" stroke-width="2.5" stroke-linecap="round"/></g><path d="M255.10867,198.41711c1.08547,1.98724 -1.21725,5.33664 -5.14326,7.4811c-3.92601,2.14446 -7.98861,2.27191 -9.07408,0.28467c-1.08547,-1.98724 1.21725,-5.33664 5.14326,-7.4811c3.92601,-2.14446 7.98861,-2.27191 9.07408,-0.28467z" data-paper-data="{&quot;origPos&quot;:null,&quot;origRot&quot;:0}" fill="#05cb00" stroke="none" stroke-width="0" stroke-linecap="butt" transform="matrix(1,0,0,1,-223.88881,-151.62496)"/><path d="M238.91575,195.06692c-1.17885,1.93331 -5.23078,1.61258 -9.05024,-0.71636c-3.81946,-2.32894 -5.9601,-5.78418 -4.78126,-7.71748c1.17885,-1.93331 5.23078,-1.61258 9.05024,0.71636c3.81946,2.32894 5.9601,5.78418 4.78126,7.71748z" data-paper-data="{&quot;origPos&quot;:null,&quot;origRot&quot;:0}" fill="#05cb00" stroke="none" stroke-width="0" stroke-linecap="butt" transform="matrix(1,0,0,1,-223.88881,-151.62496)"/></g></g></svg>