<svg xmlns="http://www.w3.org/2000/svg" xmlns:xlink="http://www.w3.org/1999/xlink" version="1.1" width="54.77669906616211" height="159.23959350585938" viewBox="-0.5 -0.5 54.77669906616211 159.23959350585938"><g><g data-paper-data="{&quot;isPaintingLayer&quot;:true}" fill-rule="nonzero" stroke-linecap="none" stroke-linejoin="miter" stroke-miterlimit="10" stroke-dasharray="" stroke-dashoffset="0" font-family="none" font-weight="none" font-size="none" text-anchor="none" style="mix-blend-mode: normal"><g><path d="M 25.6786 50.7737 L 25.6786 118.0708 L 13.6309 156.9896 " data-paper-data="{&quot;origPos&quot;:null}" fill="none" stroke="#2bbbe3" stroke-width="3.5" stroke-linecap="round"/><path d="M 1.25 26.55 C 1.25 12.5772 12.5772 1.25 26.55 1.25 C 40.5228 1.25 51.85 12.5772 51.85 26.55 C 51.85 40.5228 40.5228 51.85 26.55 51.85 C 12.5772 51.85 1.25 40.5228 1.25 26.55 Z " data-paper-data="{&quot;origPos&quot;:null}" fill="#cbffff" stroke="#2bbbe3" stroke-width="2.5" stroke-linecap="butt"/><path d="M 37.5294 156.7928 L 25.4818 116.6341 " data-paper-data="{&quot;origPos&quot;:null}" fill="none" stroke="#2bbbe3" stroke-width="3.5" stroke-linecap="round"/><path d="M 14.877 89.269 C 14.877 89.269 9.6156 82.3799 11.7526 78.3546 C 15.7421 70.8393 24.3754 59.0976 24.3754 59.0976 " data-paper-data="{&quot;origPos&quot;:null}" fill="none" stroke="#2bbbe3" stroke-width="3.5" stroke-linecap="round"/><path d="M 43.8642 87.6691 C 43.8642 87.6691 36.7104 84.6584 35.0758 81.5793 C 30.5839 73.1178 26.5658 59.0977 26.5658 59.0977 " data-paper-data="{&quot;origPos&quot;:null,&quot;index&quot;:null}" fill="none" stroke="#2bbbe3" stroke-width="3.5" stroke-linecap="round"/><path d="M240.4017,109.1944c0,-2.1092 1.70985,-3.81905 3.81905,-3.81905c2.1092,0 3.81905,1.70985 3.81905,3.81905c0,2.1092 -1.70985,3.81905 -3.81905,3.81905c-2.1092,0 -3.81905,-1.70985 -3.81905,-3.81905z" data-paper-data="{&quot;origPos&quot;:null}" fill="#6db3c6" stroke="none" stroke-width="0" stroke-linecap="butt" transform="matrix(1,0,0,1,-215.93582,-87.48972)"/><path d="M 23.0427 15.5288 L 32.2542 17.6821 " data-paper-data="{&quot;origPos&quot;:null,&quot;origRot&quot;:0}" fill="none" stroke="#6db3c6" stroke-width="2.5" stroke-linecap="round"/><path d="M 44.3886 15.8839 L 36.9082 17.6031 " data-paper-data="{&quot;origPos&quot;:null,&quot;origRot&quot;:0}" fill="none" stroke="#6db3c6" stroke-width="2.5" stroke-linecap="round"/><path d="M252.60167,109.33726c0,-2.10921 1.70984,-3.81905 3.81905,-3.81905c2.1092,0 3.81905,1.70985 3.81905,3.81905c0,2.10921 -1.70985,3.81905 -3.81905,3.81905c-2.10921,0 -3.81905,-1.70985 -3.81905,-3.81905z" data-paper-data="{&quot;origPos&quot;:null}" fill="#6db3c6" stroke="none" stroke-width="0" stroke-linecap="butt" transform="matrix(1,0,0,1,-215.93582,-87.48972)"/><g data-paper-data="{&quot;origPos&quot;:null}" stroke-linecap="butt"><path d="M 41.6946 10.0692 C 41.6946 13.0124 38.4788 15.3984 34.5118 15.3984 C 30.5449 15.3984 27.329 13.0124 27.329 10.0692 C 27.329 7.126 30.5449 4.74 34.5118 4.74 C 38.4788 4.74 41.6946 7.126 41.6946 10.0692 Z " data-paper-data="{&quot;origPos&quot;:null}" fill="#cbffff" stroke="#6db3c6" stroke-width="1.5"/><path d="M248.81409,97.96393c0,-1.91949 1.55606,-3.47555 3.47555,-3.47555c1.91949,0 3.47556,1.55606 3.47556,3.47556c0,1.91949 -1.55606,3.47556 -3.47556,3.47556c-1.9195,0 -3.47555,-1.55606 -3.47555,-3.47555z" data-paper-data="{&quot;origPos&quot;:null}" fill="#6db3c6" stroke="none" stroke-width="0" transform="matrix(1,0,0,1,-215.93582,-87.48972)"/></g><path d="M 39.995 95.8398 L 36.712 79.6006 L 52.5267 84.9968 Z " data-paper-data="{&quot;origPos&quot;:null,&quot;origRot&quot;:0}" fill="none" stroke="#63ddff" stroke-width="3" stroke-linecap="butt"/><path d="M 27.9947 37.0146 C 27.9947 37.0146 31.7018 36.7807 34.0746 36.7807 C 36.3561 36.7807 39.9207 37.0146 39.9207 37.0146 " data-paper-data="{&quot;origPos&quot;:null}" fill="none" stroke="#6db3c6" stroke-width="2.5" stroke-linecap="round"/><path d="M 14.5397 79.6275 L 23.793 93.3704 L 7.1175 94.4439 Z " data-paper-data="{&quot;origPos&quot;:null,&quot;origRot&quot;:0}" fill="none" stroke="#63ddff" stroke-width="3" stroke-linecap="butt"/></g></g></g></svg>