<svg xmlns="http://www.w3.org/2000/svg" xmlns:xlink="http://www.w3.org/1999/xlink" version="1.1" width="489.95758" height="335.9379" viewBox="0,0,489.95758,335.9379"><g><g data-paper-data="{&quot;isPaintingLayer&quot;:true}" fill-rule="nonzero" stroke-linejoin="miter" stroke-miterlimit="10" stroke-dasharray="" stroke-dashoffset="0" style="mix-blend-mode: normal"><g data-paper-data="{&quot;origPos&quot;:null}"><g data-paper-data="{&quot;origPos&quot;:null,&quot;index&quot;:null}"><path d="M87.99494,269.28928c2.73079,-2.32476 3.47181,-6.07477 7.54049,-5.86705c1.36379,0.06962 6.21254,2.35572 7.39991,4.2884l-0.58728,32.16158l-5.98027,-0.10919c-0.62164,-0.18309 -1.19264,-0.40276 -1.62886,-0.76109c-2.4511,-2.01338 -4.51024,-4.02283 -6.49366,-6.09488c0.0011,-0.0376 0.00199,-0.07526 0.00268,-0.11296c0.02343,-1.28306 -0.19585,-2.5141 -0.61559,-3.64927z" data-paper-data="{&quot;origPos&quot;:null}" fill="#00c00e" stroke="none" stroke-width="0" stroke-linecap="butt" transform="matrix(1,0,0,1,4.93638,-30.06376)"/><path d="M131.63151,301.47076l-35.33511,-1.72902c-0.5939,-0.17891 -1.13797,-0.39526 -1.55745,-0.73982c-1.03155,-0.84733 -1.9937,-1.69398 -2.90996,-2.54488l0.57899,-11.83249l39.95219,1.95494z" data-paper-data="{&quot;origPos&quot;:null,&quot;origRot&quot;:0}" fill="#00c00e" stroke="none" stroke-width="0" stroke-linecap="butt" transform="matrix(1,0,0,1,4.93638,-30.06376)"/><path d="M 100.6129 241.6026 L 97.662 238.8816 " fill="none" stroke="#000000" stroke-width="0.5" stroke-linecap="round"/><path d="M 104.3215 239.3366 L 108.3574 237.4099 " fill="none" stroke="#000000" stroke-width="0.5" stroke-linecap="round"/><path d="M 100.7271 253.6067 L 95.4311 251.5096 " fill="none" stroke="#000000" stroke-width="0.5" stroke-linecap="round"/><path d="M 102.8484 246.9776 L 107.1993 246.0569 " fill="none" stroke="#000000" stroke-width="0.5" stroke-linecap="round"/><path d="M 103.5866 261.3268 L 108.3316 257.0794 " fill="none" stroke="#000000" stroke-width="0.5" stroke-linecap="round"/><path d="M 116.5479 263.5638 L 111.9063 262.1455 " fill="none" stroke="#000000" stroke-width="0.5" stroke-linecap="round"/><path d="M 132.6609 257.5237 L 125.6194 259.7288 " fill="none" stroke="#000000" stroke-width="0.5" stroke-linecap="round"/></g><path d="M118.2085,343.19081l-2.58013,-141.29843c0.7056,-1.72948 1.48504,-3.42139 2.90535,-4.81872c5.70621,-5.61391 11.67259,-7.23933 19.20004,-9.32563c3.74462,-1.03787 7.26599,0.99448 10.34729,2.73471c1.47385,0.8324 3.76452,2.37524 6.28525,4.09358c2.30516,3.63215 4.81918,7.1765 6.31353,9.72417l2.52116,138.06875z" fill="#00c00e" stroke="none" stroke-width="0" stroke-linecap="butt" transform="matrix(1,0,0,1,4.93638,-30.06376)"/><path d="M 161.466 210.6643 L 157.3024 201.7388 " fill="none" stroke="#000000" stroke-width="0.5" stroke-linecap="round"/><path d="M 153.5486 185.9964 L 150.2158 186.0572 " fill="none" stroke="#000000" stroke-width="0.5" stroke-linecap="round"/><path d="M 156.0749 178.2823 L 153.1119 180.3368 " fill="none" stroke="#000000" stroke-width="0.5" stroke-linecap="round"/><path d="M 141.0956 179.556 L 147.3732 176.4409 " fill="none" stroke="#000000" stroke-width="0.5" stroke-linecap="round"/><path d="M 147.1509 200.7823 L 140.5827 206.2365 " fill="none" stroke="#000000" stroke-width="0.5" stroke-linecap="round"/><path d="M 147.1672 285.7621 L 156.4086 280.2905 " fill="none" stroke="#000000" stroke-width="0.5" stroke-linecap="round"/><path d="M 138.9408 252.3753 L 147.1644 277.7362 " fill="none" stroke="#000000" stroke-width="0.5" stroke-linecap="round"/><path d="M 151.4344 251.8605 L 146.9574 258.535 " fill="none" stroke="#000000" stroke-width="0.5" stroke-linecap="round"/><path d="M 124.9783 219.6664 L 130.7955 223.4299 " fill="none" stroke="#000000" stroke-width="0.5" stroke-linecap="round"/><path d="M 145.489 241.0767 L 146.037 223.8682 " fill="none" stroke="#000000" stroke-width="0.5" stroke-linecap="round"/><path d="M 128.2968 259.7357 L 127.8292 257.7377 " fill="none" stroke="#000000" stroke-width="0.5" stroke-linecap="round"/><path d="M 148.7922 296.0516 L 152.5039 294.6939 " fill="none" stroke="#000000" stroke-width="0.5" stroke-linecap="round"/><path d="M 138.8508 302.5392 L 133.9244 300.336 " fill="none" stroke="#000000" stroke-width="0.5" stroke-linecap="round"/><path d="M 162.5657 294.7968 L 156.6493 293.4716 " fill="none" stroke="#000000" stroke-width="0.5" stroke-linecap="round"/><path d="M 129.0788 294.6917 L 129.8231 288.2286 " fill="none" stroke="#000000" stroke-width="0.5" stroke-linecap="round"/><path d="M 159.3808 269.9171 L 157.2023 268.667 " fill="none" stroke="#000000" stroke-width="0.5" stroke-linecap="round"/><path d="M 157.1835 251.8988 L 161.086 253.1175 " fill="none" stroke="#000000" stroke-width="0.5" stroke-linecap="round"/><path d="M 130.7942 270.5824 L 129.3317 277.0586 " fill="none" stroke="#000000" stroke-width="0.5" stroke-linecap="round"/><path d="M 130.433 242.9281 L 131.4232 249.9327 " fill="none" stroke="#000000" stroke-width="0.5" stroke-linecap="round"/><path d="M 132.4391 242.6049 L 137.4675 250.3957 " fill="none" stroke="#000000" stroke-width="0.5" stroke-linecap="round"/><path d="M 155.5219 239.6036 L 157.0368 235.9929 " fill="none" stroke="#000000" stroke-width="0.5" stroke-linecap="round"/><path d="M 129.9495 232.1879 L 127.3842 225.4986 " fill="none" stroke="#000000" stroke-width="0.5" stroke-linecap="round"/><path d="M 157.3525 221.7984 L 155.8245 224.6927 " fill="none" stroke="#000000" stroke-width="0.5" stroke-linecap="round"/><path d="M 136.9284 212.9988 L 136.9103 219.8785 " fill="none" stroke="#000000" stroke-width="0.5" stroke-linecap="round"/><path d="M 128.34 198.1878 L 134.6819 191.3359 " fill="none" stroke="#000000" stroke-width="0.5" stroke-linecap="round"/><path d="M 128.1412 187.299 L 132.161 179.1997 " fill="none" stroke="#000000" stroke-width="0.5" stroke-linecap="round"/><path d="M 143.1549 167.3899 L 155.4814 173.471 " fill="none" stroke="#000000" stroke-width="0.5" stroke-linecap="round"/><path d="M 153.8651 195.1419 L 155.9312 190.2313 " fill="none" stroke="#000000" stroke-width="0.5" stroke-linecap="round"/><g data-paper-data="{&quot;origPos&quot;:null}"><path d="M191.36016,245.14481c-0.41974,1.13516 -0.63902,2.3662 -0.61559,3.64927c0.00069,0.0377 0.00158,0.07537 0.00268,0.11296c-1.98342,2.07206 -4.04256,4.0815 -6.49366,6.09488c-0.43622,0.35832 -1.00722,0.57799 -1.62885,0.76109l-5.98027,0.1092l-0.58728,-32.16159c1.18738,-1.93268 6.03613,-4.21878 7.39991,-4.2884c4.06868,-0.20773 4.8097,3.54229 7.54049,5.86705z" data-paper-data="{&quot;origPos&quot;:null}" fill="#00c00e" stroke="none" stroke-width="0" stroke-linecap="butt" transform="matrix(1,0,0,1,4.93638,-30.06376)"/><path d="M146.63238,242.57949l39.95219,-1.95494l0.57899,11.83249c-0.91627,0.8509 -1.87842,1.69754 -2.90997,2.54488c-0.41948,0.34455 -0.96355,0.56091 -1.55745,0.73982l-35.33511,1.72902z" data-paper-data="{&quot;origPos&quot;:null,&quot;origRot&quot;:0}" fill="#00c00e" stroke="none" stroke-width="0" stroke-linecap="butt" transform="matrix(1,0,0,1,4.93638,-30.06376)"/><path d="M 188.2524 197.6026 L 191.2032 194.8816 " fill="none" stroke="#000000" stroke-width="0.5" stroke-linecap="round"/><path d="M 180.5079 193.4099 L 184.5438 195.3366 " fill="none" stroke="#000000" stroke-width="0.5" stroke-linecap="round"/><path d="M 193.4342 207.5096 L 188.1383 209.6067 " fill="none" stroke="#000000" stroke-width="0.5" stroke-linecap="round"/><path d="M 186.0169 202.9776 L 181.666 202.0569 " fill="none" stroke="#000000" stroke-width="0.5" stroke-linecap="round"/><path d="M 185.2787 217.3268 L 180.5337 213.0794 " fill="none" stroke="#000000" stroke-width="0.5" stroke-linecap="round"/><path d="M 172.3174 219.5638 L 176.9589 218.1455 " fill="none" stroke="#000000" stroke-width="0.5" stroke-linecap="round"/><path d="M 156.2044 213.5237 L 163.2459 215.7288 " fill="none" stroke="#000000" stroke-width="0.5" stroke-linecap="round"/></g><path d="M154.23226,244.88024c0,12.56448 -6.49187,22.75 -14.5,22.75c-8.00813,0 -14.5,-10.18552 -14.5,-22.75c0,-12.56448 6.49187,-22.75 14.5,-22.75c8.00813,0 14.5,10.18552 14.5,22.75z" data-paper-data="{&quot;origPos&quot;:null}" fill="#000000" stroke="none" stroke-width="0" stroke-linecap="butt" transform="matrix(1,0,0,1,4.93638,-30.06376)"/><path d="M131.60991,239.29517c0,-1.47276 1.19391,-2.66667 2.66667,-2.66667c1.47276,0 2.66667,1.19391 2.66667,2.66667c0,1.47276 -1.19391,2.66667 -2.66667,2.66667c-1.47276,0 -2.66667,-1.19391 -2.66667,-2.66667z" data-paper-data="{&quot;origPos&quot;:null}" fill="#ffe900" stroke="none" stroke-width="0" stroke-linecap="butt" transform="matrix(1,0,0,1,4.93638,-30.06376)"/><path d="M140.60991,239.29518c0,-1.47276 1.19391,-2.66667 2.66667,-2.66667c1.47276,0 2.66666,1.19391 2.66666,2.66667c0,1.47276 -1.1939,2.66666 -2.66666,2.66666c-1.47276,0 -2.66667,-1.19391 -2.66667,-2.66666z" data-paper-data="{&quot;origPos&quot;:null}" fill="#ffe900" stroke="none" stroke-width="0" stroke-linecap="butt" transform="matrix(1,0,0,1,4.93638,-30.06376)"/></g><g data-paper-data="{&quot;origPos&quot;:null,&quot;origRot&quot;:0}"><path d="M351.8419,347.55581l-35.7399,-133.38664c0.73195,-2.86145 2.16835,-6.96261 3.37976,-11.09041c1.94757,-2.34813 3.72255,-4.46402 4.9089,-5.67137c2.48024,-2.52412 5.30268,-5.45062 9.18829,-5.48821c7.81086,-0.0756 13.99407,-0.16263 21.02968,3.65534c1.7512,0.95032 2.96793,2.36087 4.12408,3.82794l36.57592,136.50679z" fill="#00c00e" stroke="none" stroke-width="0" stroke-linecap="butt" transform="matrix(1,0,0,1,4.93638,-30.06376)"/><path d="M280.54964,247.27452c1.98183,-2.98899 1.65745,-6.79774 5.62505,-7.7227c1.3299,-0.31005 6.62163,0.54677 8.29695,2.07596l8.32521,31.07094l-5.77747,1.54803c-0.64803,-0.00414 -1.2575,-0.05742 -1.77577,-0.28121c-2.91212,-1.25745 -5.44645,-2.61945 -7.92533,-4.06256c-0.00933,-0.03644 -0.01888,-0.07288 -0.02864,-0.1093c-0.33213,-1.23956 -0.88313,-2.36202 -1.60029,-3.33694z" data-paper-data="{&quot;origPos&quot;:null}" fill="#00c00e" stroke="none" stroke-width="0" stroke-linecap="butt" transform="matrix(1,0,0,1,4.93638,-30.06376)"/><path d="M331.38129,266.14091l-34.43641,8.10513c-0.62022,-0.00779 -1.20289,-0.06532 -1.70127,-0.28051c-1.22557,-0.5292 -2.38425,-1.07692 -3.50001,-1.64141l-2.71413,-11.53155l38.93607,-9.16419z" data-paper-data="{&quot;origPos&quot;:null,&quot;origRot&quot;:0}" fill="#00c00e" stroke="none" stroke-width="0" stroke-linecap="butt" transform="matrix(1,0,0,1,4.93638,-30.06376)"/><path d="M 293.5253 217.372 L 289.9374 215.5726 " fill="none" stroke="#000000" stroke-width="0.5" stroke-linecap="round"/><path d="M 296.4632 214.1692 L 299.8092 211.2021 " fill="none" stroke="#000000" stroke-width="0.5" stroke-linecap="round"/><path d="M 291.2838 228.3253 L 296.953 228.8769 " fill="none" stroke="#000000" stroke-width="0.5" stroke-linecap="round"/><path d="M 297.1595 221.9197 L 301.0864 219.8323 " fill="none" stroke="#000000" stroke-width="0.5" stroke-linecap="round"/><path d="M 305.2212 230.1124 L 301.8351 235.5059 " fill="none" stroke="#000000" stroke-width="0.5" stroke-linecap="round"/><path d="M 310.057 233.993 L 314.9097 234.0732 " fill="none" stroke="#000000" stroke-width="0.5" stroke-linecap="round"/><path d="M 328.7254 223.8146 L 322.5678 227.8801 " fill="none" stroke="#000000" stroke-width="0.5" stroke-linecap="round"/><path d="M 336.63 208.2381 L 335.0956 217.9667 " fill="none" stroke="#000000" stroke-width="0.5" stroke-linecap="round"/><path d="M 339.106 191.2087 L 335.8862 192.0714 " fill="none" stroke="#000000" stroke-width="0.5" stroke-linecap="round"/><path d="M 334.7416 186.5115 L 331.3262 185.3561 " fill="none" stroke="#000000" stroke-width="0.5" stroke-linecap="round"/><path d="M 339.1799 181.1812 L 346.0739 182.4399 " fill="none" stroke="#000000" stroke-width="0.5" stroke-linecap="round"/><path d="M 346.1217 204.5129 L 353.9415 207.9391 " fill="none" stroke="#000000" stroke-width="0.5" stroke-linecap="round"/><path d="M 359.201 283.4824 L 369.5948 286.1865 " fill="none" stroke="#000000" stroke-width="0.5" stroke-linecap="round"/><path d="M 368.2724 251.8266 L 367.3791 278.4725 " fill="none" stroke="#000000" stroke-width="0.5" stroke-linecap="round"/><path d="M 362.2706 259.9622 L 356.1233 254.7851 " fill="none" stroke="#000000" stroke-width="0.5" stroke-linecap="round"/><path d="M 368.0997 221.7575 L 372.65 216.5327 " fill="none" stroke="#000000" stroke-width="0.5" stroke-linecap="round"/><path d="M 358.8563 242.7781 L 353.5732 226.3915 " fill="none" stroke="#000000" stroke-width="0.5" stroke-linecap="round"/><path d="M 380.5362 255.9582 L 380.4333 253.9088 " fill="none" stroke="#000000" stroke-width="0.5" stroke-linecap="round"/><path d="M 370.8771 296.5243 L 366.9347 296.2454 " fill="none" stroke="#000000" stroke-width="0.5" stroke-linecap="round"/><path d="M 382.2244 300.0113 L 386.3499 296.5323 " fill="none" stroke="#000000" stroke-width="0.5" stroke-linecap="round"/><path d="M 357.2934 299.1254 L 362.613 296.2166 " fill="none" stroke="#000000" stroke-width="0.5" stroke-linecap="round"/><path d="M 386.945 283.763 L 389.4466 289.7685 " fill="none" stroke="#000000" stroke-width="0.5" stroke-linecap="round"/><path d="M 353.4773 274.3347 L 355.2254 272.5312 " fill="none" stroke="#000000" stroke-width="0.5" stroke-linecap="round"/><path d="M 347.1951 258.6609 L 350.6087 256.4111 " fill="none" stroke="#000000" stroke-width="0.5" stroke-linecap="round"/><path d="M 384.3297 272.8923 L 381.1341 267.0727 " fill="none" stroke="#000000" stroke-width="0.5" stroke-linecap="round"/><path d="M 374.822 247.4013 L 373.8375 240.3959 " fill="none" stroke="#000000" stroke-width="0.5" stroke-linecap="round"/><path d="M 371.8202 240.6397 L 369.1411 249.5169 " fill="none" stroke="#000000" stroke-width="0.5" stroke-linecap="round"/><path d="M 348.8071 244.1356 L 346.3532 241.0842 " fill="none" stroke="#000000" stroke-width="0.5" stroke-linecap="round"/><path d="M 371.3336 229.9404 L 371.9499 222.8027 " fill="none" stroke="#000000" stroke-width="0.5" stroke-linecap="round"/><path d="M 342.1264 227.53 L 344.3949 229.8892 " fill="none" stroke="#000000" stroke-width="0.5" stroke-linecap="round"/><path d="M 361.2415 220.0346 L 359.3226 213.4279 " fill="none" stroke="#000000" stroke-width="0.5" stroke-linecap="round"/><path d="M 355.4938 191.988 L 363.4825 196.8201 " fill="none" stroke="#000000" stroke-width="0.5" stroke-linecap="round"/><path d="M 360.6639 186.3006 L 354.562 179.6278 " fill="none" stroke="#000000" stroke-width="0.5" stroke-linecap="round"/><path d="M 330.5667 180.5682 L 340.7322 171.3169 " fill="none" stroke="#000000" stroke-width="0.5" stroke-linecap="round"/><path d="M 334.7671 196.7998 L 338.1099 200.9481 " fill="none" stroke="#000000" stroke-width="0.5" stroke-linecap="round"/></g><path d="M-4.15578,366.00166v-35.24647h487.61616v35.24647z" data-paper-data="{&quot;origPos&quot;:null}" fill="#f8d292" stroke="none" stroke-width="0" stroke-linecap="butt" transform="matrix(1,0,0,1,4.93638,-30.06376)"/><path d="M 213.4203 300.2469 C 212.2482 297.0858 215.4094 295.9137 215.4094 295.9137 L 216.7429 295.7874 C 217.3748 295.7343 217.9976 295.67 218.6114 295.5928 C 218.0161 294.809 217.4744 293.9688 216.9933 293.0665 C 216.3202 291.5865 215.8503 289.943 215.5712 288.2003 C 215.1524 287.8189 214.7965 287.2606 214.5905 286.4503 C 214.2203 284.9942 214.6639 284.022 215.2696 283.3916 C 215.3678 279.6046 216.2051 275.6437 217.6779 272.0446 C 214.4852 272.4494 211.524 273.3602 209.2475 275.1581 C 208.1049 276.0604 207.3577 277.3761 206.3422 278.4194 L 204.1874 279.7201 C 204.1874 279.7201 200.9067 280.4971 200.1297 277.2164 C 199.6405 275.1509 200.7598 274.0778 201.6561 273.5663 C 202.9267 272.2567 205.008 270.0703 206.2595 269.1134 C 210.3295 266.0012 216.0513 265.1257 221.7756 265.0732 C 222.4026 264.3173 223.0704 263.6155 223.7768 262.9781 L 221.2363 262.2324 L 221.7768 260.391 C 221.4173 259.8919 221.0578 259.3928 220.6983 258.8938 L 219.5836 257.3463 C 219.5836 257.3463 217.613 254.6107 220.3486 252.6401 C 223.0842 250.6696 225.0548 253.4052 225.0548 253.4052 C 225.3189 253.7718 225.7239 254.334 226.1695 254.9527 L 228.3989 258.0477 L 228.3989 258.0477 C 228.6384 258.3802 228.8177 258.756 228.9239 259.1575 C 228.9793 259.3384 229.0259 259.5354 229.0545 259.7438 C 230.7243 259.0678 232.4556 258.5761 234.2191 258.2569 C 235.7691 254.8415 237.7934 251.6013 239.9392 248.551 L 240.6042 248.033 C 240.6042 248.033 241.4315 244.7646 244.6999 245.5918 C 247.9682 246.419 247.141 249.6874 247.141 249.6874 L 245.4542 252.4305 C 244.2772 254.1037 243.0185 255.9497 241.872 257.9085 C 244.1307 258.0951 246.3743 258.5278 248.5444 259.1831 C 249.354 257.9494 250.9201 257.6957 250.9201 257.6957 C 254.1804 257.1676 257.075 257.0506 260.3852 257.2544 L 260.4996 257.3223 C 260.4996 257.3223 263.8688 257.2002 263.991 260.5694 C 264.1132 263.9386 260.7439 264.0608 260.7439 264.0608 L 259.9709 263.9845 C 259.6344 263.9638 259.3062 263.9466 258.9844 263.9333 C 259.5273 264.4231 260.018 264.9806 260.4389 265.6246 C 262.4166 268.6513 262.9588 272.3573 262.6327 276.0843 C 264.1006 281.647 266.0982 286.2938 265.7375 292.1524 L 265.0492 292.7225 C 265.0492 292.7225 265.5308 296.0594 262.194 296.5411 C 258.8571 297.0227 258.3754 293.6859 258.3754 293.6859 L 259.0073 291.7381 C 259.0838 290.4958 259.0198 289.3036 258.8607 288.1378 C 257.9305 289.8108 256.5687 291.7644 254.8932 292.4606 C 250.3142 294.3635 245.0991 293.4448 240.3895 292.6981 C 239.6931 292.5849 238.8417 292.4654 237.96 292.2966 C 237.981 292.968 237.7547 293.5572 237.4901 294.0105 C 237.2903 294.386 237.0229 294.7157 236.7066 294.9864 L 234.072 297.2735 L 233.9361 297.1169 C 233.8581 297.1698 233.7799 297.2222 233.7016 297.2742 C 241.7972 300.1876 250.0543 302.9224 258.5418 304.3022 C 258.5418 304.3022 261.8696 304.8432 261.3286 308.1709 C 260.7876 311.4987 257.4599 310.9577 257.4599 310.9577 C 254.3088 310.4455 251.589 309.2842 248.5317 308.5291 C 241.124 306.6996 231.9937 305.2763 225.0509 301.1743 C 222.5833 301.8592 220.0011 302.2803 217.3074 302.5066 L 217.7536 302.236 C 217.7536 302.236 214.5924 303.4081 213.4203 300.247 Z M 230.4942 291.3011 L 230.6179 288.8533 L 232.0759 288.927 C 231.555 288.1934 231.1008 287.3692 230.7238 286.4898 C 227.9542 287.1924 225.154 287.7962 222.4582 288.3476 C 222.6325 289.0238 222.8557 289.6691 223.1312 290.2749 C 223.5236 291.8938 224.4173 293.0488 225.5758 293.9251 C 227.289 293.2672 228.9256 292.411 230.4942 291.3011 Z M 253.6047 282.996 L 251.7261 281.3128 C 248.5644 281.153 245.7466 281.4392 242.6137 281.8651 C 241.9848 282.7654 241.0158 283.1722 241.0158 283.1722 C 239.779 283.6914 238.4904 284.1708 237.1671 284.6161 C 238.2487 285.3552 239.776 285.767 241.4714 286.0426 C 244.2393 286.5062 247.9817 285.9772 250.5539 286.7102 C 250.7665 286.7708 250.2673 287.45 250.473 287.3687 C 252.2 286.6856 253.3526 284.992 254.1388 282.989 C 253.8167 283.0145 253.6047 282.996 253.6047 282.996 Z M 243.1854 272.2936 L 245.6011 274.6448 L 247.3692 274.4004 L 247.397 274.6009 C 248.9236 274.5144 250.4617 274.4974 252.0665 274.5785 L 254.1921 276.2787 C 254.1921 276.2787 254.8832 276.3392 255.6111 276.7188 C 255.7004 276.0595 255.7712 275.4471 255.8318 274.9102 C 255.9648 273.7329 256.3086 271.3447 255.69 270.4116 C 253.9018 267.7141 250.7915 267.2224 247.8519 266.0488 C 245.6149 264.9967 242.2577 264.3508 238.8697 264.3415 C 238.1339 266.5755 237.7444 268.865 237.925 271.1409 C 237.9481 271.4321 237.9831 271.7267 238.0276 272.0236 C 239.7218 272.1409 240.9065 272.539 242.4907 273.0074 Z M 231.3813 272.7681 C 231.3674 272.6071 231.3551 272.4463 231.3444 272.2858 C 229.4339 272.1144 227.3502 271.9287 225.2175 271.8335 C 223.6532 274.713 222.5396 278.168 222.1377 281.5318 C 224.5559 281.0327 227.038 280.4898 229.4845 279.8595 C 229.5857 277.666 230.2391 275.6204 231.5788 274.1649 C 231.4902 273.6936 231.4211 273.2268 231.3813 272.7681 Z M 231.8337 265.4254 C 231.7276 265.4641 231.6226 265.504 231.5186 265.5449 C 231.6143 265.5528 231.7097 265.5607 231.8047 265.5686 C 231.8143 265.5208 231.8239 265.4731 231.8337 265.4254 Z " data-paper-data="{&quot;origPos&quot;:null,&quot;origRot&quot;:0}" fill="#e99300" stroke="none" stroke-width="0.5" stroke-linecap="butt"/><path d="M 300.5899 94.9317 C 300.4796 95.0656 300.3999 95.1402 300.3999 95.1402 C 296.2417 99.0355 292.3446 97.5076 287.1905 96.7978 C 284.2345 96.3908 280.6941 96.8725 277.6965 96.8725 C 271.2915 96.8725 264.8865 96.8725 258.4815 96.8725 C 255.8003 96.8725 253.7308 97.5567 251.1022 97.8045 C 238.531 98.9895 225.2422 97.8725 212.5788 97.8725 C 209.913 97.8725 206.0182 98.5565 203.505 97.8725 C 200.9145 97.1674 200.7781 96.4983 198.8221 95.4526 C 193.4723 92.5926 188.7131 93.325 184.0041 89.6402 C 182.3065 88.3119 179.6115 89.5163 178.3997 87.6402 C 177.335 85.9919 175.578 85.7508 174.33 84.2592 C 171.7736 80.6671 171.9696 76.5575 171.1114 72.3618 C 169.4753 64.3629 168.0117 62.4607 169.2154 54.294 C 169.7354 50.7658 170.9245 41.8814 174.0631 39.2357 C 175.0096 38.4379 176.1537 37.8736 177.199 37.1925 C 183.3844 33.716 189.3047 34.9836 195.6104 37.2698 C 198.5814 38.3469 200.7001 39.3098 202.2562 42.2357 C 203.6171 44.7947 206.6122 39.4062 207.6381 42.0819 C 207.7894 42.4765 207.9599 42.8678 208.1554 43.2473 C 208.6661 42.6537 209.3451 41.9989 209.658 41.2544 C 211.1741 38.414 210.241 35.0434 211.0572 31.7661 C 213.6981 21.1619 216.9451 7.8394 227.9316 2.1364 C 229.405 1.4463 231.8835 0.0186 233.6187 0.0008 C 238.0353 -0.0446 246.0447 1.9202 248.8639 5.3655 C 249.8634 6.5869 250.1341 8.2069 250.8719 9.5819 C 251.3433 10.4602 252.2277 11.1058 252.6957 11.9857 C 254.0652 14.5609 253.7867 16.6659 254.2114 19.3725 C 254.6719 22.3073 255.2789 24.845 255.2789 27.8725 C 255.2789 29.3087 255.2789 30.7449 255.2789 32.1812 C 255.8617 31.4899 256.3862 30.7469 256.7946 29.9857 C 257.1951 29.2394 257.1532 28.3296 257.5509 27.5819 C 258.8378 25.162 260.7281 23.6483 262.4656 21.6047 C 262.9139 21.0773 263.7936 19.3352 264.2671 18.9857 C 268.7952 15.6446 274.87 16.4284 279.0498 19.6047 C 280.3198 20.7944 282.4435 22.1649 283.3198 23.6047 C 284.2753 25.1745 284.4108 27.0746 285.0893 28.7661 C 286.3793 31.9821 288.7545 35.0793 289.3021 38.5819 C 290.4791 46.1115 290.5065 53.6406 290.5065 61.3725 C 290.5065 70.4302 288.5904 81.2719 298.2649 86.6047 C 298.8454 86.9247 301.2099 87.2461 302.0255 87.5008 C 303.9414 88.099 305.8528 87.9687 307.8262 88.199 L 307.8968 88.0008 L 311.0993 89.0008 C 310.5655 90.7486 310.3965 92.6328 309.498 94.2442 C 309.1441 94.8789 305.525 94.8701 305.4516 94.8725 C 303.8343 94.9237 302.2127 94.9361 300.5898 94.9317 Z " data-paper-data="{&quot;origPos&quot;:null,&quot;index&quot;:null}" fill="#ffffff" stroke="none" stroke-width="0.5" stroke-linecap="butt"/><path d="M 402.6184 119.9317 C 401.0981 119.9361 399.579 119.9237 398.0641 119.8725 C 397.9953 119.8701 394.605 119.8789 394.2735 119.2442 C 393.4318 117.6328 393.2735 115.7486 392.7735 114.0008 L 395.7735 113.0008 L 395.8396 113.199 C 397.6882 112.9687 399.4787 113.099 401.2735 112.5008 C 402.0375 112.2461 404.2525 111.9247 404.7963 111.6047 C 413.859 106.2719 412.0641 95.4302 412.0641 86.3725 C 412.0641 78.6406 412.0897 71.1115 413.1923 63.5819 C 413.7053 60.0793 415.9303 56.9821 417.1387 53.7661 C 417.7743 52.0746 417.9013 50.1745 418.7963 48.6047 C 419.6172 47.1649 421.6066 45.7944 422.7963 44.6047 C 426.7118 41.4284 432.4024 40.6446 436.6442 43.9857 C 437.0878 44.3352 437.9118 46.0773 438.3318 46.6047 C 439.9594 48.6483 441.7302 50.162 442.9358 52.5819 C 443.3083 53.3296 443.269 54.2394 443.6442 54.9857 C 444.0268 55.7469 444.5181 56.4899 445.0641 57.1812 C 445.0641 55.7449 445.0641 54.3087 445.0641 52.8725 C 445.0641 49.845 445.6327 47.3073 446.0641 44.3725 C 446.4619 41.6659 446.201 39.5609 447.4839 36.9857 C 447.9223 36.1058 448.7508 35.4602 449.1923 34.5819 C 449.8836 33.2069 450.1371 31.5869 451.0734 30.3655 C 453.7143 26.9202 461.2173 24.9554 465.3546 25.0008 C 466.9801 25.0186 469.3018 26.4463 470.6821 27.1364 C 480.9739 32.8394 484.0155 46.1619 486.4894 56.7661 C 487.2539 60.0434 486.3799 63.414 487.8001 66.2544 C 488.0933 66.9989 488.7293 67.6537 489.2077 68.2474 C 489.3908 67.8678 489.5506 67.4765 489.6923 67.0819 C 490.6533 64.4062 488.8781 122.8725 486.3809 122.8725 C 474.5183 122.8725 460.7529 123.9895 448.9766 122.8045 C 446.5143 122.5567 444.5756 121.8725 442.064 121.8725 C 436.064 121.8725 430.064 121.8725 424.064 121.8725 C 421.256 121.8725 417.9395 121.3908 415.1704 121.7978 C 410.3422 122.5076 406.6915 124.0355 402.7962 120.1403 C 402.7962 120.1403 402.7216 120.0656 402.6183 119.9317 Z " data-paper-data="{&quot;origPos&quot;:null,&quot;index&quot;:null}" fill="#ffffff" stroke="none" stroke-width="0.5" stroke-linecap="butt"/><path d="M 85.2544 100.9317 C 85.1512 101.0656 85.0765 101.1403 85.0765 101.1403 C 81.1812 105.0355 77.5306 103.5076 72.7024 102.7978 C 69.9333 102.3908 66.6168 102.8725 63.8088 102.8725 C 57.8088 102.8725 51.8088 102.8725 45.8088 102.8725 C 43.2971 102.8725 41.3585 103.5567 38.8961 103.8045 C 27.1199 104.9895 14.6714 103.8725 2.8088 103.8725 C 0.3115 103.8725 -0.2205 47.9989 0.0727 47.2544 C 1.4929 44.414 0.6188 41.0434 1.3834 37.7661 C 3.8573 27.1619 6.8989 13.8394 17.1907 8.1364 C 18.5709 7.4463 20.8927 6.0186 22.5182 6.0008 C 26.6555 5.9554 34.1584 7.9202 36.7994 11.3655 C 37.7357 12.5869 37.9892 14.2069 38.6804 15.5819 C 39.122 16.4602 39.9505 17.1058 40.3889 17.9857 C 41.6718 20.5609 41.4109 22.6659 41.8087 25.3725 C 42.2401 28.3073 42.8087 30.845 42.8087 33.8725 C 42.8087 35.3087 42.8087 36.7449 42.8087 38.1812 C 43.3547 37.4899 43.846 36.7469 44.2286 35.9857 C 44.6038 35.2394 44.5645 34.3296 44.937 33.5819 C 46.1426 31.162 47.9134 29.6483 49.541 27.6047 C 49.961 27.0773 50.785 25.3352 51.2286 24.9857 C 55.4704 21.6446 61.161 22.4284 65.0765 25.6047 C 66.2661 26.7944 68.2556 28.1649 69.0765 29.6047 C 69.9715 31.1745 70.0985 33.0746 70.7341 34.7661 C 71.9425 37.9821 74.1675 41.0793 74.6804 44.5819 C 75.783 52.1115 75.8087 59.6406 75.8087 67.3725 C 75.8087 76.4302 74.0137 87.2719 83.0765 92.6047 C 83.6203 92.9247 85.8353 93.2461 86.5993 93.5008 C 88.3941 94.099 90.1846 93.9687 92.0332 94.199 L 92.0993 94.0008 L 95.0993 95.0008 C 94.5993 96.7486 94.4409 98.6328 93.5993 100.2442 C 93.2678 100.8789 89.8775 100.8701 89.8087 100.8725 C 88.2938 100.9237 86.7746 100.9361 85.2544 100.9317 Z " data-paper-data="{&quot;origPos&quot;:null,&quot;index&quot;:null}" fill="#ffffff" stroke="none" stroke-width="0.5" stroke-linecap="butt"/></g></g></svg>