<svg xmlns="http://www.w3.org/2000/svg" xmlns:xlink="http://www.w3.org/1999/xlink" version="1.1" width="89.25885" height="164.37918" viewBox="0,0,89.25885,164.37918"><g><g data-paper-data="{&quot;isPaintingLayer&quot;:true}" fill-rule="nonzero" stroke-linecap="none" stroke-linejoin="miter" stroke-miterlimit="10" stroke-dasharray="" stroke-dashoffset="0" font-family="none" font-weight="none" font-size="none" text-anchor="none" style="mix-blend-mode: normal"><path d="M258.26048,91.7957c-3.04307,-0.54096 -8.17989,-3.42614 -8.17989,-3.42614c-1.85699,-1.33753 -1.98984,-6.01842 3.19136,-4.91966c2.50353,0.53092 2.86784,3.63628 4.9011,5.19042c2.23394,1.70753 6.11117,2.74138 6.11117,2.74138c0,0 -3.46964,0.86803 -6.02374,0.414z" data-paper-data="{&quot;origPos&quot;:null,&quot;origRot&quot;:0,&quot;index&quot;:null}" fill="#a97c4c" stroke="none" stroke-width="0" stroke-linecap="butt" transform="matrix(1,0,0,1,-211.60674,-81.74293)"/><path d="M219.61571,88.86334c0,0 4.00359,-0.27016 6.52383,-1.51698c2.29384,-1.13482 3.24763,-4.11244 5.80651,-4.15279c5.29576,-0.08349 4.26663,4.48479 2.18736,5.44088c0,0 -5.59522,1.84519 -8.68554,1.79179c-2.59376,-0.04483 -5.83217,-1.5629 -5.83217,-1.5629z" data-paper-data="{&quot;origPos&quot;:null,&quot;origRot&quot;:0}" fill="#a97c4c" stroke="none" stroke-width="0" stroke-linecap="butt" transform="matrix(1,0,0,1,-211.60674,-81.74293)"/><path d="M252.08581,87.70834c-3.02827,0.61845 -8.86679,-0.17082 -8.86679,-0.17082c-2.21919,-0.55912 -4.06755,-4.86167 1.15394,-5.74945c2.523,-0.42897 4.00597,2.32362 6.46884,3.01915c2.70595,0.76418 6.69131,0.29655 6.69131,0.29655c0,0 -2.90562,2.08548 -5.4473,2.60457z" data-paper-data="{&quot;origPos&quot;:null,&quot;origRot&quot;:0,&quot;index&quot;:null}" fill="#a97c4c" stroke="none" stroke-width="0" stroke-linecap="butt" transform="matrix(1,0,0,1,-211.60674,-81.74293)"/><path d="M224.85689,85.96092c0,0 3.98536,0.46762 6.69131,-0.29655c2.46287,-0.69554 3.94585,-3.44813 6.46885,-3.01915c5.22149,0.88778 3.37312,5.19033 1.15393,5.74945c0,0 -5.83852,0.78927 -8.86678,0.17082c-2.54169,-0.51909 -5.4473,-2.60456 -5.4473,-2.60456z" data-paper-data="{&quot;origPos&quot;:null,&quot;origRot&quot;:0}" fill="#a97c4c" stroke="none" stroke-width="0" stroke-linecap="butt" transform="matrix(1,0,0,1,-211.60674,-81.74293)"/><path d="M235.2687,89.03267v-5.87342c0,0 3.03799,-0.51073 4.98246,-0.51073c2.35383,0 6.0314,0.51073 6.0314,0.51073v5.87342z" data-paper-data="{&quot;origPos&quot;:null}" fill="#a97c4c" stroke="none" stroke-width="0" stroke-linecap="butt" transform="matrix(1,0,0,1,-211.60674,-81.74293)"/><path d="M242.72401,89.78896c-2.21047,-2.77348 -2.0837,-6.07791 0.11641,-6.63855c3.6107,-0.92009 12.19355,0.29694 15.49589,1.99045c2.66874,1.36859 5.89159,10.51383 7.94589,12.66442c3.43809,3.59924 6.41076,6.23576 6.41076,6.23576c0,0 -6.38582,0.66429 -9.81135,-1.1829c-2.28415,-1.23171 -7.62721,-10.45945 -10.10238,-11.26872c-3.27577,-1.07104 -8.40758,0.26685 -10.05522,-1.80046z" data-paper-data="{&quot;origPos&quot;:null,&quot;origRot&quot;:0,&quot;index&quot;:null}" fill="#a97c4c" stroke="none" stroke-width="0" stroke-linecap="butt" transform="matrix(1,0,0,1,-211.60674,-81.74293)"/><path d="M228.85189,94.32676c-2.28189,1.36943 -5.80548,12.47691 -7.82037,14.26901c-3.02174,2.68761 -9.42478,3.22176 -9.42478,3.22176c0,0 2.42852,-3.45847 5.13418,-8.05765c1.61666,-2.74806 3.07113,-13.34797 5.43849,-15.36498c2.92942,-2.49588 11.13994,-5.51281 14.86244,-5.22155c2.26824,0.17747 3.01228,3.75313 1.35883,7.21069c-1.23245,2.5772 -6.52883,2.13035 -9.54879,3.94272z" data-paper-data="{&quot;origPos&quot;:null,&quot;origRot&quot;:0,&quot;index&quot;:null}" fill="#a97c4c" stroke="none" stroke-width="0" stroke-linecap="butt" transform="matrix(1,0,0,1,-211.60674,-81.74293)"/><path d="M 29.7507 56.1633 L 29.7507 123.4604 L 17.7031 162.3792 " data-paper-data="{&quot;origPos&quot;:null}" fill="none" stroke="#000000" stroke-width="4" stroke-linecap="round"/><path d="M 29.8039 122.0237 L 41.8515 162.1824 " data-paper-data="{&quot;origPos&quot;:null}" fill="none" stroke="#000000" stroke-width="4" stroke-linecap="round"/><path d="M 5.6554 33.2729 C 5.6554 19.3001 16.9826 7.9729 30.9554 7.9729 C 44.9282 7.9729 56.2554 19.3001 56.2554 33.2729 C 56.2554 47.2457 44.9282 58.5729 30.9554 58.5729 C 16.9826 58.5729 5.6554 47.2457 5.6554 33.2729 Z " data-paper-data="{&quot;origPos&quot;:null}" fill="#d4d4d4" stroke="#000000" stroke-width="2.5" stroke-linecap="butt"/><path d="M238.14472,111.74199c0,-2.66149 2.15756,-4.81905 4.81905,-4.81905c2.66149,0 4.81905,2.15756 4.81905,4.81905c0,2.66149 -2.15756,4.81905 -4.81905,4.81905c-2.66149,0 -4.81905,-2.15756 -4.81905,-4.81905z" data-paper-data="{&quot;origPos&quot;:null}" fill="#000000" stroke="none" stroke-width="0" stroke-linecap="butt" transform="matrix(1,0,0,1,-211.60674,-81.74293)"/><path d="M251.79868,111.74199c0,-2.66148 2.15757,-4.81905 4.81905,-4.81905c2.66148,0 4.81905,2.15757 4.81905,4.81905c0,2.66148 -2.15757,4.81905 -4.81905,4.81905c-2.66148,0 -4.81905,-2.15757 -4.81905,-4.81905z" data-paper-data="{&quot;origPos&quot;:null}" fill="#000000" stroke="none" stroke-width="0" stroke-linecap="butt" transform="matrix(1,0,0,1,-211.60674,-81.74293)"/><path d="M 26.8336 24.1571 L 36.3075 26.7791 " data-paper-data="{&quot;origPos&quot;:null,&quot;origRot&quot;:0}" fill="none" stroke="#000000" stroke-width="2.5" stroke-linecap="round"/><path d="M 40.6476 26.609 L 47.6791 23.5319 " data-paper-data="{&quot;origPos&quot;:null,&quot;origRot&quot;:0}" fill="none" stroke="#000000" stroke-width="2.5" stroke-linecap="round"/><path d="M 53.2744 71.353 C 52.7186 71.3068 41.2826 73.8043 33.5094 71.2386 C 27.8914 69.3843 28.7808 65.4871 28.7808 65.4871 " data-paper-data="{&quot;origPos&quot;:null}" fill="none" stroke="#000000" stroke-width="4" stroke-linecap="round"/><path d="M 53.6697 67.3919 L 29.9713 63.8205 " data-paper-data="{&quot;origPos&quot;:null,&quot;index&quot;:null}" fill="none" stroke="#000000" stroke-width="4" stroke-linecap="round"/><path d="M241.77448,91.93808c-2.00915,-2.78864 -1.773,-6.01726 0.34271,-6.49096c3.47217,-0.77741 10.96395,0.15095 14.05109,1.92012c2.49482,1.42973 7.54642,9.66815 9.42854,11.84206c0.24743,0.28579 6.25024,5.43102 6.25024,5.43102c0,0 -7.74197,-0.76095 -10.94111,-2.68466c-2.13319,-1.28272 -6.03955,-7.2323 -8.36948,-8.10823c-3.08355,-1.15925 -9.2644,0.16925 -10.76199,-1.90935z" data-paper-data="{&quot;origPos&quot;:null,&quot;origRot&quot;:0}" fill="#c28e58" stroke="none" stroke-width="0" stroke-linecap="butt" transform="matrix(1,0,0,1,-211.60674,-81.74293)"/><path d="M229.24732,98.17778c-2.17543,1.48679 -5.53463,13.5462 -7.45551,15.49188c-2.88075,2.91794 -8.98506,3.49787 -8.98506,3.49787c0,0 2.31522,-3.75487 4.89464,-8.74819c1.54124,-2.98357 2.92784,-14.49191 5.18475,-16.68179c2.79274,-2.70978 10.62021,-5.98527 14.16903,-5.66905c2.16242,0.19268 2.87175,4.07478 1.29543,7.82866c-1.17495,2.79807 -6.22422,2.31293 -9.10329,4.28062z" data-paper-data="{&quot;origPos&quot;:null,&quot;origRot&quot;:0,&quot;index&quot;:null}" fill="#c28e58" stroke="none" stroke-width="0" stroke-linecap="butt" transform="matrix(1,0,0,1,-211.60674,-81.74293)"/><path d="M235.8128,93.77574l-1.04286,-6.66238c0,0 2.20431,-1.16535 3.77519,-1.43118c2.18084,-0.36907 5.83812,0.05432 5.83812,0.05432l1.04287,6.91238c0,0 -3.31931,0.56883 -5.33946,0.91071c-1.73156,0.29304 -4.27385,0.21616 -4.27385,0.21616z" data-paper-data="{&quot;origPos&quot;:null,&quot;origRot&quot;:0}" fill="#c28e58" stroke="none" stroke-width="0" stroke-linecap="butt" transform="matrix(1,0,0,1,-211.60674,-81.74293)"/><path d="M224.99974,86.78235c0,0 3.98536,0.46762 6.69131,-0.29655c2.46287,-0.69554 3.94585,-3.44813 6.46885,-3.01915c5.22149,0.88778 3.37312,5.19033 1.15393,5.74945c0,0 -5.83852,0.78928 -8.86678,0.17082c-2.54169,-0.51909 -5.4473,-2.60457 -5.4473,-2.60457z" data-paper-data="{&quot;origPos&quot;:null,&quot;origRot&quot;:0}" fill="#c28e58" stroke="none" stroke-width="0" stroke-linecap="butt" transform="matrix(1,0,0,1,-211.60674,-81.74293)"/><path d="M252.51438,88.52977c-3.02827,0.61845 -8.86678,-0.17082 -8.86678,-0.17082c-2.21919,-0.55912 -4.06755,-4.86167 1.15393,-5.74945c2.523,-0.42897 4.00597,2.32362 6.46885,3.01915c2.70595,0.76418 6.69131,0.29656 6.69131,0.29656c0,0 -2.90562,2.08548 -5.4473,2.60456z" data-paper-data="{&quot;origPos&quot;:null,&quot;origRot&quot;:0,&quot;index&quot;:null}" fill="#c28e58" stroke="none" stroke-width="0" stroke-linecap="butt" transform="matrix(1,0,0,1,-211.60674,-81.74293)"/><path d="M260.72267,97.05039c-2.95023,-0.98085 -7.46057,-4.79557 -7.46057,-4.79557c-1.56036,-1.70149 -0.57971,-6.8432 4.40108,-4.97861c2.4067,0.90096 2.03557,4.34729 3.72269,6.30844c1.85363,2.1547 5.53048,3.78171 5.53048,3.78171c0,0 -3.71749,0.50727 -6.19368,-0.31597z" data-paper-data="{&quot;origPos&quot;:null,&quot;origRot&quot;:0,&quot;index&quot;:null}" fill="#c28e58" stroke="none" stroke-width="0" stroke-linecap="butt" transform="matrix(1,0,0,1,-211.60674,-81.74293)"/><path d="M215.68822,100.60949c0,0 3.50145,-1.97641 5.13706,-4.30096c1.48867,-2.11574 0.78459,-5.50973 3.09241,-6.64017c4.77616,-2.33952 6.25154,2.68264 4.8638,4.52763c0,0 -4.11854,4.23474 -6.95955,5.49748c-2.38453,1.05984 -6.13371,0.91601 -6.13371,0.91601z" data-paper-data="{&quot;origPos&quot;:null,&quot;origRot&quot;:0,&quot;index&quot;:null}" fill="#c28e58" stroke="none" stroke-width="0" stroke-linecap="butt" transform="matrix(1,0,0,1,-211.60674,-81.74293)"/><path d="M212.97939,111.80408c0,0 2.96006,-2.72111 4.024,-5.35677c0.96836,-2.39891 -0.48932,-5.54376 1.50084,-7.16954c4.11875,-3.36466 6.69789,1.19022 5.76623,3.30252c0,0 -3.04725,5.0606 -5.52654,6.9365c-2.08092,1.57448 -5.76453,2.28729 -5.76453,2.28729z" data-paper-data="{&quot;origPos&quot;:null,&quot;origRot&quot;:0,&quot;index&quot;:null}" fill="#c28e58" stroke="none" stroke-width="0" stroke-linecap="butt" transform="matrix(1,0,0,1,-211.60674,-81.74293)"/><path d="M 29.7702 9.6745 C 29.7702 9.6745 29.2292 12.4195 28.4326 13.6093 C 27.6173 14.8272 25.6399 15.8438 25.6399 15.8438 " data-paper-data="{&quot;origPos&quot;:null,&quot;origRot&quot;:0}" fill="none" stroke="#c28e58" stroke-width="1.5" stroke-linecap="round"/><path d="M 34.0068 13.4463 C 34.0068 13.4463 32.2896 12.0339 31.7507 10.671 C 31.2242 9.3395 31.2768 6.5422 31.2768 6.5422 " data-paper-data="{&quot;origPos&quot;:null,&quot;origRot&quot;:0,&quot;index&quot;:null}" fill="none" stroke="#c28e58" stroke-width="1.5" stroke-linecap="round"/><path d="M 32.6623 15.3635 C 32.6623 15.3635 31.0916 13.7897 30.6887 12.3806 C 30.2951 11.0039 30.6214 8.2252 30.6214 8.2252 " data-paper-data="{&quot;origPos&quot;:null,&quot;origRot&quot;:0,&quot;index&quot;:null}" fill="none" stroke="#c28e58" stroke-width="1.5" stroke-linecap="round"/><g stroke-linecap="butt"><g data-paper-data="{&quot;origPos&quot;:null}"><path d="M261.29248,156.42258l3.52933,-17.31054l5.55244,1.13205l-3.52933,17.31054z" data-paper-data="{&quot;origPos&quot;:null,&quot;origRot&quot;:0}" stroke-width="0" fill="#000000" stroke="none" transform="matrix(1,0,0,1,-211.60674,-81.74293)"/><path d="M265.00002,144.5v-5.66667h29.16666v5.66667z" data-paper-data="{&quot;origPos&quot;:null}" stroke-width="0" fill="#000000" stroke="none" transform="matrix(1,0,0,1,-211.60674,-81.74293)"/><path d="M272.55179,139.35327v-4.66667h15.83333v4.66667z" stroke-width="0" fill="#000000" stroke="none" transform="matrix(1,0,0,1,-211.60674,-81.74293)"/></g><path d="M293.72273,143.66817v-4.14286l7.14286,-1.71429v7.57143z" data-paper-data="{&quot;origPos&quot;:null}" fill="#181818" stroke-width="0" stroke="none" transform="matrix(1,0,0,1,-211.60674,-81.74293)"/></g></g></g></svg>