<svg version="1.1" xmlns="http://www.w3.org/2000/svg" xmlns:xlink="http://www.w3.org/1999/xlink" width="70.77778" height="173.23539" viewBox="0,0,70.77778,173.23539"><defs><radialGradient cx="214.77778" cy="79.70371" r="8.5" gradientUnits="userSpaceOnUse" id="color-1"><stop offset="0" stop-color="#b7ffff"/><stop offset="1" stop-color="#b7ffff" stop-opacity="0"/></radialGradient><radialGradient cx="268.55556" cy="79.70371" r="8.5" gradientUnits="userSpaceOnUse" id="color-2"><stop offset="0" stop-color="#b7ffff"/><stop offset="1" stop-color="#b7ffff" stop-opacity="0"/></radialGradient></defs><g transform="translate(-206.27778,-71.20371)"><g data-paper-data="{&quot;isPaintingLayer&quot;:true}" fill-rule="nonzero" stroke-linejoin="miter" stroke-miterlimit="10" stroke-dasharray="" stroke-dashoffset="0" style="mix-blend-mode: normal"><path d="M244.61111,189.53704v9.77778l1.88889,6.44444" fill="none" stroke="#42fffe" stroke-width="1.5" stroke-linecap="round"/><path d="M240.90829,136.4733v67.297l-12.0476,38.9188" data-paper-data="{&quot;origPos&quot;:null}" fill="none" stroke="#000000" stroke-width="3.5" stroke-linecap="round"/><path d="M241.71149,202.3336l12.0476,40.1587" data-paper-data="{&quot;origPos&quot;:null}" fill="none" stroke="#000000" stroke-width="3.5" stroke-linecap="round"/><path d="M216.81299,113.5828c0,-13.9728 11.3272,-25.3 25.3,-25.3c13.9728,0 25.3,11.3272 25.3,25.3c0,13.9728 -11.3272,25.3 -25.3,25.3c-13.9728,0 -25.3,-11.3272 -25.3,-25.3z" data-paper-data="{&quot;origPos&quot;:null}" fill="#d4d4d4" stroke="#000000" stroke-width="2.5" stroke-linecap="butt"/><path d="M251.19553,107.72565c0,-2.66149 2.15756,-4.81905 4.81905,-4.81905c2.66149,0 4.81905,2.15756 4.81905,4.81905c0,2.66149 -2.15756,4.81905 -4.81905,4.81905c-2.66149,0 -4.81905,-2.15756 -4.81905,-4.81905z" data-paper-data="{&quot;origPos&quot;:null}" fill="#000000" stroke="none" stroke-width="0" stroke-linecap="butt"/><path d="M237.69553,107.55898c0,-2.66149 2.15756,-4.81905 4.81905,-4.81905c2.66149,0 4.81905,2.15756 4.81905,4.81905c0,2.66149 -2.15756,4.81905 -4.81905,4.81905c-2.66149,0 -4.81905,-2.15756 -4.81905,-4.81905z" data-paper-data="{&quot;origPos&quot;:null}" fill="#000000" stroke="none" stroke-width="0" stroke-linecap="butt"/><path d="M247.04159,104.2034l-9.127,-3.6508" data-paper-data="{&quot;origPos&quot;:null}" fill="none" stroke="#000000" stroke-width="2.5" stroke-linecap="round"/><path d="M252.15269,103.8733l6.9365,-3.2858" data-paper-data="{&quot;origPos&quot;:null}" fill="none" stroke="#000000" stroke-width="2.5" stroke-linecap="round"/><path d="M263.49397,179.5352l-21.6985,-34.7381" data-paper-data="{&quot;origPos&quot;:null,&quot;index&quot;:null}" fill="none" stroke="#000000" stroke-width="3.5" stroke-linecap="round"/><g data-paper-data="{&quot;origPos&quot;:null}"><g data-paper-data="{&quot;origPos&quot;:null,&quot;origRot&quot;:0}"><path d="M233.99729,169.6653l29.9352,17.1505" data-paper-data="{&quot;origPos&quot;:null}" fill="none" stroke="#7d4200" stroke-width="2.5" stroke-linecap="round"/><path d="M258.74129,188.22363l3.71517,-2.12612l0.16233,-4.64182l8.4923,9.14884z" data-paper-data="{&quot;origPos&quot;:null}" fill="#b2b2b2" stroke="none" stroke-width="0" stroke-linecap="butt"/></g><g><path d="M262.28729,178.2434l1.6014,4.3807l-4.3885,1.185l1.027,3.8034l-4.486,1.2113" data-paper-data="{&quot;origPos&quot;:null,&quot;index&quot;:null}" fill="none" stroke="#42fffe" stroke-width="1" stroke-linecap="round"/><path d="M259.49057,191.1361l-1.2113,-4.4861l3.8034,-1.027l-1.185,-4.3885l4.5913,-0.8212" data-paper-data="{&quot;origPos&quot;:null,&quot;index&quot;:null}" fill="none" stroke="#42fffe" stroke-width="1" stroke-linecap="round"/><path d="M257.04729,191.4916l-2.7289,4.7478l-25.0308,6.7588" data-paper-data="{&quot;origPos&quot;:null,&quot;index&quot;:null}" fill="none" stroke="#b30076" stroke-width="3" stroke-linecap="round"/><path d="M233.73659,201.5709l-1.4654,-33.0241l28.7204,-15.0846" data-paper-data="{&quot;origPos&quot;:null}" fill="none" stroke="#dcdcdc" stroke-width="2" stroke-linecap="round"/><path d="M259.75148,149.7104l6.7588,25.0308l-2.017,3.5092" data-paper-data="{&quot;origPos&quot;:null}" fill="none" stroke="#b30076" stroke-width="3" stroke-linecap="round"/><path d="M256.87565,151.56282l6.28913,-2.00172l2.00173,6.28912l-6.28912,2.00173z" data-paper-data="{&quot;origRot&quot;:0,&quot;origPos&quot;:null}" fill="#c0af00" stroke="none" stroke-width="0" stroke-linecap="butt"/><path d="M236.63631,197.75102l1.43591,6.44191l-6.44192,1.43591l-1.4359,-6.44191z" data-paper-data="{&quot;origRot&quot;:0,&quot;origPos&quot;:null,&quot;index&quot;:null}" fill="#c0af00" stroke="none" stroke-width="0" stroke-linecap="butt"/><path d="M267.71369,180.39095c-0.46787,0.814 -2.32218,0.62607 -4.14171,-0.41976c-1.81953,-1.04583 -2.91528,-2.55353 -2.44741,-3.36753c0.46787,-0.814 2.32218,-0.62607 4.14172,0.41976c1.81953,1.04583 2.91527,2.55353 2.4474,3.36753z" data-paper-data="{&quot;origPos&quot;:null}" fill="#c0af00" stroke="none" stroke-width="0" stroke-linecap="butt"/><path d="M260.83679,192.3554c-0.46787,0.81401 -2.32218,0.62607 -4.14171,-0.41976c-1.81954,-1.04583 -2.91527,-2.55352 -2.4474,-3.36752c0.46787,-0.81401 2.32218,-0.62607 4.14172,0.41976c1.81953,1.04583 2.91527,2.55352 2.4474,3.36752z" data-paper-data="{&quot;origPos&quot;:null}" fill="#c0af00" stroke="none" stroke-width="0" stroke-linecap="butt"/></g></g><path d="M232.48999,168.8685c0,0 -8.4264,-3.4583 -5.5525,-8.872c3.2526,-6.1269 12.6676,-15.1994 12.6676,-15.1994" data-paper-data="{&quot;origPos&quot;:null}" fill="none" stroke="#000000" stroke-width="3.5" stroke-linecap="round"/><path d="M220.45595,97.89672c0,0 -9.37578,-14.98792 -7.1752,-18.38645c2.09761,-3.23952 4.74484,7.71614 10.4159,8.81656c5.67106,1.10043 22.89703,1.80999 34.09137,-0.18032c11.19432,-1.99031 7.61143,-10.10658 10.95104,-10.13107c4.70431,2.07852 -4.78347,19.73179 -4.78347,19.73179c0,0 -12.33993,2.29424 -22.02408,2.32751c-7.29213,0.02506 -21.47555,-2.17803 -21.47555,-2.17803z" fill="#c86220" stroke="none" stroke-width="NaN" stroke-linecap="butt"/><path d="M231.61736,89.97411l1.55639,-10.3759h17.46609l1.55639,10.3759z" fill="#c86220" stroke="none" stroke-width="0" stroke-linecap="butt"/><path d="M235.4805,84.78267l3.76136,-0.24037l-1.5252,4.47481l4.39014,-0.9653l-1.12411,4.1585l4.44169,-0.7119l-0.95597,4.13088l3.11021,-0.22841" data-paper-data="{&quot;index&quot;:null,&quot;origRot&quot;:0}" fill="none" stroke="#42fffe" stroke-width="1.5" stroke-linecap="round"/><path d="M235.61373,97.28916l-0.43254,-4.29734l5.18827,1.55952l-1.2889,-4.98724l4.80918,1.11359l-1.00083,-5.05696l4.77055,0.92213l-0.39165,-3.5522" data-paper-data="{&quot;index&quot;:null,&quot;origRot&quot;:0}" fill="none" stroke="#42fffe" stroke-width="1.5" stroke-linecap="round"/><path d="M265.94873,80.35733c0,-1.43099 1.16005,-3.78691 2.59104,-3.78691c1.43099,0 2.59105,2.35592 2.59105,3.78691c0,1.43099 -1.16006,2.59105 -2.59105,2.59105c-1.43099,0 -2.59104,-1.16005 -2.59104,-2.59105z" fill="#42fffe" stroke="none" stroke-width="0" stroke-linecap="butt"/><path d="M212.1746,80.11816c0,-1.43099 1.16006,-3.78692 2.59104,-3.78692c1.43099,0 2.59104,2.35593 2.59104,3.78692c0,1.43099 -1.16005,2.59103 -2.59104,2.59103c-1.43099,0 -2.59104,-1.16005 -2.59104,-2.59103z" fill="#42fffe" stroke="none" stroke-width="0" stroke-linecap="butt"/><path d="M216.27778,98.72223c0,0 -2.9757,6.61472 -3.49131,9.99285c-0.55549,3.63941 0.26908,11.11826 0.26908,11.11826" fill="none" stroke="#42fffe" stroke-width="1.5" stroke-linecap="round"/><path d="M271.1051,121.90017c0,0 -2.72589,6.72151 -4.81176,9.42831c-2.2472,2.91617 -8.22353,7.48744 -8.22353,7.48744" data-paper-data="{&quot;index&quot;:null}" fill="none" stroke="#42fffe" stroke-width="1.5" stroke-linecap="round"/><path d="M229.94445,148.20371c0,0 -7.17569,9.41134 -8.46533,12.74456c-1.08061,2.79297 1.2431,5.9221 1.2431,5.9221" fill="none" stroke="#42fffe" stroke-width="1.5" stroke-linecap="round"/><path d="M206.27778,79.70371c0,-4.69442 3.80558,-8.5 8.5,-8.5c4.69442,0 8.5,3.80558 8.5,8.5c0,4.69442 -3.80558,8.5 -8.5,8.5c-4.69442,0 -8.5,-3.80558 -8.5,-8.5z" fill="url(#color-1)" stroke="none" stroke-width="0" stroke-linecap="butt"/><path d="M260.05556,79.70371c0,-4.69442 3.80558,-8.5 8.5,-8.5c4.69442,0 8.5,3.80558 8.5,8.5c0,4.69442 -3.80558,8.5 -8.5,8.5c-4.69442,0 -8.5,-3.80558 -8.5,-8.5z" fill="url(#color-2)" stroke="none" stroke-width="0" stroke-linecap="butt"/><path d="M235.16667,210.64815l-6.44445,20.11111" fill="none" stroke="#42fffe" stroke-width="1.5" stroke-linecap="round"/><path d="M248.48952,237.00049l-4.10063,-12.79679" data-paper-data="{&quot;index&quot;:null}" fill="none" stroke="#42fffe" stroke-width="1.5" stroke-linecap="round"/></g></g></svg>