<svg version="1.1" xmlns="http://www.w3.org/2000/svg" xmlns:xlink="http://www.w3.org/1999/xlink" width="87.79586" height="173.23539" viewBox="0,0,87.79586,173.23539"><defs><radialGradient cx="214.77778" cy="79.70371" r="8.5" gradientUnits="userSpaceOnUse" id="color-1"><stop offset="0" stop-color="#b7ffff"/><stop offset="1" stop-color="#b7ffff" stop-opacity="0"/></radialGradient><radialGradient cx="268.55556" cy="79.70371" r="8.5" gradientUnits="userSpaceOnUse" id="color-2"><stop offset="0" stop-color="#b7ffff"/><stop offset="1" stop-color="#b7ffff" stop-opacity="0"/></radialGradient></defs><g transform="translate(-206.27778,-71.20371)"><g data-paper-data="{&quot;isPaintingLayer&quot;:true}" fill-rule="nonzero" stroke-linejoin="miter" stroke-miterlimit="10" stroke-dasharray="" stroke-dashoffset="0" style="mix-blend-mode: normal"><path d="M271.1051,121.90017c0,0 -2.72589,6.72151 -4.81176,9.42831c-2.2472,2.91617 -8.22353,7.48744 -8.22353,7.48744" data-paper-data="{&quot;index&quot;:null}" fill="none" stroke="#42fffe" stroke-width="1.5" stroke-linecap="round"/><path d="M240.90831,136.4733v67.297l-12.0476,38.9188" data-paper-data="{&quot;origPos&quot;:null}" fill="none" stroke="#000000" stroke-width="3.5" stroke-linecap="round"/><path d="M241.71151,202.3336l12.0476,40.1587" data-paper-data="{&quot;origPos&quot;:null}" fill="none" stroke="#000000" stroke-width="3.5" stroke-linecap="round"/><path d="M216.813,113.5828c0,-13.9728 11.3272,-25.3 25.3,-25.3c13.9728,0 25.3,11.3272 25.3,25.3c0,13.9728 -11.3272,25.3 -25.3,25.3c-13.9728,0 -25.3,-11.3272 -25.3,-25.3z" data-paper-data="{&quot;origPos&quot;:null}" fill="#d4d4d4" stroke="#000000" stroke-width="2.5" stroke-linecap="butt"/><path d="M251.19552,107.72565c0,-2.66149 2.15756,-4.81905 4.81905,-4.81905c2.66149,0 4.81905,2.15756 4.81905,4.81905c0,2.66149 -2.15756,4.81905 -4.81905,4.81905c-2.66149,0 -4.81905,-2.15756 -4.81905,-4.81905z" data-paper-data="{&quot;origPos&quot;:null}" fill="#000000" stroke="none" stroke-width="0" stroke-linecap="butt"/><path d="M259.08921,100.5876l-6.9365,3.2857" data-paper-data="{&quot;origPos&quot;:null}" fill="none" stroke="#000000" stroke-width="2.5" stroke-linecap="round"/><path d="M241.7955,144.7971l42.0984,-0.4619" data-paper-data="{&quot;origPos&quot;:null,&quot;index&quot;:null}" fill="none" stroke="#000000" stroke-width="3.5" stroke-linecap="round"/><g data-paper-data="{&quot;origPos&quot;:null,&quot;origRot&quot;:0}"><path d="M285.9679,153.7151l-34.4941,0.6345" data-paper-data="{&quot;origPos&quot;:null}" fill="none" stroke="#7d4200" stroke-width="2.5" stroke-linecap="round"/><path d="M282.23409,157.58664l2.09841,-3.73089l-2.24186,-4.06779l11.983,3.49688z" data-paper-data="{&quot;origPos&quot;:null}" fill="#b2b2b2" stroke="none" stroke-width="0" stroke-linecap="butt"/></g><g><path d="M285.1582,147.2006l3.6219,2.9389l-3.1592,3.2685l2.8327,2.7379l-3.2294,3.3411" data-paper-data="{&quot;origPos&quot;:null,&quot;index&quot;:null}" fill="none" stroke="#00e6ff" stroke-width="1" stroke-linecap="round"/><path d="M289.37131,159.7023l-3.3411,-3.2294l2.738,-2.8327l-3.2684,-3.1592l3.5199,-3.0602" data-paper-data="{&quot;origPos&quot;:null,&quot;index&quot;:null}" fill="none" stroke="#00e6ff" stroke-width="1" stroke-linecap="round"/><path d="M287.4564,161.2608l0.093,5.4754l-18.0191,18.6423" data-paper-data="{&quot;origPos&quot;:null,&quot;index&quot;:null}" fill="none" stroke="#b30076" stroke-width="3" stroke-linecap="round"/><path d="M272.6171,181.871l-22.7988,-27.796l21.5153,-27.4818" data-paper-data="{&quot;origPos&quot;:null}" fill="none" stroke="#dcdcdc" stroke-width="2" stroke-linecap="round"/><path d="M268.34441,124.0088l18.6422,18.0191l0.0688,4.0471" data-paper-data="{&quot;origPos&quot;:null}" fill="none" stroke="#b30076" stroke-width="3" stroke-linecap="round"/><path d="M266.82606,127.07421l4.3717,-4.94452l4.94452,4.37169l-4.37169,4.94452z" data-paper-data="{&quot;origRot&quot;:0,&quot;origPos&quot;:null}" fill="#c0af00" stroke="none" stroke-width="0" stroke-linecap="butt"/><path d="M273.14669,177.10451l4.5372,4.7931l-4.79311,4.53721l-4.53719,-4.79311z" data-paper-data="{&quot;origRot&quot;:0,&quot;origPos&quot;:null,&quot;index&quot;:null}" fill="#c0af00" stroke="none" stroke-width="0" stroke-linecap="butt"/><path d="M290.9179,146.26036c0.01595,0.93875 -1.67218,1.72867 -3.77056,1.76433c-2.09838,0.03566 -3.81239,-0.69643 -3.82835,-1.63518c-0.01595,-0.93875 1.67218,-1.72867 3.77057,-1.76433c2.09838,-0.03566 3.81239,0.69644 3.82834,1.63519z" data-paper-data="{&quot;origPos&quot;:null}" fill="#c0af00" stroke="none" stroke-width="0" stroke-linecap="butt"/><path d="M291.15241,160.05837c0.01596,0.93875 -1.67218,1.72867 -3.77056,1.76433c-2.09838,0.03567 -3.81238,-0.69643 -3.82834,-1.63518c-0.01596,-0.93875 1.67218,-1.72867 3.77057,-1.76433c2.09838,-0.03566 3.81238,0.69643 3.82834,1.63518z" data-paper-data="{&quot;origPos&quot;:null}" fill="#c0af00" stroke="none" stroke-width="0" stroke-linecap="butt"/></g><path d="M248.89,155.0685c0,0 -25.4265,0.3417 -22.5525,-5.072c2.874,-5.4137 13.2676,-5.1994 13.2676,-5.1994" data-paper-data="{&quot;origPos&quot;:null}" fill="none" stroke="#000000" stroke-width="3.5" stroke-linecap="round"/><path d="M238.34321,109.3351c0,0 2.6422,-1.1667 4.3333,-1.1667c1.7562,0 4.5,1.1667 4.5,1.1667" data-paper-data="{&quot;origPos&quot;:null}" fill="none" stroke="#000000" stroke-width="2.5" stroke-linecap="round"/><path d="M220.45595,97.89672c0,0 -9.37578,-14.98792 -7.1752,-18.38645c2.09761,-3.23952 4.74484,7.71614 10.4159,8.81656c5.67106,1.10043 22.89703,1.80999 34.09137,-0.18032c11.19432,-1.99031 7.61143,-10.10658 10.95104,-10.13107c4.70431,2.07852 -4.78347,19.73179 -4.78347,19.73179c0,0 -12.33993,2.29424 -22.02408,2.32751c-7.29213,0.02506 -21.47555,-2.17803 -21.47555,-2.17803z" fill="#c86220" stroke="none" stroke-width="NaN" stroke-linecap="butt"/><path d="M231.61736,89.97411l1.55639,-10.3759h17.46609l1.55639,10.3759z" fill="#c86220" stroke="none" stroke-width="0" stroke-linecap="butt"/><path d="M235.4805,84.78267l3.76136,-0.24037l-1.5252,4.47481l4.39014,-0.9653l-1.12411,4.1585l4.44169,-0.7119l-0.95597,4.13088l3.11021,-0.22841" data-paper-data="{&quot;index&quot;:null,&quot;origRot&quot;:0}" fill="none" stroke="#42fffe" stroke-width="1.5" stroke-linecap="round"/><path d="M235.61373,97.28916l-0.43254,-4.29734l5.18827,1.55952l-1.2889,-4.98724l4.80918,1.11359l-1.00083,-5.05696l4.77055,0.92213l-0.39165,-3.5522" data-paper-data="{&quot;index&quot;:null,&quot;origRot&quot;:0}" fill="none" stroke="#42fffe" stroke-width="1.5" stroke-linecap="round"/><path d="M265.94873,80.35733c0,-1.43099 1.16005,-3.78691 2.59104,-3.78691c1.43099,0 2.59105,2.35592 2.59105,3.78691c0,1.43099 -1.16006,2.59105 -2.59105,2.59105c-1.43099,0 -2.59104,-1.16005 -2.59104,-2.59105z" fill="#42fffe" stroke="none" stroke-width="0" stroke-linecap="butt"/><path d="M212.1746,80.11816c0,-1.43099 1.16006,-3.78692 2.59104,-3.78692c1.43099,0 2.59104,2.35593 2.59104,3.78692c0,1.43099 -1.16005,2.59103 -2.59104,2.59103c-1.43099,0 -2.59104,-1.16005 -2.59104,-2.59103z" fill="#42fffe" stroke="none" stroke-width="0" stroke-linecap="butt"/><path d="M213.05555,119.83334c0,0 -0.82457,-7.47885 -0.26908,-11.11826c0.51561,-3.37813 3.49131,-9.99285 3.49131,-9.99285" fill="none" stroke="#42fffe" stroke-width="1.5" stroke-linecap="round"/><path d="M206.27778,79.70371c0,-4.69442 3.80558,-8.5 8.5,-8.5c4.69442,0 8.5,3.80558 8.5,8.5c0,4.69442 -3.80558,8.5 -8.5,8.5c-4.69442,0 -8.5,-3.80558 -8.5,-8.5z" fill="url(#color-1)" stroke="none" stroke-width="0" stroke-linecap="butt"/><path d="M260.05556,79.70371c0,-4.69442 3.80558,-8.5 8.5,-8.5c4.69442,0 8.5,3.80558 8.5,8.5c0,4.69442 -3.80558,8.5 -8.5,8.5c-4.69442,0 -8.5,-3.80558 -8.5,-8.5z" fill="url(#color-2)" stroke="none" stroke-width="0" stroke-linecap="butt"/><path d="M246.5,205.75926l-1.88889,-6.44444v-9.77778" fill="none" stroke="#42fffe" stroke-width="1.5" stroke-linecap="round"/><path d="M227.12847,157.30787c0,0 -6.08068,-1.41159 -6.02435,-6.6721c0.04694,-4.38444 6.12158,-7.30706 6.12158,-7.30706" fill="none" stroke="#42fffe" stroke-width="1.5" stroke-linecap="round"/><path d="M228.72222,230.75926l6.44445,-20.11111" fill="none" stroke="#42fffe" stroke-width="1.5" stroke-linecap="round"/><path d="M248.48952,237.00049l-4.10063,-12.79679" data-paper-data="{&quot;index&quot;:null}" fill="none" stroke="#42fffe" stroke-width="1.5" stroke-linecap="round"/></g></g></svg>