<svg xmlns="http://www.w3.org/2000/svg" xmlns:xlink="http://www.w3.org/1999/xlink" version="1.1" width="58.91152" height="157.40631" viewBox="0,0,58.91152,157.40631"><g><g data-paper-data="{&quot;isPaintingLayer&quot;:true}" stroke-linejoin="miter" stroke-miterlimit="10" stroke-dasharray="" stroke-dashoffset="0" style="mix-blend-mode: normal"><g><path d="M 31.1568 49.4404 L 31.1568 116.7375 L 19.1092 155.6563 " data-paper-data="{&quot;origPos&quot;:null}" fill="none" fill-rule="nonzero" stroke="#000000" stroke-width="3.5" stroke-linecap="round"/><path d="M 31.9599 115.3008 L 44.0076 155.4595 " fill="none" fill-rule="nonzero" stroke="#000000" stroke-width="3.5" stroke-linecap="round"/><path d="M 7.0615 26.55 C 7.0615 12.5772 18.3887 1.25 32.3615 1.25 C 46.3343 1.25 57.6615 12.5772 57.6615 26.55 C 57.6615 40.5228 46.3343 51.85 32.3615 51.85 C 18.3887 51.85 7.0615 40.5228 7.0615 26.55 Z " data-paper-data="{&quot;origPos&quot;:null}" fill="#d4d4d4" fill-rule="nonzero" stroke="#000000" stroke-width="2.5" stroke-linecap="butt"/><path d="M237.48831,108.82305c0,-2.66149 2.15756,-4.81905 4.81905,-4.81905c2.66149,0 4.81905,2.15756 4.81905,4.81905c0,2.66149 -2.15756,4.81905 -4.81905,4.81905c-2.66149,0 -4.81905,-2.15756 -4.81905,-4.81905z" data-paper-data="{&quot;origPos&quot;:null}" fill="#000000" fill-rule="nonzero" stroke="none" stroke-width="0" stroke-linecap="butt" transform="matrix(1,0,0,1,-209.54424,-88.29685)"/><path d="M251.14228,108.82305c0,-2.66148 2.15757,-4.81905 4.81905,-4.81905c2.66148,0 4.81905,2.15757 4.81905,4.81905c0,2.66148 -2.15757,4.81905 -4.81905,4.81905c-2.66148,0 -4.81905,-2.15757 -4.81905,-4.81905z" data-paper-data="{&quot;origPos&quot;:null}" fill="#000000" fill-rule="nonzero" stroke="none" stroke-width="0" stroke-linecap="butt" transform="matrix(1,0,0,1,-209.54424,-88.29685)"/><path d="M 37.2901 17.1706 L 28.1631 13.5198 " data-paper-data="{&quot;origPos&quot;:null}" fill="none" fill-rule="nonzero" stroke="#000000" stroke-width="2.5" stroke-linecap="round"/><path d="M 42.4012 16.8405 L 49.3377 13.5548 " data-paper-data="{&quot;origPos&quot;:null}" fill="none" fill-rule="nonzero" stroke="#000000" stroke-width="2.5" stroke-linecap="round"/><path d="M 29.8536 57.7643 L 13.663 88.2627 " data-paper-data="{&quot;origPos&quot;:null}" fill="none" fill-rule="nonzero" stroke="#000000" stroke-width="3.5" stroke-linecap="round"/><path d="M 32.0441 57.7643 L 47.7425 87.3357 " data-paper-data="{&quot;origPos&quot;:null,&quot;index&quot;:null}" fill="none" fill-rule="nonzero" stroke="#000000" stroke-width="3.5" stroke-linecap="round"/><g fill-rule="evenodd" stroke-linecap="butt"><path d="M 27.9624 64.9953 C 27.5986 65.8743 27.0046 66.639 26.2429 67.2089 C 26.1099 67.311 25.9721 67.4108 25.832 67.5058 C 24.0357 68.9264 21.7319 69.541 19.4667 69.204 C 17.1771 69.0069 15.0561 67.9143 13.8519 65.7007 C 11.8142 62.7563 11.891 58.8378 14.0424 55.9754 C 16.1939 53.1131 19.9365 51.95 23.3314 53.0889 C 26.7262 54.2277 29.0103 57.4125 29.0004 60.9932 C 28.9984 62.3936 28.6413 63.7705 27.9624 64.9953 Z " fill="#e6781e" stroke-width="2" stroke="#000000"/><g><path d="M 20.906 69.299 L 20.697 69.299 L 20.6685 69.299 C 20.6234 63.6439 20.6661 57.5778 20.7018 52.697 L 20.9393 52.697 C 20.9036 57.5778 20.8609 63.6391 20.906 69.299 Z " stroke-width="2" fill="#824600" stroke="#000000"/><path d="M 29.0075 60.694 C 29.0075 60.7771 29.0075 60.8626 29.0075 60.9481 L 12.4079 60.9481 C 12.4079 60.8626 12.4079 60.7795 12.4079 60.6963 Z " stroke-width="2" fill="#824600" stroke="#000000"/><path d="M 26.0553 67.3514 C 25.9864 67.4013 25.9199 67.4535 25.8486 67.501 C 23.4117 65.0476 22.932 60.7937 23.7799 57.623 C 24.0912 56.3759 24.7196 55.2305 25.604 54.2978 C 25.6705 54.3453 25.737 54.3976 25.8011 54.4474 C 24.93 55.3545 24.3118 56.4739 24.0079 57.6942 C 22.932 61.7248 24.1694 65.4418 26.0552 67.3514 Z " stroke-width="2" fill="#824600" stroke="#000000"/><path d="M 15.3506 67.5533 C 15.2841 67.4995 15.22 67.4425 15.1583 67.3823 C 17.1153 65.6152 18.481 62.0644 17.5904 57.9175 C 17.3107 56.5757 16.6991 55.3255 15.8114 54.2812 L 16.0109 54.1387 C 16.9124 55.2107 17.5342 56.4894 17.8208 57.8605 C 18.218 59.7709 18.1603 61.748 17.6521 63.632 C 17.1985 65.2779 16.4099 66.6128 15.3506 67.5533 Z " stroke-width="2" fill="#824600" stroke="#000000"/></g></g><g fill-rule="evenodd" stroke-linecap="butt"><path d="M 50.5764 64.433 C 50.2126 65.312 49.6186 66.0767 48.8568 66.6466 C 48.7238 66.7487 48.5861 66.8485 48.4459 66.9435 C 46.6497 68.3641 44.3459 68.9787 42.0806 68.6417 C 39.791 68.4446 37.6701 67.352 36.4659 65.1384 C 34.4282 62.194 34.5049 58.2755 36.6564 55.4131 C 38.8078 52.5508 42.5505 51.3877 45.9453 52.5265 C 49.3402 53.6654 51.6243 56.8502 51.6143 60.4309 C 51.6124 61.8313 51.2553 63.2082 50.5764 64.433 Z " fill="#e6781e" stroke-width="2" stroke="#000000"/><g><path d="M 43.52 68.7367 L 43.311 68.7367 L 43.2825 68.7367 C 43.2373 63.0815 43.2801 57.0155 43.3157 52.1347 L 43.5532 52.1347 C 43.5176 57.0155 43.4749 63.0768 43.52 68.7367 Z " stroke-width="2" fill="#824600" stroke="#000000"/><path d="M 51.6215 60.1317 C 51.6215 60.2148 51.6215 60.3003 51.6215 60.3858 L 35.0218 60.3858 C 35.0218 60.3003 35.0218 60.2172 35.0218 60.134 Z " stroke-width="2" fill="#824600" stroke="#000000"/><path d="M 48.6692 66.7891 C 48.6004 66.839 48.5338 66.8912 48.4626 66.9387 C 46.0257 64.4852 45.546 60.2314 46.3939 57.0606 C 46.7052 55.8136 47.3336 54.6682 48.218 53.7355 C 48.2845 53.783 48.351 53.8353 48.4151 53.8851 C 47.544 54.7922 46.9258 55.9116 46.6219 57.1319 C 45.546 61.1625 46.7834 64.8795 48.6692 66.7891 Z " stroke-width="2" fill="#824600" stroke="#000000"/><path d="M 37.9646 66.991 C 37.8981 66.9372 37.834 66.8801 37.7722 66.82 C 39.7293 65.0529 41.095 61.5021 40.2043 57.3552 C 39.9247 56.0134 39.3131 54.7632 38.4254 53.7189 L 38.6249 53.5764 C 39.5264 54.6484 40.1482 55.9271 40.4347 57.2982 C 40.832 59.2086 40.7742 61.1857 40.2661 63.0697 C 39.8124 64.7156 39.0239 66.0504 37.9646 66.991 Z " stroke-width="2" fill="#824600" stroke="#000000"/></g></g><g fill-rule="evenodd" stroke-linecap="butt"><path d="M 25.9603 93.9964 C 25.3836 95.3899 24.4419 96.6021 23.2343 97.5055 C 23.0235 97.6674 22.8051 97.8255 22.583 97.9761 C 19.7354 100.2281 16.0834 101.2024 12.4925 100.6682 C 8.863 100.3557 5.5007 98.6237 3.5918 95.1147 C 0.3616 90.4471 0.4833 84.2354 3.8938 79.6979 C 7.3044 75.1604 13.2373 73.3167 18.6189 75.122 C 24.0006 76.9273 27.6214 81.9759 27.6056 87.6523 C 27.6025 89.8721 27.0364 92.0549 25.9603 93.9964 Z " fill="#e6781e" stroke-width="2.5" stroke="#000000"/><g><path d="M 14.7742 100.8188 L 14.4428 100.8188 L 14.3977 100.8188 C 14.3261 91.8541 14.3939 82.238 14.4504 74.5008 L 14.8269 74.5008 C 14.7704 82.238 14.7026 91.8466 14.7742 100.8188 Z " stroke-width="2.5" fill="#824600" stroke="#000000"/><path d="M 27.6169 87.1778 C 27.6169 87.3096 27.6169 87.4452 27.6169 87.5807 L 1.3027 87.5807 C 1.3027 87.4452 1.3027 87.3134 1.3027 87.1816 Z " stroke-width="2.5" fill="#824600" stroke="#000000"/><path d="M 22.9369 97.7314 C 22.8277 97.8105 22.7223 97.8933 22.6093 97.9686 C 18.7464 94.0793 17.9858 87.336 19.3299 82.3096 C 19.8235 80.3327 20.8195 78.517 22.2215 77.0384 C 22.327 77.1137 22.4324 77.1966 22.534 77.2756 C 21.1532 78.7135 20.1731 80.4881 19.6914 82.4225 C 17.9858 88.8119 19.9474 94.7043 22.9369 97.7314 Z " stroke-width="2.5" fill="#824600" stroke="#000000"/><path d="M 5.9676 98.0514 C 5.8622 97.9661 5.7605 97.8757 5.6627 97.7803 C 8.7651 94.9791 10.93 89.3503 9.5181 82.7764 C 9.0748 80.6494 8.1052 78.6675 6.698 77.0121 L 7.0143 76.7862 C 8.4434 78.4856 9.4291 80.5126 9.8833 82.6861 C 10.5131 85.7146 10.4215 88.8487 9.616 91.8353 C 8.8969 94.4445 7.6469 96.5605 5.9676 98.0514 Z " stroke-width="2.5" fill="#824600" stroke="#000000"/></g></g></g></g></g></svg>