<svg xmlns="http://www.w3.org/2000/svg" xmlns:xlink="http://www.w3.org/1999/xlink" version="1.1" width="10.28337" height="13.84293" viewBox="0,0,10.28337,13.84293"><g><g data-paper-data="{&quot;isPaintingLayer&quot;:true}" fill-rule="nonzero" stroke-linecap="butt" stroke-linejoin="miter" stroke-miterlimit="10" stroke-dasharray="" stroke-dashoffset="0" style="mix-blend-mode: normal"><path d="M239.99995,186.92146c0,0 -2.98959,-3.4701 -3.92434,-5.98674c-0.93477,-2.51666 -1.2173,-7.85618 -1.2173,-7.85618c0,0 1.74056,0.82827 2.58886,0.83077c0.84533,0.00248 2.492,-0.81581 2.492,-0.81581c0,0 1.78795,0.79786 2.64991,0.80045c0.8721,0.0026 2.55259,-0.78491 2.55259,-0.78491c0,0 -0.05313,4.90916 -1.16148,7.88663c-1.10834,2.97746 -3.98017,5.92581 -3.98017,5.92581z" fill="#0021ff" stroke-width="0" stroke="none" transform="matrix(1,0,0,1,-234.85831,-173.07854)"/><path d="" fill="#ff0000" stroke-width="0" stroke="none" transform="matrix(1,0,0,1,-234.85831,-173.07854)"/></g></g></svg>