<svg xmlns="http://www.w3.org/2000/svg" xmlns:xlink="http://www.w3.org/1999/xlink" version="1.1" width="50.59041" height="50.59041" viewBox="0,0,50.59041,50.59041"><g><g data-paper-data="{&quot;isPaintingLayer&quot;:true}" fill-rule="nonzero" stroke-linecap="none" stroke-linejoin="miter" stroke-miterlimit="10" stroke-dasharray="" stroke-dashoffset="0" font-family="none" font-weight="none" font-size="none" text-anchor="none" style="mix-blend-mode: normal"><path d="M 1.7678 25.3233 L 25.2671 1.7678 L 48.8227 25.2671 L 25.3233 48.8226 Z " data-paper-data="{&quot;origPos&quot;:null,&quot;origRot&quot;:0}" fill="#98deff" stroke="#0057cc" stroke-width="2.5" stroke-linecap="butt"/><g data-paper-data="{&quot;origPos&quot;:null,&quot;origRot&quot;:0}"><path d="M 25.8415 35.1334 L 28.933 30.2091 L 30.9899 35.5676 " data-paper-data="{&quot;origPos&quot;:null}" fill="none" stroke="#000000" stroke-width="1.5" stroke-linecap="round"/><path d="M 28.891 30.7073 L 29.7594 20.4105 " fill="none" stroke="#000000" stroke-width="1.5" stroke-linecap="round"/><path d="M 26.2657 26.1372 L 29.5773 22.5695 L 32.1685 26.5514 " data-paper-data="{&quot;origPos&quot;:null}" fill="none" stroke="#000000" stroke-width="1.5" stroke-linecap="round"/><path d="M240.75449,172.20202c0.17792,-2.1096 2.03232,-3.67554 4.14192,-3.49762c2.1096,0.17792 3.67554,2.03232 3.49762,4.14192c-0.17792,2.1096 -2.03232,3.67554 -4.14192,3.49762c-2.1096,-0.17792 -3.67554,-2.03232 -3.49762,-4.14192z" data-paper-data="{&quot;origPos&quot;:null}" fill="#000000" stroke="none" stroke-width="0" stroke-linecap="butt" transform="matrix(1,0,0,1,-214.6048,-154.60479)"/></g><path d="M 23.8952 18.8952 L 16.2285 18.8952 " data-paper-data="{&quot;origPos&quot;:null}" fill="none" stroke="#ffffff" stroke-width="1.5" stroke-linecap="round"/><path d="M 24.0619 26.2285 L 11.2285 26.2285 " data-paper-data="{&quot;origPos&quot;:null}" fill="none" stroke="#ffffff" stroke-width="1.5" stroke-linecap="round"/><path d="M 24.2285 33.7285 L 17.2285 33.7285 " fill="none" stroke="#ffffff" stroke-width="1.5" stroke-linecap="round"/></g></g></svg>