<svg xmlns="http://www.w3.org/2000/svg" xmlns:xlink="http://www.w3.org/1999/xlink" version="1.1" width="490.19833" height="345.91325" viewBox="0,0,490.19833,345.91325"><defs><radialGradient cx="329.17177" cy="297.93816" r="31.06934" gradientUnits="userSpaceOnUse" id="color-1"><stop offset="0" stop-color="#b85555"/><stop offset="1" stop-color="#b85555" stop-opacity="0"/></radialGradient><radialGradient cx="328.76869" cy="297.31867" r="26.44199" gradientUnits="userSpaceOnUse" id="color-2"><stop offset="0" stop-color="#b85555"/><stop offset="1" stop-color="#b85555" stop-opacity="0"/></radialGradient><radialGradient cx="334.3888" cy="278.3744" r="31.0693" gradientUnits="userSpaceOnUse" id="color-1-,0,0,1,5.21704,-19.56376"><stop offset="0" stop-color="#b85555"/><stop offset="1" stop-color="#b85555" stop-opacity="0"/></radialGradient><radialGradient cx="333.9857" cy="277.7549" r="26.442" gradientUnits="userSpaceOnUse" id="color-2-,0,0,1,5.21704,-19.56376"><stop offset="0" stop-color="#b85555"/><stop offset="1" stop-color="#b85555" stop-opacity="0"/></radialGradient></defs><g><g data-paper-data="{&quot;isPaintingLayer&quot;:true}" fill-rule="nonzero" stroke-linejoin="miter" stroke-miterlimit="10" stroke-dasharray="" stroke-dashoffset="0" style="mix-blend-mode: normal"><g data-paper-data="{&quot;origPos&quot;:null}" stroke-linecap="butt"><path d="M249.19598,360.67214l-17.46346,-75.9911l60.31794,-13.86163l17.46348,75.99111z" stroke-width="NaN" fill="#c8c8c8" stroke="none" transform="matrix(1,0,0,1,5.21704,-19.56376)"/><path d="M232.05996,286.10587c-3.85792,-16.78749 6.62356,-33.5239 23.41105,-37.38183c16.78749,-3.85793 33.52391,6.62356 37.38184,23.41105c3.85792,16.78749 -6.62357,33.52391 -23.41106,37.38183c-16.78749,3.85793 -33.5239,-6.62357 -37.38183,-23.41105z" data-paper-data="{&quot;origPos&quot;:null}" stroke-width="0" fill="#c8c8c8" stroke="none" transform="matrix(1,0,0,1,5.21704,-19.56376)"/></g><text transform="matrix(0.6530474050398444,-0.15007628617048555,0.15007628617048555,0.6530474050398444,242.66726,281.29409)" font-size="40" xml:space="preserve" data-paper-data="{&quot;origPos&quot;:null}" fill="#000000" fill-rule="nonzero" stroke="none" stroke-width="1" stroke-linecap="butt" stroke-linejoin="miter" stroke-miterlimit="10" stroke-dasharray="" stroke-dashoffset="0" font-family="Serif" font-weight="normal" text-anchor="start" style="mix-blend-mode: normal"><tspan x="0" dy="0">R.I.P.</tspan></text><text transform="matrix(0.28882880104150044,-0.04902535353191588,0.04902535353191588,0.28882880104150044,251.83405,307.58088)" font-size="40" xml:space="preserve" data-paper-data="{&quot;origRot&quot;:7.44797,&quot;index&quot;:null}" fill="#000000" fill-rule="nonzero" stroke="none" stroke-width="1" stroke-linecap="butt" stroke-linejoin="miter" stroke-miterlimit="10" stroke-dasharray="" stroke-dashoffset="0" font-family="Serif" font-weight="normal" text-anchor="start" style="mix-blend-mode: normal"><tspan x="0" dy="0">1976-2020</tspan></text><text transform="matrix(0.16126919028689995,-0.025094867288106105,0.025094867288106105,0.16126919028689995,269.00882,309.91298)" font-size="40" xml:space="preserve" data-paper-data="{&quot;origRot&quot;:-5.89647,&quot;index&quot;:null}" fill="#000000" fill-rule="nonzero" stroke="none" stroke-width="1" stroke-linecap="butt" stroke-linejoin="miter" stroke-miterlimit="10" stroke-dasharray="" stroke-dashoffset="0" font-family="Serif" font-weight="normal" text-anchor="start" style="mix-blend-mode: normal"><tspan x="0" dy="0">Cancer</tspan></text><text transform="matrix(0.172201631725198,-0.033500491506532885,0.033500491506532885,0.172201631725198,245.59474,291.82674)" font-size="40" xml:space="preserve" data-paper-data="{&quot;origRot&quot;:11.83628,&quot;index&quot;:null}" fill="#000000" fill-rule="nonzero" stroke="none" stroke-width="1" stroke-linecap="butt" stroke-linejoin="miter" stroke-miterlimit="10" stroke-dasharray="" stroke-dashoffset="0" font-family="Serif" font-weight="normal" text-anchor="start" style="mix-blend-mode: normal"><tspan x="0" dy="0">Chadwick Boseman</tspan></text><text transform="matrix(0.11449159214268259,-0.022440236822137635,0.022440236822137635,0.11449159214268259,249.30097,297.62504)" font-size="40" xml:space="preserve" data-paper-data="{&quot;origRot&quot;:8.63529,&quot;index&quot;:null}" fill="#000000" fill-rule="nonzero" stroke="none" stroke-width="1" stroke-linecap="butt" stroke-linejoin="miter" stroke-miterlimit="10" stroke-dasharray="" stroke-dashoffset="0" font-family="Serif" font-weight="normal" text-anchor="start" style="mix-blend-mode: normal"><tspan x="0" dy="0">Chadwick Aaron Boseman</tspan></text><g><g data-paper-data="{&quot;origPos&quot;:null,&quot;origRot&quot;:0}" stroke-linecap="butt"><g data-paper-data="{&quot;origPos&quot;:null}"><path d="M315.65879,355.65968l-25.07388,-73.83036l58.60284,-19.90239l25.07388,73.83036z" stroke-width="NaN" fill="#cfcfcf" stroke="none" transform="matrix(1,0,0,1,5.21704,-19.56376)"/><path d="M291.05504,283.21365c-5.53916,-16.31015 3.19243,-34.02252 19.50259,-39.5617c16.31015,-5.53916 34.02252,3.19243 39.5617,19.50259c5.53916,16.31015 -3.19243,34.02252 -19.50259,39.5617c-16.31015,5.53916 -34.02252,-3.19243 -39.5617,-19.50259z" data-paper-data="{&quot;origPos&quot;:null}" stroke-width="0" fill="#cfcfcf" stroke="none" transform="matrix(1,0,0,1,5.21704,-19.56376)"/></g><text transform="matrix(0.6344781885430297,-0.2154790782492716,0.2154790782492716,0.6344781885430297,303.12943,277.77974)" font-size="40" xml:space="preserve" data-paper-data="{&quot;origPos&quot;:null}" fill="#000000" fill-rule="nonzero" stroke="none" stroke-width="1" stroke-linecap="butt" stroke-linejoin="miter" stroke-miterlimit="10" stroke-dasharray="" stroke-dashoffset="0" font-family="Serif" font-weight="normal" text-anchor="start" style="mix-blend-mode: normal"><tspan x="0" dy="0">R.I.P.</tspan></text></g><text transform="matrix(0.2151853876172872,-0.06721936146675198,0.06721936146675198,0.2151853876172872,305.99174,288.71259)" font-size="40" xml:space="preserve" data-paper-data="{&quot;origRot&quot;:-4.95869,&quot;origPos&quot;:null}" fill="#000000" fill-rule="nonzero" stroke="none" stroke-width="1" stroke-linecap="butt" stroke-linejoin="miter" stroke-miterlimit="10" stroke-dasharray="" stroke-dashoffset="0" font-family="Serif" font-weight="normal" text-anchor="start" style="mix-blend-mode: normal"><tspan x="0" dy="0">Blade Specialist</tspan></text><text transform="matrix(0.19910824650388678,-0.06160196891453599,0.06160196891453599,0.19910824650388678,310.86401,303.37289)" font-size="40" xml:space="preserve" data-paper-data="{&quot;origPos&quot;:null,&quot;origRot&quot;:-2.267293091915161}" fill="#000000" fill-rule="nonzero" stroke="none" stroke-width="1" stroke-linecap="butt" stroke-linejoin="miter" stroke-miterlimit="10" stroke-dasharray="" stroke-dashoffset="0" font-family="Serif" font-weight="normal" text-anchor="start" style="mix-blend-mode: normal"><tspan x="0" dy="0">Defeated by Jerry</tspan></text><path d="M 307.031 293.1083 L 363.5607 276.0519 " fill="none" stroke="#000000" stroke-width="0.5" stroke-linecap="round"/></g><g data-paper-data="{&quot;origPos&quot;:null,&quot;origRot&quot;:0}" stroke-linecap="butt"><g data-paper-data="{&quot;origPos&quot;:null}"><g data-paper-data="{&quot;origPos&quot;:null}"><path d="M105.13812,342.88233l9.54004,-77.3861l61.42522,7.57241l-9.54004,77.3861z" stroke-width="NaN" fill="#c8c8c8" stroke="none" transform="matrix(1,0,0,1,5.21704,-19.56376)"/><path d="M114.4993,266.94723c2.10753,-17.09567 17.67479,-29.24595 34.77046,-27.13842c17.09567,2.10753 29.24595,17.67479 27.13842,34.77046c-2.10753,17.09567 -17.67479,29.24595 -34.77046,27.13842c-17.09567,-2.10753 -29.24595,-17.67479 -27.13842,-34.77046z" data-paper-data="{&quot;origPos&quot;:null}" stroke-width="0" fill="#c8c8c8" stroke="none" transform="matrix(1,0,0,1,5.21704,-19.56376)"/></g><text transform="matrix(0.6650355850362896,0.08198460547834652,-0.08198460547834652,0.6650355850362896,119.74419,263.08936)" font-size="40" xml:space="preserve" data-paper-data="{&quot;origPos&quot;:null}" fill="#000000" fill-rule="nonzero" stroke="none" stroke-width="1" stroke-linecap="butt" stroke-linejoin="miter" stroke-miterlimit="10" stroke-dasharray="" stroke-dashoffset="0" font-family="Serif" font-weight="normal" text-anchor="start" style="mix-blend-mode: normal"><tspan x="0" dy="0">R.I.P.</tspan></text></g><text transform="matrix(0.28212427866105877,0.03477986472051395,-0.03477986472051395,0.28212427866105877,126.289,281.69308)" font-size="40" xml:space="preserve" data-paper-data="{&quot;origPos&quot;:null}" fill="#000000" fill-rule="nonzero" stroke="none" stroke-width="1" stroke-linecap="butt" stroke-linejoin="miter" stroke-miterlimit="10" stroke-dasharray="" stroke-dashoffset="0" font-family="Serif" font-weight="normal" text-anchor="start" style="mix-blend-mode: normal"><tspan x="0" dy="0">Stan Lee</tspan></text><text transform="matrix(0.28067524803119476,0.034601230362911926,-0.034601230362911926,0.28067524803119476,117.27477,299.05242)" font-size="40" xml:space="preserve" data-paper-data="{&quot;origPos&quot;:null}" fill="#000000" fill-rule="nonzero" stroke="none" stroke-width="1" stroke-linecap="butt" stroke-linejoin="miter" stroke-miterlimit="10" stroke-dasharray="" stroke-dashoffset="0" font-family="Serif" font-weight="normal" text-anchor="start" style="mix-blend-mode: normal"><tspan x="0" dy="0">1922 - 2018</tspan></text><text transform="matrix(0.11266709390559133,0.013889433065055735,-0.013889433065055735,0.11266709390559133,120.13374,305.80174)" font-size="40" xml:space="preserve" data-paper-data="{&quot;origPos&quot;:null}" fill="#000000" fill-rule="nonzero" stroke="none" stroke-width="1" stroke-linecap="butt" stroke-linejoin="miter" stroke-miterlimit="10" stroke-dasharray="" stroke-dashoffset="0" font-family="Serif" font-weight="normal" text-anchor="start" style="mix-blend-mode: normal"><tspan x="0" dy="0">Congestive Heart Failiure</tspan></text><text transform="matrix(0.14112168853449641,0.01739727349824062,-0.01739727349824062,0.14112168853449641,121.13352,286.43223)" font-size="40" xml:space="preserve" data-paper-data="{&quot;origPos&quot;:null}" fill="#000000" fill-rule="nonzero" stroke="none" stroke-width="1" stroke-linecap="butt" stroke-linejoin="miter" stroke-miterlimit="10" stroke-dasharray="" stroke-dashoffset="0" font-family="Serif" font-weight="normal" text-anchor="start" style="mix-blend-mode: normal"><tspan x="0" dy="0">Stanley Martin Lieber</tspan></text></g><g data-paper-data="{&quot;origPos&quot;:null,&quot;origRot&quot;:0}" stroke-linecap="butt"><g data-paper-data="{&quot;origPos&quot;:null}"><path d="M171.49845,355.08419l5.31795,-77.79035l61.7461,4.22112l-5.31794,77.79036z" stroke-width="NaN" fill="#b9b9b9" stroke="none" transform="matrix(1,0,0,1,5.21704,-19.56376)"/><path d="M176.71668,278.75241c1.17481,-17.18497 16.05835,-30.16377 33.24332,-28.98897c17.18497,1.1748 30.16378,16.05835 28.98898,33.24332c-1.17481,17.18497 -16.05836,30.16378 -33.24333,28.98897c-17.18497,-1.1748 -30.16377,-16.05836 -28.98897,-33.24332z" data-paper-data="{&quot;origPos&quot;:null}" stroke-width="0" fill="#b9b9b9" stroke="none" transform="matrix(1,0,0,1,5.21704,-19.56376)"/></g><text transform="matrix(0.6685096941804548,0.04570113441431047,-0.04570113441431047,0.6685096941804548,182.81558,274.86978)" font-size="40" xml:space="preserve" data-paper-data="{&quot;origPos&quot;:null}" fill="#000000" fill-rule="nonzero" stroke="none" stroke-width="1" stroke-linecap="butt" stroke-linejoin="miter" stroke-miterlimit="10" stroke-dasharray="" stroke-dashoffset="0" font-family="Serif" font-weight="normal" text-anchor="start" style="mix-blend-mode: normal"><tspan x="0" dy="0">R.I.P.</tspan></text></g><text transform="matrix(0.29063727467563766,0.03681760678151079,-0.03681760678151079,0.29063727467563766,183.96759,302.68521)" font-size="40" xml:space="preserve" data-paper-data="{&quot;origRot&quot;:7.44797,&quot;origPos&quot;:null}" fill="#000000" fill-rule="nonzero" stroke="none" stroke-width="1" stroke-linecap="butt" stroke-linejoin="miter" stroke-miterlimit="10" stroke-dasharray="" stroke-dashoffset="0" font-family="Serif" font-weight="normal" text-anchor="start" style="mix-blend-mode: normal"><tspan x="0" dy="0">1998-2018</tspan></text><text transform="matrix(0.1616184109267221,0.022737487757471985,-0.022737487757471985,0.1616184109267221,189.41715,307.71334)" font-size="40" xml:space="preserve" data-paper-data="{&quot;origRot&quot;:-5.89647}" fill="#000000" fill-rule="nonzero" stroke="none" stroke-width="1" stroke-linecap="butt" stroke-linejoin="miter" stroke-miterlimit="10" stroke-dasharray="" stroke-dashoffset="0" font-family="Serif" font-weight="normal" text-anchor="start" style="mix-blend-mode: normal"><tspan x="0" dy="0">Assassinated</tspan></text><text transform="matrix(0.16625137132686285,0.017016930743749284,-0.017016930743749284,0.16625137132686285,185.05746,286.65642)" font-size="40" xml:space="preserve" data-paper-data="{&quot;origPos&quot;:null,&quot;origRot&quot;:11.83628}" fill="#000000" fill-rule="nonzero" stroke="none" stroke-width="1" stroke-linecap="butt" stroke-linejoin="miter" stroke-miterlimit="10" stroke-dasharray="" stroke-dashoffset="0" font-family="Serif" font-weight="normal" text-anchor="start" style="mix-blend-mode: normal"><tspan x="0" dy="0">XXXTENTACION</tspan></text><text transform="matrix(0.10847872416813269,0.01095021930621411,-0.01095021930621411,0.10847872416813269,183.23126,292.0567)" font-size="40" xml:space="preserve" data-paper-data="{&quot;origPos&quot;:null,&quot;origRot&quot;:8.63529}" fill="#000000" fill-rule="nonzero" stroke="none" stroke-width="1" stroke-linecap="butt" stroke-linejoin="miter" stroke-miterlimit="10" stroke-dasharray="" stroke-dashoffset="0" font-family="Serif" font-weight="normal" text-anchor="start" style="mix-blend-mode: normal"><tspan x="0" dy="0">Jahseh Dwayne Ricardo Onfroy</tspan></text><path d="M-4.18658,365.47701v-37.22182h487.61616v37.22182z" data-paper-data="{&quot;origPos&quot;:null}" fill="#00e808" stroke="none" stroke-width="0" stroke-linecap="butt" transform="matrix(1,0,0,1,5.21704,-19.56376)"/><path d="M 91.9304 170.9317 C 91.8271 171.0656 91.7524 171.1403 91.7524 171.1403 C 87.8572 175.0355 84.2065 173.5076 79.3783 172.7978 C 76.6092 172.3908 73.2927 172.8725 70.4847 172.8725 C 64.4847 172.8725 58.4847 172.8725 52.4847 172.8725 C 49.9731 172.8725 48.0344 173.5567 45.5721 173.8045 C 33.7958 174.9895 21.3473 173.8725 9.4847 173.8725 C 6.9875 173.8725 3.3389 174.5565 0.9847 173.8725 C -1.442 173.1674 1.2616 115.4062 2.2226 118.0819 C 2.3643 118.4765 5.1579 118.8678 5.341 119.2474 C 5.8194 118.6537 6.4554 117.9989 6.7486 117.2544 C 8.1688 114.414 7.2947 111.0434 8.0593 107.7661 C 10.5332 97.1619 13.5748 83.8394 23.8666 78.1364 C 25.2469 77.4463 27.5686 76.0186 29.1941 76.0008 C 33.3314 75.9554 40.8344 77.9202 43.4753 81.3655 C 44.4116 82.5869 44.6651 84.2069 45.3564 85.5819 C 45.7979 86.4602 46.6264 87.1058 47.0648 87.9857 C 48.3477 90.5609 48.0868 92.6659 48.4846 95.3725 C 48.916 98.3073 49.4846 100.845 49.4846 103.8725 C 49.4846 105.3087 49.4846 106.7449 49.4846 108.1812 C 50.0306 107.4899 50.5219 106.7469 50.9045 105.9857 C 51.2797 105.2394 51.2404 104.3296 51.6129 103.5819 C 52.8185 101.162 54.5893 99.6483 56.2169 97.6047 C 56.6369 97.0773 57.4609 95.3352 57.9045 94.9857 C 62.1463 91.6446 67.8369 92.4284 71.7524 95.6047 C 72.9421 96.7944 74.9315 98.1649 75.7524 99.6047 C 76.6474 101.1745 76.7744 103.0746 77.41 104.7661 C 78.6184 107.9821 80.8434 111.0793 81.3563 114.5819 C 82.4589 122.1115 82.4846 129.6406 82.4846 137.3725 C 82.4846 146.4302 80.6897 157.2719 89.7524 162.6047 C 90.2962 162.9247 92.5112 163.2461 93.2752 163.5008 C 95.07 164.099 96.8605 163.9687 98.7091 164.199 L 98.7752 164.0008 L 101.7752 165.0008 C 101.2752 166.7486 101.1169 168.6328 100.2752 170.2442 C 99.9437 170.8789 96.5534 170.8701 96.4846 170.8725 C 94.9697 170.9237 93.4506 170.9361 91.9303 170.9317 Z " data-paper-data="{&quot;origPos&quot;:null,&quot;index&quot;:null}" fill="#ffffff" stroke="none" stroke-width="0.5" stroke-linecap="butt"/><path d="M 373.7943 170.9317 C 372.2741 170.9361 370.7549 170.9237 369.24 170.8725 C 369.1712 170.8701 365.7809 170.8789 365.4494 170.2442 C 364.6078 168.6328 364.4494 166.7486 363.9494 165.0008 L 366.9494 164.0008 L 367.0155 164.199 C 368.8641 163.9687 370.6546 164.099 372.4494 163.5008 C 373.2134 163.2461 375.4284 162.9247 375.9722 162.6047 C 385.035 157.2719 383.24 146.4302 383.24 137.3725 C 383.24 129.6406 383.2657 122.1115 384.3683 114.5819 C 384.8812 111.0793 387.1062 107.9821 388.3146 104.7661 C 388.9502 103.0746 389.0772 101.1745 389.9722 99.6047 C 390.7931 98.1649 392.7826 96.7944 393.9722 95.6047 C 397.8877 92.4284 403.5783 91.6446 407.8201 94.9857 C 408.2637 95.3352 409.0877 97.0774 409.5077 97.6047 C 411.1353 99.6483 412.9061 101.162 414.1117 103.5819 C 414.4842 104.3296 414.4449 105.2394 414.8201 105.9857 C 415.2027 106.7469 415.694 107.4899 416.24 108.1812 C 416.24 106.7449 416.24 105.3087 416.24 103.8725 C 416.24 100.845 416.8086 98.3073 417.24 95.3725 C 417.6378 92.6659 417.3769 90.5609 418.6598 87.9857 C 419.0982 87.1058 419.9267 86.4602 420.3683 85.5819 C 421.0595 84.2069 421.313 82.5869 422.2493 81.3655 C 424.8902 77.9202 432.3932 75.9554 436.5305 76.0008 C 438.156 76.0186 440.4778 77.4463 441.858 78.1364 C 452.1498 83.8394 455.1914 97.1619 457.6653 107.7661 C 458.4299 111.0434 457.5558 114.414 458.976 117.2544 C 459.2692 117.9989 459.9052 118.6537 460.3836 119.2474 C 460.5667 118.8678 460.7265 118.4765 460.8682 118.0819 C 461.8292 115.4062 463.385 112.5447 464.6598 109.9857 C 466.1175 107.0598 468.1022 106.097 470.8854 105.0198 C 473.2797 104.0931 485.1878 96.572 488.2569 106.8589 C 492.7592 121.9502 488.1008 157.1601 487.5077 158.1403 C 486.3725 160.0163 484.0979 160.8119 482.5077 162.1403 C 478.0965 165.825 474.1382 168.5926 469.1267 171.4526 C 467.2944 172.4983 467.1666 173.1674 464.7399 173.8725 C 462.3857 174.5565 458.7372 173.8725 456.2399 173.8725 C 444.3773 173.8725 431.9288 174.9895 420.1526 173.8045 C 417.6902 173.5567 415.7516 172.8725 413.2399 172.8725 C 407.2399 172.8725 401.2399 172.8725 395.2399 172.8725 C 392.4319 172.8725 389.1154 172.3908 386.3463 172.7978 C 381.5181 173.5076 377.8675 175.0355 373.9722 171.1403 C 373.9722 171.1403 373.8975 171.0656 373.7943 170.9317 Z " data-paper-data="{&quot;origPos&quot;:null,&quot;index&quot;:null}" fill="#ffffff" stroke="none" stroke-width="0.5" stroke-linecap="butt"/><g data-paper-data="{&quot;origPos&quot;:null}" stroke-linecap="butt"><path d="M 175.7943 94.9317 C 174.274 94.9361 172.7549 94.9237 171.24 94.8725 C 171.1712 94.8701 167.7809 94.8789 167.4494 94.2442 C 166.6078 92.6328 166.4494 90.7486 165.9494 89.0008 L 168.9494 88.0008 L 169.0155 88.199 C 170.8641 87.9687 172.6546 88.099 174.4494 87.5008 C 175.2134 87.2461 177.4284 86.9247 177.9722 86.6047 C 187.035 81.2719 185.24 70.4302 185.24 61.3725 C 185.24 53.6406 185.2657 46.1115 186.3683 38.5819 C 186.8812 35.0793 189.1062 31.9821 190.3146 28.7661 C 190.9502 27.0746 191.0772 25.1745 191.9722 23.6047 C 192.7931 22.1649 194.7825 20.7944 195.9722 19.6047 C 199.8877 16.4284 205.5783 15.6446 209.8201 18.9857 C 210.2637 19.3352 211.0877 21.0773 211.5077 21.6047 C 213.1353 23.6483 214.9061 25.162 216.1117 27.5819 C 216.4842 28.3296 216.4449 29.2394 216.8201 29.9857 C 217.2027 30.7469 217.694 31.4899 218.24 32.1812 C 218.24 30.7449 218.24 29.3087 218.24 27.8725 C 218.24 24.845 218.8086 22.3073 219.24 19.3725 C 219.6378 16.6659 219.3769 14.5609 220.6598 11.9857 C 221.0982 11.1058 221.9267 10.4602 222.3683 9.5819 C 223.0595 8.2069 223.313 6.5869 224.2493 5.3655 C 226.8902 1.9202 234.3932 -0.0446 238.5305 0.0008 C 240.156 0.0186 242.4777 1.4463 243.858 2.1364 C 254.1498 7.8394 257.1914 21.1619 259.6653 31.7661 C 260.4299 35.0434 259.5558 38.414 260.976 41.2544 C 261.2692 41.9989 261.9052 42.6537 262.3836 43.2474 C 262.5667 42.8678 262.7265 42.4765 262.8682 42.0819 C 263.8292 39.4062 265.385 36.5447 266.6598 33.9857 C 268.1175 31.0598 270.1022 30.097 272.8854 29.0198 C 278.7923 26.7337 286.0882 25.466 291.8824 28.9425 C 292.8617 29.6236 293.9334 30.1879 294.8201 30.9857 C 297.7602 33.6314 297.3741 38.0158 297.8613 41.5441 C 298.9888 49.7108 297.6178 57.3629 296.0851 65.3618 C 295.2812 69.5575 294.2148 73.6671 291.8201 77.2592 C 290.651 78.7508 290.505 80.492 289.5077 82.1403 C 288.3725 84.0163 286.0979 84.8119 284.5077 86.1403 C 280.0965 89.825 276.1382 92.5926 271.1267 95.4526 C 269.2944 96.4983 269.1666 97.1674 266.7399 97.8725 C 264.3857 98.5565 260.7372 97.8725 258.2399 97.8725 C 246.3773 97.8725 233.9288 98.9895 222.1525 97.8045 C 219.6902 97.5567 217.7515 96.8725 215.2399 96.8725 C 209.2399 96.8725 203.2399 96.8725 197.2399 96.8725 C 194.4319 96.8725 191.1154 96.3908 188.3463 96.7978 C 183.5181 97.5076 179.8675 99.0355 175.9722 95.1403 C 175.9722 95.1403 175.8975 95.0656 175.7943 94.9317 Z " data-paper-data="{&quot;origPos&quot;:null,&quot;index&quot;:null}" stroke-width="0.5" fill="#ffffff" stroke="none"/><path d="M 310.4303 96.3215 C 310.3271 96.4366 310.2524 96.5007 310.2524 96.5007 C 306.3571 99.8467 302.7065 98.5342 297.8783 97.9245 C 295.1092 97.5749 291.7927 97.9887 288.9847 97.9887 C 282.9847 97.9887 276.9847 97.9887 270.9847 97.9887 C 269.5302 97.9887 268.2678 98.1858 266.9847 98.393 C 266.9847 97.7769 266.9847 97.1608 266.9847 96.5446 C 266.9847 90.6269 266.1622 84.1935 266.6861 78.4418 C 266.8936 76.164 267.9847 73.9799 267.9847 71.634 C 267.9847 71.2045 267.9847 70.775 267.9847 70.3455 C 267.9847 69.7198 268.5901 68.3778 268.2133 68.1979 C 268.7113 67.4657 269.1896 66.7247 269.5629 65.9419 C 271.4078 62.0732 272.9847 57.3046 272.9847 53.1658 C 272.9847 48.8709 272.9847 44.5759 272.9847 40.281 C 272.9847 38.929 273.4259 36.8598 272.9847 35.5566 C 272.9429 35.4332 272.9009 35.3098 272.8586 35.1865 C 273.4732 34.5898 274.1051 33.9944 274.7169 33.3346 C 274.8486 33.1925 275.0201 32.9477 275.2072 32.6694 C 275.4645 32.623 275.7235 32.5828 275.9847 32.5501 C 278.8168 32.1953 281.7129 32.3254 284.5705 32.4638 C 285.7471 32.5208 286.9661 33.2467 288.0705 32.8933 C 288.6237 32.7162 286.3978 31.6357 286.9847 31.6911 C 288.6414 31.8476 289.6513 33.4091 290.9847 34.2681 C 290.9847 34.2681 292.4745 35.2279 294.6505 35.7668 C 295.2057 36.9539 295.3831 38.2816 295.91 39.4862 C 297.1184 42.2487 299.3434 44.9091 299.8563 47.9178 C 300.9589 54.3856 300.9846 60.853 300.9846 67.4946 C 300.9846 75.2751 299.1896 84.588 308.2524 89.1688 C 308.7962 89.4436 311.0112 89.7197 311.7752 89.9385 C 313.57 90.4524 315.3605 90.3404 317.2091 90.5383 L 317.2752 90.368 L 320.2752 91.227 C 319.7752 92.7283 319.6169 94.3469 318.7752 95.731 C 318.4437 96.2762 315.0534 96.2687 314.9846 96.2707 C 313.4697 96.3147 311.9506 96.3253 310.4303 96.3215 Z " data-paper-data="{&quot;origPos&quot;:null,&quot;index&quot;:null}" stroke-width="0.5" fill="#ffffff" stroke="none"/></g><path d="M175.33249,183.40776v-8.5h116v8.5z" data-paper-data="{&quot;origPos&quot;:null}" fill="#c8c8c8" stroke="none" stroke-width="0" stroke-linecap="butt" transform="matrix(1,0,0,1,5.21704,-19.56376)"/><path d="M 301.6517 265.4632 L 367.126 291.2856 " fill="none" stroke="url(#color-1-,0,0,1,5.21704,-19.56376)" stroke-width="2" stroke-linecap="round"/><path d="M 315.6257 306.4543 L 352.3458 249.0555 " fill="none" stroke="url(#color-2-,0,0,1,5.21704,-19.56376)" stroke-width="2" stroke-linecap="round"/></g></g></svg>