<svg xmlns="http://www.w3.org/2000/svg" xmlns:xlink="http://www.w3.org/1999/xlink" version="1.1" width="63.75966" height="170.16208" viewBox="0,0,63.75966,170.16208"><g><g data-paper-data="{&quot;isPaintingLayer&quot;:true}" fill-rule="nonzero" stroke-linecap="none" stroke-linejoin="miter" stroke-miterlimit="10" stroke-dasharray="" stroke-dashoffset="0" font-family="none" font-weight="none" font-size="none" text-anchor="none" style="mix-blend-mode: normal"><path d="M 50.6389 88.159 L 50.6389 82.9264 L 50.6389 82.593 L 59.1389 82.593 L 59.1389 85.7503 L 63.25 85.7659 L 63.2051 88.1038 Z " data-paper-data="{&quot;origPos&quot;:null}" fill="#9a9a9a" stroke="#5e5e5e" stroke-width="1" stroke-linecap="butt"/><path d="M 31.6715 62.1962 L 31.6715 129.4933 L 19.6239 168.4121 " data-paper-data="{&quot;origPos&quot;:null}" fill="none" stroke="#000000" stroke-width="3.5" stroke-linecap="round"/><path d="M 24.2904 102.1471 L 25.2904 86.1471 L 31.0404 86.1471 L 29.8975 102.1471 Z " data-paper-data="{&quot;origPos&quot;:null}" fill="#9a9a9a" stroke="#5e5e5e" stroke-width="1" stroke-linecap="butt"/><path d="M 32.4747 128.0565 L 44.5223 168.2153 " fill="none" stroke="#000000" stroke-width="3.5" stroke-linecap="round"/><path d="M 7.5763 39.3057 C 7.5763 25.3329 18.9035 14.0057 32.8763 14.0057 C 46.8491 14.0057 58.1763 25.3329 58.1763 39.3057 C 58.1763 53.2785 46.8491 64.6057 32.8763 64.6057 C 18.9035 64.6057 7.5763 53.2785 7.5763 39.3057 Z " data-paper-data="{&quot;origPos&quot;:null}" fill="#d4d4d4" stroke="#000000" stroke-width="2.5" stroke-linecap="butt"/><path d="M238.14468,108.99198c0,-2.66149 2.15756,-4.81905 4.81905,-4.81905c2.66149,0 4.81905,2.15756 4.81905,4.81905c0,2.66149 -2.15756,4.81905 -4.81905,4.81905c-2.66149,0 -4.81905,-2.15756 -4.81905,-4.81905z" data-paper-data="{&quot;origPos&quot;:null}" fill="#000000" stroke="none" stroke-width="0" stroke-linecap="butt" transform="matrix(1,0,0,1,-209.68583,-75.71004)"/><path d="M251.79864,108.99198c0,-2.66148 2.15757,-4.81905 4.81905,-4.81905c2.66148,0 4.81905,2.15757 4.81905,4.81905c0,2.66148 -2.15757,4.81905 -4.81905,4.81905c-2.66148,0 -4.81905,-2.15757 -4.81905,-4.81905z" data-paper-data="{&quot;origPos&quot;:null}" fill="#000000" stroke="none" stroke-width="0" stroke-linecap="butt" transform="matrix(1,0,0,1,-209.68583,-75.71004)"/><path d="M 28.6779 26.2756 L 37.8049 29.9264 " data-paper-data="{&quot;origPos&quot;:null}" fill="none" stroke="#000000" stroke-width="2.5" stroke-linecap="round"/><path d="M 49.8525 26.3105 L 42.916 29.5962 " data-paper-data="{&quot;origPos&quot;:null}" fill="none" stroke="#000000" stroke-width="2.5" stroke-linecap="round"/><path d="M 27.42 94.8415 C 27.42 94.8415 10.2443 88.7829 13.5176 82.6169 C 16.3863 77.2129 30.3684 70.52 30.3684 70.52 " data-paper-data="{&quot;origPos&quot;:null}" fill="none" stroke="#000000" stroke-width="3.5" stroke-linecap="round"/><path d="M 55.2572 89.5915 C 55.2572 89.5915 42.7051 93.1328 40.0475 88.1265 C 37.1249 82.6213 32.5588 70.52 32.5588 70.52 " data-paper-data="{&quot;origPos&quot;:null,&quot;index&quot;:null}" fill="none" stroke="#000000" stroke-width="3.5" stroke-linecap="round"/><path d="M 41.5413 101.0119 L 39.1265 87.0465 L 43.723 86.5558 L 46.0235 100.5335 Z " data-paper-data="{&quot;origPos&quot;:null,&quot;index&quot;:null,&quot;origRot&quot;:0}" fill="#9a9a9a" stroke="#5e5e5e" stroke-width="1" stroke-linecap="butt"/><path d="M226.43583,164.75789v-9.25h34v9.25z" data-paper-data="{&quot;origPos&quot;:null}" fill="#ff7800" stroke="none" stroke-width="0" stroke-linecap="butt" transform="matrix(1,0,0,1,-209.68583,-75.71004)"/><path d="M 0.5 95.0478 L 0.5 82.0478 L 17 82.0478 L 17.0375 86.5105 Z " data-paper-data="{&quot;origPos&quot;:null}" fill="#9a9a9a" stroke="#5e5e5e" stroke-width="1" stroke-linecap="butt"/><g data-paper-data="{&quot;origPos&quot;:null}"><path d="M211.29261,105.99453c0,0 2.91177,-15.5818 7.73417,-21.47172c6.2175,-7.59386 13.36186,-7.33644 23.08542,-8.66929c15.48914,-2.12317 25.3533,20.02037 25.3533,20.02037z" data-paper-data="{&quot;origPos&quot;:null,&quot;origRot&quot;:0}" fill="#009927" stroke-width="0" stroke-linecap="butt" stroke="#009927" transform="matrix(1,0,0,1,-209.68583,-75.71004)"/><path d="M 34.5092 66.9164 L 21.2488 26.1212 " data-paper-data="{&quot;origPos&quot;:null}" fill="none" stroke-width="3" stroke-linecap="round" stroke="#009927"/></g></g></g></svg>