<svg xmlns="http://www.w3.org/2000/svg" xmlns:xlink="http://www.w3.org/1999/xlink" version="1.1" width="63.22855" height="184.10596" viewBox="0,0,63.22855,184.10596"><g><g data-paper-data="{&quot;isPaintingLayer&quot;:true}" fill-rule="nonzero" stroke-linecap="none" stroke-linejoin="miter" stroke-miterlimit="10" stroke-dasharray="" stroke-dashoffset="0" font-family="none" font-weight="none" font-size="none" text-anchor="none" style="mix-blend-mode: normal"><path d="M 43.6629 0 L 43.6629 0 Z " fill="none" stroke="#ebe300" stroke-width="4" stroke-linecap="butt"/><g><path d="M 6.2236 81.3564 L 11.8285 73.098 C 11.8285 73.098 15.0478 82.8446 18.5659 85.8291 C 22.5368 89.1979 33.3142 91.0291 33.3142 91.0291 L 31.0632 100.7789 C 31.0632 100.7789 27.9852 101.1978 26.1871 103.0031 C 23.4858 105.7152 23.5366 110.2239 19.239 108.935 C 14.9414 107.6461 22.5745 102.3245 20.1773 101.2007 C 17.7802 100.077 14.9466 106.1043 13.2017 104.4774 C 11.4569 102.8505 16.7811 98.8916 14.8254 96.2106 C 12.8696 93.5297 8.2571 100.7445 6.8782 97.9674 C 5.4992 95.1903 11.2845 87.8015 10.4792 87.4579 C 9.2826 86.9473 6.7902 89.2759 4.2026 89.9474 C 1.615 90.6188 6.2235 81.3564 6.2235 81.3564 Z " data-paper-data="{&quot;origPos&quot;:null,&quot;origRot&quot;:0}" fill="#ffffff" stroke="#f1ff00" stroke-width="1.5" stroke-linecap="butt"/><path d="M 1.4192 101.5065 L 0.8375 91.5427 C 0.8375 91.5427 9.3255 97.3145 13.9335 97.5402 C 19.1346 97.7949 28.7991 92.6858 28.7991 92.6858 L 32.9495 101.7907 C 32.9495 101.7907 30.7629 103.997 30.4356 106.524 C 29.9439 110.3201 32.7294 113.8659 28.5354 115.46 C 24.3414 117.0541 27.1566 108.1851 24.5708 108.7531 C 21.9849 109.3212 23.4068 115.8278 21.0321 115.5995 C 18.6573 115.3713 20.4707 108.9891 17.2869 108.0531 C 14.1031 107.117 14.8368 115.6487 12.0521 114.2853 C 9.2673 112.9218 9.3581 103.538 8.5101 103.7557 C 7.25 104.0792 6.6905 107.444 5.0466 109.5521 C 3.4027 111.6602 1.4192 101.5065 1.4192 101.5065 Z " data-paper-data="{&quot;origPos&quot;:null,&quot;origRot&quot;:0}" fill="#ffffff" stroke="#f1ff00" stroke-width="1.5" stroke-linecap="butt"/><path d="M 31.802 76.1401 L 31.802 143.4372 L 19.7544 182.356 " data-paper-data="{&quot;origPos&quot;:null}" fill="none" stroke="#b8b300" stroke-width="3.5" stroke-linecap="round"/><path d="M 44.6528 182.1592 L 32.6051 142.0004 " fill="none" stroke="#b8b300" stroke-width="3.5" stroke-linecap="round"/><path d="M 7.7067 53.2496 C 7.7067 39.2768 19.0339 27.9496 33.0067 27.9496 C 46.9795 27.9496 58.3067 39.2768 58.3067 53.2496 C 58.3067 67.2224 46.9795 78.5496 33.0067 78.5496 C 19.0339 78.5496 7.7067 67.2224 7.7067 53.2496 Z " data-paper-data="{&quot;origPos&quot;:null}" fill="#fff98d" stroke="#b8b300" stroke-width="2.5" stroke-linecap="butt"/><path d="M236.30832,109.43845c0,-2.66149 2.15756,-4.81905 4.81905,-4.81905c2.66149,0 4.81905,2.15756 4.81905,4.81905c0,2.66149 -2.15756,4.81905 -4.81905,4.81905c-2.66149,0 -4.81905,-2.15756 -4.81905,-4.81905z" data-paper-data="{&quot;origPos&quot;:null}" fill="#b8b300" stroke="#b8b300" stroke-width="0" stroke-linecap="butt" transform="matrix(1,0,0,1,-208.38572,-62.21263)"/><path d="M250.62895,109.43845c0,-2.66148 2.15757,-4.81905 4.81905,-4.81905c2.66148,0 4.81905,2.15757 4.81905,4.81905c0,2.66148 -2.15757,4.81905 -4.81905,4.81905c-2.66148,0 -4.81905,-2.15757 -4.81905,-4.81905z" data-paper-data="{&quot;origPos&quot;:null}" fill="#b8b300" stroke="#b8b300" stroke-width="0" stroke-linecap="butt" transform="matrix(1,0,0,1,-208.38572,-62.21263)"/><path d="M 14.8004 114.0353 L 30.4988 84.4639 " data-paper-data="{&quot;origPos&quot;:null}" fill="none" stroke="#b8b300" stroke-width="3.5" stroke-linecap="round"/><path d="M 48.3877 114.0354 L 32.6893 84.4639 " data-paper-data="{&quot;origPos&quot;:null,&quot;index&quot;:null}" fill="none" stroke="#b8b300" stroke-width="3.5" stroke-linecap="round"/><path d="M 50.1318 60.1176 C 50.1318 60.1176 44.6399 62.691 41.1248 62.691 C 37.1075 62.691 30.831 60.1176 30.831 60.1176 " data-paper-data="{&quot;origPos&quot;:null}" fill="none" stroke="#b8b300" stroke-width="2.5" stroke-linecap="round"/><path d="M 61.2286 26.7876 C 61.2286 29.4555 48.9404 31.6182 33.7822 31.6182 C 18.624 31.6182 6.3359 29.4555 6.3359 26.7876 C 6.3359 24.1198 18.624 21.9571 33.7822 21.9571 C 48.9404 21.9571 61.2286 24.1198 61.2286 26.7876 Z " fill="none" stroke="#ebe300" stroke-width="4" stroke-linecap="butt"/></g></g></g></svg>