<svg version="1.1" xmlns="http://www.w3.org/2000/svg" xmlns:xlink="http://www.w3.org/1999/xlink" width="35.97404" height="10.69272" viewBox="0,0,35.97404,10.69272"><g transform="translate(-221.39645,-174.10887)"><g data-paper-data="{&quot;isPaintingLayer&quot;:true}" fill-rule="nonzero" stroke-linecap="butt" stroke-linejoin="miter" stroke-miterlimit="10" stroke-dasharray="" stroke-dashoffset="0" style="mix-blend-mode: normal"><path d="M229.2466,177.51605c-0.00681,0.88515 -0.72782,1.59406 -1.61043,1.58338c-0.88261,-0.01067 -1.59258,-0.73687 -1.58577,-1.62202c0.00681,-0.88515 0.72782,-1.59406 1.61043,-1.58338c0.88261,0.01067 1.59258,0.73687 1.58577,1.62202z" fill="none" stroke="#00a9bb" stroke-width="0.75"/><path d="M228.87406,180.2364c0.82965,0.01003 1.49821,0.53839 1.49328,1.18012c-0.00494,0.64173 -0.6815,1.15383 -1.51115,1.1438c-0.82965,-0.01003 -1.49821,-0.53839 -1.49328,-1.18012c0.00494,-0.64173 0.6815,-1.15383 1.51115,-1.1438z" fill="none" stroke="#00a9bb" stroke-width="0.75"/><path d="M224.50081,179.46225c0.70609,0.00854 1.27489,0.48187 1.27047,1.05721c-0.00442,0.57535 -0.58041,1.03484 -1.2865,1.0263c-0.70609,-0.00854 -1.27489,-0.48187 -1.27047,-1.05721c0.00442,-0.57535 0.58041,-1.03484 1.2865,-1.0263z" fill="none" stroke="#00a9bb" stroke-width="0.75"/><path d="M223.09149,175.6785c0.72374,0.00875 1.30617,0.57194 1.30089,1.25794c-0.00528,0.68599 -0.59626,1.235 -1.32,1.22626c-0.72374,-0.00875 -1.30617,-0.57194 -1.30089,-1.25794c0.00528,-0.68599 0.59626,-1.235 1.32,-1.22626z" fill="none" stroke="#00a9bb" stroke-width="0.75"/><path d="M256.86555,179.99907c-0.06325,2.664 -6.75214,4.57596 -14.94006,4.27046c-5.49,-0.20482 -10.11458,-1.26119 -12.6429,-2.79966c0.09365,-0.36662 -0.01798,-4.72705 -0.01588,-4.8157c0.00082,-0.03476 7.40455,-2.23643 12.88782,-2.03188c8.1879,0.3055 14.77426,2.71274 14.71101,5.37677z" fill="#5a5a5a" stroke="#000000" stroke-width="1"/><path d="M233.78367,177.77126c-0.00528,0.68599 -0.45316,1.23673 -1.00038,1.23012c-0.54722,-0.00662 -0.98654,-0.56808 -0.98127,-1.25407c0.00528,-0.68599 0.45316,-1.23673 1.00038,-1.23012c0.54722,0.00662 0.98654,0.56808 0.98127,1.25407z" fill="none" stroke="#000000" stroke-width="0.75"/><path d="M252.89634,178.08245c-0.00528,0.68599 -0.45316,1.23673 -1.00038,1.23012c-0.54722,-0.00662 -0.98654,-0.56808 -0.98127,-1.25407c0.00528,-0.68599 0.45316,-1.23673 1.00038,-1.23012c0.54722,0.00662 0.98654,0.56808 0.98127,1.25407z" fill="none" stroke="#000000" stroke-width="0.75"/><path d="M253.37938,181.77486c-0.00528,0.68599 -0.45316,1.23673 -1.00038,1.23012c-0.54722,-0.00662 -0.98654,-0.56808 -0.98127,-1.25407c0.00528,-0.68599 0.45316,-1.23673 1.00038,-1.23012c0.54722,0.00662 0.98654,0.56808 0.98127,1.25407z" fill="none" stroke="#000000" stroke-width="0.75"/><path d="M233.76024,180.8164c-0.00528,0.68599 -0.45316,1.23673 -1.00038,1.23012c-0.54722,-0.00662 -0.98654,-0.56808 -0.98127,-1.25407c0.00528,-0.68599 0.45316,-1.23673 1.00038,-1.23012c0.54722,0.00662 0.98654,0.56808 0.98127,1.25407z" fill="none" stroke="#000000" stroke-width="0.75"/></g></g></svg>