<svg xmlns="http://www.w3.org/2000/svg" xmlns:xlink="http://www.w3.org/1999/xlink" version="1.1" width="57.07116" height="158.90634" viewBox="0,0,57.07116,158.90634"><defs><radialGradient cx="245.34344" cy="144.67169" r="7" gradientUnits="userSpaceOnUse" id="color-1"><stop offset="0" stop-color="#ff2e2e"/><stop offset="1" stop-color="#e80000"/></radialGradient></defs><g><g data-paper-data="{&quot;isPaintingLayer&quot;:true}" fill-rule="nonzero" stroke-linejoin="miter" stroke-miterlimit="10" stroke-dasharray="" stroke-dashoffset="0" style="mix-blend-mode: normal"><g><path d="M 26.0952 50.1905 L 26.0952 117.4875 L 14.0476 156.4063 " data-paper-data="{&quot;origPos&quot;:null}" fill="none" stroke="#ff0000" stroke-width="5" stroke-linecap="round"/><path d="M 26.8984 116.0508 L 38.946 156.2095 " data-paper-data="{&quot;origPos&quot;:null}" fill="none" stroke="#ff0000" stroke-width="5" stroke-linecap="round"/><path d="M 2 27.3 C 2 13.3272 13.3272 2 27.3 2 C 41.2728 2 52.6 13.3272 52.6 27.3 C 52.6 41.2728 41.2728 52.6 27.3 52.6 C 13.3272 52.6 2 41.2728 2 27.3 Z " data-paper-data="{&quot;origPos&quot;:null}" fill="#c3b200" stroke="#ff0000" stroke-width="4" stroke-linecap="butt"/><path d="M 51.9309 81.0857 C 51.9309 81.0857 38.515 83.7673 35.6885 78.4431 C 32.3885 72.2267 26.9825 58.5143 26.9825 58.5143 " data-paper-data="{&quot;origPos&quot;:null,&quot;index&quot;:null}" fill="none" stroke="#ff0000" stroke-width="4.5" stroke-linecap="round"/><path d="M 19.02 17.2919 L 28.9557 21.2765 " data-paper-data="{&quot;origPos&quot;:null,&quot;origRot&quot;:0}" fill="none" stroke="#00ffe4" stroke-width="4.5" stroke-linecap="round"/><path d="M 35.02 21.0265 L 44.2057 17.0419 " data-paper-data="{&quot;origPos&quot;:null,&quot;origRot&quot;:0,&quot;index&quot;:null}" fill="none" stroke="#00ffe4" stroke-width="4.5" stroke-linecap="round"/><path d="M 24.1129 41.6314 L 26.8807 39.0342 L 38.3322 39.0342 L 41.2379 41.5342 " data-paper-data="{&quot;origPos&quot;:null}" fill="none" stroke="#000000" stroke-width="2" stroke-linecap="round"/><g data-paper-data="{&quot;origPos&quot;:null,&quot;index&quot;:null}"><path d="M267.80178,170.29669c-2.14011,0 -3.875,-1.73489 -3.875,-3.875c0,-2.14011 1.73489,-3.875 3.875,-3.875c2.14011,0 3.875,1.73489 3.875,3.875c0,2.14011 -1.73489,3.875 -3.875,3.875z" fill="#ff0000" stroke="none" stroke-width="0" stroke-linecap="butt" transform="matrix(1,0,0,1,-215.14728,-86.26252)"/><path d="M 55.5712 80.2425 L 56.0712 71.9092 " data-paper-data="{&quot;origPos&quot;:null}" fill="none" stroke="#ff0000" stroke-width="2" stroke-linecap="round"/><path d="M 53.7536 79.5822 L 53.5554 71.2362 " data-paper-data="{&quot;origPos&quot;:null,&quot;origRot&quot;:0}" fill="none" stroke="#ff0000" stroke-width="2" stroke-linecap="round"/><path d="M 51.7934 79.3899 L 50.8489 71.0951 " data-paper-data="{&quot;origPos&quot;:null,&quot;origRot&quot;:0}" fill="none" stroke="#ff0000" stroke-width="2" stroke-linecap="round"/><path d="M 49.9118 80.5141 L 48.3972 72.3043 " data-paper-data="{&quot;origPos&quot;:null,&quot;origRot&quot;:0}" fill="none" stroke="#ff0000" stroke-width="2" stroke-linecap="round"/><path d="M 46.4045 78.0758 L 50.2378 81.9092 " data-paper-data="{&quot;origPos&quot;:null}" fill="none" stroke="#ff0000" stroke-width="2" stroke-linecap="round"/><path d="M267.39343,168.74671c-1.37151,0 -2.48334,-1.11182 -2.48334,-2.48333c0,-1.37151 1.11183,-2.48334 2.48334,-2.48334c1.37151,0 2.48333,1.11183 2.48333,2.48334c0,1.37151 -1.11182,2.48333 -2.48333,2.48333z" data-paper-data="{&quot;origPos&quot;:null}" fill="#00ffe4" stroke="none" stroke-width="0" stroke-linecap="butt" transform="matrix(1,0,0,1,-215.14728,-86.26252)"/></g><path d="M234.28513,148.41336c0,-3.86599 3.13401,-7 7,-7c3.86599,0 7,3.13401 7,7c0,3.86599 -3.13401,7 -7,7c-3.86599,0 -7,-3.13401 -7,-7z" data-paper-data="{&quot;origPos&quot;:null}" fill="url(#color-1)" stroke="none" stroke-width="0" stroke-linecap="butt" transform="matrix(1,0,0,1,-215.14728,-86.26252)"/><path d="M 31.8437 83.0857 C 31.8437 83.0857 12.6539 81.9374 15.2526 77.042 C 18.7804 70.3967 21.4587 64.0143 21.4587 64.0143 " data-paper-data="{&quot;origPos&quot;:null}" fill="none" stroke="#e80000" stroke-width="4.5" stroke-linecap="round"/><path d="M238.01846,148.01338c0,-1.87777 1.52223,-3.4 3.4,-3.4c1.87777,0 3.4,1.52223 3.4,3.4c0,1.87777 -1.52223,3.4 -3.4,3.4c-1.87777,0 -3.4,-1.52223 -3.4,-3.4z" data-paper-data="{&quot;origPos&quot;:null}" fill="#00ffe4" stroke="none" stroke-width="0" stroke-linecap="butt" transform="matrix(1,0,0,1,-215.14728,-86.26252)"/><g data-paper-data="{&quot;origPos&quot;:null}"><path d="M 28.5295 82.5758 L 28.0295 74.2425 " data-paper-data="{&quot;origPos&quot;:null}" fill="none" stroke="#e80000" stroke-width="2" stroke-linecap="round"/><g><path d="M242.71845,168.75503c0,-2.14011 1.73489,-3.875 3.875,-3.875c2.14011,0 3.875,1.73489 3.875,3.875c0,2.14011 -1.73489,3.875 -3.875,3.875c-2.14011,0 -3.875,-1.73489 -3.875,-3.875z" data-paper-data="{&quot;origPos&quot;:null}" fill="#e80000" stroke="none" stroke-width="0" stroke-linecap="butt" transform="matrix(1,0,0,1,-215.14728,-86.26252)"/><path d="M 30.5453 73.5695 L 30.3471 81.9155 " data-paper-data="{&quot;origPos&quot;:null,&quot;origRot&quot;:0}" fill="none" stroke="#e80000" stroke-width="2" stroke-linecap="round"/><path d="M 32.3072 81.7232 L 33.2518 73.4285 " data-paper-data="{&quot;origPos&quot;:null,&quot;origRot&quot;:0}" fill="none" stroke="#e80000" stroke-width="2" stroke-linecap="round"/><path d="M 34.1889 82.8474 L 35.7035 74.6376 " data-paper-data="{&quot;origPos&quot;:null,&quot;origRot&quot;:0}" fill="none" stroke="#e80000" stroke-width="2" stroke-linecap="round"/><path d="M 33.8628 84.2425 L 37.6962 80.4092 " data-paper-data="{&quot;origPos&quot;:null}" fill="none" stroke="#e80000" stroke-width="2" stroke-linecap="round"/><path d="M244.51846,168.59671c0,-1.37151 1.11182,-2.48333 2.48333,-2.48333c1.37151,0 2.48334,1.11182 2.48334,2.48333c0,1.37151 -1.11183,2.48334 -2.48334,2.48334c-1.37151,0 -2.48333,-1.11183 -2.48333,-2.48334z" data-paper-data="{&quot;origPos&quot;:null}" fill="#00ffe4" stroke="none" stroke-width="0" stroke-linecap="butt" transform="matrix(1,0,0,1,-215.14728,-86.26252)"/></g></g></g></g></g></svg>