<svg version="1.1" xmlns="http://www.w3.org/2000/svg" xmlns:xlink="http://www.w3.org/1999/xlink" width="53.1" height="157.40634" viewBox="0,0,53.1,157.40634"><defs><radialGradient cx="253.01017" cy="163.7567" r="13.73808" gradientUnits="userSpaceOnUse" id="color-1"><stop offset="0" stop-color="#e8e8e8"/><stop offset="1" stop-color="#e8e8e8" stop-opacity="0"/></radialGradient></defs><g transform="translate(-215.28333,-88.73177)"><g data-paper-data="{&quot;isPaintingLayer&quot;:true}" fill-rule="nonzero" stroke-linejoin="miter" stroke-miterlimit="10" stroke-dasharray="" stroke-dashoffset="0" style="mix-blend-mode: normal"><path d="M241.51587,146.49606c0,0 15.00131,2.14312 20.43494,5.44105c5.56525,3.37781 3.88258,7.64251 3.88258,7.64251" data-paper-data="{&quot;origPos&quot;:null,&quot;index&quot;:null}" fill="none" stroke="#000000" stroke-width="3.5" stroke-linecap="round"/><path d="M240.62858,138.17225v67.29708l-12.04762,38.91879" data-paper-data="{&quot;origPos&quot;:null}" fill="none" stroke="#000000" stroke-width="3.5" stroke-linecap="round"/><path d="M253.47937,244.19131l-12.04762,-40.15873" fill="none" stroke="#000000" stroke-width="3.5" stroke-linecap="round"/><path d="M229.39623,166.93142c-0.3242,-7.48112 9.92919,-20.43536 9.92919,-20.43536" data-paper-data="{&quot;origPos&quot;:null}" fill="none" stroke="#000000" stroke-width="3.5" stroke-linecap="round"/><path d="M236.83333,225.14815c-0.14657,0.10109 -4.76008,0.28939 -5.04047,-1.11228c-0.47817,-3.16773 3.72562,-12.01197 3.79227,-18.95704c0.1205,-12.55678 0.69264,-25.48623 0.69264,-25.48623l8.44445,-0.22223c0,0 0.74341,21.31784 0.87876,25.63181c0.23277,7.41926 5.53117,16.75031 4.97456,19.91677c0.00782,0.20918 -5.15186,0.57521 -5.40888,0.34031c-2.01832,-1.84462 -3.13903,-11.33334 -4.33334,-11.33334c-1.21282,0 -2.06459,9.88741 -4,11.22223z" fill="#f5e476" stroke="#000000" stroke-width="0.5" stroke-linecap="butt"/><path d="M216.53333,115.28178c0,-13.9728 11.3272,-25.3 25.3,-25.3c13.9728,0 25.3,11.3272 25.3,25.3c0,13.9728 -11.3272,25.3 -25.3,25.3c-13.9728,0 -25.3,-11.3272 -25.3,-25.3z" data-paper-data="{&quot;origPos&quot;:null}" fill="#f5e4c0" stroke="#000000" stroke-width="2.5" stroke-linecap="butt"/><path d="M237.41587,109.25798c0,-2.66149 2.15756,-4.81905 4.81905,-4.81905c2.66149,0 4.81905,2.15756 4.81905,4.81905c0,2.66149 -2.15756,4.81905 -4.81905,4.81905c-2.66149,0 -4.81905,-2.15756 -4.81905,-4.81905z" data-paper-data="{&quot;origPos&quot;:null}" fill="#000000" stroke="none" stroke-width="0" stroke-linecap="butt"/><path d="M251.06984,109.25798c0,-2.66148 2.15757,-4.81905 4.81905,-4.81905c2.66148,0 4.81905,2.15757 4.81905,4.81905c0,2.66148 -2.15757,4.81905 -4.81905,4.81905c-2.66148,0 -4.81905,-2.15757 -4.81905,-4.81905z" data-paper-data="{&quot;origPos&quot;:null}" fill="#000000" stroke="none" stroke-width="0" stroke-linecap="butt"/><path d="M246.7619,105.90242l-9.12698,-3.65079" data-paper-data="{&quot;origPos&quot;:null}" fill="none" stroke="#000000" stroke-width="2.5" stroke-linecap="round"/><path d="M258.80952,102.28655l-6.93651,3.28571" data-paper-data="{&quot;origPos&quot;:null}" fill="none" stroke="#000000" stroke-width="2.5" stroke-linecap="round"/><path d="M243.05556,98.14815c0,0 -0.52923,-2.92105 -0.93333,-4.13333c-0.37082,-1.11247 -1.4,-2.86667 -1.4,-2.86667c0,0 2.6778,-0.16284 4.36733,0.06315c1.68954,0.22599 4.35489,1.10352 4.35489,1.10352c0,0 0.87867,1.40285 1.41214,2.3386c0.59038,1.03559 1.64342,3.49474 1.64342,3.49474z" fill="#7ad8ff" stroke="none" stroke-width="0" stroke-linecap="butt"/><path d="M249.2963,105.18519l-9.46296,-7.25926h15.55555z" fill="#7ad8ff" stroke="none" stroke-width="0" stroke-linecap="butt"/><path d="M234.6051,191.59259c0,0 1.88937,-30.40578 1.88937,-37.22222c0,-1.06192 -1.79887,7.21949 -3.45639,8.60326c-2.54615,2.12565 -6.07547,0.0572 -6.24683,-1.46732c-0.24858,-2.2115 7.92399,-17.35816 7.92399,-17.35816h10.27409c0,0 12.94267,2.95156 12.94267,4.44445c0,1.46425 2.57067,6.66138 -1.87968,4.80982c-1.53556,-0.63887 -10.71579,-0.45545 -10.71579,-0.45545l1.25252,38.42341c0,0 -2.34136,0.05871 -4.56708,0.09999c-0.39916,0.0074 -0.69306,-5.91076 -1.00802,-5.90492c-0.36564,0.00678 -0.86811,5.93971 -1.32035,5.94809c-1.91068,0.03543 -5.08849,0.07906 -5.08849,0.07906z" fill="#d79767" stroke="#000000" stroke-width="0.5" stroke-linecap="butt"/><g><path d="M253.68556,152.59603c0,0 3.7233,0.79733 5.10842,1.34815c1.37632,0.54733 3.17603,1.94639 3.17603,1.94639" data-paper-data="{&quot;index&quot;:null}" fill="none" stroke="#ffffff" stroke-width="1" stroke-linecap="round"/><path d="M239.27209,163.7567c0,-7.58733 6.15075,-13.73808 13.73808,-13.73808c7.58733,0 13.73808,6.15075 13.73808,13.73808c0,7.58733 -6.15075,13.73808 -13.73808,13.73808c-7.58733,0 -13.73808,-6.15075 -13.73808,-13.73808z" fill="url(#color-1)" stroke="none" stroke-width="NaN" stroke-linecap="butt"/><g fill="none" stroke="#cccccc" stroke-linecap="butt"><path d="M243.00453,153.29334c0.18156,-1.80577 4.82748,-2.56845 10.37693,-1.70352c5.54945,0.86494 9.90099,3.02996 9.71943,4.83573c-0.18157,1.80577 -4.82748,2.56846 -10.37693,1.70353c-5.54946,-0.86494 -9.901,-3.02997 -9.71944,-4.83574z" stroke-width="1.5"/><path d="M244.45038,156.86249c0.18156,-1.80577 4.18479,-2.66862 8.94147,-1.92725c4.75667,0.74137 8.46553,2.80623 8.28397,4.612c-0.18156,1.80577 -4.18479,2.66863 -8.94147,1.92726c-4.75668,-0.74137 -8.46554,-2.80624 -8.28398,-4.61201z" stroke-width="1.5"/><path d="M253.26046,160.45163c3.8616,0.60187 6.88964,2.1084 6.7633,3.36495c-0.12634,1.25655 -3.35921,1.78728 -7.22081,1.18541c-3.8616,-0.60187 -6.88964,-2.10841 -6.7633,-3.36496c0.12634,-1.25655 3.35921,-1.78727 7.22081,-1.1854z" stroke-width="1.25"/><path d="M246.75507,165.39284c0.12634,-1.25655 2.912,-1.85697 6.22195,-1.34108c3.30995,0.51588 5.89076,1.95271 5.76442,3.20926c-0.12634,1.25655 -2.91199,1.85699 -6.22194,1.3411c-3.30995,-0.51589 -5.89077,-1.95274 -5.76443,-3.20929z" stroke-width="1.25"/><path d="M247.10876,167.69665c0.1023,-1.01739 2.71988,-1.44711 5.84655,-0.95979c3.12667,0.48732 5.57839,1.70714 5.4761,2.72453c-0.1023,1.0174 -2.71987,1.44712 -5.84654,0.9598c-3.12666,-0.48732 -5.57839,-1.70714 -5.4761,-2.72453z" stroke-width="1"/><path d="M248.2885,170.19014c0.10229,-1.01739 2.21431,-1.52592 4.71729,-1.13581c2.50298,0.39012 4.44912,1.53115 4.34683,2.54854c-0.1023,1.01739 -2.2143,1.52592 -4.71728,1.13581c-2.50299,-0.39011 -4.44914,-1.53115 -4.34685,-2.54854z" stroke-width="1"/><path d="M249.46018,172.60431c0.07118,-0.70797 1.63266,-1.04749 3.48765,-0.75837c1.85499,0.28912 3.30104,1.09739 3.22986,1.80536c-0.07118,0.70797 -1.63264,1.04751 -3.48763,0.75839c-1.85499,-0.28912 -3.30106,-1.0974 -3.22988,-1.80537z" stroke-width="1"/><path d="M252.8658,173.88591c1.37759,0.21471 2.43663,0.96266 2.36545,1.67063c-0.07118,0.70797 -1.24563,1.10782 -2.62322,0.89311c-1.37759,-0.21471 -2.43662,-0.96267 -2.36544,-1.67064c0.07118,-0.70797 1.24562,-1.10781 2.62321,-0.8931z" stroke-width="0.75"/><path d="M252.73972,176.12391c0.84657,0.13195 1.49588,0.60642 1.4503,1.05978c-0.04558,0.45336 -0.76881,0.71391 -1.61537,0.58197c-0.84656,-0.13194 -1.49587,-0.60642 -1.45029,-1.05978c0.04558,-0.45337 0.7688,-0.71391 1.61536,-0.58197z" stroke-width="0.75"/></g><path d="M252.13444,161.05652c0,0 -3.60003,-1.24035 -4.90864,-1.95414c-1.3003,-0.70925 -2.91824,-2.31506 -2.91824,-2.31506" fill="none" stroke="#ffffff" stroke-width="1.5" stroke-linecap="round"/><path d="M260.05631,165.9673c0,0 -1.7205,0.87197 -2.95198,1.10471c-1.23935,0.23423 -4.46067,0.29626 -4.46067,0.29626" data-paper-data="{&quot;index&quot;:null}" fill="none" stroke="#ffffff" stroke-width="1.5" stroke-linecap="round"/><path d="M253.24309,171.50211c0,0 -2.34126,-0.04508 -3.24202,-0.21532c-0.89504,-0.16916 -2.1455,-0.8029 -2.1455,-0.8029" data-paper-data="{&quot;index&quot;:null}" fill="none" stroke="#ffffff" stroke-width="1.5" stroke-linecap="round"/><path d="M256.44608,175.28278c0,0 -0.97098,0.4921 -1.66598,0.62345c-0.69944,0.13219 -2.51741,0.1672 -2.51741,0.1672" data-paper-data="{&quot;index&quot;:null}" fill="none" stroke="#ffffff" stroke-width="1.5" stroke-linecap="round"/></g><path d="M248.72222,177.81482c0,0 -6.35973,-0.0769 -9.65673,-1.29894c-8.97995,-3.32843 -9.56548,-9.36773 -9.56548,-9.36773" fill="none" stroke="#000000" stroke-width="3.5" stroke-linecap="round"/><path d="M235.22515,207.78687v-5.358c0,0 3.39468,0.65373 5.57895,0.65373c1.98104,0 5.08187,-0.72295 5.08187,-0.72295v5.358c0,0 -3.09966,0.82036 -5.16374,0.82036c-2.11963,0 -5.49708,-0.75115 -5.49708,-0.75115z" fill="#d79767" stroke="#000000" stroke-width="0.5" stroke-linecap="butt"/></g></g></svg>