<svg xmlns="http://www.w3.org/2000/svg" xmlns:xlink="http://www.w3.org/1999/xlink" version="1.1" width="78.46458" height="157.40635" viewBox="0,0,78.46458,157.40635"><g><g data-paper-data="{&quot;isPaintingLayer&quot;:true}" fill-rule="nonzero" stroke-linejoin="miter" stroke-miterlimit="10" stroke-dasharray="" stroke-dashoffset="0" style="mix-blend-mode: normal"><g><path d="M 31.4118 60.0342 C 31.4118 60.0342 34.5089 56.9468 38.4113 57.0509 C 41.8263 57.1419 44.6618 60.2842 44.6618 60.2842 " data-paper-data="{&quot;origPos&quot;:null}" fill="none" stroke="#7e7e7e" stroke-width="2" stroke-linecap="round"/><path d="M 38.0191 49.4405 L 38.0191 116.7376 L 25.9715 155.6564 " data-paper-data="{&quot;origPos&quot;:null}" fill="none" stroke="#000000" stroke-width="3.5" stroke-linecap="round"/><path d="M 38.8223 115.3008 L 50.8699 155.4595 " fill="none" stroke="#000000" stroke-width="3.5" stroke-linecap="round"/><path d="M 13.9239 26.55 C 13.9239 12.5772 25.2511 1.25 39.2239 1.25 C 53.1967 1.25 64.5239 12.5772 64.5239 26.55 C 64.5239 40.5228 53.1967 51.85 39.2239 51.85 C 25.2511 51.85 13.9239 40.5228 13.9239 26.55 Z " data-paper-data="{&quot;origPos&quot;:null}" fill="#d4d4d4" stroke="#000000" stroke-width="2.5" stroke-linecap="butt"/><path d="M238.14468,108.99198c0,-2.66149 2.15756,-4.81905 4.81905,-4.81905c2.66149,0 4.81905,2.15756 4.81905,4.81905c0,2.66149 -2.15756,4.81905 -4.81905,4.81905c-2.66149,0 -4.81905,-2.15756 -4.81905,-4.81905z" data-paper-data="{&quot;origPos&quot;:null}" fill="#000000" stroke="none" stroke-width="0" stroke-linecap="butt" transform="matrix(1,0,0,1,-203.33825,-88.46578)"/><path d="M251.79864,108.99198c0,-2.66148 2.15757,-4.81905 4.81905,-4.81905c2.66148,0 4.81905,2.15757 4.81905,4.81905c0,2.66148 -2.15757,4.81905 -4.81905,4.81905c-2.66148,0 -4.81905,-2.15757 -4.81905,-4.81905z" data-paper-data="{&quot;origPos&quot;:null}" fill="#000000" stroke="none" stroke-width="0" stroke-linecap="butt" transform="matrix(1,0,0,1,-203.33825,-88.46578)"/><path d="M 35.0255 13.5199 L 44.1525 17.1706 " data-paper-data="{&quot;origPos&quot;:null}" fill="none" stroke="#000000" stroke-width="2.5" stroke-linecap="round"/><path d="M 49.2636 16.8405 L 56.2001 13.5548 " data-paper-data="{&quot;origPos&quot;:null}" fill="none" stroke="#000000" stroke-width="2.5" stroke-linecap="round"/><path d="M 36.716 57.7643 C 36.716 57.7643 31.8593 79.4439 27.6306 80.9989 C 23.2936 82.5939 14.7675 65.8357 14.7675 65.8357 " data-paper-data="{&quot;origPos&quot;:null}" fill="none" stroke="#000000" stroke-width="3.5" stroke-linecap="round"/><path d="M 63.1048 68.8357 C 63.1048 68.8357 53.1014 83.9322 49.739 82.3937 C 43.6577 79.6114 38.9064 57.7643 38.9064 57.7643 " data-paper-data="{&quot;origPos&quot;:null,&quot;index&quot;:null}" fill="none" stroke="#000000" stroke-width="3.5" stroke-linecap="round"/><g data-paper-data="{&quot;origPos&quot;:null,&quot;index&quot;:null,&quot;origRot&quot;:0}" stroke-linecap="butt"><path d="M 14.8432 62.9898 C 13.3217 65.0331 10.4319 65.4562 8.3886 63.9347 C 6.3453 62.4132 5.9223 59.5234 7.4437 57.4802 C 8.9652 55.4369 11.855 55.0138 13.8983 56.5353 C 15.9416 58.0567 16.3646 60.9465 14.8432 62.9898 Z " data-paper-data="{&quot;origPos&quot;:null}" fill="none" stroke="#b0b0b0" stroke-width="5"/><path d="M208.48884,146.76078c0,0 -0.86029,-1.34684 -1.62745,-1.91807c-0.96981,-0.72212 -2.82333,-1.39601 -2.82333,-1.39601c0,0 2.17389,-1.08781 3.41242,-1.05841c1.41459,0.0336 3.38583,1.21987 3.38583,1.21987z" data-paper-data="{&quot;origPos&quot;:null}" fill="#b0b0b0" stroke="none" stroke-width="0" transform="matrix(1,0,0,1,-203.33825,-88.46578)"/><path d="M220.58363,150.7652c0,0 0.86029,1.34684 1.62745,1.91807c0.96981,0.72213 2.82332,1.39602 2.82332,1.39602c0,0 -2.17389,1.08781 -3.41242,1.05841c-1.41459,-0.0336 -3.38583,-1.21986 -3.38583,-1.21986z" data-paper-data="{&quot;origPos&quot;:null,&quot;index&quot;:null}" fill="#b0b0b0" stroke="none" stroke-width="0" transform="matrix(1,0,0,1,-203.33825,-88.46578)"/><path d="M216.53063,142.65962c0,0 1.34675,-0.86042 1.91789,-1.62765c0.72203,-0.96989 1.39572,-2.82348 1.39572,-2.82348c0,0 1.08805,2.17377 1.05877,3.4123c-0.03345,1.41458 -1.2195,3.38595 -1.2195,3.38595z" data-paper-data="{&quot;origPos&quot;:null,&quot;index&quot;:null,&quot;origRot&quot;:0}" fill="#b0b0b0" stroke="none" stroke-width="0" transform="matrix(1,0,0,1,-203.33825,-88.46578)"/><path d="M212.49258,154.52756c0,0 -1.34674,0.86042 -1.91789,1.62765c-0.72203,0.96989 -1.39572,2.82348 -1.39572,2.82348c0,0 -1.08805,-2.17378 -1.05876,-3.41231c0.03345,-1.41458 1.21949,-3.38595 1.21949,-3.38595z" data-paper-data="{&quot;origPos&quot;:null,&quot;index&quot;:null,&quot;origRot&quot;:0}" fill="#b0b0b0" stroke="none" stroke-width="0" transform="matrix(1,0,0,1,-203.33825,-88.46578)"/><path d="M208.81173,151.84593c0,0 -1.56721,-0.31289 -2.51065,-0.15552c-1.19266,0.19894 -2.96283,1.06849 -2.96283,1.06849c0,0 0.72186,-2.32121 1.60123,-3.19388c1.00436,-0.99671 3.22556,-1.59615 3.22556,-1.59615z" data-paper-data="{&quot;origPos&quot;:null,&quot;origRot&quot;:0}" fill="#b0b0b0" stroke="none" stroke-width="0" transform="matrix(1,0,0,1,-203.33825,-88.46578)"/><path d="M220.07935,145.89951c0,0 1.56721,0.31288 2.51065,0.15551c1.19266,-0.19894 2.96283,-1.06849 2.96283,-1.06849c0,0 -0.72186,2.32121 -1.60123,3.19388c-1.00436,0.99671 -3.22556,1.59615 -3.22556,1.59615z" data-paper-data="{&quot;origPos&quot;:null,&quot;index&quot;:null,&quot;origRot&quot;:0}" fill="#b0b0b0" stroke="none" stroke-width="0" transform="matrix(1,0,0,1,-203.33825,-88.46578)"/><path d="M211.42655,143.20574c0,0 0.31271,-1.56724 0.15525,-2.51067c-0.19906,-1.19262 -1.06882,-2.96272 -1.06882,-2.96272c0,0 2.3213,0.72162 3.19405,1.60088c0.99682,1.00426 1.5965,3.22538 1.5965,3.22538z" data-paper-data="{&quot;origPos&quot;:null,&quot;index&quot;:null,&quot;origRot&quot;:0}" fill="#b0b0b0" stroke="none" stroke-width="0" transform="matrix(1,0,0,1,-203.33825,-88.46578)"/><path d="M217.1861,154.34044c0,0 -0.31271,1.56724 -0.15525,2.51068c0.19906,1.19263 1.06882,2.96272 1.06882,2.96272c0,0 -2.3213,-0.72162 -3.19405,-1.60088c-0.99682,-1.00426 -1.5965,-3.22538 -1.5965,-3.22538z" data-paper-data="{&quot;origPos&quot;:null,&quot;index&quot;:null,&quot;origRot&quot;:0}" fill="#b0b0b0" stroke="none" stroke-width="0" transform="matrix(1,0,0,1,-203.33825,-88.46578)"/></g><g data-paper-data="{&quot;origPos&quot;:null,&quot;index&quot;:null,&quot;origRot&quot;:0}" stroke-linecap="butt"><path d="M 64.5663 58.0353 C 66.6096 56.5138 69.4994 56.9369 71.0208 58.9802 C 72.5423 61.0234 72.1193 63.9132 70.076 65.4347 C 68.0327 66.9561 65.1429 66.5331 63.6214 64.4898 C 62.1 62.4465 62.523 59.5567 64.5663 58.0353 Z " data-paper-data="{&quot;origPos&quot;:null}" fill="none" stroke="#b0b0b0" stroke-width="5"/><path d="M274.30477,145.10816c0,0 1.97124,-1.18626 3.38583,-1.21986c1.23853,-0.0294 3.41242,1.0584 3.41242,1.0584c0,0 -1.85352,0.67389 -2.82334,1.39601c-0.76716,0.57124 -1.62745,1.91808 -1.62745,1.91808z" data-paper-data="{&quot;origPos&quot;:null}" fill="#b0b0b0" stroke="none" stroke-width="0" transform="matrix(1,0,0,1,-203.33825,-88.46578)"/><path d="M266.90492,155.41784c0,0 -1.97124,1.18625 -3.38583,1.21986c-1.23853,0.0294 -3.41242,-1.05841 -3.41242,-1.05841c0,0 1.85352,-0.67388 2.82332,-1.39601c0.76716,-0.57124 1.62745,-1.91808 1.62745,-1.91808z" data-paper-data="{&quot;origPos&quot;:null,&quot;index&quot;:null}" fill="#b0b0b0" stroke="none" stroke-width="0" transform="matrix(1,0,0,1,-203.33825,-88.46578)"/><path d="M265.45756,146.50674c0,0 -1.18605,-1.97137 -1.2195,-3.38595c-0.02928,-1.23853 1.05877,-3.4123 1.05877,-3.4123c0,0 0.67369,1.85359 1.39571,2.82348c0.57115,0.76722 1.9179,1.62765 1.9179,1.62765z" data-paper-data="{&quot;origPos&quot;:null,&quot;index&quot;:null,&quot;origRot&quot;:0}" fill="#b0b0b0" stroke="none" stroke-width="0" transform="matrix(1,0,0,1,-203.33825,-88.46578)"/><path d="M275.80138,153.68043c0,0 1.18604,1.97137 1.21949,3.38595c0.02929,1.23853 -1.05876,3.41231 -1.05876,3.41231c0,0 -0.67369,-1.85359 -1.39571,-2.82348c-0.57116,-0.76722 -1.91789,-1.62765 -1.91789,-1.62765z" data-paper-data="{&quot;origPos&quot;:null,&quot;index&quot;:null,&quot;origRot&quot;:0}" fill="#b0b0b0" stroke="none" stroke-width="0" transform="matrix(1,0,0,1,-203.33825,-88.46578)"/><path d="M276.97604,149.46888c0,0 2.2212,0.59944 3.22556,1.59615c0.87937,0.87267 1.60123,3.19388 1.60123,3.19388c0,0 -1.77017,-0.86955 -2.96283,-1.06849c-0.94344,-0.15738 -2.51066,0.15552 -2.51066,0.15552z" data-paper-data="{&quot;origPos&quot;:null,&quot;origRot&quot;:0}" fill="#b0b0b0" stroke="none" stroke-width="0" transform="matrix(1,0,0,1,-203.33825,-88.46578)"/><path d="M264.41503,151.27656c0,0 -2.2212,-0.59945 -3.22555,-1.59616c-0.87937,-0.87267 -1.60123,-3.19388 -1.60123,-3.19388c0,0 1.77017,0.86955 2.96283,1.06849c0.94344,0.15738 2.51065,-0.15551 2.51065,-0.15551z" data-paper-data="{&quot;origPos&quot;:null,&quot;index&quot;:null,&quot;origRot&quot;:0}" fill="#b0b0b0" stroke="none" stroke-width="0" transform="matrix(1,0,0,1,-203.33825,-88.46578)"/><path d="M269.83755,144.05862c0,0 0.59968,-2.22113 1.5965,-3.22538c0.87275,-0.87927 3.19405,-1.60088 3.19405,-1.60088c0,0 -0.86975,1.77009 -1.06882,2.96271c-0.15747,0.94342 0.15524,2.51067 0.15524,2.51067z" data-paper-data="{&quot;origPos&quot;:null,&quot;index&quot;:null,&quot;origRot&quot;:0}" fill="#b0b0b0" stroke="none" stroke-width="0" transform="matrix(1,0,0,1,-203.33825,-88.46578)"/><path d="M271.83195,156.48757c0,0 -0.59967,2.22113 -1.5965,3.22538c-0.87275,0.87927 -3.19404,1.60088 -3.19404,1.60088c0,0 0.86975,-1.77008 1.06881,-2.96272c0.15747,-0.94343 -0.15525,-2.51068 -0.15525,-2.51068z" data-paper-data="{&quot;origPos&quot;:null,&quot;index&quot;:null,&quot;origRot&quot;:0}" fill="#b0b0b0" stroke="none" stroke-width="0" transform="matrix(1,0,0,1,-203.33825,-88.46578)"/></g><path d="M 44.6118 60.3342 C 44.6118 60.3342 44.4816 67.9726 43.5022 71.9655 C 41.9449 78.3146 37.9118 87.0342 37.9118 87.0342 C 37.9118 87.0342 34.1847 77.9303 32.8232 72.1033 C 31.7455 67.4908 31.4618 60.0842 31.4618 60.0842 " data-paper-data="{&quot;origPos&quot;:null}" fill="none" stroke="#7e7e7e" stroke-width="2" stroke-linecap="round"/><g data-paper-data="{&quot;origPos&quot;:null,&quot;origRot&quot;:0}" stroke-linecap="butt"><path d="M240.73497,178.72505c0,0 -2.27008,-1.89146 -3.01001,-3.14199c-0.79756,-1.34795 -0.92961,-3.51631 -0.92961,-3.51631c0,0 0.90568,1.28975 2.11892,2.12329c1.00459,0.69018 3.56398,1.78105 3.56398,1.78105z" data-paper-data="{&quot;origPos&quot;:null,&quot;origRot&quot;:0,&quot;index&quot;:null}" stroke-width="0" fill="#b0b0b0" stroke="none" transform="matrix(1,0,0,1,-203.33825,-88.46578)"/><path d="M242.90598,178.32627c0,0 -1.85986,2.29604 -3.10005,3.0532c-1.33679,0.81613 -3.50312,0.97818 -3.50312,0.97818c0,0 1.27709,-0.92343 2.09377,-2.14809c0.67622,-1.01404 1.73157,-3.58829 1.73157,-3.58829z" data-paper-data="{&quot;origPos&quot;:null,&quot;index&quot;:null}" stroke-width="0" fill="#b0b0b0" stroke="none" transform="matrix(1,0,0,1,-203.33825,-88.46578)"/><path d="M240.20536,176.39979c0,0 1.85986,-2.29604 3.10005,-3.05319c1.33679,-0.81613 3.50312,-0.97818 3.50312,-0.97818c0,0 -1.27709,0.92343 -2.09377,2.14809c-0.67622,1.01404 -1.73157,3.58829 -1.73157,3.58829z" data-paper-data="{&quot;origPos&quot;:null}" stroke-width="0" fill="#b0b0b0" stroke="none" transform="matrix(1,0,0,1,-203.33825,-88.46578)"/><path d="M242.19628,175.77965c0,0 2.27008,1.89146 3.01001,3.14199c0.79756,1.34795 0.92961,3.51631 0.92961,3.51631c0,0 -0.90568,-1.28975 -2.11892,-2.12329c-1.00459,-0.69018 -3.56398,-1.78105 -3.56398,-1.78105z" data-paper-data="{&quot;origPos&quot;:null,&quot;origRot&quot;:0}" stroke-width="0" fill="#b0b0b0" stroke="none" transform="matrix(1,0,0,1,-203.33825,-88.46578)"/><path d="M240.14729,176.42839c0.48372,-0.78809 1.51472,-1.03482 2.30279,-0.5511c0.78809,0.48372 1.03482,1.51472 0.5511,2.30279c-0.48372,0.78809 -1.51472,1.03482 -2.30279,0.5511c-0.78809,-0.48372 -1.03482,-1.51472 -0.5511,-2.30279z" data-paper-data="{&quot;origPos&quot;:null}" stroke-width="0" fill="#b0b0b0" stroke="none" transform="matrix(1,0,0,1,-203.33825,-88.46578)"/></g></g></g></g></svg>