<svg xmlns="http://www.w3.org/2000/svg" xmlns:xlink="http://www.w3.org/1999/xlink" version="1.1" width="12.09174" height="25.37404" viewBox="0,0,12.09174,25.37404"><g><g data-paper-data="{&quot;isPaintingLayer&quot;:true}" fill-rule="nonzero" stroke-linejoin="miter" stroke-miterlimit="10" stroke-dasharray="" stroke-dashoffset="0" style="mix-blend-mode: normal"><g data-paper-data="{&quot;index&quot;:null}"><path d="M 4.1823 9.4989 C 3.5414 7.7504 5.9221 6.5437 6.134 5.1643 C 6.3459 3.7849 6.6127 0.6037 6.6127 0.6037 C 6.6127 0.6037 9.4396 3.0876 9.5036 5.1609 C 9.5588 6.9508 8.7162 8.4709 7.6577 9.3218 C 6.5993 10.1728 4.8231 11.2475 4.1823 9.4989 Z " fill="#985900" stroke-linecap="butt" stroke-width="0.5" stroke="#7f4a00"/><path d="M 7.9007 2.3004 L 6.6285 2.4854 " fill="none" stroke-linecap="round" stroke-width="0.5" stroke="#7f4a00"/><path d="M 9.1149 4.1209 L 6.4486 4.4571 " fill="none" stroke-linecap="round" stroke-width="0.5" stroke="#7f4a00"/><path d="M 6.1522 5.7138 L 9.4544 6.0662 " fill="none" stroke-linecap="round" stroke-width="0.5" stroke="#7f4a00"/><path d="M 8.5236 8.2364 L 5.6059 6.783 " fill="none" stroke-linecap="round" stroke-width="0.5" stroke="#7f4a00"/><path d="M 4.6161 7.7947 L 7.0288 9.5541 " fill="none" stroke-linecap="round" stroke-width="0.5" stroke="#7f4a00"/></g><path d="M 2.1853 25.374 C 2.1853 25.374 2.4446 23.3269 2.4446 22.2739 C 2.4446 21.1803 2.1853 18.9296 2.1853 18.9296 L 5.8149 18.9296 C 5.8149 18.9296 5.4075 21.1746 5.4075 22.2739 C 5.4075 23.3202 5.8149 25.374 5.8149 25.374 Z " fill="#000000" stroke="none" stroke-width="1" stroke-linecap="butt"/><path d="M 11.5809 14.7144 C 11.5809 18.7098 9.1004 20.2548 6.0405 20.2548 C 2.9806 20.2548 0.5 18.7098 0.5 14.7144 C 0.5 10.719 2.91 5.7156 5.9699 5.7156 C 9.0298 5.7156 11.5809 10.719 11.5809 14.7144 Z " data-paper-data="{&quot;index&quot;:null}" fill="#ffffee" stroke="#000000" stroke-width="1" stroke-linecap="butt"/><path d="M 5.3406 12.9034 C 4.8908 13.8765 4.0243 14.4333 3.4051 14.1471 C 2.7859 13.8609 2.6485 12.8401 3.0982 11.8671 C 3.5479 10.894 4.4145 10.3372 5.0337 10.6234 C 5.6529 10.9096 5.7903 11.9304 5.3406 12.9034 Z " data-paper-data="{&quot;index&quot;:null}" fill="#4848ab" stroke="#3b3b8d" stroke-width="1" stroke-linecap="butt"/><path d="M 11.1169 16.8335 C 10.9238 17.8284 10.4691 18.6685 9.67 18.6685 C 8.8709 18.6685 8.6306 17.8099 8.6306 16.7964 C 8.6306 15.783 9.1358 15.1728 10.0774 14.9614 C 12.8536 14.3382 10.9253 16.1775 11.1169 16.8335 Z " data-paper-data="{&quot;index&quot;:null}" fill="#4848ab" stroke="#3b3b8d" stroke-width="1" stroke-linecap="butt"/><path d="M 2.949 16.5847 C 3.5921 16.5847 4.1135 17.0903 4.1135 17.714 C 4.1135 18.3376 3.5921 18.8432 2.949 18.8432 C 2.3058 18.8432 1.7844 18.3376 1.7844 17.714 C 1.7844 17.0903 2.3058 16.5847 2.949 16.5847 Z " data-paper-data="{&quot;index&quot;:null}" fill="#4848ab" stroke="#3b3b8d" stroke-width="1" stroke-linecap="butt"/><path d="M 7.083 6.6129 C 7.6438 6.1341 8.5969 6.8311 9.4743 8.2505 C 9.7227 8.6523 11.5785 10.0473 9.3016 11.5369 C 8.6847 11.9406 7.8703 11.3566 7.3571 10.0649 C 6.844 8.7732 6.5223 7.0916 7.083 6.6129 Z " data-paper-data="{&quot;index&quot;:null}" fill="#4848ab" stroke="#3b3b8d" stroke-width="1" stroke-linecap="butt"/><path d="M 11.5809 14.7144 C 11.5809 18.7098 9.1004 20.2548 6.0404 20.2548 C 2.9805 20.2548 0.5 18.7098 0.5 14.7144 C 0.5 10.7189 2.91 5.7156 5.9699 5.7156 C 9.0298 5.7156 11.5809 10.719 11.5809 14.7144 Z " data-paper-data="{&quot;index&quot;:null}" fill="none" stroke="#000000" stroke-width="1" stroke-linecap="butt"/><path d="M 6.1853 25.374 C 6.1853 25.374 6.4816 23.4615 6.4816 22.4221 C 6.4816 21.3173 6.1853 18.9296 6.1853 18.9296 L 9.8149 18.9296 C 9.8149 18.9296 9.4816 21.2487 9.4816 22.348 C 9.4816 23.3942 9.8149 25.374 9.8149 25.374 Z " fill="#000000" stroke="none" stroke-width="1" stroke-linecap="butt"/><g><path d="M 2.9561 9.2852 C 1.8557 8.4892 0.9369 7.014 0.9009 5.2235 C 0.8593 3.1497 3.5561 0.5252 3.5561 0.5252 C 3.5561 0.5252 3.9845 3.6886 4.2663 5.0554 C 4.5481 6.4222 6.9872 7.5062 6.4361 9.2852 C 5.8851 11.0641 4.0565 10.0811 2.9561 9.2852 Z " fill="#985900" stroke-linecap="butt" stroke-width="0.5" stroke="#7f4a00"/><path d="M 2.3561 2.2852 L 3.6361 2.4052 " fill="none" stroke-linecap="round" stroke-width="0.5" stroke="#7f4a00"/><path d="M 3.9161 4.3652 L 1.2361 4.1652 " fill="none" stroke-linecap="round" stroke-width="0.5" stroke="#7f4a00"/><path d="M 0.9961 6.1252 L 4.2761 5.6052 " fill="none" stroke-linecap="round" stroke-width="0.5" stroke="#7f4a00"/><path d="M 4.8761 6.6452 L 2.0361 8.2452 " fill="none" stroke-linecap="round" stroke-width="0.5" stroke="#7f4a00"/><path d="M 5.9161 7.6052 L 3.5961 9.4852 " fill="none" stroke-linecap="round" stroke-width="0.5" stroke="#7f4a00"/></g></g></g></svg>