<svg xmlns="http://www.w3.org/2000/svg" xmlns:xlink="http://www.w3.org/1999/xlink" version="1.1" width="87.18840026855469" height="26.927099227905273" viewBox="0 0 87.18840026855469 26.927099227905273"><g><g data-paper-data="{&quot;isPaintingLayer&quot;:true}" fill-rule="nonzero" stroke-linecap="round" stroke-linejoin="miter" stroke-miterlimit="10" stroke-dasharray="" stroke-dashoffset="0" font-family="none" font-weight="none" font-size="none" text-anchor="none" style="mix-blend-mode: normal"><path d="M 24.3188 12.6993 L 9.913 20.5115 " data-paper-data="{&quot;origPos&quot;:null}" stroke-width="4" fill="none" stroke="#b1b1b1"/><path d="M 19.6522 4.3776 L 31.2174 9.982 L 43.1884 24.9271 " data-paper-data="{&quot;origPos&quot;:null}" stroke-width="4" fill="none" stroke="#b1b1b1"/><path d="M 15.3913 6.2458 L 23.1014 12.8692 L 25.942 13.039 L 27.7681 16.4356 L 43.1884 16.9451 L 32.6376 24.9271 " data-paper-data="{&quot;origPos&quot;:null}" stroke-width="4" fill="none" stroke="#b1b1b1"/><path d="M 73.8261 6.2458 L 60.8406 24.9271 " data-paper-data="{&quot;origPos&quot;:null}" stroke-width="4" fill="none" stroke="#b1b1b1"/><path d="M 66.9275 15.7563 L 57.5942 11.3407 L 51.913 16.7753 L 46.2318 9.6424 L 64.0869 4.5475 L 69.7681 11.001 L 79.5072 16.4356 L 85.1884 13.3787 " data-paper-data="{&quot;origPos&quot;:null}" stroke-width="4" fill="none" stroke="#b1b1b1"/><path d="M 40.9565 2 L 37.913 12.02 L 42.1739 14.3976 L 20.6666 22.8892 " data-paper-data="{&quot;origPos&quot;:null}" stroke-width="4" fill="none" stroke="#b1b1b1"/><path d="M 23.913 14.058 L 24.7246 11.6803 L 25.3333 14.058 L 25.1304 15.077 L 2 12.3597 " data-paper-data="{&quot;origPos&quot;:null}" stroke-width="4" fill="none" stroke="#b1b1b1"/><path d="M 30.2029 24.2478 L 37.3043 3.1888 " data-paper-data="{&quot;origPos&quot;:null}" stroke-width="4" fill="none" stroke="#b1b1b1"/><path d="M 62.8695 15.4166 L 49.4782 24.9271 L 45.4203 2.5095 " data-paper-data="{&quot;origPos&quot;:null}" stroke-width="4" fill="none" stroke="#b1b1b1"/><path d="M 72.6087 21.8702 L 70.9855 12.1898 " data-paper-data="{&quot;origPos&quot;:null}" stroke-width="4" fill="none" stroke="#b1b1b1"/></g></g></svg>