<svg xmlns="http://www.w3.org/2000/svg" xmlns:xlink="http://www.w3.org/1999/xlink" version="1.1" width="12.19044" height="25.33109" viewBox="0,0,12.19044,25.33109"><g><g data-paper-data="{&quot;isPaintingLayer&quot;:true}" fill-rule="nonzero" stroke-linejoin="miter" stroke-miterlimit="10" stroke-dasharray="" stroke-dashoffset="0" style="mix-blend-mode: normal"><g data-paper-data="{&quot;index&quot;:null}"><path d="M 6.1318 9.6589 C 5.4909 7.9104 7.8717 6.7037 8.0836 5.3243 C 8.2955 3.9449 8.5622 0.7637 8.5622 0.7637 C 8.5622 0.7637 11.3891 3.2476 11.4531 5.3209 C 11.5083 7.1108 10.6658 8.6309 9.6073 9.4818 C 8.5488 10.3328 6.7726 11.4075 6.1318 9.6589 Z " fill="#985900" stroke-linecap="butt" stroke-width="0.5" stroke="#7f4a00"/><path d="M 9.8503 2.4604 L 8.578 2.6454 " fill="none" stroke-linecap="round" stroke-width="0.5" stroke="#7f4a00"/><path d="M 11.0645 4.2809 L 8.3981 4.6171 " fill="none" stroke-linecap="round" stroke-width="0.5" stroke="#7f4a00"/><path d="M 8.1017 5.8738 L 11.4039 6.2262 " fill="none" stroke-linecap="round" stroke-width="0.5" stroke="#7f4a00"/><path d="M 10.4732 8.3964 L 7.5554 6.943 " fill="none" stroke-linecap="round" stroke-width="0.5" stroke="#7f4a00"/><path d="M 8.9783 9.7142 L 6.5656 7.9547 " fill="none" stroke-linecap="round" stroke-width="0.5" stroke="#7f4a00"/></g><path d="M 1.8701 23.1959 C 1.8701 23.1959 2.7115 21.3117 3.0166 20.3039 C 3.3335 19.2572 3.7375 17.0279 3.7375 17.0279 L 7.2114 18.0796 C 7.2114 18.0796 6.171 20.1103 5.8524 21.1624 C 5.5493 22.1638 5.3441 24.2476 5.3441 24.2476 Z " fill="#000000" stroke="none" stroke-width="1" stroke-linecap="butt"/><path d="M 11.6904 14.7944 C 11.6904 18.7898 9.2099 20.3348 6.15 20.3348 C 3.0901 20.3348 0.6096 18.7898 0.6096 14.7944 C 0.6096 10.799 3.0195 5.7956 6.0794 5.7956 C 9.1393 5.7956 11.6904 10.799 11.6904 14.7944 Z " data-paper-data="{&quot;index&quot;:null}" fill="#ffffee" stroke="#000000" stroke-width="1" stroke-linecap="butt"/><path d="M 4.9316 12.9835 C 4.4818 13.9565 3.6153 14.5133 2.9961 14.2271 C 2.3769 13.9409 2.2395 12.9201 2.6892 11.9471 C 3.1389 10.974 4.0055 10.4172 4.6247 10.7034 C 5.2439 10.9896 5.3813 12.0104 4.9316 12.9835 Z " data-paper-data="{&quot;index&quot;:null}" fill="#4848ab" stroke="#3b3b8d" stroke-width="1" stroke-linecap="butt"/><path d="M 11.1153 16.8765 C 10.9222 17.8714 10.4675 18.7115 9.6684 18.7115 C 8.8694 18.7115 8.2216 17.8899 8.2216 16.8765 C 8.2216 15.863 8.7268 15.2528 9.6684 15.0414 C 12.4446 14.4182 11.257 16.1464 11.1153 16.8765 Z " data-paper-data="{&quot;index&quot;:null}" fill="#4848ab" stroke="#3b3b8d" stroke-width="1" stroke-linecap="butt"/><path d="M 2.54 16.6647 C 3.1832 16.6647 3.7045 17.1703 3.7045 17.794 C 3.7045 18.4177 3.2572 18.9603 2.6141 18.9603 C 1.9709 18.9603 1.6347 18.2325 1.6347 17.6088 C 1.6347 16.9851 1.8968 16.6647 2.54 16.6647 Z " data-paper-data="{&quot;index&quot;:null}" fill="#4848ab" stroke="#3b3b8d" stroke-width="1" stroke-linecap="butt"/><path d="M 7.0815 6.6559 C 7.6422 6.1771 8.5953 6.8741 9.4728 8.2935 C 9.7212 8.6953 11.1695 10.1273 8.8927 11.6169 C 8.2757 12.0206 7.4614 11.4366 6.9482 10.145 C 6.435 8.8533 6.5207 7.1346 7.0815 6.6559 Z " data-paper-data="{&quot;index&quot;:null}" fill="#4848ab" stroke="#3b3b8d" stroke-width="1" stroke-linecap="butt"/><path d="M 11.6904 14.7944 C 11.6904 18.7898 9.2099 20.3348 6.15 20.3348 C 3.0901 20.3348 0.6095 18.7898 0.6095 14.7944 C 0.6095 10.799 3.0195 5.7956 6.0794 5.7956 C 9.1393 5.7956 11.6904 10.799 11.6904 14.7944 Z " data-paper-data="{&quot;index&quot;:null}" fill="none" stroke="#000000" stroke-width="1" stroke-linecap="butt"/><g><path d="M 2.3057 9.2852 C 1.2052 8.4892 0.2864 7.014 0.2505 5.2236 C 0.2089 3.1497 2.9057 0.5252 2.9057 0.5252 C 2.9057 0.5252 3.334 3.6886 3.6158 5.0554 C 3.8976 6.4223 6.3367 7.5062 5.7857 9.2852 C 5.2346 11.0641 3.4061 10.0811 2.3057 9.2852 Z " fill="#985900" stroke-linecap="butt" stroke-width="0.5" stroke="#7f4a00"/><path d="M 1.7057 2.2852 L 2.9857 2.4052 " fill="none" stroke-linecap="round" stroke-width="0.5" stroke="#7f4a00"/><path d="M 3.2657 4.3652 L 0.5857 4.1652 " fill="none" stroke-linecap="round" stroke-width="0.5" stroke="#7f4a00"/><path d="M 0.3457 6.1252 L 3.6257 5.6052 " fill="none" stroke-linecap="round" stroke-width="0.5" stroke="#7f4a00"/><path d="M 1.3857 8.2452 L 4.2257 6.6452 " fill="none" stroke-linecap="round" stroke-width="0.5" stroke="#7f4a00"/><path d="M 2.9457 9.4852 L 5.2657 7.6052 " fill="none" stroke-linecap="round" stroke-width="0.5" stroke="#7f4a00"/></g><path d="M 4.8445 25.3311 C 4.8445 25.3311 5.1408 23.4185 5.1408 22.3791 C 5.1408 21.2744 4.8445 18.8867 4.8445 18.8867 L 8.4741 18.8867 C 8.4741 18.8867 8.1408 21.2058 8.1408 22.305 C 8.1408 23.3513 8.4741 25.3311 8.4741 25.3311 Z " fill="#000000" stroke="none" stroke-width="1" stroke-linecap="butt"/></g></g></svg>