<svg xmlns="http://www.w3.org/2000/svg" xmlns:xlink="http://www.w3.org/1999/xlink" version="1.1" width="79.90368" height="84.50357" viewBox="0,0,79.90368,84.50357"><defs><radialGradient cx="205.31989" cy="169.49038" r="5.47176" gradientUnits="userSpaceOnUse" id="color-1"><stop offset="0" stop-color="#ff7d66"/><stop offset="1" stop-color="#ff7d66" stop-opacity="0"/></radialGradient><radialGradient cx="205.36893" cy="171.37459" r="2.81405" gradientUnits="userSpaceOnUse" id="color-2"><stop offset="0" stop-color="#580000"/><stop offset="1" stop-color="#580000" stop-opacity="0"/></radialGradient><radialGradient cx="205.31662" cy="169.24189" r="2.41626" gradientUnits="userSpaceOnUse" id="color-3"><stop offset="0" stop-color="#9c0000"/><stop offset="1" stop-color="#bc0000"/></radialGradient><radialGradient cx="274.27985" cy="169.15537" r="5.47176" gradientUnits="userSpaceOnUse" id="color-4"><stop offset="0" stop-color="#ff7d66"/><stop offset="1" stop-color="#ff7d66" stop-opacity="0"/></radialGradient><radialGradient cx="274.23081" cy="171.03958" r="2.81405" gradientUnits="userSpaceOnUse" id="color-5"><stop offset="0" stop-color="#580000"/><stop offset="1" stop-color="#580000" stop-opacity="0"/></radialGradient><radialGradient cx="274.28312" cy="168.90688" r="2.41626" gradientUnits="userSpaceOnUse" id="color-6"><stop offset="0" stop-color="#9c0000"/><stop offset="1" stop-color="#bc0000"/></radialGradient></defs><g><g data-paper-data="{&quot;isPaintingLayer&quot;:true}" fill-rule="nonzero" stroke-linejoin="miter" stroke-miterlimit="10" stroke-dasharray="" stroke-dashoffset="0" style="mix-blend-mode: normal"><g><g stroke-linecap="butt"><g data-paper-data="{&quot;index&quot;:null}"><path d="M208.7867,169.91869c0,0 0.76025,0.75372 1.68525,1.65465c0.82428,0.80283 1.64473,2.08056 2.64467,2.35264c1.29805,0.3532 3.61832,-1.08116 4.49321,-2.30571c3.38008,-4.68001 7.87097,-5.34969 7.87097,-5.34969l-0.84438,6.19752c0,0 -3.58366,3.25745 -6.12695,4.95936c-2.71178,1.81465 -5.64162,1.62735 -6.30249,1.38852c-2.84738,-1.02902 -5.23229,-4.64359 -5.23229,-4.64359z" data-paper-data="{&quot;index&quot;:null}" fill="#1e1e1e" stroke-width="NaN" stroke="none" transform="matrix(1,0,0,1,-199.84803,-137.82359)"/><g><path d="M206.275,174.12149c-1.049,-0.00097 -1.65836,-0.10063 -2.31977,-0.2672c-0.59239,-0.14919 -1.68535,-0.11974 -2.35081,-0.31281c-0.42631,-0.12369 -0.60679,-0.468 -0.59897,-0.58446c0.01362,-0.20284 0.29389,-0.03624 0.68184,-0.06452c0.51201,-0.03732 1.16368,-0.22927 1.16368,-0.22927c0,0 -1.02463,-0.25033 -1.68914,-0.67598c-0.38401,-0.24598 -0.60606,-0.67929 -0.54829,-0.82411c0.05203,-0.13042 0.35912,0.20122 0.86493,0.2716c0.5859,0.08153 1.37755,-0.0846 1.37755,-0.0846c0,0 -0.8585,-0.20166 -1.47728,-0.62663c-0.42344,-0.29081 -0.70082,-0.80383 -0.64814,-0.9617c0.07201,-0.21577 0.54807,0.10783 1.0765,0.27873c0.61179,0.19786 1.28163,0.26669 1.28163,0.26669c0,0 -0.60952,-0.21216 -0.98497,-0.60936c-0.36718,-0.38845 -0.50177,-0.95967 -0.3895,-1.17469c0.13561,-0.25973 0.57598,0.15151 1.26382,0.47858c0.85405,0.4061 1.98065,0.76944 2.09779,0.58053c0.11977,-0.19316 0.1293,-0.38338 0.03225,-0.62855c-0.13328,-0.33667 -0.37042,-0.72409 0.08532,-0.88364c0.26151,-0.09156 0.731,0.23955 1.36955,0.62414c0.80973,0.48769 1.80531,1.09237 2.04767,1.37086c0.52717,0.60575 -0.03644,2.07909 -0.22696,2.79932c-0.36024,1.36178 -0.93666,1.25818 -2.10871,1.25709z" data-paper-data="{&quot;index&quot;:null}" fill="#1e1e1e" stroke-width="0" stroke="none" transform="matrix(1,0,0,1,-199.84803,-137.82359)"/><path d="M205.56857,174.95648c-3.01885,0.13734 -5.57744,-2.19858 -5.71478,-5.21743c-0.13734,-3.01885 2.19858,-5.57744 5.21743,-5.71478c3.01885,-0.13734 5.57744,2.19858 5.71478,5.21743c0.13734,3.01885 -2.19858,5.57744 -5.21743,5.71478z" fill="url(#color-1)" stroke-width="0" stroke="none" transform="matrix(1,0,0,1,-199.84803,-137.82359)"/><path d="M208.18007,171.24669c0.03167,0.69618 -1.20124,1.31781 -2.75379,1.38844c-1.55255,0.07063 -2.83681,-0.43648 -2.86849,-1.13266c-0.03167,-0.69618 1.20124,-1.31781 2.75379,-1.38844c1.55255,-0.07063 2.83682,0.43648 2.86849,1.13266z" fill="url(#color-2)" stroke-width="0" stroke="none" transform="matrix(1,0,0,1,-199.84803,-137.82359)"/><path d="M203.07043,169.4894c-0.00398,-0.08747 -0.13776,-0.26573 -0.16382,-0.36357c-0.03314,-0.12439 0.27588,-0.31572 0.23012,-0.44634c-0.13155,-0.37543 -0.21831,-0.77653 -0.04087,-1.01442c0.1728,-0.23167 0.55867,-0.06624 0.9672,-0.15192c0.47462,-0.09954 0.69421,-0.48522 1.05581,-0.50167c0.26001,-0.01183 0.561,0.30072 0.8285,0.28023c0.26943,-0.02063 0.50512,-0.37373 0.69936,-0.22744c0.19548,0.14723 0.12654,0.64393 0.37094,0.93388c0.12611,0.14961 0.63849,0.04994 0.67764,0.22672c0.07761,0.35048 -0.32375,0.79866 -0.31148,1.06829c0.00868,0.19087 0.36044,0.60626 0.32192,0.78462c-0.07359,0.34065 -0.38946,0.11316 -0.66656,0.33568c-0.14275,0.11464 0.05293,0.5999 -0.06711,0.74396c-0.1117,0.13405 -0.53784,-0.07344 -0.69937,0.04551c-0.14443,0.10636 -0.1171,0.27897 -0.31282,0.34185c-0.14644,0.04705 -0.51773,-0.00214 -0.63463,0.00318c-0.21504,0.00978 -0.72737,0.20277 -0.92602,0.15309c-0.32137,-0.08036 -0.18942,-0.56675 -0.44888,-0.8249c-0.21042,-0.20936 -0.83447,-0.16966 -0.92321,-0.42903c-0.10884,-0.31813 0.05904,-0.61169 0.04329,-0.95775z" fill="url(#color-3)" stroke-width="0" stroke="none" transform="matrix(1,0,0,1,-199.84803,-137.82359)"/></g></g><g><path d="M272.62504,173.83739c0,0 -2.38492,3.61457 -5.23229,4.64359c-0.66087,0.23883 -3.59071,0.42613 -6.30249,-1.38852c-2.54329,-1.7019 -6.12695,-4.95936 -6.12695,-4.95936l-0.84438,-6.19752c0,0 4.49089,0.66968 7.87097,5.34969c0.87489,1.22454 3.19516,2.65891 4.49321,2.30571c0.99995,-0.27208 1.82039,-1.54981 2.64467,-2.35264c0.925,-0.90093 1.68525,-1.65465 1.68525,-1.65465z" data-paper-data="{&quot;index&quot;:null}" fill="#1e1e1e" stroke-width="NaN" stroke="none" transform="matrix(1,0,0,1,-199.84803,-137.82359)"/><g><path d="M273.32475,173.78649c-1.17205,0.00109 -1.74846,0.10469 -2.10871,-1.25709c-0.19052,-0.72022 -0.75413,-2.19356 -0.22696,-2.79932c0.24235,-0.27848 1.23794,-0.88316 2.04767,-1.37086c0.63855,-0.3846 1.10804,-0.7157 1.36955,-0.62414c0.45573,0.15955 0.2186,0.54697 0.08532,0.88364c-0.09706,0.24517 -0.08753,0.43539 0.03225,0.62855c0.11714,0.18891 1.24374,-0.17443 2.09779,-0.58053c0.68783,-0.32707 1.12821,-0.7383 1.26382,-0.47858c0.11227,0.21502 -0.02232,0.78624 -0.3895,1.17469c-0.37545,0.3972 -0.98497,0.60936 -0.98497,0.60936c0,0 0.66984,-0.06883 1.28163,-0.26669c0.52843,-0.1709 1.00449,-0.4945 1.0765,-0.27873c0.05269,0.15786 -0.22469,0.67089 -0.64814,0.9617c-0.61878,0.42497 -1.47728,0.62663 -1.47728,0.62663c0,0 0.79165,0.16612 1.37755,0.0846c0.50581,-0.07038 0.8129,-0.40202 0.86493,-0.2716c0.05778,0.14482 -0.16428,0.57813 -0.54829,0.82411c-0.66451,0.42565 -1.68914,0.67598 -1.68914,0.67598c0,0 0.65167,0.19194 1.16368,0.22927c0.38795,0.02828 0.66822,-0.13832 0.68184,0.06452c0.00782,0.11647 -0.17266,0.46078 -0.59897,0.58446c-0.66546,0.19307 -1.75841,0.16362 -2.35081,0.31281c-0.6614,0.16657 -1.27077,0.26622 -2.31977,0.2672z" data-paper-data="{&quot;index&quot;:null}" fill="#1e1e1e" stroke-width="0" stroke="none" transform="matrix(1,0,0,1,-199.84803,-137.82359)"/><path d="M268.81374,168.9067c0.13734,-3.01885 2.69594,-5.35477 5.71478,-5.21743c3.01885,0.13734 5.35477,2.69594 5.21743,5.71479c-0.13734,3.01885 -2.69594,5.35477 -5.71478,5.21743c-3.01885,-0.13734 -5.35477,-2.69594 -5.21743,-5.71478z" fill="url(#color-4)" stroke-width="0" stroke="none" transform="matrix(1,0,0,1,-199.84803,-137.82359)"/><path d="M274.28815,169.77903c1.55255,0.07063 2.78546,0.69226 2.75379,1.38844c-0.03167,0.69618 -1.31594,1.20329 -2.86849,1.13266c-1.55255,-0.07063 -2.78546,-0.69226 -2.75379,-1.38844c0.03167,-0.69618 1.31594,-1.20329 2.86849,-1.13266z" fill="url(#color-5)" stroke-width="0" stroke="none" transform="matrix(1,0,0,1,-199.84803,-137.82359)"/><path d="M276.57261,170.11214c-0.08874,0.25937 -0.71279,0.21967 -0.92321,0.42903c-0.25946,0.25815 -0.12751,0.74454 -0.44888,0.8249c-0.19865,0.04967 -0.71098,-0.14331 -0.92602,-0.15309c-0.1169,-0.00532 -0.4882,0.04387 -0.63463,-0.00318c-0.19572,-0.06289 -0.16839,-0.23549 -0.31282,-0.34185c-0.16153,-0.11895 -0.58767,0.08854 -0.69937,-0.04551c-0.12004,-0.14406 0.07564,-0.62932 -0.06711,-0.74396c-0.2771,-0.22253 -0.59297,0.00497 -0.66656,-0.33568c-0.03853,-0.17836 0.31323,-0.59375 0.32192,-0.78462c0.01227,-0.26963 -0.38909,-0.71781 -0.31148,-1.06829c0.03915,-0.17678 0.55153,-0.07711 0.67764,-0.22672c0.2444,-0.28994 0.17546,-0.78665 0.37094,-0.93388c0.19424,-0.1463 0.42993,0.2068 0.69936,0.22744c0.26749,0.02048 0.56848,-0.29206 0.8285,-0.28023c0.36159,0.01645 0.58118,0.40213 1.05581,0.50167c0.40853,0.08568 0.79441,-0.07975 0.9672,0.15192c0.17744,0.2379 0.09068,0.639 -0.04087,1.01442c-0.04577,0.13062 0.26326,0.32194 0.23012,0.44634c-0.02607,0.09785 -0.15985,0.2761 -0.16382,0.36357c-0.01574,0.34606 0.15214,0.63961 0.04329,0.95775z" fill="url(#color-6)" stroke-width="0" stroke="none" transform="matrix(1,0,0,1,-199.84803,-137.82359)"/></g></g></g><path d="M222.87645,164.81743v-6.19256h34.54984v6.19256z" fill="#000000" stroke="none" stroke-width="0" stroke-linecap="butt" transform="matrix(1,0,0,1,-199.84803,-137.82359)"/><path d="M222.42771,164.54818c0,0 9.8778,-1.98198 17.03593,-1.76484c6.68263,0.20273 17.5139,1.76484 17.5139,1.76484c0,0 -11.67722,5.02274 -17.51236,4.97727c-5.67714,-0.04424 -17.03749,-4.97727 -17.03749,-4.97727z" fill="#171717" stroke="none" stroke-width="0" stroke-linecap="butt" transform="matrix(1,0,0,1,-199.84803,-137.82359)"/><g><path d="M 38.8701 4.157 L 38.8701 0 L 41.6076 0 L 41.6076 4.157 Z " data-paper-data="{&quot;origPos&quot;:null}" fill="#995400" stroke="none" stroke-linecap="butt" stroke-width="1"/><path d="M 56.4332 17.4388 C 56.4332 25.0544 49.2608 31.2281 40.4133 31.2281 C 31.5658 31.2281 24.3935 25.0544 24.3935 17.4388 C 24.3935 9.8232 31.5658 3.6496 40.4133 3.6496 C 49.2608 3.6496 56.4332 9.8232 56.4332 17.4388 Z " data-paper-data="{&quot;origPos&quot;:null}" fill="#ff6400" stroke="#e35b00" stroke-linecap="butt" stroke-width="1"/><path d="M 38.6059 30.3539 C 38.6059 30.3539 35.4288 25.1511 35.377 17.2454 C 35.3302 10.1042 38.7273 3.7755 38.7273 3.7755 " fill="none" stroke="#e35b00" stroke-linecap="round" stroke-width="1"/><path d="M 41.5815 3.7755 C 41.5815 3.7755 44.9785 10.1042 44.9317 17.2454 C 44.8799 25.1511 41.7028 30.3539 41.7028 30.3539 " data-paper-data="{&quot;index&quot;:null}" fill="none" stroke="#e35b00" stroke-linecap="round" stroke-width="1"/><path d="M 37.4364 30.2325 C 37.4364 30.2325 28.9644 26.6057 28.6494 17.124 C 28.3505 8.1282 37.6684 3.6541 37.6684 3.6541 " data-paper-data="{&quot;index&quot;:null}" fill="none" stroke="#e35b00" stroke-linecap="round" stroke-width="1"/><path d="M 43.1258 3.6541 C 43.1258 3.6541 51.6275 8.406 51.7807 17.124 C 51.934 25.8428 43.3579 30.2325 43.3579 30.2325 " data-paper-data="{&quot;index&quot;:null}" fill="none" stroke="#e35b00" stroke-linecap="round" stroke-width="1"/></g><g stroke-linecap="butt"><path d="M 36.0718 17.0329 C 33.3361 15.8138 34.1453 10.848 34.1453 10.848 L 43.4734 15.0051 C 43.4734 15.0051 38.8074 18.2521 36.0718 17.0329 Z " stroke-width="1" fill="#fff86a" stroke="none"/><path d="M 44.9557 14.9741 L 54.2837 10.817 C 54.2837 10.817 55.093 15.7828 52.3573 17.0019 C 49.6216 18.2211 44.9557 14.9741 44.9557 14.9741 Z " data-paper-data="{&quot;index&quot;:null}" stroke-width="1" fill="#fff86a" stroke="none"/><path d="M 33.1939 19.4651 C 33.1939 19.4651 39.5299 21.0527 43.5852 21.0527 C 47.9221 21.0527 54.6981 19.4651 54.6981 19.4651 C 54.6981 19.4651 48.4905 26.6813 43.5852 26.6813 C 38.6798 26.6813 33.1939 19.4651 33.1939 19.4651 Z " stroke-width="1" fill="#fff86a" stroke="none"/></g><path d="M219.63929,220.75234l5.42513,-56.27146c0,0 8.35786,3.76938 14.69319,3.76938c7.21486,0 15.41749,-3.76938 15.41749,-3.76938l5.42267,56.27146c0,0 -7.10145,1.17439 -20.04485,1.21129c-12.47795,0.03559 -20.9136,-1.21129 -20.9136,-1.21129z" fill="#2a2a2a" stroke="none" stroke-width="NaN" stroke-linecap="butt" transform="matrix(1,0,0,1,-199.84803,-137.82359)"/><path d="M233.58566,221.96378l2.35669,-54.06357c0,0 2.62542,0.24226 3.97331,0.24226c1.39652,0 4.26509,-0.24226 4.26509,-0.24226l2.93152,53.94244c0,0 -4.14806,0.48451 -6.72806,0.48451c-2.58,0 -6.79857,-0.36338 -6.79857,-0.36338z" fill="#a80000" stroke="none" stroke-width="NaN" stroke-linecap="butt" transform="matrix(1,0,0,1,-199.84803,-137.82359)"/><path d="M219.97952,164.14432l2.90781,-5.70792l7.39068,8.81766l-6.31371,-0.68656c0,0 -2.51699,-0.36996 -3.21034,-0.79158c-0.62855,-0.38223 -0.77444,-1.63159 -0.77444,-1.63159z" fill="#191919" stroke="none" stroke-width="0" stroke-linecap="butt" transform="matrix(1,0,0,1,-199.84803,-137.82359)"/><path d="M259.61821,165.749c-0.69334,0.42162 -3.21034,0.79158 -3.21034,0.79158l-6.70411,0.96927l7.78107,-9.10037l2.90781,5.70792c0,0 -0.14589,1.24936 -0.77444,1.6316z" data-paper-data="{&quot;index&quot;:null}" fill="#191919" stroke="none" stroke-width="0" stroke-linecap="butt" transform="matrix(1,0,0,1,-199.84803,-137.82359)"/></g></g></g></svg>