<svg xmlns="http://www.w3.org/2000/svg" xmlns:xlink="http://www.w3.org/1999/xlink" version="1.1" width="20.47346" height="21.56838" viewBox="0,0,20.47346,21.56838"><g><g data-paper-data="{&quot;isPaintingLayer&quot;:true}" fill-rule="nonzero" stroke-linecap="butt" stroke-linejoin="miter" stroke-miterlimit="10" stroke-dasharray="" stroke-dashoffset="0" style="mix-blend-mode: normal"><g><path d="M230.75,180c0,-1.57621 0.39424,-3.06034 1.08949,-4.35916c0.38162,-0.71291 -1.39851,-3.75581 -1.39851,-3.75581c0,0 3.58462,1.03162 4.02486,0.70242c0.49357,-0.36909 1.18803,-2.45589 1.18803,-2.45589c0,0 1.65842,0.98779 2.33375,0.83796c0.64785,-0.14373 1.32127,-0.21953 2.01238,-0.21953c1.27767,0 2.49484,0.25904 3.60186,0.72748c0.41637,0.17619 2.95317,-1.98521 2.95317,-1.98521c0,0 -1.03633,3.143 -0.66413,3.45968c0.58225,0.4954 1.20234,1.06167 1.64692,1.68547c0.3142,0.44085 1.62475,1.30405 1.62475,1.30405c0,0 -0.27205,1.39784 -0.12127,2.09559c0.13671,0.63265 0.2087,1.28939 0.2087,1.96294c0,0.73697 -0.08618,1.45381 -0.24903,2.14099c-0.20913,0.88254 1.91347,3.58067 1.91347,3.58067c0,0 -3.38804,-0.32385 -3.6723,0.03337c-1.00219,1.25948 -2.32602,2.2516 -3.84723,2.8521c-0.65101,0.25699 -1.75173,2.04605 -1.75173,2.04605c0,0 -1.187,-1.40318 -1.6432,-1.40318c-1.37582,0 -2.68148,-0.30037 -3.85499,-0.83911c-0.90813,-0.41691 -5.45824,2.64975 -5.45824,2.64975c0,0 1.88999,-5.48139 1.45961,-6.17122c-0.88502,-1.41855 -1.39639,-3.09427 -1.39639,-4.88942z" fill="#83f1ff" stroke-width="none" stroke="none" transform="matrix(1,0,0,1,-230.44098,-169.49226)"/><path d="M233.20536,180c0,-3.75258 3.04206,-6.79464 6.79464,-6.79464c3.75258,0 6.79464,3.04206 6.79464,6.79464c0,3.75258 -3.04206,6.79464 -6.79464,6.79464c-3.75258,0 -6.79464,-3.04206 -6.79464,-6.79464z" fill="#1de6ff" stroke-width="0" stroke="none" transform="matrix(1,0,0,1,-230.44098,-169.49226)"/><path d="M244.29204,180.11952c0,0.68144 -0.17044,1.32307 -0.47102,1.88459c-0.16498,0.30821 0.60462,1.62374 0.60462,1.62374c0,0 -1.54973,-0.446 -1.74006,-0.30367c-0.21338,0.15957 -0.51362,1.06175 -0.51362,1.06175c0,0 -0.71699,-0.42705 -1.00895,-0.36228c-0.28008,0.06214 -0.57122,0.09491 -0.87001,0.09491c-0.55238,0 -1.07859,-0.11199 -1.55719,-0.31451c-0.18001,-0.07617 -1.27674,0.85826 -1.27674,0.85826c0,0 0.44804,-1.35881 0.28712,-1.49572c-0.25172,-0.21418 -0.51981,-0.45899 -0.71201,-0.72868c-0.13584,-0.19059 -0.70243,-0.56378 -0.70243,-0.56378c0,0 0.11762,-0.60432 0.05243,-0.90598c-0.0591,-0.27351 -0.09023,-0.55744 -0.09023,-0.84864c0,-0.31861 0.03726,-0.62852 0.10766,-0.92561c0.09042,-0.38155 -0.82725,-1.54803 -0.82725,-1.54803c0,0 1.46475,0.14001 1.58764,-0.01443c0.43328,-0.54451 1.0056,-0.97343 1.66327,-1.23305c0.28145,-0.1111 0.75732,-0.88457 0.75732,-0.88457c0,0 0.51317,0.60664 0.7104,0.60664c0.59481,0 1.15928,0.12986 1.66662,0.36277c0.39261,0.18024 2.35975,-1.14557 2.35975,-1.14557c0,0 -0.8171,2.36976 -0.63103,2.668c0.38262,0.61328 0.6037,1.33774 0.6037,2.11384z" data-paper-data="{&quot;index&quot;:null}" fill="#ffffff" stroke-width="none" stroke="none" transform="matrix(1,0,0,1,-230.44098,-169.49226)"/></g></g></g></svg>