<svg xmlns="http://www.w3.org/2000/svg" xmlns:xlink="http://www.w3.org/1999/xlink" version="1.1" width="50.59041" height="50.59041" viewBox="0,0,50.59041,50.59041"><g><g data-paper-data="{&quot;isPaintingLayer&quot;:true}" fill-rule="nonzero" stroke-linecap="butt" stroke-linejoin="miter" stroke-miterlimit="10" stroke-dasharray="" stroke-dashoffset="0" font-family="none" font-weight="none" font-size="none" text-anchor="none" style="mix-blend-mode: normal"><path d="M 1.7678 25.3233 L 25.2671 1.7678 L 48.8226 25.2671 L 25.3233 48.8226 Z " data-paper-data="{&quot;origPos&quot;:null,&quot;origRot&quot;:0}" fill="#98deff" stroke="#0057cc" stroke-width="2.5"/><g data-paper-data="{&quot;origPos&quot;:null,&quot;origRot&quot;:0}"><path d="M231.4708,190.1087l-0.04696,-14.25212l4.458,-1.23161l2.09523,13.68624z" stroke-width="0" fill="#000000" stroke="none" transform="matrix(1,0,0,1,-214.60481,-154.6048)"/><path d="M235.95218,179.33895l-1.23161,-4.458l14.09691,-3.89457l1.23161,4.458z" stroke-width="0" fill="#000000" stroke="none" transform="matrix(1,0,0,1,-214.60481,-154.6048)"/><path d="M231.23585,178.69669l-1.03189,-3.73508l15.78372,-4.36058l1.03189,3.73508z" stroke-width="0" fill="#000000" stroke="none" transform="matrix(1,0,0,1,-214.60481,-154.6048)"/></g><path d="M 11.4107 24.6303 C 11.8361 16.91 18.4395 10.9964 26.1598 11.4217 C 33.8801 11.8471 39.7937 18.4505 39.3683 26.1708 C 38.943 33.8911 32.3396 39.8047 24.6193 39.3793 C 16.899 38.954 10.9854 32.3506 11.4107 24.6303 Z " data-paper-data="{&quot;origPos&quot;:null,&quot;origRot&quot;:0}" fill="none" stroke="#ff0000" stroke-width="3"/><path d="M236.22931,169.47115l-2.25078,0.11605l-1.97861,-3.03891l4.44381,-2.98818l8.83336,1.45453l1.02257,2.41429l-1.24103,1.5505z" data-paper-data="{&quot;origPos&quot;:null,&quot;origRot&quot;:0}" fill="#98deff" stroke="none" stroke-width="0" transform="matrix(1,0,0,1,-214.60481,-154.6048)"/><path d="M234.53914,172.64051l-4.53629,-7.64021c0,0 2.75363,0.08012 4.54465,0.22014c1.54444,0.12075 4.00205,0.44806 4.00205,0.44806c0,0 -1.14638,1.56048 -1.82299,2.73675c-0.8885,1.54464 -2.18741,4.23526 -2.18741,4.23526z" data-paper-data="{&quot;origPos&quot;:null,&quot;origRot&quot;:0}" fill="#ff0000" stroke="none" stroke-width="0" transform="matrix(1,0,0,1,-214.60481,-154.6048)"/></g></g></svg>