<svg version="1.1" xmlns="http://www.w3.org/2000/svg" xmlns:xlink="http://www.w3.org/1999/xlink" width="69.94824" height="160.65989" viewBox="0,0,69.94824,160.65989"><defs><radialGradient cx="227.78574" cy="102.00751" r="28.75" gradientUnits="userSpaceOnUse" id="color-1"><stop offset="0" stop-color="#00dfff"/><stop offset="1" stop-color="#00dfff" stop-opacity="0"/></radialGradient></defs><g transform="translate(-202.84856,-84.65041)"><g data-paper-data="{&quot;isPaintingLayer&quot;:true}" fill-rule="nonzero" stroke-linejoin="miter" stroke-miterlimit="10" stroke-dasharray="" stroke-dashoffset="0" style="mix-blend-mode: normal"><g stroke-linecap="butt"><path d="M216.83462,202.08083c2.60311,0.92159 3.77946,4.30647 2.62748,7.56035c-1.15199,3.25387 -4.19608,5.14457 -6.79918,4.22298c-2.60311,-0.92159 -3.77946,-4.30647 -2.62748,-7.56035c1.15199,-3.25387 4.19608,-5.14457 6.79918,-4.22298z" fill="none" stroke="#00a9bb" stroke-width="1.5"/><path d="M224.3884,206.21375c1.08287,-3.05865 3.49062,-4.99652 5.37787,-4.32837c1.88725,0.66815 2.53933,3.68931 1.45646,6.74796c-1.08287,3.05865 -3.49062,4.99652 -5.37787,4.32837c-1.88725,-0.66815 -2.53933,-3.68931 -1.45646,-6.74796z" fill="none" stroke="#00a9bb" stroke-width="1.5"/><path d="M216.55215,221.606c0.92159,-2.60311 3.04034,-4.22772 4.73235,-3.62869c1.69202,0.59903 2.31657,3.19487 1.39498,5.79798c-0.92159,2.60311 -3.04034,4.22772 -4.73235,3.62869c-1.69202,-0.59903 -2.31657,-3.19487 -1.39498,-5.79798z" fill="none" stroke="#00a9bb" stroke-width="1.5"/><path d="M203.59856,222.9871c0.94463,-2.66818 3.34583,-4.25217 5.36323,-3.53793c2.01741,0.71423 2.88706,3.45621 1.94244,6.12439c-0.94463,2.66818 -3.34583,4.25217 -5.36323,3.53793c-2.01741,-0.71423 -2.88706,-3.45621 -1.94244,-6.12439z" fill="none" stroke="#00a9bb" stroke-width="1.5"/><path d="M259.22438,102.43546c7.78016,2.9318 4.92984,29.60968 -6.36641,59.58669c-7.5741,20.09958 -16.56213,36.13568 -24.31137,43.92965c-0.96289,-0.71769 -13.9706,-4.72063 -14.22949,-4.81819c-0.10152,-0.03823 2.80149,-29.65362 10.36625,-49.72857c11.29625,-29.97692 26.76075,-51.90141 34.54101,-48.96959z" fill="#5a5a5a" stroke="#000000" stroke-width="2"/><path d="M223.3476,185.55708c2.01741,0.71423 3.07384,2.92865 2.3596,4.94606c-0.71423,2.01741 -2.92865,3.07384 -4.94606,2.3596c-2.01741,-0.71423 -3.07384,-2.92865 -2.3596,-4.94606c0.71423,-2.01741 2.92865,-3.07384 4.94606,-2.3596z" fill="none" stroke="#000000" stroke-width="1.5"/><path d="M248.53008,115.1762c2.01741,0.71423 3.07384,2.92865 2.3596,4.94606c-0.71423,2.01741 -2.92865,3.07384 -4.94606,2.3596c-2.01741,-0.71423 -3.07384,-2.92865 -2.3596,-4.94606c0.71423,-2.01741 2.92865,-3.07384 4.94606,-2.3596z" fill="none" stroke="#000000" stroke-width="1.5"/><path d="M260.03822,117.12884c2.01741,0.71423 3.07384,2.92865 2.3596,4.94606c-0.71423,2.01741 -2.92865,3.07384 -4.94606,2.3596c-2.01741,-0.71423 -3.07384,-2.92865 -2.3596,-4.94606c0.71423,-2.01741 2.92865,-3.07384 4.94606,-2.3596z" fill="none" stroke="#000000" stroke-width="1.5"/><path d="M232.30294,188.72758c2.01741,0.71423 3.07384,2.92865 2.3596,4.94606c-0.71423,2.01741 -2.92865,3.07384 -4.94606,2.3596c-2.01741,-0.71423 -3.07384,-2.92865 -2.3596,-4.94606c0.71423,-2.01741 2.92865,-3.07384 4.94606,-2.3596z" fill="none" stroke="#000000" stroke-width="1.5"/></g><path d="M233.5468,198.20663v-55.25h10v55.25z" fill="#686868" stroke="#000000" stroke-width="0" stroke-linecap="butt"/><path d="M239.92654,145.6682l-15.6984,29.5714" fill="none" stroke="#000000" stroke-width="3.5" stroke-linecap="round"/><path d="M257.81544,175.2396l-15.6984,-29.5714" data-paper-data="{&quot;index&quot;:null}" fill="none" stroke="#000000" stroke-width="3.5" stroke-linecap="round"/><path d="M253.0348,175.02924l-13.29326,-26.05479l4.31726,-4.34043l14.54326,27.55479z" data-paper-data="{&quot;index&quot;:null}" fill="#939393" stroke="none" stroke-width="0" stroke-linecap="butt"/><path d="M223.24154,172.6888l14.54326,-27.55478l4.31726,4.34044l-13.29326,26.05478z" fill="#939393" stroke="none" stroke-width="0" stroke-linecap="butt"/><path d="M241.22974,137.3444v67.2971l-12.0476,38.9188" fill="none" stroke="#000000" stroke-width="3.5" stroke-linecap="round"/><path d="M242.03294,203.2047l12.0476,40.1587" fill="none" stroke="#000000" stroke-width="3.5" stroke-linecap="round"/><path d="M217.13444,114.4539c0,-13.9728 11.3272,-25.3 25.3,-25.3c13.9728,0 25.3,11.3272 25.3,25.3c0,13.9728 -11.3272,25.3 -25.3,25.3c-13.9728,0 -25.3,-11.3272 -25.3,-25.3z" fill="#d4d4d4" stroke="#000000" stroke-width="2.5" stroke-linecap="butt"/><path d="M238.01702,108.43012c0,-2.66149 2.15756,-4.81905 4.81905,-4.81905c2.66149,0 4.81905,2.15756 4.81905,4.81905c0,2.66149 -2.15756,4.81905 -4.81905,4.81905c-2.66149,0 -4.81905,-2.15756 -4.81905,-4.81905z" fill="#000000" stroke="none" stroke-width="0" stroke-linecap="butt"/><path d="M251.67099,108.43012c0,-2.66148 2.15757,-4.81905 4.81905,-4.81905c2.66148,0 4.81905,2.15757 4.81905,4.81905c0,2.66148 -2.15757,4.81905 -4.81905,4.81905c-2.66148,0 -4.81905,-2.15757 -4.81905,-4.81905z" fill="#000000" stroke="none" stroke-width="0" stroke-linecap="butt"/><path d="M247.36304,105.0746l-9.127,-3.6508" fill="none" stroke="#000000" stroke-width="2.5" stroke-linecap="round"/><path d="M259.41064,101.4587l-6.9365,3.2857" fill="none" stroke="#000000" stroke-width="2.5" stroke-linecap="round"/><path d="M271.5468,114.05352c0,15.54854 -12.87181,28.15311 -28.75,28.15311c-15.87819,0 -28.75,-12.60458 -28.75,-28.15311c0,-15.54854 12.87181,-28.15311 28.75,-28.15311c15.87819,0 28.75,12.60458 28.75,28.15311z" fill="url(#color-1)" stroke="#8c8d8c" stroke-width="2.5" stroke-linecap="butt"/><path d="M228.35327,238.25977l9.63179,-32.28818l4.8747,2.21761l-7.9175,32.00247z" fill="#878787" stroke="none" stroke-width="0" stroke-linecap="butt"/><path d="M248.41362,240.19167l-7.9175,-32.00247l4.30327,-2.78904l10.20322,32.85961z" data-paper-data="{&quot;index&quot;:null}" fill="#878787" stroke="none" stroke-width="0" stroke-linecap="butt"/><path d="M237.82079,209.5102v-12.42857l6.57143,-0.14286l0.57143,12.57143z" fill="#878787" stroke="none" stroke-width="0" stroke-linecap="butt"/><path d="M237.5468,202.58163v-59.375h7.25v59.375z" fill="#a5a5a5" stroke="#000000" stroke-width="0" stroke-linecap="butt"/></g></g></svg>