<svg xmlns="http://www.w3.org/2000/svg" xmlns:xlink="http://www.w3.org/1999/xlink" version="1.1" width="53.1" height="157.40634" viewBox="0,0,53.1,157.40634"><g><g data-paper-data="{&quot;isPaintingLayer&quot;:true}" fill-rule="nonzero" stroke-linejoin="miter" stroke-miterlimit="10" stroke-dasharray="" stroke-dashoffset="0" style="mix-blend-mode: normal"><path d="M 25.3453 49.4405 L 25.3453 116.7375 L 13.2977 155.6563 " data-paper-data="{&quot;origPos&quot;:null}" fill="none" stroke="#000000" stroke-width="3.5" stroke-linecap="round"/><path d="M 38.1961 155.4595 L 26.1484 115.3008 " data-paper-data="{&quot;origPos&quot;:null}" fill="none" stroke="#000000" stroke-width="3.5" stroke-linecap="round"/><path d="M 30.8437 90.169 C 30.8437 90.169 16.6883 81.2335 15.3087 74.6608 C 14.0339 68.5871 24.0421 57.7643 24.0421 57.7643 " data-paper-data="{&quot;origPos&quot;:null}" fill="none" stroke="#000000" stroke-width="3.5" stroke-linecap="round"/><path d="M 44.9309 90.5024 L 26.2325 57.7643 " data-paper-data="{&quot;origPos&quot;:null,&quot;index&quot;:null}" fill="none" stroke="#000000" stroke-width="3.5" stroke-linecap="round"/><g stroke-linecap="round"><path d="M 18.4554 114.2718 L 46.3336 65.3747 " data-paper-data="{&quot;origPos&quot;:null}" stroke="#dcdcdc" stroke-width="2" fill="none"/><path d="M 46.1737 65.2747 C 46.1737 65.2747 50.4011 78.6396 49.0783 83.5734 C 47.7437 88.5512 41.7339 88.5297 39.1181 92.97 C 36.5172 97.3851 39.6183 102.3748 36.1453 106.1425 C 30.9022 111.8304 18.1605 114.4764 18.1605 114.4764 " data-paper-data="{&quot;origPos&quot;:null}" stroke="#b35f00" stroke-width="3" fill="none"/></g><g><path d="M 1.25 26.55 C 1.25 12.5772 12.5772 1.25 26.55 1.25 C 40.5228 1.25 51.85 12.5772 51.85 26.55 C 51.85 40.5228 40.5228 51.85 26.55 51.85 C 12.5772 51.85 1.25 40.5228 1.25 26.55 Z " data-paper-data="{&quot;origPos&quot;:null}" fill="#d4d4d4" stroke="#000000" stroke-width="2.5" stroke-linecap="butt"/><path d="M237.69552,107.55898c0,-2.66149 2.15756,-4.81905 4.81905,-4.81905c2.66149,0 4.81905,2.15756 4.81905,4.81905c0,2.66149 -2.15756,4.81905 -4.81905,4.81905c-2.66149,0 -4.81905,-2.15756 -4.81905,-4.81905z" data-paper-data="{&quot;origPos&quot;:null}" fill="#000000" stroke="none" stroke-width="0" stroke-linecap="butt" transform="matrix(1,0,0,1,-215.56298,-87.03278)"/><path d="M251.34951,107.55898c0,-2.66148 2.15757,-4.81905 4.81905,-4.81905c2.66148,0 4.81905,2.15757 4.81905,4.81905c0,2.66148 -2.15757,4.81905 -4.81905,4.81905c-2.66148,0 -4.81905,-2.15757 -4.81905,-4.81905z" data-paper-data="{&quot;origPos&quot;:null}" fill="#000000" stroke="none" stroke-width="0" stroke-linecap="butt" transform="matrix(1,0,0,1,-215.56298,-87.03278)"/><path d="M 22.3516 13.5198 L 31.4786 17.1706 " data-paper-data="{&quot;origPos&quot;:null}" fill="none" stroke="#000000" stroke-width="2.5" stroke-linecap="round"/><path d="M 43.5262 13.5548 L 36.5897 16.8405 " data-paper-data="{&quot;origPos&quot;:null}" fill="none" stroke="#000000" stroke-width="2.5" stroke-linecap="round"/></g></g></g></svg>