<svg xmlns="http://www.w3.org/2000/svg" xmlns:xlink="http://www.w3.org/1999/xlink" version="1.1" width="488.20067" height="344.01038" viewBox="0,0,488.20067,344.01038"><g><g data-paper-data="{&quot;isPaintingLayer&quot;:true}" fill-rule="nonzero" stroke-linejoin="miter" stroke-miterlimit="10" stroke-dasharray="" stroke-dashoffset="0" style="mix-blend-mode: normal"><path d="M-3.50438,363.01038v-34h488.20067v34z" data-paper-data="{&quot;origPos&quot;:null}" fill="#d8a017" stroke="none" stroke-width="0" stroke-linecap="butt" transform="matrix(1,0,0,1,3.50438,-19)"/><g><g data-paper-data="{&quot;origPos&quot;:null,&quot;index&quot;:null}"><path d="M 231.6417 209.0975 C 231.6417 209.0975 232.3875 211.5344 232.5888 213.0942 C 232.8364 215.0136 232.792 218.0125 232.792 218.0125 " fill="none" stroke="#000000" stroke-width="2" stroke-linecap="round"/><path d="M224.75821,270.58782v-32.20927h8.3399v32.20928z" fill="#7aa8f5" stroke="none" stroke-width="0" stroke-linecap="butt" transform="matrix(1,0,0,1,3.50438,-19)"/><path d="M223.1765,239.67267v-2.73203h11.7909v2.73203z" data-paper-data="{&quot;origPos&quot;:null}" fill="#4a88f5" stroke="none" stroke-width="0" stroke-linecap="butt" transform="matrix(1,0,0,1,3.50438,-19)"/></g><g data-paper-data="{&quot;origPos&quot;:null}"><path d="M 281.8063 217.6322 C 281.8063 217.6322 281.7619 214.6333 282.0096 212.7138 C 282.2108 211.1541 282.9567 208.7171 282.9567 208.7171 " fill="none" stroke="#000000" stroke-width="2" stroke-linecap="round"/><path d="M274.49148,270.20747v-32.20927h8.3399v32.20928z" fill="#7aa8f5" stroke="none" stroke-width="0" stroke-linecap="butt" transform="matrix(1,0,0,1,3.50438,-19)"/><path d="M272.62219,239.29232v-2.73203h11.7909v2.73203z" data-paper-data="{&quot;origPos&quot;:null}" fill="#4a88f5" stroke="none" stroke-width="0" stroke-linecap="butt" transform="matrix(1,0,0,1,3.50438,-19)"/></g><g data-paper-data="{&quot;origPos&quot;:null}"><path d="M 184.056 217.6322 C 184.056 217.6322 184.0116 214.6333 184.2593 212.7138 C 184.4605 211.1541 185.2063 208.7171 185.2063 208.7171 " fill="none" stroke="#000000" stroke-width="2" stroke-linecap="round"/><path d="M176.74115,270.20747v-32.20927h8.3399v32.20927z" fill="#7aa8f5" stroke="none" stroke-width="0" stroke-linecap="butt" transform="matrix(1,0,0,1,3.50438,-19)"/><path d="M174.87186,239.29232v-2.73203h11.7909v2.73203z" data-paper-data="{&quot;origPos&quot;:null}" fill="#4a88f5" stroke="none" stroke-width="0" stroke-linecap="butt" transform="matrix(1,0,0,1,3.50438,-19)"/></g><path d="M165.29363,330v-62.41828h126.27147v62.41828z" data-paper-data="{&quot;origPos&quot;:null}" fill="#f4d179" stroke="none" stroke-width="0" stroke-linecap="butt" transform="matrix(1,0,0,1,3.50438,-19)"/><path d="M163.5,290.89889v-25.1108h129.5v19.01247c0,0 -8.23631,-3.19587 -12.12174,-1.28271c-6.48855,3.19492 -7.91838,10.20191 -15.14999,10.09065c-13.87259,-0.21341 -8.69803,-7.19086 -22.23628,-10.22565c-14.28191,-3.20149 -38.75979,1.47792 -38.75979,1.47792c0,0 -14.30171,-3.13632 -24.36912,-2.52279c-6.58103,0.40106 -16.86307,8.56091 -16.86307,8.56091z" data-paper-data="{&quot;origPos&quot;:null}" fill="#f57a99" stroke="none" stroke-width="0" stroke-linecap="butt" transform="matrix(1,0,0,1,3.50438,-19)"/></g><g data-paper-data="{&quot;origPos&quot;:null,&quot;origRot&quot;:0}" stroke-linecap="round"><path d="M 81.7094 307.1056 L 130.5818 295.5751 " stroke-width="7.5" fill="none" stroke="#565656"/><g><path d="M 166.0849 302.3538 L 143.7432 307.6248 L 129.8262 295.4965 L 136.9716 278.142 L 159.6623 272.7885 " stroke-width="7.5" fill="none" stroke="#565656"/><path d="M 130.8735 295.2494 L 160.0223 288.3723 " stroke-width="7.5" fill="none" stroke="#565656"/></g></g><g data-paper-data="{&quot;origPos&quot;:null,&quot;origRot&quot;:0,&quot;index&quot;:null}" stroke-linecap="round"><path d="M 382.0849 307.1056 L 333.2126 295.5751 " stroke-width="7.5" fill="none" stroke="#565656"/><g><path d="M 304.132 272.7885 L 326.8228 278.142 L 333.9681 295.4965 L 320.0511 307.6249 L 297.7095 302.3538 " stroke-width="7.5" fill="none" stroke="#565656"/><path d="M 303.772 288.3723 L 332.9209 295.2494 " stroke-width="7.5" fill="none" stroke="#565656"/></g></g><g data-paper-data="{&quot;origPos&quot;:null}"><path d="M 77.5044 232.4 C 77.5044 232.4 74.067 227.8961 74.6595 221.0306 C 75.1379 215.4864 80.1044 206.1648 80.1044 200.6 C 80.1044 197.634 77.5044 191.4 77.5044 191.4 " data-paper-data="{&quot;origPos&quot;:null}" fill="none" stroke="#000000" stroke-width="2.5" stroke-linecap="round"/><path d="M57,192c0,-11.04569 8.28273,-20 18.5,-20c10.21727,0 18.5,8.95431 18.5,20c0,11.04569 -8.28273,20 -18.5,20c-10.21727,0 -18.5,-8.95431 -18.5,-20z" data-paper-data="{&quot;origPos&quot;:null}" fill="#ff0000" stroke="none" stroke-width="0" stroke-linecap="butt" transform="matrix(1,0,0,1,3.50438,-19)"/></g><path d="M 388.1908 192.4 C 388.1908 192.4 385.5908 198.634 385.5908 201.6 C 385.5908 207.1648 390.5573 216.4864 391.0357 222.0306 C 391.6282 228.8961 388.1908 233.4 388.1908 233.4 " data-paper-data="{&quot;origPos&quot;:null,&quot;index&quot;:null}" fill="none" stroke="#000000" stroke-width="2.5" stroke-linecap="round"/><path d="M368,193c0,-11.04569 8.28273,-20 18.5,-20c10.21727,0 18.5,8.95431 18.5,20c0,11.04569 -8.28273,20 -18.5,20c-10.21727,0 -18.5,-8.95431 -18.5,-20z" data-paper-data="{&quot;origPos&quot;:null}" fill="#00ff08" stroke="none" stroke-width="0" stroke-linecap="butt" transform="matrix(1,0,0,1,3.50438,-19)"/><path d="M 267.1908 87.4 C 267.1908 87.4 264.5908 93.634 264.5908 96.6 C 264.5908 102.1648 269.5573 111.4864 270.0357 117.0306 C 270.6282 123.8961 267.1908 128.4 267.1908 128.4 " data-paper-data="{&quot;origPos&quot;:null,&quot;index&quot;:null}" fill="none" stroke="#000000" stroke-width="2.5" stroke-linecap="round"/><path d="M247,88c0,-11.04569 8.28273,-20 18.5,-20c10.21727,0 18.5,8.95431 18.5,20c0,11.04569 -8.28273,20 -18.5,20c-10.21727,0 -18.5,-8.95431 -18.5,-20z" data-paper-data="{&quot;origPos&quot;:null}" fill="#0035ff" stroke="none" stroke-width="0" stroke-linecap="butt" transform="matrix(1,0,0,1,3.50438,-19)"/><path d="M 139.5044 92.4 C 139.5044 92.4 136.067 87.8961 136.6595 81.0306 C 137.1379 75.4864 142.1044 66.1648 142.1044 60.6 C 142.1044 57.634 139.5044 51.4 139.5044 51.4 " data-paper-data="{&quot;origPos&quot;:null}" fill="none" stroke="#000000" stroke-width="2.5" stroke-linecap="round"/><path d="M119,52c0,-11.04569 8.28273,-20 18.5,-20c10.21727,0 18.5,8.95431 18.5,20c0,11.04569 -8.28273,20 -18.5,20c-10.21727,0 -18.5,-8.95431 -18.5,-20z" data-paper-data="{&quot;origPos&quot;:null}" fill="#ffab00" stroke="none" stroke-width="0" stroke-linecap="butt" transform="matrix(1,0,0,1,3.50438,-19)"/><path d="M 419.5044 79.4 C 419.5044 79.4 416.067 74.8961 416.6595 68.0307 C 417.1379 62.4864 422.1044 53.1648 422.1044 47.6 C 422.1044 44.634 419.5044 38.4 419.5044 38.4 " data-paper-data="{&quot;origPos&quot;:null}" fill="none" stroke="#000000" stroke-width="2.5" stroke-linecap="round"/><path d="M399,39c0,-11.0457 8.28273,-20 18.5,-20c10.21727,0 18.5,8.9543 18.5,20c0,11.04569 -8.28273,20 -18.5,20c-10.21727,0 -18.5,-8.95431 -18.5,-20z" data-paper-data="{&quot;origPos&quot;:null}" fill="#de00ff" stroke="none" stroke-width="0" stroke-linecap="butt" transform="matrix(1,0,0,1,3.50438,-19)"/></g></g></svg>