<svg xmlns="http://www.w3.org/2000/svg" xmlns:xlink="http://www.w3.org/1999/xlink" version="1.1" width="63.92259979248047" height="157.9062957763672" viewBox="-0.5 -0.5 63.92259979248047 157.9062957763672"><defs><radialGradient cx="257.5" cy="178.00006" r="27.125" gradientUnits="userSpaceOnUse" id="color-1"><stop offset="0" stop-color="#ffaa83"/><stop offset="1" stop-color="#ff6549"/></radialGradient><radialGradient cx="231.33333" cy="111.00005" r="16.29163" gradientUnits="userSpaceOnUse" id="color-2"><stop offset="0" stop-color="#bea792"/><stop offset="1" stop-color="#bea792" stop-opacity="0"/></radialGradient><radialGradient cx="41.231" cy="89.177" r="27.125" gradientUnits="userSpaceOnUse" id="color-1-,0,0,1,-216.26903,-88.82303"><stop offset="0" stop-color="#ffaa83"/><stop offset="1" stop-color="#ff6549"/></radialGradient></defs><g><g data-paper-data="{&quot;isPaintingLayer&quot;:true}" fill-rule="nonzero" stroke-linejoin="miter" stroke-miterlimit="10" stroke-dasharray="" stroke-dashoffset="0" style="mix-blend-mode: normal"><g><path d="M 41.481 111.927 C 39.7685 111.927 36.5317 111.1062 36.5317 111.1062 L 36.5396 110.927 L 35.9832 109.5428 L 36.4146 108.302 L 34.4146 106.302 C 34.4146 106.302 32.3927 104.927 30.9146 104.927 C 30.0825 104.927 29.3691 105.4351 29.0678 106.1579 C 24.3833 101.192 21.3678 93.4715 21.231 84.802 C 20.9135 64.6839 34.2039 59.4812 34.2039 59.4812 L 37.5638 61.5638 L 41.2095 58.6956 C 41.2095 58.6956 41.9376 58.8648 42.3267 58.8648 C 43.2382 58.8648 44.0737 58.5397 44.7235 57.999 C 53.8671 59.8371 60.9628 69.3655 61.6726 81.9258 C 60.6522 82.2407 59.9107 85.1151 59.9107 85.1151 C 59.9107 85.1151 60.6329 87.7645 61.6327 88.0916 C 60.6246 101.8097 51.9872 111.927 41.481 111.927 Z " data-paper-data="{&quot;origPos&quot;:null}" fill="url(#color-1-,0,0,1,-216.26903,-88.82303)" stroke="#c23e2f" stroke-width="2.5" stroke-linecap="butt"/><path d="M 25.3453 49.4404 L 25.3453 116.7375 L 13.2976 155.6563 " data-paper-data="{&quot;origPos&quot;:null}" fill="none" stroke="#000000" stroke-width="3.5" stroke-linecap="round"/><path d="M 38.196 155.4595 L 26.1484 115.3008 " fill="none" stroke="#000000" stroke-width="3.5" stroke-linecap="round"/><path d="M 24.0421 57.7643 L 8.3437 87.3357 " data-paper-data="{&quot;origPos&quot;:null}" fill="none" stroke="#000000" stroke-width="3.5" stroke-linecap="round"/><path d="M 26.2325 57.7643 L 41.9309 87.3357 " data-paper-data="{&quot;origPos&quot;:null,&quot;index&quot;:null}" fill="none" stroke="#000000" stroke-width="3.5" stroke-linecap="round"/><path d="M 39.481 90.677 C 39.481 90.677 38.1976 89.0891 38.2597 83.1503 C 38.3025 79.0685 39.981 77.177 39.981 77.177 " data-paper-data="{&quot;origPos&quot;:null}" fill="none" stroke="#c23e2f" stroke-width="2.5" stroke-linecap="round"/><path d="M 1.25 26.55 C 1.25 12.5772 12.5772 1.25 26.55 1.25 C 40.5228 1.25 51.85 12.5772 51.85 26.55 C 51.85 40.5228 40.5228 51.85 26.55 51.85 C 12.5772 51.85 1.25 40.5228 1.25 26.55 Z " data-paper-data="{&quot;origPos&quot;:null}" fill="#d4d4d4" stroke="#000000" stroke-width="2.5" stroke-linecap="butt"/><path d="M 43.5262 13.5548 L 36.5897 16.8405 " data-paper-data="{&quot;origPos&quot;:null}" fill="none" stroke="#000000" stroke-width="2.5" stroke-linecap="round"/><path d="M252.05554,109.34923c0,-2.66148 2.15757,-4.81905 4.81905,-4.81905c2.66148,0 4.81905,2.15757 4.81905,4.81905c0,2.66148 -2.15757,4.81905 -4.81905,4.81905c-2.66148,0 -4.81905,-2.15757 -4.81905,-4.81905z" data-paper-data="{&quot;origPos&quot;:null}" fill="#000000" stroke="none" stroke-width="0" stroke-linecap="butt" transform="matrix(1,0,0,1,-216.26903,-88.82303)"/><path d="M243.39217,113.52527c-1.18896,8.94897 -7.81213,15.45165 -14.79327,14.52413c-6.98113,-0.92751 -11.67662,-8.93399 -10.48766,-17.88296c1.18896,-8.94897 7.81213,-15.45165 14.79327,-14.52413c6.98113,0.92751 11.67662,8.93399 10.48766,17.88296z" data-paper-data="{&quot;origPos&quot;:null,&quot;origRot&quot;:0}" fill="url(#color-2)" stroke="none" stroke-width="0" stroke-linecap="butt" transform="matrix(1,0,0,1,-216.26903,-88.82303)"/><path d="M238.40157,109.34923c0,-2.66149 2.15756,-4.81905 4.81905,-4.81905c2.66149,0 4.81905,2.15756 4.81905,4.81905c0,2.66149 -2.15756,4.81905 -4.81905,4.81905c-2.66149,0 -4.81905,-2.15756 -4.81905,-4.81905z" data-paper-data="{&quot;origPos&quot;:null}" fill="#000000" stroke="none" stroke-width="0" stroke-linecap="butt" transform="matrix(1,0,0,1,-216.26903,-88.82303)"/><path d="M 31.4786 17.1706 L 22.3516 13.5198 " data-paper-data="{&quot;origPos&quot;:null}" fill="none" stroke="#000000" stroke-width="2.5" stroke-linecap="round"/><path d="M 10.5643 11.5104 C 10.5643 11.5104 12.7168 9.3531 14.3079 8.2924 C 15.4487 7.5319 17.5643 6.8437 17.5643 6.8437 " data-paper-data="{&quot;origPos&quot;:null}" fill="none" stroke="#462929" stroke-width="1.5" stroke-linecap="round"/><path d="M 45.481 73.677 L 47.317 68.5466 L 53.0968 68.2099 L 53.981 64.427 " data-paper-data="{&quot;origPos&quot;:null}" fill="none" stroke="#c23e2f" stroke-width="2" stroke-linecap="round"/><path d="M 47.231 68.427 L 43.481 66.677 " fill="none" stroke="#c23e2f" stroke-width="2" stroke-linecap="round"/><path d="M 40.4721 97.5118 L 47.481 97.927 L 49.6645 102.4074 L 48.4971 104.6787 L 49.231 109.427 " data-paper-data="{&quot;origPos&quot;:null}" fill="none" stroke="#c23e2f" stroke-width="2" stroke-linecap="round"/><path d="M 48.0986 92.936 L 47.5266 97.5118 " fill="none" stroke="#c23e2f" stroke-width="2" stroke-linecap="round"/><path d="M 49.6239 101.7064 L 53.0558 100.9438 " fill="none" stroke="#c23e2f" stroke-width="2" stroke-linecap="round"/><path d="M 35.1336 96.7492 L 30.939 87.5974 " data-paper-data="{&quot;origPos&quot;:null}" fill="none" stroke="#c23e2f" stroke-width="2" stroke-linecap="round"/><path d="M 33.4176 93.3173 L 31.511 96.1772 " data-paper-data="{&quot;origPos&quot;:null}" fill="none" stroke="#c23e2f" stroke-width="2" stroke-linecap="round"/><path d="M 31.8923 89.504 L 35.5149 88.5507 " data-paper-data="{&quot;origPos&quot;:null}" fill="none" stroke="#c23e2f" stroke-width="2" stroke-linecap="round"/><path d="M 50.3865 69.1032 L 50.9585 71.5818 " fill="none" stroke="#c23e2f" stroke-width="2" stroke-linecap="round"/><path d="M 37.9935 64.146 L 34.3709 66.0526 " fill="none" stroke="#c23e2f" stroke-width="2" stroke-linecap="round"/><path d="M 36.4682 65.29 L 37.9935 67.5779 " fill="none" stroke="#c23e2f" stroke-width="2" stroke-linecap="round"/><path d="M 12.389 12.8588 C 12.389 12.8588 14.5415 10.7015 16.1326 9.6408 C 17.2734 8.8803 19.389 8.1921 19.389 8.1921 " data-paper-data="{&quot;origPos&quot;:null}" fill="none" stroke="#462929" stroke-width="1.5" stroke-linecap="round"/><path d="M224.2245,128.07173l1.17657,-0.91511l1.24194,1.56876c0,0 -0.48234,-0.31037 -0.78982,-0.35191c-0.36558,-0.04939 -0.57489,0.25888 -0.92849,0.15376c-0.42632,-0.12674 -0.7002,-0.4555 -0.7002,-0.4555z" data-paper-data="{&quot;origPos&quot;:null}" fill="#e00000" stroke="none" stroke-width="0" stroke-linecap="butt" transform="matrix(1,0,0,1,-216.26903,-88.82303)"/><path d="M226.6099,124.31279l-1.17657,0.91512l-0.90968,-1.15149c0,0 1.03245,-0.32425 1.38605,-0.21913c0.42632,0.12674 0.7002,0.4555 0.7002,0.4555z" data-paper-data="{&quot;origPos&quot;:null,&quot;index&quot;:null}" fill="#e00000" stroke="none" stroke-width="0" stroke-linecap="butt" transform="matrix(1,0,0,1,-216.26903,-88.82303)"/><path d="M 10.8976 35.8437 L 7.231 39.0104 " data-paper-data="{&quot;origPos&quot;:null}" fill="none" stroke="#462929" stroke-width="1.5" stroke-linecap="round"/><path d="M 7.5643 35.445 L 13.731 42.7783 " data-paper-data="{&quot;origPos&quot;:null}" fill="none" stroke="#462929" stroke-width="1.5" stroke-linecap="round"/><path d="M 13.3976 38.0104 L 9.5643 41.3437 " data-paper-data="{&quot;origPos&quot;:null}" fill="none" stroke="#462929" stroke-width="1.5" stroke-linecap="round"/><path d="M225.84654,126.39099l1.06803,-0.7539c0,0 -0.02751,0.6746 0.24774,1.06454c0.21021,0.2978 0.604,0.8938 0.604,0.8938l-0.67583,0.55781z" data-paper-data="{&quot;origRot&quot;:0,&quot;origPos&quot;:null}" fill="#e00000" stroke="none" stroke-width="0" stroke-linecap="butt" transform="matrix(1,0,0,1,-216.26903,-88.82303)"/><path d="M 56.9146 91.677 L 54.0396 94.677 " fill="none" stroke="#c23e2f" stroke-width="2" stroke-linecap="round"/><path d="M 52.6646 87.052 L 53.0947 90.2911 L 52.5396 92.177 " data-paper-data="{&quot;origPos&quot;:null}" fill="none" stroke="#c23e2f" stroke-width="2" stroke-linecap="round"/></g></g></g></svg>