<svg xmlns="http://www.w3.org/2000/svg" xmlns:xlink="http://www.w3.org/1999/xlink" version="1.1" width="518.38655" height="441.23035" viewBox="0,0,518.38655,441.23035"><defs><linearGradient x1="234.43611" y1="-4.22468" x2="234.43611" y2="364.31123" gradientUnits="userSpaceOnUse" id="color-1"><stop offset="0" stop-color="#363636"/><stop offset="1" stop-color="#619aaf"/></linearGradient><radialGradient cx="338.73591" cy="256.68968" r="10.53296" gradientUnits="userSpaceOnUse" id="color-2"><stop offset="0" stop-color="#fffc66" stop-opacity="0"/><stop offset="1" stop-color="#fffc66"/></radialGradient><radialGradient cx="355.2998" cy="272.3568" r="10.533" gradientUnits="userSpaceOnUse" id="color-2-,0,0,1,16.56394,15.6671"><stop offset="0" stop-color="#fffc66" stop-opacity="0"/><stop offset="1" stop-color="#fffc66"/></radialGradient></defs><g><g data-paper-data="{&quot;isPaintingLayer&quot;:true}" fill-rule="nonzero" stroke-linejoin="miter" stroke-miterlimit="10" stroke-dasharray="" stroke-dashoffset="0" style="mix-blend-mode: normal"><g><path d="M-16.56393,364.31123v-368.53591h502v368.53591z" fill="url(#color-1)" stroke="none" stroke-width="NaN" stroke-linecap="butt" transform="matrix(1,0,0,1,16.56394,15.6671)"/><path d="M 194.3394 266.0107 C 194.3394 266.0107 182.9574 280.9579 176.3343 284.6624 C 170.0521 288.1762 155.5693 287.6957 155.5693 287.6957 " data-paper-data="{&quot;index&quot;:null}" fill="none" stroke="#000000" stroke-width="4" stroke-linecap="round"/><path d="M 261.8845 149.1593 L 244.9668 74.7578 L 261.8845 3.5 L 284.954 3.5 L 270.3433 77.9015 L 288.799 149.1593 L 272.4805 231.333 L 292.7299 292.1178 L 270.3385 395.8396 L 242.7989 397.2136 L 267.1076 296.7753 L 246.5047 231.9441 Z " data-paper-data="{&quot;origPos&quot;:null}" fill="#b9faf8" stroke="#00e6ff" stroke-width="7" stroke-linecap="butt"/><g stroke-linecap="butt"><path d="M187.76394,256.66197l-23.24935,-6.10163l2.50761,-10.06106l23.24934,6.10163z" fill="#894c00" stroke-width="0" stroke="none" transform="matrix(1,0,0,1,16.56394,15.6671)"/><path d="M173.0636,253.13676l-12.44606,-3.10268l13.42875,-58.00463l12.44607,3.10269z" data-paper-data="{&quot;origPos&quot;:null}" fill="#8a8a8a" stroke-width="0" stroke="none" transform="matrix(1,0,0,1,16.56394,15.6671)"/><path d="M185.33423,224.77274l-7.524,0.28718l6.61293,-28.82155l6.83584,3.83291z" data-paper-data="{&quot;origPos&quot;:null}" fill="#894c00" stroke-width="0" stroke="none" transform="matrix(1,0,0,1,16.56394,15.6671)"/></g><text transform="matrix(2.05661,0,0,2.05661,209.86808,240.62821)" font-size="40" xml:space="preserve" fill="#c80000" fill-rule="nonzero" stroke="#ff0000" stroke-width="1" stroke-linecap="butt" stroke-linejoin="miter" stroke-miterlimit="10" stroke-dasharray="" stroke-dashoffset="0" font-family="Serif" font-weight="normal" text-anchor="start" style="mix-blend-mode: normal"><tspan x="0" dy="0">VS</tspan></text><text transform="matrix(1.10263,0,0,1.10263,27.618049999999997,66.54721)" font-size="40" xml:space="preserve" data-paper-data="{&quot;origPos&quot;:null}" fill="#c70000" fill-rule="nonzero" stroke="#ff0000" stroke-width="2" stroke-linecap="butt" stroke-linejoin="miter" stroke-miterlimit="10" stroke-dasharray="" stroke-dashoffset="0" font-family="Serif" font-weight="normal" text-anchor="start" style="mix-blend-mode: normal"><tspan x="0" dy="0">TWO PLAYER BATTLE</tspan></text><g data-paper-data="{&quot;index&quot;:null}"><path d="M 418.1096 413.0311 L 395.0311 358.6992 L 385.1536 261.6926 " fill="none" stroke="#000000" stroke-width="4" stroke-linecap="round"/><path d="M 382.9112 416.3286 L 394.3832 356.6727 " fill="none" stroke="#000000" stroke-width="4" stroke-linecap="round"/><path d="M 383.7706 265.3427 C 363.6293 267.3935 345.6389 252.7283 343.5881 232.5869 C 341.5372 212.4455 356.2025 194.4552 376.3438 192.4043 C 396.4852 190.3535 414.4755 205.0187 416.5264 225.1601 C 418.5772 245.3015 403.912 263.2918 383.7706 265.3426 Z " fill="#d4d4d4" stroke="#000000" stroke-width="4" stroke-linecap="butt"/><path d="M 379.7052 231.1599 C 375.8687 231.5505 372.442 228.7571 372.0514 224.9207 C 371.6607 221.0842 374.4541 217.6575 378.2905 217.2669 C 382.127 216.8762 385.5537 219.6696 385.9444 223.5061 C 386.335 227.3425 383.5416 230.7692 379.7052 231.1599 Z " fill="#000000" stroke="none" stroke-width="4" stroke-linecap="butt"/><path d="M 360.0234 233.1639 C 356.1869 233.5546 352.7602 230.7612 352.3696 226.9247 C 351.9789 223.0883 354.7723 219.6616 358.6088 219.2709 C 362.4452 218.8803 365.8719 221.6737 366.2626 225.5101 C 366.6532 229.3466 363.8598 232.7733 360.0234 233.1639 Z " fill="#000000" stroke="none" stroke-width="4" stroke-linecap="butt"/><path d="M 384.637 213.7992 L 372.0166 220.4013 " fill="none" stroke="#000000" stroke-width="4" stroke-linecap="round"/><path d="M 354.0829 216.597 L 364.5639 220.3151 " fill="none" stroke="#000000" stroke-width="4" stroke-linecap="round"/><path d="M 352.3231 281.389 L 385.9595 272.7625 " data-paper-data="{&quot;index&quot;:null}" fill="none" stroke="#000000" stroke-width="4" stroke-linecap="round"/><g><path d="M 374.7114 188.3377 C 394.4445 186.3284 410.1926 184.4405 410.7683 190.0945 C 411.344 195.7485 396.3093 206.8258 376.5762 208.8351 C 356.8431 210.8443 340.6252 202.5852 340.0495 196.9312 C 339.4738 191.2772 354.9783 190.347 374.7114 188.3377 Z " data-paper-data="{&quot;origPos&quot;:null}" fill="#47270e" stroke="none" stroke-width="4" stroke-linecap="butt"/><path d="M 392.6762 197.5417 C 392.6762 197.5417 382.8124 199.839 376.4156 200.4903 C 369.7613 201.1679 359.2344 200.9468 359.2344 200.9468 L 360.7625 183.207 C 360.7625 183.207 368.7561 183.255 374.3801 182.6824 C 379.1455 182.1972 387.3839 180.4963 387.3839 180.4963 L 392.6762 197.5417 Z " data-paper-data="{&quot;origPos&quot;:null}" fill="#201206" stroke="none" stroke-width="4" stroke-linecap="butt"/><path d="M 373.8625 179.7829 C 381.2746 179.0282 387.3999 179.5622 387.5438 180.9757 C 387.6878 182.3892 381.7958 184.1469 374.3837 184.9016 C 366.9717 185.6563 360.8464 185.1223 360.7024 183.7088 C 360.5585 182.2953 366.4505 180.5376 373.8625 179.7829 Z " data-paper-data="{&quot;origPos&quot;:null}" fill="#201206" stroke="none" stroke-width="4" stroke-linecap="butt"/><path d="M 371.7261 193.0358 C 369.0799 193.3052 366.7542 191.7499 366.5314 189.5617 C 366.3086 187.3736 368.2731 185.3814 370.9193 185.1119 C 373.5654 184.8425 375.8912 186.3979 376.114 188.586 C 376.3368 190.7741 374.3723 192.7664 371.7261 193.0358 Z " data-paper-data="{&quot;origPos&quot;:null}" fill="#ffffff" stroke="none" stroke-width="4" stroke-linecap="butt"/><path d="M 369.2655 189.6572 C 368.5091 189.7342 367.8354 189.2022 367.7608 188.469 C 367.6861 187.7357 368.2387 187.0789 368.9951 187.0019 C 369.7515 186.9249 370.4252 187.4569 370.4999 188.1901 C 370.5745 188.9233 370.0219 189.5802 369.2655 189.6572 Z " data-paper-data="{&quot;origPos&quot;:null}" fill="#000000" stroke="none" stroke-width="4" stroke-linecap="butt"/><path d="M 372.6307 189.3145 C 371.8743 189.3916 371.2006 188.8596 371.1259 188.1263 C 371.0513 187.3931 371.6039 186.7362 372.3603 186.6592 C 373.1167 186.5822 373.7904 187.1142 373.8651 187.8474 C 373.9397 188.5807 373.3871 189.2375 372.6307 189.3145 Z " data-paper-data="{&quot;origPos&quot;:null}" fill="#000000" stroke="none" stroke-width="4" stroke-linecap="butt"/><path d="M 368.881 196.3652 L 368.5411 193.0271 C 368.5411 193.0271 370.5389 193.5902 371.8116 193.4606 C 372.9517 193.3445 374.7237 192.3975 374.7237 192.3975 L 375.0636 195.7357 Z " data-paper-data="{&quot;origPos&quot;:null}" fill="#ffffff" stroke="none" stroke-width="4" stroke-linecap="butt"/><path d="M 373.5962 192.9723 L 373.797 194.9448 " data-paper-data="{&quot;origPos&quot;:null}" fill="none" stroke="#000000" stroke-width="1" stroke-linecap="round"/><path d="M 369.5894 193.2269 L 369.7903 195.1995 " data-paper-data="{&quot;origPos&quot;:null}" fill="none" stroke="#000000" stroke-width="1" stroke-linecap="round"/><path d="M 371.6 193.5588 L 371.7468 195.0003 " data-paper-data="{&quot;origPos&quot;:null}" fill="none" stroke="#000000" stroke-width="1" stroke-linecap="round"/></g><path d="M 407.7999 321.1907 L 387.285 271.2439 " fill="none" stroke="#000000" stroke-width="4" stroke-linecap="round"/><g stroke-linecap="butt"><path d="M 350.9325 301.852 L 341.081 273.6948 L 351.7642 270.7 L 361.6157 298.8572 Z " data-paper-data="{&quot;origPos&quot;:null,&quot;origRot&quot;:0}" fill="#000000" stroke="none" stroke-width="4"/><path d="M 306.7408 285.4837 L 305.1445 269.806 L 350.8466 265.1525 L 352.443 280.8302 Z " fill="#000000" stroke="none" stroke-width="4"/><g><g><path d="M 358.9355 278.8398 C 356.1258 279.1259 353.6162 277.0801 353.3301 274.2704 C 353.044 271.4608 355.0898 268.9511 357.8995 268.665 C 360.7091 268.3789 363.2187 270.4248 363.5048 273.2344 C 363.7909 276.0441 361.7451 278.5537 358.9355 278.8398 Z " data-paper-data="{&quot;origPos&quot;:null}" fill="#bbb54b" stroke-width="4" stroke="none"/><path d="M 357.9318 279.0791 C 355.0847 279.369 352.5416 277.2959 352.2517 274.4488 C 351.9618 271.6017 354.0348 269.0585 356.882 268.7686 C 359.7291 268.4787 362.2722 270.5518 362.5621 273.3989 C 362.852 276.2461 360.779 278.7892 357.9318 279.0791 Z " data-paper-data="{&quot;origPos&quot;:null}" fill="#fff766" stroke-width="4" stroke="none"/><text transform="matrix(-0.20349789328019985,0.02071979561965789,0.02071979561965789,0.20349789328019985,360.54592,276.48269)" font-size="40" xml:space="preserve" data-paper-data="{&quot;origPos&quot;:null}" fill="#bbb54b" fill-rule="nonzero" stroke="none" stroke-width="8" stroke-linecap="butt" stroke-linejoin="miter" stroke-miterlimit="10" stroke-dasharray="" stroke-dashoffset="0" font-family="Sans Serif" font-weight="normal" text-anchor="start" style="mix-blend-mode: normal"><tspan x="0" dy="0">C</tspan></text></g><g><path d="M 358.9584 277.015 C 358.3901 279.1111 356.2302 280.3497 354.134 279.7814 C 352.0379 279.2131 350.7994 277.0532 351.3676 274.9571 C 351.9359 272.861 354.0958 271.6224 356.192 272.1907 C 358.2881 272.7589 359.5267 274.9189 358.9584 277.015 Z " data-paper-data="{&quot;origPos&quot;:null}" fill="#bbb54b" stroke-width="4" stroke="none"/><path d="M 358.2362 276.8735 C 357.6603 278.9976 355.4716 280.2527 353.3475 279.6768 C 351.2235 279.101 349.9684 276.9122 350.5442 274.7882 C 351.1201 272.6641 353.3088 271.409 355.4329 271.9849 C 357.557 272.5607 358.8121 274.7495 358.2362 276.8735 Z " data-paper-data="{&quot;origPos&quot;:null}" fill="#fff766" stroke-width="4" stroke="none"/><text transform="matrix(-0.15182982126417993,-0.04115994988926945,-0.04115994988926945,0.15182982126417993,355.93941,278.53249)" font-size="40" xml:space="preserve" data-paper-data="{&quot;origPos&quot;:null}" fill="#bbb54b" fill-rule="nonzero" stroke="none" stroke-width="8" stroke-linecap="butt" stroke-linejoin="miter" stroke-miterlimit="10" stroke-dasharray="" stroke-dashoffset="0" font-family="Sans Serif" font-weight="normal" text-anchor="start" style="mix-blend-mode: normal"><tspan x="0" dy="0">C</tspan></text></g><g><path d="M 357.1626 273.1356 C 357.6479 275.5493 356.0847 277.8994 353.671 278.3848 C 351.2572 278.8702 348.9071 277.307 348.4217 274.8932 C 347.9363 272.4795 349.4995 270.1293 351.9133 269.644 C 354.327 269.1586 356.6771 270.7218 357.1625 273.1356 Z " data-paper-data="{&quot;origPos&quot;:null}" fill="#bbb54b" stroke-width="4" stroke="none"/><path d="M 356.3584 273.3579 C 356.8502 275.8038 355.2662 278.1853 352.8203 278.6772 C 350.3744 279.169 347.9929 277.5849 347.501 275.139 C 347.0092 272.6931 348.5933 270.3116 351.0392 269.8198 C 353.4851 269.3279 355.8666 270.912 356.3584 273.3579 Z " data-paper-data="{&quot;origPos&quot;:null}" fill="#fff766" stroke-width="4" stroke="none"/><text transform="matrix(-0.17481206150368234,0.035145401588725415,0.035145401588725415,0.17481206150368234,354.86931,276.20375)" font-size="40" xml:space="preserve" data-paper-data="{&quot;origPos&quot;:null}" fill="#bbb54b" fill-rule="nonzero" stroke="none" stroke-width="8" stroke-linecap="butt" stroke-linejoin="miter" stroke-miterlimit="10" stroke-dasharray="" stroke-dashoffset="0" font-family="Sans Serif" font-weight="normal" text-anchor="start" style="mix-blend-mode: normal"><tspan x="0" dy="0">C</tspan></text></g><g><path d="M 362.1068 276.5657 C 361.2679 278.8805 358.7115 280.0769 356.3968 279.2381 C 354.082 278.3993 352.8856 275.8428 353.7244 273.5281 C 354.5632 271.2134 357.1197 270.0169 359.4344 270.8558 C 361.7491 271.6946 362.9456 274.251 362.1068 276.5658 Z " data-paper-data="{&quot;origPos&quot;:null}" fill="#bbb54b" stroke-width="4" stroke="none"/><path d="M 361.3042 276.3381 C 360.4542 278.6837 357.8636 279.8962 355.518 279.0462 C 353.1724 278.1962 351.96 275.6056 352.81 273.26 C 353.66 270.9144 356.2505 269.702 358.5962 270.552 C 360.9418 271.402 362.1542 273.9926 361.3042 276.3382 Z " data-paper-data="{&quot;origPos&quot;:null}" fill="#fff766" stroke-width="4" stroke="none"/><text transform="matrix(-0.167649263650514,-0.06075974652218725,-0.06075974652218725,0.167649263650514,358.55363,277.99667)" font-size="40" xml:space="preserve" data-paper-data="{&quot;origPos&quot;:null}" fill="#bbb54b" fill-rule="nonzero" stroke="none" stroke-width="8" stroke-linecap="butt" stroke-linejoin="miter" stroke-miterlimit="10" stroke-dasharray="" stroke-dashoffset="0" font-family="Sans Serif" font-weight="normal" text-anchor="start" style="mix-blend-mode: normal"><tspan x="0" dy="0">C</tspan></text></g><g><path d="M 356.6485 279.3556 C 354.4448 280.4536 351.7683 279.5572 350.6704 277.3535 C 349.5725 275.1499 350.4689 272.4734 352.6725 271.3754 C 354.8762 270.2775 357.5526 271.1739 358.6506 273.3775 C 359.7485 275.5812 358.8521 278.2577 356.6485 279.3556 Z " data-paper-data="{&quot;origPos&quot;:null}" fill="#bbb54b" stroke-width="4" stroke="none"/><path d="M 357.9323 273.8019 C 359.0449 276.0349 358.1366 278.7471 355.9035 279.8597 C 353.6705 280.9722 350.9583 280.0639 349.8457 277.8309 C 348.7331 275.5978 349.6415 272.8856 351.8745 271.7731 C 354.1076 270.6605 356.8197 271.5688 357.9323 273.8019 Z " data-paper-data="{&quot;origPos&quot;:null}" fill="#fff766" stroke-width="4" stroke="none"/><text transform="matrix(-0.1596080878618555,0.07951905865314438,0.07951905865314438,0.1596080878618555,357.23674,276.93754)" font-size="40" xml:space="preserve" data-paper-data="{&quot;origPos&quot;:null}" fill="#bbb54b" fill-rule="nonzero" stroke="none" stroke-width="8" stroke-linecap="butt" stroke-linejoin="miter" stroke-miterlimit="10" stroke-dasharray="" stroke-dashoffset="0" font-family="Sans Serif" font-weight="normal" text-anchor="start" style="mix-blend-mode: normal"><tspan x="0" dy="0">C</tspan></text></g><g><path d="M 362.6837 269.0803 C 363.7817 271.284 362.8853 273.9604 360.6816 275.0584 C 358.4779 276.1563 355.8015 275.2599 354.7035 273.0563 C 353.6056 270.8526 354.502 268.1761 356.7057 267.0782 C 358.9093 265.9802 361.5858 266.8766 362.6837 269.0803 Z " data-paper-data="{&quot;origPos&quot;:null}" fill="#bbb54b" stroke-width="4" stroke="none"/><path d="M 361.9654 269.5045 C 363.078 271.7376 362.1697 274.4498 359.9366 275.5623 C 357.7036 276.6749 354.9914 275.7666 353.8788 273.5335 C 352.7662 271.3005 353.6746 268.5883 355.9076 267.4757 C 358.1407 266.3632 360.8528 267.2715 361.9654 269.5045 Z " data-paper-data="{&quot;origPos&quot;:null}" fill="#fff766" stroke-width="4" stroke="none"/><text transform="matrix(-0.1596080878618555,0.07951905865314438,0.07951905865314438,0.1596080878618555,361.26985,272.64022)" font-size="40" xml:space="preserve" data-paper-data="{&quot;origPos&quot;:null}" fill="#bbb54b" fill-rule="nonzero" stroke="none" stroke-width="8" stroke-linecap="butt" stroke-linejoin="miter" stroke-miterlimit="10" stroke-dasharray="" stroke-dashoffset="0" font-family="Sans Serif" font-weight="normal" text-anchor="start" style="mix-blend-mode: normal"><tspan x="0" dy="0">C</tspan></text></g><path d="M 354.2801 262.3422 C 360.0674 261.753 365.2155 265.7589 365.7787 271.2898 C 366.3418 276.8207 362.1069 281.782 356.3196 282.3713 C 350.5323 282.9606 345.3843 278.9546 344.8211 273.4238 C 344.2579 267.8929 348.4929 262.9315 354.2801 262.3422 Z " fill="url(#color-2-,0,0,1,16.56394,15.6671)" stroke="#000000" stroke-width="4"/></g></g></g><path d="M 152.5379 272.2567 L 161.2299 377.0633 L 147.4939 439.2304 " data-paper-data="{&quot;origPos&quot;:null}" fill="none" stroke="#000000" stroke-width="4" stroke-linecap="round"/><path d="M 186.2446 435.708 L 162.2951 374.722 " fill="none" stroke="#000000" stroke-width="4" stroke-linecap="round"/><path d="M 112.0561 239.7198 C 110.2514 217.9589 126.4291 198.8553 148.1899 197.0506 C 169.9508 195.2459 189.0545 211.4235 190.8591 233.1844 C 192.6638 254.9452 176.4862 274.0489 154.7253 275.8536 C 132.9645 277.6583 113.8608 261.4806 112.0561 239.7198 Z " data-paper-data="{&quot;origPos&quot;:null}" fill="#d4d4d4" stroke="#000000" stroke-width="4" stroke-linecap="butt"/><path d="M127.23605,211.97423c-0.34376,-4.14493 2.7377,-7.78372 6.88263,-8.12748c4.14493,-0.34375 7.78372,2.73771 8.12748,6.88264c0.34375,4.14493 -2.73771,7.78372 -6.88263,8.12748c-4.14493,0.34375 -7.78372,-2.73771 -8.12747,-6.88264z" data-paper-data="{&quot;origPos&quot;:null}" fill="#000000" stroke="none" stroke-width="0" stroke-linecap="butt" transform="matrix(1,0,0,1,16.56394,15.6671)"/><path d="M148.50036,211.71071c-0.34375,-4.14491 2.73772,-7.78372 6.88263,-8.12748c4.14491,-0.34375 7.78372,2.73773 8.12748,6.88264c0.34375,4.14491 -2.73772,7.78372 -6.88263,8.12747c-4.14491,0.34375 -7.78372,-2.73772 -8.12748,-6.88263z" data-paper-data="{&quot;origPos&quot;:null}" fill="#000000" stroke="none" stroke-width="0" stroke-linecap="butt" transform="matrix(1,0,0,1,16.56394,15.6671)"/><path d="M 157.9218 221.7083 L 143.7362 216.7015 " data-paper-data="{&quot;origPos&quot;:null}" fill="none" stroke="#000000" stroke-width="4" stroke-linecap="round"/><path d="M 175.7174 215.5211 L 165.8391 221.534 " data-paper-data="{&quot;origPos&quot;:null}" fill="none" stroke="#000000" stroke-width="4" stroke-linecap="round"/><path d="M 195.0028 315.7108 C 195.0028 315.7108 176.3299 319.5992 169.1111 314.5579 C 161.8569 309.4918 151.5835 285.3883 151.5835 285.3883 " data-paper-data="{&quot;origPos&quot;:null}" fill="none" stroke="#000000" stroke-width="4" stroke-linecap="round"/><g><path d="M169.88526,179.33692c0.50661,6.10863 -15.0574,18.06981 -36.37715,19.83792c-21.31973,1.76812 -39.44939,-7.00669 -39.95599,-13.11533c-0.5066,-6.10863 16.56396,-7.21816 37.8837,-8.98628c21.31973,-1.76812 37.94284,-3.84495 38.44944,2.26369z" data-paper-data="{&quot;origPos&quot;:null}" fill="#47270e" stroke="none" stroke-width="0" stroke-linecap="butt" transform="matrix(1,0,0,1,16.56394,15.6671)"/><path d="M114.20629,190.38133l2.24381,-19.11854c0,0 9.07119,0.17575 14.2197,-0.25124c6.07619,-0.50392 14.54222,-2.13409 14.54222,-2.13409l5.12495,18.50742c0,0 -11.11785,2.31413 -18.30722,2.91038c-6.91109,0.57316 -17.82346,0.08606 -17.82346,0.08606z" data-paper-data="{&quot;origPos&quot;:null}" fill="#201206" stroke="none" stroke-width="0" stroke-linecap="butt" transform="matrix(1,0,0,1,16.56394,15.6671)"/><path d="M145.37488,169.3976c0.12665,1.52715 -6.26245,3.30355 -14.27048,3.96769c-8.00803,0.66413 -14.60248,-0.03549 -14.72913,-1.56264c-0.12665,-1.52715 6.26245,-3.30355 14.27048,-3.96768c8.00803,-0.66413 14.60248,0.03548 14.72913,1.56264z" data-paper-data="{&quot;origPos&quot;:null}" fill="#201206" stroke="none" stroke-width="0" stroke-linecap="butt" transform="matrix(1,0,0,1,16.56394,15.6671)"/><path d="M129.99773,177.61365c-0.19606,-2.36406 1.96262,-4.47271 4.82155,-4.70981c2.85893,-0.2371 5.33549,1.48714 5.53154,3.85119c0.19606,2.36406 -1.96262,4.47271 -4.82155,4.70981c-2.85893,0.2371 -5.33549,-1.48714 -5.53154,-3.85119z" data-paper-data="{&quot;origPos&quot;:null}" fill="#ffffff" stroke="none" stroke-width="0" stroke-linecap="butt" transform="matrix(1,0,0,1,16.56394,15.6671)"/><path d="M135.8721,176.08471c-0.0657,-0.7922 0.54351,-1.48935 1.36071,-1.55713c0.8172,-0.06777 1.53295,0.5195 1.59865,1.3117c0.0657,0.7922 -0.54351,1.48935 -1.36071,1.55713c-0.8172,0.06777 -1.53294,-0.5195 -1.59864,-1.3117z" data-paper-data="{&quot;origPos&quot;:null}" fill="#000000" stroke="none" stroke-width="0" stroke-linecap="butt" transform="matrix(1,0,0,1,16.56394,15.6671)"/><path d="M132.2363,176.38624c-0.0657,-0.7922 0.54353,-1.48936 1.36073,-1.55713c0.8172,-0.06777 1.53294,0.5195 1.59864,1.3117c0.0657,0.7922 -0.54351,1.48936 -1.36071,1.55714c-0.8172,0.06777 -1.53295,-0.5195 -1.59865,-1.3117z" data-paper-data="{&quot;origPos&quot;:null}" fill="#000000" stroke="none" stroke-width="0" stroke-linecap="butt" transform="matrix(1,0,0,1,16.56394,15.6671)"/><path d="M132.52391,184.98685l-0.2991,-3.60654c0,0 2.06591,0.65398 3.29773,0.55182c1.37503,-0.11404 3.38199,-1.10579 3.38199,-1.10579l0.2991,3.60654z" data-paper-data="{&quot;origPos&quot;:null}" fill="#ffffff" stroke="none" stroke-width="0" stroke-linecap="butt" transform="matrix(1,0,0,1,16.56394,15.6671)"/><path d="M 150.2746 199.5652 L 150.0978 197.434 " data-paper-data="{&quot;origPos&quot;:null}" fill="none" stroke="#000000" stroke-width="0.5" stroke-linecap="round"/><path d="M 154.5732 199.0436 L 154.3965 196.9125 " data-paper-data="{&quot;origPos&quot;:null}" fill="none" stroke="#000000" stroke-width="0.5" stroke-linecap="round"/><path d="M 152.4594 199.2189 L 152.3302 197.6615 " data-paper-data="{&quot;origPos&quot;:null}" fill="none" stroke="#000000" stroke-width="0.5" stroke-linecap="round"/></g><g><path d="M 64.2492 205.4283 L 60.2495 331.4049 L 35.3839 403.5427 " data-paper-data="{&quot;origPos&quot;:null}" fill="none" stroke="#000000" stroke-width="4" stroke-linecap="round"/><path d="M 82.0041 404.6541 L 61.8384 328.7631 " fill="none" stroke="#000000" stroke-width="4" stroke-linecap="round"/><path d="M 20.5047 161.1465 C 21.3352 134.9902 43.2123 114.4595 69.3686 115.29 C 95.525 116.1204 116.0557 137.9976 115.2252 164.1539 C 114.3948 190.3102 92.5176 210.8409 66.3613 210.0105 C 40.2049 209.18 19.6742 187.3029 20.5047 161.1465 Z " data-paper-data="{&quot;origPos&quot;:null}" fill="#d4d4d4" stroke="#000000" stroke-width="4" stroke-linecap="butt"/><path d="M 59.8537 154.2633 C 60.0118 149.2811 64.1789 145.3705 69.1611 145.5287 C 74.1433 145.6869 78.0539 149.854 77.8957 154.8361 C 77.7375 159.8183 73.5704 163.7289 68.5883 163.5707 C 63.6061 163.4126 59.6955 159.2455 59.8537 154.2633 Z " data-paper-data="{&quot;origPos&quot;:null}" fill="#000000" stroke="none" stroke-width="4" stroke-linecap="butt"/><path d="M 85.4274 154.6245 C 85.5856 149.6424 89.7527 145.7318 94.7348 145.89 C 99.717 146.0481 103.6276 150.2152 103.4694 155.1974 C 103.3112 160.1795 99.1441 164.0901 94.162 163.932 C 89.1798 163.7738 85.2692 159.6067 85.4274 154.6245 Z " data-paper-data="{&quot;origPos&quot;:null}" fill="#000000" stroke="none" stroke-width="4" stroke-linecap="butt"/><path d="M 61.1017 142.0757 L 77.97 149.4522 " fill="none" stroke="#000000" stroke-width="4" stroke-linecap="round"/><path d="M 65.3581 221.536 C 65.3581 221.536 77.5803 219.5075 83.7338 219.6805 C 90.255 219.8639 103.446 222.6072 103.446 222.6072 " data-paper-data="{&quot;index&quot;:null}" fill="none" stroke="#000000" stroke-width="4" stroke-linecap="round"/><path d="M 102.0885 231.5508 C 102.0885 231.5508 88.873 233.4557 82.4139 233.227 C 76.3189 233.0111 64.3625 230.2149 64.3625 230.2149 " data-paper-data="{&quot;index&quot;:null}" fill="none" stroke="#000000" stroke-width="4" stroke-linecap="round"/><g><path d="M 104.6716 230.4559 L 104.9019 223.2029 L 108.1432 223.3058 L 107.9129 230.5588 Z " data-paper-data="{&quot;origPos&quot;:null}" fill="#b6b6b6" stroke="none" stroke-linecap="butt" stroke-width="4"/><path d="M 103.501 220.2298 L 103.532 217.5574 L 108.136 214.2827 L 143.87 215.4173 L 143.6767 221.5053 Z " data-paper-data="{&quot;origPos&quot;:null}" fill="#b6b6b6" stroke="none" stroke-linecap="butt" stroke-width="4"/><path d="M 107.426 226.0657 L 107.7642 215.4117 L 121.8577 215.8591 L 121.5195 226.5132 Z " data-paper-data="{&quot;origPos&quot;:null}" fill="#b6b6b6" stroke="none" stroke-linecap="butt" stroke-width="4"/><path d="M 112.952 224.0973 C 112.952 224.0973 111.6559 227.3751 110.6324 228.3117 C 109.6273 229.2317 107.7539 228.8545 107.7539 228.8545 " data-paper-data="{&quot;origPos&quot;:null}" fill="none" stroke="#b6b6b6" stroke-linecap="round" stroke-width="4"/><path d="M 108.4111 217.1729 C 108.4111 217.1729 106.6167 217.8596 105.5827 217.1388 C 104.53 216.4048 103.0642 213.4452 103.0642 213.4452 " data-paper-data="{&quot;origPos&quot;:null,&quot;origRot&quot;:0,&quot;index&quot;:null}" fill="none" stroke="#b6b6b6" stroke-linecap="round" stroke-width="4"/><path d="M 110.6917 224.1349 C 110.6917 224.1349 110.3608 221.5805 110.4124 219.9539 C 110.4664 218.2541 110.9623 215.6116 110.9623 215.6116 L 119.8458 215.8937 C 119.8458 215.8937 120.1044 218.5601 120.0505 220.2599 C 119.9988 221.8865 119.5752 224.417 119.5752 224.417 Z " data-paper-data="{&quot;origPos&quot;:null}" fill="#7c7c7c" stroke="none" stroke-linecap="butt" stroke-width="4"/><path d="M 97.7615 235.64 C 97.7615 235.64 97.4825 229.8829 98.5216 226.0005 C 99.4825 222.4104 102.8863 216.4925 102.8863 216.4925 L 103.9441 216.5996 L 109.4999 220.8727 C 109.4999 220.8727 106.2045 225.0958 105.288 228.388 C 104.5696 230.9686 105.3107 235.9209 105.3107 235.9209 Z " data-paper-data="{&quot;origPos&quot;:null,&quot;origRot&quot;:0}" fill="#a04900" stroke="none" stroke-linecap="butt" stroke-width="4"/><path d="M 134.2656 216.4738 L 138.4424 212.3921 L 140.2645 212.4452 L 140.1307 216.66 Z " data-paper-data="{&quot;origPos&quot;:null}" fill="#b6b6b6" stroke="none" stroke-linecap="butt" stroke-width="4"/></g><path d="M 107.7712 137.2901 C 107.6891 139.8747 105.5991 141.9057 103.103 141.8264 C 101.0586 141.7615 99.3759 140.3012 98.8789 138.3548 L 96.2414 139.8044 L 95.9323 139.1996 L 94.8688 140.2871 C 91.2482 139.8419 87.7073 139.1091 84.2027 138.2663 C 81.7237 138.4835 79.0931 138.4004 76.0928 138.5768 C 64.0473 139.285 48.6059 135.3892 36.8098 139.6809 L 33.7883 141.3416 C 33.3977 141.566 32.9721 141.7322 32.523 141.8292 L 31.2783 142.7635 C 31.2783 142.7635 27.5735 145.4566 24.9807 141.6266 C 22.3878 137.7966 26.0926 135.1035 26.0926 135.1035 L 28.6575 133.279 L 30.1765 130.7218 L 30.3362 130.8233 C 30.4677 130.5178 30.6126 130.2177 30.7732 129.9241 C 32.0874 127.521 34.8499 126.0585 37.8783 125.1405 C 43.1407 122.0752 48.6335 118.2908 54.1974 116.3586 C 65.3588 112.4825 76.9169 116.7837 87.6062 119.6164 C 90.8233 120.4689 93.9641 121.6428 97.0223 122.9804 C 99.2657 123.9616 102.7009 123.6867 103.7335 125.9703 C 105.0465 128.8742 105.4796 131.1597 105.2525 132.942 C 106.7945 133.7272 107.8313 135.3943 107.7711 137.2901 Z " fill="#000000" stroke="none" stroke-width="4" stroke-linecap="butt"/><path d="M 35.1924 126.0835 L 22.0644 109.6428 " fill="none" stroke="#000000" stroke-width="4" stroke-linecap="round"/><path d="M 18.0554 123.759 L 28.5013 131.2124 " fill="none" stroke="#000000" stroke-width="4" stroke-linecap="round"/><path d="M 100.2729 143.8355 L 87.0928 149.5739 " data-paper-data="{&quot;origPos&quot;:null}" fill="none" stroke="#000000" stroke-width="4" stroke-linecap="round"/><g><path d="M 63.8127 122.3733 C 63.9258 118.812 67.5088 116.0358 71.8155 116.1726 C 76.1223 116.3093 79.522 119.3071 79.4089 122.8684 C 79.2958 126.4297 75.7128 129.2059 71.4061 129.0691 C 67.0993 128.9324 63.6996 125.9346 63.8127 122.3733 Z " data-paper-data="{&quot;origPos&quot;:null}" fill="#ffffff" stroke="none" stroke-width="4" stroke-linecap="butt"/><path d="M 72.8408 121.0997 C 72.8787 119.9063 73.9074 118.9706 75.1385 119.0096 C 76.3695 119.0487 77.3368 120.0479 77.2989 121.2413 C 77.261 122.4347 76.2323 123.3704 75.0012 123.3313 C 73.7702 123.2922 72.8029 122.2931 72.8408 121.0997 Z " data-paper-data="{&quot;origPos&quot;:null}" fill="#000000" stroke="none" stroke-width="4" stroke-linecap="butt"/><path d="M 67.3637 120.9258 C 67.4016 119.7324 68.4303 118.7966 69.6613 118.8357 C 70.8924 118.8748 71.8596 119.874 71.8217 121.0674 C 71.7839 122.2608 70.7552 123.1965 69.5241 123.1574 C 68.2931 123.1183 67.3258 122.1192 67.3637 120.9258 Z " data-paper-data="{&quot;origPos&quot;:null}" fill="#000000" stroke="none" stroke-width="4" stroke-linecap="butt"/><path d="M 66.3172 133.809 L 66.4897 128.376 C 66.4897 128.376 69.4602 129.7063 71.3159 129.7653 C 73.3873 129.831 76.5522 128.6955 76.5522 128.6955 L 76.3797 134.1285 Z " data-paper-data="{&quot;origPos&quot;:null}" fill="#ffffff" stroke="none" stroke-width="4" stroke-linecap="butt"/><path d="M 68.3767 129.1775 L 68.2748 132.3879 " data-paper-data="{&quot;origPos&quot;:null}" fill="none" stroke="#000000" stroke-width="1" stroke-linecap="round"/><path d="M 74.8807 129.1368 L 74.7788 132.3472 " data-paper-data="{&quot;origPos&quot;:null}" fill="none" stroke="#000000" stroke-width="1" stroke-linecap="round"/><path d="M 71.5944 132.2461 L 71.6689 129.9 " data-paper-data="{&quot;origPos&quot;:null}" fill="none" stroke="#000000" stroke-width="1" stroke-linecap="round"/></g></g><path d="M 516.3866 371.1623 L 483.3828 304.9488 L 463.6476 184.3455 " fill="none" stroke="#000000" stroke-width="4" stroke-linecap="round"/><path d="M 471.7083 378.1112 L 481.5222 302.6096 " fill="none" stroke="#000000" stroke-width="4" stroke-linecap="round"/><path d="M 462.1952 189.017 C 437.1545 193.1146 413.5332 176.1368 409.4356 151.0961 C 405.338 126.0554 422.3157 102.4342 447.3564 98.3366 C 472.3971 94.239 496.0184 111.2167 500.116 136.2574 C 504.2136 161.2981 487.2359 184.9194 462.1952 189.017 Z " fill="#d4d4d4" stroke="#000000" stroke-width="4" stroke-linecap="butt"/><path d="M412.66953,129.97251c-4.76965,0.7805 -9.26896,-2.45338 -10.04945,-7.22303c-0.78049,-4.76964 2.45337,-9.26895 7.22302,-10.04944c4.76965,-0.7805 9.26896,2.45337 10.04945,7.22302c0.78049,4.76964 -2.45337,9.26896 -7.22302,10.04945z" fill="#000000" stroke="none" stroke-width="0" stroke-linecap="butt" transform="matrix(1,0,0,1,16.56394,15.6671)"/><path d="M 433.9363 129.2205 L 420.5418 125.3663 " fill="none" stroke="#000000" stroke-width="2.5" stroke-linecap="round"/><path d="M 505.2292 247.2719 L 468.424 198.8805 " fill="none" stroke="#000000" stroke-width="4" stroke-linecap="round"/><path d="M 492.3621 94.6858 C 495.139 92.4452 497.6071 94.7206 497.6071 94.7206 L 500.553 97.9978 C 500.8302 99.9 502.22 101.8769 501.3846 103.7045 C 500.6308 105.3534 498.0947 105.884 496.4498 106.9738 C 496.4498 106.9738 493.1847 108.6387 491.4122 105.9137 C 489.6397 103.1886 492.9048 101.5236 492.9048 101.5236 C 493.4675 101.4877 494.4729 101.8931 494.5927 101.4158 C 494.756 100.7658 493.7526 100.352 493.3325 99.8202 L 492.0533 99.2019 C 492.0533 99.2019 489.5852 96.9265 492.3621 94.6858 Z " fill="#47270e" stroke="none" stroke-width="0.5" stroke-linecap="butt"/><path d="M380.22563,98.77198c-1.15026,-7.02935 16.43319,-21.70098 45.21684,-26.41107c28.78368,-4.7101 56.80684,2.9586 57.95711,9.98794c1.15026,7.02935 -24.88178,8.06119 -53.66543,12.77129c-28.78368,4.7101 -48.35823,10.68119 -49.5085,3.65184z" fill="#3b200c" stroke="none" stroke-width="0" stroke-linecap="butt" transform="matrix(1,0,0,1,16.56394,15.6671)"/><path d="M 427.8373 101.9833 L 491.3267 169.4912 " fill="none" stroke="#000000" stroke-width="2.5" stroke-linecap="round"/><path d="M 398.2548 111.8075 C 398.2548 111.8075 399.8689 108.8641 403.2151 110.1028 C 406.5613 111.3414 404.9473 114.2849 404.9473 114.2849 L 403.9319 115.2786 C 403.7032 115.9166 402.8841 116.6286 403.2459 117.1927 C 403.5117 117.6069 404.3355 116.9022 404.8802 116.7569 C 404.8802 116.7569 408.5057 117.2943 407.6943 120.4422 C 406.8828 123.5901 403.2573 123.0527 403.2573 123.0527 C 401.3509 122.5441 398.7779 122.8495 397.5379 121.5269 C 396.1635 120.0609 396.8508 117.7441 396.5072 115.8528 L 398.2549 111.8076 Z " data-paper-data="{&quot;index&quot;:null}" fill="#47270e" stroke="none" stroke-width="0.5" stroke-linecap="butt"/><path d="M380.39214,102.33725c-1.53564,-9.38435 14.29913,-34.74235 43.08278,-39.45245c28.78368,-4.7101 58.58009,13.79507 60.11573,23.17942c1.53564,9.38437 -24.66875,9.36296 -53.4524,14.07305c-28.78368,4.7101 -48.21044,11.58434 -49.74608,2.19999z" fill="#47270e" stroke="none" stroke-width="0" stroke-linecap="butt" transform="matrix(1,0,0,1,16.56394,15.6671)"/><g><path d="M424.70148,89.79394c-7.2196,1.1814 -13.82117,-2.43764 -14.74503,-8.08337c-0.92386,-5.64571 4.17985,-11.18019 11.39946,-12.36159c7.2196,-1.1814 13.82116,2.43764 14.74502,8.08337c0.92386,5.64571 -4.17983,11.18019 -11.39945,12.36159z" data-paper-data="{&quot;origPos&quot;:null}" fill="#ffffff" stroke="none" stroke-width="0" stroke-linecap="butt" transform="matrix(1,0,0,1,16.56394,15.6671)"/><path d="M417.46946,81.46147c-2.06366,0.33769 -3.98756,-0.92226 -4.29715,-2.81416c-0.30959,-1.89189 1.11237,-3.69936 3.17603,-4.03706c2.06368,-0.33769 3.98758,0.92225 4.29717,2.81415c0.30959,1.89189 -1.11238,3.69937 -3.17604,4.03706z" data-paper-data="{&quot;origPos&quot;:null}" fill="#000000" stroke="none" stroke-width="0" stroke-linecap="butt" transform="matrix(1,0,0,1,16.56394,15.6671)"/><path d="M426.65085,79.95904c-2.06368,0.33769 -3.98758,-0.92225 -4.29717,-2.81415c-0.30959,-1.89189 1.11239,-3.69936 3.17605,-4.03705c2.06365,-0.33769 3.98758,0.92225 4.29717,2.81415c0.30959,1.89189 -1.11239,3.69936 -3.17605,4.03705z" data-paper-data="{&quot;origPos&quot;:null}" fill="#000000" stroke="none" stroke-width="0" stroke-linecap="butt" transform="matrix(1,0,0,1,16.56394,15.6671)"/><path d="M417.37367,98.96338l-1.40941,-8.61298c0,0 5.56009,1.10009 9.03245,0.53188c3.1107,-0.50903 7.83572,-3.29215 7.83572,-3.29215l1.4094,8.61297z" data-paper-data="{&quot;origPos&quot;:null}" fill="#ffffff" stroke="none" stroke-width="0" stroke-linecap="butt" transform="matrix(1,0,0,1,16.56394,15.6671)"/><path d="M 446.3858 104.9558 L 447.2186 110.0453 " data-paper-data="{&quot;origPos&quot;:null}" fill="none" stroke="#000000" stroke-width="0.5" stroke-linecap="round"/><path d="M 436.2649 111.4357 L 435.4321 106.3462 " data-paper-data="{&quot;origPos&quot;:null}" fill="none" stroke="#000000" stroke-width="0.5" stroke-linecap="round"/><path d="M 441.6029 110.5622 L 440.9943 106.843 " data-paper-data="{&quot;origPos&quot;:null}" fill="none" stroke="#000000" stroke-width="0.5" stroke-linecap="round"/></g><path d="M439.38745,125.97001c-5.67694,0.92896 -11.03207,-2.92001 -11.96103,-8.59695c-0.92896,-5.67692 2.92003,-11.03206 8.59697,-11.96101c5.67694,-0.92896 11.03206,2.92002 11.96102,8.59695c0.92896,5.67692 -2.92002,11.03205 -8.59696,11.96101z" fill="#000000" stroke="none" stroke-width="0" stroke-linecap="butt" transform="matrix(1,0,0,1,16.56394,15.6671)"/><path d="M 398.0373 177.1216 C 398.0373 177.1216 421.5297 180.8714 432.7682 184.6595 C 443.6734 188.3351 464.4985 199.5229 464.4985 199.5229 " data-paper-data="{&quot;index&quot;:null}" fill="none" stroke="#000000" stroke-width="4" stroke-linecap="round"/><path d="M234.18728,285.57987l-0.70609,-9.89875l31.4517,-11.84916l-2.15726,6.43095l9.55561,1.68673l-6.90827,7.00662l8.61003,6.38808l-10.09909,1.7989l1.20859,6.48671z" fill="#ffa100" stroke="none" stroke-width="0" stroke-linecap="butt" transform="matrix(1,0,0,1,16.56394,15.6671)"/><g stroke-linecap="butt"><path d="M177.19068,306.82455l-1.15705,-24.00881l10.34984,-0.62743l1.15705,24.00881z" fill="#894c00" stroke-width="0" stroke="none" transform="matrix(1,0,0,1,16.56394,15.6671)"/><path d="M176.14162,291.74389l-0.77555,-12.80352l59.36098,-4.59816l0.77555,12.8035z" data-paper-data="{&quot;origPos&quot;:null}" fill="#8a8a8a" stroke-width="0" stroke="none" transform="matrix(1,0,0,1,16.56394,15.6671)"/><path d="M206.88077,294.93652l-2.53199,-7.09098l29.47761,-2.34161l-1.6047,7.67104z" data-paper-data="{&quot;origPos&quot;:null}" fill="#894c00" stroke-width="0" stroke="none" transform="matrix(1,0,0,1,16.56394,15.6671)"/></g><text transform="matrix(1.25126,0,0,1.25126,157.41664,109.41599000000001)" font-size="40" xml:space="preserve" fill="#bf9f00" fill-rule="nonzero" stroke="#ffe400" stroke-width="1.5" stroke-linecap="butt" stroke-linejoin="miter" stroke-miterlimit="10" stroke-dasharray="" stroke-dashoffset="0" font-family="Sans Serif" font-weight="normal" text-anchor="start" style="mix-blend-mode: normal"><tspan x="0" dy="0">PIRATES!</tspan></text><g><path d="M 381.0447 168.1406 C 382.1553 165.3985 387.5014 164.9763 392.9855 167.1975 C 398.4696 169.4187 402.015 173.4422 400.9044 176.1843 C 399.7938 178.9263 394.4477 179.3486 388.9636 177.1273 C 383.4795 174.9061 379.9341 170.8826 381.0447 168.1406 Z " stroke="#797979" stroke-width="2" stroke-linecap="butt" fill="none"/><g><path d="M 219.1367 183.3438 C 219.1367 183.3438 202.4697 176.6257 197.8162 158.1763 C 193.2898 140.2306 204.6016 128.0736 204.6016 128.0736 " stroke-linecap="round" stroke-width="5" fill="none" stroke="#303030"/><path d="M 247.8474 145.3505 L 195.6367 160.1246 " stroke-linecap="round" stroke-width="5" fill="none" stroke="#303030"/><path d="M 240.2098 139.6169 L 244.4451 154.584 " stroke-linecap="round" stroke-width="5" fill="none" stroke="#303030"/><path d="M 220.0916 183.0736 C 220.0916 183.0736 203.4246 176.3555 198.7712 157.9061 C 194.2447 139.9603 205.5566 127.8033 205.5566 127.8033 " stroke-linecap="round" stroke-width="5" fill="none" stroke="#303030"/><path d="M 248.252 145.2359 L 196.0413 160.01 " stroke-linecap="round" stroke-width="5" fill="none" stroke="#303030"/><path d="M 240.6146 139.5024 L 244.8498 154.4694 " stroke-linecap="round" stroke-width="5" fill="none" stroke="#303030"/><path d="M 262.2387 141.3334 C 263.2166 144.789 261.2531 148.3703 257.8532 149.3323 C 254.4534 150.2944 250.9045 148.273 249.9267 144.8174 C 248.9488 141.3618 250.9123 137.7805 254.3122 136.8184 C 257.712 135.8564 261.2609 137.8778 262.2387 141.3334 Z " stroke-linecap="butt" stroke-width="5" fill="none" stroke="#303030"/></g><path d="M 367.749 157.1806 C 369.1407 154.5699 374.5016 154.7098 379.7229 157.4931 C 384.9443 160.2764 388.0489 164.649 386.6573 167.2597 C 385.2656 169.8704 379.9047 169.7305 374.6834 166.9472 C 369.462 164.164 366.3574 159.7913 367.749 157.1806 Z " stroke="#797979" stroke-width="2" stroke-linecap="butt" fill="none"/><path d="M 350.9542 151.382 C 351.8316 148.5567 357.1236 147.6888 362.7743 149.4436 C 368.4249 151.1984 372.2944 154.9113 371.417 157.7366 C 370.5397 160.5619 365.2476 161.4298 359.5969 159.675 C 353.9463 157.9203 350.0768 154.2073 350.9542 151.382 Z " stroke="#797979" stroke-width="2" stroke-linecap="butt" fill="none"/><path d="M 350.2867 131.0196 C 353.1766 130.3862 356.5461 134.5582 357.8128 140.3379 C 359.0794 146.1175 357.7636 151.3163 354.8737 151.9497 C 351.9839 152.583 348.6144 148.411 347.3477 142.6314 C 346.081 136.8517 347.3969 131.6529 350.2867 131.0196 Z " stroke="#797979" stroke-width="2" stroke-linecap="butt" fill="none"/><path d="M 321.139 126.1852 C 320.2874 123.352 324.1905 119.6744 329.8569 117.9712 C 335.5233 116.2679 340.8072 117.1839 341.6588 120.0171 C 342.5105 122.8503 338.6073 126.5279 332.9409 128.2311 C 327.2745 129.9344 321.9906 129.0183 321.139 126.1852 Z " stroke="#797979" stroke-width="2" stroke-linecap="butt" fill="none"/><path d="M 294.572 144.8857 C 293.9304 141.9977 298.0927 138.6163 303.8688 137.3332 C 309.6448 136.05 314.8474 137.351 315.4889 140.239 C 316.1305 143.127 311.9682 146.5085 306.1921 147.7916 C 300.4161 149.0748 295.2136 147.7737 294.572 144.8857 Z " stroke="#797979" stroke-width="2" stroke-linecap="butt" fill="none"/><path d="M 275.9768 144.0688 C 276.0923 141.1126 280.9788 138.9033 286.8911 139.1342 C 292.8034 139.365 297.5028 141.9486 297.3873 144.9048 C 297.2719 147.861 292.3854 150.0703 286.4731 149.8394 C 280.5607 149.6086 275.8614 147.0249 275.9768 144.0688 Z " stroke="#797979" stroke-width="2" stroke-linecap="butt" fill="none"/><path d="M 258.6644 143.7082 C 259.0517 140.7752 264.121 139.0256 269.9869 139.8002 C 275.8529 140.5749 280.2941 143.5806 279.9068 146.5135 C 279.5195 149.4465 274.4502 151.1961 268.5842 150.4214 C 262.7183 149.6468 258.2771 146.6411 258.6644 143.7082 Z " stroke="#797979" stroke-width="2" stroke-linecap="butt" fill="none"/><path d="M 310.7484 140.4666 C 308.7251 138.3083 310.5843 133.2781 314.9011 129.2316 C 319.2178 125.185 324.3574 123.6543 326.3807 125.8127 C 328.404 127.971 326.5448 133.0012 322.228 137.0477 C 317.9113 141.0943 312.7716 142.625 310.7484 140.4666 Z " stroke="#797979" stroke-width="2" stroke-linecap="butt" fill="none"/><path d="M 337.8615 117.9157 C 340.0249 115.8978 345.0504 117.7696 349.0862 122.0965 C 353.1219 126.4233 354.6397 131.5668 352.4763 133.5846 C 350.3129 135.6025 345.2874 133.7307 341.2517 129.4039 C 337.2159 125.077 335.6981 119.9336 337.8615 117.9157 Z " stroke="#797979" stroke-width="2" stroke-linecap="butt" fill="none"/></g></g></g></g></svg>