<svg xmlns="http://www.w3.org/2000/svg" xmlns:xlink="http://www.w3.org/1999/xlink" version="1.1" width="507.33415" height="96.45129" viewBox="0,0,507.33415,96.45129"><g><g data-paper-data="{&quot;isPaintingLayer&quot;:true}" fill-rule="nonzero" stroke-linejoin="miter" stroke-miterlimit="10" stroke-dasharray="" stroke-dashoffset="0" style="mix-blend-mode: normal"><path d="M-4.278,309.73453c3.70705,-4.67585 32.47541,-3.10782 53.28178,-3.28082c15.65146,-0.13014 -19.46724,49.22829 45.06785,44.49398c48.73177,-3.57497 15.14528,-43.07803 38.90297,-44.40315c90.83137,-5.06625 149.51521,-4.64187 235.0373,-3.30696c21.44259,0.3347 -21.77382,41.88785 41.93701,43.1702c46.29758,0.93186 24.03214,-41.57126 31.09053,-41.23463c11.56608,0.55161 44.09128,-2.04878 44.41853,0.99706c3.6064,33.5665 15.43884,58.82979 -1.95797,58.82979c-99.75398,0 -439.31646,0 -489,0c-11.90451,0 -12.74373,-37.64994 1.222,-55.26547z" data-paper-data="{&quot;origPos&quot;:null}" fill="#704524" stroke="none" stroke-width="0" stroke-linecap="butt" transform="matrix(1,0,0,1,14.59087,-268.54871)"/><g data-paper-data="{&quot;origRot&quot;:0,&quot;origPos&quot;:null}"><path d="M167.39076,310.18407l-5.84475,-5.4625l32.87253,-35.17288l5.84475,5.4625z" data-paper-data="{&quot;origPos&quot;:null}" fill="#996e24" stroke="none" stroke-width="0" stroke-linecap="butt" transform="matrix(1,0,0,1,14.59087,-268.54871)"/><path d="M194.99287,308.67093l-34.4025,-32.21748l5.65759,-6.05349l34.4025,32.21748z" fill="#996e24" stroke="none" stroke-width="0" stroke-linecap="butt" transform="matrix(1,0,0,1,14.59087,-268.54871)"/><path d="M 188.7835 21.5951 L 202.1031 20.9427 " fill="none" stroke="#cdbb56" stroke-width="2.5" stroke-linecap="round"/><path d="M 195.4166 14.4979 L 195.6583 27.6292 " data-paper-data="{&quot;origPos&quot;:null}" fill="none" stroke="#cdbb56" stroke-width="2.5" stroke-linecap="round"/></g><g data-paper-data="{&quot;origRot&quot;:0,&quot;origPos&quot;:null,&quot;index&quot;:null}"><path d="M305.97755,274.0112l5.84475,-5.46249l32.87253,35.17287l-5.84475,5.4625z" data-paper-data="{&quot;origPos&quot;:null}" fill="#996e24" stroke="none" stroke-width="0" stroke-linecap="butt" transform="matrix(1,0,0,1,14.59087,-268.54871)"/><path d="M305.59038,301.61744l34.4025,-32.21748l5.65759,6.05349l-34.4025,32.21747z" fill="#996e24" stroke="none" stroke-width="0" stroke-linecap="butt" transform="matrix(1,0,0,1,14.59087,-268.54871)"/><path d="M 333.3195 19.9427 L 346.639 20.5951 " fill="none" stroke="#cdbb56" stroke-width="2.5" stroke-linecap="round"/><path d="M 339.7642 26.6292 L 340.006 13.4979 " data-paper-data="{&quot;origPos&quot;:null}" fill="none" stroke="#cdbb56" stroke-width="2.5" stroke-linecap="round"/></g></g></g></svg>