<svg version="1.1" xmlns="http://www.w3.org/2000/svg" xmlns:xlink="http://www.w3.org/1999/xlink" width="58.25995" height="166.77041" viewBox="0,0,58.25995,166.77041"><g transform="translate(-213.48849,-83.14988)"><g data-paper-data="{&quot;isPaintingLayer&quot;:true}" fill-rule="nonzero" stroke-linejoin="miter" stroke-miterlimit="10" stroke-dasharray="" stroke-dashoffset="0" style="mix-blend-mode: normal"><g data-paper-data="{&quot;index&quot;:null}" fill="#f3f3f3" stroke-linecap="butt"><path d="M259.19685,189.72129c-1.61341,-0.24143 -0.53859,-4.81108 -1.66,-4.45349c-1.54368,0.49219 0.40944,5.22473 -1.34776,4.39332c-1.81338,-0.85798 0.08639,-5.28121 -1.19705,-4.97685c-1.28343,0.30426 -1.19352,5.05778 -1.94154,4.6701c-1.72794,-0.8958 -0.64335,-5.17008 -0.64335,-5.17008c-1.57616,-0.21788 -2.04879,3.62275 -3.68111,2.41854c-1.63222,-1.20409 3.21327,-6.5737 3.21327,-6.5737l7.74245,-1.57685l1.45049,4.36951c0,0 2.83423,6.37159 1.6121,6.59047c-2.42367,0.43415 -1.63337,-4.2063 -2.61894,-4.13417c-1.25322,0.0916 0.4458,4.64891 -0.92855,4.44319z" data-paper-data="{&quot;origRot&quot;:0,&quot;index&quot;:null}" stroke="#000000" stroke-width="1"/><g data-paper-data="{&quot;origRot&quot;:0,&quot;index&quot;:null}"><path d="M255.67765,179.03348c0,0 -3.35041,-45.64986 -3.33188,-47.06656c0.01863,-1.41658 3.93503,1.13044 3.93503,1.13044l2.09463,7.04233c0,0 -2.73532,-0.1588 -1.51233,1.09478c3.13322,3.21138 5.10734,9.92454 5.10734,9.92454c0,0 -3.01131,-0.50288 -2.53335,0.18133c2.1389,3.0625 2.79714,7.85014 2.79714,7.85014c0,0 -3.93715,1.5432 -2.4106,2.12372c2.71189,1.03124 3.08699,6.58706 3.08699,6.58706c0,0 -2.78951,0.02385 -2.31495,0.82408c2.09582,3.5345 1.0845,8.35564 1.0845,8.35564c0,0 -1.54184,0.47177 -1.84992,0.73278c-0.34077,0.28873 -0.32304,0.98909 -0.32304,0.98909z" data-paper-data="{&quot;origPos&quot;:null}" stroke="#000000" stroke-width="2"/><path d="M251.13053,179.3663c0,0 -0.08077,-0.69658 -0.45925,-0.94201c-0.34218,-0.2219 -1.9373,-0.50463 -1.9373,-0.50463c0,0 -1.57397,-4.81424 0.00728,-8.57014c0.35798,-0.85038 -2.41123,-0.53946 -2.41123,-0.53946c0,0 -0.40918,-5.55374 2.13479,-6.90161c1.43208,-0.75862 -2.68881,-1.81661 -2.68881,-1.81661c0,0 -0.0203,-4.82599 1.6699,-8.11915c0.37771,-0.73574 -2.53746,0.12416 -2.53746,0.12416c0,0 0.90708,-6.73809 3.56216,-10.29803c1.03652,-1.38958 -1.65336,-0.90401 -1.65336,-0.90401l1.08687,-7.23402c0,0 3.3614,-3.85548 4.3821,-1.06401c1.05821,2.89444 2.67387,46.53881 2.67387,46.53881z" data-paper-data="{&quot;origPos&quot;:null,&quot;index&quot;:null}" stroke="#000000" stroke-width="2"/><path d="M251.87992,178.31252l-2.52268,-44.77224c0,0 0.6787,-0.51958 1.49085,-0.8513c0.60983,-0.24908 1.34618,-0.34095 1.64346,-0.31086c0.61103,0.06186 2.55952,1.14765 2.55952,1.14765l3.65863,44.27476z" data-paper-data="{&quot;origPos&quot;:null}" stroke="none" stroke-width="0"/></g></g><g data-paper-data="{&quot;origPos&quot;:null}" fill="#f3f3f3" stroke-linecap="butt"><path d="M259.80893,243.38599c-0.0809,-0.5293 0.3696,-0.9461 1.1522,-1.0658c0.7825,-0.1196 2.5414,-0.36 2.6224,0.1694c0.0809,0.5293 -0.4878,1.0554 -1.2703,1.1751c-0.7826,0.1196 -2.4233,0.2507 -2.5043,-0.2786z" data-paper-data="{&quot;origPos&quot;:null,&quot;origRot&quot;:0}" stroke="#000000" stroke-width="0.75"/><path d="M259.57653,244.02469c0,-0.5355 0.5084,-0.6294 1.3,-0.6294c0.7916,0 2.5666,-0.2218 2.5666,0.3137c0,0.5355 -0.6417,0.9696 -1.4333,0.9696c-0.7916,0 -2.4333,-0.1184 -2.4333,-0.6539z" data-paper-data="{&quot;origPos&quot;:null}" stroke="#000000" stroke-width="0.75"/><path d="M258.97653,245.29139c0,-0.5355 0.5084,-0.8794 1.3,-0.8794c0.7916,0 2.5667,0.0282 2.5667,0.5637c0,0.5355 -0.6418,0.9696 -1.4334,0.9696c-0.7916,0 -2.4333,-0.1184 -2.4333,-0.6539z" data-paper-data="{&quot;origPos&quot;:null}" stroke="#000000" stroke-width="0.75"/><path d="M257.70983,246.63549c0,-0.7451 0.5084,-1.2235 1.3,-1.2235c0.7916,0 2.5667,0.0392 2.5667,0.7843c0,0.745 -0.6417,1.349 -1.4334,1.349c-0.7916,0 -2.4333,-0.1648 -2.4333,-0.9098z" data-paper-data="{&quot;origPos&quot;:null}" stroke="#000000" stroke-width="0.75"/><path d="M243.57853,246.29559c-1.6163,-1.0329 -0.1126,-2.5734 0.0788,-4.4819c0.1347,-1.3431 -0.0788,-3.1181 -0.0788,-3.1181l7.8,-0.7c0,0 -0.0229,3.4692 1.3322,4.4032c1.8487,1.2741 5.0669,-0.1743 7.227,0.4378c1.3706,0.3883 0.3029,2.5097 -0.7592,3.459c-1.4471,1.2934 -4.4964,-0.1417 -7.8961,-0.0294c-3.0348,0.1003 -5.5377,1.4138 -7.7039,0.0294z" data-paper-data="{&quot;origPos&quot;:null}" stroke="#000000" stroke-width="1"/><path d="M256.1104,246.18782l2.5,-2.96429c0,0 0.79438,-0.09155 1.30283,-0.24158c0.34177,-0.10085 1.02574,-0.30127 1.02574,-0.30127c0,0 0.43062,0.99764 0.21336,1.66788c-0.8474,2.61416 -2.22764,2.68926 -2.22764,2.68926c0,0 -0.72669,-0.29517 -1.12779,-0.44294c-0.65818,-0.24248 -1.6865,-0.40706 -1.6865,-0.40706z" data-paper-data="{&quot;origPos&quot;:null}" stroke="none" stroke-width="0"/></g><g data-paper-data="{&quot;origPos&quot;:null,&quot;origRot&quot;:0,&quot;index&quot;:null}" fill="#f3f3f3" stroke-linecap="butt"><path d="M247.76323,237.68019c0,0 -5.1443,-42.9255 -5.1971,-44.2631c-0.0528,-1.3376 3.4848,0.8896 3.4848,0.8896l2.1689,6.5511c0,0 -2.3919,-0.0268 -1.2648,1.1011c2.8873,2.8892 3.8077,9.1933 3.8077,9.1933c0,0 -2.6493,-0.339 -2.1994,0.2852c2.0135,2.7935 2.8205,7.2816 2.8205,7.2816c0,0 -3.3565,1.6334 -1.9976,2.1125c2.4139,0.8511 3.0115,6.0767 3.0115,6.0767c0,0 -2.4302,0.1482 -1.9776,0.8819c1.9991,3.2409 2.4799,7.7775 2.4799,7.7775c0,0 -1.321,0.5146 -1.5768,0.7748c-0.2829,0.2877 -0.2333,0.9478 -0.2333,0.9478z" data-paper-data="{&quot;origPos&quot;:null}" stroke="#000000" stroke-width="2"/><path d="M243.81613,238.19879v0c0,0 -0.1155,-0.6606 -0.4462,-0.8682c-0.3091,-0.1939 -1.7132,-0.389 -1.7132,-0.389c0,0 -0.5815,-4.5249 0.6138,-8.1403c0.2706,-0.8185 -2.1279,-0.4005 -2.1279,-0.4005c0,0 -0.6272,-5.2222 1.5244,-6.6085c1.2113,-0.7804 -2.432,-1.5932 -2.432,-1.5932c0,0 -0.2529,-4.553 1.0599,-7.7365c0.2933,-0.7113 -2.2057,0.2312 -2.2057,0.2312c0,0 -0.5626,-6.346 1.5782,-9.8247c0.8357,-1.358 -1.4852,-0.7787 -1.4852,-0.7787l0.5949,-6.8751c0,0 2.7421,-3.7894 3.7677,-1.2012c1.0635,2.6837 4.598,43.7947 4.598,43.7947z" data-paper-data="{&quot;origPos&quot;:null,&quot;index&quot;:null}" stroke="#000000" stroke-width="2"/><path d="M245.43718,237.00686l-4.20947,-42.81091c0,0 0.99752,-0.10485 1.60515,-0.06984c0.5356,0.03087 1.32425,0.23865 1.32425,0.23865l5.27211,42.17411z" data-paper-data="{&quot;origPos&quot;:null}" stroke="none" stroke-width="0"/></g><g data-paper-data="{&quot;origPos&quot;:null,&quot;origRot&quot;:0,&quot;index&quot;:null}" fill="#f3f3f3" stroke-linecap="butt"><path d="M227.08253,239.54019c0,0 0.0496,-0.6601 -0.2333,-0.9478c-0.2558,-0.2602 -1.5768,-0.7748 -1.5768,-0.7748c0,0 0.4809,-4.5366 2.4799,-7.7775c0.4526,-0.7337 -1.9776,-0.8819 -1.9776,-0.8819c0,0 0.5976,-5.2256 3.0115,-6.0767c1.359,-0.4791 -1.9976,-2.1125 -1.9976,-2.1125c0,0 0.807,-4.4881 2.8205,-7.2816c0.4499,-0.6242 -2.1993,-0.2852 -2.1993,-0.2852c0,0 0.9203,-6.3041 3.8077,-9.1933c1.1271,-1.1279 -1.2648,-1.1011 -1.2648,-1.1011l2.1688,-6.5511c0,0 3.5377,-2.2272 3.4849,-0.8896c-0.0528,1.3376 -5.1972,44.2631 -5.1972,44.2631z" data-paper-data="{&quot;origPos&quot;:null}" stroke="#000000" stroke-width="2"/><path d="M231.02973,240.05879c0,0 3.5345,-41.111 4.5979,-43.7947c1.0256,-2.5882 3.7677,1.2012 3.7677,1.2012l0.5949,6.875c0,0 -2.3209,-0.5792 -1.4852,0.7788c2.1408,3.4787 1.5782,9.8247 1.5782,9.8247c0,0 -2.499,-0.9425 -2.2056,-0.2313c1.3128,3.1836 1.0599,7.7366 1.0599,7.7366c0,0 -3.6433,0.8128 -2.4321,1.5932c2.1517,1.3863 1.5245,6.6085 1.5245,6.6085c0,0 -2.3986,-0.418 -2.128,0.4005c1.1953,3.6154 0.6139,8.1403 0.6139,8.1403c0,0 -1.4042,0.195 -1.7133,0.389c-0.3418,0.2145 -0.4462,0.8682 -0.4462,0.8682z" data-paper-data="{&quot;origPos&quot;:null,&quot;index&quot;:null}" stroke="#000000" stroke-width="2"/><path d="M228.74328,238.78887l5.27211,-42.17411c0,0 0.78865,-0.20778 1.32425,-0.23865c0.60763,-0.03501 1.60515,0.06984 1.60515,0.06984l-4.20946,42.81091z" data-paper-data="{&quot;origPos&quot;:null}" stroke="none" stroke-width="0"/></g><g fill="#f3f3f3" stroke-linecap="butt"><path d="M240.48461,198.67119l-0.54787,-66.6l7.3619,2l4.81199,9.7515c0,0 -5.81827,-0.4582 -3.39499,1.4213c6.20755,4.8149 6.6492,14.3797 6.6492,14.3797c0,0 -6.35582,-0.969 -5.43826,0.0407c4.10657,4.5193 4.79074,11.3553 4.79074,11.3553c0,0 -8.64185,1.8497 -5.46883,2.802c5.63651,1.6916 5.59998,9.5913 5.59998,9.5913c0,0 -5.96147,-0.204 -5.06865,0.9696c3.94358,5.1841 3.81953,12.0355 3.81953,12.0355c0,0 -3.36443,0.5366 -4.06179,0.88c-0.77131,0.3797 -0.83892,1.3731 -0.83892,1.3731z" data-paper-data="{&quot;origPos&quot;:null}" stroke="#000000" stroke-width="2"/><path d="M230.72263,198.75449c0,0 -0.06761,-0.9933 -0.8388,-1.3731c-0.6975,-0.3434 -4.0618,-0.8799 -4.0618,-0.8799c0,0 -0.12417,-6.8515 3.81941,-12.0355c0.89282,-1.1737 -5.06865,-0.9697 -5.06865,-0.9697c0,0 -0.03653,-7.8997 5.59998,-9.5913c3.17302,-0.9523 -5.4687,-2.8019 -5.4687,-2.8019c0,0 0.68404,-6.8361 4.79062,-11.3553c0.91756,-1.0098 -5.43826,-0.0407 -5.43826,-0.0407c0,0 0.44165,-9.5649 6.6492,-14.3797c2.42327,-1.8796 -3.395,-1.4214 -3.395,-1.4214l5.412,-8.9515l7.16189,-2.8l-0.94774,66.6z" data-paper-data="{&quot;origPos&quot;:null,&quot;index&quot;:null}" stroke="#000000" stroke-width="2"/><path d="M235.32935,197.75396v-63.075h9.85688v63.075z" data-paper-data="{&quot;origPos&quot;:null}" stroke="none" stroke-width="0"/></g><g fill="#f3f3f3" stroke-linecap="butt"><path d="M242.84233,245.38599c-0.081,-0.5293 0.3696,-0.9461 1.1521,-1.0658c0.7825,-0.1196 2.5414,-0.36 2.6224,0.1694c0.0809,0.5293 -0.4878,1.0554 -1.2703,1.1751c-0.7825,0.1196 -2.4233,0.2507 -2.5042,-0.2786z" data-paper-data="{&quot;origPos&quot;:null,&quot;origRot&quot;:0}" stroke="#000000" stroke-width="0.75"/><path d="M242.60983,246.02469c0,-0.5355 0.5084,-0.6294 1.3,-0.6294c0.7916,0 2.5667,-0.2218 2.5667,0.3137c0,0.5355 -0.6417,0.9696 -1.4333,0.9696c-0.7916,0 -2.4334,-0.1184 -2.4334,-0.6539z" data-paper-data="{&quot;origPos&quot;:null}" stroke="#000000" stroke-width="0.75"/><path d="M242.00983,247.29139c0,-0.5355 0.5084,-0.8794 1.3,-0.8794c0.7916,0 2.5667,0.0282 2.5667,0.5637c0,0.5355 -0.6417,0.9696 -1.4333,0.9696c-0.7916,0 -2.4334,-0.1184 -2.4334,-0.6539z" data-paper-data="{&quot;origPos&quot;:null}" stroke="#000000" stroke-width="0.75"/><path d="M240.74323,248.63549c0,-0.7451 0.5084,-1.2235 1.3,-1.2235c0.7916,0 2.5666,0.0392 2.5666,0.7843c0,0.745 -0.6417,1.349 -1.4333,1.349c-0.7916,0 -2.4333,-0.1648 -2.4333,-0.9098z" data-paper-data="{&quot;origPos&quot;:null}" stroke="#000000" stroke-width="0.75"/><path d="M226.61183,248.29559c-1.6162,-1.0329 -0.1126,-2.5734 0.0788,-4.4819c0.1347,-1.3431 -0.0788,-3.7181 -0.0788,-3.7181l7.7,0.6c0,0 0.0771,2.7692 1.4323,3.7032c1.8486,1.2742 5.0668,-0.1743 7.2269,0.4378c1.3706,0.3883 0.3029,2.5097 -0.7592,3.459c-1.4471,1.2934 -4.4964,-0.1417 -7.896,-0.0294c-3.0349,0.1003 -5.5378,1.4138 -7.704,0.0294z" data-paper-data="{&quot;origPos&quot;:null}" stroke="#000000" stroke-width="1"/><path d="M239.14374,248.18782l2.5,-2.96429c0,0 0.79439,-0.09155 1.30284,-0.24158c0.34177,-0.10085 1.02574,-0.30127 1.02574,-0.30127c0,0 0.43062,0.99764 0.21336,1.66788c-0.8474,2.61416 -2.22764,2.68926 -2.22764,2.68926c0,0 -0.72669,-0.29517 -1.12779,-0.44294c-0.65818,-0.24248 -1.6865,-0.40706 -1.6865,-0.40706z" data-paper-data="{&quot;origPos&quot;:null}" stroke="none" stroke-width="0"/></g><g fill="#f3f3f3" stroke-linecap="butt"><path d="M217.31219,185.86343c-0.97471,-0.07133 -0.19313,4.51796 -2.59008,4.0886c-1.20865,-0.21646 1.59433,-6.51781 1.59433,-6.51781l1.43449,-4.32135l7.6571,1.55947c0,0 4.79207,5.31042 3.17784,6.50123c-1.61432,1.19093 -2.08174,-2.60737 -3.64052,-2.39189c0,0 1.07263,4.22717 -0.63626,5.11309c-0.73978,0.3834 -0.65086,-4.31772 -1.92014,-4.61862c-1.26929,-0.30101 0.60954,4.07346 -1.18386,4.92198c-1.73782,0.82225 0.19375,-3.85813 -1.3329,-4.34489c-1.10905,-0.35366 -0.04607,4.16562 -1.64169,4.40439c-1.35919,0.20345 0.3211,-4.30361 -0.91831,-4.3942z" data-paper-data="{&quot;origRot&quot;:0,&quot;index&quot;:null}" stroke="#000000" stroke-width="1"/><g data-paper-data="{&quot;origRot&quot;:0,&quot;index&quot;:null}"><path d="M217.92357,179.45958c0,0 0.01753,-0.69263 -0.31948,-0.97818c-0.30469,-0.25814 -1.82953,-0.72471 -1.82953,-0.72471c0,0 -1.00018,-4.76798 1.07254,-8.26352c0.46931,-0.79142 -2.28943,-0.815 -2.28943,-0.815c0,0 0.37096,-5.49457 3.05295,-6.51444c1.50973,-0.57412 -2.38403,-2.10031 -2.38403,-2.10031c0,0 0.65099,-4.73487 2.76631,-7.7636c0.47269,-0.67667 -2.50542,-0.17933 -2.50542,-0.17933c0,0 1.95236,-6.63916 5.05103,-9.81514c1.20951,-1.23977 -1.49565,-1.0827 -1.49565,-1.0827l2.07153,-6.96471c0,0 3.87323,-2.51894 3.89166,-1.11798c0.01833,1.40107 -3.29515,46.54769 -3.29515,46.54769z" data-paper-data="{&quot;origPos&quot;:null}" stroke="#000000" stroke-width="2"/><path d="M222.42054,179.78863c0,0 1.59786,-43.16322 2.6444,-46.02575c1.00944,-2.76069 4.33378,1.05228 4.33378,1.05228l1.07489,7.15427c0,0 -2.66022,-0.48021 -1.63514,0.89405c2.62581,3.52069 3.5229,10.18451 3.5229,10.18451c0,0 -2.88304,-0.85041 -2.50949,-0.12279c1.67157,3.25685 1.65149,8.02964 1.65149,8.02964c0,0 -4.07546,1.04631 -2.65917,1.79658c2.51593,1.33301 2.11126,6.82552 2.11126,6.82552c0,0 -2.73868,-0.30748 -2.38465,0.53352c1.56382,3.71449 0.00722,8.47565 0.00722,8.47565c0,0 -1.57754,0.27961 -1.91595,0.49907c-0.3743,0.24273 -0.45419,0.93163 -0.45419,0.93163z" data-paper-data="{&quot;origPos&quot;:null,&quot;index&quot;:null}" stroke="#000000" stroke-width="2"/><path d="M218.71228,178.46832l3.6183,-43.78667c0,0 1.927,-1.07383 2.5313,-1.135c0.29401,-0.02976 1.02224,0.0611 1.62534,0.30743c0.80319,0.32806 1.47442,0.84191 1.47442,0.84191l-2.49488,44.27866z" data-paper-data="{&quot;origPos&quot;:null}" stroke="none" stroke-width="0"/></g></g><path d="M219.47643,104.86559c1.6487,-0.7878 -3.1461,-3.1798 -3.1461,-3.1798c0,0 2.779,-6.4692 8.4429,-7.1282c1.9875,-0.2313 -1.7049,-2.1212 -1.7049,-2.1212c0,0 3.5723,-3.87 7.9896,-3.9945c2.1272,-0.0599 -1.8539,-2.0125 -1.8539,-2.0125c0,0 2.6363,-1.667 4.9725,-2.0421c2.577,-0.4137 5.0257,0.2054 7.6357,0.2054c1.8219,0 5.1884,-0.8223 6.9744,-0.4625c1.6306,0.3285 4.2665,1.0981 4.2665,1.0981c0,0 -0.8507,0.4245 0.0276,1.343c1.2538,1.3113 5.4629,1.8316 5.4629,1.8316c0,0 -1.7171,1.0859 0.0285,2.0655c1.4045,0.788 7.0433,3.4638 7.0433,3.4638c0,0 -1.6453,1.2642 -0.9936,1.8623c1.5385,1.412 4.9587,8.1622 4.9587,8.1622c0,0 -3.2256,-1.1544 -2.2289,0.4963c1.255,2.0783 2.7993,6.8807 2.7993,6.8807c0,0 -3.5332,-1.3868 -2.0387,2.4479c0.8726,2.2393 -1.0897,6.7748 -1.0897,6.7748c0,0 -1.7704,-1.876 -2.4117,0.1005c-0.8161,2.5155 -1.4213,4.7026 -1.4213,4.7026c0,0 -1.744,-2.004 -2.7234,-0.6837c-0.1146,0.1544 -1.9623,4.6994 -1.9623,4.6994c0,0 -1.1239,-3.7945 -3.2139,-1.1608c-1.3472,1.6976 -3.0458,6.9753 -3.0458,6.9753c0,0 -2.4136,-3.3356 -3.9419,-2.6299c-2.4771,1.1437 -3.7617,2.633 -6.49,2.633c-2.2115,0 -3.4526,-2.4471 -5.6633,-2.5051c-2.4674,-0.0647 -3.9438,2.2174 -5.8764,0.6821c-2.2473,-1.7853 -2.0945,-6.0258 -4.5438,-7.522c-1.3096,-0.8 -2.3822,1.3611 -2.3822,1.3611c0,0 -0.9262,-4.4202 -2.0423,-6.1223c-1.3739,-1.2613 -3.1644,-0.3423 -3.1644,-0.3423c0,0 0.2973,-5.7452 0.1018,-7.4293c-0.3456,-2.9781 -2.7294,-1.1722 -2.7294,-1.1722c0,0 -1.009,-4.9008 3.9642,-7.2772z" data-paper-data="{&quot;origPos&quot;:null}" fill="#f3f3f3" stroke="#000000" stroke-width="2" stroke-linecap="butt"/><g data-paper-data="{&quot;origPos&quot;:null}"><path d="M234.39522,103.06981c0,-2.96519 2.40376,-5.36895 5.36895,-5.36895c2.96519,0 5.36895,2.40376 5.36895,5.36895c0,2.96519 -2.40376,5.36895 -5.36895,5.36895c-2.96519,0 -5.36895,-2.40376 -5.36895,-5.36895z" data-paper-data="{&quot;origPos&quot;:null}" fill="#000000" stroke="none" stroke-width="0" stroke-linecap="butt"/><path d="M249.60722,103.06981c0,-2.96518 2.40377,-5.36895 5.36895,-5.36895c2.96518,0 5.36895,2.40377 5.36895,5.36895c0,2.96518 -2.40377,5.36895 -5.36895,5.36895c-2.96518,0 -5.36895,-2.40377 -5.36895,-5.36895z" data-paper-data="{&quot;origPos&quot;:null}" fill="#000000" stroke="none" stroke-width="0" stroke-linecap="butt"/><path d="M244.80773,99.33139l-10.1685,-4.0674" data-paper-data="{&quot;origPos&quot;:null}" fill="none" stroke="#000000" stroke-width="2.5" stroke-linecap="round"/><path d="M258.23003,95.30289l-7.728,3.6606" data-paper-data="{&quot;origPos&quot;:null}" fill="none" stroke="#000000" stroke-width="2.5" stroke-linecap="round"/></g><path d="M238.43703,122.69979c0,0 0.2114,-6.3361 3.1428,-7.8571c2.9315,-1.5211 7.8431,-2.1569 12,0c4.1569,2.1568 3.1429,7.8571 3.1429,7.8571z" data-paper-data="{&quot;origPos&quot;:null}" fill="#870000" stroke="#000000" stroke-width="1.5" stroke-linecap="butt"/><path d="M241.19735,115.65268l2.76923,-1l-1.46154,3.84615z" fill="#ffffff" stroke="none" stroke-width="0" stroke-linecap="butt"/><path d="M252.50504,118.34499l-1.46154,-3.84615l2.76923,1z" data-paper-data="{&quot;index&quot;:null}" fill="#ffffff" stroke="none" stroke-width="0" stroke-linecap="butt"/><path d="M249.27427,117.88345l-1.46154,-3.84615l2.76923,0.23077z" data-paper-data="{&quot;index&quot;:null}" fill="#ffffff" stroke="none" stroke-width="0" stroke-linecap="butt"/><path d="M244.50504,114.26806l2.76923,-0.23077l-1.46154,3.84615z" data-paper-data="{&quot;index&quot;:null}" fill="#ffffff" stroke="none" stroke-width="0" stroke-linecap="butt"/><path d="M239.96658,121.96037l1.29231,-3.41539l1.01539,3.41539z" fill="#ffffff" stroke="none" stroke-width="0" stroke-linecap="butt"/><path d="M243.12042,122.03729l1.29231,-3.41539l1.01538,3.41539z" fill="#ffffff" stroke="none" stroke-width="0" stroke-linecap="butt"/><path d="M246.42812,122.0373l1.29231,-3.41539l1.01538,3.41539z" fill="#ffffff" stroke="none" stroke-width="0" stroke-linecap="butt"/><path d="M249.58196,122.03729l1.29231,-3.41539l1.01539,3.41539z" fill="#ffffff" stroke="none" stroke-width="0" stroke-linecap="butt"/><path d="M252.73581,122.03729l1.29231,-3.41539l1.01538,3.41539z" fill="#ffffff" stroke="none" stroke-width="0" stroke-linecap="butt"/><path d="M238.43703,122.62287c0,0 0.2114,-6.3361 3.1428,-7.8571c2.9315,-1.5211 7.8431,-2.1569 12,0c4.1569,2.1568 3.1429,7.8571 3.1429,7.8571z" fill="none" stroke="#000000" stroke-width="1.5" stroke-linecap="butt"/></g></g></svg>