<svg xmlns="http://www.w3.org/2000/svg" xmlns:xlink="http://www.w3.org/1999/xlink" version="1.1" width="61.08423" height="157.40634" viewBox="0,0,61.08423,157.40634"><defs><linearGradient x1="258.28868" y1="171.05156" x2="257.20491" y2="175.9942" gradientUnits="userSpaceOnUse" id="color-1"><stop offset="0" stop-color="#7c7c7c"/><stop offset="1" stop-color="#7c7c7c"/></linearGradient><linearGradient x1="224.25486" y1="172.39839" x2="225.46717" y2="177.1355" gradientUnits="userSpaceOnUse" id="color-2"><stop offset="0" stop-color="#7c7c7c"/><stop offset="1" stop-color="#7c7c7c"/></linearGradient></defs><g><g data-paper-data="{&quot;isPaintingLayer&quot;:true}" fill-rule="nonzero" stroke-linejoin="miter" stroke-miterlimit="10" stroke-dasharray="" stroke-dashoffset="0" style="mix-blend-mode: normal"><path d="M 33.3295 49.4405 L 33.3295 116.7376 L 21.2819 155.6563 " data-paper-data="{&quot;origPos&quot;:null}" fill="none" stroke="#000000" stroke-width="3.5" stroke-linecap="round"/><path d="M 46.1803 155.4595 L 34.1327 115.3008 " fill="none" stroke="#000000" stroke-width="3.5" stroke-linecap="round"/><path d="M 9.2342 26.55 C 9.2342 12.5772 20.5614 1.25 34.5342 1.25 C 48.507 1.25 59.8342 12.5772 59.8342 26.55 C 59.8342 40.5228 48.507 51.85 34.5342 51.85 C 20.5614 51.85 9.2342 40.5228 9.2342 26.55 Z " data-paper-data="{&quot;origPos&quot;:null}" fill="#d4d4d4" stroke="#000000" stroke-width="2.5" stroke-linecap="butt"/><path d="M240.74468,112.86195c0,-2.66149 2.15756,-4.81905 4.81905,-4.81905c2.66149,0 4.81905,2.15756 4.81905,4.81905c0,2.66149 -2.15756,4.81905 -4.81905,4.81905c-2.66149,0 -4.81905,-2.15756 -4.81905,-4.81905z" data-paper-data="{&quot;origPos&quot;:null}" fill="#000000" stroke="none" stroke-width="0" stroke-linecap="butt" transform="matrix(1,0,0,1,-208.02791,-86.53575)"/><path d="M252.39866,112.66195c0,-2.66148 2.15757,-4.81905 4.81905,-4.81905c2.66148,0 4.81905,2.15757 4.81905,4.81905c0,2.66148 -2.15757,4.81905 -4.81905,4.81905c-2.66148,0 -4.81905,-2.15757 -4.81905,-4.81905z" data-paper-data="{&quot;origPos&quot;:null}" fill="#000000" stroke="none" stroke-width="0" stroke-linecap="butt" transform="matrix(1,0,0,1,-208.02791,-86.53575)"/><path d="M 31.9358 19.1199 L 41.0628 22.7706 " data-paper-data="{&quot;origPos&quot;:null}" fill="none" stroke="#000000" stroke-width="2.5" stroke-linecap="round"/><path d="M 44.7739 22.4405 L 51.7104 19.1548 " data-paper-data="{&quot;origPos&quot;:null}" fill="none" stroke="#000000" stroke-width="2.5" stroke-linecap="round"/><path d="M 16.3279 87.3357 L 32.0263 57.7643 " data-paper-data="{&quot;origPos&quot;:null}" fill="none" stroke="#000000" stroke-width="3.5" stroke-linecap="round"/><path d="M 49.9152 87.3357 L 34.2168 57.7643 " data-paper-data="{&quot;origPos&quot;:null,&quot;index&quot;:null}" fill="none" stroke="#000000" stroke-width="3.5" stroke-linecap="round"/><path d="M223.00003,129.26993l-5.6,-10.8h51l-1.4,4c0,0 -4.46751,5.9342 -6.4253,8.7935c-2.88113,4.20782 -7.972,6.42 -7.972,6.42c0,0 -11.82062,1.43324 -18.08648,0.21872c-4.49435,-0.87115 -11.51622,-8.63222 -11.51622,-8.63222z" data-paper-data="{&quot;origPos&quot;:null}" fill="#000000" stroke="none" stroke-width="0" stroke-linecap="butt" transform="matrix(1,0,0,1,-208.02791,-86.53575)"/><path d="M233.71215,88.2946c6.04471,-1.05601 17.44813,0.19017 17.44813,0.19017c0,0 4.91119,1.92345 7.69064,5.58207c1.8887,2.48611 6.19852,7.64579 6.19852,7.64579l1.35059,3.47793h-49.2l5.40235,-9.3904c0,0 6.77403,-6.74811 11.10977,-7.50556z" data-paper-data="{&quot;origPos&quot;:null,&quot;index&quot;:null}" fill="#000000" stroke="none" stroke-width="0" stroke-linecap="butt" transform="matrix(1,0,0,1,-208.02791,-86.53575)"/><path d="M219.0667,119.06996c0,0 -2.15573,-6.14238 -1.91165,-8.75826c0.2298,-2.46276 3.00255,-6.83871 3.00255,-6.83871l18.70909,-0.46969c0,0 -3.33333,5.00863 -3.33333,8.61287c0,3.60423 3.33333,8.12047 3.33333,8.12047z" fill="#000000" stroke="none" stroke-width="0" stroke-linecap="butt" transform="matrix(1,0,0,1,-208.02791,-86.53575)"/><g data-paper-data="{&quot;origPos&quot;:null,&quot;origRot&quot;:0}" stroke-linecap="butt"><path d="M257.25405,175.96729c0,0 -4.17874,-1.57299 -5.85545,-2.99062c-1.80732,-1.52806 -3.07193,-4.55736 -3.07193,-4.55736c0,0 1.93275,1.39134 4.07805,1.97889c1.77635,0.4865 5.97069,0.77325 5.97069,0.77325z" data-paper-data="{&quot;origPos&quot;:null,&quot;origRot&quot;:0,&quot;index&quot;:null}" fill="#ff0000" stroke-width="0" stroke="none" transform="matrix(1,0,0,1,-208.02791,-86.53575)"/><path d="M260.15475,174.32067c0,0 -1.51501,4.2001 -2.90932,5.89628c-1.50292,1.82828 -4.51443,3.1347 -4.51443,3.1347c0,0 1.36446,-1.9518 1.92228,-4.10503c0.46188,-1.78291 0.69057,-5.98082 0.69057,-5.98082z" data-paper-data="{&quot;origPos&quot;:null,&quot;index&quot;:null}" fill="#ff0000" stroke-width="0" stroke="none" transform="matrix(1,0,0,1,-208.02791,-86.53575)"/><path d="M255.34414,172.91137c0,0 1.51501,-4.2001 2.90932,-5.89626c1.50292,-1.82828 4.51443,-3.1347 4.51443,-3.1347c0,0 -1.36446,1.9518 -1.92228,4.10503c-0.46188,1.78291 -0.69057,5.98082 -0.69057,5.98082z" data-paper-data="{&quot;origPos&quot;:null}" fill="#ff0000" stroke-width="0" stroke="none" transform="matrix(1,0,0,1,-208.02791,-86.53575)"/><path d="M257.87795,171.03818c0,0 4.17874,1.57299 5.85545,2.99062c1.80732,1.52806 3.07193,4.55736 3.07193,4.55736c0,0 -1.93275,-1.39134 -4.07805,-1.97889c-1.77635,-0.4865 -5.97069,-0.77325 -5.97069,-0.77325z" data-paper-data="{&quot;origPos&quot;:null,&quot;origRot&quot;:0}" fill="#ff0000" stroke-width="0" stroke="none" transform="matrix(1,0,0,1,-208.02791,-86.53575)"/><path d="M255.27546,172.981c0.29928,-1.36488 1.64834,-2.22871 3.0132,-1.92943c1.36488,0.29928 2.22871,1.64834 1.92943,3.0132c-0.29928,1.36488 -1.64834,2.22871 -3.0132,1.92943c-1.36488,-0.29928 -2.22871,-1.64834 -1.92943,-3.0132z" data-paper-data="{&quot;origPos&quot;:null}" fill="url(#color-1)" stroke-width="0" stroke="none" transform="matrix(1,0,0,1,-208.02791,-86.53575)"/></g><g data-paper-data="{&quot;origPos&quot;:null,&quot;origRot&quot;:0}" stroke-linecap="butt"><path d="M225.49789,177.09091c0,0 -4.29033,0.4581 -6.35357,-0.03691c-2.22395,-0.53358 -4.63181,-2.59876 -4.63181,-2.59876c0,0 2.27279,0.36106 4.37979,-0.06401c1.74461,-0.35196 5.48951,-1.92706 5.48951,-1.92706z" data-paper-data="{&quot;origPos&quot;:null,&quot;origRot&quot;:0,&quot;index&quot;:null}" fill="#ff0000" stroke-width="0" stroke="none" transform="matrix(1,0,0,1,-208.02791,-86.53575)"/><path d="M227.28605,174.40919c0,0 0.51741,4.28359 0.05099,6.35347c-0.50276,2.23112 -2.53442,4.66733 -2.53442,4.66733c0,0 0.32957,-2.27757 -0.12459,-4.37849c-0.37607,-1.73958 -2.00282,-5.46231 -2.00282,-5.46231z" data-paper-data="{&quot;origPos&quot;:null,&quot;index&quot;:null}" fill="#ff0000" stroke-width="0" stroke="none" transform="matrix(1,0,0,1,-208.02791,-86.53575)"/><path d="M222.52147,175.28316c0,0 -0.51741,-4.28359 -0.05099,-6.35347c0.50276,-2.23112 2.53442,-4.66733 2.53442,-4.66733c0,0 -0.32959,2.27756 0.12459,4.37849c0.37607,1.73958 2.00282,5.46233 2.00282,5.46233z" data-paper-data="{&quot;origPos&quot;:null}" fill="#ff0000" stroke-width="0" stroke="none" transform="matrix(1,0,0,1,-208.02791,-86.53575)"/><path d="M223.89452,172.56531c0,0 4.29033,-0.4581 6.35357,0.03691c2.22395,0.53358 4.63181,2.59876 4.63181,2.59876c0,0 -2.27279,-0.36106 -4.37979,0.06401c-1.74461,0.35196 -5.48951,1.92706 -5.48951,1.92706z" data-paper-data="{&quot;origPos&quot;:null,&quot;origRot&quot;:0}" fill="#ff0000" stroke-width="0" stroke="none" transform="matrix(1,0,0,1,-208.02791,-86.53575)"/><path d="M222.49246,175.37309c-0.33477,-1.30811 0.45428,-2.63993 1.76239,-2.9747c1.30811,-0.33477 2.63993,0.45428 2.9747,1.76239c0.33477,1.30811 -0.45428,2.63993 -1.76239,2.9747c-1.30811,0.33477 -2.63993,-0.4543 -2.97468,-1.76241z" data-paper-data="{&quot;origPos&quot;:null}" fill="url(#color-2)" stroke-width="0" stroke="none" transform="matrix(1,0,0,1,-208.02791,-86.53575)"/></g><path d="M 1.25 27.2547 L 10.8125 33.5887 " fill="none" stroke="#000000" stroke-width="2.5" stroke-linecap="round"/><path d="M 12.7773 27.8984 L 5.8203 38.4014 " fill="none" stroke="#000000" stroke-width="2.5" stroke-linecap="round"/></g></g></svg>