<svg version="1.1" xmlns="http://www.w3.org/2000/svg" xmlns:xlink="http://www.w3.org/1999/xlink" width="23.57241" height="25.55983" viewBox="0,0,23.57241,25.55983"><g transform="translate(-229.72663,-168.31284)"><g data-paper-data="{&quot;isPaintingLayer&quot;:true}" fill="#ffffff" fill-rule="nonzero" stroke="#ffffff" stroke-width="1" stroke-linecap="butt" stroke-linejoin="miter" stroke-miterlimit="10" stroke-dasharray="" stroke-dashoffset="0" style="mix-blend-mode: normal"><path d="M239.71003,173.05389c0,0 -0.09806,-0.49029 0.39223,-0.58835c0.07531,-0.01506 0.14137,-0.01624 0.19924,-0.00745c0.01815,-0.00149 0.03704,-0.00226 0.05671,-0.00226c0.5,0 0.5,0.5 0.5,0.5c-0.00208,0.31676 -0.07988,1.1095 0.18286,0.93255c2.07187,-1.39531 3.73197,-3.30642 5.94848,-4.53948c2.82734,-1.57287 2.65537,0.62237 1.60104,2.6284c-0.00348,0.00662 -0.77282,1.40098 -0.84904,1.53913c-0.60818,1.06328 -1.29832,2.0817 -2.00236,3.08486c-0.33445,0.47655 -1.74144,1.19157 -1.169,1.29769c1.78391,0.33071 4.14927,-0.15015 5.97868,-0.21388c0.40499,-0.01411 2.08528,-0.17745 2.25017,0.24532c0.57083,1.46352 -2.53025,1.40673 -3.18113,1.51493c-0.96375,0.24092 -1.91059,0.39291 -2.85615,0.6996c-0.17113,0.05551 -1.5506,0.49958 -1.62456,0.53213c-1.6546,0.72824 -2.11185,1.83494 -0.42384,2.91989c2.28908,1.47128 6.03394,1.77879 7.34069,4.32122c-2.31368,1.57511 -5.34829,-0.71518 -7.74867,-1.5798c-0.49628,-0.17876 -1.80328,-0.78896 -2.35383,-0.5974c-1.86456,0.64876 0.31882,7.47108 -3.10732,5.66075c-0.57401,-2.0078 -0.32964,-4.0659 0.61931,-5.86119c-0.32266,0.10379 -0.66869,0.17969 -0.94787,0.28776c-2.17772,0.84299 -4.28948,1.56873 -6.65316,1.67921c-2.90293,0.13569 -0.88505,-2.19926 0.33359,-2.9742c0.56703,-0.36058 1.12482,-0.78515 1.72322,-1.09573c0.90444,-0.46941 1.90583,-0.75576 2.86722,-1.08021c1.60427,-0.6141 0.61661,-1.16478 -0.94698,-1.59087c-1.12036,-0.09163 -2.38398,-0.34599 -3.3072,-0.66948c-0.48187,-0.07809 -0.87627,-0.13743 -1.1064,-0.17572l-0.00742,-0.00402l-0.0005,0.0025l-0.78039,-0.15608c-0.23369,-0.04197 -0.41102,-0.24633 -0.41102,-0.49211c0,-0.27614 0.22386,-0.5 0.5,-0.5c0.03715,0 0.07335,0.00405 0.10818,0.01173l0.77344,0.15469c0.29493,0.04929 0.73942,0.13268 1.26599,0.24576c0.80476,0.10093 1.61295,0.26582 2.51411,0.33114c0.2927,0.02122 2.13567,0.2641 2.32171,0.13171c0.35393,-0.25187 -0.30577,-1.67394 -0.34434,-1.77318c-0.78379,-2.01665 -1.93224,-3.89847 -2.84695,-5.85513l0.00104,-0.05028l-0.0151,0.00378l-0.15518,-0.6207c-0.01151,-0.04209 -0.01765,-0.0864 -0.01765,-0.13215c0,-0.27614 0.22386,-0.5 0.5,-0.5c0.10506,0 0.20256,0.03241 0.28304,0.08777l0.468,0.312l-0.07493,0.11239c1.73342,0.96305 3.26428,2.88306 4.61877,4.25892c-0.17274,-0.80373 -0.25322,-1.61932 -0.41674,-2.43618zM241.15907,175.51877l0.01493,0.59495c0,0 0,0.38122 -0.33287,0.47791c-0.02387,0.06238 -0.06484,0.1269 -0.12937,0.19143c-0.35355,0.35355 -0.70711,0 -0.70711,0l-0.47368,-0.47368c-0.42133,-0.42133 -1.84447,-1.57377 -2.96604,-2.65128c1.32087,2.31984 3.06155,5.64932 1.70458,6.81743c-0.12426,0.10697 -0.3181,0.18529 -0.56329,0.2385c1.40809,0.74106 1.84661,1.64362 -0.57993,2.58387c-0.91751,0.30984 -1.88289,0.57836 -2.74602,1.02712c-0.53829,0.27987 -1.1406,0.73152 -1.64943,1.05332c-2.92472,1.84967 -0.03975,1.06211 1.73463,0.74916c1.93735,-0.34169 3.66979,-1.32619 5.54603,-1.86509l-0.03479,-0.06958l0.62258,-0.31129c0.06948,-0.03658 0.14862,-0.05728 0.2326,-0.05728c0.27614,0 0.5,0.22386 0.5,0.5c0,0.10506 -0.03241,0.20256 -0.08777,0.28304l-0.312,0.468l-0.00322,-0.00215l-0.00284,0.01103c-1.24338,1.69458 -1.62353,3.64876 -1.26794,5.72111c0.04162,-0.26201 0.3343,-1.67494 0.36845,-1.84599c0.24511,-1.22763 0.22649,-3.57267 1.58038,-4.15703c0.77572,-0.33482 2.32199,0.33873 3.03667,0.59509c1.97326,0.70781 3.84923,1.65968 5.84451,2.14938c-0.71283,-0.28041 -1.51341,-0.93344 -2.11075,-1.18158c-1.84218,-0.76524 -7.90609,-2.74514 -5.22247,-5.70244c0.9105,-1.00336 2.62218,-1.44679 4.1957,-1.76881c-0.64261,-0.03404 -1.25392,-0.0689 -1.78189,-0.06964c-0.49141,-0.00069 -1.54222,0.06365 -1.84356,-0.39052c-0.58744,-0.88536 2.64907,-4.53915 3.14443,-5.40692c0.27856,-0.50493 0.5675,-1.00428 0.83579,-1.51474c0.33492,-0.63724 1.51043,-1.99517 0.79068,-2.00974c-0.09132,-0.00185 -1.80989,1.15396 -1.86688,1.18949c-1.11362,0.69434 -4.03994,3.75947 -5.65715,3.91238c0.05116,0.30824 0.10983,0.61396 0.18702,0.91458z"/></g></g></svg>