<svg xmlns="http://www.w3.org/2000/svg" xmlns:xlink="http://www.w3.org/1999/xlink" version="1.1" width="12.93254" height="25.56319" viewBox="0,0,12.93254,25.56319"><g><g data-paper-data="{&quot;isPaintingLayer&quot;:true}" fill-rule="nonzero" stroke-linejoin="miter" stroke-miterlimit="10" stroke-dasharray="" stroke-dashoffset="0" style="mix-blend-mode: normal"><g data-paper-data="{&quot;index&quot;:null}"><path d="M 7.3613 9.971 C 6.7204 8.2224 9.1011 7.0158 9.313 5.6364 C 9.5249 4.257 9.7917 1.0758 9.7917 1.0758 C 9.7917 1.0758 12.6186 3.5597 12.6826 5.633 C 12.7378 7.4229 11.8952 8.943 10.8367 9.7939 C 9.7783 10.6449 8.0021 11.7196 7.3613 9.971 Z " fill="#985900" stroke-linecap="butt" stroke-width="0.5" stroke="#7f4a00"/><path d="M 9.8075 2.9575 L 11.0797 2.7725 " fill="none" stroke-linecap="round" stroke-width="0.5" stroke="#7f4a00"/><path d="M 9.6276 4.9292 L 12.2939 4.593 " fill="none" stroke-linecap="round" stroke-width="0.5" stroke="#7f4a00"/><path d="M 12.6334 6.5383 L 9.3312 6.1859 " fill="none" stroke-linecap="round" stroke-width="0.5" stroke="#7f4a00"/><path d="M 11.7026 8.7085 L 8.7849 7.2551 " fill="none" stroke-linecap="round" stroke-width="0.5" stroke="#7f4a00"/><path d="M 7.7951 8.2668 L 10.2077 10.0262 " fill="none" stroke-linecap="round" stroke-width="0.5" stroke="#7f4a00"/></g><path d="M 6.5065 25.415 C 6.5065 25.415 6.7658 23.3679 6.7658 22.3149 C 6.7658 21.2213 6.5065 18.9706 6.5065 18.9706 L 10.1362 18.9706 C 10.1362 18.9706 9.7287 21.2156 9.7287 22.3149 C 9.7287 23.3612 10.1362 25.415 10.1362 25.415 Z " fill="#000000" stroke="none" stroke-width="1" stroke-linecap="butt"/><path d="M 11.6799 14.8665 C 11.6799 18.8619 9.1993 20.4069 6.1394 20.4069 C 3.0795 20.4069 0.599 18.8619 0.599 14.8665 C 0.599 10.871 3.009 5.8676 6.0689 5.8676 C 9.1288 5.8676 11.6799 10.871 11.6799 14.8665 Z " data-paper-data="{&quot;index&quot;:null}" fill="#ffffee" stroke="#000000" stroke-width="1" stroke-linecap="butt"/><path d="M 4.0321 13.0555 C 3.5824 14.0286 2.7159 14.5854 2.0967 14.2992 C 1.4775 14.013 1.3401 12.9922 1.7898 12.0192 C 2.2395 11.0461 3.106 10.4893 3.7252 10.7755 C 4.3445 11.0617 4.4819 12.0825 4.0321 13.0555 Z " data-paper-data="{&quot;index&quot;:null}" fill="#4848ab" stroke="#3b3b8d" stroke-width="1" stroke-linecap="butt"/><path d="M 10.2159 16.9485 C 10.0227 17.9434 9.5681 18.7836 8.769 18.7836 C 7.9699 18.7836 7.3221 17.962 7.3221 16.9485 C 7.3221 15.9351 7.8274 15.3249 8.769 15.1135 C 11.5452 14.4903 10.3576 16.2185 10.2159 16.9485 Z " data-paper-data="{&quot;index&quot;:null}" fill="#4848ab" stroke="#3b3b8d" stroke-width="1" stroke-linecap="butt"/><path d="M 1.6406 16.7368 C 2.2837 16.7368 2.8051 17.2424 2.8051 17.8661 C 2.8051 18.0925 2.1593 18.7463 1.8865 18.5438 C 1.5639 18.3042 0.8968 17.344 0.9357 16.8887 C 0.9545 16.6686 1.5071 16.7368 1.6406 16.7368 Z " data-paper-data="{&quot;index&quot;:null}" fill="#4848ab" stroke="#3b3b8d" stroke-width="1" stroke-linecap="butt"/><path d="M 6.182 6.7279 C 6.7428 6.2492 7.6959 6.9462 8.5733 8.3655 C 8.8217 8.7673 10.27 10.1994 7.9932 11.689 C 7.3762 12.0927 6.5619 11.5087 6.0487 10.217 C 5.5355 8.9253 5.6213 7.2067 6.182 6.7279 Z " data-paper-data="{&quot;index&quot;:null}" fill="#4848ab" stroke="#3b3b8d" stroke-width="1" stroke-linecap="butt"/><path d="M 11.6799 14.8665 C 11.6799 18.8619 9.1993 20.4069 6.1394 20.4069 C 3.0795 20.4069 0.599 18.8619 0.599 14.8665 C 0.599 10.871 3.0089 5.8676 6.0688 5.8676 C 9.1287 5.8676 11.6799 10.871 11.6799 14.8665 Z " data-paper-data="{&quot;index&quot;:null}" fill="none" stroke="#000000" stroke-width="1" stroke-linecap="butt"/><path d="M 1.9139 25.5632 C 1.9139 25.5632 2.2102 23.6506 2.2102 22.6112 C 2.2102 21.5065 1.9139 19.1188 1.9139 19.1188 L 5.5436 19.1188 C 5.5436 19.1188 5.2102 21.4379 5.2102 22.5371 C 5.2102 23.5834 5.5436 25.5632 5.5436 25.5632 Z " fill="#000000" stroke="none" stroke-width="1" stroke-linecap="butt"/><g><path d="M 1.6295 9.0064 C 0.6848 8.0306 0.0375 6.4177 0.3146 4.6485 C 0.6355 2.5991 3.7489 0.4855 3.7489 0.4855 C 3.7489 0.4855 3.6186 3.6752 3.6576 5.0702 C 3.6966 6.4652 5.9091 7.9582 5.0561 9.6137 C 4.2031 11.2691 2.5741 9.9822 1.6295 9.0064 Z " fill="#985900" stroke-linecap="butt" stroke-width="0.5" stroke="#7f4a00"/><path d="M 2.2602 2.0091 L 3.4996 2.3506 " fill="none" stroke-linecap="round" stroke-width="0.5" stroke="#7f4a00"/><path d="M 0.8293 3.6648 L 3.4333 4.3294 " fill="none" stroke-linecap="round" stroke-width="0.5" stroke="#7f4a00"/><path d="M 0.251 5.5529 L 3.5714 5.6132 " fill="none" stroke-linecap="round" stroke-width="0.5" stroke="#7f4a00"/><path d="M 3.9807 6.7419 L 0.9051 7.8218 " fill="none" stroke-linecap="round" stroke-width="0.5" stroke="#7f4a00"/><path d="M 4.8372 7.8687 L 2.2248 9.315 " fill="none" stroke-linecap="round" stroke-width="0.5" stroke="#7f4a00"/></g><path d="M 0.9751 15.5573 L 2.7751 16.2773 L 4.6151 14.5573 L 6.1751 15.1573 L 7.3751 12.8373 " fill="none" stroke="#000000" stroke-width="0.5" stroke-linecap="round"/><path d="M 4.7751 14.5573 L 5.1751 12.4773 L 4.3751 11.6373 " fill="none" stroke="#000000" stroke-width="0.5" stroke-linecap="round"/><path d="M 9.8951 8.7573 L 8.4151 9.5973 L 8.4151 10.4773 " fill="none" stroke="#000000" stroke-width="0.5" stroke-linecap="round"/><path d="M 8.5751 9.5573 L 8.0151 9.0773 " fill="none" stroke="#000000" stroke-width="0.5" stroke-linecap="round"/><path d="M 10.2551 18.4373 L 8.6151 16.4373 L 6.7751 17.2773 " fill="none" stroke="#000000" stroke-width="0.5" stroke-linecap="round"/><path d="M 8.8551 16.3573 L 9.3751 14.5173 " fill="none" stroke="#000000" stroke-width="0.5" stroke-linecap="round"/><path d="M 3.6551 3.1173 L 2.9351 3.7173 L 3.0951 4.9173 L 2.4551 5.3173 " fill="none" stroke="#000000" stroke-width="0.5" stroke-linecap="round"/><path d="M 5.1351 9.8773 L 6.1751 10.3973 L 6.5751 11.0773 L 7.1751 11.0373 " fill="none" stroke="#000000" stroke-width="0.5" stroke-linecap="round"/><path d="M 6.2151 10.1973 L 6.4151 8.9973 L 6.0951 8.3973 L 7.1751 7.7973 " fill="none" stroke="#000000" stroke-width="0.5" stroke-linecap="round"/><path d="M 3.0151 16.4373 L 4.3351 16.7173 L 4.4551 17.6773 " fill="none" stroke="#000000" stroke-width="0.5" stroke-linecap="round"/><path d="M 10.6951 11.5973 L 9.9351 11.7973 L 9.7351 12.5973 " fill="none" stroke="#000000" stroke-width="0.5" stroke-linecap="round"/></g></g></svg>