<svg xmlns="http://www.w3.org/2000/svg" xmlns:xlink="http://www.w3.org/1999/xlink" version="1.1" width="124.05234" height="95.92272" viewBox="0,0,124.05234,95.92272"><defs><linearGradient x1="235.96074" y1="115.07812" x2="235.96074" y2="168.53524" gradientUnits="userSpaceOnUse" id="color-1"><stop offset="0" stop-color="#fffcbb" stop-opacity="0"/><stop offset="1" stop-color="#fffcbb"/></linearGradient></defs><g><g data-paper-data="{&quot;isPaintingLayer&quot;:true}" fill-rule="nonzero" stroke-linecap="butt" stroke-linejoin="miter" stroke-miterlimit="10" stroke-dasharray="" stroke-dashoffset="0" style="mix-blend-mode: normal"><path d="M207.23102,167.24997v-8.58933h76.08664v8.58933z" data-paper-data="{&quot;origPos&quot;:null}" fill="#a61e96" stroke="none" stroke-width="0" transform="matrix(1,0,0,1,-173.93457,-115.07813)"/><path d="M201.60671,210.83566v-39.43283h55.83063v39.43283z" data-paper-data="{&quot;origPos&quot;:null}" fill="#f03cdb" stroke="none" stroke-width="0" transform="matrix(1,0,0,1,-173.93457,-115.07813)"/><path d="M194.3839,210.83566v-44.50834h8.58934v44.50834z" data-paper-data="{&quot;origPos&quot;:null}" fill="#a61e96" stroke="none" stroke-width="0" transform="matrix(1,0,0,1,-173.93457,-115.07813)"/><path d="M256.85168,210.83566v-44.50834l7.57582,0.0969l4.02535,-1.85381l0.11155,44.21553l-3.16844,2.2149z" data-paper-data="{&quot;origPos&quot;:null}" fill="#a61e96" stroke="none" stroke-width="0" transform="matrix(1,0,0,1,-173.93457,-115.07813)"/><path d="M197.8977,174.91664v-8.58933h64.41997v8.58933z" data-paper-data="{&quot;origPos&quot;:null}" fill="#a61e96" stroke="none" stroke-width="0" transform="matrix(1,0,0,1,-173.93457,-115.07813)"/><path d="M267.9788,209.25444v-44.43001l13.43058,-7.82826l-0.08785,42.21083z" data-paper-data="{&quot;origPos&quot;:null}" fill="#f03cdb" stroke="none" stroke-width="0" transform="matrix(1,0,0,1,-173.93457,-115.07813)"/><path d="M281.2727,199.25958l-0.14641,-41.97058l4.48987,-2.73296v41.23855z" data-paper-data="{&quot;origPos&quot;:null}" fill="#a61e96" stroke="none" stroke-width="0" transform="matrix(1,0,0,1,-173.93457,-115.07813)"/><path d="M267.58835,173.60724v-8.97975l14.25048,-8.00369v8.78454z" data-paper-data="{&quot;origPos&quot;:null}" fill="#a61e96" stroke="none" stroke-width="0" transform="matrix(1,0,0,1,-173.93457,-115.07813)"/><path d="M 30.4035 22.277 C 30.4035 22.277 34.8775 23.464 37.7006 25.2718 C 43.4623 28.9614 45.861 36.9208 41.794 42.4227 C 38.7601 46.5271 35.1946 44.3119 35.1946 44.3119 Z " data-paper-data="{&quot;origPos&quot;:null,&quot;origRot&quot;:0}" fill="#ef00d3" stroke="#920081" stroke-width="4.5"/><path d="M216.00722,159.20392c0,0 3.17126,-7.66763 2.56042,-10.1112c-0.77447,-3.09819 -2.60975,-7.14631 -4.9462,-9.23306c-2.50831,-2.24023 -9.99337,-4.26846 -9.99337,-4.26846l65.72818,-1.00497c0,0 10.36864,3.20962 12.57273,5.48846c2.06107,2.13098 5.0261,7.62204 5.89651,10.50441c0.87041,2.88237 -4.21513,8.45751 -4.21513,8.45751z" data-paper-data="{&quot;origPos&quot;:null,&quot;index&quot;:null}" fill="#f03cdb" stroke="none" stroke-width="0" transform="matrix(1,0,0,1,-173.93457,-115.07813)"/><g data-paper-data="{&quot;origRot&quot;:0,&quot;origPos&quot;:null}"><path d="M 97.4337 20.6251 C 97.4337 20.6251 101.8578 20.8471 105.0418 21.8957 C 108.2873 22.9647 110.1744 24.3838 111.7513 27.4152 C 114.1184 31.9657 115.2788 35.085 113.3518 39.8386 C 111.4342 44.5687 107.4298 43.3102 107.4298 43.3102 Z " data-paper-data="{&quot;origPos&quot;:null}" fill="#f03cdb" stroke="#a61e96" stroke-width="4.5"/><path d="M273.00649,138.92011c0.0883,-1.77671 2.77865,-3.08687 6.00904,-2.92632c3.23039,0.16055 7.60124,8.85797 7.51294,10.63469c-0.08619,1.73405 -0.21157,2.3581 -1.22197,0.94622c-0.96897,-1.35399 -2.71031,-4.6251 -4.13953,-5.47925c-0.86352,-0.51606 -1.59445,-0.66959 -2.56309,-0.94111c-1.14864,-0.32199 -1.64175,-0.48797 -2.83319,-0.54719c-3.23039,-0.16055 -2.85249,0.08966 -2.76418,-1.68705z" data-paper-data="{&quot;origPos&quot;:null}" fill="#a61e96" stroke="none" stroke-width="0" transform="matrix(1,0,0,1,-173.93457,-115.07813)"/></g><path d="M194.25506,175.60723v-8.97975l14.25048,-8.00369v8.78454z" data-paper-data="{&quot;origPos&quot;:null}" fill="#a61e96" stroke="none" stroke-width="0" transform="matrix(1,0,0,1,-173.93457,-115.07813)"/><path d="M198.13337,168.06668l12.23333,-7.66667l68.16667,-0.3l-12.73333,8.23333z" data-paper-data="{&quot;origPos&quot;:null}" fill="#fffccc" stroke="none" stroke-width="0" transform="matrix(1,0,0,1,-173.93457,-115.07813)"/><path d="M198.51088,167.87365l-24.5763,-39.04367c0,0 34.13739,-13.62765 60.30584,-13.75117c26.02996,-0.12287 63.7465,16.25458 63.7465,16.25458l-31.98796,37.20185z" data-paper-data="{&quot;origPos&quot;:null,&quot;origRot&quot;:0}" fill="url(#color-1)" stroke="none" stroke-width="NaN" transform="matrix(1,0,0,1,-173.93457,-115.07813)"/></g></g></svg>