<svg version="1.1" xmlns="http://www.w3.org/2000/svg" xmlns:xlink="http://www.w3.org/1999/xlink" width="348.02201" height="71.7144" viewBox="0,0,348.02201,71.7144"><g transform="translate(-76.08299,1.5)"><g data-paper-data="{&quot;isPaintingLayer&quot;:true}" stroke-linecap="butt" stroke-linejoin="miter" stroke-miterlimit="10" stroke-dasharray="" stroke-dashoffset="0" style="mix-blend-mode: normal"><path d="M89.03233,67.7144v-66.7144h303.3682v66.7144z" data-paper-data="{&quot;origPos&quot;:null}" fill="#aba75e" fill-rule="nonzero" stroke="#7d7536" stroke-width="5"/><text transform="translate(135.55603,38.01041) scale(0.5,0.5)" font-size="40" xml:space="preserve" fill="#ffffff" fill-rule="nonzero" stroke="none" stroke-width="1" stroke-linecap="butt" stroke-linejoin="miter" stroke-miterlimit="10" stroke-dasharray="" stroke-dashoffset="0" font-family="Serif" font-weight="normal" text-anchor="start" style="mix-blend-mode: normal"><tspan x="0" dy="0">Welcome back, GalaDino!</tspan></text><g fill-rule="nonzero" stroke="none" stroke-width="1"><path d="M90.14926,61.98734c-0.40715,1.79213 -0.9722,3.78761 -2.72217,4.6647c-1.78839,0.89396 -4.169,0.83399 -6.13683,0.99094c-0.95534,0.07356 -1.89287,0.02905 -2.85758,0.05013c-0.69062,0.01359 -1.7495,0.17617 -2.34969,-0.24973c0.66157,-0.28252 1.39482,-0.30548 2.04327,-0.65407c0.57629,-0.34062 1.11698,-0.73794 1.61456,-1.18632c0.75621,-0.63908 1.56255,-1.45198 1.92941,-2.39045c0.9202,-2.36327 0.05201,-6.33689 0.37436,-8.79106c0.18507,-0.06794 7.16526,-3.98955 9.81387,-3.78011c0.34718,0.77401 -1.4487,10.21727 -1.7092,11.34597z" fill="#3f8c00"/><path d="M106.28456,46.91326h7.13808c-1.66469,8.48136 -3.10215,18.00052 -3.26004,19.77532c0.53225,0.18413 1.0378,0.02343 1.52788,0.06419c0.01734,0.1757 0.03092,0.31532 0.04826,0.49711c-0.69858,-0.04076 -3.685,0.0834 -4.39295,-0.10636c0,-0.60206 -1.06122,-20.23027 -1.06122,-20.23027z" fill="#3f8c00"/><path d="M82.06803,52.07367c0.05997,-4.38593 -0.15602,-10.41921 3.27972,-13.74251c0.63111,-0.60956 1.4993,-0.96752 2.17258,-1.47306c1.02608,-0.77401 2.23771,-1.33906 3.27972,-2.10746c0.33734,-0.24598 1.005,-0.8129 1.005,-0.8129l1.27347,-0.67937l-0.05248,-1.18679c0,0 0.87428,-2.3942 1.01671,-3.1818c0.938,-5.14261 -0.05013,-10.45201 0.90895,-15.60445c0.10401,-0.56505 0.23145,-1.17648 0.36264,-1.75137l14.2012,-1.79823l14.61023,0.96752c1.69936,1.26972 -0.20662,3.00797 -1.60894,3.67751c-0.82602,0.39685 -1.5916,0.77448 -2.29581,1.38029c-0.15274,0.13166 -1.42949,1.11276 -1.85211,2.3689c-0.64236,1.91817 -0.47087,4.48479 -0.51539,5.72921c-0.08293,2.34406 0.04826,4.71109 0.13728,7.05328c0.17523,4.63565 0.36452,9.09701 -0.33406,13.70362c-0.31813,2.10746 -0.66157,4.10902 -1.94816,5.8604c-1.35078,1.83711 -2.95409,3.35235 -5.13792,4.14229c-4.03593,1.4576 -22.93885,0.99469 -24.2737,0.85741c-1.3892,-0.14337 -2.84352,0.08902 -4.21726,-0.08527c-0.20053,-1.02562 -0.02717,-2.26816 -0.01171,-3.31721z" fill="#65ab1f"/><path d="M101.84429,46.38289c0,0 -4.95004,17.5765 -4.95004,20.55168c0.26613,0.04638 1.66095,-0.14524 1.86335,0.14337c-0.16961,0.59035 -3.60582,0.21084 -4.30206,0.09652c-0.21412,-0.64048 -1.09964,-20.26119 -1.09964,-20.26119z" fill="#65ab1f"/><path d="M123.30304,21.81917c0.28393,0.07918 0.03092,3.02344 0,4.1615c-0.03467,1.27909 -0.06559,2.56474 -0.14056,3.84009c-0.07918,1.3489 -0.61378,2.77371 -1.8582,3.60207c-0.36264,0.24176 -2.22787,1.10292 -3.8176,1.23083c-2.28644,0.18601 -3.92255,-0.51866 -4.5396,-0.55755l-0.15227,-0.26519c0.04357,-0.62971 0.0506,-1.26176 0.02108,-1.89287c0.49383,-0.08902 2.46729,0.81103 4.32314,0.65829c1.8254,-0.14899 3.53648,-1.34937 3.81057,-1.81931c0.47087,-0.80728 0.60769,-1.72092 0.64798,-2.64205c0.04451,-1.02983 0,-2.06529 0.01734,-3.097c0.01171,-0.76277 -0.26425,-3.41232 0.02905,-3.41232c0.2933,0 0.09652,1.25613 0.4109,1.27722c0.31438,0.02155 0.23755,-1.31798 0.41278,-1.31798c0.1757,0 0.03889,1.37842 0.31485,1.37842c0.27362,0 0.23708,-1.22334 0.52054,-1.14415z" fill="#65ab1f"/><path d="M102.45947,21.62566c0.28393,0.07918 0.03092,3.02344 0,4.1615c-0.03467,1.27909 -0.06559,2.56427 -0.14056,3.84009c-0.07918,1.3489 -0.7951,3.00188 -2.03952,3.83212c-0.35655,0.24223 -2.04655,0.87287 -3.63628,1.00078c-2.28034,0.18601 -4.82307,-0.5285 -4.82307,-0.5285l1.22099,-1.86569c1.05607,0.31766 2.16227,0.43199 3.26051,0.33687c1.82493,-0.14899 3.53648,-1.34937 3.8101,-1.81931c0.47087,-0.80728 0.60769,-1.72092 0.64845,-2.64205c0.04404,-1.02983 0,-2.06529 0.01734,-3.097c0.01171,-0.76277 -0.26425,-3.41232 0.02905,-3.41232c0.29283,0 0.09605,1.25613 0.4109,1.27722c0.31438,0.02155 0.23708,-1.31798 0.41278,-1.31798c0.1757,0 0.03842,1.37795 0.31438,1.37795c0.27409,0 0.23145,-1.22287 0.51492,-1.14369z" fill="#3f8c00"/><g><path d="M118.83466,10.36872c-0.03514,1.1554 -0.14665,2.22787 -0.80681,3.21881l-0.52054,0.24551c-1.41825,-0.29424 -1.42199,-2.4523 -1.19804,-3.54163c0.87006,0.06185 1.67266,-0.04264 2.52539,0.07731z" fill="#ffffff"/><path d="M119.63913,9.88098h1.63986c0.88318,4.43981 -2.88616,4.17884 -1.63986,0z" fill="#ffffff"/><path d="M113.84713,9.24612h1.63986c0.88365,4.43981 -2.88616,4.18071 -1.63986,0z" fill="#dcd2b4"/><path d="M111.44919,8.97905h1.64174c0.88178,4.43981 -2.88803,4.17884 -1.64174,0z" fill="#ffffff"/><path d="M109.09388,8.57846h1.64174c0.87381,4.43981 -2.89412,4.17837 -1.64174,0z" fill="#ffffff"/><path d="M122.0352,9.51318h1.64174c0.88178,4.43981 -2.88803,4.18071 -1.64174,0z" fill="#faf0e6"/><path d="M107.50977,0.25358c1.23271,-0.05997 2.46963,-0.0328 3.70421,-0.07356c2.77043,-0.09277 5.53289,0.02296 8.3052,-0.07543c1.36811,0.2591 2.78214,0.13353 4.16712,0.42355c1.19054,0.24692 2.32673,0.70561 3.35516,1.35499c1.96034,1.22896 3.12932,3.78199 3.25067,6.04875c0.05622,1.05841 -0.20615,2.28362 -1.18445,2.8646c-1.08418,0.64236 -2.70109,0.38701 -3.89537,0.4198c-3.08669,0.06606 -6.17338,0.10636 -9.26006,0.06419l-20.61587,0.25722c0.39685,-1.83805 0.98345,-3.62972 1.7495,-5.34595c0.93144,-2.08169 2.59707,-3.74497 4.67642,-4.66845c1.6422,-0.7609 5.2574,-1.24442 5.74748,-1.26972z" fill="#3f8c00"/><path d="M127.06254,8.51239c0.72763,0 1.6572,0.54022 1.1807,1.42855c-0.4184,0.78385 -1.39107,0.3425 -1.66657,-0.3097c0.06934,-0.40715 0.23614,-0.79088 0.48587,-1.11885z" fill="#2e6500"/><path d="M124.3638,10.05527c-0.83352,0.54771 -1.50305,-0.59035 -1.10152,-1.30486l0.51117,-0.38701c0.83727,-0.01359 1.38123,1.17883 0.59035,1.69187z" fill="#2e6500"/><path d="M131.13783,6.1613c-0.01593,-0.20053 0.08059,-0.3931 0.2502,-0.49992c0.38373,0.08527 0.21224,0.72013 0.07543,0.9544c-0.1846,-0.07871 -0.31017,-0.25394 -0.32563,-0.45448z" fill="#000000"/><path d="M111.74436,6.08118c0.6194,0.26144 0.06185,1.48478 -0.51679,0.71076c0.02296,-0.39497 0.1832,-0.61003 0.51679,-0.71076z" fill="#000000"/></g></g><g data-paper-data="{&quot;index&quot;:null}" fill-rule="evenodd" stroke="none" stroke-width="1"><path d="M378.96645,51.83967c0,0 1.70797,12.70618 2.02245,16.01006c-0.54221,0.16483 -4.17864,0.06687 -4.72808,0.01807c-0.74102,-1.854 -3.22435,-16.61155 -3.22435,-16.61155z" fill="#008264"/><path d="M396.58109,51.83967c0,0 0.95248,12.82583 1.26516,16.12971c-0.54221,0.16302 -4.00514,-0.05458 -4.55458,-0.10338c-0.74283,-1.85581 -2.07486,-16.53383 -2.07486,-16.53383z" fill="#008264"/><path d="M424.09471,35.48368c-0.07772,0.54546 -0.5874,0.54908 -1.08442,0.67234c-1.01574,0.25375 -1.90135,0.63077 -2.46164,1.60386c-0.88923,1.54422 -0.52233,3.99248 -0.23315,5.67081c0.77717,4.39553 1.2948,8.83299 1.55072,13.2896c0.20062,3.73511 -0.30906,7.53023 -3.17013,9.92066c-2.79962,2.33946 -8.48019,2.4067 -11.68104,0.69403c-3.85874,-2.06438 -3.92923,-13.71542 -4.36119,-17.44873c2.14535,-1.69821 5.52513,-5.87938 5.57032,-7.31624c0.20243,1.48783 0.67596,6.8015 0.7356,8.29656c0.05964,1.49506 0.16809,2.97746 0.24038,4.47469c0.07772,1.5547 0.20062,3.08085 0.80067,4.54699c0.60005,1.46614 2.51225,2.5643 4.40637,2.5643c0.82235,0 2.21764,-1.28866 2.6731,-3.80596c0.59101,-3.28183 0.11206,-8.08257 0,-8.9436c-0.28918,-2.23825 -0.50968,-4.45083 -0.61812,-6.70535c-0.10302,-2.17499 -0.18074,-5.09606 1.05912,-7.00465c1.26516,-1.94979 3.65631,-2.0351 5.71852,-1.61651c0.46449,0.09434 0.94164,0.60908 0.85489,1.1072z" fill="#005a5a"/><g><path d="M367.54928,43.07718c-1.04647,2.43055 -2.66045,4.31347 -5.35886,4.80652c-2.12366,0.38931 -5.15101,0.56535 -5.57574,-2.10776c0.01807,-0.04555 0.20243,-0.91164 0.24038,-1.00418z" fill="#00a08c"/><path d="M363.24412,44.09762c-0.4175,1.07466 -1.26877,2.07522 -2.32247,2.45947c-1.03562,0.36979 -2.17788,0.28954 -3.15206,-0.22122c-1.08442,-0.56715 -0.62897,-1.67833 -0.6615,-1.90099z" fill="#000000"/><path d="M360.72103,44.93841c0,0 0.0741,0.73235 -0.3922,1.0602c-0.32388,0.23279 -0.77066,0.18291 -1.03562,-0.11567c-0.18074,-0.22303 -0.36147,-0.97526 -0.36147,-0.97526z" fill="#ffffff"/></g><path d="M408.58565,45.71594c0.00181,1.48241 -0.3669,5.70153 -3.09241,9.31339c-2.72552,3.61185 -10.45564,3.11735 -10.50625,3.16073c-2.14354,0.25195 -14.3686,0.00181 -15.62292,-0.42762c-1.06996,-0.36617 -3.01831,-0.43847 -4.76965,-2.43959c-1.75134,-2.00076 -2.24114,-6.17796 -2.18511,-9.03035c0.0253,-1.37577 2.10559,-18.22987 2.63876,-23.10146c0.24761,-2.26355 0.26388,-4.5253 -0.16447,-6.76897c-0.30545,-1.60748 -0.9326,-3.708 -2.33874,-4.71182c-1.70254,-1.21636 -3.55871,0.39871 -4.24732,1.96787c-0.80247,1.8287 -1.07177,4.10309 -1.10611,6.08217c-0.06868,4.01959 0.5151,8.02473 1.06635,11.99372c0.48799,3.52148 0.69584,7.97412 -0.70849,11.31415c-1.1766,0.68716 -1.80376,0.70524 -3.20447,1.34107c-1.99895,0.90622 -4.21479,1.08768 -4.84737,1.13828c-0.90369,0.06904 -1.98992,-0.00723 -2.8448,-0.34268c-1.90316,-0.75187 -2.71286,-3.60824 -1.50735,-5.28259c0.67415,-0.93694 1.82906,-0.86826 2.7472,-1.40288c0.98682,-0.57438 1.85798,-1.75062 2.30982,-2.77829c1.00309,-2.26897 0.66692,-4.66121 0.12471,-7.00067c-0.44461,-1.92847 -1.03382,-3.97622 -1.08442,-5.96975c-0.05097,-2.27837 0.07989,-4.55711 0.39039,-6.81415c0.56029,-4.09044 2.61527,-8.53802 5.9083,-11.12401c3.4069,-2.68756 8.09522,-3.38557 11.92865,-1.18708c1.99895,1.14551 3.80632,3.36171 4.44613,5.62346c0.60185,2.11318 0.58559,4.24082 0.54221,6.39376c-0.04338,2.1533 -0.45907,3.91115 -0.65427,6.05325c-0.17712,1.91907 -0.42654,4.13382 -0.01265,6.02578c0.55306,2.56068 2.07125,3.10434 4.52927,2.92324c1.37541,-0.10157 2.76889,-0.12688 4.13527,-0.30798c1.01936,-0.13411 2.05498,-0.34991 3.08518,-0.34991c4.27805,0.01988 8.05365,1.97365 10.99424,4.98762c2.81227,2.89035 4.0449,6.76535 4.05032,10.72133z" fill="#00a08c"/><path d="M387.57134,51.83967c0,0 0.95248,12.82583 1.26516,16.12971c-0.54221,0.16302 -4.00514,-0.05458 -4.55458,-0.10338c-0.74102,-1.854 -2.07306,-16.53203 -2.07306,-16.53203z" fill="#00a08c"/><path d="M404.78114,51.83967c0,0 0.95248,12.82583 1.26516,16.12971c-0.54221,0.16302 -4.00514,-0.05458 -4.55458,-0.10338c-0.74283,-1.854 -2.07306,-16.53203 -2.07306,-16.53203z" fill="#00a08c"/><g><path d="M359.49383,43.41985c-0.0976,-0.71391 0.63258,-1.17985 0.88561,-0.19556c0.26568,1.03996 -0.79163,0.90947 -0.88561,0.19556z" fill="#005a5a"/><path d="M355.77787,43.32189c-0.0976,-0.71391 0.63258,-1.17985 0.88561,-0.19556c0.26568,1.04575 -0.78801,0.92068 -0.88561,0.19556z" fill="#005a5a"/><path d="M353.75904,41.70177l-0.28376,-0.06326c-0.19917,-0.41208 -0.17459,-0.89718 0.06507,-1.28685l0.20604,0.04338c0.32533,0.27183 0.33436,0.99875 0.01265,1.30673z" fill="#000000"/><path d="M366.0835,41.6367l-0.28376,-0.06362c-0.19953,-0.41136 -0.17568,-0.89682 0.06326,-1.28685l0.20785,0.04374c0.32352,0.27364 0.33436,0.99839 0.01265,1.30673z" fill="#000000"/></g></g></g></g></svg>