<svg xmlns="http://www.w3.org/2000/svg" xmlns:xlink="http://www.w3.org/1999/xlink" version="1.1" width="12.0809" height="15.53925" viewBox="0,0,12.0809,15.53925"><g><g data-paper-data="{&quot;isPaintingLayer&quot;:true}" fill-rule="nonzero" stroke-linecap="butt" stroke-linejoin="miter" stroke-miterlimit="10" stroke-dasharray="" stroke-dashoffset="0" style="mix-blend-mode: normal"><g><path d="M 11.5809 9.4988 C 11.5809 13.4942 9.1003 15.0393 6.0404 15.0393 C 2.9805 15.0393 0.5 13.4942 0.5 9.4988 C 0.5 5.5034 2.91 0.5 5.9699 0.5 C 9.0298 0.5 11.5809 5.5034 11.5809 9.4988 Z " data-paper-data="{&quot;index&quot;:null}" fill="#ffffee" stroke="#000000" stroke-width="1"/><path d="M 10.3586 8.7264 C 10.3586 10.1222 9.5761 11.2537 8.6108 11.2537 C 7.6454 11.2537 6.8629 10.1222 6.8629 8.7264 C 6.8629 7.3306 7.6454 6.199 8.6108 6.199 C 9.5761 6.199 10.3586 7.3306 10.3586 8.7264 Z " data-paper-data="{&quot;index&quot;:null}" fill="#25ab00" stroke="#198000" stroke-width="1"/><path d="M 3.6808 6.2406 C 3.2642 7.4906 1.5444 9.1297 0.8885 8.911 C 0.2326 8.6924 0.7945 6.746 1.2111 5.4961 C 1.6277 4.2462 2.4972 2.3237 3.1531 2.5423 C 3.809 2.7609 4.0975 4.9907 3.6808 6.2406 Z " data-paper-data="{&quot;index&quot;:null}" fill="#1fab00" stroke="#1b8000" stroke-width="1"/><path d="M 6.0598 12.6473 C 6.0598 13.5735 5.6221 14.7967 4.3828 14.7967 C 3.1435 14.7967 1.572 13.6207 1.4775 12.5528 C 1.3959 11.6302 2.5767 10.9703 3.8159 10.9703 C 5.0552 10.9703 6.0598 11.7211 6.0598 12.6473 Z " data-paper-data="{&quot;index&quot;:null}" fill="#1fab00" stroke="#1b8000" stroke-width="1"/><path d="M 9.0359 2.845 C 9.0359 3.6277 8.5072 4.2622 7.8549 4.2622 C 7.2027 4.2622 6.6739 3.6277 6.6739 2.845 C 6.6739 2.0623 7.2027 1.4278 7.8549 1.4278 C 8.5072 1.4278 9.0359 2.0623 9.0359 2.845 Z " data-paper-data="{&quot;index&quot;:null}" fill="#1fab00" stroke="#1b8000" stroke-width="1"/><path d="M 11.5809 9.4988 C 11.5809 13.4942 9.1003 15.0393 6.0404 15.0393 C 2.9805 15.0393 0.5 13.4942 0.5 9.4988 C 0.5 5.5034 2.91 0.5 5.9699 0.5 C 9.0298 0.5 11.5809 5.5034 11.5809 9.4988 Z " data-paper-data="{&quot;index&quot;:null}" fill="none" stroke="#000000" stroke-width="1"/></g></g></g></svg>