<svg xmlns="http://www.w3.org/2000/svg" xmlns:xlink="http://www.w3.org/1999/xlink" version="1.1" width="59.46099" height="86.92813" viewBox="0,0,59.46099,86.92813"><g><g data-paper-data="{&quot;isPaintingLayer&quot;:true}" fill-rule="nonzero" stroke-linecap="butt" stroke-linejoin="miter" stroke-miterlimit="10" stroke-dasharray="" stroke-dashoffset="0" style="mix-blend-mode: normal"><path d="M 18.8834 78.2483 C 15.7182 75.3438 13.8868 65.3946 13.604 60.0919 C 13.2893 54.1921 2.8758 49.0872 1.75 42.7339 C 0.6242 36.3806 -0.3045 28.8161 1.9749 22.4688 C 4.2543 16.1215 1.9946 11.8119 6.3928 9.4358 C 10.791 7.0596 16.5247 13.4534 22.9456 11.7199 C 29.3665 9.9864 28.6895 1.7258 34.8611 1.75 C 41.0327 1.7743 39.777 8.7893 44.7277 11.8055 C 49.6784 14.8216 56.5371 10.4805 57.711 15.671 C 58.8849 20.8614 53.4427 28.0345 52.6765 34.8707 C 51.9102 41.7069 57.3964 47.4447 54.798 54.3498 C 52.1996 61.2549 48.7043 60.9462 43.8826 64.0826 C 39.0609 67.219 43.3497 77.1663 37.2258 79.5955 C 31.1019 82.0247 30.0591 86.6984 25.9469 84.6888 C 21.8347 82.6791 22.0487 81.1528 18.8834 78.2483 Z " stroke-width="3.5" fill="#fff52f" stroke="#ffa32b"/></g></g></svg>