<svg xmlns="http://www.w3.org/2000/svg" xmlns:xlink="http://www.w3.org/1999/xlink" version="1.1" width="79.30505" height="125.09777" viewBox="0,0,79.30505,125.09777"><defs><radialGradient cx="240.75" cy="204" r="62.38222" gradientUnits="userSpaceOnUse" id="color-1"><stop offset="0" stop-color="#ffb16b"/><stop offset="1" stop-color="#ffb16b" stop-opacity="0"/></radialGradient></defs><g><g data-paper-data="{&quot;isPaintingLayer&quot;:true}" fill-rule="nonzero" stroke-linejoin="miter" stroke-miterlimit="10" stroke-dasharray="" stroke-dashoffset="0" style="mix-blend-mode: normal"><path d="M200.39621,196.66639c0,-21.89949 39.65253,-85.11191 39.65253,-85.11191c0,0 39.65253,63.21242 39.65253,85.11191c0,21.89949 -17.75304,39.65253 -39.65253,39.65253c-21.89949,0 -39.65253,-17.75304 -39.65253,-39.65253z" fill="#ffb16b" stroke="none" stroke-width="0" stroke-linecap="butt" transform="matrix(1,0,0,1,-200.3962,-111.22115)"/><g data-paper-data="{&quot;index&quot;:null}" stroke-linecap="butt"><path d="M262.50094,145.8719c0,0 1.02868,6.85382 0.33145,13.78954c-0.34226,3.40463 -0.51495,6.13285 -1.8251,9.81824c-2.00832,5.64931 -6.45237,7.35658 -6.45237,7.35658l0.40444,-6.01615c0,0 1.66772,-7.14519 2.0205,-11.4925c0.32897,-4.05404 0.71614,-13.73336 0.71614,-13.73336z" stroke-width="NaN" fill="#1e1e1e" stroke="none" transform="matrix(1,0,0,1,-200.3962,-111.22115)"/><path d="M262.76428,144.602c-0.35862,1.09906 -0.43836,1.67121 -1.82549,1.59106c-0.73363,-0.04239 -2.28774,0.03387 -2.69384,-0.6462c-0.33393,-0.55919 -0.62748,-3.21558 -0.25082,-3.70787c0.50016,-0.65373 0.36588,0.37189 0.88284,0.24608c0.38461,-0.0936 0.07621,-3.23165 0.71528,-3.33797c0.47735,-0.07943 0.57407,1.69759 0.57407,1.69759c0,0 0.28495,-2.61548 0.76908,-2.61828c0.40404,-0.00234 0.27999,2.72014 0.27999,2.72014c0,0 0.48313,-2.17766 0.78146,-2.19655c0.4191,-0.02655 0.45103,2.59473 0.45103,2.59473c0,0 0.22326,-1.37318 0.67405,-1.25842c0.28575,0.07275 0.17243,1.67286 0.10366,2.65907c-0.0468,0.67114 -0.14036,1.27296 -0.46133,2.25663z" stroke-width="0" fill="#1e1e1e" stroke="none" transform="matrix(1,0,0,1,-200.3962,-111.22115)"/></g><g data-paper-data="{&quot;index&quot;:null}" stroke-linecap="butt"><path d="M222.304,145.59424c0,0 0.38717,9.67932 0.71614,13.73336c0.35278,4.34731 2.0205,11.4925 2.0205,11.4925l0.40444,6.01615c0,0 -4.44405,-1.70727 -6.45237,-7.35658c-1.31015,-3.68538 -1.48284,-6.4136 -1.8251,-9.81824c-0.69723,-6.93572 0.33145,-13.78954 0.33145,-13.78954z" stroke-width="NaN" fill="#1e1e1e" stroke="none" transform="matrix(1,0,0,1,-200.3962,-111.22115)"/><path d="M217.23573,144.60201c-0.32097,-0.98367 -0.41453,-1.58549 -0.46133,-2.25663c-0.06877,-0.98621 -0.1821,-2.58632 0.10366,-2.65907c0.4508,-0.11477 0.67405,1.25842 0.67405,1.25842c0,0 0.03193,-2.62127 0.45103,-2.59473c0.29834,0.01889 0.78146,2.19655 0.78146,2.19655c0,0 -0.12405,-2.72247 0.27999,-2.72014c0.48413,0.0028 0.76908,2.61828 0.76908,2.61828c0,0 0.09672,-1.77702 0.57407,-1.69759c0.63907,0.10633 0.33066,3.24438 0.71528,3.33797c0.51696,0.12581 0.38268,-0.89981 0.88284,-0.24608c0.37666,0.49229 0.08311,3.14868 -0.25082,3.70787c-0.4061,0.68006 -1.96021,0.6038 -2.69384,0.6462c-1.38713,0.08015 -1.46688,-0.492 -1.82549,-1.59106z" stroke-width="0" fill="#1e1e1e" stroke="none" transform="matrix(1,0,0,1,-200.3962,-111.22115)"/></g><path d="M222.7725,164.76393v-6.18368h34.5003v6.18368z" fill="#000000" stroke="none" stroke-width="0" stroke-linecap="butt" transform="matrix(1,0,0,1,-200.3962,-111.22115)"/><path d="M222.32441,164.49507c0,0 9.86364,-1.97914 17.01151,-1.76231c6.67305,0.20244 17.48879,1.76231 17.48879,1.76231c0,0 -11.66048,5.01554 -17.48725,4.97013c-5.669,-0.04417 -17.01307,-4.97013 -17.01307,-4.97013z" fill="#171717" stroke="none" stroke-width="0" stroke-linecap="butt" transform="matrix(1,0,0,1,-200.3962,-111.22115)"/><g><path d="M 38.1952 30.7387 L 38.1952 26.5876 L 40.9289 26.5876 L 40.9289 30.7387 Z " data-paper-data="{&quot;origPos&quot;:null}" fill="#995400" stroke="none" stroke-linecap="butt" stroke-width="1"/><path d="M 55.7332 44.0015 C 55.7332 51.6061 48.5711 57.7709 39.7363 57.7709 C 30.9014 57.7709 23.7394 51.6061 23.7394 44.0015 C 23.7394 36.3968 30.9014 30.232 39.7363 30.232 C 48.5711 30.232 55.7332 36.3968 55.7332 44.0015 Z " data-paper-data="{&quot;origPos&quot;:null}" fill="#ff6400" stroke="#e35b00" stroke-linecap="butt" stroke-width="1"/><path d="M 37.9315 56.898 C 37.9315 56.898 34.7589 51.7027 34.7072 43.8083 C 34.6604 36.6774 38.0526 30.3577 38.0526 30.3577 " fill="none" stroke="#e35b00" stroke-linecap="round" stroke-width="1"/><path d="M 40.9027 30.3577 C 40.9027 30.3577 44.295 36.6774 44.2482 43.8083 C 44.1964 51.7027 41.0239 56.898 41.0239 56.898 " data-paper-data="{&quot;index&quot;:null}" fill="none" stroke="#e35b00" stroke-linecap="round" stroke-width="1"/><path d="M 36.7636 56.7768 C 36.7636 56.7768 28.3038 53.1552 27.9892 43.6871 C 27.6908 34.7042 36.9953 30.2365 36.9953 30.2365 " data-paper-data="{&quot;index&quot;:null}" fill="none" stroke="#e35b00" stroke-linecap="round" stroke-width="1"/><path d="M 42.4449 30.2365 C 42.4449 30.2365 50.9344 34.9816 51.0874 43.6871 C 51.2404 52.3934 42.6766 56.7768 42.6766 56.7768 " data-paper-data="{&quot;index&quot;:null}" fill="none" stroke="#e35b00" stroke-linecap="round" stroke-width="1"/></g><g stroke-linecap="butt"><path d="M 30.4972 46.2836 C 27.7655 45.0662 28.5736 40.1075 28.5736 40.1075 L 37.8882 44.2586 C 37.8882 44.2586 33.229 47.501 30.4972 46.2836 Z " data-paper-data="{&quot;origPos&quot;:null}" stroke-width="1" fill="#fff86a" stroke="none"/><path d="M 41.2189 44.3599 L 50.5336 40.2088 C 50.5336 40.2088 51.3416 45.1674 48.6099 46.3848 C 45.8782 47.6022 41.2189 44.3599 41.2189 44.3599 Z " data-paper-data="{&quot;origPos&quot;:null,&quot;index&quot;:null}" stroke-width="1" fill="#fff86a" stroke="none"/><path d="M 28.9453 49.4613 C 28.9453 49.4613 35.2722 51.0466 39.3217 51.0466 C 43.6524 51.0466 50.4186 49.4613 50.4186 49.4613 C 50.4186 49.4613 44.22 56.6671 39.3217 56.6671 C 34.4233 56.6671 28.9453 49.4613 28.9453 49.4613 Z " data-paper-data="{&quot;origPos&quot;:null}" stroke-width="1" fill="#fff86a" stroke="none"/></g><path d="M219.53999,220.61864l5.41735,-56.19078c0,0 8.34588,3.76398 14.67212,3.76398c7.20452,0 15.39539,-3.76398 15.39539,-3.76398l5.4149,56.19078c0,0 -7.09126,1.17271 -20.01611,1.20956c-12.46006,0.03554 -20.88362,-1.20956 -20.88362,-1.20956z" fill="#2a2a2a" stroke="none" stroke-width="NaN" stroke-linecap="butt" transform="matrix(1,0,0,1,-200.3962,-111.22115)"/><path d="M233.46635,221.82834l2.35332,-53.98605c0,0 2.62166,0.24192 3.96762,0.24192c1.39451,0 4.25897,-0.24192 4.25897,-0.24192l2.92732,53.8651c0,0 -4.14211,0.48382 -6.71841,0.48382c-2.5763,0 -6.78882,-0.36286 -6.78882,-0.36286z" fill="#a80000" stroke="none" stroke-width="NaN" stroke-linecap="butt" transform="matrix(1,0,0,1,-200.3962,-111.22115)"/><path d="M219.87972,164.09179l2.90364,-5.69974l7.38009,8.80502l-6.30466,-0.68558c0,0 -2.51338,-0.36943 -3.20573,-0.79045c-0.62765,-0.38168 -0.77333,-1.62925 -0.77333,-1.62925z" fill="#191919" stroke="none" stroke-width="0" stroke-linecap="butt" transform="matrix(1,0,0,1,-200.3962,-111.22115)"/><path d="M259.46158,165.69416c-0.69235,0.42102 -3.20573,0.79045 -3.20573,0.79045l-6.6945,0.96788l7.76992,-9.08732l2.90364,5.69974c0,0 -0.14568,1.24757 -0.77333,1.62926z" data-paper-data="{&quot;index&quot;:null}" fill="#191919" stroke="none" stroke-width="0" stroke-linecap="butt" transform="matrix(1,0,0,1,-200.3962,-111.22115)"/><path d="M200.3962,196.33306c0,-21.89948 39.65252,-85.1119 39.65252,-85.1119c0,0 39.65253,63.21242 39.65253,85.1119c0,21.89949 -17.75304,39.65253 -39.65253,39.65253c-21.89948,0 -39.65252,-17.75304 -39.65252,-39.65253z" fill="url(#color-1)" stroke="none" stroke-width="0" stroke-linecap="butt" transform="matrix(1,0,0,1,-200.3962,-111.22115)"/></g></g></svg>