<svg xmlns="http://www.w3.org/2000/svg" xmlns:xlink="http://www.w3.org/1999/xlink" version="1.1" width="53.1" height="181.22489" viewBox="0,0,53.1,181.22489"><g><g data-paper-data="{&quot;isPaintingLayer&quot;:true}" stroke-linejoin="miter" stroke-miterlimit="10" stroke-dasharray="" stroke-dashoffset="0" style="mix-blend-mode: normal"><g><path d="M 40.4963 164.0383 C 40.5279 164.5395 37.9374 165.4588 35.7463 165.5776 C 33.5551 165.6964 30.5377 164.4612 30.5483 164.0008 C 30.5583 163.5708 33.5059 162.9423 35.4667 162.836 C 37.4276 162.7296 40.4574 163.421 40.4963 164.0383 Z " fill="#307d00" fill-rule="nonzero" stroke="#000000" stroke-width="0.75" stroke-linecap="round"/><path d="M 21.3114 165.1114 C 21.3159 165.6136 18.6794 166.4822 16.485 166.4822 C 14.2906 166.4822 11.2222 165.5705 11.2578 165.1114 C 11.291 164.6826 14.3857 163.8202 16.3494 163.8202 C 18.3132 163.8202 21.306 164.493 21.3114 165.1114 Z " fill="#307d00" fill-rule="nonzero" stroke="#000000" stroke-width="0.75" stroke-linecap="round"/><path d="M 25.3453 59.378 L 25.3453 126.675 C 25.3453 126.675 21.5072 139.3308 19.4621 147.6672 C 17.4169 156.0036 15.7976 165.5938 15.7976 165.5938 " data-paper-data="{&quot;origPos&quot;:null}" fill="none" fill-rule="nonzero" stroke="#000000" stroke-width="3.5" stroke-linecap="round"/><path d="M 25.6484 125.7383 C 25.6484 125.7383 29.5273 135.9397 31.2979 142.6811 C 33.0686 149.4225 36.196 165.897 36.196 165.897 " fill="none" fill-rule="nonzero" stroke="#000000" stroke-width="3.5" stroke-linecap="round"/><path d="M 1.25 36.4875 C 1.25 22.5147 12.5772 11.1875 26.55 11.1875 C 40.5228 11.1875 51.85 22.5147 51.85 36.4875 C 51.85 50.4603 40.5228 61.7875 26.55 61.7875 C 12.5772 61.7875 1.25 50.4603 1.25 36.4875 Z " data-paper-data="{&quot;origPos&quot;:null}" fill="#d4d4d4" fill-rule="nonzero" stroke="#000000" stroke-width="2.5" stroke-linecap="butt"/><path d="M238.43801,109.05989c0,-2.66149 2.15756,-4.81905 4.81905,-4.81905c2.66149,0 4.81905,2.15756 4.81905,4.81905c0,2.66149 -2.15756,4.81905 -4.81905,4.81905c-2.66149,0 -4.81905,-2.15756 -4.81905,-4.81905z" data-paper-data="{&quot;origPos&quot;:null}" fill="#000000" fill-rule="nonzero" stroke="none" stroke-width="0" stroke-linecap="butt" transform="matrix(1,0,0,1,-216.30547,-78.5962)"/><path d="M252.09199,109.05989c0,-2.66148 2.15757,-4.81905 4.81905,-4.81905c2.66148,0 4.81905,2.15757 4.81905,4.81905c0,2.66148 -2.15757,4.81905 -4.81905,4.81905c-2.66148,0 -4.81905,-2.15757 -4.81905,-4.81905z" data-paper-data="{&quot;origPos&quot;:null}" fill="#000000" fill-rule="nonzero" stroke="none" stroke-width="0" stroke-linecap="butt" transform="matrix(1,0,0,1,-216.30547,-78.5962)"/><path d="M 22.3516 23.4573 L 31.4786 27.1081 " data-paper-data="{&quot;origPos&quot;:null}" fill="none" fill-rule="nonzero" stroke="#000000" stroke-width="2.5" stroke-linecap="round"/><path d="M 43.5262 23.4923 L 36.5897 26.778 " data-paper-data="{&quot;origPos&quot;:null}" fill="none" fill-rule="nonzero" stroke="#000000" stroke-width="2.5" stroke-linecap="round"/><path d="M 26.2325 67.7018 L 41.931 97.2732 " data-paper-data="{&quot;origPos&quot;:null,&quot;index&quot;:null}" fill="none" fill-rule="nonzero" stroke="#000000" stroke-width="3.5" stroke-linecap="round"/><g fill-rule="evenodd" stroke-linecap="butt"><path d="M 20.6191 75.3464 L 18.8882 77.7828 L 15.0505 77.4705 L 12.6432 74.7483 C 12.6432 74.7483 14.1427 73.9664 14.1427 73.9354 C 14.8169 73.5988 16.1784 73.7361 16.9393 73.7715 C 17.2886 73.7893 19.3243 73.7959 19.5134 74.1038 C 19.6625 74.343 20.6191 75.3464 20.6191 75.3464 Z " fill="#aaa082" stroke-width="2" stroke="#000000"/><path d="M 28.8865 89.9185 C 27.4003 93.5577 24.953 96.7561 20.9484 97.7351 C 20.8906 97.6553 18.2208 93.7814 18.2208 93.7814 C 19.3488 92.7559 20.0095 91.8034 21.2977 90.9839 C 22.9329 89.9451 24.9686 88.6228 26.5949 87.5685 Z " fill="#aaa082" stroke-width="2" stroke="#000000"/><path d="M 14.5944 90.6561 L 14.3563 93.9276 C 14.3051 94.643 13.9469 96.5567 13.9469 96.5567 C 13.9469 96.5567 12.5364 97.3275 12.0915 97.3829 C 11.3973 97.4759 10.0758 96.652 9.4907 96.2754 C 7.5284 95.0173 6.3515 93.0438 5.3837 90.9905 L 8.465 87.3204 C 8.5785 87.203 14.4586 90.5675 14.5944 90.6561 Z " fill="#aaa082" stroke-width="2" stroke="#000000"/><path d="M 14.4297 76.6775 L 12.6032 81.5504 C 12.6032 81.5504 9.6531 83.4996 8.9456 83.9426 C 8.9456 83.9426 5.5439 82.6978 5.5306 82.6579 C 5.4839 82.6402 5.2614 81.3112 5.2013 81.2868 C 5.6974 79.4994 6.9455 77.8426 8.3405 76.6354 C 9.0213 76.0463 10.7077 75.0739 11.5264 74.6929 C 11.7978 74.5711 13.3262 75.0141 13.3262 75.0141 Z " fill="#dcd2b4" stroke-width="2" stroke="#000000"/><path d="M 20.9462 97.7395 C 19.5742 98.2169 18.1344 98.4734 16.6812 98.4992 C 15.8659 98.4976 15.053 98.41 14.2562 98.2379 C 13.6399 98.1028 12.4742 97.8813 12.0069 97.4383 C 12.4469 96.6398 12.96 95.8835 13.5398 95.179 C 13.8468 94.8401 15.6912 92.6385 16.8436 92.4724 L 19.2286 95.1812 Z " fill="#f0e6d2" stroke-width="2" stroke="#000000"/><path d="M 25.705 88.1731 L 21.2955 90.9861 C 21.2955 90.9861 16.1629 89.2917 16.1629 88.9772 C 16.1629 88.9306 15.9626 82.2924 15.9626 82.2481 C 15.9026 82.0001 21.5002 79.052 21.6648 78.9124 C 21.8294 78.7729 26.2634 83.123 26.4303 82.9813 C 26.5705 82.8639 25.705 88.1731 25.705 88.1731 Z " fill="#dcd2b4" stroke-width="2" stroke="#000000"/><path d="M 16.1384 87.9915 C 16.1384 87.9915 14.9259 89.3603 14.8369 89.542 C 14.8636 89.4534 12.1338 90.7137 12.1338 90.7137 C 12.1338 90.7137 9.0836 89.2097 7.5485 87.6128 L 7.5485 83.1829 C 7.6197 83.1341 12.1293 80.2215 12.1938 80.1727 L 15.0549 80.7331 L 16.1006 83.9536 Z " fill="#f0e6d2" stroke-width="2" stroke="#000000"/><path d="M 14.8369 89.5376 C 14.836 89.5325 14.836 89.5272 14.8369 89.522 Z " fill="#f0e6d2" stroke-width="2" stroke="#000000"/><path d="M 13.5487 95.1746 C 13.5487 95.1746 12.2828 91.5177 12.1115 90.7115 C 13.2016 89.5575 16.1339 87.9694 16.1339 87.9694 C 17.8337 88.9461 19.7114 89.8343 21.291 90.9861 C 20.8661 92.4435 19.8938 93.819 19.2242 95.1834 C 18.1251 95.4603 14.294 95.1546 13.5487 95.1746 Z " fill="#000000" stroke-width="2" stroke="#000000"/><path d="M 22.8929 75.2201 L 22.8751 75.2201 L 22.8751 75.2201 Z " fill="#f0e6d2" stroke-width="2" stroke="#000000"/><path d="M 28.2101 80.5116 L 25.3379 82.8041 C 23.8673 82.0798 20.39 80.1461 20.39 80.1461 L 18.1296 78.496 L 18.4411 76.8038 C 18.4411 76.8038 19.5179 75.2223 19.9628 74.9078 C 20.1564 74.7749 21.1842 74.4803 21.3667 74.6553 C 21.6425 74.5844 22.4791 75.2585 22.7171 75.3737 L 22.8239 75.2068 C 23.1865 75.302 27.1756 78.403 28.0455 80.1749 C 28.0588 80.2037 28.1946 80.4673 28.2101 80.5116 Z " fill="#f0e6d2" stroke-width="2" stroke="#000000"/><path d="M 20.4122 80.2215 C 20.4122 80.2215 16.481 83.6967 16.2763 83.8695 C 16.2276 83.9031 16.1754 83.9313 16.1206 83.9537 C 15.9293 83.8584 13.8357 81.8893 13.5754 81.628 C 13.3151 81.3666 13.0749 81.0831 12.8346 80.8018 C 12.7211 80.6711 12.3073 80.3101 12.2138 80.1639 L 14.4386 76.6908 C 14.4742 76.6399 18.4433 76.8127 18.4433 76.8127 Z " fill="#000000" stroke-width="2" stroke="#000000"/><path d="M 28.8842 89.9163 C 27.7428 89.4951 26.6711 88.906 25.705 88.1687 C 25.685 87.8586 25.151 82.7687 25.151 82.6601 C 25.6138 82.2415 27.7763 80.4939 28.2123 80.5116 C 29.3714 83.1873 30.2347 87.1565 28.8842 89.9163 Z " fill="#000000" stroke-width="2" stroke="#000000"/><path d="M 8.2381 88.2551 L 5.4349 91.0215 L 5.3815 90.9994 C 3.9421 87.9317 4.1379 84.4276 5.1969 81.3046 C 5.7041 81.5504 7.9356 82.7642 8.0134 82.855 C 8.0468 82.8927 8.2292 88.1975 8.2382 88.2551 Z " fill="#000000" stroke-width="2" stroke="#000000"/><path d="M 14.1739 73.9066 L 13.3129 75.0141 C 13.0682 74.9787 12.1516 74.8524 11.9068 74.8192 C 11.7778 74.8015 11.6488 74.7727 11.5197 74.7483 L 11.5197 74.693 C 11.6221 74.6575 11.7199 74.6177 11.8223 74.5844 C 12.0826 74.498 12.3429 74.4094 12.6054 74.3275 C 12.7767 74.2743 12.9503 74.2322 13.1216 74.1835 C 13.2372 74.1571 13.3503 74.1207 13.4597 74.075 C 13.6909 73.9932 13.9304 73.9367 14.1739 73.9066 Z " fill="#000000" stroke-width="2" stroke="#000000"/><path d="M 19.7782 75.054 C 19.7782 75.054 19.6046 74.4183 19.509 74.1038 C 20.1108 74.2424 20.7049 74.4124 21.2888 74.6132 L 21.2888 74.6642 C 21.2421 74.6863 19.7782 75.054 19.7782 75.054 Z " fill="#000000" stroke-width="2" stroke="#000000"/></g><path d="M 11.499 101.9135 C 11.499 101.9135 0.9345 84.8346 3.5081 79.9866 C 6.1646 74.9824 24.0421 67.7018 24.0421 67.7018 " data-paper-data="{&quot;origPos&quot;:null}" fill="none" fill-rule="nonzero" stroke="#000000" stroke-width="3.5" stroke-linecap="round"/><g fill-rule="nonzero" stroke-linecap="butt"><path d="M223.51699,96.36924c0,0 -5.87606,-0.60921 -5.87606,-2.7c0,-2.09079 3.52298,-4.5 11.61167,-4.5c4.77039,0 11.77636,-0.66391 14.91672,0.69711c-0.00886,0.00977 -0.01739,0.01966 -0.02558,0.02967c-1.2427,1.52124 -1.203,3.37125 -0.01594,4.24651c-6.74761,1.33816 -20.61082,2.22671 -20.61082,2.22671z" fill="#3eb233" stroke-width="0" stroke="none" transform="matrix(1,0,0,1,-216.30547,-78.5962)"/><path d="M242.24737,97.22638c-10.50564,0 -19.02213,-0.71429 -19.02213,-0.71429c0,0 -0.87078,-18.11135 19.02213,-17.91429c19.89291,0.19706 19.02213,17.91429 19.02213,17.91429c0,0 -8.51649,0.71429 -19.02213,0.71429zM244.26045,89.61031l-0.02918,4.54465c0,0 3.80947,0.24202 5.48338,0.20377c1.79056,-0.04091 3.0332,-0.33105 3.0332,-0.33105l0.0442,-4.40812c0,0 -1.94581,0.14075 -3.19253,0.1394c-1.24672,-0.00135 -5.33907,-0.14864 -5.33907,-0.14864z" fill="#50e343" stroke-width="NaN" stroke="none" transform="matrix(1,0,0,1,-216.30547,-78.5962)"/></g><g fill-rule="nonzero" stroke-linecap="round"><path d="M 30.6004 179.0924 C 30.6004 179.0924 30.7066 180.2975 28.0833 180.7249 C 26.2095 181.0302 23.698 180.6994 21.8502 180.3428 C 17.4155 179.487 11.5519 175.0629 11.5519 175.0629 L 11.5519 165.6744 C 11.5519 165.6744 13.0356 166.8954 16.6803 166.8954 C 19.5925 166.8954 21.0761 165.6744 21.0761 165.6744 L 21.0761 168.1028 C 21.0761 168.1028 24.5353 170.492 28.0342 172.9891 C 31.3674 175.3679 30.6004 179.0924 30.6004 179.0924 Z " fill="#42ac00" stroke-width="1" stroke="#000000"/><path d="M 30.4065 179.2647 C 30.4065 179.2647 30.3422 182.2542 20.4331 179.9324 C 17.7276 179.2985 11.7171 175.1347 11.7171 175.1347 L 11.7889 173.0517 C 11.7889 173.0517 17.7995 177.2156 20.5049 177.8494 C 30.414 180.1712 30.4783 177.1818 30.4783 177.1818 Z " fill="#f1f1f1" stroke-width="0.5" stroke="#000000"/><path d="M 16.8707 171.256 C 16.8707 171.256 18.1155 170.127 19.0851 169.7188 C 20.0548 169.3105 20.9648 169.5322 20.9648 169.5322 " fill="none" stroke-width="0.5" stroke="#000000"/><path d="M 19.7437 172.5084 C 19.7437 172.5084 20.7265 171.6171 21.492 171.2948 C 22.2575 170.9725 22.976 171.1475 22.976 171.1475 " fill="none" stroke-width="0.5" stroke="#000000"/><path d="M 22.1859 173.8105 C 22.1859 173.8105 23.0595 173.0182 23.7399 172.7317 C 24.4203 172.4452 25.059 172.6008 25.059 172.6008 " fill="none" stroke-width="0.5" stroke="#000000"/></g><g fill-rule="nonzero" stroke-linecap="round"><path d="M 50.5237 177.5323 C 50.5237 177.5323 50.695 178.3299 48.0987 178.8987 C 46.2441 179.305 43.7185 179.1107 41.8541 178.8547 C 37.3795 178.2402 31.2849 174.1401 31.2849 174.1401 L 30.7766 164.4563 C 30.7766 164.4563 32.3242 165.9043 35.9637 165.7069 C 38.8715 165.5493 40.2869 164.4315 40.2869 164.4315 L 40.4184 166.6746 C 40.4184 166.6746 44.0018 168.8729 47.6308 171.1769 C 51.0879 173.3718 50.5237 177.5323 50.5237 177.5323 Z " fill="#42ac00" stroke-width="1" stroke="#000000"/><path d="M 50.3394 177.7149 C 50.3394 177.7149 50.437 180.3035 40.4168 178.5216 C 37.681 178.0351 31.4538 174.2028 31.4538 174.2028 L 31.4127 172.119 C 31.4127 172.119 37.6399 175.9513 40.3757 176.4378 C 50.396 178.2197 50.2983 175.6311 50.2983 175.6311 Z " fill="#f1f1f1" stroke-width="0.5" stroke="#000000"/><path d="M 36.3898 169.9599 C 36.3898 169.9599 37.5717 168.8561 38.5178 168.3959 C 39.4639 167.9358 40.4755 168.1988 40.4755 168.1988 " fill="none" stroke-width="0.5" stroke="#000000"/><path d="M 39.3265 171.0549 C 39.3265 171.0549 40.2596 170.2026 41.0065 169.8393 C 41.7534 169.476 42.5712 169.7028 42.5712 169.7028 " fill="none" stroke-width="0.5" stroke="#000000"/><path d="M 41.8355 172.2229 C 41.8355 172.2229 42.6649 171.4753 43.3288 171.1524 C 43.9928 170.8295 44.7298 171.0412 44.7298 171.0412 " fill="none" stroke-width="0.5" stroke="#000000"/></g></g></g></g></svg>