<svg xmlns="http://www.w3.org/2000/svg" xmlns:xlink="http://www.w3.org/1999/xlink" version="1.1" width="146.24105" height="259.81992" viewBox="0,0,146.24105,259.81992"><g><g data-paper-data="{&quot;isPaintingLayer&quot;:true}" fill-rule="nonzero" stroke-linejoin="miter" stroke-miterlimit="10" stroke-dasharray="" stroke-dashoffset="0" style="mix-blend-mode: normal"><g><path d="M 38.8403 51.358 C 38.8403 24.2364 60.8267 2.25 87.9483 2.25 C 115.0699 2.25 137.0563 24.2364 137.0563 51.358 C 137.0563 78.4796 115.0699 100.466 87.9483 100.466 C 60.8267 100.466 38.8403 78.4796 38.8403 51.358 Z " fill="#d4d4d4" stroke="#000000" stroke-width="4.5" stroke-linecap="butt"/><path d="M224.18608,156.56123c0,-4.4894 4.14137,-7.25 9.25,-7.25c5.10863,0 9.25,2.7606 9.25,7.25c0,4.4894 -4.14137,7.25 -9.25,7.25c-5.10863,0 -9.25,-2.7606 -9.25,-7.25z" fill="#000000" stroke="none" stroke-width="0" stroke-linecap="butt" transform="matrix(1,0,0,1,-153.5552,-115.76341)"/><path d="M 50.6309 41.0478 C 50.6309 41.0478 55.5532 38.5478 58.1309 38.5478 C 60.5421 38.5478 65.6309 41.0478 65.6309 41.0478 " fill="none" stroke="#000000" stroke-width="2.5" stroke-linecap="round"/><path d="M 57.9945 71.0478 L 81.4945 71.0478 " fill="none" stroke="#000000" stroke-width="2.5" stroke-linecap="round"/><path d="M 70.9945 71.0478 L 81.4945 71.0478 C 81.4945 71.0478 80.2659 81.2751 75.7672 81.2751 C 71.2685 81.2751 70.9945 71.0478 70.9945 71.0478 Z " fill="#ff3434" stroke="#000000" stroke-width="2.5" stroke-linecap="butt"/><path d="M 86.6115 97.2366 L 86.6115 204.5699 L 73.6948 257.0699 " fill="none" stroke="#000000" stroke-width="4.5" stroke-linecap="round"/><path d="M 99.1948 257.5699 L 86.6948 204.5699 " fill="none" stroke="#000000" stroke-width="4.5" stroke-linecap="round"/><path d="M 102.6948 88.0699 C 102.6948 88.0699 143.5476 87.2325 143.9835 94.5141 C 144.7487 107.2969 87.1948 112.5699 87.1948 112.5699 L 15.1948 97.0699 " fill="none" stroke="#000000" stroke-width="4.5" stroke-linecap="round"/><path d="M 34.1948 15.0699 C 34.1948 15.0699 101.5901 79.3114 101.6948 88.0699 C 101.8108 97.7753 34.1948 162.0699 34.1948 162.0699 " fill="none" stroke="#ffffff" stroke-width="3.5" stroke-linecap="round"/><path d="M 37.6948 166.0699 C 37.6948 166.0699 16.0073 146.3875 6.353 122.9853 C 2.1087 112.697 16.6942 100.3832 16.6942 90.5699 C 16.6942 79.4417 2.1423 65.9272 7.2787 53.6673 C 16.9748 30.5241 37.6948 11.0699 37.6948 11.0699 " fill="none" stroke="#ab5300" stroke-width="4.5" stroke-linecap="round"/><g><path d="M 19.8258 87.3805 L 101.3321 87.3805 " fill="none" stroke="#ab5300" stroke-width="3.5" stroke-linecap="round"/><path d="M153.55521,203.14394l30.10591,-10.0606l-7.34291,10.0606l7.34291,10.6894z" fill="#ffffff" stroke="none" stroke-width="0" stroke-linecap="butt" transform="matrix(1,0,0,1,-153.5552,-115.76341)"/><path d="M233.38307,201.44414l9.86048,-6.29479l21.39932,-0.08982l-9.75557,6.38461z" fill="#f1f1f1" stroke="none" stroke-width="0" stroke-linecap="butt" transform="matrix(1,0,0,1,-153.5552,-115.76341)"/><path d="M254.78239,204.84374l9.75557,6.38463l-21.39931,-0.08983l-9.86048,-6.29479z" data-paper-data="{&quot;index&quot;:null}" fill="#f1f1f1" stroke="none" stroke-width="0" stroke-linecap="butt" transform="matrix(1,0,0,1,-153.5552,-115.76341)"/></g></g></g></g></svg>