<svg xmlns="http://www.w3.org/2000/svg" xmlns:xlink="http://www.w3.org/1999/xlink" version="1.1" width="63.79306" height="165.15" viewBox="0,0,63.79306,165.15"><defs><radialGradient cx="227.50833" cy="115.25" r="15.2" gradientUnits="userSpaceOnUse" id="color-1"><stop offset="0" stop-color="#ff3c3c"/><stop offset="1" stop-color="#ff3c3c" stop-opacity="0"/></radialGradient></defs><g><g data-paper-data="{&quot;isPaintingLayer&quot;:true}" fill-rule="nonzero" stroke-linejoin="miter" stroke-miterlimit="10" stroke-dasharray="" stroke-dashoffset="0" style="mix-blend-mode: normal"><g><path d="M252.22778,95.375c0,0 5.65728,-0.74498 10.08852,-3.67127c4.43124,-2.92629 9.78648,-9.45373 9.78648,-9.45373c0,0 0.56143,8.53638 -2.37046,12.81318c-2.9319,4.2768 -11.25454,7.06182 -11.25454,7.06182z" data-paper-data="{&quot;index&quot;:null}" fill="#a00000" stroke="none" stroke-width="0" stroke-linecap="butt" transform="matrix(1,0,0,1,-208.35277,-82.25)"/><path d="M 19.0742 75.9326 C 19.0742 75.9326 10.8415 76.5104 13.344 73.6795 C 16.044 70.6252 32.5726 64.5611 32.5726 64.5611 " data-paper-data="{&quot;origPos&quot;:null,&quot;index&quot;:null}" fill="none" stroke="#000000" stroke-width="3.5" stroke-linecap="round"/><path d="M 33.2758 56.2373 L 33.2758 123.5344 L 21.2282 162.4532 " data-paper-data="{&quot;origPos&quot;:null}" fill="none" stroke="#000000" stroke-width="3.5" stroke-linecap="round"/><path d="M 34.079 122.0976 L 46.1266 162.2564 " fill="none" stroke="#000000" stroke-width="3.5" stroke-linecap="round"/><path d="M 33.7631 64.5611 L 49.4615 94.1326 " data-paper-data="{&quot;origPos&quot;:null,&quot;index&quot;:null}" fill="none" stroke="#000000" stroke-width="3.5" stroke-linecap="round"/><path d="M 9.1806 33.3469 C 9.1806 19.3741 20.5078 8.0469 34.4806 8.0469 C 48.4534 8.0469 59.7806 19.3741 59.7806 33.3469 C 59.7806 47.3196 48.4534 58.6469 34.4806 58.6469 C 20.5078 58.6469 9.1806 47.3196 9.1806 33.3469 Z " data-paper-data="{&quot;origPos&quot;:null}" fill="#d4c1c1" stroke="#000000" stroke-width="2.5" stroke-linecap="butt"/><path d="M238.41587,109.57305c0,-2.66149 2.15756,-4.81905 4.81905,-4.81905c2.66149,0 4.81905,2.15756 4.81905,4.81905c0,2.66149 -2.15756,4.81905 -4.81905,4.81905c-2.66149,0 -4.81905,-2.15756 -4.81905,-4.81905z" data-paper-data="{&quot;origPos&quot;:null}" fill="#000000" stroke="none" stroke-width="0" stroke-linecap="butt" transform="matrix(1,0,0,1,-208.35277,-82.25)"/><path d="M252.06984,109.57305c0,-2.66148 2.15757,-4.81905 4.81905,-4.81905c2.66148,0 4.81905,2.15757 4.81905,4.81905c0,2.66148 -2.15757,4.81905 -4.81905,4.81905c-2.66148,0 -4.81905,-2.15757 -4.81905,-4.81905z" data-paper-data="{&quot;origPos&quot;:null}" fill="#000000" stroke="none" stroke-width="0" stroke-linecap="butt" transform="matrix(1,0,0,1,-208.35277,-82.25)"/><path d="M 30.2822 20.3167 L 39.4091 23.9675 " data-paper-data="{&quot;origPos&quot;:null}" fill="none" stroke="#000000" stroke-width="2.5" stroke-linecap="round"/><path d="M 51.4568 20.3516 L 44.5202 23.6373 " data-paper-data="{&quot;origPos&quot;:null}" fill="none" stroke="#000000" stroke-width="2.5" stroke-linecap="round"/><path d="M222.02083,105.125c0,0 -8.32264,-2.78502 -11.25454,-7.06182c-2.93189,-4.2768 -2.37046,-12.81318 -2.37046,-12.81318c0,0 5.35524,6.52745 9.78648,9.45374c4.43124,2.92629 10.08852,3.67126 10.08852,3.67126z" fill="#a00000" stroke="none" stroke-width="0" stroke-linecap="butt" transform="matrix(1,0,0,1,-208.35277,-82.25)"/><g><g><path d="M212.30833,115.25c0,-8.39473 6.80527,-15.2 15.2,-15.2c8.39473,0 15.2,6.80527 15.2,15.2c0,8.39473 -6.80527,15.2 -15.2,15.2c-8.39473,0 -15.2,-6.80527 -15.2,-15.2z" fill="url(#color-1)" stroke="none" stroke-width="0" stroke-linecap="butt" transform="matrix(1,0,0,1,-208.35277,-82.25)"/><path d="M224.15442,102.67509c0,0 3.4107,4.34414 5.36553,5.00215c2.38815,0.80387 6.75426,-0.58791 6.75426,-0.58791c0,0 -2.03034,4.86799 -1.59643,7.12802c0.44797,2.33326 3.85993,6.35522 3.85993,6.35522c0,0 -5.02626,0.18707 -7.85503,1.34762c-2.82877,1.16055 -6.08326,4.37079 -6.08326,4.37079c0,0 -1.04411,-4.60628 -2.78191,-6.82036c-1.50115,-1.91256 -6.52286,-3.97719 -6.52286,-3.97719c0,0 3.71786,-1.73211 5.62642,-4.14932c2.58067,-3.26844 3.23336,-8.66902 3.23336,-8.66902z" fill="#ff3232" stroke="none" stroke-width="0" stroke-linecap="butt" transform="matrix(1,0,0,1,-208.35277,-82.25)"/><path d="M 18.9556 47.2 L 18.9556 163.4 " fill="none" stroke="#7e550d" stroke-width="3.5" stroke-linecap="round"/><path d="M 30.9556 35.8 C 31.4255 42.3655 22.871 47.2 18.9556 47.2 C 14.9402 47.2 6.4061 42.2205 6.9556 35.6 " fill="none" stroke="#7e550d" stroke-width="3.5" stroke-linecap="round"/><path d="M221.70833,115.25c0,-3.20325 2.59675,-5.8 5.8,-5.8c3.20325,0 5.8,2.59675 5.8,5.8c0,3.20325 -2.59675,5.8 -5.8,5.8c-3.20325,0 -5.8,-2.59675 -5.8,-5.8z" fill="#d60000" stroke="none" stroke-width="0" stroke-linecap="butt" transform="matrix(1,0,0,1,-208.35277,-82.25)"/></g><path d="M225.73333,163.2c0.3866,0 0.7,4.34284 0.7,9.7c0,5.35716 -0.3134,9.7 -0.7,9.7c-0.3866,0 -0.7,-4.34284 -0.7,-9.7c0,-5.35716 0.3134,-9.7 0.7,-9.7z" fill="#7e550d" stroke="none" stroke-width="0" stroke-linecap="butt" transform="matrix(1,0,0,1,-208.35277,-82.25)"/><path d="M228.43333,194.2c0.7732,0 1.4,5.01441 1.4,11.2c0,6.18559 -0.6268,11.2 -1.4,11.2c-0.7732,0 -1.4,-5.01441 -1.4,-11.2c0,-6.18559 0.6268,-11.2 1.4,-11.2z" fill="#7e550d" stroke="none" stroke-width="0" stroke-linecap="butt" transform="matrix(1,0,0,1,-208.35277,-82.25)"/><path d="M228.03333,141.1c0,1.933 -0.67157,3.5 -1.5,3.5c-0.82843,0 -1.5,-1.567 -1.5,-3.5c0,-1.933 0.67157,-3.5 1.5,-3.5c0.82843,0 1.5,1.567 1.5,3.5z" fill="#7e550d" stroke="none" stroke-width="0" stroke-linecap="butt" transform="matrix(1,0,0,1,-208.35277,-82.25)"/></g><path d="M 19.8806 76.15 C 19.8806 76.15 16.6446 76.1203 15.4518 75.9396 C 14.4989 75.7952 13.2806 75.35 13.2806 75.35 " fill="none" stroke="#000000" stroke-width="3.5" stroke-linecap="round"/></g></g></g></svg>