<svg xmlns="http://www.w3.org/2000/svg" xmlns:xlink="http://www.w3.org/1999/xlink" version="1.1" width="486" height="119.41139" viewBox="0,0,486,119.41139"><defs><radialGradient cx="294.67607" cy="302.68419" r="62.99616" gradientUnits="userSpaceOnUse" id="color-1"><stop offset="0" stop-color="#ffffff"/><stop offset="1" stop-color="#ffffff" stop-opacity="0"/></radialGradient><linearGradient x1="246.08755" y1="264.9762" x2="160.78493" y2="285.92622" gradientUnits="userSpaceOnUse" id="color-2"><stop offset="0" stop-color="#ff9700"/><stop offset="1" stop-color="#ffca00"/></linearGradient><linearGradient x1="241.64564" y1="291.6522" x2="169.09406" y2="309.47066" gradientUnits="userSpaceOnUse" id="color-3"><stop offset="0" stop-color="#ff9700"/><stop offset="1" stop-color="#ffca00"/></linearGradient><linearGradient x1="266.7379" y1="272.37178" x2="161.97793" y2="298.10041" gradientUnits="userSpaceOnUse" id="color-4"><stop offset="0" stop-color="#ff8d00"/><stop offset="1" stop-color="#ffca00"/></linearGradient><radialGradient cx="304.66821" cy="302.85309" r="28.83112" gradientUnits="userSpaceOnUse" id="color-5"><stop offset="0" stop-color="#ffffff"/><stop offset="1" stop-color="#ffffff" stop-opacity="0"/></radialGradient><radialGradient cx="294.67607" cy="302.68419" r="62.99616" gradientUnits="userSpaceOnUse" id="color-6"><stop offset="0" stop-color="#ffffff"/><stop offset="1" stop-color="#ffffff" stop-opacity="0"/></radialGradient><radialGradient cx="376.16822" cy="290.35309" r="16.3338" gradientUnits="userSpaceOnUse" id="color-7"><stop offset="0" stop-color="#ffffff"/><stop offset="1" stop-color="#ffffff" stop-opacity="0"/></radialGradient><radialGradient cx="297.6761" cy="57.1399" r="62.9962" gradientUnits="userSpaceOnUse" id="color-1-,0,0,1,3,-245.54432"><stop offset="0" stop-color="#ffffff"/><stop offset="1" stop-color="#ffffff" stop-opacity="0"/></radialGradient><linearGradient x1="249.0875" y1="19.4319" x2="163.7849" y2="40.3819" gradientUnits="userSpaceOnUse" id="color-2-,0,0,1,3,-245.54432"><stop offset="0" stop-color="#ff9700"/><stop offset="1" stop-color="#ffca00"/></linearGradient><linearGradient x1="244.6456" y1="46.1079" x2="172.0941" y2="63.9263" gradientUnits="userSpaceOnUse" id="color-3-,0,0,1,3,-245.54432"><stop offset="0" stop-color="#ff9700"/><stop offset="1" stop-color="#ffca00"/></linearGradient><linearGradient x1="269.7379" y1="26.8275" x2="164.9779" y2="52.5561" gradientUnits="userSpaceOnUse" id="color-4-,0,0,1,3,-245.54432"><stop offset="0" stop-color="#ff8d00"/><stop offset="1" stop-color="#ffca00"/></linearGradient><radialGradient cx="297.6761" cy="57.1399" r="62.9962" gradientUnits="userSpaceOnUse" id="color-6-,0,0,1,3,-245.54432"><stop offset="0" stop-color="#ffffff"/><stop offset="1" stop-color="#ffffff" stop-opacity="0"/></radialGradient></defs><g><g data-paper-data="{&quot;isPaintingLayer&quot;:true}" fill-rule="nonzero" stroke-linejoin="miter" stroke-miterlimit="10" stroke-dasharray="" stroke-dashoffset="0" style="mix-blend-mode: normal"><g data-paper-data="{&quot;origPos&quot;:null}"><path d="M221,350.53526v-27h262v27z" data-paper-data="{&quot;origPos&quot;:null}" fill="#cbffff" stroke="none" stroke-width="0" stroke-linecap="butt" transform="matrix(1,0,0,1,3,-245.54432)"/><path d="M208.7854,325.23034l-1.20072,-0.60797h0.36105c0.27514,0.21141 0.55481,0.41462 0.83968,0.60797z" data-paper-data="{&quot;origPos&quot;:null}" fill="#cbffff" stroke="none" stroke-width="0" stroke-linecap="butt" transform="matrix(1,0,0,1,3,-245.54432)"/><path d="M251,333.12237h19l-9.5,7z" data-paper-data="{&quot;origPos&quot;:null}" fill="#cbffff" stroke="#000000" stroke-width="0" stroke-linecap="butt" transform="matrix(1,0,0,1,3,-245.54432)"/><path d="M271,333.12237h19l-9.5,12z" data-paper-data="{&quot;origPos&quot;:null}" fill="#cbffff" stroke="#000000" stroke-width="0" stroke-linecap="butt" transform="matrix(1,0,0,1,3,-245.54432)"/><path d="M 239.153 33.7799 C 239.1961 33.6721 239.2395 33.5643 239.2832 33.4568 C 239.2904 33.5492 239.2977 33.6416 239.305 33.734 C 239.2544 33.7493 239.2037 33.7646 239.153 33.7799 Z " data-paper-data="{&quot;origPos&quot;:null,&quot;origRot&quot;:0}" fill="url(#color-1-,0,0,1,3,-245.54432)" stroke="none" stroke-width="6" stroke-linecap="butt"/><path d="M130.12235,304.11149l27.97958,-13.31091l30.78268,-5.61028l31.19745,-14.4897l5.7269,11.74275l-29.1222,18.8776l-30.16406,7.33918l-25.81311,16.43137z" data-paper-data="{&quot;origPos&quot;:null,&quot;origRot&quot;:0}" fill="#4b2f00" stroke="none" stroke-width="0" stroke-linecap="butt" transform="matrix(1,0,0,1,3,-245.54432)"/><path d="M 223.1161 26.0345 L 204.277 10.8989 " data-paper-data="{&quot;origPos&quot;:null,&quot;origRot&quot;:0}" fill="none" stroke="#4b2f00" stroke-width="3" stroke-linecap="round"/><path d="M 206.2547 1.5 L 210.3259 14.007 " data-paper-data="{&quot;origPos&quot;:null,&quot;origRot&quot;:0}" fill="none" stroke="#4b2f00" stroke-width="3" stroke-linecap="round"/><path d="M 203.8761 23.4224 L 216.3914 21.5872 " data-paper-data="{&quot;origPos&quot;:null,&quot;origRot&quot;:0}" fill="none" stroke="#4b2f00" stroke-width="3" stroke-linecap="round"/><path d="M 227.956 4.5502 L 224.6929 29.1592 " data-paper-data="{&quot;origPos&quot;:null,&quot;origRot&quot;:0}" fill="none" stroke="#4b2f00" stroke-width="3" stroke-linecap="round"/><path d="M 226.8876 17.9707 L 234.4678 11.9052 " data-paper-data="{&quot;origPos&quot;:null,&quot;origRot&quot;:0}" fill="none" stroke="#4b2f00" stroke-width="3" stroke-linecap="round"/><path d="M 273.014 35.0178 L 265.8926 44.2121 L 224.2631 33.8565 L 252.1186 8.0385 " data-paper-data="{&quot;origPos&quot;:null,&quot;origRot&quot;:0}" fill="none" stroke="#4b2f00" stroke-width="3" stroke-linecap="round"/><path d="M 244.5425 15.222 L 245.8485 5.602 " data-paper-data="{&quot;origPos&quot;:null,&quot;origRot&quot;:0}" fill="none" stroke="#4b2f00" stroke-width="3" stroke-linecap="round"/><path d="M 247.9173 20.7997 L 237.638 22.6267 " data-paper-data="{&quot;origPos&quot;:null,&quot;origRot&quot;:0}" fill="none" stroke="#4b2f00" stroke-width="3" stroke-linecap="round"/><g data-paper-data="{&quot;origPos&quot;:null,&quot;origRot&quot;:0,&quot;index&quot;:null}" stroke-linecap="round"><path d="M 226.7477 59.8818 L 203.6567 48.3576 " stroke-width="3" fill="none" stroke="#4b2f00"/><path d="M 226.5868 53.1755 L 220.3759 55.3376 " stroke-width="3" fill="none" stroke="#4b2f00"/><path d="M 214.9948 54.7957 L 212.686 61.1139 " stroke-width="3" fill="none" stroke="#4b2f00"/></g><g data-paper-data="{&quot;origPos&quot;:null,&quot;origRot&quot;:0}" stroke-linecap="round"><path d="M 175.6459 56.6317 L 193.2294 75.5213 " stroke-width="3" fill="none" stroke="#4b2f00"/><path d="M 187.0689 70.6946 L 186.7514 77.2634 " stroke-width="3" fill="none" stroke="#4b2f00"/><path d="M 185.0274 65.6863 L 190.4348 61.6851 " stroke-width="3" fill="none" stroke="#4b2f00"/></g><path d="M 246.014 50.3231 L 240.8248 37.8202 " data-paper-data="{&quot;origPos&quot;:null,&quot;origRot&quot;:0}" fill="none" stroke="#4b2f00" stroke-width="3" stroke-linecap="round"/><path d="M 248.8804 39.3557 L 259.3683 33.5031 " data-paper-data="{&quot;origPos&quot;:null,&quot;origRot&quot;:0}" fill="none" stroke="#4b2f00" stroke-width="3" stroke-linecap="round"/><path d="M 226.9455 33.623 L 265.814 22.9696 " data-paper-data="{&quot;origPos&quot;:null,&quot;origRot&quot;:0}" fill="none" stroke="#4b2f00" stroke-width="3" stroke-linecap="round"/><path d="M 246.6029 28.1837 L 257.5124 15.3976 " data-paper-data="{&quot;origPos&quot;:null,&quot;origRot&quot;:0}" fill="none" stroke="#4b2f00" stroke-width="3" stroke-linecap="round"/><path d="M 260.0068 24.78 L 265.8388 29.6778 " data-paper-data="{&quot;origPos&quot;:null,&quot;origRot&quot;:0}" fill="none" stroke="#4b2f00" stroke-width="3" stroke-linecap="round"/><g data-paper-data="{&quot;origPos&quot;:null,&quot;origRot&quot;:0}" stroke-linecap="round"><path d="M 186.058 42.4951 L 179.9305 18.1444 " stroke-width="3" fill="none" stroke="#4b2f00"/><path d="M 184.4605 33.7802 L 189.8089 28.8411 " stroke-width="3" fill="none" stroke="#4b2f00"/></g><g data-paper-data="{&quot;origPos&quot;:null,&quot;origRot&quot;:0}" stroke-linecap="butt"><path d="M 162.4917 54.6419 C 158.9928 44.7273 161.0233 35.4949 165.091 34.4958 C 169.1587 33.4968 175.2927 40.7242 178.7917 50.6386 C 182.2906 60.5531 181.8294 69.4002 177.7617 70.3992 C 173.694 71.3982 165.9906 64.5564 162.4917 54.6419 Z " data-paper-data="{&quot;origPos&quot;:null}" fill="#ffca00" stroke-width="2" stroke="none"/><path d="M 245.6484 9.687 C 245.6484 9.687 243.4309 17.3198 238.116 20.1542 C 232.4948 23.152 225.9529 22.2805 219.4718 25.6257 C 212.9907 28.9709 216.134 31.1086 211.9267 33.6717 C 207.7195 36.2348 204.3878 34.4854 201.0767 36.8322 C 197.7656 39.1789 198.9193 44.3894 193.3042 46.8707 C 183.2255 51.3243 170.7941 49.7612 165.5379 43.3794 C 160.2817 36.9975 164.1911 28.2136 174.2697 23.76 C 179.3605 21.5104 185.87 24.2424 193.162 22.4791 C 200.454 20.7159 201.1222 16.9948 207.5342 15.7161 C 213.9462 14.4375 223.3342 17.2132 232.9088 14.553 C 242.0053 12.0255 245.6483 9.6869 245.6483 9.6869 Z " data-paper-data="{&quot;origPos&quot;:null,&quot;origRot&quot;:0,&quot;index&quot;:null}" fill="url(#color-2-,0,0,1,3,-245.54432)" stroke-width="2" stroke="none"/><path d="M 248.0847 55.8529 C 248.0847 55.8529 244.1184 55.3831 236.2055 57.0332 C 227.8766 58.77 222.9457 65.0624 217.6702 66.6542 C 212.3947 68.246 209.6887 65.3537 203.5033 66.9003 C 197.318 68.4469 194.3841 73.4981 189.4537 73.7098 C 179.6925 74.1287 171.6656 68.2763 171.525 60.6381 C 171.3844 52.9999 179.1832 46.4683 188.9443 46.0494 C 194.3825 45.816 196.703 50.7401 200.4408 51.3557 C 204.1785 51.9713 205.4691 49.0867 209.9669 49.5118 C 214.4646 49.937 213.5398 53.0737 220.1059 53.2147 C 226.672 53.3556 230.7468 49.8767 236.4996 50.0811 C 241.939 50.2742 248.0849 55.853 248.0849 55.853 Z " data-paper-data="{&quot;origPos&quot;:null,&quot;origRot&quot;:0,&quot;index&quot;:null}" fill="url(#color-3-,0,0,1,3,-245.54432)" stroke-width="2" stroke="none"/><path d="M 268.9008 24.4556 C 268.9008 24.4556 263.9968 33.5397 256.9529 36.2233 C 249.5028 39.0616 242.1609 36.981 233.6051 40.1161 C 225.0494 43.2513 228.0534 46.3734 222.3801 48.8922 C 216.7067 51.4109 213.3654 48.7392 208.8001 51.1284 C 204.2347 53.5176 203.9891 60.1284 196.7035 62.3299 C 183.6264 66.2813 169.6464 62.4422 165.4783 53.7551 C 161.3101 45.0679 168.5321 34.8224 181.6093 30.871 C 188.2145 28.8751 194.952 33.2479 203.9689 32.1905 C 212.9856 31.1331 214.8963 26.6412 222.7421 26.047 C 230.5879 25.4529 240.6596 30.3218 252.604 28.5074 C 263.952 26.7837 268.9009 24.4555 268.9009 24.4555 Z " data-paper-data="{&quot;origPos&quot;:null,&quot;origRot&quot;:0}" fill="url(#color-4-,0,0,1,3,-245.54432)" stroke-width="2" stroke="none"/></g><path d="M-2,348.53526v-25h249v25z" data-paper-data="{&quot;origPos&quot;:null}" fill="#000000" stroke="none" stroke-width="0" stroke-linecap="butt" transform="matrix(1,0,0,1,3,-245.54432)"/><path d="M-3,364.95572v-29h485v29z" data-paper-data="{&quot;origPos&quot;:null}" fill="#a16600" stroke="none" stroke-width="0" stroke-linecap="butt" transform="matrix(1,0,0,1,3,-245.54432)"/><path d="M317.73277,277.15188c14.19439,7.21535 19.85199,24.57136 12.63665,38.76575c-7.21535,14.19439 -24.57136,19.85199 -38.76575,12.63665c-14.19439,-7.21535 -19.85199,-24.57136 -12.63665,-38.76575c7.21535,-14.19439 24.57136,-19.85199 38.76575,-12.63665z" data-paper-data="{&quot;origPos&quot;:null,&quot;origRot&quot;:0}" fill="url(#color-5)" stroke="none" stroke-width="0" stroke-linecap="butt" transform="matrix(1,0,0,1,3,-245.54432)"/><path d="M 332.5132 14.907 C 332.5636 14.9999 332.5938 15.1226 332.6138 15.2581 C 332.5299 15.0048 332.4468 14.7845 332.5132 14.907 Z " data-paper-data="{&quot;origPos&quot;:null,&quot;origRot&quot;:0}" fill="url(#color-6-,0,0,1,3,-245.54432)" stroke="none" stroke-width="6" stroke-linecap="butt"/><path d="M 328.7397 100.6445 L 253.6518 58.0288 L 329.8317 15.8123 Z " data-paper-data="{&quot;origPos&quot;:null,&quot;origRot&quot;:0}" fill="none" stroke="#5ac8e6" stroke-width="6" stroke-linecap="butt"/><path d="M383.56972,275.79249c8.04159,4.08774 11.24682,13.9205 7.15909,21.96209c-4.08774,8.04159 -13.9205,11.24682 -21.9621,7.15909c-8.04159,-4.08774 -11.24682,-13.9205 -7.15909,-21.9621c4.08774,-8.04159 13.9205,-11.24681 21.9621,-7.15908z" data-paper-data="{&quot;origPos&quot;:null,&quot;origRot&quot;:0}" fill="url(#color-7)" stroke="none" stroke-width="0" stroke-linecap="butt" transform="matrix(1,0,0,1,3,-245.54432)"/><path d="M 375.691 31.5003 L 392.8637 46.2142 L 371.1653 53.256 Z " data-paper-data="{&quot;origPos&quot;:null,&quot;origRot&quot;:0}" fill="none" stroke="#5ac8e6" stroke-width="3.5" stroke-linecap="butt"/></g><path d="M36,334.62237h19l-9.5,19z" data-paper-data="{&quot;origPos&quot;:null}" fill="#000000" stroke="#000000" stroke-width="0" stroke-linecap="butt" transform="matrix(1,0,0,1,3,-245.54432)"/><path d="M24,328.12237h19l-9.5,19z" data-paper-data="{&quot;origPos&quot;:null}" fill="#000000" stroke="#000000" stroke-width="0" stroke-linecap="butt" transform="matrix(1,0,0,1,3,-245.54432)"/></g></g></svg>