<svg xmlns="http://www.w3.org/2000/svg" xmlns:xlink="http://www.w3.org/1999/xlink" version="1.1" width="92.44534" height="163.82425" viewBox="0,0,92.44534,163.82425"><g><g data-paper-data="{&quot;isPaintingLayer&quot;:true}" fill-rule="nonzero" stroke-linejoin="miter" stroke-miterlimit="10" stroke-dasharray="" stroke-dashoffset="0" style="mix-blend-mode: normal"><path d="M 77.585 30.3495 C 77.585 30.3495 81.0479 29.6068 81.1192 35.8242 C 81.2122 43.9326 75.9782 58.3192 68.1924 61.5285 C 60.3065 64.7792 46.1818 64.2269 46.1818 64.2269 " data-paper-data="{&quot;index&quot;:null}" fill="none" stroke="#000000" stroke-width="3.5" stroke-linecap="round"/><g><path d="M 1 48.5145 C 1 48.5145 4.1219 47.2871 6.12 47.0207 C 9.3979 46.5837 14.5192 46.712 14.5192 46.712 " data-paper-data="{&quot;origPos&quot;:null}" fill="none" stroke="#cd5e00" stroke-width="2" stroke-linecap="round"/><path d="M208.98488,125.49271c0,-9.58196 8.97826,-17.34966 20.05352,-17.34966c8.87076,0 59.67513,7.00838 59.67513,7.00838l-0.1549,21.89724c0,0 -41.43375,5.7937 -59.52022,5.7937c-11.07525,0 -20.05352,-7.76771 -20.05352,-17.34966z" data-paper-data="{&quot;origPos&quot;:null}" fill="#4e4e4e" stroke="none" stroke-width="0" stroke-linecap="butt" transform="matrix(1,0,0,1,-196.26819,-82.04789)"/></g><path d="M 45.0892 55.8584 L 45.0892 123.1555 L 33.0416 162.0743 " data-paper-data="{&quot;origPos&quot;:null}" fill="none" stroke="#000000" stroke-width="3.5" stroke-linecap="round"/><path d="M 57.94 161.8775 L 45.8924 121.7187 " fill="none" stroke="#000000" stroke-width="3.5" stroke-linecap="round"/><path d="M 20.9939 33.0513 C 20.9939 19.1245 32.3211 7.8346 46.2939 7.8346 C 60.2668 7.8346 71.594 19.1245 71.594 33.0513 C 71.594 46.978 60.2668 58.2679 46.2939 58.2679 C 32.3211 58.2679 20.9939 46.978 20.9939 33.0513 Z " data-paper-data="{&quot;origPos&quot;:null}" fill="#d4d4d4" stroke="#000000" stroke-width="2.5" stroke-linecap="butt"/><path d="M250.47801,108.32534c0,-2.66149 2.15756,-4.81905 4.81905,-4.81905c2.66149,0 4.81905,2.15756 4.81905,4.81905c0,2.66149 -2.15756,4.81905 -4.81905,4.81905c-2.66149,0 -4.81905,-2.15756 -4.81905,-4.81905z" data-paper-data="{&quot;origPos&quot;:null}" fill="#000000" stroke="none" stroke-width="0" stroke-linecap="butt" transform="matrix(1,0,0,1,-196.26819,-82.04789)"/><path d="M 53.4678 23.6638 L 61.8502 18.5292 " data-paper-data="{&quot;origPos&quot;:null,&quot;index&quot;:null,&quot;origRot&quot;:0}" fill="none" stroke="#000000" stroke-width="2.5" stroke-linecap="round"/><path d="M236.47801,109.07534c0,-3.16775 2.56796,-5.73571 5.73571,-5.73571c3.16775,0 5.73572,2.56797 5.73572,5.73571c0,3.16775 -2.56797,5.73571 -5.73572,5.73571c-3.16775,0 -5.73571,-2.56797 -5.73571,-5.73571z" data-paper-data="{&quot;origPos&quot;:null}" fill="#000000" stroke="none" stroke-width="0" stroke-linecap="butt" transform="matrix(1,0,0,1,-196.26819,-82.04789)"/><path d="M 57.075 9.7872 L 28.575 52.1205 " data-paper-data="{&quot;origPos&quot;:null}" fill="none" stroke="#000000" stroke-width="1" stroke-linecap="round"/><path d="M 49.7275 85.5387 C 49.7275 85.5387 40.1153 84.1058 38.8043 79.3936 C 37.4933 74.6813 43.786 64.1822 43.786 64.1822 " data-paper-data="{&quot;origPos&quot;:null}" fill="none" stroke="#000000" stroke-width="3.5" stroke-linecap="round"/><g data-paper-data="{&quot;origPos&quot;:null}"><path d="M267.02161,91.45826c0,3.9224 -10.55811,10.72713 -24.24767,10.72713c-13.68955,0 -24.78713,-6.55473 -24.78713,-10.47713c0,-3.9224 10.94494,-3.72713 24.6345,-3.72713c13.68955,0 24.4003,-0.44527 24.4003,3.47713z" data-paper-data="{&quot;origPos&quot;:null}" fill="#47270e" stroke="none" stroke-width="0" stroke-linecap="butt" transform="matrix(1,0,0,1,-196.26819,-82.04789)"/><path d="M230.92984,95.55674l2.44208,-12.07362c0,0 5.77559,0.59184 9.08149,0.59184c3.90156,0 9.38675,-0.59184 9.38675,-0.59184l2.28946,12.07362c0,0 -7.21248,0.88777 -11.82883,0.88777c-4.43766,0 -11.37094,-0.88777 -11.37094,-0.88777z" data-paper-data="{&quot;origPos&quot;:null}" fill="#201206" stroke="none" stroke-width="0" stroke-linecap="butt" transform="matrix(1,0,0,1,-196.26819,-82.04789)"/><path d="M251.91649,83.82343c0,0.9806 -4.16842,1.77553 -9.31043,1.77553c-5.14201,0 -9.31043,-0.79493 -9.31043,-1.77553c0,-0.9806 4.16842,-1.77553 9.31043,-1.77553c5.14201,0 9.31043,0.79493 9.31043,1.77553z" data-paper-data="{&quot;origPos&quot;:null}" fill="#201206" stroke="none" stroke-width="0" stroke-linecap="butt" transform="matrix(1,0,0,1,-196.26819,-82.04789)"/><path d="M241.67564,88.24971c0,-1.51798 1.48816,-2.74854 3.3239,-2.74854c1.83574,0 3.3239,1.23056 3.3239,2.74854c0,1.51798 -1.48816,2.74854 -3.3239,2.74854c-1.83574,0 -3.3239,-1.23056 -3.3239,-2.74854z" data-paper-data="{&quot;origPos&quot;:null}" fill="#ffffff" stroke="none" stroke-width="0" stroke-linecap="butt" transform="matrix(1,0,0,1,-196.26819,-82.04789)"/><path d="M245.50271,87.58536c0,-0.50868 0.42538,-0.92105 0.95011,-0.92105c0.52473,0 0.95011,0.41237 0.95011,0.92105c0,0.50868 -0.42538,0.92105 -0.95011,0.92105c-0.52473,0 -0.95011,-0.41237 -0.95011,-0.92105z" data-paper-data="{&quot;origPos&quot;:null}" fill="#000000" stroke="none" stroke-width="0" stroke-linecap="butt" transform="matrix(1,0,0,1,-196.26819,-82.04789)"/><path d="M243.16814,87.58536c0,-0.50868 0.42539,-0.92105 0.95012,-0.92105c0.52473,0 0.95011,0.41237 0.95011,0.92105c0,0.50868 -0.42538,0.92105 -0.95011,0.92105c-0.52473,0 -0.95012,-0.41237 -0.95012,-0.92105z" data-paper-data="{&quot;origPos&quot;:null}" fill="#000000" stroke="none" stroke-width="0" stroke-linecap="butt" transform="matrix(1,0,0,1,-196.26819,-82.04789)"/><path d="M242.89668,93.08536v-2.31579c0,0 1.28289,0.52632 2.07385,0.52632c0.88292,0 2.21525,-0.52632 2.21525,-0.52632v2.31579z" data-paper-data="{&quot;origPos&quot;:null}" fill="#ffffff" stroke="none" stroke-width="0" stroke-linecap="butt" transform="matrix(1,0,0,1,-196.26819,-82.04789)"/><path d="M 47.4429 10.4059 L 47.4429 9.0375 " data-paper-data="{&quot;origPos&quot;:null}" fill="none" stroke="#000000" stroke-width="0.5" stroke-linecap="round"/><path d="M 50.2118 10.3006 L 50.2118 8.9322 " data-paper-data="{&quot;origPos&quot;:null}" fill="none" stroke="#000000" stroke-width="0.5" stroke-linecap="round"/><path d="M 48.8545 9.3006 L 48.8545 10.3006 " data-paper-data="{&quot;origPos&quot;:null}" fill="none" stroke="#000000" stroke-width="0.5" stroke-linecap="round"/></g><path d="M 73.6475 34.9195 C 74.687 31.8529 77.6567 30.2561 77.6567 30.2561 " fill="none" stroke="#000000" stroke-width="3.5" stroke-linecap="round"/><g stroke-linecap="butt"><g><path d="M251.76716,162.1825c0,2.21694 1.14052,2.62462 2.54742,2.62462c1.4069,0 2.54742,-0.40768 2.54742,-2.62462c0,-0.73843 0.4373,-2.0118 0.14371,-3.25656c-0.58783,-2.49227 -2.12764,-5.15239 -2.12764,-5.15239c0,0 -0.73536,2.39832 -1.64544,4.74415c-0.55224,1.42345 -1.46548,2.82758 -1.46548,3.66479z" fill="#ff9400" stroke-width="0" stroke="none" transform="matrix(1,0,0,1,-196.26819,-82.04789)"/><path d="M252.73976,162.13467c0,0.55225 -0.92204,1.11618 -0.73322,1.36946c0.14523,0.19481 0.49414,1.21039 0.97112,1.23782c0.48957,0.02815 1.10903,-0.93446 1.38571,-0.93446c0.89669,0 1.62361,-0.25984 1.62361,-1.67281c0,-0.45799 0.19011,-1.65769 0.06623,-2.43543c-0.2583,-1.62171 -1.03243,-2.98084 -1.03243,-2.98084c0,0 -0.33323,1.38812 -1.0349,2.95154c-0.38476,0.85729 -1.24612,1.96432 -1.24612,2.46472z" fill="#ffee6c" stroke-width="0" stroke="none" transform="matrix(1,0,0,1,-196.26819,-82.04789)"/></g><path d="M251.67299,166.08753l-1.35709,-1.69493l1.61018,-1.28924l1.35709,1.69493z" fill="#1d1d1d" stroke-width="0" stroke="none" transform="matrix(1,0,0,1,-196.26819,-82.04789)"/><path d="M251.60397,168.63122l2.12139,-1.31704c0,0 0.67426,2.08308 1.23764,2.99102c0.61197,0.98624 2.30047,2.71097 2.30047,2.71097l-2.12139,1.31704z" fill="#6c6c6c" stroke-width="0" stroke="none" transform="matrix(1,0,0,1,-196.26819,-82.04789)"/><path d="M246.04525,173.46435l-4.4984,-5.61822l7.37392,-5.90415c0,0 1.99896,1.55318 2.72472,2.45962c0.77096,0.96289 1.77367,3.1586 1.77367,3.1586z" fill="#6c6c6c" stroke-width="0" stroke="none" transform="matrix(1,0,0,1,-196.26819,-82.04789)"/><path d="M252.64596,168.15881c-0.33727,-0.42123 -0.26921,-1.03614 0.15202,-1.37341c0.42123,-0.33727 1.03614,-0.26921 1.37341,0.15202c0.33727,0.42123 0.26921,1.03614 -0.15202,1.37341c-0.42123,0.33727 -1.03614,0.26921 -1.37341,-0.15202z" fill="#828282" stroke-width="0" stroke="none" transform="matrix(1,0,0,1,-196.26819,-82.04789)"/></g></g></g></svg>