<svg xmlns="http://www.w3.org/2000/svg" xmlns:xlink="http://www.w3.org/1999/xlink" version="1.1" width="63.04192" height="158.29196" viewBox="0,0,63.04192,158.29196"><defs><linearGradient x1="215.78206" y1="181.16667" x2="266.98064" y2="181.16667" gradientUnits="userSpaceOnUse" id="color-1"><stop offset="0" stop-color="#5a5040"/><stop offset="1" stop-color="#4c4436"/></linearGradient><linearGradient x1="254.51628" y1="162.62753" x2="264.56502" y2="162.62753" gradientUnits="userSpaceOnUse" id="color-2"><stop offset="0" stop-color="#b6b6b6"/><stop offset="1" stop-color="#b6b6b6"/></linearGradient><linearGradient x1="258.92061" y1="168.74295" x2="266.34436" y2="168.74295" gradientUnits="userSpaceOnUse" id="color-3"><stop offset="0" stop-color="#b6b6b6"/><stop offset="1" stop-color="#b6b6b6"/></linearGradient><linearGradient x1="262.9462" y1="165.2464" x2="272.99494" y2="165.2464" gradientUnits="userSpaceOnUse" id="color-4"><stop offset="0" stop-color="#b6b6b6"/><stop offset="1" stop-color="#b6b6b6"/></linearGradient><linearGradient x1="264.47829" y1="161.48579" x2="263.39452" y2="166.42843" gradientUnits="userSpaceOnUse" id="color-5"><stop offset="0" stop-color="#7c7c7c"/><stop offset="1" stop-color="#7c7c7c"/></linearGradient><linearGradient x1="228.77961" y1="181.43982" x2="230.19336" y2="184.61595" gradientUnits="userSpaceOnUse" id="color-6"><stop offset="0" stop-color="#424242"/><stop offset="1" stop-color="#424242"/></linearGradient><linearGradient x1="5.829" y1="95.5165" x2="57.0276" y2="95.5165" gradientUnits="userSpaceOnUse" id="color-1-,0,0,1,-209.95302,-85.65013"><stop offset="0" stop-color="#5a5040"/><stop offset="1" stop-color="#4c4436"/></linearGradient><linearGradient x1="18.8266" y1="95.7897" x2="20.2403" y2="98.9658" gradientUnits="userSpaceOnUse" id="color-6-,0,0,1,-209.95302,-85.65013"><stop offset="0" stop-color="#424242"/><stop offset="1" stop-color="#424242"/></linearGradient></defs><g><g data-paper-data="{&quot;isPaintingLayer&quot;:true}" fill-rule="nonzero" stroke-linecap="none" stroke-linejoin="miter" stroke-miterlimit="10" stroke-dasharray="" stroke-dashoffset="0" font-family="none" font-weight="none" font-size="none" text-anchor="none" style="mix-blend-mode: normal"><g><path d="M 9.047 137.3499 C 9.047 137.3499 7.2739 113.4177 13.3803 81.3499 C 15.6124 69.6282 25.047 56.0165 25.047 56.0165 L 40.7136 52.6832 C 40.7136 52.6832 54.4149 78.3681 56.784 98.0081 C 58.4477 111.8007 51.047 138.3499 51.047 138.3499 C 51.047 138.3499 38.0515 136.3738 29.7337 136.1757 C 21.6604 135.9835 9.047 137.3499 9.047 137.3499 Z " data-paper-data="{&quot;origPos&quot;:null}" fill="url(#color-1-,0,0,1,-209.95302,-85.65013)" stroke="#000000" stroke-width="1.5" stroke-linecap="butt"/><path d="M250,221.83334c0,0 4.79313,-13.65036 5.92956,-22.75776c1.13643,-9.10739 1.7087,-18.32611 0.65277,-29.99326c-1.05593,-11.66715 -6.08233,-29.99899 -6.08233,-29.99899c0,0 8.48428,16.61711 11.63181,27.78331c2.34657,8.32473 3.92964,12.06609 3.87152,23.21502c-0.06964,13.35659 -5.50333,33.25166 -5.50333,33.25166z" data-paper-data="{&quot;origPos&quot;:null}" fill="#40392e" stroke="#000000" stroke-width="0" stroke-linecap="butt" transform="matrix(1,0,0,1,-209.95302,-85.65013)"/><path d="M 31.4044 50.3261 L 31.4044 117.6232 L 19.3568 156.542 " data-paper-data="{&quot;origPos&quot;:null}" fill="none" stroke="#000000" stroke-width="3.5" stroke-linecap="round"/><path d="M 32.2076 116.1864 L 44.2552 156.3451 " fill="none" stroke="#000000" stroke-width="3.5" stroke-linecap="round"/><path d="M 7.3091 27.4356 C 7.3091 13.4628 18.6363 2.1356 32.6091 2.1356 C 46.5819 2.1356 57.9091 13.4628 57.9091 27.4356 C 57.9091 41.4084 46.5819 52.7356 32.6091 52.7356 C 18.6363 52.7356 7.3091 41.4084 7.3091 27.4356 Z " data-paper-data="{&quot;origPos&quot;:null}" fill="#d4d4d4" stroke="#000000" stroke-width="2.5" stroke-linecap="butt"/><path d="M240.74468,109.26195c0,-2.66149 2.15756,-4.81905 4.81905,-4.81905c2.66149,0 4.81905,2.15756 4.81905,4.81905c0,2.66149 -2.15756,4.81905 -4.81905,4.81905c-2.66149,0 -4.81905,-2.15756 -4.81905,-4.81905z" data-paper-data="{&quot;origPos&quot;:null}" fill="#000000" stroke="none" stroke-width="0" stroke-linecap="butt" transform="matrix(1,0,0,1,-209.95302,-85.65013)"/><path d="M260.75124,98.2381c2.55417,2.03886 3.76317,3.89658 4.62698,7.16593c0.92109,3.48618 0.23017,10.11978 0.23017,10.11978l-6.57143,1.42857c0,0 2.6355,-9.34315 0.61669,-14.16421c-2.01882,-4.82106 -6.33097,-7.83579 -6.33097,-7.83579c0,0 4.8744,1.24685 7.42857,3.28571z" data-paper-data="{&quot;origPos&quot;:null,&quot;index&quot;:null}" fill="#959595" stroke="#000000" stroke-width="0" stroke-linecap="butt" transform="matrix(1,0,0,1,-209.95302,-85.65013)"/><path d="M252.39866,108.79528c0,-2.66148 2.15757,-4.81905 4.81905,-4.81905c2.66148,0 4.81905,2.15757 4.81905,4.81905c0,2.66148 -2.15757,4.81905 -4.81905,4.81905c-2.66148,0 -4.81905,-2.15757 -4.81905,-4.81905z" data-paper-data="{&quot;origPos&quot;:null}" fill="#000000" stroke="none" stroke-width="0" stroke-linecap="butt" transform="matrix(1,0,0,1,-209.95302,-85.65013)"/><path d="M 39.1377 19.9229 L 30.0107 16.2721 " data-paper-data="{&quot;origPos&quot;:null}" fill="none" stroke="#000000" stroke-width="2.5" stroke-linecap="round"/><path d="M 42.8488 19.7261 L 49.7853 16.4404 " data-paper-data="{&quot;origPos&quot;:null}" fill="none" stroke="#000000" stroke-width="2.5" stroke-linecap="round"/><path d="M 54.461 78.6556 C 54.461 78.6556 46.1721 84.0694 43.0276 81.2318 C 37.5202 76.2619 32.2917 58.6499 32.2917 58.6499 " data-paper-data="{&quot;origPos&quot;:null,&quot;index&quot;:null}" fill="none" stroke="#000000" stroke-width="3.5" stroke-linecap="round"/><g data-paper-data="{&quot;origPos&quot;:null,&quot;origRot&quot;:0}" stroke-linecap="butt"><path d="M263.44366,166.40152c0,0 -4.17874,-1.57299 -5.85545,-2.99062c-1.80732,-1.52806 -3.07193,-4.55736 -3.07193,-4.55736c0,0 1.93275,1.39134 4.07805,1.97889c1.77635,0.4865 5.97069,0.77325 5.97069,0.77325z" data-paper-data="{&quot;origPos&quot;:null,&quot;origRot&quot;:0,&quot;index&quot;:null}" fill="url(#color-2)" stroke-width="0" stroke="none" transform="matrix(1,0,0,1,-209.95302,-85.65013)"/><path d="M266.34436,164.7549c0,0 -1.51501,4.2001 -2.90932,5.89628c-1.50292,1.82828 -4.51443,3.1347 -4.51443,3.1347c0,0 1.36446,-1.9518 1.92228,-4.10503c0.46188,-1.78291 0.69057,-5.98082 0.69057,-5.98082z" data-paper-data="{&quot;origPos&quot;:null,&quot;index&quot;:null}" fill="url(#color-3)" stroke-width="0" stroke="none" transform="matrix(1,0,0,1,-209.95302,-85.65013)"/><path d="M261.53375,163.3456c0,0 1.51501,-4.2001 2.90932,-5.89626c1.50292,-1.82828 4.51443,-3.1347 4.51443,-3.1347c0,0 -1.36446,1.9518 -1.92228,4.10503c-0.46188,1.78291 -0.69057,5.98082 -0.69057,5.98082z" data-paper-data="{&quot;origPos&quot;:null}" fill="#b6b6b6" stroke-width="0" stroke="none" transform="matrix(1,0,0,1,-209.95302,-85.65013)"/><path d="M264.06756,161.47241c0,0 4.17874,1.57299 5.85545,2.99062c1.80732,1.52806 3.07193,4.55736 3.07193,4.55736c0,0 -1.93275,-1.39134 -4.07805,-1.97889c-1.77635,-0.4865 -5.97069,-0.77325 -5.97069,-0.77325z" data-paper-data="{&quot;origPos&quot;:null,&quot;origRot&quot;:0}" fill="url(#color-4)" stroke-width="0" stroke="none" transform="matrix(1,0,0,1,-209.95302,-85.65013)"/><path d="M261.46507,163.41523c0.29928,-1.36488 1.64834,-2.22871 3.0132,-1.92943c1.36488,0.29928 2.22871,1.64834 1.92943,3.0132c-0.29928,1.36488 -1.64834,2.22871 -3.0132,1.92943c-1.36488,-0.29928 -2.22871,-1.64834 -1.92943,-3.0132z" data-paper-data="{&quot;origPos&quot;:null}" fill="url(#color-5)" stroke-width="0" stroke="none" transform="matrix(1,0,0,1,-209.95302,-85.65013)"/></g><path d="M 7.647 25.8165 L 42.742 33.1545 L 57.9803 30.3499 C 57.9803 30.3499 56.4112 43.1373 51.0644 47.4656 C 41.7625 54.9956 28.234 53.6983 18.623 48.3471 C 7.2819 42.0325 7.647 25.8165 7.647 25.8165 Z " data-paper-data="{&quot;origPos&quot;:null}" fill="#5a5040" stroke="#000000" stroke-width="1.5" stroke-linecap="butt"/><path d="M 20.0218 97.6499 C 20.0218 97.6499 17.3575 89.2008 19.6753 83.3358 C 23.3725 73.9806 30.1012 58.6499 30.1012 58.6499 " data-paper-data="{&quot;origPos&quot;:null}" fill="none" stroke="#000000" stroke-width="3.5" stroke-linecap="round"/><path d="M 12.847 8.1499 C 18.4014 1.2437 31.996 -1.2952 43.5974 2.5387 C 55.1988 6.3726 58.7194 13.7445 59.6187 23.1472 C 60.4812 32.1649 57.3749 39.9086 53.1412 45.8174 C 50.1629 49.9741 41.647 52.7499 41.647 52.7499 C 41.647 52.7499 56.0159 49.4624 53.8948 20.9856 C 53.3669 13.8983 45.7635 5.174 33.4637 8.7704 C 22.5048 11.9747 23.9712 20.9041 23.7536 25.9511 C 22.7877 48.3483 40.847 52.5499 40.847 52.5499 C 40.847 52.5499 19.8373 57.1291 11.1085 43.8422 C -1.2346 25.0536 12.847 8.1499 12.847 8.1499 Z " data-paper-data="{&quot;origPos&quot;:null}" fill="#99886c" stroke="#000000" stroke-width="1.5" stroke-linecap="butt"/><path d="M250.14286,137.23809c0,0 3.96748,-5.5125 5.71232,-9.42335c1.74484,-3.91084 2.43053,-9.29094 2.43053,-9.29094l5,-1.28571c0,0 -0.89801,5.92428 -2.14285,9.57143c-1.24484,3.64715 -1.43394,4.8528 -3.44068,6.78729c-3.8049,3.6679 -7.55931,3.64128 -7.55931,3.64128z" data-paper-data="{&quot;origPos&quot;:null,&quot;index&quot;:null}" fill="#3f382c" stroke="#000000" stroke-width="0" stroke-linecap="butt" transform="matrix(1,0,0,1,-209.95302,-85.65013)"/><g data-paper-data="{&quot;origPos&quot;:null,&quot;origRot&quot;:0}" stroke-linecap="butt"><path d="M 10.2211 93.5552 L 22.9257 87.9002 L 24.3395 91.0764 L 11.6349 96.7314 Z " data-paper-data="{&quot;origPos&quot;:null}" fill="#424242" stroke-width="0.75" stroke="#000000"/><path d="M 12.4743 98.6172 L 25.1789 92.9622 L 26.5926 96.1383 L 13.8881 101.7933 Z " data-paper-data="{&quot;origPos&quot;:null}" fill="url(#color-6-,0,0,1,-209.95302,-85.65013)" stroke-width="0.75" stroke="#000000"/><path d="M 25.2367 89.168 C 24.4423 89.5407 23.6278 89.4795 23.4176 89.0314 C 23.2073 88.5832 23.6809 87.9178 24.4754 87.5451 C 25.2699 87.1724 26.0843 87.2336 26.2945 87.6817 C 26.5048 88.1299 26.0312 88.7953 25.2367 89.168 Z " data-paper-data="{&quot;origPos&quot;:null,&quot;origRot&quot;:0}" fill="none" stroke-width="0.75" stroke="#000000"/><path d="M 27.2283 89.0842 C 26.3572 89.1902 25.6026 88.8777 25.5428 88.3863 C 25.4831 87.8949 26.1408 87.4107 27.0119 87.3047 C 27.883 87.1988 28.6376 87.5113 28.6974 88.0027 C 28.7571 88.4941 28.0994 88.9783 27.2283 89.0842 Z " data-paper-data="{&quot;origPos&quot;:null,&quot;origRot&quot;:0}" fill="none" stroke-width="0.75" stroke="#000000"/><path d="M 29.0272 93.6987 C 29.2374 94.1469 28.7638 94.8123 27.9694 95.185 C 27.1749 95.5577 26.3605 95.4965 26.1502 95.0484 C 25.94 94.6002 26.4136 93.9348 27.2081 93.5621 C 28.0025 93.1894 28.817 93.2506 29.0272 93.6987 Z " data-paper-data="{&quot;origPos&quot;:null,&quot;index&quot;:null,&quot;origRot&quot;:0}" fill="none" stroke-width="0.75" stroke="#000000"/><path d="M 30.3164 91.6458 C 30.6561 92.0059 30.414 92.7859 29.7757 93.3881 C 29.1374 93.9903 28.3446 94.1865 28.0049 93.8265 C 27.6652 93.4664 27.9073 92.6863 28.5456 92.0842 C 29.1839 91.482 29.9767 91.2857 30.3164 91.6458 Z " data-paper-data="{&quot;origPos&quot;:null,&quot;origRot&quot;:0,&quot;index&quot;:null}" fill="none" stroke-width="0.75" stroke="#000000"/><path d="M 30.4123 89.2315 C 30.9073 89.2374 31.3 89.9535 31.2895 90.831 C 31.279 91.7085 30.8692 92.415 30.3742 92.4091 C 29.8793 92.4031 29.4865 91.687 29.497 90.8096 C 29.5075 89.9321 29.9173 89.2256 30.4123 89.2315 Z " data-paper-data="{&quot;origPos&quot;:null,&quot;index&quot;:null,&quot;origRot&quot;:0}" fill="none" stroke-width="0.75" stroke="#000000"/><path d="M 28.341 87.4947 C 28.7256 87.183 29.4852 87.4831 30.0377 88.1648 C 30.5902 88.8466 30.7264 89.6519 30.3418 89.9636 C 29.9572 90.2752 29.1975 89.9752 28.645 89.2935 C 28.0925 88.6117 27.9564 87.8064 28.341 87.4947 Z " data-paper-data="{&quot;origPos&quot;:null,&quot;origRot&quot;:0,&quot;index&quot;:null}" fill="none" stroke-width="0.75" stroke="#000000"/></g><path d="M 6.3803 138.0165 C 6.3803 138.0165 5.0395 101.8295 8.875 83.7884 C 12.0642 68.7873 24.3803 53.3499 24.3803 53.3499 L 39.047 53.3499 C 39.047 53.3499 33.7244 64.1445 30.7136 88.3499 C 26.5279 122.0022 30.7136 140.3499 30.7136 140.3499 C 30.7136 140.3499 20.3155 140.2834 17.5005 140.0275 C 13.1607 139.6329 6.3803 138.0165 6.3803 138.0165 Z " data-paper-data="{&quot;origPos&quot;:null}" fill="#99886c" stroke="#000000" stroke-width="1.5" stroke-linecap="butt"/><path d="M220.83334,128.16667c-6.79242,-12.73991 -4.38778,-20.94195 -2,-26.83333c4.10193,-10.12072 13,-12.66667 13,-12.66667c0,0 -7.68094,9.19132 -8.16667,21c-0.69758,16.95886 6.83334,26.5 6.83334,26.5c0,0 -5.4407,-0.07373 -9.66666,-8z" data-paper-data="{&quot;origPos&quot;:null}" fill="#726551" stroke="#000000" stroke-width="0" stroke-linecap="butt" transform="matrix(1,0,0,1,-209.95302,-85.65013)"/><path d="M216.5,223c0,0 -1.12338,-35.51577 3.23247,-54.4902c3.33624,-14.53294 14.93419,-28.84314 14.93419,-28.84314c0,0 -5.029,13.2457 -7.08922,21.8162c-1.90147,7.91009 -1.69424,12.37851 -2.85366,20.43089c-2.23379,15.51408 -0.47379,42.75291 -0.47379,42.75291c0,0 -3.04929,-0.4332 -4.20093,-0.65713c-1.18994,-0.23138 -3.54907,-1.00954 -3.54907,-1.00954z" data-paper-data="{&quot;origPos&quot;:null}" fill="#726551" stroke="none" stroke-width="0" stroke-linecap="butt" transform="matrix(1,0,0,1,-209.95302,-85.65013)"/></g></g></g></svg>