<svg version="1.1" xmlns="http://www.w3.org/2000/svg" xmlns:xlink="http://www.w3.org/1999/xlink" width="498.58489" height="377.69708" viewBox="0,0,498.58489,377.69708"><defs><radialGradient cx="279.54913" cy="9.13498" r="247.25" gradientUnits="userSpaceOnUse" id="color-1"><stop offset="0" stop-color="#ffe778"/><stop offset="1" stop-color="#78fff7"/></radialGradient><linearGradient x1="240.67746" y1="162.02821" x2="240.67746" y2="201.8024" gradientUnits="userSpaceOnUse" id="color-2"><stop offset="0" stop-color="#6d8fff"/><stop offset="1" stop-color="#c6d3ff"/></linearGradient><linearGradient x1="175.95638" y1="86.79942" x2="205.41912" y2="86.79942" gradientUnits="userSpaceOnUse" id="color-3"><stop offset="0" stop-color="#5293ff"/><stop offset="1" stop-color="#8fd7ff"/></linearGradient><linearGradient x1="33.8601" y1="87.47591" x2="63.32281" y2="87.47591" gradientUnits="userSpaceOnUse" id="color-4"><stop offset="0" stop-color="#8fd7ff"/><stop offset="1" stop-color="#5293ff"/></linearGradient><linearGradient x1="418.20644" y1="86.54942" x2="447.66917" y2="86.54942" gradientUnits="userSpaceOnUse" id="color-5"><stop offset="0" stop-color="#5293ff"/><stop offset="1" stop-color="#8fd7ff"/></linearGradient><linearGradient x1="276.1101" y1="87.22591" x2="305.57277" y2="87.22591" gradientUnits="userSpaceOnUse" id="color-6"><stop offset="0" stop-color="#8fd7ff"/><stop offset="1" stop-color="#5293ff"/></linearGradient><linearGradient x1="120.87859" y1="58.33042" x2="120.87859" y2="223.15771" gradientUnits="userSpaceOnUse" id="color-7"><stop offset="0" stop-color="#e4fcff" stop-opacity="0"/><stop offset="1" stop-color="#e4fcff"/></linearGradient><linearGradient x1="364.37859" y1="57.09891" x2="364.37859" y2="221.92624" gradientUnits="userSpaceOnUse" id="color-8"><stop offset="0" stop-color="#e4fcff" stop-opacity="0"/><stop offset="1" stop-color="#e4fcff"/></linearGradient></defs><g transform="translate(11.57662,12.76356)"><g data-paper-data="{&quot;isPaintingLayer&quot;:true}" fill-rule="nonzero" stroke-linejoin="miter" stroke-miterlimit="10" stroke-dasharray="" stroke-dashoffset="0" style="mix-blend-mode: normal"><path d="M-7.81247,229.20665v-238.73828h494.5v238.73828z" fill="url(#color-1)" stroke="none" stroke-width="NaN" stroke-linecap="butt"/><path d="M246.27636,88.86283c0,-1.43918 1.16669,-2.60587 2.60587,-2.60587c1.43918,0 2.60587,1.16669 2.60587,2.60587c0,1.43918 -1.16669,2.60587 -2.60587,2.60587c-1.43918,0 -2.60587,-1.16669 -2.60587,-2.60587z" fill="#9a9a9a" stroke="none" stroke-width="0" stroke-linecap="butt"/><path d="M283.3832,-12.76355c11.87412,0 21.5,9.62588 21.5,21.5c0,11.87412 -9.62588,21.5 -21.5,21.5c-11.87412,0 -21.5,-9.62588 -21.5,-21.5c0,-11.87412 9.62588,-21.5 21.5,-21.5z" fill="#ffdc48" stroke="none" stroke-width="0" stroke-linecap="butt"/><path d="M-2.27259,225.8024l-0.73472,-114.77413c0,0 159.99051,-1.30507 239.97318,-0.95102c82.01631,0.36305 246.17693,3.103 246.17693,3.103l0.21936,109.50514z" fill="#6d8fff" stroke="none" stroke-width="0" stroke-linecap="butt"/><path d="M472.45672,154.24105c-1.37851,1.29316 -2.1978,1.95616 -5.2602,1.95616c-1.70303,0 -3.78987,-1.86724 -5.88397,-1.86724c-2.18101,0 -4.26062,2.75641 -7.18672,2.75641c-2.9261,0 -5.23885,-2.75641 -7.18808,-2.75641c-1.60262,0 -3.63091,1.42266 -5.43804,1.42266c-3.07406,0 -3.83175,-0.53513 -5.143,-1.68941" fill="none" stroke="#315cea" stroke-width="1" stroke-linecap="round"/><path d="M266.06247,113.76844c0,0.50379 -0.06215,1.33153 -1.38613,1.91999c-0.83318,0.37032 -2.63964,0.5066 -3.75941,0.84463c-1.67316,0.50509 -2.11846,1.20711 -4.45311,1.45008c-1.71709,0.1787 -4.86104,-0.27131 -6.79756,-0.27131c-1.98428,0 -5.02611,0.21111 -6.72359,0.02636c-2.24833,-0.24471 -3.04281,-0.94035 -4.77346,-1.35126c-2.03309,-0.48271 -3.99915,-0.82873 -4.74098,-1.40873c-0.34402,-0.26897 -0.34265,-0.72155 -0.34265,-0.97915c0,-0.51354 1.31382,-0.72552 2.57466,-1.09135c1.16413,-0.33776 2.27346,-0.83521 4.11496,-1.08467c2.54496,-0.34475 6.11061,-0.38373 9.7527,-0.38373c6.8985,0 12.34907,-0.06962 14.82805,0.83023c0.80253,0.29131 1.70651,1.09711 1.70651,1.49891z" fill="#ffe074" stroke="none" stroke-width="0" stroke-linecap="butt"/><path d="M-1.77256,201.8024l-0.73472,-39.77413l486.15011,0.74576l0.21936,37.9482z" fill="url(#color-2)" stroke="none" stroke-width="0" stroke-linecap="butt"/><path d="M339.38322,168.15117c-2.6903,3.37924 -4.28924,5.11176 -10.26584,5.11176c-3.32365,0 -7.39633,-4.87941 -11.48319,-4.87941c-4.25647,0 -8.31505,7.20294 -14.02564,7.20294c-5.71059,0 -10.22415,-7.20294 -14.02828,-7.20294c-3.12766,0 -7.08609,3.71765 -10.61289,3.71765c-5.99934,0 -7.47807,-1.3984 -10.03711,-4.41471" fill="none" stroke="#315cea" stroke-width="1.5" stroke-linecap="round"/><path d="M-2.99173,364.93353v-171.49611c0,0 16.19401,5.65905 42.13423,4.81081c25.42706,-0.83146 57.48922,4.61275 92.00741,4.23893c37.22365,-0.40312 75.65099,-5.92804 103.67833,-5.92804c10.73622,0 24.19111,-3.59029 37.24831,-3.41936c48.45189,0.63428 110.83072,11.0808 157.78184,14.60356c37.90747,2.84421 57.14989,-14.3059 57.14989,-14.3059c0,0 0,33.81689 0,55.75947c0,31.61285 0,115.73664 0,115.73664z" fill="#f3e5a5" stroke="none" stroke-width="0" stroke-linecap="butt"/><path d="M124.35673,133.43643c-1.55034,1.45436 -2.47177,2.2 -5.91591,2.2c-1.91532,0 -4.26229,-2.1 -6.61743,-2.1c-2.45288,0 -4.79172,3.1 -8.08257,3.1c-3.29086,0 -5.89189,-3.1 -8.0841,-3.1c-1.80238,0 -4.08351,1.6 -6.1159,1.6c-3.45725,0 -4.3094,-0.60184 -5.7841,-1.9" fill="none" stroke="#315cea" stroke-width="1" stroke-linecap="round"/><path d="M-11.57661,204.45095c0,-15.14342 5.58489,-11.01354 5.58489,-11.01354c0,0 16.29315,-2.6323 42.39219,-3.48054c25.58274,-0.83146 57.8412,8.59259 92.57072,8.21877c37.45155,-0.40312 77.4489,-10.57119 105.64783,-10.57119c10.80196,0 13.99499,-7.90179 27.13213,-7.73086c48.74854,0.63428 112.51033,16.71892 159.74891,20.24167c38.13956,2.84421 65.50822,-6.67785 65.50822,-6.67785c0,0 -3.01837,0.81689 -3.01837,22.75947c0,11.46277 -69.06236,-2.54879 -153.42095,-6.86858c-35.26735,-1.80595 -72.37788,5.509 -109.56224,5.19917c-119.16782,-0.99295 -232.58333,4.71423 -232.58333,-10.07651z" fill="#cabe89" stroke="none" stroke-width="0" stroke-linecap="butt"/><text transform="translate(80.34162,53.14773) scale(0.43242,0.43242)" font-size="40" xml:space="preserve" fill="#000000" fill-rule="nonzero" stroke="#000000" stroke-width="1" stroke-linecap="butt" stroke-linejoin="miter" stroke-miterlimit="10" stroke-dasharray="" stroke-dashoffset="0" font-family="Serif" font-weight="normal" text-anchor="start" style="mix-blend-mode: normal"><tspan x="0" dy="0">PLAYER 1</tspan></text><text transform="translate(325.3416,53.54672) scale(0.43589,0.43589)" font-size="40" xml:space="preserve" fill="#000000" fill-rule="nonzero" stroke="#000000" stroke-width="1" stroke-linecap="butt" stroke-linejoin="miter" stroke-miterlimit="10" stroke-dasharray="" stroke-dashoffset="0" font-family="Serif" font-weight="normal" text-anchor="start" style="mix-blend-mode: normal"><tspan x="0" dy="0">PLAYER 2</tspan></text><path d="M145.79827,301.11771c0,8.45793 -16.63758,15.31445 -37.16107,15.31445c-20.5235,0 -37.16107,-6.85652 -37.16107,-15.31445c0,-8.45793 16.63758,-15.31445 37.16107,-15.31445c20.5235,0 37.16107,6.85652 37.16107,15.31445z" fill="#ffccfe" stroke="none" stroke-width="0" stroke-linecap="butt"/><path d="M389.29842,300.61762c0,8.45793 -16.63757,15.31445 -37.16107,15.31445c-20.5235,0 -37.16107,-6.85652 -37.16107,-15.31445c0,-8.45793 16.63758,-15.31444 37.16107,-15.31444c20.5235,0 37.16107,6.85652 37.16107,15.31444z" fill="#ffccfe" stroke="none" stroke-width="0" stroke-linecap="butt"/><path d="M169.34166,208.00512c0,9.1127 -22.6096,16.5 -50.5,16.5c-27.8904,0 -50.5,-7.3873 -50.5,-16.5c0,-9.1127 22.6096,-16.5 50.5,-16.5c27.8904,0 50.5,7.3873 50.5,16.5z" fill="#ccf6ff" stroke="#6c6c6c" stroke-width="3" stroke-linecap="butt"/><path d="M413.3417,207.00512c0,9.1127 -22.6096,16.5 -50.5,16.5c-27.8904,0 -50.5,-7.3873 -50.5,-16.5c0,-9.1127 22.6096,-16.5 50.5,-16.5c27.8904,0 50.5,7.3873 50.5,16.5z" fill="#ccf6ff" stroke="#6c6c6c" stroke-width="3" stroke-linecap="butt"/><path d="M68.45239,302.95853c0,7.28055 -14.32155,13.18261 -31.98809,13.18261c-17.66654,0 -31.98809,-5.90206 -31.98809,-13.18261c0,-7.28055 14.32155,-13.18261 31.98809,-13.18261c17.66654,0 31.98809,5.90206 31.98809,13.18261z" fill="#ceffcc" stroke="none" stroke-width="0" stroke-linecap="butt"/><path d="M477.29131,300.86762c0,9.42443 -18.53877,17.06445 -41.40751,17.06445c-22.86874,0 -41.40751,-7.64002 -41.40751,-17.06445c0,-9.42443 18.53877,-17.06444 41.40751,-17.06444c22.86874,0 41.40751,7.64002 41.40751,17.06444z" fill="#fff9cc" stroke="none" stroke-width="0" stroke-linecap="butt"/><path d="M-0.77662,359.60402v-40.33063h105.8679v40.33063z" fill="#585858" stroke="none" stroke-width="0" stroke-linecap="butt"/><g stroke="none" stroke-linecap="butt"><path d="M4.90954,338.72535c-0.27645,-8.54265 6.42449,-15.69198 14.96714,-15.96844c8.54265,-0.27645 15.69201,6.42449 15.96854,14.96717c0.27645,8.54265 -6.42449,15.69193 -14.96719,15.96841c-8.54265,0.27645 -15.69196,-6.42447 -15.96846,-14.96712z" fill="#bbb54b" stroke-width="NaN"/><path d="M7.80351,338.83817c-0.2802,-8.65658 6.51016,-15.9012 15.16674,-16.18137c8.65658,-0.2802 15.90122,6.51016 16.18135,15.16674c0.2802,8.65658 -6.51019,15.9012 -15.16669,16.18135c-8.65658,0.2802 -15.9012,-6.51019 -16.18137,-15.16677z" fill="#fff866" stroke-width="NaN"/><text transform="translate(15.09599,347.27317) rotate(-1.85503) scale(0.61908,0.61908)" font-size="40" xml:space="preserve" fill="#bbb54b" fill-rule="nonzero" stroke="none" stroke-width="1" stroke-linecap="butt" stroke-linejoin="miter" stroke-miterlimit="10" stroke-dasharray="" stroke-dashoffset="0" font-family="Sans Serif" font-weight="normal" text-anchor="start" style="mix-blend-mode: normal"><tspan x="0" dy="0">C</tspan></text></g><g stroke="none" stroke-linecap="butt"><path d="M369.35966,360.28291v-40.33063h113.06979v40.33063z" fill="#585858" stroke-width="0"/><g><path d="M375.04586,339.40423c-0.27645,-8.54264 6.42449,-15.69198 14.96714,-15.96844c8.54264,-0.27645 15.69201,6.4245 15.96854,14.96717c0.27646,8.54264 -6.42449,15.69194 -14.96719,15.96841c-8.54264,0.27645 -15.69196,-6.42447 -15.96846,-14.96712z" fill="#bbb54b" stroke-width="NaN"/><path d="M377.93979,339.51705c-0.2802,-8.65658 6.51017,-15.9012 15.16674,-16.18138c8.65658,-0.2802 15.90122,6.51016 16.18135,15.16674c0.2802,8.65658 -6.51019,15.9012 -15.16669,16.18135c-8.65658,0.2802 -15.9012,-6.51018 -16.18138,-15.16676z" fill="#fff866" stroke-width="NaN"/><text transform="translate(385.23221,347.95207) rotate(-1.85459) scale(0.61907,0.61907)" font-size="40" xml:space="preserve" fill="#bbb54b" fill-rule="nonzero" stroke="none" stroke-width="1" stroke-linecap="butt" stroke-linejoin="miter" stroke-miterlimit="10" stroke-dasharray="" stroke-dashoffset="0" font-family="Sans Serif" font-weight="normal" text-anchor="start" style="mix-blend-mode: normal"><tspan x="0" dy="0">C</tspan></text></g></g><g stroke="none" stroke-width="0" stroke-linecap="butt"><path d="M175.95638,103.75282v-33.90683l29.46274,16.95341z" fill="url(#color-3)"/><path d="M33.8601,87.47591l29.46273,-16.95341v33.90683z" data-paper-data="{&quot;index&quot;:null}" fill="url(#color-4)"/></g><g stroke-width="1" stroke-linecap="butt"><path d="M47.24577,94.6066v-12.1438h13.9438v12.1438z" fill="#cecece" stroke="#9a9a9a"/><path d="M48.90014,90.1331v-10.576h10.576v10.576z" fill="#d8d8d8" stroke="#9a9a9a"/><text transform="translate(49.66469,88.88861) scale(0.31081,0.31081)" font-size="40" xml:space="preserve" fill="#000000" fill-rule="nonzero" stroke="#000000" stroke-width="1" stroke-linecap="butt" stroke-linejoin="miter" stroke-miterlimit="10" stroke-dasharray="" stroke-dashoffset="0" font-family="Serif" font-weight="normal" text-anchor="start" style="mix-blend-mode: normal"><tspan x="0" dy="0">A</tspan></text><path d="M47.24577,94.6066c-0.0854,-0.1547 0.0591,-12.3802 0.0591,-12.3802c0,0 1.5543,-2.9668 1.5362,-2.8951c-0.017,0.0674 0.1182,10.6351 0.1182,10.6351c0,0 -1.6083,4.8305 -1.7135,4.6402z" fill="#c0c0c0" stroke="#9a9a9a"/><path d="M59.56735,90.02549c0,0 0.1351,-10.5677 0.1181,-10.6351c-0.018,-0.0717 1.5362,2.8951 1.5362,2.8951c0,0 0.1445,12.2255 0.0591,12.3802c-0.1051,0.1903 -1.7134,-4.6402 -1.7134,-4.6402z" data-paper-data="{&quot;index&quot;:null}" fill="#c0c0c0" stroke="#9a9a9a"/></g><g stroke-width="1" stroke-linecap="butt"><path d="M178.91248,93.77319v-12.1438h13.9438v12.1439z" fill="#cecece" stroke="#9a9a9a"/><path d="M180.56686,89.1331v-10.576h10.576v10.576z" fill="#d8d8d8" stroke="#9a9a9a"/><text transform="translate(181.33136,87.88861) scale(0.31081,0.31081)" font-size="40" xml:space="preserve" fill="#000000" fill-rule="nonzero" stroke="#000000" stroke-width="1" stroke-linecap="butt" stroke-linejoin="miter" stroke-miterlimit="10" stroke-dasharray="" stroke-dashoffset="0" font-family="Serif" font-weight="normal" text-anchor="start" style="mix-blend-mode: normal"><tspan x="0" dy="0">D</tspan></text><path d="M178.91248,93.77319c-0.0854,-0.1546 0.0591,-12.3801 0.0591,-12.3801c0,0 1.5542,-2.9668 1.5362,-2.8951c-0.017,0.0674 0.1182,10.6351 0.1182,10.6351c0,0 -1.6083,4.8304 -1.7135,4.6401z" fill="#c0c0c0" stroke="#9a9a9a"/><path d="M191.23405,89.1922c0,0 0.1351,-10.5677 0.1181,-10.6351c-0.018,-0.0717 1.5362,2.8951 1.5362,2.8951c0,0 0.1445,12.2255 0.0591,12.3801c-0.1051,0.1903 -1.7134,-4.6401 -1.7134,-4.6401z" data-paper-data="{&quot;index&quot;:null}" fill="#c0c0c0" stroke="#9a9a9a"/></g><g stroke="none" stroke-width="0" stroke-linecap="butt"><path d="M418.20644,103.50282v-33.90683l29.46274,16.95342z" fill="url(#color-5)"/><path d="M276.1101,87.22591l29.46273,-16.95341v33.90683z" data-paper-data="{&quot;index&quot;:null}" fill="url(#color-6)"/></g><g stroke-width="1" stroke-linecap="butt"><path d="M288.91238,94.77319v-12.1438h13.9438v12.1439z" fill="#cecece" stroke="#9a9a9a"/><path d="M290.56679,90.1331v-10.576h10.576v10.576z" fill="#d8d8d8" stroke="#9a9a9a"/><text transform="translate(291.99794,88.88861) scale(0.31081,0.31081)" font-size="40" xml:space="preserve" fill="#000000" fill-rule="nonzero" stroke="#000000" stroke-width="1" stroke-linecap="butt" stroke-linejoin="miter" stroke-miterlimit="10" stroke-dasharray="" stroke-dashoffset="0" font-family="Serif" font-weight="normal" text-anchor="start" style="mix-blend-mode: normal"><tspan x="0" dy="0">&lt;</tspan></text><path d="M288.91238,94.77319c-0.0854,-0.1546 0.0591,-12.3801 0.0591,-12.3801c0,0 1.5542,-2.9668 1.5362,-2.8951c-0.017,0.0674 0.1182,10.6351 0.1182,10.6351c0,0 -1.6084,4.8304 -1.7135,4.6401z" fill="#c0c0c0" stroke="#9a9a9a"/><path d="M301.23398,90.1922c0,0 0.1351,-10.5677 0.1181,-10.6351c-0.018,-0.0717 1.5362,2.8951 1.5362,2.8951c0,0 0.1445,12.2255 0.0591,12.3801c-0.1051,0.1903 -1.7134,-4.6401 -1.7134,-4.6401z" data-paper-data="{&quot;index&quot;:null}" fill="#c0c0c0" stroke="#9a9a9a"/></g><g stroke-width="1" stroke-linecap="butt"><path d="M421.24588,94.43989v-12.1438h13.9438v12.1438z" fill="#cecece" stroke="#9a9a9a"/><path d="M422.9002,89.79979v-10.5761h10.5761v10.5761z" fill="#d8d8d8" stroke="#9a9a9a"/><text transform="translate(424.66473,88.55529) scale(0.31081,0.31081)" font-size="40" xml:space="preserve" fill="#000000" fill-rule="nonzero" stroke="#000000" stroke-width="1" stroke-linecap="butt" stroke-linejoin="miter" stroke-miterlimit="10" stroke-dasharray="" stroke-dashoffset="0" font-family="Serif" font-weight="normal" text-anchor="start" style="mix-blend-mode: normal"><tspan x="0" dy="0">&gt;</tspan></text><path d="M421.24588,94.43989c-0.0854,-0.1547 0.0591,-12.3802 0.0591,-12.3802c0,0 1.5542,-2.9668 1.5361,-2.8951c-0.0169,0.0674 0.1182,10.6351 0.1182,10.6351c0,0 -1.6083,4.8305 -1.7134,4.6402z" fill="#c0c0c0" stroke="#9a9a9a"/><path d="M433.56736,89.85879c0,0 0.1351,-10.5677 0.1182,-10.6351c-0.0181,-0.0717 1.5361,2.8951 1.5361,2.8951c0,0 0.1445,12.2255 0.0591,12.3802c-0.1051,0.1903 -1.7134,-4.6401 -1.7134,-4.6401z" data-paper-data="{&quot;index&quot;:null}" fill="#c0c0c0" stroke="#9a9a9a"/></g><path d="M309.95232,303.45853c0,7.28055 -14.32156,13.18261 -31.98809,13.18261c-17.66654,0 -31.98809,-5.90206 -31.98809,-13.18261c0,-7.28055 14.32156,-13.18261 31.98809,-13.18261c17.66654,0 31.98809,5.90206 31.98809,13.18261z" fill="#ceffcc" stroke="none" stroke-width="0" stroke-linecap="butt"/><path d="M235.79125,300.36762c0,9.42443 -18.53877,17.06445 -41.40751,17.06445c-22.86874,0 -41.40752,-7.64002 -41.40752,-17.06445c0,-9.42443 18.53878,-17.06444 41.40752,-17.06444c22.86874,0 41.40751,7.64002 41.40751,17.06444z" fill="#fff9cc" stroke="none" stroke-width="0" stroke-linecap="butt"/><g><g stroke-width="1"><path d="M13.5416,186.87708l-0.15094,-2.89959l4.67946,3.29955l3.01901,-5.59922l1.05666,5.39926" fill="#f1e098" stroke="#f7dc6f" stroke-linecap="round"/><path d="M42.67502,186.57712l-0.3019,0.79988l2.7171,-3.09957v4.79934" fill="#f1e098" stroke="#f7dc6f" stroke-linecap="round"/><path d="M36.9389,187.47701l0.60381,-2.79961l2.1133,2.29969l1.2076,-5.0993l0.9057,4.69935" fill="#f1e098" stroke="#f7dc6f" stroke-linecap="round"/><g><path d="M29.97003,179.84194v-3.66616h8.30228v3.66616z" fill="#ff0000" stroke="none" stroke-linecap="butt"/><path d="M29.97002,184.50796l0.25159,-7.83226" fill="none" stroke="#dbd9d0" stroke-linecap="round"/></g><g fill="#f1e098" stroke="#f7dc6f" stroke-linecap="butt"><path d="M36.13383,195.6731v-8.43096h9.05701v8.43096z"/><path d="M23.55464,194.50571v-11.41422h11.57286v11.41422z"/><path d="M13.2397,195.15423v-8.43096h9.05701v8.43096z"/></g></g><path d="M12.98264,207.03691v-17.07978h32.61111v17.07978z" fill="#f1e098" stroke="#f7dc6f" stroke-width="1" stroke-linecap="butt"/><path d="M34.23042,201.97558c0,1.19174 0.95485,3.46273 0.33754,4.3269c-0.82879,1.16026 -3.42903,0.37541 -4.86078,0.37541c-1.28957,0 -3.446,0.45493 -4.26997,-0.51265c-0.77219,-0.90678 -0.25327,-3.1917 -0.25327,-4.54231c0,-2.79178 2.02511,-3.8794 4.52322,-3.8794c2.4981,0 4.52322,1.44028 4.52322,4.23206z" fill="#d1c384" stroke="#d8c361" stroke-width="0.5" stroke-linecap="butt"/><path d="M15.25783,195.9853v-3.13967h6.06718v3.13967z" fill="#d1c384" stroke="#d8c361" stroke-width="0.5" stroke-linecap="butt"/><path d="M25.49621,194.35265v-2.26056h7.39437v2.26056z" fill="#d1c384" stroke="#d8c361" stroke-width="0.5" stroke-linecap="butt"/><path d="M36.11375,196.48766v-3.01407h6.44638v3.01407z" fill="#d1c384" stroke="#d8c361" stroke-width="0.5" stroke-linecap="butt"/></g><g stroke="#000000" stroke-width="0.5" stroke-linecap="round"><path d="M125.45457,342.0672l-6.66227,2.98735c0,0 -5.76077,-6.73385 -4.48181,-12.01697c0.77588,-3.20499 4.48233,-9.11486 5.72422,-11.19308c1.66909,-2.79312 16.28275,-3.1 21.02672,3.11459c2.37942,3.11704 2.13038,7.9666 1.33414,11.92549c-0.36159,1.79782 -4.51334,5.99656 -8.39856,7.73925c-2.15065,0.96466 -11.12037,-1.48663 -12.36372,-6.96043c-0.65483,-2.88287 4.44853,-11.22885 9.34764,-12.1176c1.68163,-0.30507 5.96607,1.71013 6.29354,4.72569c0.37237,3.429 -3.33754,7.93541 -3.33754,7.93541" fill="#f1bd76"/><path d="M127.74795,340.58082l-5.07063,2.27366c0,0 -4.38451,-5.12511 -3.41109,-9.14607c0.59052,-2.43931 3.41149,-6.93729 4.35668,-8.51901c1.27034,-2.12584 12.39275,-2.3594 16.00336,2.3705c1.81097,2.37236 1.62143,6.06334 1.01541,9.07644c-0.27521,1.36832 -3.43509,4.56397 -6.39212,5.89032c-1.63685,0.7342 -8.46367,-1.13148 -9.40998,-5.29756c-0.49839,-2.19414 3.38577,-8.54623 7.11446,-9.22266c1.27988,-0.23218 4.54075,1.30158 4.78999,3.59671c0.28341,2.6098 -2.54019,6.03961 -2.54019,6.03961" fill="#f2c484"/><path d="M129.26876,339.18182l-3.73034,1.67267c0,0 -3.22557,-3.77041 -2.50945,-6.72853c0.43443,-1.79453 2.50974,-5.10359 3.2051,-6.26722c0.93456,-1.56392 9.11703,-1.73575 11.77327,1.74392c1.33229,1.74529 1.19285,4.46065 0.74702,6.67731c-0.20246,1.00664 -2.52711,3.35759 -4.70252,4.33336c-1.20419,0.54013 -6.22652,-0.8324 -6.92269,-3.89728c-0.36665,-1.61417 2.49082,-6.28725 5.23393,-6.78488c0.94157,-0.17081 3.34051,0.95754 3.52387,2.64601c0.20849,1.91996 -1.86876,4.44319 -1.86876,4.44319" fill="#f2cc95"/></g><g data-paper-data="{&quot;index&quot;:null}" stroke="#000000" stroke-width="0.5" stroke-linecap="round"><path d="M450.94112,208.63621c0,0 -3.70991,-4.50641 -3.33754,-7.93541c0.32747,-3.01556 4.61191,-5.03076 6.29354,-4.7257c4.89911,0.88876 10.00248,9.23473 9.34764,12.1176c-1.24334,5.47379 -10.21307,7.92509 -12.36371,6.96043c-3.88522,-1.74269 -8.03697,-5.94143 -8.39857,-7.73925c-0.79624,-3.95889 -1.04528,-8.80845 1.33414,-11.92549c4.74397,-6.21459 19.35763,-5.90771 21.02672,-3.11459c1.24188,2.07822 4.94833,7.98809 5.72421,11.19308c1.27896,5.28311 -4.48181,12.01697 -4.48181,12.01697l-6.66227,-2.98735" fill="#f1bd76"/><path d="M450.67421,208.07212c0,0 -2.8236,-3.42981 -2.5402,-6.03961c0.24923,-2.29513 3.51011,-3.82889 4.78999,-3.59671c3.7287,0.67643 7.61285,7.02852 7.11446,9.22266c-0.9463,4.16608 -7.77313,6.03175 -9.40998,5.29755c-2.95703,-1.32636 -6.11691,-4.522 -6.39211,-5.89032c-0.60601,-3.0131 -0.79555,-6.70408 1.01542,-9.07645c3.61061,-4.7299 14.73301,-4.49633 16.00336,-2.3705c0.9452,1.58172 3.76616,6.07971 4.35668,8.51901c0.97342,4.02096 -3.41109,9.14607 -3.41109,9.14607l-5.07063,-2.27365" fill="#f2c484"/><path d="M450.85988,207.4497c0,0 -2.07725,-2.52322 -1.86875,-4.44319c0.18336,-1.68847 2.58229,-2.81682 3.52387,-2.646c2.7431,0.49764 5.60058,5.1707 5.23393,6.78488c-0.69618,3.06488 -5.71849,4.43742 -6.92269,3.89728c-2.17541,-0.97577 -4.50006,-3.32672 -4.70252,-4.33336c-0.44583,-2.21666 -0.58527,-4.93202 0.74702,-6.67731c2.65624,-3.47967 10.83871,-3.30784 11.77327,-1.74392c0.69535,1.16363 2.77067,4.47269 3.20511,6.26722c0.71611,2.95812 -2.50946,6.72853 -2.50946,6.72853l-3.73034,-1.67267" fill="#f2cc95"/></g><g><path d="M15.32082,87.8739v18" fill="none" stroke="#7d4114" stroke-width="1" stroke-linecap="round"/><path d="M11.49324,96.20724v-7c0,0 3.68033,0.2069 5.22926,0.2069c1.46561,0 3.82821,-0.2069 3.82821,-0.2069v7c0,0 -2.34361,0.4138 -3.73813,0.4138c-1.59708,0 -5.31934,-0.4138 -5.31934,-0.4138z" fill="#e4e4e4" stroke="none" stroke-width="0" stroke-linecap="butt"/><g><path d="M15.52099,91.86277l4.03448,2.47449" fill="none" stroke="#000000" stroke-width="0.5" stroke-linecap="round"/><path d="M15.51556,94.26609l3.81645,-2.25644" fill="none" stroke="#000000" stroke-width="0.5" stroke-linecap="round"/><path d="M16.43627,91.49686c0,-0.61303 0.49696,-1.11 1.11,-1.11c0.61304,0 1.11,0.49697 1.11,1.11c0,0.61303 -0.49696,1.11 -1.11,1.11c-0.61303,0 -1.11,-0.49697 -1.11,-1.11z" fill="#000000" stroke="none" stroke-width="0" stroke-linecap="butt"/></g></g><path d="M9.82082,112.96723l-5.83333,-8.31719c0,0 14.98835,0 19.33333,0c0.51573,0 2.46367,-2.73468 4.19404,-2.92059c2.1978,-0.23613 4.24904,2.79828 4.80596,2.79828c0.88323,0 -4,0.12232 -4,0.12232l-6.33333,8.31719z" fill="#b05d1e" stroke="none" stroke-width="0" stroke-linecap="butt"/><path d="M69.17369,206.33043l-17.79512,-131c0,0 48.39826,-17 68.5,-17c21.76577,0 70.5,15.5 70.5,15.5l-21.94084,133.09753c0,0 -0.28506,1.06197 -0.29811,1.31617c-0.35451,6.90301 -18.22866,14.40351 -50.3757,14.89645c-30.05377,0.46084 -48.0371,-8.46079 -48.3804,-15.3459c-0.01402,-0.28114 -0.20983,-1.46425 -0.20983,-1.46425z" fill="url(#color-7)" stroke="none" stroke-width="0" stroke-linecap="butt"/><path d="M312.67368,205.09893l-17.79512,-131c0,0 48.39826,-17 68.5,-17c21.76577,0 70.5,15.5 70.5,15.5l-21.94085,133.09752c0,0 -0.28505,1.06197 -0.29811,1.31617c-0.35451,6.90302 -18.22866,14.40351 -50.3757,14.89645c-30.05377,0.46085 -48.0371,-8.46078 -48.3804,-15.3459c-0.01402,-0.28115 -0.20982,-1.46425 -0.20982,-1.46425z" fill="url(#color-8)" stroke="none" stroke-width="0" stroke-linecap="butt"/><path d="M22.60463,113.03427c0,0 -1.45528,0.42608 -3.13066,0.42608c-2.94513,0 -4.38061,-0.79534 -7.32574,-0.79534c-1.79045,0 -3.38111,0.36926 -3.38111,0.36926" fill="none" stroke="#315cea" stroke-width="1" stroke-linecap="round"/><path d="M50.45673,155.63638c-1.55034,1.45436 -2.47177,2.2 -5.91591,2.2c-1.91533,0 -4.26229,-2.1 -6.61743,-2.1c-2.45288,0 -4.79172,3.1 -8.08257,3.1c-3.29085,0 -5.89188,-3.1 -8.08409,-3.1c-1.80238,0 -4.08352,1.6 -6.11591,1.6c-3.45725,0 -4.3094,-0.60184 -5.7841,-1.9" fill="none" stroke="#315cea" stroke-width="1" stroke-linecap="round"/><path d="M253.45672,144.51083c-1.36895,1.2842 -2.18258,1.94261 -5.22377,1.94261c-1.69124,0 -3.76362,-1.85431 -5.84322,-1.85431c-2.1659,0 -4.23112,2.73731 -7.13695,2.73731c-2.90583,0 -5.20256,-2.73731 -7.13829,-2.73731c-1.59151,0 -3.60576,1.41281 -5.40037,1.41281c-3.05276,0 -3.80521,-0.53143 -5.10738,-1.67771" fill="none" stroke="#315cea" stroke-width="1" stroke-linecap="round"/><path d="M235.95672,162.20415c-2.07539,1.94691 -3.30887,2.94508 -7.91944,2.94508c-2.56398,0 -5.70579,-2.81121 -8.85855,-2.81121c-3.2836,0 -6.41454,4.14988 -10.8199,4.14988c-4.40536,0 -7.88729,-4.14988 -10.82193,-4.14988c-2.41279,0 -5.46646,2.14187 -8.18717,2.14187c-4.62811,0 -5.76887,-0.80567 -7.743,-2.54348" fill="none" stroke="#315cea" stroke-width="1.5" stroke-linecap="round"/><path d="M265.91875,130.36551c0.74283,-0.65391 1.17208,-0.95707 2.91356,-0.95707c1.02376,0 2.17281,0.80595 3.0807,0.80595c1.10426,0 2.41445,-1.56153 4.07212,-1.56153c1.65767,0 2.83579,1.56153 4.07135,1.56153c1.18633,0 2.36854,-1.05781 3.33333,-1.05781c1.73488,0 2.19902,0.37559 2.97996,1.10818" fill="none" stroke="#315cea" stroke-width="0.75" stroke-linecap="round"/><path d="M194.74483,122.06126c0.74284,-0.65391 1.17208,-0.95707 2.91357,-0.95707c1.02376,0 2.17281,0.80596 3.0807,0.80596c1.10426,0 2.41445,-1.56154 4.07211,-1.56154c1.65767,0 2.83578,1.56154 4.07135,1.56154c1.18633,0 2.36854,-1.05782 3.33333,-1.05782c1.73489,0 2.19902,0.3756 2.97996,1.10818" fill="none" stroke="#315cea" stroke-width="0.5" stroke-linecap="round"/><path d="M429.00801,125.95599c0.74284,-0.65391 1.17208,-0.95707 2.91357,-0.95707c1.02376,0 2.17281,0.80595 3.0807,0.80595c1.10426,0 2.41445,-1.56153 4.07211,-1.56153c1.65767,0 2.83578,1.56153 4.07135,1.56153c1.18633,0 2.36855,-1.05781 3.33333,-1.05781c1.73488,0 2.19902,0.37559 2.97996,1.10818" data-paper-data="{&quot;index&quot;:null}" fill="none" stroke="#315cea" stroke-width="0.5" stroke-linecap="round"/><g stroke-linecap="butt"><path d="M464.46945,240.53048c0.3851,1.82709 7.97432,5.66943 7.06972,7.3914c-0.53821,1.02451 -8.06687,1.7803 -9.0616,2.62026c-1.91413,1.61629 -3.62889,7.6171 -6.12955,7.80599c-1.71207,0.12933 -5.02269,-6.29571 -6.64346,-6.83547c-2.31269,-0.77018 -9.6638,1.90876 -10.86487,0.40947c-1.50741,-1.88169 5.77194,-6.38286 6.29659,-8.97999c0.44616,-2.2086 -4.14408,-9.20372 -2.50582,-10.51493c1.58456,-1.26821 9.60346,3.32022 12.14515,3.02054c1.65973,-0.1957 8.20397,-5.08844 9.87295,-4.09987c1.66032,0.98343 -0.17912,9.18261 -0.17912,9.18261z" fill="#eb8cea" stroke="#000000" stroke-width="1"/><path d="M445.37823,235.98722c0,-0.59729 0.57343,-1.08149 1.28078,-1.08149c0.70736,0 1.28078,0.48421 1.28078,1.08149c0,0.59729 -0.57342,1.08149 -1.28078,1.08149c-0.70735,0 -1.28078,-0.48421 -1.28078,-1.08149z" fill="#b860da" stroke="none" stroke-width="0.5"/><path d="M454.94141,241.611c0,-0.59729 0.57342,-1.08149 1.28078,-1.08149c0.70735,0 1.28078,0.48421 1.28078,1.08149c0,0.59729 -0.57343,1.08149 -1.28078,1.08149c-0.70736,0 -1.28078,-0.48421 -1.28078,-1.08149z" fill="#b860da" stroke="none" stroke-width="0.5"/><path d="M448.11057,246.08119c0,-0.59729 0.57342,-1.08149 1.28078,-1.08149c0.70736,0 1.28078,0.48421 1.28078,1.08149c0,0.59729 -0.57342,1.08149 -1.28078,1.08149c-0.70736,0 -1.28078,-0.48421 -1.28078,-1.08149z" fill="#b860da" stroke="none" stroke-width="0.5"/><path d="M455.96604,249.68618c0,-0.59729 0.57343,-1.08149 1.28078,-1.08149c0.70736,0 1.28078,0.48421 1.28078,1.08149c0,0.59729 -0.57342,1.08149 -1.28078,1.08149c-0.70735,0 -1.28078,-0.48421 -1.28078,-1.08149z" fill="#b860da" stroke="none" stroke-width="0.5"/><path d="M466.55383,246.08119c0,-0.59729 0.57343,-1.08149 1.28078,-1.08149c0.70736,0 1.28078,0.48421 1.28078,1.08149c0,0.59729 -0.57342,1.08149 -1.28078,1.08149c-0.70735,0 -1.28078,-0.48421 -1.28078,-1.08149z" fill="#b860da" stroke="none" stroke-width="0.5"/><path d="M460.74764,235.26623c0,-0.59729 0.57342,-1.08149 1.28078,-1.08149c0.70736,0 1.28078,0.48421 1.28078,1.08149c0,0.59729 -0.57342,1.08149 -1.28078,1.08149c-0.70736,0 -1.28078,-0.48421 -1.28078,-1.08149z" fill="#b860da" stroke="none" stroke-width="0.5"/><path d="M441.96282,249.97458c0,-0.59729 0.57343,-1.08149 1.28078,-1.08149c0.70736,0 1.28078,0.48421 1.28078,1.08149c0,0.59729 -0.57342,1.08149 -1.28078,1.08149c-0.70735,0 -1.28078,-0.48421 -1.28078,-1.08149z" fill="#b860da" stroke="none" stroke-width="0.5"/><path d="M446.91518,241.75521c0,-0.59729 0.57342,-1.08149 1.28078,-1.08149c0.70735,0 1.28078,0.48421 1.28078,1.08149c0,0.59729 -0.57343,1.08149 -1.28078,1.08149c-0.70736,0 -1.28078,-0.48421 -1.28078,-1.08149z" fill="#b860da" stroke="none" stroke-width="0.5"/><path d="M459.89377,240.60161c0,-0.5973 0.57342,-1.08149 1.28078,-1.08149c0.70736,0 1.28078,0.4842 1.28078,1.08149c0,0.5973 -0.57342,1.08149 -1.28078,1.08149c-0.70736,0 -1.28078,-0.4842 -1.28078,-1.08149z" fill="#b860da" stroke="none" stroke-width="0.5"/><path d="M454.25834,254.58893c0,-0.5973 0.57342,-1.08149 1.28078,-1.08149c0.70736,0 1.28078,0.4842 1.28078,1.08149c0,0.5973 -0.57342,1.08149 -1.28078,1.08149c-0.70736,0 -1.28078,-0.4842 -1.28078,-1.08149z" fill="#b860da" stroke="none" stroke-width="0.5"/></g><path d="M15.93373,91.65388c-0.14761,-0.14761 -0.04871,-0.29522 -0.01206,-0.33991c0,-0.06796 0,-0.13591 0,-0.20387c0,0 0,-0.25 0.25,-0.25c0.25,0 0.25,0.25 0.25,0.25c0,0.10195 0,0.2039 0,0.30584l-0.1344,0.23794c0,0 -0.17677,0.17678 -0.35355,0z" fill="#4cbf54" stroke="none" stroke-width="0.5" stroke-linecap="butt"/><path d="M19.95734,92.87723c-0.17677,0.17678 -0.35356,0 -0.35356,0l-0.12692,-0.17731c-0.05172,-0.26034 -0.29081,-0.55188 -0.48475,-0.74021c0,0 -0.17677,-0.17678 0,-0.35356c0.17677,-0.17678 0.35356,0 0.35356,0c0.2701,0.27598 0.51274,0.60335 0.61626,0.97249l-0.00459,-0.05497c0,0 0.17677,0.17678 0,0.35356z" fill="#4cbf54" stroke="none" stroke-width="0.5" stroke-linecap="butt"/><path d="M17.762,95.09132c-0.25,0 -0.25,-0.25 -0.25,-0.25l0.00962,-0.17599c-0.04078,-0.14272 -0.08155,-0.28545 -0.12233,-0.42817c0,0 -0.06868,-0.24038 0.1717,-0.30906c0.24038,-0.06868 0.30906,0.1717 0.30906,0.1717c0.04078,0.14272 0.08155,0.28545 0.12233,0.42817l0.00962,0.31335c0,0 0,0.25 -0.25,0.25z" fill="#4cbf54" stroke="none" stroke-width="0.5" stroke-linecap="butt"/><path d="M15.927,93.92914c-0.25,0 -0.25,-0.25 -0.25,-0.25l0.00251,-0.02581c-0.03085,-0.21719 -0.06389,-0.43482 -0.11739,-0.64757c0,0 -0.06063,-0.24253 0.18191,-0.30317c0.24254,-0.06064 0.30317,0.1819 0.30317,0.1819c0.05709,0.22956 0.09366,0.46398 0.12728,0.69812l0.00252,0.09652c0,0 0,0.25 -0.25,0.25z" fill="#4cbf54" stroke="none" stroke-width="0.5" stroke-linecap="butt"/><path d="M7.76191,106.53861c-0.60634,0.15158 -0.75793,-0.45475 -0.75793,-0.45475c-0.05769,-0.23077 -0.23077,-0.92307 -0.28846,-1.15385c0,0 -0.15159,-0.60634 0.45475,-0.75793c0.60634,-0.15158 0.75793,0.45476 0.75793,0.45476c0.05769,0.23077 0.11539,0.46154 0.17308,0.69231l0.11538,0.46153c0,0 0.15159,0.60634 -0.45475,0.75793z" fill="#4cbf54" stroke="none" stroke-width="0.5" stroke-linecap="butt"/><path d="M16.8422,108.51624c-0.62243,-0.05658 -0.56584,-0.67902 -0.56584,-0.67902l0.06298,-0.67682c0.11123,-0.48555 0.22934,-0.96968 0.36032,-1.45028c0,0 0.06536,-0.23965 0.26475,-0.37558c0.01887,-0.2625 0.06524,-0.54762 0.13094,-0.86015c0,0 0.13096,-0.61113 0.74209,-0.48018c0.61113,0.13096 0.48017,0.74209 0.48017,0.74209c-0.20268,0.92517 -0.34907,1.3014 0.59146,1.7331l0.09121,0.02378c0,0 0.59292,0.19765 0.39528,0.79057c-0.19764,0.59292 -0.79057,0.39529 -0.79057,0.39529l-0.25494,-0.0916c-0.29043,-0.153 -0.52744,-0.31032 -0.71822,-0.47615c-0.01966,0.08217 -0.03906,0.1644 -0.05821,0.24668l-0.0524,0.59241c0,0 -0.05658,0.62243 -0.67902,0.56585z" fill="#4cbf54" stroke="none" stroke-width="0.5" stroke-linecap="butt"/><path d="M23.35313,106.08359c-0.61286,-0.12257 -0.49029,-0.73544 -0.49029,-0.73544l0.04812,-0.1093c-0.01923,-0.21154 -0.03846,-0.42308 -0.05769,-0.63462c0,0 -0.05658,-0.62243 0.56585,-0.67902c0.62243,-0.05658 0.67902,0.56585 0.67902,0.56585c0.01923,0.21154 0.03846,0.42308 0.05769,0.63462l-0.06726,0.46762c0,0 -0.12257,0.61286 -0.73544,0.49029z" fill="#4cbf54" stroke="none" stroke-width="0.5" stroke-linecap="butt"/><g stroke-width="0.5"><g><path d="M62.25063,226.86965c0.38902,4.80343 -11.8657,14.18374 -28.63014,15.54146c-16.76442,1.35772 -31.00478,-5.56865 -31.3938,-10.37208c-0.38902,-4.80343 13.03368,-5.64981 29.79812,-7.00752c16.76442,-1.35772 29.8368,-2.96528 30.22582,1.83815z" data-paper-data="{&quot;origPos&quot;:null}" fill="#47270e" stroke="none" stroke-linecap="butt"/><path d="M18.45855,235.46829l1.79316,-15.02773c0,0 7.13156,0.15196 11.18002,-0.17592c4.77791,-0.38695 11.43646,-1.65574 11.43646,-1.65574l4.00116,14.55846c0,0 -8.74446,1.80251 -14.39771,2.26035c-5.43442,0.44012 -14.01307,0.04058 -14.01307,0.04058z" data-paper-data="{&quot;origPos&quot;:null}" fill="#201206" stroke="none" stroke-linecap="butt"/><path d="M42.99546,219.01807c0.09725,1.20085 -4.92862,2.58776 -11.2256,3.09774c-6.29698,0.50998 -11.48053,-0.05009 -11.57779,-1.25094c-0.09725,-1.20085 4.92862,-2.58776 11.2256,-3.09774c6.29698,-0.50998 11.48053,0.05009 11.57779,1.25094z" data-paper-data="{&quot;origPos&quot;:null}" fill="#201206" stroke="none" stroke-linecap="butt"/><path d="M30.89334,225.45425c-0.15055,-1.85894 1.54982,-3.5135 3.7979,-3.69557c2.24807,-0.18207 4.19254,1.1773 4.34309,3.03624c0.15055,1.85894 -1.54982,3.51349 -3.7979,3.69556c-2.24807,0.18207 -4.19254,-1.17729 -4.34309,-3.03623z" data-paper-data="{&quot;origPos&quot;:null}" fill="#ffffff" stroke="none" stroke-linecap="butt"/><path d="M35.51413,224.26109c-0.05045,-0.62294 0.42958,-1.17012 1.07217,-1.22216c0.64259,-0.05204 1.20441,0.41076 1.25486,1.0337c0.05045,0.62294 -0.42957,1.17012 -1.07216,1.22216c-0.64259,0.05204 -1.20442,-0.41076 -1.25487,-1.0337z" data-paper-data="{&quot;origPos&quot;:null}" fill="#000000" stroke="none" stroke-linecap="butt"/><path d="M32.65521,224.4926c-0.05045,-0.62294 0.42959,-1.17012 1.07218,-1.22216c0.64259,-0.05204 1.20442,0.41076 1.25487,1.0337c0.05045,0.62294 -0.42958,1.17012 -1.07217,1.22216c-0.64259,0.05204 -1.20443,-0.41076 -1.25488,-1.0337z" data-paper-data="{&quot;origPos&quot;:null}" fill="#000000" stroke="none" stroke-linecap="butt"/><path d="M32.86823,231.25495l-0.22968,-2.83596c0,0 1.62325,0.51731 2.59187,0.43886c1.08124,-0.08757 2.66063,-0.86425 2.66063,-0.86425l0.22968,2.83596z" data-paper-data="{&quot;origPos&quot;:null}" fill="#ffffff" stroke="none" stroke-linecap="butt"/><path d="M33.80295,230.40072l-0.13572,-1.67577" data-paper-data="{&quot;origPos&quot;:null}" fill="none" stroke="#000000" stroke-linecap="round"/><path d="M37.18333,229.99715l-0.13572,-1.67577" data-paper-data="{&quot;origPos&quot;:null}" fill="none" stroke="#000000" stroke-linecap="round"/><path d="M35.52117,230.13177l-0.09918,-1.22461" data-paper-data="{&quot;origPos&quot;:null}" fill="none" stroke="#000000" stroke-linecap="round"/></g><path d="M16.61804,232.44975c-1.34164,-0.67082 -0.67082,-2.01246 -0.67082,-2.01246l0.78759,-1.57517c0,0 0.67082,-1.34164 2.01246,-0.67082c1.34164,0.67082 0.67083,2.01246 0.67083,2.01246l-0.78758,1.57516c0,0 -0.67083,1.34164 -2.01246,0.67083z" fill="#35bd43" stroke="none" stroke-linecap="butt"/><path d="M51.90185,233.70989c-0.92051,-0.46025 -0.89367,-1.2363 -0.78612,-1.67813c-0.26604,-0.38911 -0.77594,-0.67352 -1.22264,-0.76075c0,0 -1.42303,-0.47434 -0.94869,-1.89737c0.47434,-1.42302 1.89737,-0.94868 1.89737,-0.94868c0.83082,0.33621 1.8464,0.38741 2.49246,1.00862c0.56266,0.54101 0.55513,1.45908 0.83268,2.18862l-0.25261,1.41688c0,0 -0.67082,1.34164 -2.01246,0.67082z" fill="#35bd43" stroke="none" stroke-linecap="butt"/><path d="M35.74298,241.28624c-0.41208,1.44228 -1.85437,1.0302 -1.85437,1.0302l-1.6051,-0.56838c-0.68257,-0.52506 -1.36514,-1.05012 -2.04772,-1.57517c0,0 -1.18894,-0.91457 -0.27437,-2.1035c0.91457,-1.18893 2.1035,-0.27437 2.1035,-0.27437c0.68258,0.52506 1.36514,1.05012 2.04772,1.57517l0.60014,0.06168c0,0 1.44229,0.41208 1.03021,1.85437z" fill="#35bd43" stroke="none" stroke-linecap="butt"/><path d="M42.88813,219.80764c-0.67082,1.34164 -2.01246,0.67082 -2.01246,0.67082l0.04076,-0.15667c-0.63007,0 -1.26013,0 -1.89021,0c0,0 -1.5,0 -1.5,-1.5c0,-1.5 1.5,-1.5 1.5,-1.5c0.63007,0 1.26013,0 1.89021,0l1.30089,0.47339c0,0 1.34164,0.67082 0.67082,2.01246z" fill="#35bd43" stroke="none" stroke-linecap="butt"/><path d="M2.12717,234.72303c-1.40969,-0.51262 -0.89708,-1.92231 -0.89708,-1.92231l0.63007,-1.73269c0,0 0.51261,-1.40969 1.9223,-0.89708c1.40969,0.51262 0.89708,1.9223 0.89708,1.9223l-0.63007,1.73269c0,0 -0.51261,1.40969 -1.9223,0.89708z" fill="#35bd43" stroke="none" stroke-linecap="butt"/><path d="M52.80536,224.01985c0,-0.82843 0.67157,-1.5 1.5,-1.5c0.25457,0 0.49434,0.06342 0.70435,0.17532c0.71836,0.11144 1.2682,0.73261 1.2682,1.4822c0,0.82843 -0.67157,1.5 -1.5,1.5c-0.25457,0 -0.49434,-0.06342 -0.70435,-0.17532c-0.71836,-0.11144 -1.2682,-0.73261 -1.2682,-1.4822z" fill="#35bd43" stroke="none" stroke-linecap="butt"/></g><path d="M238.06827,113.92355l6.99517,-23.84864c0,0 2.72374,-0.08757 4.0436,-0.40811c1.26613,-0.30749 3.72107,-1.4776 3.72107,-1.4776l8.81608,25.73434c0,0 -7.535,1.44201 -12.80934,1.44201c-5.27434,0 -10.76658,-1.442 -10.76658,-1.442z" fill="#282828" stroke="none" stroke-width="0" stroke-linecap="butt"/><path d="M252.70829,88.43412c0,0 -2.16183,1.03557 -3.31316,1.25624c-1.2911,0.24746 -4.10838,0.29574 -4.10838,0.29574" fill="none" stroke="#ff6f00" stroke-width="0.75" stroke-linecap="round"/><path d="M252.04214,90.43931v-1.65797" fill="none" stroke="#ff6f00" stroke-width="0.5" stroke-linecap="round"/><path d="M248.08853,93.4364v-3.69854" fill="none" stroke="#ff6f00" stroke-width="0.5" stroke-linecap="round"/><path d="M246.04796,90.0567v1.14782" fill="none" stroke="#ff6f00" stroke-width="0.5" stroke-linecap="round"/><path d="M244.77322,85.19198c0,-1.74485 1.41448,-3.15932 3.15932,-3.15932c1.74485,0 3.15932,1.41448 3.15932,3.15932c0,1.74485 -1.41448,3.15933 -3.15932,3.15933c-1.74485,0 -3.15932,-1.41448 -3.15932,-3.15933z" fill="#9a9a9a" stroke="none" stroke-width="0" stroke-linecap="butt"/><path d="M241.97868,80.46035c0,-2.17787 1.76552,-3.94339 3.94339,-3.94339c2.17787,0 3.94339,1.76552 3.94339,3.94339c0,2.17787 -1.76552,3.9434 -3.94339,3.9434c-2.17787,0 -3.94339,-1.76552 -3.94339,-3.9434z" fill="#9a9a9a" stroke="none" stroke-width="0" stroke-linecap="butt"/><path d="M237.43152,74.39118c0,-2.91656 2.36435,-5.28091 5.28091,-5.28091c2.91656,0 5.28091,2.36435 5.28091,5.28091c0,2.91656 -2.36435,5.28093 -5.28091,5.28093c-2.91656,0 -5.28091,-2.36435 -5.28091,-5.28093z" fill="#9a9a9a" stroke="none" stroke-width="0" stroke-linecap="butt"/><path d="M244.38536,115.05984c0,0.62407 -1.9858,0.16143 -4.15094,0.16143c-2.16514,0 -3.96645,-0.64427 -3.96645,-1.26834c0,-0.62407 1.75519,-0.20755 3.92033,-0.20755c2.16514,0 4.19706,0.69039 4.19706,1.31446z" fill="#ffe074" stroke="none" stroke-width="0" stroke-linecap="butt"/><path d="M252.78876,115.73264c-2.15893,-0.16388 -3.94061,0.11859 -3.89337,-0.50369c0.04724,-0.62228 1.89215,-1.12836 4.05107,-0.96448c2.15893,0.16388 4.17405,-0.14713 4.12681,0.47515c-0.04724,0.62228 -2.12558,1.15689 -4.28451,0.99301z" data-paper-data="{&quot;index&quot;:null}" fill="#ffe074" stroke="none" stroke-width="0" stroke-linecap="butt"/><path d="M243.64742,116.1437v-1.52201c0,0 2.58423,0.27673 3.67758,0.27673c0.9664,0 2.54882,-0.27673 2.54882,-0.27673v1.52201z" fill="#ffe074" stroke="none" stroke-width="0" stroke-linecap="butt"/><path d="M255.91583,114.78094c0.09291,0.40989 3.4744,0.60343 4.4805,0.37538c1.0061,-0.22805 2.11536,-0.92969 2.02245,-1.33958c-0.09291,-0.40989 -1.56062,-1.07494 -2.35891,-0.4215c-0.72937,0.59702 -4.23695,0.97581 -4.14404,1.38571z" fill="#ffe074" stroke="none" stroke-width="0" stroke-linecap="butt"/><path d="M229.56362,66.1543c0,-4.11376 3.33487,-7.44862 7.44862,-7.44862c4.11376,0 7.44862,3.33487 7.44862,7.44862c0,4.11376 -3.33487,7.44864 -7.44862,7.44864c-4.11376,0 -7.44862,-3.33487 -7.44862,-7.44864z" fill="#9a9a9a" stroke="none" stroke-width="0" stroke-linecap="butt"/></g></g></svg>