<svg xmlns="http://www.w3.org/2000/svg" xmlns:xlink="http://www.w3.org/1999/xlink" version="1.1" width="11.6111" height="11.6111" viewBox="0,0,11.6111,11.6111"><defs><radialGradient cx="235.45251" cy="182.58639" r="5.80555" gradientUnits="userSpaceOnUse" id="color-1"><stop offset="0" stop-color="#e772e8"/><stop offset="1" stop-color="#ac1fe8"/></radialGradient></defs><g><g data-paper-data="{&quot;isPaintingLayer&quot;:true}" fill-rule="nonzero" stroke-linecap="butt" stroke-linejoin="miter" stroke-miterlimit="10" stroke-dasharray="" stroke-dashoffset="0" style="mix-blend-mode: normal"><path d="M234.27604,180.02025c0,-3.20632 2.59924,-5.80555 5.80555,-5.80555c3.20632,0 5.80555,2.59924 5.80555,5.80555c0,3.20632 -2.59924,5.80555 -5.80555,5.80555c-3.20632,0 -5.80555,-2.59924 -5.80555,-5.80555z" data-paper-data="{&quot;origPos&quot;:null}" fill="url(#color-1)" stroke-width="0" stroke="none" transform="matrix(1,0,0,1,-234.27603,-174.2147)"/><path d="M244.57016,181.17463c0,0 0.4719,-1.81063 -1.95918,-4.22729c-0.95943,-0.95374 -2.76214,-1.41768 -2.76214,-1.41768c0,0 2.61566,-0.56387 3.89322,0.86457c2.11062,2.35991 0.82811,4.7804 0.82811,4.7804z" fill="#bb52e8" stroke-width="0" stroke="none" transform="matrix(1,0,0,1,-234.27603,-174.2147)"/></g></g></svg>