<svg version="1.1" xmlns="http://www.w3.org/2000/svg" xmlns:xlink="http://www.w3.org/1999/xlink" width="712.72072" height="464" viewBox="0,0,712.72072,464"><defs><radialGradient cx="43.05902" cy="235.01041" r="356.36036" gradientUnits="userSpaceOnUse" id="color-1"><stop offset="0" stop-color="#0072a0"/><stop offset="1" stop-color="#00537a"/></radialGradient></defs><g transform="translate(15.72072,3)"><g data-paper-data="{&quot;isPaintingLayer&quot;:true}" fill-rule="nonzero" stroke="none" stroke-linecap="butt" stroke-linejoin="miter" stroke-miterlimit="10" stroke-dasharray="" stroke-dashoffset="0" style="mix-blend-mode: normal"><g><path d="M-15.72072,461v-464h712.72072v464z" data-paper-data="{&quot;origPos&quot;:null}" fill="url(#color-1)" stroke-width="NaN"/><path d="M202.30898,62.0104c0,-0.4142 0.3358,-0.75 0.75,-0.75c0.4143,0 0.75,0.3358 0.75,0.75c0,0.4142 -0.3357,0.75 -0.75,0.75c-0.4142,0 -0.75,-0.3358 -0.75,-0.75z" fill="#ffffff" stroke-width="0.5"/><path d="M420.30898,171.0104c0,-0.4142 0.3358,-0.75 0.75,-0.75c0.4142,0 0.75,0.3358 0.75,0.75c0,0.4142 -0.3358,0.75 -0.75,0.75c-0.4142,0 -0.75,-0.3358 -0.75,-0.75z" fill="#ffffff" stroke-width="0.5"/><path d="M417.30898,21.0104c0,-0.4142 0.3358,-0.75 0.75,-0.75c0.4142,0 0.75,0.3358 0.75,0.75c0,0.4142 -0.3358,0.75 -0.75,0.75c-0.4142,0 -0.75,-0.3358 -0.75,-0.75z" fill="#ffffff" stroke-width="0.5"/><path d="M212.30898,228.0104c0,-0.4142 0.3358,-0.75 0.75,-0.75c0.4143,0 0.75,0.3358 0.75,0.75c0,0.4142 -0.3357,0.75 -0.75,0.75c-0.4142,0 -0.75,-0.3358 -0.75,-0.75z" fill="#ffffff" stroke-width="0.5"/><path d="M355.30898,105.0104c0,-0.4142 0.3358,-0.75 0.75,-0.75c0.4142,0 0.75,0.3358 0.75,0.75c0,0.4142 -0.3358,0.75 -0.75,0.75c-0.4142,0 -0.75,-0.3358 -0.75,-0.75z" fill="#ffffff" stroke-width="0.5"/><path d="M38.30898,39.0104c0,-0.4142 0.3358,-0.75 0.75,-0.75c0.4142,0 0.75,0.3358 0.75,0.75c0,0.4142 -0.3358,0.75 -0.75,0.75c-0.4142,0 -0.75,-0.3358 -0.75,-0.75z" fill="#ffffff" stroke-width="0.5"/><path d="M31.30898,204.0104c0,-0.4142 0.3358,-0.75 0.75,-0.75c0.4143,0 0.75,0.3358 0.75,0.75c0,0.4142 -0.3357,0.75 -0.75,0.75c-0.4142,0 -0.75,-0.3358 -0.75,-0.75z" fill="#ffffff" stroke-width="0.5"/><path d="M100.30898,124.0104c0,-0.4142 0.3358,-0.75 0.75,-0.75c0.4143,0 0.75,0.3358 0.75,0.75c0,0.4142 -0.3357,0.75 -0.75,0.75c-0.4142,0 -0.75,-0.3358 -0.75,-0.75z" fill="#ffffff" stroke-width="0.5"/><path d="M310.30898,28.0104c0,-0.4142 0.3358,-0.75 0.75,-0.75c0.4142,0 0.75,0.3358 0.75,0.75c0,0.4142 -0.3358,0.75 -0.75,0.75c-0.4142,0 -0.75,-0.3358 -0.75,-0.75z" fill="#ffffff" stroke-width="0.5"/><path d="M182.30898,127.0104c0,-0.4142 0.3358,-0.75 0.75,-0.75c0.4143,0 0.75,0.3358 0.75,0.75c0,0.4142 -0.3357,0.75 -0.75,0.75c-0.4142,0 -0.75,-0.3358 -0.75,-0.75z" fill="#ffffff" stroke-width="0.5"/><path d="M154.80898,14.0104c0,-0.6903 0.5597,-1.25 1.25,-1.25c0.6904,0 1.25,0.5597 1.25,1.25c0,0.6904 -0.5596,1.25 -1.25,1.25c-0.6903,0 -1.25,-0.5596 -1.25,-1.25z" fill="#ffffff" stroke-width="0.5"/><path d="M304.80898,115.0104c0,-0.6904 0.5597,-1.25 1.25,-1.25c0.6904,0 1.25,0.5596 1.25,1.25c0,0.6904 -0.5596,1.25 -1.25,1.25c-0.6903,0 -1.25,-0.5596 -1.25,-1.25z" fill="#ffffff" stroke-width="0.5"/><path d="M103.80898,176.0104c0,-0.6903 0.5597,-1.25 1.25,-1.25c0.6904,0 1.25,0.5597 1.25,1.25c0,0.6904 -0.5596,1.25 -1.25,1.25c-0.6903,0 -1.25,-0.5596 -1.25,-1.25z" fill="#ffffff" stroke-width="0.5"/><path d="M424.80898,54.0104c0,-0.6903 0.5597,-1.25 1.25,-1.25c0.6904,0 1.25,0.5597 1.25,1.25c0,0.6904 -0.5596,1.25 -1.25,1.25c-0.6903,0 -1.25,-0.5596 -1.25,-1.25z" fill="#ffffff" stroke-width="0.5"/><path d="M397.05898,270.0104c0,-0.5523 0.4478,-1 1,-1c0.5523,0 1,0.4477 1,1c0,0.5523 -0.4477,1 -1,1c-0.5522,0 -1,-0.4477 -1,-1z" fill="#ffffff" stroke-width="0.5"/><path d="M286.05898,162.0104c0,-0.5523 0.4478,-1 1,-1c0.5523,0 1,0.4477 1,1c0,0.5523 -0.4477,1 -1,1c-0.5522,0 -1,-0.4477 -1,-1z" fill="#ffffff" stroke-width="0.5"/><path d="M454.05898,336.0104c0,-0.5523 0.4478,-1 1,-1c0.5523,0 1,0.4477 1,1c0,0.5523 -0.4477,1 -1,1c-0.5522,0 -1,-0.4477 -1,-1z" fill="#ffffff" stroke-width="0.5"/><path d="M375.05898,34.0104c0,-0.5523 0.4478,-1 1,-1c0.5523,0 1,0.4477 1,1c0,0.5523 -0.4477,1 -1,1c-0.5522,0 -1,-0.4477 -1,-1z" fill="#ffffff" stroke-width="0.5"/><path d="M131.05898,62.0104c0,-0.5523 0.4478,-1 1,-1c0.5523,0 1,0.4477 1,1c0,0.5523 -0.4477,1 -1,1c-0.5522,0 -1,-0.4477 -1,-1z" fill="#ffffff" stroke-width="0.5"/></g></g></g></svg>