<svg version="1.1" xmlns="http://www.w3.org/2000/svg" xmlns:xlink="http://www.w3.org/1999/xlink" width="31.68402" height="26.54546" viewBox="0,0,31.68402,26.54546"><defs><linearGradient x1="227.91557" y1="174.90745" x2="250.36385" y2="174.90745" gradientUnits="userSpaceOnUse" id="color-1"><stop offset="0" stop-color="#ff5b5b" stop-opacity="0"/><stop offset="1" stop-color="#ff5b5b"/></linearGradient><radialGradient cx="240" cy="180" r="13.27273" gradientUnits="userSpaceOnUse" id="color-2"><stop offset="0" stop-color="#ff6666"/><stop offset="1" stop-color="#ff6666" stop-opacity="0"/></radialGradient></defs><g transform="translate(-223.72672,-166.72727)"><g data-paper-data="{&quot;isPaintingLayer&quot;:true}" fill-rule="nonzero" stroke-linejoin="miter" stroke-miterlimit="10" stroke-dasharray="" stroke-dashoffset="0" style="mix-blend-mode: normal"><path d="M227.91557,179.61434v-9.41379c0,0 22.45166,0.17661 22.44828,4.91379c-0.00397,5.56348 -22.44828,4.5 -22.44828,4.5z" fill="url(#color-1)" stroke="none" stroke-width="0" stroke-linecap="butt"/><g><path d="M226.72727,180c0,-7.33032 5.94241,-13.27273 13.27273,-13.27273c7.33032,0 13.27273,5.9424 13.27273,13.27273c0,7.33032 -5.9424,13.27273 -13.27273,13.27273c-7.33032,0 -13.27273,-5.94241 -13.27273,-13.27273z" fill="url(#color-2)" stroke="none" stroke-width="NaN" stroke-linecap="butt"/><g><g fill="none" stroke="#470000" stroke-width="1" stroke-linecap="round"><path d="M233.67379,173.46661c0,0 2.46319,-2.39042 3.12467,-0.56985c0.52529,1.44572 0.6078,3.88319 0.5289,6.20905c-0.10684,3.14981 -5.16487,2.06045 -5.16487,2.06045" data-paper-data="{&quot;index&quot;:null}"/><path d="M237.47022,174.22685c0,0 1.32283,-2.03406 1.98432,-0.2135c0.57481,1.58202 0.7272,4.16682 0.72568,6.48041c-0.00175,2.66394 -3.51791,0.41658 -3.51791,0.41658" data-paper-data="{&quot;index&quot;:null}"/><path d="M241.35463,174.55945c0,0 1.18028,-2.03406 1.84177,-0.21349c0.53689,1.47766 0.81273,3.8436 0.95299,6.04802c0.18281,2.87318 -4.72677,1.74783 -4.72677,1.74783" data-paper-data="{&quot;index&quot;:null}"/><path d="M245.53591,173.96552c0,0 0.53884,-1.53515 1.20032,0.28541c1.23666,3.4036 8.17451,4.6924 8.17451,4.6924" data-paper-data="{&quot;index&quot;:null}"/></g><path d="M247.93281,177.96605h-1.14035l-0.57018,-1.99561" fill="none" stroke="#9e4f4f" stroke-width="1" stroke-linecap="round"/><path d="M247.29136,174.61627l1.35417,-0.71272l0.74835,0.74836" fill="none" stroke="#9e4f4f" stroke-width="1" stroke-linecap="round"/><path d="M247.98542,174.69477c0,1.70102 -3.9488,3.07997 -8.8199,3.07997c-4.87109,0 -8.8199,-1.37895 -8.8199,-3.07997c0,-1.70102 3.94881,-3.07996 8.8199,-3.07996c4.87109,0 8.8199,1.37895 8.8199,3.07996z" fill="#720000" stroke="none" stroke-width="0" stroke-linecap="butt"/><g fill="none" stroke="#630000" stroke-width="1" stroke-linecap="round"><path d="M224.22672,184.12929c0,0 4.54373,-0.51344 4.48728,-3.94465c-0.03406,-2.07061 0.08376,-4.13011 0.54917,-5.41105c0.66148,-1.82056 4.33629,-0.00032 4.33629,-0.00032"/><path d="M230.03671,184.90787c0,0 2.85515,-0.34896 2.90167,-3.33195c0.03262,-2.09155 0.21018,-4.28289 0.71988,-5.68574c0.66148,-1.82056 2.83958,-0.85558 2.83958,-0.85558"/><path d="M233.85021,185.8807c0,0 3.77034,-1.2695 4.02335,-4.45798c0.15431,-1.94467 0.42403,-3.91051 0.89254,-5.19994c0.66148,-1.82056 1.7705,-0.71304 1.7705,-0.71304"/><path d="M252.01086,183.71671c0,0 -9.87251,-4.18536 -8.63584,-7.58896c0.66148,-1.82056 0.70143,-0.57049 0.70143,-0.57049"/></g><path d="M245.99658,173.2621c0,-0.36082 0.29251,-0.65332 0.65333,-0.65332c0.36082,0 0.65332,0.29251 0.65332,0.65332c0,0.36082 -0.29251,0.65333 -0.65332,0.65333c-0.36082,0 -0.65333,-0.29251 -0.65333,-0.65333z" fill="#b20000" stroke="none" stroke-width="0.5" stroke-linecap="butt"/><path d="M244.21479,174.18863c0,-0.36082 0.29251,-0.65332 0.65332,-0.65332c0.36082,0 0.65332,0.29251 0.65332,0.65332c0,0.36082 -0.29251,0.65333 -0.65332,0.65333c-0.36082,0 -0.65332,-0.29251 -0.65332,-0.65333z" fill="#b20000" stroke="none" stroke-width="0.5" stroke-linecap="butt"/></g></g></g></g></svg>