<svg xmlns="http://www.w3.org/2000/svg" xmlns:xlink="http://www.w3.org/1999/xlink" version="1.1" width="96.49335" height="270.58917" viewBox="0,0,96.49335,270.58917"><g><g data-paper-data="{&quot;isPaintingLayer&quot;:true}" fill-rule="nonzero" stroke-linejoin="miter" stroke-miterlimit="10" stroke-dasharray="" stroke-dashoffset="0" style="mix-blend-mode: normal"><g><path d="M 53.9381 141.829 C 53.9381 141.829 21.0237 139.8593 25.4811 131.4628 C 31.5319 120.0647 36.1258 109.1175 36.1258 109.1175 " fill="none" stroke="#ea3c3c" stroke-width="6" stroke-linecap="round"/><path d="M 44.0784 85.4067 L 44.0784 200.8353 L 23.4142 267.5892 " fill="none" stroke="#ea3c3c" stroke-width="6" stroke-linecap="round"/><path d="M 45.456 198.371 L 66.1202 267.2516 " fill="none" stroke="#ea3c3c" stroke-width="6" stroke-linecap="round"/><path d="M 2.75 46.1448 C 2.75 22.1785 22.1785 2.75 46.1448 2.75 C 70.1111 2.75 89.5396 22.1785 89.5396 46.1448 C 89.5396 70.1111 70.1111 89.5396 46.1448 89.5396 C 22.1785 89.5396 2.75 70.1111 2.75 46.1448 Z " fill="#cabf40" stroke="#ea3c3c" stroke-width="5.5" stroke-linecap="butt"/><path d="M 88.392 138.3986 C 88.392 138.3986 65.3808 142.998 60.5329 133.8658 C 54.8726 123.2034 45.6003 99.6839 45.6003 99.6839 " data-paper-data="{&quot;index&quot;:null}" fill="none" stroke="#ea3c3c" stroke-width="6" stroke-linecap="round"/><path d="M 48.9847 35.8133 L 31.9428 28.9787 " data-paper-data="{&quot;origRot&quot;:0}" fill="none" stroke="#82ffff" stroke-width="5.5" stroke-linecap="round"/><path d="M 59.3862 35.3845 L 75.1416 28.5499 " data-paper-data="{&quot;origRot&quot;:0,&quot;index&quot;:null}" fill="none" stroke="#82ffff" stroke-width="5.5" stroke-linecap="round"/><path d="M 40.6782 70.7261 L 45.4256 66.2714 L 65.0674 66.2714 L 70.0511 70.5594 " fill="none" stroke="#000000" stroke-width="3" stroke-linecap="round"/><g data-paper-data="{&quot;index&quot;:null}"><path d="M284.03034,257.53545c-3.67074,0 -6.64644,-2.9757 -6.64644,-6.64644c0,-3.67074 2.9757,-6.64644 6.64644,-6.64644c3.67074,0 6.64644,2.9757 6.64644,6.64644c0,3.67074 -2.9757,6.64644 -6.64644,6.64644z" fill="#e23b3b" stroke="none" stroke-width="0" stroke-linecap="butt" transform="matrix(1,0,0,1,-194.39728,-114.07969)"/><path d="M 94.6358 136.9523 L 95.4933 122.6589 " data-paper-data="{&quot;origPos&quot;:null}" fill="none" stroke="#e23b3b" stroke-width="2" stroke-linecap="round"/><path d="M 91.5183 135.8196 L 91.1783 121.5045 " data-paper-data="{&quot;origPos&quot;:null,&quot;origRot&quot;:0}" fill="none" stroke="#e23b3b" stroke-width="2" stroke-linecap="round"/><path d="M 88.1561 135.4898 L 86.5361 121.2626 " data-paper-data="{&quot;origPos&quot;:null,&quot;origRot&quot;:0}" fill="none" stroke="#e23b3b" stroke-width="2" stroke-linecap="round"/><path d="M 84.9288 137.418 L 82.3309 123.3365 " data-paper-data="{&quot;origPos&quot;:null,&quot;origRot&quot;:0}" fill="none" stroke="#e23b3b" stroke-width="2" stroke-linecap="round"/><path d="M 78.913 133.236 L 85.488 139.8109 " data-paper-data="{&quot;origPos&quot;:null}" fill="none" stroke="#e23b3b" stroke-width="2" stroke-linecap="round"/><path d="M285.15603,254.87691c-2.35243,0 -4.25945,-1.907 -4.25945,-4.25943c0,-2.35243 1.90702,-4.25945 4.25945,-4.25945c2.35243,0 4.25943,1.90702 4.25943,4.25945c0,2.35243 -1.907,4.25943 -4.25943,4.25943z" fill="#00ffe4" stroke="none" stroke-width="0" stroke-linecap="butt" transform="matrix(1,0,0,1,-194.39728,-114.07969)"/></g><path d="M226.54228,220.00096c0,-6.63098 5.37548,-12.00646 12.00646,-12.00646c6.63098,0 12.00646,5.37548 12.00646,12.00646c0,6.63098 -5.37548,12.00646 -12.00646,12.00646c-6.63098,0 -12.00646,-5.37548 -12.00646,-12.00646z" fill="#ca3434" stroke="none" stroke-width="0" stroke-linecap="butt" transform="matrix(1,0,0,1,-194.39728,-114.07969)"/><path d="M232.08858,219.74348c0,-3.77305 3.05866,-6.83171 6.83171,-6.83171c3.77305,0 6.83171,3.05866 6.83171,6.83171c0,3.77305 -3.05866,6.83171 -6.83171,6.83171c-3.77305,0 -6.83171,-3.05866 -6.83171,-6.83171z" fill="#00ffe4" stroke="none" stroke-width="0" stroke-linecap="butt" transform="matrix(1,0,0,1,-194.39728,-114.07969)"/><g><path d="M 48.2536 140.9544 L 47.396 126.661 " data-paper-data="{&quot;origPos&quot;:null}" fill="none" stroke="#e23b3b" stroke-width="2" stroke-linecap="round"/><g><path d="M241.00719,254.89118c0,-3.67074 2.9757,-6.64644 6.64644,-6.64644c3.67074,0 6.64644,2.9757 6.64644,6.64644c0,3.67074 -2.9757,6.64644 -6.64644,6.64644c-3.67074,0 -6.64644,-2.9757 -6.64644,-6.64644z" data-paper-data="{&quot;origPos&quot;:null}" fill="#e23b3b" stroke="none" stroke-width="0" stroke-linecap="butt" transform="matrix(1,0,0,1,-194.39728,-114.07969)"/><path d="M 51.7111 125.5067 L 51.3711 139.8218 " data-paper-data="{&quot;origPos&quot;:null,&quot;origRot&quot;:0}" fill="none" stroke="#e23b3b" stroke-width="2" stroke-linecap="round"/><path d="M 54.7333 139.492 L 56.3533 125.2648 " data-paper-data="{&quot;origPos&quot;:null,&quot;origRot&quot;:0}" fill="none" stroke="#e23b3b" stroke-width="2" stroke-linecap="round"/><path d="M 57.9606 141.4202 L 60.5585 127.3387 " data-paper-data="{&quot;origPos&quot;:null,&quot;origRot&quot;:0}" fill="none" stroke="#e23b3b" stroke-width="2" stroke-linecap="round"/><path d="M 57.4014 143.8131 L 63.9764 137.2381 " data-paper-data="{&quot;origPos&quot;:null}" fill="none" stroke="#e23b3b" stroke-width="2" stroke-linecap="round"/><path d="M244.09458,254.61963c0,-2.35243 1.907,-4.25943 4.25943,-4.25943c2.35243,0 4.25945,1.907 4.25945,4.25943c0,2.35243 -1.90702,4.25945 -4.25945,4.25945c-2.35243,0 -4.25943,-1.90702 -4.25943,-4.25945z" data-paper-data="{&quot;origPos&quot;:null}" fill="#00ffe4" stroke="none" stroke-width="0" stroke-linecap="butt" transform="matrix(1,0,0,1,-194.39728,-114.07969)"/></g></g></g></g></g></svg>