<svg xmlns="http://www.w3.org/2000/svg" xmlns:xlink="http://www.w3.org/1999/xlink" version="1.1" width="14.34701" height="11.69398" viewBox="0,0,14.34701,11.69398"><g><g data-paper-data="{&quot;isPaintingLayer&quot;:true}" fill-rule="nonzero" stroke-linecap="butt" stroke-linejoin="miter" stroke-miterlimit="10" stroke-dasharray="" stroke-dashoffset="0" style="mix-blend-mode: normal"><path d="M 4.4427 11.6307 C 3.7808 11.551 1.3571 11.0703 0.4203 8.8575 C 0.3945 8.7975 0.0373 7.4877 0.0037 6.4854 C -0.0368 5.2764 0.2635 4.3139 0.3253 4.027 C 0.7256 2.1588 2.0835 0.5698 3.7529 0.11 C 4.4363 -0.0778 5.2968 0.0101 5.9928 0.1136 C 6.9765 0.2596 8.0466 0.275 8.9906 0.6381 C 10.242 1.1177 11.5631 1.6135 12.8086 2.5524 C 13.0321 2.7215 13.9456 3.8628 14.0472 4.0807 C 14.2044 4.4354 14.3049 4.8193 14.3437 5.2136 C 14.3821 5.8697 14.0812 6.6053 13.8321 7.1746 C 12.8338 9.4561 10.3911 10.7079 8.3353 11.309 C 7.0655 11.6686 5.7494 11.7774 4.4427 11.6307 Z " fill="#f0e6d2" stroke-width="1" stroke="none"/><path d="M 5.53 0.7998 C 5.8026 0.8025 6.8022 0.8729 7.2167 1.5462 C 7.3167 1.7807 7.3852 2.0309 7.4199 2.2883 C 7.4352 2.5594 7.4018 2.8305 7.3219 3.0847 C 7.182 3.695 6.6484 4.2483 5.971 4.4519 C 5.6941 4.5349 5.3401 4.5365 5.0533 4.5276 C 4.6485 4.5244 4.244 4.4856 3.8435 4.4113 C 3.3236 4.3017 2.7508 4.241 2.2277 3.9834 C 2.0393 3.8557 1.8623 3.7068 1.6992 3.5388 C 1.6313 3.435 1.5844 3.3151 1.562 3.1881 C 1.5364 2.9806 1.6498 2.7359 1.7436 2.5454 C 2.1209 1.7827 3.1052 1.303 3.9391 1.0377 C 4.4572 0.8784 4.9921 0.7984 5.53 0.7998 Z " fill="#faf0e6" stroke-width="1" stroke="none"/></g></g></svg>