<svg xmlns="http://www.w3.org/2000/svg" xmlns:xlink="http://www.w3.org/1999/xlink" version="1.1" width="74.65451" height="157.65633" viewBox="0,0,74.65451,157.65633"><g><g data-paper-data="{&quot;isPaintingLayer&quot;:true}" fill-rule="nonzero" stroke-linejoin="miter" stroke-miterlimit="10" stroke-dasharray="" stroke-dashoffset="0" style="mix-blend-mode: normal"><path d="M235.06712,199.79356c0,0 -0.16801,-31.72846 -0.14643,-40.08274c0.00982,-3.79985 0.27143,-8.29226 0.27143,-8.29226l7.875,-4l-0.625,46.625z" fill="#999999" stroke="none" stroke-width="0" stroke-linecap="butt" transform="matrix(1,0,0,1,-216.0122,-88.46579)"/><path d="M 25.3452 49.4405 L 25.3452 116.7375 L 13.2976 155.6563 " data-paper-data="{&quot;origPos&quot;:null}" fill="none" stroke="#000000" stroke-width="4" stroke-linecap="round"/><path d="M 26.1484 115.3008 L 38.196 155.4595 " data-paper-data="{&quot;origPos&quot;:null}" fill="none" stroke="#000000" stroke-width="4" stroke-linecap="round"/><path d="M 1.25 26.55 C 1.25 12.5772 12.5772 1.25 26.55 1.25 C 40.5228 1.25 51.85 12.5772 51.85 26.55 C 51.85 40.5228 40.5228 51.85 26.55 51.85 C 12.5772 51.85 1.25 40.5228 1.25 26.55 Z " data-paper-data="{&quot;origPos&quot;:null}" fill="#d4d4d4" stroke="#000000" stroke-width="2.5" stroke-linecap="butt"/><path d="M238.14474,111.74199c0,-2.66149 2.15756,-4.81905 4.81905,-4.81905c2.66149,0 4.81905,2.15756 4.81905,4.81905c0,2.66149 -2.15756,4.81905 -4.81905,4.81905c-2.66149,0 -4.81905,-2.15756 -4.81905,-4.81905z" data-paper-data="{&quot;origPos&quot;:null}" fill="#000000" stroke="none" stroke-width="0" stroke-linecap="butt" transform="matrix(1,0,0,1,-216.0122,-88.46579)"/><path d="M251.7987,111.74199c0,-2.66148 2.15757,-4.81905 4.81905,-4.81905c2.66148,0 4.81905,2.15757 4.81905,4.81905c0,2.66148 -2.15757,4.81905 -4.81905,4.81905c-2.66148,0 -4.81905,-2.15757 -4.81905,-4.81905z" data-paper-data="{&quot;origPos&quot;:null}" fill="#000000" stroke="none" stroke-width="0" stroke-linecap="butt" transform="matrix(1,0,0,1,-216.0122,-88.46579)"/><path d="M 22.3516 16.5199 L 31.4786 20.1706 " data-paper-data="{&quot;origPos&quot;:null}" fill="none" stroke="#000000" stroke-width="2.5" stroke-linecap="round"/><path d="M 36.5897 19.5905 L 43.5262 16.3048 " data-paper-data="{&quot;origPos&quot;:null}" fill="none" stroke="#000000" stroke-width="2.5" stroke-linecap="round"/><path d="M 49.2642 60.6691 L 25.5658 57.0976 " data-paper-data="{&quot;origPos&quot;:null,&quot;index&quot;:null}" fill="none" stroke="#000000" stroke-width="4" stroke-linecap="round"/><g data-paper-data="{&quot;origPos&quot;:null}" stroke-linecap="butt"><path d="M263.62582,154.25591l3.52933,-17.31054l5.55244,1.13205l-3.52933,17.31054z" data-paper-data="{&quot;origPos&quot;:null,&quot;origRot&quot;:0}" stroke-width="0" fill="#000000" stroke="none" transform="matrix(1,0,0,1,-216.0122,-88.46579)"/><path d="M267.33338,143v-6.66667h23.33333v6.66667z" data-paper-data="{&quot;origPos&quot;:null}" stroke-width="0" fill="#000000" stroke="none" transform="matrix(1,0,0,1,-216.0122,-88.46579)"/></g><g data-paper-data="{&quot;origPos&quot;:null}" stroke-linecap="butt"><path d="M254.62583,164.25591l3.52933,-17.31054l5.55244,1.13205l-3.52933,17.31054z" data-paper-data="{&quot;origPos&quot;:null,&quot;origRot&quot;:0}" stroke-width="0" fill="#000000" stroke="none" transform="matrix(1,0,0,1,-216.0122,-88.46579)"/><path d="M258.33338,153v-6.66667h23.33333v6.66667z" data-paper-data="{&quot;origPos&quot;:null}" stroke-width="0" fill="#000000" stroke="none" transform="matrix(1,0,0,1,-216.0122,-88.46579)"/></g><path d="M286.31712,138.0019v-3.875h2.25v3.875z" fill="#000000" stroke="none" stroke-width="0" stroke-linecap="butt" transform="matrix(1,0,0,1,-216.0122,-88.46579)"/><path d="M277.19212,147.6269v-3.375h2.375v3.375z" fill="#000000" stroke="none" stroke-width="0" stroke-linecap="butt" transform="matrix(1,0,0,1,-216.0122,-88.46579)"/><path d="M241.56712,200.29356c0,0 -0.04532,-30.70934 -0.02337,-39.20742c0.01053,-4.07466 0.14837,-9.16758 0.14837,-9.16758l7.875,-4c0,0 0.40744,6.52979 0.34031,11.53785c-0.11459,8.54875 -0.96531,35.08715 -0.96531,35.08715z" fill="#828282" stroke="none" stroke-width="0" stroke-linecap="butt" transform="matrix(1,0,0,1,-216.0122,-88.46579)"/><path d="M243.01087,171.14289l-0.1,-14.3l6,-1.8125v13.375z" fill="#656565" stroke="none" stroke-width="0" stroke-linecap="butt" transform="matrix(1,0,0,1,-216.0122,-88.46579)"/><path d="M 43.8689 67.9635 C 43.3132 67.9173 35.5438 67.0815 27.7706 64.5158 C 22.1526 62.6614 24.3753 58.7643 24.3753 58.7643 " data-paper-data="{&quot;origPos&quot;:null}" fill="none" stroke="#000000" stroke-width="4" stroke-linecap="round"/><path d="M 20.0549 62.4944 C 20.0549 62.4944 22.0095 57.9051 23.3083 57.7788 C 24.935 57.6207 27.9299 62.4944 27.9299 62.4944 " fill="none" stroke="#616161" stroke-width="2" stroke-linecap="round"/><path d="M 28.0583 55.2788 C 29.685 55.1207 32.1799 59.9319 32.1799 59.9319 " fill="none" stroke="#616161" stroke-width="2" stroke-linecap="round"/><g stroke-linecap="round"><path d="M 29.5415 90.5024 L 27.9915 92.0524 " stroke-width="0.5" fill="none" stroke="#373737"/><path d="M 28.1468 90.3077 L 29.2468 92.0077 " stroke-width="0.5" fill="none" stroke="#373737"/></g><g stroke-linecap="round"><path d="M 30.5877 85.2625 L 32.1834 85.0019 " stroke-width="0.5" fill="none" stroke="#373737"/><path d="M 31.3539 85.7789 L 31.6746 84.1894 " stroke-width="0.5" fill="none" stroke="#373737"/></g><g stroke-linecap="round"><path d="M 27.6877 75.1625 L 29.2834 74.9019 " stroke-width="0.5" fill="none" stroke="#2c2c2c"/><path d="M 28.4539 75.6789 L 28.7746 74.0894 " stroke-width="0.5" fill="none" stroke="#2c2c2c"/></g></g></g></svg>