<svg xmlns="http://www.w3.org/2000/svg" xmlns:xlink="http://www.w3.org/1999/xlink" version="1.1" width="509" height="405.84381103515625" viewBox="-3.5 0 509 405.84381103515625"><defs><radialGradient cx="132.99999" cy="80" r="251" gradientUnits="userSpaceOnUse" id="color-1"><stop offset="0" stop-color="#2c007f"/><stop offset="1" stop-color="#001567"/></radialGradient><radialGradient cx="175.34244" cy="192.29278" r="36.59334" gradientUnits="userSpaceOnUse" id="color-2"><stop offset="0" stop-color="#4a2b2b"/><stop offset="1" stop-color="#4a2b2b" stop-opacity="0"/></radialGradient><radialGradient cx="89.30948" cy="147.07913" r="46.96858" gradientUnits="userSpaceOnUse" id="color-3"><stop offset="0" stop-color="#b7d4b4"/><stop offset="1" stop-color="#d4d4d4"/></radialGradient><radialGradient cx="106.3734" cy="162.7462" r="46.9686" gradientUnits="userSpaceOnUse" id="color-3-,0,0,1,17.06396,15.6671"><stop offset="0" stop-color="#b7d4b4"/><stop offset="1" stop-color="#d4d4d4"/></radialGradient></defs><g><g data-paper-data="{&quot;isPaintingLayer&quot;:true}" fill-rule="nonzero" stroke-linecap="none" stroke-linejoin="miter" stroke-miterlimit="10" stroke-dasharray="" stroke-dashoffset="0" font-family="none" font-weight="none" font-size="none" text-anchor="none" style="mix-blend-mode: normal"><path d="M-17.06396,364.81123v-368.53591h502v368.53591z" data-paper-data="{&quot;origPos&quot;:null}" fill="url(#color-1)" stroke="none" stroke-width="NaN" stroke-linecap="butt" transform="matrix(1,0,0,1,17.06396,15.6671)"/><g data-paper-data="{&quot;origPos&quot;:null,&quot;origRot&quot;:0}"><path d="M152.50115,204.6986c-12.76125,-2.56286 4.38951,-18.93295 4.38951,-18.93295l29.51766,1.41695l-1.13912,23.72987c0,0 -22.99622,-4.25137 -32.76805,-6.21386z" data-paper-data="{&quot;origPos&quot;:null}" fill="#000000" stroke="none" stroke-width="0" stroke-linecap="butt" transform="matrix(1,0,0,1,17.06396,15.6671)"/><path d="M103.41152,212.20403l-5.25522,-23.45671l43.4083,2.08375l-0.95852,19.96782z" data-paper-data="{&quot;origPos&quot;:null}" fill="#000000" stroke="none" stroke-width="0" stroke-linecap="butt" transform="matrix(1,0,0,1,17.06396,15.6671)"/><path d="M129.26206,374.02578l13.19668,-159.58569l19.71235,-3.61283c0,0 6.08883,46.86343 4.21412,91.71364c-1.27793,30.57293 -1.95858,78.38327 -1.95858,78.38327c0,0 -14.80524,-3.9222 -20.99404,-5.44109c-4.1111,-1.00897 -14.1705,-1.45731 -14.1705,-1.45731z" data-paper-data="{&quot;origPos&quot;:null}" fill="#222222" stroke="none" stroke-width="0" stroke-linecap="butt" transform="matrix(1,0,0,1,17.06396,15.6671)"/><path d="M 157.6193 235.7328 C 157.6193 235.7328 166.8031 238.012 174.9345 242.6585 C 183.066 247.3049 187.829 251.023 190.7452 254.6615 C 193.1408 257.6505 194.5314 263.8357 194.5314 263.8357 " data-paper-data="{&quot;origPos&quot;:null,&quot;index&quot;:null}" fill="none" stroke="#000000" stroke-width="7" stroke-linecap="round"/><path d="M 159.5029 394.8949 L 152.1603 329.1542 " data-paper-data="{&quot;origPos&quot;:null}" fill="none" stroke="#000000" stroke-width="5" stroke-linecap="round"/><path d="M 156.6413 222.1326 L 151.3934 331.4567 " data-paper-data="{&quot;origPos&quot;:null}" fill="none" stroke="#000000" stroke-width="7" stroke-linecap="round"/><path d="M 123.0926 167.6488 C 132.6981 147.0537 157.1805 138.1448 177.7756 147.7502 C 198.3708 157.3556 207.9294 181.8693 198.324 202.4644 C 188.7186 223.0595 163.5864 231.9372 142.9912 222.3318 C 122.3961 212.7263 113.4872 188.2439 123.0926 167.6488 Z " data-paper-data="{&quot;origPos&quot;:null,&quot;origRot&quot;:0}" fill="#323232" stroke="#323232" stroke-width="2.5" stroke-linecap="butt"/><g data-paper-data="{&quot;origRot&quot;:0,&quot;origPos&quot;:null}" stroke-linecap="butt"><path d="M172.21388,237.78862l28.52782,-95.25813c0,0 1.23184,-2.39775 4.15392,-1.55941c2.85397,0.8188 2.59011,3.57909 2.59011,3.57909l-28.52783,95.25813z" data-paper-data="{&quot;origPos&quot;:null}" fill="#ff3030" stroke-width="0" stroke="none" transform="matrix(1,0,0,1,17.06396,15.6671)"/><path d="M173.75766,236.98194l27.83689,-92.951c0,0 0.40773,-2.03208 2.68295,-1.3793c2.22217,0.63755 1.5756,2.65466 1.5756,2.65466l-27.83689,92.951z" data-paper-data="{&quot;origPos&quot;:null}" fill="#ff7b7b" stroke-width="0" stroke="none" transform="matrix(1,0,0,1,17.06396,15.6671)"/><g><path d="M165.00239,260.68294l7.46543,-24.92807l7.16681,2.14632l-7.46543,24.92807z" data-paper-data="{&quot;origPos&quot;:null}" fill="#272727" stroke-width="NaN" stroke="none" transform="matrix(1,0,0,1,17.06396,15.6671)"/><path d="M168.6268,238.84891l1.16648,-3.895l12.61983,3.77937l-1.16648,3.895z" data-paper-data="{&quot;origPos&quot;:null}" fill="#272727" stroke-width="0" stroke="none" transform="matrix(1,0,0,1,17.06396,15.6671)"/><path d="M162.22395,259.85087l1.16648,-3.89502l12.61983,3.77937l-1.16646,3.89502z" data-paper-data="{&quot;origPos&quot;:null}" fill="#272727" stroke-width="0" stroke="none" transform="matrix(1,0,0,1,17.06396,15.6671)"/><path d="M166.12098,254.39675l3.82602,-12.77564l8.56902,2.56624l-3.82602,12.77563z" data-paper-data="{&quot;origPos&quot;:null}" fill="#4a4a4a" stroke-width="0" stroke="none" transform="matrix(1,0,0,1,17.06396,15.6671)"/></g></g><path d="M 185.8866 267.0029 C 185.8866 267.0029 167.3288 267.1263 153.7464 257.9895 C 140.0073 248.7474 148.1662 235.279 148.1662 235.279 " data-paper-data="{&quot;origPos&quot;:null}" fill="none" stroke="#000000" stroke-width="7" stroke-linecap="round"/><path d="M159.06004,160.31093c-0.22395,4.66537 -5.2785,8.21348 -11.28966,7.92493c-6.01115,-0.28856 -10.7026,-4.3045 -10.47865,-8.96988c0.22395,-4.66537 5.2785,-8.21348 11.28966,-7.92493c6.01115,0.28856 10.7026,4.3045 10.47865,8.96988z" data-paper-data="{&quot;origPos&quot;:null}" fill="#181818" stroke="none" stroke-width="0" stroke-linecap="butt" transform="matrix(1,0,0,1,17.06396,15.6671)"/><path d="M182.45284,161.43387c-0.22395,4.66537 -5.2785,8.21348 -11.28966,7.92493c-6.01115,-0.28856 -10.7026,-4.3045 -10.47865,-8.96988c0.22395,-4.66537 5.2785,-8.21348 11.28966,-7.92493c6.01115,0.28856 10.7026,4.3045 10.47865,8.96988z" data-paper-data="{&quot;origPos&quot;:null}" fill="#181818" stroke="none" stroke-width="0" stroke-linecap="butt" transform="matrix(1,0,0,1,17.06396,15.6671)"/><path d="M 169.2724 210.1679 L 169.8182 198.7964 " data-paper-data="{&quot;origPos&quot;:null}" fill="none" stroke="#494949" stroke-width="2.5" stroke-linecap="round"/><path d="M 174.7801 210.7579 L 175.7159 191.2639 " data-paper-data="{&quot;origPos&quot;:null}" fill="none" stroke="#494949" stroke-width="2.5" stroke-linecap="round"/><path d="M 180.6751 210.0639 L 181.1118 200.9667 " data-paper-data="{&quot;origPos&quot;:null}" fill="none" stroke="#494949" stroke-width="2.5" stroke-linecap="round"/><path d="M 191.889 217.1491 C 185.6577 223.7141 172.414 228.0671 172.414 228.0671 C 160.6327 229.8893 152.6196 228.0795 141.818 223.0353 C 136.6831 220.6373 130.3597 213.5103 130.3597 213.5103 C 130.3597 213.5103 143.597 174.9818 155.9265 158.9599 C 160.0364 153.6192 170.8819 164.9224 177.562 164.0329 C 183.5077 163.2412 196.3631 156.1503 198.4669 161.7675 C 204.009 176.5642 201.5025 203.5738 201.5025 203.5738 C 201.5025 203.5738 196.489 212.3027 191.8889 217.1491 Z " data-paper-data="{&quot;origPos&quot;:null}" fill="none" stroke="#181818" stroke-width="2.5" stroke-linecap="round"/><path d="M98.09034,155.62965c2.49648,-9.87088 12.49208,-23.37206 12.49208,-23.37206c0,0 19.29172,-17.82666 36.01701,-16.84915c31.60399,1.84712 36.37069,28.46522 36.37069,28.46522c0,0 -4.85756,-1.14439 -8.02893,-0.64423c-5.48381,0.86489 -8.62493,3.9493 -14.17649,3.93182c-7.67162,-0.02415 -17.3449,-10.93225 -23.302,-3.95359c-18.14386,21.25525 -18.19527,72.69582 -18.19527,72.69582c0,0 -13.36688,-1.46575 -21.51178,-3.93212c-8.14487,-2.46637 -9.04782,-5.2354 -8.84953,-12.04498c0.32299,-11.09138 6.68772,-34.42589 9.18421,-44.29675z" data-paper-data="{&quot;origPos&quot;:null}" fill="#181818" stroke="none" stroke-width="0" stroke-linecap="butt" transform="matrix(1,0,0,1,17.06396,15.6671)"/><path d="M 168.7294 133.2887 C 168.7294 133.2887 173.7062 132.5962 176.9245 148.4428 C 179.0647 158.9807 176.267 166.2154 176.267 166.2154 " data-paper-data="{&quot;origPos&quot;:null}" fill="none" stroke="#000000" stroke-width="2.5" stroke-linecap="round"/><path d="M 141.1992 189.2813 L 159.0939 210.9353 " data-paper-data="{&quot;origPos&quot;:null}" fill="none" stroke="#181818" stroke-width="2.5" stroke-linecap="round"/><path d="M 189.4845 211.6499 L 200.9144 192.5666 " data-paper-data="{&quot;origPos&quot;:null}" fill="none" stroke="#181818" stroke-width="2.5" stroke-linecap="round"/><path d="M 150.2571 329.7141 L 127.5541 394.0125 " data-paper-data="{&quot;origPos&quot;:null,&quot;index&quot;:null}" fill="none" stroke="#000000" stroke-width="5" stroke-linecap="round"/><path d="M95.29939,376.57462c0,0 3.60426,-51.20631 8.32613,-83.86442c1.97274,-13.64409 7.50805,-53.3691 10.15606,-64.95295c3.96767,-17.3567 17.39404,-15.70412 17.39404,-15.70412l13.21172,2.91375c0,0 -4.7214,44.37926 -6.9635,72.82165c-2.78096,35.27822 -6.47754,98.63847 -6.47754,98.63847c0,0 -10.13762,1.1407 -20.13151,-1.45365c-8.22582,-2.13538 -15.5154,-8.39874 -15.5154,-8.39874z" data-paper-data="{&quot;origPos&quot;:null}" fill="#323232" stroke="none" stroke-width="0" stroke-linecap="butt" transform="matrix(1,0,0,1,17.06396,15.6671)"/><path d="M140.89411,197.75553c0,0 -0.19222,-8.0288 3.14774,-12.8192c3.33997,-4.7904 10.64861,-7.75337 10.64861,-7.75337z" data-paper-data="{&quot;origPos&quot;:null,&quot;origRot&quot;:0}" fill="#181818" stroke="none" stroke-width="0" stroke-linecap="butt" transform="matrix(1,0,0,1,17.06396,15.6671)"/><path d="M161.92475,176.13458c0,0 8.10701,4.63339 10.97276,9.7217c2.86575,5.0883 2.13742,13.07292 2.13742,13.07292z" data-paper-data="{&quot;origPos&quot;:null,&quot;origRot&quot;:0,&quot;index&quot;:null}" fill="#181818" stroke="none" stroke-width="0" stroke-linecap="butt" transform="matrix(1,0,0,1,17.06396,15.6671)"/><path d="M174.65688,199.53466c0,0 -7.08051,3.90946 -15.89416,3.56588c-8.81367,-0.3436 -17.76867,-4.8782 -17.76867,-4.8782z" data-paper-data="{&quot;origPos&quot;:null,&quot;origRot&quot;:0,&quot;index&quot;:null}" fill="#181818" stroke="none" stroke-width="0" stroke-linecap="butt" transform="matrix(1,0,0,1,17.06396,15.6671)"/><path d="M 161.7061 211.7586 L 175.7938 189.6394 L 188.3479 213.0375 Z " data-paper-data="{&quot;origPos&quot;:null}" fill="none" stroke="#494949" stroke-width="2.5" stroke-linecap="butt"/><path d="M153.98634,177.81522c0.11629,-2.42241 2.33026,-7.54089 4.75267,-7.4246c2.42241,0.11629 4.13592,5.4233 4.01963,7.84571c-0.11629,2.42241 -8.88859,2.0013 -8.7723,-0.42109z" data-paper-data="{&quot;origPos&quot;:null}" fill="#696969" stroke="none" stroke-width="0" stroke-linecap="butt" transform="matrix(1,0,0,1,17.06396,15.6671)"/><path d="M186.49566,177.03419c-0.96903,20.18669 -16.08266,35.86346 -33.75724,35.01503c-17.67458,-0.84843 -31.2171,-17.9008 -30.24807,-38.0875c0.96903,-20.18669 16.08266,-35.86346 33.75724,-35.01503c17.67458,0.84843 31.2171,17.9008 30.24807,38.0875z" data-paper-data="{&quot;origPos&quot;:null}" fill="url(#color-2)" stroke="none" stroke-width="0" stroke-linecap="butt" transform="matrix(1,0,0,1,17.06396,15.6671)"/></g><path d="M 262.3845 149.1593 L 245.4668 74.7578 L 262.3845 3.5 L 285.454 3.5 L 270.8433 77.9015 L 289.2989 149.1593 L 272.9805 231.333 L 293.2298 292.1178 L 270.8385 395.8396 L 243.2989 397.2136 L 267.6076 296.7753 L 247.0047 231.9441 Z " data-paper-data="{&quot;origPos&quot;:null}" fill="#69faf5" stroke="#00c3d8" stroke-width="7" stroke-linecap="butt"/><text transform="matrix(2.05661,0,0,2.05661,211.11809,212.37821)" font-size="40" xml:space="preserve" data-paper-data="{&quot;origPos&quot;:null}" fill="#c80000" fill-rule="nonzero" stroke="#ff0000" stroke-width="1" stroke-linecap="butt" stroke-linejoin="miter" stroke-miterlimit="10" stroke-dasharray="" stroke-dashoffset="0" font-family="Serif" font-weight="normal" text-anchor="start" style="mix-blend-mode: normal"><tspan x="0" dy="0">VS</tspan></text><text transform="matrix(1.10263,0,0,1.10263,28.11804,66.54721)" font-size="40" xml:space="preserve" data-paper-data="{&quot;origPos&quot;:null}" fill="#c80000" fill-rule="nonzero" stroke="#ff0000" stroke-width="2" stroke-linecap="butt" stroke-linejoin="miter" stroke-miterlimit="10" stroke-dasharray="" stroke-dashoffset="0" font-family="Serif" font-weight="normal" text-anchor="start" style="mix-blend-mode: normal"><tspan x="0" dy="0">TWO PLAYER BATTLE</tspan></text><g data-paper-data="{&quot;origPos&quot;:null,&quot;origRot&quot;:0}"><g data-paper-data="{&quot;origPos&quot;:null}" stroke-linecap="butt"><path d="M 34.0248 226.4969 C 25.819 221.4626 21.6761 202.0223 21.6761 202.0223 C 21.6761 202.0223 28.4897 205.0948 43.3756 204.4726 C 59.5092 203.7983 64.1744 197.9749 64.1744 197.9749 C 64.1744 197.9749 65.3341 216.2904 57.9028 223.6579 C 50.4716 231.0254 42.2307 231.5313 34.0248 226.4969 Z " data-paper-data="{&quot;origPos&quot;:null,&quot;origRot&quot;:0}" fill="#eac482" stroke-width="4" stroke="#c29953"/><path d="M 64.9451 195.7636 C 65.2167 199.4075 55.5685 203.4248 43.3953 204.7366 C 31.2221 206.0483 21.1336 204.1577 20.862 200.5138 C 20.5904 196.8699 30.2386 192.8526 42.4118 191.5408 C 54.585 190.2291 64.6735 192.1197 64.9451 195.7636 Z " data-paper-data="{&quot;origPos&quot;:null,&quot;origRot&quot;:0}" fill="#d6b378" stroke-width="4" stroke="#c29953"/></g><path d="M 99.7581 228.6693 C 99.8714 225.6817 103.1659 227.2507 106.1534 227.3639 C 109.1409 227.4771 111.5999 226.5905 111.4867 229.578 C 111.3734 232.5656 112.2535 243.1752 105.3605 244.2044 C 98.7249 245.195 99.5364 234.5217 99.7582 228.6692 Z " data-paper-data="{&quot;origPos&quot;:null}" fill="#7f6b47" stroke="#c29953" stroke-linecap="butt" stroke-width="4"/><path d="M 64.0267 201.8023 C 64.0267 201.8023 74.5327 204.2974 83.8652 209.5059 C 93.1976 214.7145 98.6756 218.9024 102.0452 223.0208 C 104.8133 226.404 106.4713 233.4461 106.4713 233.4461 " data-paper-data="{&quot;origPos&quot;:null,&quot;index&quot;:null}" fill="none" stroke="#000000" stroke-linecap="round" stroke-width="4"/><path d="M 69.5737 205.4145 C 69.7955 199.5614 69.262 198.6279 79.2481 200.4304 C 89.2343 202.2328 96.0003 205.4246 101.2989 211.1407 C 106.5976 216.8567 112.2386 220.2383 111.9569 227.6722 C 111.8702 229.9589 108.0346 226.3728 105.7746 226.7317 C 103.6572 227.068 100.0505 227.6153 99.96 229.7574 C 99.96 229.7576 100.0148 232.3913 100.015 232.3914 C 101.3802 232.9862 98.3954 238.0089 96.9449 237.6721 C 93.6888 236.9159 91.24 230.2815 88.8336 227.9614 C 83.4563 222.777 79.0621 222.114 73.5257 221.9042 C 67.5263 221.6769 69.3519 211.2677 69.5737 205.4146 Z " data-paper-data="{&quot;origPos&quot;:null}" fill="#eac482" stroke="#c29953" stroke-linecap="butt" stroke-width="4"/><path d="M 58.8729 308.47 L 78.3945 383.797 " data-paper-data="{&quot;origPos&quot;:null}" fill="none" stroke="#000000" stroke-linecap="round" stroke-width="4"/><path d="M 62.7541 186.2941 L 58.0242 311.1064 L 32.9448 382.4402 " data-paper-data="{&quot;origPos&quot;:null}" fill="none" stroke="#000000" stroke-linecap="round" stroke-width="4"/><path d="M 37.7854 333.7453 C 37.7854 333.7453 41.2157 298.4279 44.0049 275.8454 C 47.8384 244.8062 54.7553 196.3464 54.7553 196.3464 C 54.7553 196.3464 60.4155 197.4896 63.1705 197.594 C 66.9309 197.7365 71.4503 196.9791 71.4503 196.9791 C 71.4503 196.9791 74.2174 244.1748 75.3949 274.36 C 76.3009 297.5828 76.7889 333.8304 76.7889 333.8304 C 76.7889 333.8304 63.8203 338.345 55.0424 338.1454 C 47.8863 337.9827 37.7854 333.7453 37.7854 333.7453 Z " data-paper-data="{&quot;origPos&quot;:null}" fill="#eac482" stroke="#c29953" stroke-linecap="butt" stroke-width="4"/><path d="M 62.7172 245.3884 L 68.4219 229.4523 L 85.64 231.2383 C 85.64 231.2383 88.6521 236.2324 89.0524 243.3282 C 89.6175 253.3467 85.0115 255.3013 85.0115 255.3013 Z " data-paper-data="{&quot;origPos&quot;:null}" fill="#be9f6a" stroke="#ab8749" stroke-linecap="butt" stroke-width="4"/><path d="M 23.8439 124.5078 C 34.5677 100.8958 62.4025 90.4478 86.0146 101.1716 C 109.6266 111.8954 120.0746 139.7302 109.3508 163.3423 C 98.6269 186.9544 70.7922 197.4024 47.1801 186.6785 C 23.568 175.9547 13.12 148.1199 23.8439 124.5078 Z " data-paper-data="{&quot;origPos&quot;:null,&quot;origRot&quot;:0}" fill="url(#color-3-,0,0,1,17.06396,15.6671)" stroke="#000000" stroke-linecap="butt" stroke-width="4"/><path d="M 58.8279 132.4426 C 59.0149 127.5065 63.1681 123.6566 68.1042 123.8437 C 73.0403 124.0307 76.8902 128.1839 76.7031 133.12 C 76.5161 138.0561 72.3629 141.906 67.4268 141.7189 C 62.4907 141.5318 58.6408 137.3787 58.8279 132.4426 Z " data-paper-data="{&quot;origPos&quot;:null}" fill="#000000" stroke="none" stroke-linecap="butt" stroke-width="4"/><path d="M 84.1512 133.4022 C 84.3382 128.4661 88.4914 124.6163 93.4275 124.8033 C 98.3636 124.9904 102.2135 129.1435 102.0264 134.0796 C 101.8393 139.0157 97.6862 142.8656 92.7501 142.6786 C 87.814 142.4915 83.9641 138.3383 84.1512 133.4022 Z " data-paper-data="{&quot;origPos&quot;:null}" fill="#000000" stroke="none" stroke-linecap="butt" stroke-width="4"/><path d="M 59.7266 119.4637 L 76.3973 126.8761 " data-paper-data="{&quot;origPos&quot;:null}" fill="none" stroke="#000000" stroke-linecap="round" stroke-width="4"/><path d="M 85.8998 126.623 L 98.9955 121.0167 " data-paper-data="{&quot;origPos&quot;:null}" fill="none" stroke="#000000" stroke-linecap="round" stroke-width="4"/><g data-paper-data="{&quot;origRot&quot;:0,&quot;origPos&quot;:null}" stroke-linecap="butt"><path d="M 100.3569 221.6618 L 131.8139 112.6325 C 131.8139 112.6325 133.1919 109.8822 136.536 110.8052 C 139.8022 111.7067 139.5329 114.8595 139.5329 114.8595 L 108.0759 223.8888 Z " data-paper-data="{&quot;origPos&quot;:null}" fill="#42ff30" stroke-width="4" stroke="none"/><path d="M 102.1093 220.7235 L 132.8043 114.3348 C 132.8043 114.3348 133.2462 112.0113 135.85 112.73 C 138.3931 113.4319 137.6785 115.7411 137.6785 115.7411 L 106.9834 222.1298 Z " data-paper-data="{&quot;origPos&quot;:null}" fill="#ffffff" stroke-width="4" stroke="none"/><g><path d="M 92.3913 247.8699 L 100.6233 219.3381 L 108.8262 221.7048 L 100.5942 250.2366 Z " data-paper-data="{&quot;origPos&quot;:null}" fill="#272727" stroke-width="4" stroke="none"/><path d="M 96.2758 222.913 L 97.5621 218.4549 L 112.0063 222.6223 L 110.7201 227.0804 Z " data-paper-data="{&quot;origPos&quot;:null}" fill="#272727" stroke-width="4" stroke="none"/><path d="M 89.2112 246.9524 L 90.4974 242.4943 L 104.9417 246.6617 L 103.6554 251.1198 Z " data-paper-data="{&quot;origPos&quot;:null}" fill="#272727" stroke-width="4" stroke="none"/><path d="M 93.5954 240.6838 L 97.8143 226.0612 L 107.6221 228.8909 L 103.4032 243.5135 Z " data-paper-data="{&quot;origPos&quot;:null}" fill="#4a4a4a" stroke-width="4" stroke="none"/></g></g><path d="M 96.6431 237.1597 C 96.6431 237.1597 75.4678 237.5142 59.8634 227.2444 C 44.0791 216.8562 53.2344 201.3933 53.2344 201.3933 " data-paper-data="{&quot;origPos&quot;:null}" fill="none" stroke="#000000" stroke-linecap="round" stroke-width="4"/><path d="M 46.4558 240.4656 C 39.0367 227.4183 40.9856 195.707 48.778 196.691 C 63.2863 198.5231 56.7459 212.7229 63.7509 217.9024 C 70.0051 222.5269 82.9707 229.7541 82.9707 229.7541 C 82.9707 229.7541 79.3064 231.0917 78.7423 236.6444 C 77.3863 249.9937 82.009 255.1315 82.009 255.1315 C 82.009 255.1315 53.875 253.513 46.4558 240.4656 Z " data-paper-data="{&quot;origPos&quot;:null}" fill="#eac482" stroke="#c29953" stroke-linecap="butt" stroke-width="4"/><path d="M 39.279 332.6862 C 39.279 332.6862 41.1652 313.3031 42.61 300.906 C 44.6894 283.0625 48.3092 255.1983 48.3092 255.1983 C 48.3092 255.1983 46.8018 283.7393 47.301 302.0624 C 47.6591 315.2053 50.6914 335.8332 50.6914 335.8332 C 50.6914 335.8332 47.0707 335.3012 44.855 334.6902 C 42.6169 334.073 39.279 332.6862 39.279 332.6862 Z " data-paper-data="{&quot;origPos&quot;:null}" fill="#cdac73" stroke="none" stroke-linecap="butt" stroke-width="4"/><path d="M 39.013 332.7026 C 39.013 332.7026 39.9798 322.7634 40.7173 316.4063 C 41.4869 309.7734 42.8746 299.4174 42.8746 299.4174 C 42.8746 299.4174 43.62 314.2511 44.6907 323.768 C 45.1924 328.2276 46.9036 335.2304 46.9036 335.2304 C 46.9036 335.2304 44.3918 334.7348 42.9073 334.3033 C 41.2372 333.8179 39.013 332.7026 39.013 332.7026 Z " data-paper-data="{&quot;origPos&quot;:null}" fill="#aa8e5f" stroke="none" stroke-linecap="butt" stroke-width="4"/></g><g data-paper-data="{&quot;index&quot;:null,&quot;origPos&quot;:null,&quot;origRot&quot;:0}" stroke-linecap="butt"><g data-paper-data="{&quot;origPos&quot;:null}"><path d="M354.6533,184.25083c-1.9583,0.90632 -4.49824,-0.41686 -5.67311,-2.95545c-1.17486,-2.53855 -0.5397,-5.33115 1.4186,-6.23747c1.9583,-0.90632 4.49824,0.41686 5.67307,2.95542c1.17486,2.53855 0.53974,5.33118 -1.41857,6.23747z" data-paper-data="{&quot;origPos&quot;:null,&quot;origRot&quot;:0}" fill="#70b066" stroke="none" stroke-width="0" transform="matrix(1,0,0,1,17.06396,15.6671)"/><path d="M308.62338,170.7952c-0.38409,2.12342 -2.92685,3.44114 -5.67942,2.94325c-2.75257,-0.49789 -4.67261,-2.62288 -4.28852,-4.74631c0.38409,-2.12342 2.92685,-3.44114 5.67942,-2.94325c2.75257,0.49789 4.67261,2.62288 4.28852,4.74631z" data-paper-data="{&quot;origPos&quot;:null,&quot;origRot&quot;:0}" fill="#70b066" stroke="none" stroke-width="0" transform="matrix(1,0,0,1,17.06396,15.6671)"/><path d="M347.77797,158.50814c0.65284,7.07626 -6.70869,13.5407 -16.44246,14.43872c-9.73377,0.89802 -18.15377,-4.11045 -18.80661,-11.18671c-0.65284,-7.07626 6.70869,-13.5407 16.44246,-14.43872c9.73377,-0.89802 18.15377,4.11045 18.80661,11.18671z" data-paper-data="{&quot;origPos&quot;:null}" fill="#70b066" stroke="none" stroke-width="0" transform="matrix(1,0,0,1,17.06396,15.6671)"/><path d="M321.88097,205.37183l-3.10021,-33.60363l26.62929,-2.45677l3.10021,33.60363z" fill="#d9c49a" stroke="none" stroke-width="0" transform="matrix(1,0,0,1,17.06396,15.6671)"/><path d="M357.17758,177.23803l-12.19319,3.67323l-3.81747,-11.31282c0,0 2.54421,-1.3824 3.5682,-2.76954c1.22147,-1.65467 2.18558,-5.02471 2.18558,-5.02471l4.89773,4.23898z" data-paper-data="{&quot;origPos&quot;:null,&quot;index&quot;:null,&quot;origRot&quot;:0}" fill="#d9c49a" stroke="none" stroke-width="0" transform="matrix(1,0,0,1,17.06396,15.6671)"/><path d="M305.47629,177.54571l-0.6294,-12.36447l10.55807,1.80933c0,0 1.44944,1.72423 2.41782,2.22911c1.91526,0.99851 5.03382,2.30239 5.03382,2.30239l-3.16013,4.63866z" data-paper-data="{&quot;origPos&quot;:null,&quot;index&quot;:null,&quot;origRot&quot;:0}" fill="#d9c49a" stroke="none" stroke-width="0" transform="matrix(1,0,0,1,17.06396,15.6671)"/><path d="M 356.2648 165.363 C 356.2648 165.363 360.662 162.6164 364.4262 161.6478 C 365.8513 161.2811 369.4782 161.0358 369.4782 161.0358 C 369.4782 161.0358 366.5741 163.5769 365.4534 165.2815 C 364.1138 167.3188 363.2577 171.5295 363.2577 171.5295 Z " data-paper-data="{&quot;origRot&quot;:0,&quot;origPos&quot;:null}" fill="#b0a98e" stroke="#70b066" stroke-width="0.75"/><path d="M 330.6456 173.6248 C 330.6456 173.6248 329.0336 169.6418 327.3439 167.884 C 325.9302 166.4133 322.6102 164.4463 322.6102 164.4463 C 322.6102 164.4463 326.2208 164.0239 327.6889 164.1237 C 331.5669 164.3872 336.3923 166.283 336.3923 166.283 Z " data-paper-data="{&quot;origRot&quot;:0,&quot;origPos&quot;:null,&quot;index&quot;:null}" fill="#b0a98e" stroke="#70b066" stroke-width="0.75"/><g data-paper-data="{&quot;origPos&quot;:null,&quot;origRot&quot;:0}"><path d="M324.77608,159.33333c-1.51974,-2.04123 -1.09698,-4.92799 0.94425,-6.44772c2.04123,-1.51974 4.92799,-1.09698 6.44772,0.94425c1.51974,2.04123 1.09698,4.92799 -0.94425,6.44772c-2.04123,1.51974 -4.92799,1.09698 -6.44772,-0.94425z" fill="#000000" stroke-width="0" stroke="none" transform="matrix(1,0,0,1,17.06396,15.6671)"/><path d="M325.73554,155.86826c-0.54784,-0.73579 -0.39545,-1.77639 0.34037,-2.32423c0.73579,-0.54784 1.77639,-0.39545 2.32423,0.34037c0.54784,0.73579 0.39545,1.77639 -0.34037,2.32423c-0.73579,0.54784 -1.77639,0.39545 -2.32423,-0.34037z" data-paper-data="{&quot;origPos&quot;:null}" fill="#ffffff" stroke-width="0" stroke="none" transform="matrix(1,0,0,1,17.06396,15.6671)"/><path d="M325.53227,157.93161c-0.41088,-0.55187 -0.29659,-1.33232 0.25528,-1.7432c0.55187,-0.41088 1.33232,-0.29659 1.7432,0.25528c0.41088,0.55187 0.29659,1.33232 -0.25528,1.7432c-0.55187,0.41088 -1.33232,0.29659 -1.7432,-0.25528z" data-paper-data="{&quot;origPos&quot;:null}" fill="#ffffff" stroke-width="0" stroke="none" transform="matrix(1,0,0,1,17.06396,15.6671)"/></g><g data-paper-data="{&quot;origPos&quot;:null,&quot;origRot&quot;:0}"><path d="M322.39014,160.87947c-1.90844,1.68346 -4.82027,1.50108 -6.50373,-0.4074c-1.68346,-1.90847 -1.50108,-4.8203 0.40739,-6.50376c1.90847,-1.68346 4.8203,-1.50108 6.50376,0.40739c1.68349,1.90847 1.50108,4.8203 -0.40739,6.50376z" fill="#000000" stroke-width="0" stroke="none" transform="matrix(1,0,0,1,17.06396,15.6671)"/><path d="M316.55583,156.93947c-0.60682,-0.68796 -0.54109,-1.7376 0.14687,-2.34445c0.68796,-0.60682 1.7376,-0.54109 2.34445,0.14687c0.60682,0.68796 0.54109,1.7376 -0.14687,2.34445c-0.68796,0.60682 -1.7376,0.54109 -2.34445,-0.14687z" data-paper-data="{&quot;origPos&quot;:null}" fill="#ffffff" stroke-width="0" stroke="none" transform="matrix(1,0,0,1,17.06396,15.6671)"/><path d="M316.52406,159.01261c-0.45514,-0.51594 -0.40583,-1.30318 0.11014,-1.75832c0.51597,-0.45514 1.30318,-0.40583 1.75832,0.11014c0.45511,0.51598 0.40583,1.30318 -0.11014,1.75832c-0.51594,0.45514 -1.30318,0.40583 -1.75832,-0.11014z" data-paper-data="{&quot;origPos&quot;:null}" fill="#ffffff" stroke-width="0" stroke="none" transform="matrix(1,0,0,1,17.06396,15.6671)"/></g></g><path d="M 419.5425 200.3891 C 421.648 227.208 402.3016 250.8959 375.514 253.3673 C 331.6075 257.418 322.1315 208.8077 322.1315 208.8077 L 370.519 204.9164 L 366.353 156.3801 C 366.353 156.3801 415.8918 153.888 419.5425 200.3891 Z " data-paper-data="{&quot;origPos&quot;:null}" fill="#bebebe" stroke="#8a8a8a" stroke-width="0.5"/></g><g data-paper-data="{&quot;origPos&quot;:null,&quot;index&quot;:null,&quot;origRot&quot;:0}"><path d="M428.00935,307.81663c-1.38999,0.04212 -2.90744,2.09016 -2.90744,2.09016l-1.02796,-14.31688l7.42014,-0.22484l-0.15927,14.35286c0,0 -1.81965,-1.94692 -3.32546,-1.90129z" data-paper-data="{&quot;origPos&quot;:null}" fill="#a8936f" stroke="none" stroke-width="NaN" stroke-linecap="butt" transform="matrix(1,0,0,1,17.06396,15.6671)"/><path d="M 433.1267 308.95 L 427.9948 394.4968 " data-paper-data="{&quot;origPos&quot;:null,&quot;index&quot;:null}" fill="none" stroke="#000000" stroke-width="3.5" stroke-linecap="round"/><path d="M400.22721,367.28148l6.37474,-72.30719l21.81518,-0.66103l-6.36484,72.63403z" data-paper-data="{&quot;origPos&quot;:null,&quot;index&quot;:null}" fill="#a8936f" stroke="none" stroke-width="0" stroke-linecap="butt" transform="matrix(1,0,0,1,17.06396,15.6671)"/><path d="M 464.987 393.4226 L 456.4065 307.9642 " data-paper-data="{&quot;origPos&quot;:null}" fill="none" stroke="#000000" stroke-width="3.5" stroke-linecap="round"/><path d="M434.71746,366.61026l-7.6444,-72.53669l21.81518,-0.66103l7.6444,72.53669z" data-paper-data="{&quot;origPos&quot;:null}" fill="#a8936f" stroke="none" stroke-width="0" stroke-linecap="butt" transform="matrix(1,0,0,1,17.06396,15.6671)"/><path d="M 400.8744 270.6793 C 400.8744 270.6793 396.0742 238.8232 404.8258 222.0958 C 408.1171 215.8049 415.837 203.5427 415.837 203.5427 " data-paper-data="{&quot;origPos&quot;:null,&quot;index&quot;:null}" fill="none" stroke="#000000" stroke-width="3.5" stroke-linecap="round"/><path d="M374.88018,215.27342c0,0 -0.44397,-18.19116 5.09241,-24.10195c5.53637,-5.91079 19.70761,-8.44885 19.70761,-8.44885l-0.73818,24.38685l-7.0252,7.64772z" data-paper-data="{&quot;origPos&quot;:null,&quot;index&quot;:null}" fill="#8b8b8b" stroke="none" stroke-width="0" stroke-linecap="butt" transform="matrix(1,0,0,1,17.06396,15.6671)"/><path d="M451.30415,294.22265c0,0 -14.14071,1.99882 -23.22194,2.27399c-9.08123,0.27517 -23.31709,-0.8638 -23.31709,-0.8638l-8.84891,-127.32179l54.43409,-1.64942l0.95389,127.56102z" data-paper-data="{&quot;origPos&quot;:null}" fill="#d9c49a" stroke="#737373" stroke-width="0" stroke-linecap="butt" transform="matrix(1,0,0,1,17.06396,15.6671)"/><path d="M419.31784,213.14173l-20.98738,-5.25282l-4.14427,-26.96274l23.11257,6.75876l33.88018,-8.48571l0.02172,27.08766z" data-paper-data="{&quot;origPos&quot;:null}" fill="#a67a4c" stroke="none" stroke-width="NaN" stroke-linecap="butt" transform="matrix(1,0,0,1,17.06396,15.6671)"/><path d="M392.82978,176.25626c-0.4277,-14.1149 12.85008,-15.30757 29.25857,-15.80477c16.40848,-0.4972 29.73413,-0.11064 30.16182,14.00426c0.24943,8.23152 -12.85008,15.30757 -29.25857,15.80477c-16.40848,0.4972 -29.9124,-5.77272 -30.16182,-14.00426z" data-paper-data="{&quot;origPos&quot;:null}" fill="#84623d" stroke="none" stroke-width="NaN" stroke-linecap="butt" transform="matrix(1,0,0,1,17.06396,15.6671)"/><path d="M450.95016,232.59762c0,0 -21.25012,5.35492 -28.12118,5.56312c-6.87104,0.2082 -22.87431,-4.01789 -22.87431,-4.01789l-1.23248,-27.05097l21.3843,5.24079l30.62213,-6.81665l0.22158,27.0816z" data-paper-data="{&quot;origPos&quot;:null}" fill="#8b8b8b" stroke="none" stroke-width="NaN" stroke-linecap="butt" transform="matrix(1,0,0,1,17.06396,15.6671)"/><path d="M452.72821,272.58735c0,0 -16.38536,3.24458 -26.92609,3.56398c-9.56772,0.28991 -24.59931,-2.0027 -24.59931,-2.0027l-0.40409,-13.33562c0,0 14.97249,2.68699 25.02671,2.38234c10.05423,-0.30466 26.49867,-3.94362 26.49867,-3.94362l0.40409,13.33562z" data-paper-data="{&quot;origPos&quot;:null}" fill="#84623d" stroke="none" stroke-width="0" stroke-linecap="butt" transform="matrix(1,0,0,1,17.06396,15.6671)"/><path d="M 431.8661 289.6488 L 431.8378 280.6232 L 443.893 280.5498 L 443.9212 289.5754 Z " data-paper-data="{&quot;origPos&quot;:null,&quot;origRot&quot;:0}" fill="none" stroke="#8b8b8b" stroke-width="1" stroke-linecap="butt"/><path d="M452.59842,295.75377l-56.13542,-109.40041l-0.6299,-20.78788l56.52717,108.60336z" data-paper-data="{&quot;origPos&quot;:null}" fill="#6e5133" stroke="none" stroke-width="0" stroke-linecap="butt" transform="matrix(1,0,0,1,17.06396,15.6671)"/><g data-paper-data="{&quot;origPos&quot;:null}" stroke-linecap="butt"><path d="M 486.2616 150.9288 C 487.2034 167.4741 480.0472 180.3215 480.0472 180.3215 L 455.4563 181.3363 L 417.7037 201.8954 C 417.7037 201.8954 383.9045 188.9272 383.2881 154.0491 C 382.7751 125.02 406.619 100.7484 437.3632 99.8168 C 468.1074 98.8853 484.6115 121.9413 486.2616 150.9288 Z " data-paper-data="{&quot;origPos&quot;:null}" fill="#737373" stroke="#737373" stroke-width="2.5"/><path d="M 442.9107 134.2979 L 442.9227 145.8154 L 415.7938 153.1457 L 416.1917 202.4426 C 416.1917 202.4426 413.4089 201.4804 411.8995 200.5274 C 409.9919 199.3232 407.4362 196.915 407.4362 196.915 L 404.3268 153.2449 L 383.3384 146.5692 C 383.3384 146.5692 383.338 146.3081 383.3392 146.141 C 383.3427 145.6397 383.3188 143.5866 383.5978 141.9985 C 384.0548 139.3964 385.2246 135.8308 385.2246 135.8308 L 409.3127 138.9533 Z " data-paper-data="{&quot;origPos&quot;:null}" fill="#000000" stroke="#3f3f3f" stroke-width="1"/><g data-paper-data="{&quot;origPos&quot;:null}"><path d="M439.60185,137.63755c-7.39239,0.224 -13.55649,-5.25104 -13.76793,-12.22885c-0.21144,-6.97781 5.60985,-12.81602 13.00225,-13.04002c7.39237,-0.224 13.55648,5.25104 13.76791,12.22885c0.21144,6.97781 -5.60983,12.81602 -13.00223,13.04002z" data-paper-data="{&quot;origPos&quot;:null}" fill="#4e4e4e" stroke-width="0" stroke="none" transform="matrix(1,0,0,1,17.06396,15.6671)"/><g><path d="M435.43947,133.51942l-0.51395,-16.96128l8.25108,-0.25002l0.51395,16.96128z" data-paper-data="{&quot;origPos&quot;:null}" stroke-width="0" fill="#333333" stroke="none" transform="matrix(1,0,0,1,17.06396,15.6671)"/><path d="M430.53063,128.99089l-0.23075,-7.61527l17.78565,-0.53893l0.23075,7.61527z" data-paper-data="{&quot;origPos&quot;:null}" stroke-width="0" fill="#333333" stroke="none" transform="matrix(1,0,0,1,17.06396,15.6671)"/></g></g><path d="M427.28811,152.80709c0,0 -3.56563,1.0119 -8.14322,5.19898c-4.57761,4.18712 -7.13286,6.58723 -10.4486,11.80686c-3.86243,6.08024 -8.12652,17.01034 -8.12652,17.01034l-0.62536,-3.29874c0,0 2.40167,-22.62268 9.08081,-34.30003c4.81596,-8.41992 27.46424,-12.54937 27.46424,-12.54937l-9.20133,16.13192z" data-paper-data="{&quot;origPos&quot;:null,&quot;index&quot;:null}" fill="#4c4c4c" stroke="none" stroke-width="0" transform="matrix(1,0,0,1,17.06396,15.6671)"/><path d="M400.62008,188.48478c0,0 4.55053,-13.95743 8.96003,-20.00906c5.98758,-8.21742 17.66858,-16.96897 17.66858,-16.96897l9.78246,17.58126z" data-paper-data="{&quot;origPos&quot;:null}" fill="#8b8b8b" stroke="none" stroke-width="0" transform="matrix(1,0,0,1,17.06396,15.6671)"/><path d="M427.28644,152.75287l8.33546,-15.6357l0.91881,30.32265z" data-paper-data="{&quot;origPos&quot;:null}" fill="#626262" stroke="none" stroke-width="0" transform="matrix(1,0,0,1,17.06396,15.6671)"/></g><path d="M429.13211,305.45778c0,0 6.08773,-1.78707 10.00666,-2.18985c3.87647,-0.39841 9.96806,0.13692 9.96806,0.13692c0,0 2.85535,36.96637 -5.05588,37.62045c-8.75469,0.72383 -14.91884,-35.56755 -14.91884,-35.56755z" data-paper-data="{&quot;origPos&quot;:null,&quot;origRot&quot;:0}" fill="#7d7d7d" stroke="none" stroke-width="0" stroke-linecap="butt" transform="matrix(1,0,0,1,17.06396,15.6671)"/><path d="M405.89796,304.96797c0,0 5.72312,-1.16291 9.4131,-1.01955c4.1389,0.1608 10.64744,1.79896 10.64744,1.79896c0,0 -3.79553,25.53794 -12.57741,25.36462c-7.93579,-0.15665 -7.48313,-26.14405 -7.48313,-26.14405z" data-paper-data="{&quot;origPos&quot;:null,&quot;origRot&quot;:0,&quot;index&quot;:null}" fill="#676158" stroke="none" stroke-width="0" stroke-linecap="butt" transform="matrix(1,0,0,1,17.06396,15.6671)"/><path d="M 471.8933 362.1712 C 471.8933 362.1712 463.9185 364.0668 458.7973 364.7223 C 455.2053 365.182 449.567 365.0287 449.567 365.0287 " data-paper-data="{&quot;origPos&quot;:null}" fill="none" stroke="#6e5133" stroke-width="4" stroke-linecap="round"/><g data-paper-data="{&quot;origPos&quot;:null,&quot;origRot&quot;:0}" stroke-linecap="butt"><path d="M448.84815,355.03643l-1.62947,-13.64305l6.41366,-0.70355l1.62947,13.64305z" fill="#c45e46" stroke-width="0" stroke="none" transform="matrix(1,0,0,1,17.06396,15.6671)"/><path d="M447.80077,349.95516l-0.46558,-3.89801l7.17459,-0.78702l0.46558,3.89801z" fill="#a3a3a3" stroke-width="0" stroke="none" transform="matrix(1,0,0,1,17.06396,15.6671)"/></g><g data-paper-data="{&quot;origPos&quot;:null,&quot;origRot&quot;:0}" stroke-linecap="butt"><path d="M441.61127,355.54354l-0.93584,-13.7033l6.44089,-0.41316l0.93584,13.7033z" fill="#c45e46" stroke-width="0" stroke="none" transform="matrix(1,0,0,1,17.06396,15.6671)"/><path d="M440.82278,350.41993l-0.26738,-3.91524l7.20505,-0.46219l0.26738,3.91524z" fill="#a3a3a3" stroke-width="0" stroke="none" transform="matrix(1,0,0,1,17.06396,15.6671)"/></g><g data-paper-data="{&quot;origPos&quot;:null,&quot;origRot&quot;:0}" stroke-linecap="butt"><path d="M434.13239,355.57697l0.01177,-13.73489l6.45424,-0.01638l-0.01175,13.73487z" fill="#c45e46" stroke-width="0" stroke="none" transform="matrix(1,0,0,1,17.06396,15.6671)"/><path d="M433.69927,350.41457l0.00336,-3.92423l7.22,-0.01832l-0.00336,3.92425z" fill="#a3a3a3" stroke-width="0" stroke="none" transform="matrix(1,0,0,1,17.06396,15.6671)"/></g><g data-paper-data="{&quot;origPos&quot;:null,&quot;origRot&quot;:0}" stroke-linecap="butt"><g><path d="M419.50703,209.5955l4.4574,0.82236l-1.7518,3.96456l-10.16053,5.14179l-2.70558,-4.78691z" data-paper-data="{&quot;origPos&quot;:null,&quot;origRot&quot;:0}" fill="#e7d980" stroke-width="0" stroke="none" transform="matrix(1,0,0,1,17.06396,15.6671)"/><path d="M415.90066,218.13285c0,0 -1.12917,-1.57917 -1.76054,-2.71027c-0.61764,-1.10643 -1.43988,-3.02314 -1.43988,-3.02314l3.82059,-1.90967c0,0 0.83346,1.93673 1.49082,3.11439c0.59165,1.05989 1.70962,2.61904 1.70962,2.61904l-3.82059,1.90967z" fill="#cdcdcd" stroke-width="0" stroke="none" transform="matrix(1,0,0,1,17.06396,15.6671)"/></g><g data-paper-data="{&quot;origPos&quot;:null}"><path d="M416.30658,203.86205l4.4574,0.82236l-1.7518,3.96456l-10.16051,5.14179l-2.70562,-4.78689z" data-paper-data="{&quot;origPos&quot;:null,&quot;origRot&quot;:0}" fill="#e7d980" stroke-width="0" stroke="none" transform="matrix(1,0,0,1,17.06396,15.6671)"/><path d="M412.70026,212.39947c0,0 -1.12277,-1.56769 -1.71747,-2.63307c-0.6543,-1.17219 -1.48296,-3.10036 -1.48296,-3.10036l3.82059,-1.90967c0,0 0.7976,1.87255 1.43203,3.00911c0.61454,1.10096 1.76837,2.7243 1.76837,2.7243l-3.82059,1.90967z" data-paper-data="{&quot;origPos&quot;:null}" fill="#cdcdcd" stroke-width="0" stroke="none" transform="matrix(1,0,0,1,17.06396,15.6671)"/></g><path d="M413.19243,198.28302l4.4574,0.82236l-1.7518,3.96456l-10.16051,5.14179l-2.70562,-4.78689z" data-paper-data="{&quot;origPos&quot;:null,&quot;origRot&quot;:0}" fill="#e7d980" stroke-width="0" stroke="none" transform="matrix(1,0,0,1,17.06396,15.6671)"/><path d="M409.58597,206.82046c0,0 -1.18011,-1.67042 -1.81148,-2.80152c-0.61761,-1.10647 -1.38894,-2.93193 -1.38894,-2.93193l3.82059,-1.90967c0,0 0.80239,1.88109 1.43988,3.02314c0.6115,1.09549 1.76054,2.71027 1.76054,2.71027l-3.82059,1.90967z" data-paper-data="{&quot;origPos&quot;:null}" fill="#cdcdcd" stroke-width="0" stroke="none" transform="matrix(1,0,0,1,17.06396,15.6671)"/></g><g data-paper-data="{&quot;origPos&quot;:null}" stroke-linecap="butt"><path d="M410.20761,230.65888l-0.14317,-4.72503l-15.07984,0.45694l-0.17002,-5.61097l60.13156,-1.82206l0.31319,10.336z" data-paper-data="{&quot;origPos&quot;:null}" stroke-width="0" fill="#1b1b1b" stroke="none" transform="matrix(1,0,0,1,17.06396,15.6671)"/><path d="M443.58415,253.23522l-7.48457,-29.98201l12.70209,-0.38489l13.61662,29.7962z" data-paper-data="{&quot;origPos&quot;:null}" stroke-width="0" fill="#1b1b1b" stroke="none" transform="matrix(1,0,0,1,17.06396,15.6671)"/><path d="M413.59954,247.52268l-0.56375,-18.60479l10.95007,-0.3318l0.56375,18.60479z" data-paper-data="{&quot;origPos&quot;:null}" stroke-width="0" fill="#1b1b1b" stroke="none" transform="matrix(1,0,0,1,17.06396,15.6671)"/><g data-paper-data="{&quot;origPos&quot;:null}"><path d="M415.03425,222.11799l-0.21297,-7.02848l3.73833,-0.11328l0.21297,7.02848z" stroke-width="0" fill="#1b1b1b" stroke="none" transform="matrix(1,0,0,1,17.06396,15.6671)"/><path d="M430.67422,221.64408l-0.21297,-7.02848l3.73833,-0.11328l0.21297,7.02848z" data-paper-data="{&quot;origPos&quot;:null}" stroke-width="0" fill="#1b1b1b" stroke="none" transform="matrix(1,0,0,1,17.06396,15.6671)"/><path d="M408.51943,216.28548c0,0 0.70291,-2.00383 0.66449,-3.27158c-0.04191,-1.38301 -0.87031,-3.52065 -0.87031,-3.52065l31.66138,-0.95938c0,0 -0.70989,1.77333 -0.66449,3.27158c0.03492,1.15249 0.87031,3.52065 0.87031,3.52065z" data-paper-data="{&quot;origPos&quot;:null}" stroke-width="0" fill="#1b1b1b" stroke="none" transform="matrix(1,0,0,1,17.06396,15.6671)"/></g></g><path d="M 477.5289 215.5431 C 484.0966 226.4353 481.5213 236.9289 478.1732 244.8314 C 474.825 252.734 454.3692 249.7727 454.3692 249.7727 " data-paper-data="{&quot;origPos&quot;:null}" fill="none" stroke="#000000" stroke-width="3.5" stroke-linecap="round"/><path d="M455.80197,210.31394l-6.44278,-3.94104l-0.09579,-28.68597c0,0 11.29745,1.83436 17.37136,7.57858c6.07391,5.74424 6.75339,24.51552 6.75339,24.51552z" data-paper-data="{&quot;origPos&quot;:null}" fill="#84623d" stroke="none" stroke-width="0" stroke-linecap="butt" transform="matrix(1,0,0,1,17.06396,15.6671)"/></g><text transform="matrix(0.9175,0,0,0.9175,88.11804000000001,97.88255000000001)" font-size="40" xml:space="preserve" data-paper-data="{&quot;origPos&quot;:null}" fill="#ffdd00" fill-rule="nonzero" stroke="#ffe400" stroke-width="2" stroke-linecap="butt" stroke-linejoin="miter" stroke-miterlimit="10" stroke-dasharray="" stroke-dashoffset="0" font-family="Serif" font-weight="normal" text-anchor="start" style="mix-blend-mode: normal"><tspan x="0" dy="0">STAR WARS UPDATE</tspan></text></g></g></svg>