<svg xmlns="http://www.w3.org/2000/svg" xmlns:xlink="http://www.w3.org/1999/xlink" version="1.1" width="55.99885" height="161.17312" viewBox="0,0,55.99885,161.17312"><defs><radialGradient cx="264.29149" cy="157.43807" r="1.84732" gradientUnits="userSpaceOnUse" id="color-1"><stop offset="0" stop-color="#ff0000"/><stop offset="1" stop-color="#ff0000" stop-opacity="0"/></radialGradient></defs><g><g data-paper-data="{&quot;isPaintingLayer&quot;:true}" fill-rule="nonzero" stroke-linecap="none" stroke-linejoin="miter" stroke-miterlimit="10" stroke-dasharray="" stroke-dashoffset="0" font-family="none" font-weight="none" font-size="none" text-anchor="none" style="mix-blend-mode: normal"><path d="M 28.2441 53.2073 L 28.2441 120.5043 L 16.1965 159.4231 " data-paper-data="{&quot;origPos&quot;:null}" fill="none" stroke="#000000" stroke-width="3.5" stroke-linecap="round"/><path d="M 41.0949 159.2263 L 29.0473 119.0676 " fill="none" stroke="#000000" stroke-width="3.5" stroke-linecap="round"/><path d="M 4.1488 30.3168 C 4.1488 16.344 15.476 5.0168 29.4488 5.0168 C 43.4216 5.0168 54.7488 16.344 54.7488 30.3168 C 54.7488 44.2896 43.4216 55.6168 29.4488 55.6168 C 15.476 55.6168 4.1488 44.2896 4.1488 30.3168 Z " data-paper-data="{&quot;origPos&quot;:null}" fill="#d4d4d4" stroke="#000000" stroke-width="2.5" stroke-linecap="butt"/><path d="M238.14469,108.99201c0,-2.66149 2.15756,-4.81905 4.81905,-4.81905c2.66149,0 4.81905,2.15756 4.81905,4.81905c0,2.66149 -2.15756,4.81905 -4.81905,4.81905c-2.66149,0 -4.81905,-2.15756 -4.81905,-4.81905z" data-paper-data="{&quot;origPos&quot;:null}" fill="#000000" stroke="none" stroke-width="0" stroke-linecap="butt" transform="matrix(1,0,0,1,-213.1133,-84.69902)"/><path d="M251.79867,108.99201c0,-2.66148 2.15757,-4.81905 4.81905,-4.81905c2.66148,0 4.81905,2.15757 4.81905,4.81905c0,2.66148 -2.15757,4.81905 -4.81905,4.81905c-2.66148,0 -4.81905,-2.15757 -4.81905,-4.81905z" data-paper-data="{&quot;origPos&quot;:null}" fill="#000000" stroke="none" stroke-width="0" stroke-linecap="butt" transform="matrix(1,0,0,1,-213.1133,-84.69902)"/><path d="M 34.3774 20.9374 L 25.2505 17.2866 " data-paper-data="{&quot;origPos&quot;:null}" fill="none" stroke="#000000" stroke-width="2.5" stroke-linecap="round"/><path d="M 39.4885 20.6073 L 46.4251 17.3216 " data-paper-data="{&quot;origPos&quot;:null}" fill="none" stroke="#000000" stroke-width="2.5" stroke-linecap="round"/><path d="M 47.1631 82.6025 C 47.1631 82.6025 41.0904 78.6184 37.6302 74.575 C 34.0533 70.395 29.1314 61.5311 29.1314 61.5311 " data-paper-data="{&quot;origPos&quot;:null,&quot;index&quot;:null}" fill="none" stroke="#000000" stroke-width="3.5" stroke-linecap="round"/><path d="M246.49798,84.69912c9.71015,-0.03583 24.57208,10.11897 18.14593,17.3986c0,0 -14.66243,-3.92727 -23.18593,-2.82558c0,0 -15.26004,27.2895 -12.27611,23.42317c0,0 -5.54589,5.77652 -9.61081,6.32826c-2.45763,0.33358 -6.77927,-18.8332 -6.43878,-21.28988c1.10466,-7.9702 3.15506,-10.56888 8.40172,-16.66945c4.0737,-4.7367 24.96396,-6.36512 24.96396,-6.36512z" data-paper-data="{&quot;origPos&quot;:null}" fill="#000000" stroke="none" stroke-width="0" stroke-linecap="butt" transform="matrix(1,0,0,1,-213.1133,-84.69902)"/><path d="M 14.2791 49.7477 L 14.2791 43.311 " fill="none" stroke="#000000" stroke-width="1.5" stroke-linecap="round"/><path d="M 17.6084 53.299 L 17.6084 46.4184 " fill="none" stroke="#000000" stroke-width="1.5" stroke-linecap="round"/><path d="M 21.6036 48.416 L 21.6036 54.4088 " data-paper-data="{&quot;origPos&quot;:null}" fill="none" stroke="#000000" stroke-width="1.5" stroke-linecap="round"/><path d="M 26.2647 49.5258 L 26.2647 55.0746 " data-paper-data="{&quot;origPos&quot;:null}" fill="none" stroke="#000000" stroke-width="1.5" stroke-linecap="round"/><path d="M 30.4818 54.1868 L 30.4818 49.5258 " data-paper-data="{&quot;origPos&quot;:null}" fill="none" stroke="#000000" stroke-width="1.5" stroke-linecap="round"/><path d="M 34.477 49.0818 L 34.477 54.6307 " data-paper-data="{&quot;origPos&quot;:null}" fill="none" stroke="#000000" stroke-width="1.5" stroke-linecap="round"/><path d="M 38.2502 47.3062 L 38.2502 53.5209 " data-paper-data="{&quot;origPos&quot;:null}" fill="none" stroke="#000000" stroke-width="1.5" stroke-linecap="round"/><path d="M 41.5795 45.7525 L 41.5795 51.7453 " data-paper-data="{&quot;origPos&quot;:null}" fill="none" stroke="#000000" stroke-width="1.5" stroke-linecap="round"/><path d="M 45.5747 43.311 L 45.5747 48.8599 " data-paper-data="{&quot;origPos&quot;:null}" fill="none" stroke="#000000" stroke-width="1.5" stroke-linecap="round"/><path d="M251.20888,126.28049l-0.4098,-4.64454l1.79912,1.92502l4.7336,0.17474l0.1755,1.98906z" data-paper-data="{&quot;origPos&quot;:null,&quot;index&quot;:null,&quot;origRot&quot;:0}" fill="#000000" stroke="none" stroke-width="0" stroke-linecap="butt" transform="matrix(1,0,0,1,-213.1133,-84.69902)"/><path d="M243.39526,127.13754l-0.19051,-1.98768l4.62219,-1.03581l1.41753,-2.22107l0.44484,4.64132z" data-paper-data="{&quot;origPos&quot;:null,&quot;index&quot;:null,&quot;origRot&quot;:0}" fill="#000000" stroke="none" stroke-width="0" stroke-linecap="butt" transform="matrix(1,0,0,1,-213.1133,-84.69902)"/><path d="M 49.0747 41.1444 L 49.0747 46.6932 " data-paper-data="{&quot;origPos&quot;:null}" fill="none" stroke="#000000" stroke-width="1.5" stroke-linecap="round"/><g data-paper-data="{&quot;origPos&quot;:null}" stroke-linecap="butt"><path d="M261.91401,164.36093v-3.03025h6.33599v3.03025z" data-paper-data="{&quot;origPos&quot;:null}" fill="#333333" stroke-width="0" stroke="none" transform="matrix(1,0,0,1,-213.1133,-84.69902)"/><path d="M262.48522,157.39702c0,-1.02025 0.82706,-1.84731 1.84731,-1.84731c1.02025,0 1.84733,0.82706 1.84733,1.84731c0,1.02025 -0.82708,1.84733 -1.84733,1.84733c-1.02025,0 -1.84731,-0.82708 -1.84731,-1.84733z" data-paper-data="{&quot;origPos&quot;:null}" fill="url(#color-1)" stroke-width="0" stroke="none" transform="matrix(1,0,0,1,-213.1133,-84.69902)"/><path d="M263.06859,157.36461c0,-0.42958 0.34824,-0.77782 0.77782,-0.77782c0.42958,0 0.77782,0.34824 0.77782,0.77782c0,0.42958 -0.34824,0.77782 -0.77782,0.77782c-0.42958,0 -0.77782,-0.34824 -0.77782,-0.77782z" data-paper-data="{&quot;origPos&quot;:null}" fill="#ff0000" stroke-width="0" stroke="none" transform="matrix(1,0,0,1,-213.1133,-84.69902)"/><path d="M236.01911,166.28928v-7.16242h29.88933v7.16242z" data-paper-data="{&quot;origPos&quot;:null}" fill="#333333" stroke-width="0" stroke="none" transform="matrix(1,0,0,1,-213.1133,-84.69902)"/><path d="M225,170.42144v-10.19268h11.84554l-0.13774,3.58121z" fill="#333333" stroke-width="0" stroke="none" transform="matrix(1,0,0,1,-213.1133,-84.69902)"/><path d="M248.14291,178.47917l-0.82643,-13.22293h4.13217l0.82643,13.22293z" data-paper-data="{&quot;origPos&quot;:null}" fill="#333333" stroke-width="0" stroke="none" transform="matrix(1,0,0,1,-213.1133,-84.69902)"/><path d="M236.36346,178.06595l3.44347,-13.22293h4.82086l-3.44347,13.22293z" data-paper-data="{&quot;origPos&quot;:null}" fill="#333333" stroke-width="0" stroke="none" transform="matrix(1,0,0,1,-213.1133,-84.69902)"/><path d="M259.50358,159.8115v-1.45841c0,0 1.41826,0.14166 2.36751,-0.51444c0.59438,-0.41082 1.13396,-2.50272 1.13396,-2.50272l0.90617,0.03552v4.44005z" data-paper-data="{&quot;origPos&quot;:null}" fill="#333333" stroke-width="0" stroke="none" transform="matrix(1,0,0,1,-213.1133,-84.69902)"/></g><path d="M 29.2425 89.2692 C 29.2425 89.2692 16.4565 82.4633 15.9534 76.4003 C 15.5583 71.6381 26.9409 61.5311 26.9409 61.5311 " data-paper-data="{&quot;origPos&quot;:null}" fill="none" stroke="#000000" stroke-width="3.5" stroke-linecap="round"/></g></g></svg>