<svg version="1.1" xmlns="http://www.w3.org/2000/svg" xmlns:xlink="http://www.w3.org/1999/xlink" width="492.09228" height="410.26689" viewBox="0,0,492.09228,410.26689"><defs><radialGradient cx="21.27933" cy="14.23677" r="243.64729" gradientUnits="userSpaceOnUse" id="color-1"><stop offset="0" stop-color="#7d3030"/><stop offset="1" stop-color="#001950"/></radialGradient><radialGradient cx="169.55724" cy="322.00507" r="26.77191" gradientUnits="userSpaceOnUse" id="color-2"><stop offset="0" stop-color="#ffd366"/><stop offset="1" stop-color="#ffd366" stop-opacity="0"/></radialGradient><radialGradient cx="321.55724" cy="308.00507" r="26.77191" gradientUnits="userSpaceOnUse" id="color-3"><stop offset="0" stop-color="#ffd366"/><stop offset="1" stop-color="#ffd366" stop-opacity="0"/></radialGradient><radialGradient cx="73.30724" cy="27.75507" r="40.52191" gradientUnits="userSpaceOnUse" id="color-4"><stop offset="0" stop-color="#ffe5a4"/><stop offset="1" stop-color="#ffe5a4" stop-opacity="0"/></radialGradient><radialGradient cx="370.30724" cy="27.75508" r="40.52191" gradientUnits="userSpaceOnUse" id="color-5"><stop offset="0" stop-color="#ffe5a4"/><stop offset="1" stop-color="#ffe5a4" stop-opacity="0"/></radialGradient></defs><g transform="translate(7.94101,12.76683)"><g data-paper-data="{&quot;isPaintingLayer&quot;:true}" fill-rule="nonzero" stroke-linejoin="miter" stroke-miterlimit="10" stroke-dasharray="" stroke-dashoffset="0" style="mix-blend-mode: normal"><path d="M-3.1433,-3.9674h487.29457v297.14571c-0.64582,1.20455 -1.91559,21.24189 -1.05109,23.26522c0.88678,14.97206 -0.83302,29.69985 -1.01238,44.61866c-3.29229,0.30296 -6.58713,0.61193 -9.89387,0.95762c-2.10465,0.22002 -4.34856,0.85981 -6.54887,1.26337h-404.03438c-26.69984,-0.59916 -35.77044,-1.58016 -54.64893,0h-8.41185c0.88579,-10.82571 2.50767,-27.99815 -0.64294,-41.77738c-0.20121,-1.61441 -0.55634,-3.18102 -1.05026,-4.68468z" data-paper-data="{&quot;origPos&quot;:null}" fill="url(#color-1)" stroke="none" stroke-width="NaN" stroke-linecap="butt"/><path d="M-7.94101,39.01044c0,-24.85281 20.14719,-45 45,-45c24.85281,0 45,20.14719 45,45c0,24.85281 -20.14719,45 -45,45c-24.85281,0 -45,-20.14719 -45,-45z" data-paper-data="{&quot;origPos&quot;:null}" fill="#af0000" stroke="none" stroke-width="0" stroke-linecap="butt"/><path d="M22.05899,16.51041c0,-8.00812 6.49188,-14.5 14.5,-14.5c8.00812,0 14.5,6.49188 14.5,14.5c0,8.00812 -6.49188,14.5 -14.5,14.5c-8.00812,0 -14.5,-6.49188 -14.5,-14.5z" data-paper-data="{&quot;origPos&quot;:null}" fill="#7a0000" stroke="none" stroke-width="0" stroke-linecap="butt"/><path d="M54.05899,49.51044c0,-4.69442 3.80558,-8.5 8.5,-8.5c4.69442,0 8.5,3.80558 8.5,8.5c0,4.69442 -3.80558,8.5 -8.5,8.5c-4.69442,0 -8.5,-3.80558 -8.5,-8.5z" data-paper-data="{&quot;origPos&quot;:null}" fill="#7a0000" stroke="none" stroke-width="0" stroke-linecap="butt"/><path d="M2.05899,35.51044c0,-5.24671 4.25329,-9.5 9.5,-9.5c5.24671,0 9.5,4.25329 9.5,9.5c0,5.24671 -4.25329,9.5 -9.5,9.5c-5.24671,0 -9.5,-4.25329 -9.5,-9.5z" data-paper-data="{&quot;origPos&quot;:null}" fill="#7a0000" stroke="none" stroke-width="0" stroke-linecap="butt"/><path d="M333.55899,74.01046c0,-0.2762 0.2239,-0.5 0.5,-0.5c0.2761,0 0.5,0.2238 0.5,0.5c0,0.2761 -0.2239,0.5 -0.5,0.5c-0.2761,0 -0.5,-0.2239 -0.5,-0.5z" fill="#f5f5f5" stroke="none" stroke-width="0.5" stroke-linecap="butt"/><path d="M348.55899,178.01046c0,-0.2762 0.2239,-0.5 0.5,-0.5c0.2761,0 0.5,0.2238 0.5,0.5c0,0.2761 -0.2239,0.5 -0.5,0.5c-0.2761,0 -0.5,-0.2239 -0.5,-0.5z" fill="#f5f5f5" stroke="none" stroke-width="0.5" stroke-linecap="butt"/><path d="M220.55899,274.01046c0,-0.2762 0.2239,-0.5 0.5,-0.5c0.2761,0 0.5,0.2238 0.5,0.5c0,0.2761 -0.2239,0.5 -0.5,0.5c-0.2761,0 -0.5,-0.2239 -0.5,-0.5z" fill="#f5f5f5" stroke="none" stroke-width="0.5" stroke-linecap="butt"/><path d="M386.55899,324.01046c0,-0.2762 0.2239,-0.5 0.5,-0.5c0.2761,0 0.5,0.2238 0.5,0.5c0,0.2761 -0.2239,0.5 -0.5,0.5c-0.2761,0 -0.5,-0.2239 -0.5,-0.5z" fill="#f5f5f5" stroke="none" stroke-width="0.5" stroke-linecap="butt"/><path d="M267.55899,185.01046c0,-0.2762 0.2239,-0.5 0.5,-0.5c0.2761,0 0.5,0.2238 0.5,0.5c0,0.2761 -0.2239,0.5 -0.5,0.5c-0.2761,0 -0.5,-0.2239 -0.5,-0.5z" fill="#f5f5f5" stroke="none" stroke-width="0.5" stroke-linecap="butt"/><path d="M402.55899,87.01046c0,-0.2762 0.2239,-0.5 0.5,-0.5c0.2761,0 0.5,0.2238 0.5,0.5c0,0.2761 -0.2239,0.5 -0.5,0.5c-0.2761,0 -0.5,-0.2239 -0.5,-0.5z" fill="#f5f5f5" stroke="none" stroke-width="0.5" stroke-linecap="butt"/><path d="M181.55899,82.01046c0,-0.2762 0.2239,-0.5 0.5,-0.5c0.2761,0 0.5,0.2238 0.5,0.5c0,0.2761 -0.2239,0.5 -0.5,0.5c-0.2761,0 -0.5,-0.2239 -0.5,-0.5z" fill="#f5f5f5" stroke="none" stroke-width="0.5" stroke-linecap="butt"/><path d="M56.55899,251.01046c0,-0.2762 0.2239,-0.5 0.5,-0.5c0.2761,0 0.5,0.2238 0.5,0.5c0,0.2761 -0.2239,0.5 -0.5,0.5c-0.2761,0 -0.5,-0.2239 -0.5,-0.5z" fill="#f5f5f5" stroke="none" stroke-width="0.5" stroke-linecap="butt"/><path d="M126.55899,358.01046c0,-0.2762 0.2239,-0.5 0.5,-0.5c0.2761,0 0.5,0.2238 0.5,0.5c0,0.2761 -0.2239,0.5 -0.5,0.5c-0.2761,0 -0.5,-0.2239 -0.5,-0.5z" fill="#f5f5f5" stroke="none" stroke-width="0.5" stroke-linecap="butt"/><path d="M133.55899,192.01046c0,-0.2762 0.2239,-0.5 0.5,-0.5c0.2761,0 0.5,0.2238 0.5,0.5c0,0.2761 -0.2239,0.5 -0.5,0.5c-0.2761,0 -0.5,-0.2239 -0.5,-0.5z" fill="#f5f5f5" stroke="none" stroke-width="0.5" stroke-linecap="butt"/><path d="M311.55899,294.01046c0,-0.2762 0.2239,-0.5 0.5,-0.5c0.2761,0 0.5,0.2238 0.5,0.5c0,0.2761 -0.2239,0.5 -0.5,0.5c-0.2761,0 -0.5,-0.2239 -0.5,-0.5z" fill="#f5f5f5" stroke="none" stroke-width="0.5" stroke-linecap="butt"/><path d="M406.30899,137.01046c0,-0.4142 0.3358,-0.75 0.75,-0.75c0.4142,0 0.75,0.3358 0.75,0.75c0,0.4142 -0.3358,0.75 -0.75,0.75c-0.4142,0 -0.75,-0.3358 -0.75,-0.75z" fill="#f5f5f5" stroke="none" stroke-width="0.5" stroke-linecap="butt"/><path d="M271.30899,54.01046c0,-0.4142 0.3358,-0.75 0.75,-0.75c0.4142,0 0.75,0.3358 0.75,0.75c0,0.4142 -0.3358,0.75 -0.75,0.75c-0.4142,0 -0.75,-0.3358 -0.75,-0.75z" fill="#f5f5f5" stroke="none" stroke-width="0.5" stroke-linecap="butt"/><path d="M156.30899,328.01046c0,-0.4142 0.3358,-0.75 0.75,-0.75c0.4142,0 0.75,0.3358 0.75,0.75c0,0.4142 -0.3358,0.75 -0.75,0.75c-0.4142,0 -0.75,-0.3358 -0.75,-0.75z" fill="#f5f5f5" stroke="none" stroke-width="0.5" stroke-linecap="butt"/><path d="M410.80899,10.01046c0,-0.6904 0.5596,-1.25 1.25,-1.25c0.6904,0 1.25,0.5596 1.25,1.25c0,0.6903 -0.5596,1.25 -1.25,1.25c-0.6904,0 -1.25,-0.5597 -1.25,-1.25z" fill="#f5f5f5" stroke="none" stroke-width="0.5" stroke-linecap="butt"/><path d="M313.80899,229.01046c0,-0.6904 0.5596,-1.25 1.25,-1.25c0.6904,0 1.25,0.5596 1.25,1.25c0,0.6903 -0.5596,1.25 -1.25,1.25c-0.6904,0 -1.25,-0.5597 -1.25,-1.25z" fill="#f5f5f5" stroke="none" stroke-width="0.5" stroke-linecap="butt"/><path d="M39.80899,169.01046c0,-0.6904 0.5596,-1.25 1.25,-1.25c0.6904,0 1.25,0.5596 1.25,1.25c0,0.6903 -0.5596,1.25 -1.25,1.25c-0.6904,0 -1.25,-0.5597 -1.25,-1.25z" fill="#f5f5f5" stroke="none" stroke-width="0.5" stroke-linecap="butt"/><path d="M444.30899,276.01046c0,-0.9665 0.7835,-1.75 1.75,-1.75c0.9665,0 1.75,0.7835 1.75,1.75c0,0.9665 -0.7835,1.75 -1.75,1.75c-0.9665,0 -1.75,-0.7835 -1.75,-1.75z" fill="#f5f5f5" stroke="none" stroke-width="0.5" stroke-linecap="butt"/><path d="M63.30899,330.01046c0,-0.9665 0.7835,-1.75 1.75,-1.75c0.9665,0 1.75,0.7835 1.75,1.75c0,0.9665 -0.7835,1.75 -1.75,1.75c-0.9665,0 -1.75,-0.7835 -1.75,-1.75z" fill="#f5f5f5" stroke="none" stroke-width="0.5" stroke-linecap="butt"/><path d="M214.30899,98.01046c0,-0.9665 0.7835,-1.75 1.75,-1.75c0.9665,0 1.75,0.7835 1.75,1.75c0,0.9665 -0.7835,1.75 -1.75,1.75c-0.9665,0 -1.75,-0.7835 -1.75,-1.75z" fill="#f5f5f5" stroke="none" stroke-width="0.5" stroke-linecap="butt"/><path d="M127.55899,24.01046c0,-0.2762 0.2239,-0.5 0.5,-0.5c0.2761,0 0.5,0.2238 0.5,0.5c0,0.2761 -0.2239,0.5 -0.5,0.5c-0.2761,0 -0.5,-0.2239 -0.5,-0.5z" fill="#f5f5f5" stroke="none" stroke-width="0.5" stroke-linecap="butt"/><path d="M60.55899,86.01046c0,-0.2762 0.2239,-0.5 0.5,-0.5c0.2761,0 0.5,0.2238 0.5,0.5c0,0.2761 -0.2239,0.5 -0.5,0.5c-0.2761,0 -0.5,-0.2239 -0.5,-0.5z" fill="#f5f5f5" stroke="none" stroke-width="0.5" stroke-linecap="butt"/><path d="M20.05899,56.51043c0,-6.35128 5.14872,-11.5 11.5,-11.5c6.35128,0 11.5,5.14872 11.5,11.5c0,6.35128 -5.14872,11.5 -11.5,11.5c-6.35128,0 -11.5,-5.14872 -11.5,-11.5z" data-paper-data="{&quot;origPos&quot;:null}" fill="#7a0000" stroke="none" stroke-width="0" stroke-linecap="butt"/><path d="M-4.09304,320.50579c-0.07129,-0.57202 1.83809,-0.13803 1.72882,-0.69738c23.0679,-3.1818 71.03682,1.76946 96.33327,-0.02633c47.53424,-3.37445 98.43402,-22.56607 164.38603,-22.56607c47.52317,0 133.09251,11.14934 169.3277,16.36756c20.40677,2.93877 39.46549,1.15468 54.48172,0.28535c0.26571,0.87965 0.57858,1.73883 0.93567,2.5746c0.88678,14.97206 0.16698,33.69985 -0.01238,48.61866c-7.69988,0.70854 -12.90811,-1.47588 -20.6404,-1.43301c-34.11522,0.18916 -68.23154,-0.06328 -102.34723,0c-8.48922,0.01575 -17.24017,1.9311 -25.65277,2c-22.81774,0.18688 -45.63851,0.26196 -68.45551,0c-4.59831,-0.05279 -9.97483,-0.99722 -14.89172,-1c-52.11573,-0.02945 -104.23183,0.19078 -156.34723,0c-1.99803,-0.00731 -4.65694,-0.99123 -6.65277,-1c-53.86001,-0.23664 -92.37984,1.44097 -92.61634,1.4674c0.86628,-10.76355 3.65385,-30.46115 0.42312,-44.59078z" fill="#624a21" stroke="none" stroke-width="0" stroke-linecap="butt"/><g stroke="none" stroke-width="0" stroke-linecap="butt"><path d="M142.78533,322.00507c0,-14.78572 11.98619,-26.77191 26.77191,-26.77191c14.78572,0 26.77191,11.98619 26.77191,26.77191c0,14.78572 -11.98619,26.77191 -26.77191,26.77191c-14.78572,0 -26.77191,-11.98619 -26.77191,-26.77191z" fill="url(#color-2)"/><g><path d="M169.99687,331.07849v-8.4953h4.89614v8.4953z" fill="#a87999"/><path d="M163.64569,330.59988v-8.49529h4.89614v8.49529z" fill="#d47981"/><path d="M166.98387,331.73429v-8.68212h5.39831v8.68212z" fill="#b4888b"/><path d="M171.10141,321.7487c0,1.27237 -0.66742,1.49071 -1.49071,1.49071c-0.8233,0 -1.51851,-0.21864 -1.49071,-1.49071c0.06776,-3.10188 2.77815,-3.5235 2.77815,-3.5235c0,0 -0.65114,1.04337 -0.59099,2.11095c0.0282,0.50055 0.79427,1.00642 0.79427,1.41256z" data-paper-data="{&quot;index&quot;:null}" fill="#ffb500"/><path d="M167.25518,320.97148c0,1.11762 -0.58625,1.30941 -1.30941,1.30941c-0.72316,0 -1.33383,-0.19205 -1.30942,-1.30941c0.05952,-2.72463 2.44026,-3.09498 2.44026,-3.09498c0,0 -0.57194,0.91647 -0.51911,1.85421c0.02477,0.43967 0.69767,0.88402 0.69767,1.24077z" data-paper-data="{&quot;index&quot;:null}" fill="#ffb500"/><path d="M173.9777,321.51653c0,1.04885 -0.55017,1.22883 -1.22884,1.22883c-0.67866,0 -1.25173,-0.18023 -1.22883,-1.22883c0.05586,-2.55696 2.29009,-2.90452 2.29009,-2.90452c0,0 -0.53674,0.86007 -0.48716,1.7401c0.02325,0.41262 0.65473,0.82962 0.65473,1.16442z" data-paper-data="{&quot;index&quot;:null}" fill="#ffb500"/></g></g><g stroke="none" stroke-width="0" stroke-linecap="butt"><path d="M294.78533,308.00507c0,-14.78572 11.98619,-26.77191 26.77191,-26.77191c14.78572,0 26.77191,11.98619 26.77191,26.77191c0,14.78572 -11.98619,26.77191 -26.77191,26.77191c-14.78572,0 -26.77191,-11.98619 -26.77191,-26.77191z" fill="url(#color-3)"/><g><path d="M321.99687,317.07849v-8.4953h4.89614v8.4953z" fill="#a87999"/><path d="M315.64569,316.59988v-8.49529h4.89614v8.49529z" fill="#d47981"/><path d="M318.98387,317.73429v-8.68212h5.39831v8.68212z" fill="#b4888b"/><path d="M323.10141,307.7487c0,1.27237 -0.66742,1.49071 -1.49071,1.49071c-0.8233,0 -1.51851,-0.21864 -1.49071,-1.49071c0.06776,-3.10188 2.77815,-3.5235 2.77815,-3.5235c0,0 -0.65114,1.04337 -0.59099,2.11095c0.0282,0.50055 0.79427,1.00642 0.79427,1.41256z" data-paper-data="{&quot;index&quot;:null}" fill="#ffb500"/><path d="M319.25518,306.97148c0,1.11762 -0.58625,1.30941 -1.30941,1.30941c-0.72316,0 -1.33383,-0.19205 -1.30942,-1.30941c0.05952,-2.72463 2.44026,-3.09498 2.44026,-3.09498c0,0 -0.57194,0.91647 -0.51911,1.85421c0.02477,0.43967 0.69767,0.88402 0.69767,1.24077z" data-paper-data="{&quot;index&quot;:null}" fill="#ffb500"/><path d="M325.9777,307.51653c0,1.04885 -0.55017,1.22883 -1.22884,1.22883c-0.67866,0 -1.25173,-0.18023 -1.22883,-1.22883c0.05586,-2.55696 2.29009,-2.90452 2.29009,-2.90452c0,0 -0.53674,0.86007 -0.48716,1.7401c0.02325,0.41262 0.65473,0.82962 0.65473,1.16442z" data-paper-data="{&quot;index&quot;:null}" fill="#ffb500"/></g></g><g data-paper-data="{&quot;index&quot;:null}" stroke="none" stroke-width="0" stroke-linecap="butt"><path d="M76.59056,228.77764c5.57743,-1.99632 8.26954,10.90469 8.26954,10.90469l-3.92209,-3.24938l-3.15694,1.1076l-1.33042,4.9053c0,0 -5.39926,-11.68556 0.13991,-13.6682z" fill="#171717"/><path d="M76.97179,234.78413c0.28141,-0.52137 0.93218,-0.71591 1.45356,-0.43452c0.52137,0.2814 0.01608,0.63519 -0.26532,1.15657c-0.28141,0.52137 -0.23234,1.01289 -0.75372,0.7315c-0.52137,-0.28141 -0.71591,-0.93218 -0.43452,-1.45356z" fill="#cbba00"/><path d="M81.39063,233.45583c0.53582,0.25283 0.76523,0.89215 0.5124,1.42796c-0.25283,0.53582 -0.5049,0.11101 -1.04071,-0.14181c-0.53582,-0.25283 -1.15248,-0.23793 -0.89966,-0.77375c0.25283,-0.53582 0.89215,-0.76523 1.42796,-0.5124z" data-paper-data="{&quot;index&quot;:null}" fill="#cbba00"/><path d="M64.91744,239.60516c-0.84269,-1.36641 -0.60105,-2.92052 -0.60105,-2.92052c0,0 1.57727,1.0413 2.30666,0.64419c0.7294,-0.3971 0.14083,-1.96662 0.14083,-1.96662c0,0 1.53088,0.91545 2.15085,0.41897c0.61999,-0.49649 0.2316,-1.77039 0.2316,-1.77039c0,0 1.2048,0.90942 1.88988,0.3726c0.68509,-0.53682 0.30183,-2.03857 0.30183,-2.03857c0,0 1.22307,0.70868 1.73461,0.92256c0.4023,0.16821 1.08639,0.25694 1.08639,0.25694l1.19459,1.61157c0,0 -4.53058,4.8676 -6.47325,5.73238c-1.80583,0.80387 -3.38143,-0.32015 -3.96296,-1.26309z" fill="#171717"/><path d="M91.04956,227.22567c0,0 1.11262,1.30449 1.22255,2.54995c0.09741,1.10355 -0.27319,3.1291 -2.18692,3.62395c-2.05874,0.53236 -8.63445,-0.45738 -8.63445,-0.45738l-0.06811,-2.00489c0,0 0.4802,-0.49524 0.69038,-0.8773c0.26724,-0.48579 0.78339,-1.80172 0.78339,-1.80172c0,0 0.63478,1.41391 1.50512,1.40765c0.87033,-0.00627 1.24352,-1.52666 1.24352,-1.52666c0,0 0.48895,1.2388 1.28322,1.24149c0.79429,0.00268 1.42263,-1.66669 1.42263,-1.66669c0,0 0.51627,1.59476 1.33432,1.45156c0.81805,-0.1432 1.40439,-1.93995 1.40439,-1.93995z" data-paper-data="{&quot;index&quot;:null}" fill="#171717"/></g><g data-paper-data="{&quot;index&quot;:null}" stroke="none" stroke-width="0" stroke-linecap="butt"><path d="M27.49494,237.57085l-1.33042,-4.9053l-3.15695,-1.1076l-3.92209,3.24939c0,0 2.69211,-12.90102 8.26954,-10.90469c5.53918,1.98264 0.13991,13.6682 0.13991,13.6682z" fill="#171717"/><path d="M26.97379,229.90912c0.2814,0.52138 0.08685,1.17215 -0.43452,1.45355c-0.52138,0.2814 -0.47231,-0.21013 -0.75372,-0.7315c-0.2814,-0.52138 -0.78669,-0.87517 -0.26532,-1.15657c0.52138,-0.2814 1.17215,-0.08685 1.45356,0.43452z" fill="#cbba00"/><path d="M23.98292,229.09324c0.25283,0.53582 -0.36383,0.52092 -0.89965,0.77374c-0.53581,0.25283 -0.78789,0.67764 -1.04071,0.14182c-0.25283,-0.53582 -0.02341,-1.17514 0.51241,-1.42796c0.53581,-0.25283 1.17513,-0.02342 1.42796,0.5124z" data-paper-data="{&quot;index&quot;:null}" fill="#cbba00"/><path d="M39.02814,234.73017c-0.58152,0.94294 -2.15712,2.06696 -3.96295,1.26309c-1.94267,-0.86478 -6.47325,-5.73238 -6.47325,-5.73238l1.1946,-1.61157c0,0 0.68409,-0.08873 1.08639,-0.25693c0.51154,-0.21388 1.73461,-0.92256 1.73461,-0.92256c0,0 -0.38326,1.50175 0.30183,2.03857c0.68509,0.53682 1.88989,-0.3726 1.88989,-0.3726c0,0 -0.38838,1.2739 0.2316,1.77039c0.61997,0.49649 2.15085,-0.41896 2.15085,-0.41896c0,0 -0.58857,1.56952 0.14083,1.96662c0.72939,0.39711 2.30666,-0.64419 2.30666,-0.64419c0,0 0.24164,1.5541 -0.60105,2.92051z" fill="#171717"/><path d="M12.89597,222.35067c0,0 0.58635,1.79674 1.4044,1.93994c0.81805,0.1432 1.33432,-1.45157 1.33432,-1.45157c0,0 0.62835,1.66938 1.42263,1.6667c0.79428,-0.00269 1.28322,-1.24149 1.28322,-1.24149c0,0 0.37319,1.52039 1.24352,1.52666c0.87033,0.00627 1.50512,-1.40765 1.50512,-1.40765c0,0 0.51615,1.31593 0.78338,1.80173c0.21018,0.38206 0.69038,0.8773 0.69038,0.8773l-0.06811,2.0049c0,0 -6.57571,0.98973 -8.63445,0.45738c-1.91373,-0.49485 -2.28433,-2.5204 -2.18692,-3.62394c0.10993,-1.24546 1.22255,-2.54995 1.22255,-2.54995z" data-paper-data="{&quot;index&quot;:null}" fill="#171717"/></g><path d="M61.70064,321.78171c-1.74496,0.57619 -3.50749,3.65349 -3.50749,3.65349c0,0 -5.17473,-1.95468 -7.47382,-1.92971c-2.6209,0.02846 -7.41299,2.09134 -7.41299,2.09134c0,0 -1.26567,-2.05246 -2.42798,-2.59238c-1.20299,-0.55882 -4.67214,-0.7058 -4.67214,-0.7058c0,0 1.28581,-1.05337 1.69182,-4.59271c1.59085,-13.86821 4.02694,-51.55071 -0.65562,-76.91397c-2.73458,-14.81194 -20.45655,-25.01195 -20.45655,-25.01195l23.92036,5.01864l-8.06084,-21.15941c0,0 17.7716,16.81962 19.13036,15.65651c10.94752,-9.37118 30.93048,-28.4971 30.93048,-28.4971l-21,34c0,0 -1.37686,10.00162 0.49962,10.00304c4.45756,0.00339 26.06963,-9.98285 26.06963,-9.98285c0,0 -27.22247,18.11638 -26.85973,23.00138c1.09452,14.73959 4.47895,57.31439 6.1443,72.94072c0.4025,3.77673 1.64617,5.03771 1.64617,5.03771c0,0 -5.59463,-0.64794 -7.50559,-0.01693z" data-paper-data="{&quot;index&quot;:null}" fill="#382f24" stroke="none" stroke-width="0" stroke-linecap="butt"/><path d="M239.99999,0.00006c0,0 0,42.6848 0,70.0052c0,81.9613 0,325.9948 0,325.9948" data-paper-data="{&quot;origPos&quot;:null}" fill="none" stroke="#000000" stroke-width="3" stroke-linecap="round"/><path d="M32.99999,55.00006l18,-9v19.3846z" data-paper-data="{&quot;origPos&quot;:null,&quot;index&quot;:null}" fill="#424242" stroke="#424242" stroke-width="5" stroke-linecap="butt"/><g data-paper-data="{&quot;origPos&quot;:null}" stroke-linecap="butt"><path d="M32.99999,96.40666v-20h20v20z" data-paper-data="{&quot;origPos&quot;:null}" fill="#ffffff" stroke="#000000" stroke-width="2.5"/><text transform="translate(35.05129,92.82153) scale(0.52271,0.52271)" font-size="40" xml:space="preserve" data-paper-data="{&quot;origPos&quot;:null}" fill="#000000" fill-rule="nonzero" stroke="none" stroke-width="1" stroke-linecap="butt" stroke-linejoin="miter" stroke-miterlimit="10" stroke-dasharray="" stroke-dashoffset="0" font-family="Serif" font-weight="normal" text-anchor="start" style="mix-blend-mode: normal"><tspan x="0" dy="0">A</tspan></text></g><path d="M167.99999,95.74006v-20h20v20z" data-paper-data="{&quot;origPos&quot;:null}" fill="#ffffff" stroke="#000000" stroke-width="2.5" stroke-linecap="butt"/><text transform="translate(170.05129,92.15487) scale(0.52271,0.52271)" font-size="40" xml:space="preserve" data-paper-data="{&quot;origPos&quot;:null}" fill="#000000" fill-rule="nonzero" stroke="none" stroke-width="1" stroke-linecap="butt" stroke-linejoin="miter" stroke-miterlimit="10" stroke-dasharray="" stroke-dashoffset="0" font-family="Serif" font-weight="normal" text-anchor="start" style="mix-blend-mode: normal"><tspan x="0" dy="0">D</tspan></text><g data-paper-data="{&quot;origPos&quot;:null}" stroke="none" stroke-linecap="butt"><path d="M8.33334,341.27997c0,-8.59191 6.96512,-15.55703 15.55703,-15.55703c8.59191,0 15.55703,6.96512 15.55703,15.55703c0,8.59191 -6.96512,15.55703 -15.55703,15.55703c-8.59191,0 -15.55703,-6.96512 -15.55703,-15.55703z" data-paper-data="{&quot;origPos&quot;:null}" fill="#bbb54b" stroke-width="NaN"/><path d="M11.23732,341.48741c0,-8.70647 7.05799,-15.76445 15.76446,-15.76445c8.70647,0 15.76446,7.05799 15.76446,15.76445c0,8.70647 -7.05799,15.76446 -15.76446,15.76446c-8.70647,0 -15.76445,-7.05799 -15.76445,-15.76446z" data-paper-data="{&quot;origPos&quot;:null}" fill="#fff766" stroke-width="NaN"/><text transform="translate(18.28984,350.19933) scale(0.62228,0.62228)" font-size="40" xml:space="preserve" data-paper-data="{&quot;origPos&quot;:null}" fill="#bbb54b" fill-rule="nonzero" stroke="none" stroke-width="1" stroke-linecap="butt" stroke-linejoin="miter" stroke-miterlimit="10" stroke-dasharray="" stroke-dashoffset="0" font-family="Sans Serif" font-weight="normal" text-anchor="start" style="mix-blend-mode: normal"><tspan x="0" dy="0">C</tspan></text></g><g data-paper-data="{&quot;origPos&quot;:null}" stroke="none" stroke-linecap="butt"><path d="M253.33334,339.27998c0,-8.59192 6.96512,-15.55703 15.55704,-15.55703c8.59191,0 15.55703,6.96512 15.55703,15.55703c0,8.59192 -6.96512,15.55703 -15.55703,15.55703c-8.59191,0 -15.55704,-6.96511 -15.55704,-15.55703z" data-paper-data="{&quot;origPos&quot;:null}" fill="#bbb54b" stroke-width="NaN"/><path d="M256.23731,339.48741c0,-8.70648 7.05799,-15.76445 15.76446,-15.76445c8.70648,0 15.76447,7.05799 15.76447,15.76445c0,8.70648 -7.05799,15.76447 -15.76447,15.76447c-8.70648,0 -15.76445,-7.05799 -15.76445,-15.76447z" data-paper-data="{&quot;origPos&quot;:null}" fill="#fff766" stroke-width="NaN"/><text transform="translate(263.28984,348.19935) scale(0.62228,0.62228)" font-size="40" xml:space="preserve" data-paper-data="{&quot;origPos&quot;:null}" fill="#bbb54b" fill-rule="nonzero" stroke="none" stroke-width="1" stroke-linecap="butt" stroke-linejoin="miter" stroke-miterlimit="10" stroke-dasharray="" stroke-dashoffset="0" font-family="Sans Serif" font-weight="normal" text-anchor="start" style="mix-blend-mode: normal"><tspan x="0" dy="0">C</tspan></text></g><path d="M168.99999,63.38466v-19.3846l18,9z" data-paper-data="{&quot;origPos&quot;:null,&quot;index&quot;:null}" fill="#424242" stroke="#424242" stroke-width="5" stroke-linecap="butt"/><path d="M277.99999,55.00006l18,-9v19.3846z" data-paper-data="{&quot;origPos&quot;:null,&quot;index&quot;:null}" fill="#424242" stroke="#424242" stroke-width="5" stroke-linecap="butt"/><path d="M277.99999,96.40666v-20h20v20z" data-paper-data="{&quot;origPos&quot;:null}" fill="#ffffff" stroke="#000000" stroke-width="2.5" stroke-linecap="butt"/><text transform="translate(281.71796,93.2382) scale(0.52271,0.52271)" font-size="40" xml:space="preserve" data-paper-data="{&quot;origPos&quot;:null}" fill="#000000" fill-rule="nonzero" stroke="#000000" stroke-width="2" stroke-linecap="butt" stroke-linejoin="miter" stroke-miterlimit="10" stroke-dasharray="" stroke-dashoffset="0" font-family="Serif" font-weight="normal" text-anchor="start" style="mix-blend-mode: normal"><tspan x="0" dy="0">&lt;</tspan></text><path d="M413.99999,94.40666v-20h20v20z" data-paper-data="{&quot;origPos&quot;:null}" fill="#ffffff" stroke="#000000" stroke-width="2.5" stroke-linecap="butt"/><text transform="translate(418.30129,91.07153) scale(0.52271,0.52271)" font-size="40" xml:space="preserve" data-paper-data="{&quot;origPos&quot;:null}" fill="#000000" fill-rule="nonzero" stroke="#000000" stroke-width="2" stroke-linecap="butt" stroke-linejoin="miter" stroke-miterlimit="10" stroke-dasharray="" stroke-dashoffset="0" font-family="Serif" font-weight="normal" text-anchor="start" style="mix-blend-mode: normal"><tspan x="0" dy="0">&gt;</tspan></text><path d="M414.99999,62.38466v-19.3846l18,9z" data-paper-data="{&quot;origPos&quot;:null,&quot;index&quot;:null}" fill="#424242" stroke="#424242" stroke-width="5" stroke-linecap="butt"/><path d="M306.99999,174.00006v-133h97.6456v133z" data-paper-data="{&quot;origPos&quot;:null}" fill="#ffffff" stroke="#000000" stroke-width="1.5" stroke-linecap="butt"/><g data-paper-data="{&quot;origPos&quot;:null}" stroke="none" stroke-linecap="butt"><g data-paper-data="{&quot;origPos&quot;:null}"><path d="M8.33334,248.35856c0,-5.40478 4.38144,-9.78622 9.78622,-9.78622c5.40478,0 9.78622,4.38144 9.78622,9.78622c0,5.40478 -4.38144,9.78622 -9.78622,9.78622c-5.40478,0 -9.78622,-4.38144 -9.78622,-9.78622z" data-paper-data="{&quot;origPos&quot;:null}" fill="#bbb54b" stroke-width="NaN"/><path d="M10.1601,248.48904c0,-5.47685 4.43986,-9.9167 9.91671,-9.9167c5.47685,0 9.91671,4.43986 9.91671,9.9167c0,5.47685 -4.43986,9.91671 -9.91671,9.91671c-5.47685,0 -9.9167,-4.43986 -9.9167,-9.91671z" data-paper-data="{&quot;origPos&quot;:null}" fill="#fff766" stroke-width="NaN"/><text transform="translate(14.59652,253.96933) scale(0.39145,0.39145)" font-size="40" xml:space="preserve" data-paper-data="{&quot;origPos&quot;:null}" fill="#bbb54b" fill-rule="nonzero" stroke="none" stroke-width="1" stroke-linecap="butt" stroke-linejoin="miter" stroke-miterlimit="10" stroke-dasharray="" stroke-dashoffset="0" font-family="Sans Serif" font-weight="normal" text-anchor="start" style="mix-blend-mode: normal"><tspan x="0" dy="0">C</tspan></text></g><text transform="translate(36,255.00004) scale(0.5,0.5)" font-size="40" xml:space="preserve" data-paper-data="{&quot;origPos&quot;:null}" fill="#fffe66" fill-rule="nonzero" stroke="none" stroke-width="1" stroke-linecap="butt" stroke-linejoin="miter" stroke-miterlimit="10" stroke-dasharray="" stroke-dashoffset="0" font-family="Sans Serif" font-weight="normal" text-anchor="start" style="mix-blend-mode: normal"><tspan x="0" dy="0">75</tspan></text></g><g data-paper-data="{&quot;origPos&quot;:null}" stroke="none" stroke-linecap="butt"><g data-paper-data="{&quot;origPos&quot;:null}"><path d="M79.33334,246.85856c0,-5.40478 4.38145,-9.78622 9.78623,-9.78622c5.40478,0 9.78622,4.38144 9.78622,9.78622c0,5.40478 -4.38144,9.78623 -9.78622,9.78623c-5.40478,0 -9.78623,-4.38145 -9.78623,-9.78623z" data-paper-data="{&quot;origPos&quot;:null}" fill="#bbb54b" stroke-width="NaN"/><path d="M81.1601,246.98904c0,-5.47685 4.43986,-9.91671 9.91671,-9.91671c5.47685,0 9.9167,4.43986 9.9167,9.91671c0,5.47685 -4.43985,9.9167 -9.9167,9.9167c-5.47685,0 -9.9167,-4.43986 -9.9167,-9.9167z" data-paper-data="{&quot;origPos&quot;:null}" fill="#fff766" stroke-width="NaN"/><text transform="translate(85.59653,252.46933) scale(0.39145,0.39145)" font-size="40" xml:space="preserve" data-paper-data="{&quot;origPos&quot;:null}" fill="#bbb54b" fill-rule="nonzero" stroke="none" stroke-width="1" stroke-linecap="butt" stroke-linejoin="miter" stroke-miterlimit="10" stroke-dasharray="" stroke-dashoffset="0" font-family="Sans Serif" font-weight="normal" text-anchor="start" style="mix-blend-mode: normal"><tspan x="0" dy="0">C</tspan></text></g><text transform="translate(107,253.50004) scale(0.5,0.5)" font-size="40" xml:space="preserve" data-paper-data="{&quot;origPos&quot;:null}" fill="#fffe66" fill-rule="nonzero" stroke="none" stroke-width="1" stroke-linecap="butt" stroke-linejoin="miter" stroke-miterlimit="10" stroke-dasharray="" stroke-dashoffset="0" font-family="Sans Serif" font-weight="normal" text-anchor="start" style="mix-blend-mode: normal"><tspan x="0" dy="0">175</tspan></text></g><g data-paper-data="{&quot;origPos&quot;:null}" stroke="none" stroke-linecap="butt"><g data-paper-data="{&quot;origPos&quot;:null}"><path d="M160.83334,246.85856c0,-5.40478 4.38144,-9.78622 9.78622,-9.78622c5.40478,0 9.78622,4.38144 9.78622,9.78622c0,5.40478 -4.38144,9.78623 -9.78622,9.78623c-5.40478,0 -9.78622,-4.38145 -9.78622,-9.78623z" data-paper-data="{&quot;origPos&quot;:null}" fill="#bbb54b" stroke-width="NaN"/><path d="M162.6601,246.98904c0,-5.47685 4.43986,-9.91671 9.91671,-9.91671c5.47685,0 9.91671,4.43986 9.91671,9.91671c0,5.47685 -4.43986,9.91671 -9.91671,9.91671c-5.47685,0 -9.91671,-4.43985 -9.91671,-9.91671z" data-paper-data="{&quot;origPos&quot;:null}" fill="#fff766" stroke-width="NaN"/><text transform="translate(167.09652,252.46933) scale(0.39145,0.39145)" font-size="40" xml:space="preserve" data-paper-data="{&quot;origPos&quot;:null}" fill="#bbb54b" fill-rule="nonzero" stroke="none" stroke-width="1" stroke-linecap="butt" stroke-linejoin="miter" stroke-miterlimit="10" stroke-dasharray="" stroke-dashoffset="0" font-family="Sans Serif" font-weight="normal" text-anchor="start" style="mix-blend-mode: normal"><tspan x="0" dy="0">C</tspan></text></g><text transform="translate(188.5,253.50004) scale(0.5,0.5)" font-size="40" xml:space="preserve" data-paper-data="{&quot;origPos&quot;:null}" fill="#fffe66" fill-rule="nonzero" stroke="none" stroke-width="1" stroke-linecap="butt" stroke-linejoin="miter" stroke-miterlimit="10" stroke-dasharray="" stroke-dashoffset="0" font-family="Sans Serif" font-weight="normal" text-anchor="start" style="mix-blend-mode: normal"><tspan x="0" dy="0">250</tspan></text></g><g data-paper-data="{&quot;origPos&quot;:null}" stroke="none" stroke-linecap="butt"><g data-paper-data="{&quot;origPos&quot;:null}"><path d="M253.33334,247.35856c0,-5.40478 4.38144,-9.78622 9.78623,-9.78622c5.40478,0 9.78622,4.38144 9.78622,9.78622c0,5.40478 -4.38144,9.78623 -9.78622,9.78623c-5.40478,0 -9.78623,-4.38145 -9.78623,-9.78623z" data-paper-data="{&quot;origPos&quot;:null}" fill="#bbb54b" stroke-width="NaN"/><path d="M255.1601,247.48904c0,-5.47685 4.43986,-9.91671 9.91671,-9.91671c5.47685,0 9.9167,4.43986 9.9167,9.91671c0,5.47685 -4.43985,9.91671 -9.9167,9.91671c-5.47685,0 -9.9167,-4.43985 -9.9167,-9.91671z" data-paper-data="{&quot;origPos&quot;:null}" fill="#fff766" stroke-width="NaN"/><text transform="translate(259.59653,252.96933) scale(0.39145,0.39145)" font-size="40" xml:space="preserve" data-paper-data="{&quot;origPos&quot;:null}" fill="#bbb54b" fill-rule="nonzero" stroke="none" stroke-width="1" stroke-linecap="butt" stroke-linejoin="miter" stroke-miterlimit="10" stroke-dasharray="" stroke-dashoffset="0" font-family="Sans Serif" font-weight="normal" text-anchor="start" style="mix-blend-mode: normal"><tspan x="0" dy="0">C</tspan></text></g><text transform="translate(281,254.00004) scale(0.5,0.5)" font-size="40" xml:space="preserve" data-paper-data="{&quot;origPos&quot;:null}" fill="#fffe66" fill-rule="nonzero" stroke="none" stroke-width="1" stroke-linecap="butt" stroke-linejoin="miter" stroke-miterlimit="10" stroke-dasharray="" stroke-dashoffset="0" font-family="Sans Serif" font-weight="normal" text-anchor="start" style="mix-blend-mode: normal"><tspan x="0" dy="0">75</tspan></text></g><g data-paper-data="{&quot;origPos&quot;:null}" stroke="none" stroke-linecap="butt"><g data-paper-data="{&quot;origPos&quot;:null}"><path d="M324.33334,245.85856c0,-5.40478 4.38144,-9.78622 9.78622,-9.78622c5.40478,0 9.78622,4.38144 9.78622,9.78622c0,5.40478 -4.38144,9.78623 -9.78622,9.78623c-5.40478,0 -9.78622,-4.38145 -9.78622,-9.78623z" data-paper-data="{&quot;origPos&quot;:null}" fill="#bbb54b" stroke-width="NaN"/><path d="M326.1601,245.98904c0,-5.47685 4.43986,-9.91671 9.91671,-9.91671c5.47685,0 9.9167,4.43986 9.9167,9.91671c0,5.47685 -4.43986,9.91671 -9.9167,9.91671c-5.47685,0 -9.91671,-4.43985 -9.91671,-9.91671z" data-paper-data="{&quot;origPos&quot;:null}" fill="#fff766" stroke-width="NaN"/><text transform="translate(330.59653,251.46933) scale(0.39145,0.39145)" font-size="40" xml:space="preserve" data-paper-data="{&quot;origPos&quot;:null}" fill="#bbb54b" fill-rule="nonzero" stroke="none" stroke-width="1" stroke-linecap="butt" stroke-linejoin="miter" stroke-miterlimit="10" stroke-dasharray="" stroke-dashoffset="0" font-family="Sans Serif" font-weight="normal" text-anchor="start" style="mix-blend-mode: normal"><tspan x="0" dy="0">C</tspan></text></g><text transform="translate(352,252.50004) scale(0.5,0.5)" font-size="40" xml:space="preserve" data-paper-data="{&quot;origPos&quot;:null}" fill="#fffe66" fill-rule="nonzero" stroke="none" stroke-width="1" stroke-linecap="butt" stroke-linejoin="miter" stroke-miterlimit="10" stroke-dasharray="" stroke-dashoffset="0" font-family="Sans Serif" font-weight="normal" text-anchor="start" style="mix-blend-mode: normal"><tspan x="0" dy="0">175</tspan></text></g><g data-paper-data="{&quot;origPos&quot;:null}" stroke="none" stroke-linecap="butt"><g data-paper-data="{&quot;origPos&quot;:null}"><path d="M405.83334,245.85856c0,-5.40478 4.38144,-9.78622 9.78622,-9.78622c5.40478,0 9.78622,4.38144 9.78622,9.78622c0,5.40478 -4.38144,9.78623 -9.78622,9.78623c-5.40478,0 -9.78622,-4.38145 -9.78622,-9.78623z" data-paper-data="{&quot;origPos&quot;:null}" fill="#bbb54b" stroke-width="NaN"/><path d="M407.6601,245.98904c0,-5.47685 4.43986,-9.91671 9.91671,-9.91671c5.47685,0 9.9167,4.43986 9.9167,9.91671c0,5.47685 -4.43985,9.91671 -9.9167,9.91671c-5.47685,0 -9.91671,-4.43985 -9.91671,-9.91671z" data-paper-data="{&quot;origPos&quot;:null}" fill="#fff766" stroke-width="NaN"/><text transform="translate(412.09653,251.46933) scale(0.39145,0.39145)" font-size="40" xml:space="preserve" data-paper-data="{&quot;origPos&quot;:null}" fill="#bbb54b" fill-rule="nonzero" stroke="none" stroke-width="1" stroke-linecap="butt" stroke-linejoin="miter" stroke-miterlimit="10" stroke-dasharray="" stroke-dashoffset="0" font-family="Sans Serif" font-weight="normal" text-anchor="start" style="mix-blend-mode: normal"><tspan x="0" dy="0">C</tspan></text></g><text transform="translate(433.5,252.50004) scale(0.5,0.5)" font-size="40" xml:space="preserve" data-paper-data="{&quot;origPos&quot;:null}" fill="#fffe66" fill-rule="nonzero" stroke="none" stroke-width="1" stroke-linecap="butt" stroke-linejoin="miter" stroke-miterlimit="10" stroke-dasharray="" stroke-dashoffset="0" font-family="Sans Serif" font-weight="normal" text-anchor="start" style="mix-blend-mode: normal"><tspan x="0" dy="0">250</tspan></text></g><path d="M60.99999,174.00006v-133h97.6456v133z" data-paper-data="{&quot;origPos&quot;:null}" fill="#ffffff" stroke="#000000" stroke-width="1.5" stroke-linecap="butt"/><g stroke="none" stroke-width="0" stroke-linecap="butt"><path d="M32.78533,27.75508c0,-22.37964 18.14227,-40.52191 40.52191,-40.52191c22.37964,0 40.52191,18.14227 40.52191,40.52191c0,22.37964 -18.14227,40.52191 -40.52191,40.52191c-22.37964,0 -40.52191,-18.14227 -40.52191,-40.52191z" fill="url(#color-4)"/><g><path d="M73.97266,41.48863v-12.85847h7.41079v12.85847z" fill="#a87999"/><path d="M64.35953,40.76421v-12.85845h7.41079v12.85845z" fill="#d47981"/><path d="M69.41219,42.48119v-13.14124h8.17087v13.14124z" fill="#b4888b"/><path d="M75.64449,27.36702c0,1.92586 -1.01021,2.25634 -2.25634,2.25634c-1.24615,0 -2.29841,-0.33093 -2.25634,-2.25634c0.10256,-4.695 4.205,-5.33316 4.205,-5.33316c0,0 -0.98556,1.57924 -0.89452,3.19513c0.04268,0.75763 1.20221,1.52332 1.20221,2.13805z" data-paper-data="{&quot;index&quot;:null}" fill="#ffb500"/><path d="M69.82285,26.19065c0,1.69163 -0.88735,1.98192 -1.98192,1.98192c-1.09457,0 -2.01888,-0.29069 -1.98194,-1.98192c0.09009,-4.12399 3.69357,-4.68456 3.69357,-4.68456c0,0 -0.86569,1.38717 -0.78572,2.80653c0.03749,0.66548 1.05599,1.33805 1.05599,1.87803z" data-paper-data="{&quot;index&quot;:null}" fill="#ffb500"/><path d="M79.99804,27.01561c0,1.58754 -0.83274,1.85995 -1.85997,1.85995c-1.02722,0 -1.89462,-0.2728 -1.85995,-1.85995c0.08455,-3.87021 3.46628,-4.39628 3.46628,-4.39628c0,0 -0.81241,1.3018 -0.73736,2.63381c0.03519,0.62454 0.991,1.25571 0.991,1.76246z" data-paper-data="{&quot;index&quot;:null}" fill="#ffb500"/></g></g><text transform="translate(69.00001,16.4167) scale(0.43242,0.43242)" font-size="40" xml:space="preserve" data-paper-data="{&quot;origPos&quot;:null}" fill="#ffea00" fill-rule="nonzero" stroke="none" stroke-width="1" stroke-linecap="butt" stroke-linejoin="miter" stroke-miterlimit="10" stroke-dasharray="" stroke-dashoffset="0" font-family="Serif" font-weight="normal" text-anchor="start" style="mix-blend-mode: normal"><tspan x="0" dy="0">PLAYER 1</tspan></text><g stroke="none" stroke-width="0" stroke-linecap="butt"><path d="M329.78533,27.75508c0,-22.37964 18.14228,-40.52191 40.52191,-40.52191c22.37963,0 40.52191,18.14227 40.52191,40.52191c0,22.37964 -18.14228,40.52191 -40.52191,40.52191c-22.37964,0 -40.52191,-18.14227 -40.52191,-40.52191z" fill="url(#color-5)"/><g><path d="M370.97267,41.48863v-12.85847h7.41078v12.85847z" fill="#a87999"/><path d="M361.35953,40.76421v-12.85845h7.41079v12.85845z" fill="#d47981"/><path d="M366.41219,42.48119v-13.14124h8.17087v13.14124z" fill="#b4888b"/><path d="M372.6445,27.36702c0,1.92586 -1.01021,2.25634 -2.25634,2.25634c-1.24615,0 -2.29841,-0.33093 -2.25634,-2.25634c0.10256,-4.695 4.20501,-5.33317 4.20501,-5.33317c0,0 -0.98557,1.57925 -0.89453,3.19513c0.04269,0.75763 1.20221,1.52331 1.20221,2.13805z" data-paper-data="{&quot;index&quot;:null}" fill="#ffb500"/><path d="M366.82285,26.19065c0,1.69162 -0.88735,1.98192 -1.98192,1.98192c-1.09457,0 -2.01888,-0.29069 -1.98194,-1.98192c0.09009,-4.124 3.69358,-4.68456 3.69358,-4.68456c0,0 -0.86569,1.38717 -0.78572,2.80653c0.03749,0.66549 1.05599,1.33805 1.05599,1.87803z" data-paper-data="{&quot;index&quot;:null}" fill="#ffb500"/><path d="M376.99804,27.0156c0,1.58754 -0.83273,1.85996 -1.85997,1.85996c-1.02722,0 -1.89462,-0.2728 -1.85996,-1.85996c0.08455,-3.87021 3.46627,-4.39628 3.46627,-4.39628c0,0 -0.81241,1.30181 -0.73736,2.63381c0.03519,0.62454 0.991,1.25571 0.991,1.76246z" data-paper-data="{&quot;index&quot;:null}" fill="#ffb500"/></g></g><text transform="translate(315.00001,18.5417) scale(0.43589,0.43589)" font-size="40" xml:space="preserve" data-paper-data="{&quot;origPos&quot;:null}" fill="#ffea00" fill-rule="nonzero" stroke="none" stroke-width="1" stroke-linecap="butt" stroke-linejoin="miter" stroke-miterlimit="10" stroke-dasharray="" stroke-dashoffset="0" font-family="Serif" font-weight="normal" text-anchor="start" style="mix-blend-mode: normal"><tspan x="0" dy="0">PLAYER 2</tspan></text><g><path d="M251.85513,300.79864c0,0 1.24367,-1.26097 1.64617,-5.03771c1.66536,-15.62633 5.04978,-58.20113 6.14431,-72.94072c0.36275,-4.885 -26.85973,-23.00138 -26.85973,-23.00138c0,0 21.61208,9.98624 26.06964,9.98285c1.87648,-0.00143 0.49962,-10.00304 0.49962,-10.00304l-21,-34c0,0 19.98297,19.12592 30.93048,28.4971c1.35876,1.16311 19.13036,-15.65651 19.13036,-15.65651l-8.06084,21.15941l23.92036,-5.01864c0,0 -17.72197,10.20001 -20.45655,25.01195c-4.68256,25.36327 -2.24647,63.04576 -0.65563,76.91397c0.406,3.53934 1.69182,4.59271 1.69182,4.59271c0,0 -3.46914,0.14698 -4.67214,0.7058c-1.16231,0.53992 -2.42798,2.59238 -2.42798,2.59238c0,0 -4.79209,-2.06288 -7.41298,-2.09134c-2.29909,-0.02496 -7.47382,1.92972 -7.47382,1.92972c0,0 -1.76253,-3.0773 -3.50749,-3.65349c-1.91096,-0.63101 -7.50559,0.01693 -7.50559,0.01693z" fill="#382f24" stroke="none" stroke-width="0" stroke-linecap="butt"/><path d="M247.60509,180.72726l7.8572,28.5714" fill="none" stroke="#dbdbdb" stroke-width="0.5" stroke-linecap="round"/><path d="M248.17659,206.58436l6.2857,-16.2857" fill="none" stroke="#dbdbdb" stroke-width="0.5" stroke-linecap="round"/><path d="M260.03369,201.44146l-18.7143,-10.2857" fill="none" stroke="#dbdbdb" stroke-width="0.5" stroke-linecap="round"/><path d="M251.60509,193.15576l1.7143,0.2857l2.4286,3l0.2857,3.1429l-2.5714,1.8571l-3,-0.1428l-2.1429,-2.8572v-3.5714z" fill="none" stroke="#dbdbdb" stroke-width="0.5" stroke-linecap="round"/><path d="M257.17659,195.87006l-3,-4.2857l-4,-0.8571l-4.1429,2.5714l-0.7143,6l3.5714,3.7143l5.1429,1.4286l4,-4l-0.7143,-4.4286l-20.4286,5.5714l9.4286,-23.1428" fill="none" stroke="#dbdbdb" stroke-width="0.5" stroke-linecap="round"/><path d="M259.17659,201.44146l-4.4286,5.1429l-6.5714,-1.2857l-5.8572,-5.4286l0.8572,-8l6.7143,-4.1428h2.1428" fill="none" stroke="#dbdbdb" stroke-width="0.5" stroke-linecap="round"/></g></g></g></svg>