<svg xmlns="http://www.w3.org/2000/svg" xmlns:xlink="http://www.w3.org/1999/xlink" version="1.1" width="66.0821" height="167.28438" viewBox="0,0,66.0821,167.28438"><defs><linearGradient x1="224.88274" y1="185.44354" x2="251.45696" y2="184.83788" gradientUnits="userSpaceOnUse" id="color-1"><stop offset="0" stop-color="#edd800"/><stop offset="1" stop-color="#d17a00"/></linearGradient><linearGradient x1="11.9876" y1="106.4986" x2="38.5618" y2="105.8929" gradientUnits="userSpaceOnUse" id="color-1-,0,0,1,-212.89517,-78.94493"><stop offset="0" stop-color="#edd800"/><stop offset="1" stop-color="#d17a00"/></linearGradient></defs><g><g data-paper-data="{&quot;isPaintingLayer&quot;:true}" fill-rule="nonzero" stroke-linejoin="miter" stroke-miterlimit="10" stroke-dasharray="" stroke-dashoffset="0" style="mix-blend-mode: normal"><g data-paper-data="{&quot;index&quot;:null}" stroke-linecap="butt" font-family="sans-serif" font-weight="normal" font-size="12" text-anchor="start"/><g><g><g><path d="M 31.4048 102.3479 L 32.4763 108.6336 " fill="none" stroke="#24cf75" stroke-width="2" stroke-linecap="round"/><path d="M 17.6906 102.3479 L 18.762 108.6336 " fill="none" stroke="#24cf75" stroke-width="2" stroke-linecap="round"/><path d="M 38.5001 103.1859 C 38.5001 103.1859 40.2018 103.5686 40.1322 105.4743 C 40.0735 107.0794 38.6027 107.6872 38.6027 107.6872 C 38.6027 107.6872 31.66 108.1054 28.2267 108.1773 C 24.8474 108.248 18.1623 108.1152 18.1623 108.1152 C 18.1623 108.1152 15.877 110.3431 13.4449 110.3339 C 11.0813 110.3249 9.618 108.6367 9.618 108.6367 C 9.618 108.6367 12.7687 107.9036 12.7318 105.9993 C 12.6949 104.0932 9.464 103.4905 9.464 103.4905 C 9.464 103.4905 10.6812 101.9125 13.0369 101.7753 C 15.3926 101.6381 18.0401 103.5895 18.0401 103.5895 C 18.0401 103.5895 24.6639 103.7316 28.0323 103.6652 C 31.482 103.5971 38.5001 103.1859 38.5001 103.1859 Z " data-paper-data="{&quot;index&quot;:null}" fill="url(#color-1-,0,0,1,-212.89517,-78.94493)" stroke="#000000" stroke-width="1" stroke-linecap="butt"/><path d="M 20.1191 101.9908 C 20.1191 101.9908 20.0569 105.3608 19.6447 107.4653 C 19.2325 109.5699 18.762 108.9194 18.762 108.9194 " fill="none" stroke="#24cf75" stroke-width="2" stroke-linecap="round"/><path d="M 33.9763 101.8479 C 33.9763 101.8479 33.7892 105.3741 33.3435 107.5803 C 32.8978 109.7865 32.5477 108.9194 32.5477 108.9194 " fill="none" stroke="#24cf75" stroke-width="2" stroke-linecap="round"/></g><g stroke-linecap="butt"><g><path d="M247.59465,166.63833v-13.51281c0,0 0.74069,-0.48842 1.25,-0.48842c0.50931,0 1.125,0.48842 1.125,0.48842l1,13.51281c0,0 -1.05154,0.48842 -1.75,0.48842c-0.69846,0 -1.625,-0.48842 -1.625,-0.48842z" fill="#d9aa36" stroke-width="0" stroke="none" transform="matrix(1,0,0,1,-212.89517,-78.94493)"/><path d="M226.64822,167.57526c-0.72772,0 -1.67857,-0.77413 -1.67857,-0.77413l1,-13.51281c0,0 0.61569,-0.48841 1.125,-0.48841c0.50931,0 1.25,0.48841 1.25,0.48841v13.51281c0,0 -0.96871,0.77413 -1.69643,0.77413z" data-paper-data="{&quot;index&quot;:null}" fill="#d9aa36" stroke-width="0" stroke="none" transform="matrix(1,0,0,1,-212.89517,-78.94493)"/><path d="M228.09465,181.45357v-19.69939h19.875v19.69939z" fill="#24cf75" stroke-width="0" stroke="none" transform="matrix(1,0,0,1,-212.89517,-78.94493)"/><path d="M228.09465,163.21943v-15.14085h19.875v15.14085c0,0 -6.02115,2.27927 -9.875,2.27927c-3.85385,0 -10,-2.27927 -10,-2.27927z" fill="#fffe98" stroke-width="0" stroke="none" transform="matrix(1,0,0,1,-212.89517,-78.94493)"/></g><g><path d="M248.71965,165.51333v-13.51281c0,0 0.74069,-0.48842 1.25,-0.48842c0.50931,0 1.125,0.48842 1.125,0.48842l1,13.51281l-1.17857,1.2027z" fill="#d9aa36" stroke-width="0" stroke="none" transform="matrix(1,0,0,1,-212.89517,-78.94493)"/><path d="M226.84465,167.45026c-0.69846,0 -1.75,-0.48841 -1.75,-0.48841l0.87128,-13.59585l1.12872,-1.20267c0,0 0.61569,-0.48841 1.125,-0.48841c0.50931,0 1.25,0.48841 1.25,0.48841l-1,14.79852c0,0 -0.92654,0.48841 -1.625,0.48841z" data-paper-data="{&quot;index&quot;:null}" fill="#d9aa36" stroke-width="0" stroke="none" transform="matrix(1,0,0,1,-212.89517,-78.94493)"/><path d="M229.21965,180.32857v-19.69939h19.875v19.69939l-1.22322,1.14285z" fill="#24cf75" stroke-width="0" stroke="none" transform="matrix(1,0,0,1,-212.89517,-78.94493)"/><path d="M229.21965,162.09443l-0.14385,-13.37832l-1.07044,-0.63753l1.21429,-1.125h19.875v15.14085c0,0 -6.02115,2.27927 -9.875,2.27927c-3.85385,0 -10,-2.27927 -10,-2.27927z" fill="#fffe98" stroke-width="0" stroke="none" transform="matrix(1,0,0,1,-212.89517,-78.94493)"/></g><path d="M227.8625,167.57526c-0.69809,0.20556 -1.46429,0.01159 -1.46429,0.01159l0.57143,-15.36995c0,0 0.61569,-0.55984 1.125,-0.55984c0.50931,0 1.25,0.48841 1.25,0.48841v14.51281c0,0 -0.75442,0.7027 -1.48215,0.91698z" data-paper-data="{&quot;index&quot;:null}" fill="#d9aa36" stroke-width="0" stroke="none" transform="matrix(1,0,0,1,-212.89517,-78.94493)"/></g></g><g stroke-linecap="butt"><path d="M 21.5342 62.1613 C 21.9129 64.2342 24.0506 67.9438 23.6057 69.4733 C 23.1217 71.137 19.9891 70.541 18.7865 70.7606 C 17.8685 70.9283 15.6482 72.9099 14.7869 72.0951 C 13.4825 70.8613 13.6521 66.2946 13.176 63.6882 C 12.3854 59.3606 13.6156 55.5105 15.9237 55.0889 C 18.2317 54.6672 20.7437 57.8337 21.5342 62.1613 Z " stroke-width="0.5" fill="#ff0000" stroke="#000000"/><path d="M 20.3909 49.7724 C 20.4484 54.1713 18.5931 57.7622 16.247 57.7928 C 13.901 57.8234 11.9525 54.2823 11.8951 49.8834 C 11.8376 45.4845 13.6929 41.8937 16.039 41.863 C 18.3851 41.8324 20.3335 45.3736 20.3909 49.7724 Z " stroke-width="0.5" fill="#ff0000" stroke="#000000"/><path d="M 22.3545 38.2065 C 21.2801 42.4725 18.5648 45.4663 16.2895 44.8933 C 14.0143 44.3203 13.0408 40.3975 14.1152 36.1315 C 15.1896 31.8654 17.905 28.8716 20.1802 29.4446 C 22.4554 30.0176 23.4289 33.9404 22.3545 38.2065 Z " stroke-width="0.5" fill="#ff0000" stroke="#000000"/></g><path d="M 9.5319 67.5153 C 9.8003 70.0123 11.8048 73.5758 10.9978 75.1309 C 10.3913 76.2999 7.1602 75.7817 6.1592 75.8893 C 4.9134 76.0232 1.7798 78.1489 0.8337 76.6235 C 0.0083 75.2924 1.303 70.4616 1.0839 68.4233 C 0.6138 64.0493 2.1238 60.3001 4.4567 60.0494 C 6.7895 59.7987 9.0617 63.1413 9.5319 67.5153 Z " fill="#ff0000" stroke="#000000" stroke-width="0.5" stroke-linecap="butt"/><path d="M 8.7428 54.6796 C 8.8739 59.0769 7.0789 62.6982 4.7337 62.7681 C 2.3884 62.838 0.381 59.33 0.25 54.9327 C 0.119 50.5354 1.9139 46.914 4.2591 46.8441 C 6.6044 46.7742 8.6118 50.2823 8.7428 54.6796 Z " fill="#ff0000" stroke="#000000" stroke-width="0.5" stroke-linecap="butt"/><path d="M 10.0014 41.659 C 9.6177 46.0415 7.412 49.4283 5.0746 49.2237 C 2.7373 49.0191 1.1535 45.3006 1.5371 40.9181 C 1.9208 36.5356 4.1265 33.1487 6.4639 33.3533 C 8.8012 33.5579 10.385 37.2765 10.0014 41.659 Z " fill="#ff0000" stroke="#000000" stroke-width="0.5" stroke-linecap="butt"/><path d="M 28.7191 59.3185 L 28.7191 126.6156 L 16.6715 165.5344 " data-paper-data="{&quot;origPos&quot;:null}" fill="none" stroke="#000000" stroke-width="3.5" stroke-linecap="round"/><path d="M 41.5699 165.3376 L 29.5223 125.1789 " fill="none" stroke="#000000" stroke-width="3.5" stroke-linecap="round"/><path d="M 4.7124 36.4281 C 4.7124 22.4553 16.0396 11.1281 30.0124 11.1281 C 43.9852 11.1281 55.3124 22.4553 55.3124 36.4281 C 55.3124 50.4009 43.9852 61.7281 30.0124 61.7281 C 16.0396 61.7281 4.7124 50.4009 4.7124 36.4281 Z " fill="#d4d4d4" stroke="#000000" stroke-width="2.5" stroke-linecap="butt"/><path d="M238.40158,109.34922c0,-2.66149 2.15756,-4.81905 4.81905,-4.81905c2.66149,0 4.81905,2.15756 4.81905,4.81905c0,2.66149 -2.15756,4.81905 -4.81905,4.81905c-2.66149,0 -4.81905,-2.15756 -4.81905,-4.81905z" data-paper-data="{&quot;origPos&quot;:null}" fill="#000000" stroke="none" stroke-width="0" stroke-linecap="butt" transform="matrix(1,0,0,1,-212.89517,-78.94493)"/><path d="M252.05555,109.34922c0,-2.66148 2.15757,-4.81905 4.81905,-4.81905c2.66148,0 4.81905,2.15757 4.81905,4.81905c0,2.66148 -2.15757,4.81905 -4.81905,4.81905c-2.66148,0 -4.81905,-2.15757 -4.81905,-4.81905z" data-paper-data="{&quot;origPos&quot;:null}" fill="#000000" stroke="none" stroke-width="0" stroke-linecap="butt" transform="matrix(1,0,0,1,-212.89517,-78.94493)"/><path d="M 27.6005 24.0229 L 33.7274 25.7987 " data-paper-data="{&quot;origPos&quot;:null}" fill="none" stroke="#000000" stroke-width="2.5" stroke-linecap="round"/><path d="M 40.8385 25.4686 L 45.9001 23.6829 " data-paper-data="{&quot;origPos&quot;:null}" fill="none" stroke="#000000" stroke-width="2.5" stroke-linecap="round"/><path d="M 42.8503 88.3047 C 42.8503 88.3047 35.2046 88.9065 33.0745 78.4943 C 31.7153 75.9613 29.6064 67.6424 29.6064 67.6424 " data-paper-data="{&quot;origPos&quot;:null,&quot;index&quot;:null}" fill="none" stroke="#000000" stroke-width="3.5" stroke-linecap="round"/><path d="M 10.3318 21.7429 C 9.546 21.3578 8.892 20.5461 8.7094 19.4045 C 8.0763 15.4468 6.0017 16.6825 5.516 9.5863 C 5.2803 6.1434 13.8635 0.6209 24.5692 0.25 C 37.6558 -0.2034 48.1483 3.6681 47.9841 8.3997 C 47.7753 14.4181 45.9507 15.9367 47.0533 17.2825 C 47.8226 18.2215 62.6129 17.3567 61.5341 18.0125 C 58.3288 19.961 49.3103 22.4985 37.5241 23.2146 C 26.4552 23.8872 12.5587 22.8345 10.3318 21.7429 Z " fill="#ca8800" stroke="#000000" stroke-width="0.5" stroke-linecap="butt"/><path d="M237.45017,107.15375c-0.34063,-0.63697 -0.22396,-2.11869 -0.22396,-2.11869c0,0 1.00979,0.45243 1.57772,0.69101c0.4879,0.20496 1.37637,0.53001 1.37637,0.53001l-1.03251,2.71476c0,0 -1.31852,-1.10818 -1.69762,-1.81709z" data-paper-data="{&quot;index&quot;:null}" fill="#000000" stroke="none" stroke-width="0" stroke-linecap="butt" transform="matrix(1,0,0,1,-212.89517,-78.94493)"/><path d="M260.59206,108.55418l-1.03251,-2.71476c0,0 0.88847,-0.32505 1.37637,-0.53001c0.56793,-0.23858 1.57772,-0.44101 1.57772,-0.44101c0,0 0.11667,1.23172 -0.22395,1.86869c-0.3791,0.70892 -1.69763,1.8171 -1.69763,1.8171z" data-paper-data="{&quot;index&quot;:null}" fill="#000000" stroke="none" stroke-width="0" stroke-linecap="butt" transform="matrix(1,0,0,1,-212.89517,-78.94493)"/><path d="M 42.0632 47.1384 C 42.0632 47.1384 39.8417 48.0791 37.1836 48.0886 C 34.4029 48.0984 32.0632 46.1384 32.0632 46.1384 " fill="none" stroke="#000000" stroke-width="1.5" stroke-linecap="round"/><path d="M220.79546,98.86111l-2.11111,-5.22222c0,0 14.81831,-2.87269 22.11564,-3.50309c7.29733,-0.6304 20.78335,0.10914 20.78335,0.10914l-0.45454,5.12122c0,0 -12.81848,0.12224 -19.42958,0.6504c-6.82644,0.54537 -20.90375,2.84455 -20.90375,2.84455z" fill="#171926" stroke="none" stroke-width="0" stroke-linecap="butt" transform="matrix(1,0,0,1,-212.89517,-78.94493)"/><path d="M 18.9912 19.0475 L 18.7185 11.502 L 29.9912 10.502 L 30.2639 18.3202 Z " fill="#22bffa" stroke="#171926" stroke-width="1.5" stroke-linecap="butt"/><path d="M 35.8094 17.593 L 35.8094 10.4111 L 44.8094 10.7748 L 44.8094 17.0475 Z " fill="#22bffa" stroke="#171926" stroke-width="1.5" stroke-linecap="butt"/><g><path d="M234.52656,162.39712l1.89198,2.2725l0.0634,5.30049c0,0 -1.5844,-0.95873 -1.90024,-2.18197c-0.31584,-1.22323 -0.05513,-5.39102 -0.05513,-5.39102z" fill="#cccccc" stroke="none" stroke-width="NaN" stroke-linecap="butt" transform="matrix(1,0,0,1,-212.89517,-78.94493)"/><g><path d="M274.34091,163.52273c0,-1.28029 1.03789,-2.31818 2.31818,-2.31818c1.2803,0 2.31818,1.03789 2.31818,2.31818c0,1.28029 -1.03788,2.31818 -2.31818,2.31818c-1.2803,0 -2.31818,-1.03789 -2.31818,-2.31818z" fill="#ffed4b" stroke="none" stroke-width="0" stroke-linecap="butt" transform="matrix(1,0,0,1,-212.89517,-78.94493)"/><path d="M265.59091,161.69156v-5.28572l9.42857,-1.35714l-0.35715,6.71428z" fill="#9aaaaa" stroke="none" stroke-width="0" stroke-linecap="butt" transform="matrix(1,0,0,1,-212.89517,-78.94493)"/><path d="M274.59091,161.83442v-6.28572l3.64286,-2.5v6.28572z" fill="#b6b6b6" stroke="none" stroke-width="0" stroke-linecap="butt" transform="matrix(1,0,0,1,-212.89517,-78.94493)"/><path d="M272.30359,153.12013l6.00161,0.08886l-3.71429,2.64286l-13.71429,1.14286l3.5,-2.78572z" data-paper-data="{&quot;index&quot;:null}" fill="#c1c1c1" stroke="none" stroke-width="0" stroke-linecap="butt" transform="matrix(1,0,0,1,-212.89517,-78.94493)"/><path d="M265.73376,166.33442v-8.92857l2.78571,-1.78572v8.92858z" fill="#aa7f00" stroke="none" stroke-width="0" stroke-linecap="butt" transform="matrix(1,0,0,1,-212.89517,-78.94493)"/><path d="M214.41729,157.78839l2.93254,-2.47183c0,0 8.43174,-0.14364 12.45535,-0.14285c1.1601,0.00023 1.10438,-1.77233 4.64391,-1.65666c3.80168,0.12423 2.97581,1.9038 4.64181,2.0138c0.74064,0.0489 29.50893,0.07143 29.50893,0.07143l-2.82143,2.18611c0,0 -20.51446,0 -29.6,0c-1.48925,0 -0.89127,-2.04034 -5.31071,-2.01785c-3.94803,0.02009 -3.00814,2.01785 -4.71429,2.01785c-6.06357,0 -11.73611,0 -11.73611,0z" fill="#b78900" stroke="none" stroke-width="0" stroke-linecap="butt" transform="matrix(1,0,0,1,-212.89517,-78.94493)"/><path d="M223.40341,173.15585c-4.38628,-0.00372 -8.875,-4.28572 -8.875,-4.28572v-11.39285c0,0 6.43183,0 11.375,0c1.40283,0 0.93644,-2.0346 5.25,-2.125c4.06114,-0.0851 3.79006,2.125 5.75,2.125c12.42937,0 28.875,0 28.875,0v8.875l-28.70291,0.03563c0,0 -1.70424,0.18207 -2.62382,0.73443c-0.91958,0.55236 -1.53466,1.7634 -1.53466,1.7634c0,0 -5.12734,4.27383 -9.51362,4.27011z" fill="#cc9900" stroke="none" stroke-width="0" stroke-linecap="butt" transform="matrix(1,0,0,1,-212.89517,-78.94493)"/><path d="M227.23376,160.33442c0,-1.89355 1.53503,-3.42857 3.42858,-3.42857c1.89355,0 3.42857,1.53502 3.42857,3.42857c0,1.89355 -1.53502,3.42857 -3.42857,3.42857c-1.89355,0 -3.42858,-1.53502 -3.42858,-3.42857z" fill="#cccccc" stroke="none" stroke-width="0" stroke-linecap="butt" transform="matrix(1,0,0,1,-212.89517,-78.94493)"/><path d="M228.3139,159.10259l1.1421,-1.07935l3.48335,3.68588l-1.1421,1.07934z" data-paper-data="{&quot;index&quot;:null}" fill="#999999" stroke="none" stroke-width="0" stroke-linecap="butt" transform="matrix(1,0,0,1,-212.89517,-78.94493)"/><path d="M248.66234,156.54871c0,0.35504 -0.83148,0.64285 -1.85715,0.64285c-1.02567,0 -1.85714,-0.28781 -1.85714,-0.64285c0,-0.35504 0.83147,-0.64286 1.85714,-0.64286c1.02567,0 1.85715,0.28782 1.85715,0.64286z" fill="#cccccc" stroke="none" stroke-width="0" stroke-linecap="butt" transform="matrix(1,0,0,1,-212.89517,-78.94493)"/><path d="M259.09091,156.54871c0,0.35504 -0.83147,0.64285 -1.85714,0.64285c-1.02567,0 -1.85715,-0.28781 -1.85715,-0.64285c0,-0.35504 0.83148,-0.64286 1.85715,-0.64286c1.02567,0 1.85714,0.28782 1.85714,0.64286z" fill="#cccccc" stroke="none" stroke-width="0" stroke-linecap="butt" transform="matrix(1,0,0,1,-212.89517,-78.94493)"/><path d="M 33.8386 77.2466 C 33.8386 77.2466 33.6097 75.3004 34.6914 75.2834 C 34.763 75.2633 35.0407 73.81 35.4854 73.6971 C 35.8485 73.6051 36.6468 74.6059 37.2414 74.3548 C 38.317 73.9005 39.0714 72.682 39.8861 72.7655 C 41.4344 72.9243 41.3057 75.0404 42.4204 75.0698 C 43.6642 75.1027 42.2124 74.6386 43.422 74.5644 C 45.1619 74.4578 44.8293 75.4834 44.397 75.9193 C 43.9648 76.3551 44.41 77.1752 44.41 77.1752 " fill="none" stroke="#ffe400" stroke-width="1" stroke-linecap="round"/><g stroke-linecap="butt"><path d="M260.59091,164.90585v-5.78572l3.46678,2.59404l8.01733,1.26895l5.87304,-0.07727v5.78572l-5.87844,0.03206l-8.1455,-1.24154z" fill="#999999" stroke-width="0" stroke="none" transform="matrix(1,0,0,1,-212.89517,-78.94493)"/><path d="M264.01948,161.90585l-3.5,-2.78572l13.71429,0.64286l3.85714,3.21428l-6.14447,0.01744z" fill="#c1c1c1" stroke-width="0" stroke="none" transform="matrix(1,0,0,1,-212.89517,-78.94493)"/></g><path d="M276.6909,155.94156c0.67063,0 1.56429,0.25152 1.56429,1.67857c0,1.37705 -0.89366,1.67858 -1.56429,1.67858c-0.67063,0 -1.21428,-0.75153 -1.21428,-1.67858c0,-0.92705 0.54365,-1.67857 1.21428,-1.67857z" fill="#ffed4b" stroke="none" stroke-width="0" stroke-linecap="butt" transform="matrix(1,0,0,1,-212.89517,-78.94493)"/></g></g><path d="M 24.6266 88.5774 C 24.6266 88.5774 12.3557 86.9073 12.9756 78.2198 C 13.4383 71.7351 27.4159 67.6424 27.4159 67.6424 " data-paper-data="{&quot;origPos&quot;:null}" fill="none" stroke="#000000" stroke-width="3.5" stroke-linecap="round"/></g></g></g></svg>