<svg xmlns="http://www.w3.org/2000/svg" xmlns:xlink="http://www.w3.org/1999/xlink" version="1.1" width="12.46585" height="25.25837" viewBox="0,0,12.46585,25.25837"><g><g data-paper-data="{&quot;isPaintingLayer&quot;:true}" fill-rule="nonzero" stroke-linejoin="miter" stroke-miterlimit="10" stroke-dasharray="" stroke-dashoffset="0" style="mix-blend-mode: normal"><g data-paper-data="{&quot;index&quot;:null}"><path d="M 7.0572 9.8037 C 6.3432 8.0837 8.671 6.7777 8.8246 5.3906 C 8.9781 4.0035 9.1106 0.8139 9.1106 0.8139 C 9.1106 0.8139 12.0397 3.1765 12.191 5.2452 C 12.3216 7.0313 11.5438 8.5855 10.5221 9.4803 C 9.5004 10.3751 7.7712 11.5237 7.0572 9.8037 Z " fill="#985900" stroke-linecap="butt" stroke-width="0.5" stroke="#7f4a00"/><path d="M 9.2057 2.6932 L 10.469 2.4548 " fill="none" stroke-linecap="round" stroke-width="0.5" stroke="#7f4a00"/><path d="M 11.7589 4.2226 L 9.109 4.6708 " fill="none" stroke-linecap="round" stroke-width="0.5" stroke="#7f4a00"/><path d="M 8.8658 5.9389 L 12.18 6.1518 " fill="none" stroke-linecap="round" stroke-width="0.5" stroke="#7f4a00"/><path d="M 11.3415 8.3593 L 8.3651 7.0301 " fill="none" stroke-linecap="round" stroke-width="0.5" stroke="#7f4a00"/><path d="M 7.4188 8.0826 L 9.9035 9.7389 " fill="none" stroke-linecap="round" stroke-width="0.5" stroke="#7f4a00"/></g><path d="M 5.9036 25.2584 C 5.9036 25.2584 6.1629 23.2112 6.1629 22.1583 C 6.1629 21.0646 5.9036 18.8139 5.9036 18.8139 L 9.5332 18.8139 C 9.5332 18.8139 9.1258 21.059 9.1258 22.1583 C 9.1258 23.2045 9.5332 25.2584 9.5332 25.2584 Z " fill="#000000" stroke="none" stroke-width="1" stroke-linecap="butt"/><path d="M 11.9658 14.6728 C 11.9658 18.6682 9.4853 20.2132 6.4254 20.2132 C 3.3655 20.2132 0.885 18.6682 0.885 14.6728 C 0.885 10.6774 3.2949 5.674 6.3548 5.674 C 9.4147 5.674 11.9659 10.6774 11.9659 14.6728 Z " data-paper-data="{&quot;index&quot;:null}" fill="#ffffee" stroke="#000000" stroke-width="1" stroke-linecap="butt"/><path d="M 4.8736 12.8619 C 4.4239 13.8349 3.5574 14.3917 2.9382 14.1055 C 2.319 13.8193 2.1816 12.7985 2.6313 11.8255 C 3.081 10.8524 3.9476 10.2956 4.5668 10.5818 C 5.186 10.868 5.3234 11.8888 4.8736 12.8619 Z " data-paper-data="{&quot;index&quot;:null}" fill="#4848ab" stroke="#3b3b8d" stroke-width="1" stroke-linecap="butt"/><path d="M 11.0574 16.7549 C 10.8642 17.7498 10.4096 18.5899 9.6105 18.5899 C 8.8114 18.5899 8.1637 17.7683 8.1637 16.7549 C 8.1637 15.7414 8.6689 15.1312 9.6105 14.9198 C 12.3867 14.2966 11.1991 16.0248 11.0574 16.7549 Z " data-paper-data="{&quot;index&quot;:null}" fill="#4848ab" stroke="#3b3b8d" stroke-width="1" stroke-linecap="butt"/><path d="M 2.4821 16.5431 C 3.1252 16.5431 3.6466 17.0487 3.6466 17.6724 C 3.6466 18.296 3.1252 18.8016 2.4821 18.8016 C 2.1226 18.8016 2.0975 18.4214 1.8838 18.1732 C 1.7153 17.9773 1.5397 17.7623 1.5397 17.4872 C 1.5397 16.8635 1.8389 16.5431 2.4821 16.5431 Z " data-paper-data="{&quot;index&quot;:null}" fill="#4848ab" stroke="#3b3b8d" stroke-width="1" stroke-linecap="butt"/><path d="M 7.0236 6.5343 C 7.5843 6.0555 8.5374 6.7525 9.4149 8.1719 C 9.6632 8.5737 11.1116 10.0057 8.8347 11.4953 C 8.2177 11.899 7.4034 11.315 6.8902 10.0233 C 6.377 8.7316 6.4628 7.013 7.0236 6.5343 Z " data-paper-data="{&quot;index&quot;:null}" fill="#4848ab" stroke="#3b3b8d" stroke-width="1" stroke-linecap="butt"/><path d="M 11.9658 14.6728 C 11.9658 18.6682 9.4853 20.2132 6.4254 20.2132 C 3.3655 20.2132 0.885 18.6682 0.885 14.6728 C 0.885 10.6773 3.2949 5.674 6.3548 5.674 C 9.4147 5.674 11.9658 10.6774 11.9658 14.6728 Z " data-paper-data="{&quot;index&quot;:null}" fill="none" stroke="#000000" stroke-width="1" stroke-linecap="butt"/><path d="M 3.466 23.8216 C 3.466 23.8216 4.0524 21.9771 4.212 20.9501 C 4.3816 19.8584 4.4554 17.4535 4.4554 17.4535 L 8.042 18.0108 C 8.042 18.0108 7.3566 20.2512 7.1878 21.3374 C 7.0272 22.3713 7.0526 24.3788 7.0526 24.3788 Z " fill="#000000" stroke="none" stroke-width="1" stroke-linecap="butt"/><g><path d="M 2.2249 9.268 C 1.1403 8.4505 0.2507 6.9575 0.25 5.1668 C 0.2492 3.0925 2.9971 0.5215 2.9971 0.5215 C 2.9971 0.5215 3.3631 3.6928 3.618 5.0649 C 3.8729 6.437 6.2901 7.5687 5.7042 9.3365 C 5.1183 11.1042 3.3094 10.0855 2.2249 9.268 Z " fill="#985900" stroke-linecap="butt" stroke-width="0.5" stroke="#7f4a00"/><path d="M 3.0401 2.4027 L 1.7627 2.2576 " fill="none" stroke-linecap="round" stroke-width="0.5" stroke="#7f4a00"/><path d="M 0.6059 4.1152 L 3.2815 4.3678 " fill="none" stroke-linecap="round" stroke-width="0.5" stroke="#7f4a00"/><path d="M 3.617 5.6147 L 0.3274 6.0701 " fill="none" stroke-linecap="round" stroke-width="0.5" stroke="#7f4a00"/><path d="M 4.1964 6.6663 L 1.3255 8.2101 " fill="none" stroke-linecap="round" stroke-width="0.5" stroke="#7f4a00"/><path d="M 2.8608 9.4806 L 5.2174 7.6466 " fill="none" stroke-linecap="round" stroke-width="0.5" stroke="#7f4a00"/></g></g></g></svg>