<svg xmlns="http://www.w3.org/2000/svg" xmlns:xlink="http://www.w3.org/1999/xlink" version="1.1" width="3.82351" height="5.25751" viewBox="0,0,3.82351,5.25751"><defs><linearGradient x1="239.98994" y1="178.64479" x2="239.98994" y2="182.62875" gradientUnits="userSpaceOnUse" id="color-1"><stop offset="0" stop-color="#b1863c"/><stop offset="1" stop-color="#7e5f2b"/></linearGradient></defs><g><g data-paper-data="{&quot;isPaintingLayer&quot;:true}" fill-rule="nonzero" stroke-linecap="butt" stroke-linejoin="miter" stroke-miterlimit="10" stroke-dasharray="" stroke-dashoffset="0" style="mix-blend-mode: normal"><path d="M239.32998,181.7222l0.12866,-0.48891l-0.23159,-0.51464l0.12866,-0.48891l-0.18013,-0.54038l0.10293,-0.54038l-0.18013,-0.50419h1.78309l-0.18013,0.52992l0.12866,0.51464l-0.20585,0.56611l0.15439,0.54038l-0.20585,0.48891l0.10293,0.46318l-0.66904,0.88081z" fill="url(#color-1)" stroke-width="0" stroke="none" transform="matrix(1,0,0,1,-238.08825,-177.37125)"/><path d="M238.08825,178.99389v-1.62265h3.82351v1.62265c0,0 -1.18347,-0.25732 -1.90799,-0.25732c-0.73006,0 -1.91551,0.25732 -1.91551,0.25732z" fill="#cc9b46" stroke-width="0" stroke="none" transform="matrix(1,0,0,1,-238.08825,-177.37125)"/></g></g></svg>