<svg xmlns="http://www.w3.org/2000/svg" xmlns:xlink="http://www.w3.org/1999/xlink" version="1.1" width="526.06081" height="459.62584" viewBox="0,0,526.06081,459.62584"><defs><linearGradient x1="233.93607" y1="-3.72468" x2="233.93607" y2="364.81123" gradientUnits="userSpaceOnUse" id="color-1"><stop offset="0" stop-color="#363636"/><stop offset="1" stop-color="#4b9949"/></linearGradient><radialGradient cx="448.10455" cy="140.52714" r="10.46601" gradientUnits="userSpaceOnUse" id="color-2"><stop offset="0" stop-color="#ff2e2e"/><stop offset="1" stop-color="#e80000"/></radialGradient><linearGradient x1="298.88614" y1="208.96066" x2="298.88614" y2="286.52177" gradientUnits="userSpaceOnUse" id="color-3"><stop offset="0" stop-color="#ffd400"/><stop offset="1" stop-color="#ffa100"/></linearGradient><radialGradient cx="296.98693" cy="283.50089" r="32.765" gradientUnits="userSpaceOnUse" id="color-4"><stop offset="0" stop-color="#ffab00"/><stop offset="1" stop-color="#ff6e00"/></radialGradient><linearGradient x1="329.12148" y1="340.28226" x2="324.814" y2="360.62098" gradientUnits="userSpaceOnUse" id="color-5"><stop offset="0" stop-color="#ff9700"/><stop offset="1" stop-color="#ffca00"/></linearGradient><linearGradient x1="321.22782" y1="341.78709" x2="317.56421" y2="359.08557" gradientUnits="userSpaceOnUse" id="color-6"><stop offset="0" stop-color="#ff9700"/><stop offset="1" stop-color="#ffca00"/></linearGradient><linearGradient x1="326.42708" y1="335.5758" x2="321.13706" y2="360.5537" gradientUnits="userSpaceOnUse" id="color-7"><stop offset="0" stop-color="#ff8d00"/><stop offset="1" stop-color="#ffca00"/></linearGradient><linearGradient x1="273.99232" y1="340.83958" x2="276.93545" y2="361.42005" gradientUnits="userSpaceOnUse" id="color-8"><stop offset="0" stop-color="#ff9700"/><stop offset="1" stop-color="#ffca00"/></linearGradient><linearGradient x1="267.09631" y1="344.96503" x2="269.59948" y2="362.46913" gradientUnits="userSpaceOnUse" id="color-9"><stop offset="0" stop-color="#ff9700"/><stop offset="1" stop-color="#ffca00"/></linearGradient><linearGradient x1="269.84485" y1="337.34544" x2="273.45929" y2="362.62026" gradientUnits="userSpaceOnUse" id="color-10"><stop offset="0" stop-color="#ff8d00"/><stop offset="1" stop-color="#ffca00"/></linearGradient><linearGradient x1="319.0123" y1="212.6853" x2="319.0123" y2="290.2464" gradientUnits="userSpaceOnUse" id="color-3-,0,0,1,20.12619,3.72468"><stop offset="0" stop-color="#ffd400"/><stop offset="1" stop-color="#ffa100"/></linearGradient><radialGradient cx="317.1131" cy="287.2256" r="32.765" gradientUnits="userSpaceOnUse" id="color-4-,0,0,1,20.12619,3.72468"><stop offset="0" stop-color="#ffab00"/><stop offset="1" stop-color="#ff6e00"/></radialGradient></defs><g><g data-paper-data="{&quot;isPaintingLayer&quot;:true}" fill-rule="nonzero" stroke-linejoin="miter" stroke-miterlimit="10" stroke-dasharray="" stroke-dashoffset="0" style="mix-blend-mode: normal"><path d="M-17.06394,364.81123v-368.53591h502v368.53591z" data-paper-data="{&quot;origPos&quot;:null}" fill="url(#color-1)" stroke="none" stroke-width="NaN" stroke-linecap="butt" transform="matrix(1,0,0,1,20.12619,3.72468)"/><g data-paper-data="{&quot;index&quot;:null}"><path d="M 510.6843 286.5499 L 485.4675 231.1012 L 472.7614 131.2878 " data-paper-data="{&quot;origPos&quot;:null}" fill="none" stroke="#ff0000" stroke-width="5" stroke-linecap="round"/><path d="M 484.005 229.1218 L 473.7184 290.959 " data-paper-data="{&quot;origPos&quot;:null}" fill="none" stroke="#ff0000" stroke-width="5" stroke-linecap="round"/><path d="M 471.4295 135.089 C 450.7053 137.7271 431.7665 123.0656 429.1283 102.3414 C 426.4902 81.6173 441.1517 62.6784 461.8759 60.0403 C 482.6 57.4021 501.5389 72.0637 504.177 92.7879 C 506.8152 113.512 492.1536 132.4508 471.4295 135.089 Z " data-paper-data="{&quot;origPos&quot;:null}" fill="#c3b200" stroke="#ff0000" stroke-width="4" stroke-linecap="butt"/><path d="M 473.017 143.801 C 473.017 143.801 467.588 165.1595 463.8671 175.0026 C 460.6802 183.433 440.2757 181.9888 440.2757 181.9888 " data-paper-data="{&quot;origPos&quot;:null,&quot;index&quot;:null}" fill="none" stroke="#ff0000" stroke-width="4.5" stroke-linecap="round"/><path d="M 477.0438 81.1575 L 463.0597 88.9434 " data-paper-data="{&quot;origPos&quot;:null,&quot;origRot&quot;:0}" fill="none" stroke="#00ffe4" stroke-width="4.5" stroke-linecap="round"/><path d="M 454.0181 89.7176 L 439.6417 85.5419 " data-paper-data="{&quot;origPos&quot;:null,&quot;origRot&quot;:0,&quot;index&quot;:null}" fill="none" stroke="#00ffe4" stroke-width="4.5" stroke-linecap="round"/><path d="M 448.6679 121.308 L 452.5054 117.0515 L 469.49 114.8893 L 474.0856 118.2189 " data-paper-data="{&quot;origPos&quot;:null}" fill="none" stroke="#000000" stroke-width="2" stroke-linecap="round"/><g data-paper-data="{&quot;origPos&quot;:null,&quot;index&quot;:null}"><path d="M413.15411,177.75811c-0.40407,-3.17416 1.84152,-6.07486 5.01568,-6.47893c3.17416,-0.40407 6.07486,1.84152 6.47893,5.01568c0.40407,3.17416 -1.84152,6.07486 -5.01568,6.47893c-3.17416,0.40407 -6.07486,-1.84152 -6.47893,-5.01568z" fill="#ff0000" stroke="none" stroke-width="0" stroke-linecap="butt" transform="matrix(1,0,0,1,20.12619,3.72468)"/><path d="M 434.7174 181.4255 L 432.4024 169.1601 " data-paper-data="{&quot;origPos&quot;:null}" fill="none" stroke="#ff0000" stroke-width="2" stroke-linecap="round"/><path d="M 437.2885 180.1029 L 436.0067 167.6869 " data-paper-data="{&quot;origPos&quot;:null,&quot;origRot&quot;:0}" fill="none" stroke="#ff0000" stroke-width="2" stroke-linecap="round"/><path d="M 440.1595 179.4476 L 439.9943 166.9667 " data-paper-data="{&quot;origPos&quot;:null,&quot;origRot&quot;:0}" fill="none" stroke="#ff0000" stroke-width="2" stroke-linecap="round"/><path d="M 443.8589 168.2972 L 443.1625 180.7597 " data-paper-data="{&quot;origPos&quot;:null,&quot;origRot&quot;:0}" fill="none" stroke="#ff0000" stroke-width="2" stroke-linecap="round"/><path d="M 447.9041 176.4812 L 442.9424 182.8904 " data-paper-data="{&quot;origPos&quot;:null}" fill="none" stroke="#ff0000" stroke-width="2" stroke-linecap="round"/><path d="M415.79397,177.18345c-0.25895,-2.03419 1.18015,-3.89315 3.21434,-4.1521c2.03419,-0.25895 3.89315,1.18017 4.1521,3.21436c0.25895,2.03419 -1.18017,3.89314 -3.21436,4.15208c-2.03419,0.25895 -3.89313,-1.18016 -4.15208,-3.21435z" data-paper-data="{&quot;origPos&quot;:null}" fill="#00ffe4" stroke="none" stroke-width="0" stroke-linecap="butt" transform="matrix(1,0,0,1,20.12619,3.72468)"/></g><path d="M456.15183,155.69269c-5.73394,0.72992 -10.97395,-3.32664 -11.70387,-9.06059c-0.72992,-5.73394 3.32664,-10.97395 9.06059,-11.70387c5.73394,-0.72992 10.97395,3.32664 11.70387,9.06059c0.72992,5.73394 -3.32664,10.97395 -9.06059,11.70387z" data-paper-data="{&quot;origPos&quot;:null}" fill="url(#color-2)" stroke="none" stroke-width="0" stroke-linecap="butt" transform="matrix(1,0,0,1,20.12619,3.72468)"/><path d="M 482.2482 150.9155 C 482.2482 150.9155 487.4257 159.8761 493.9126 169.0662 C 498.6913 175.8362 470.4463 181.1625 470.4463 181.1625 " data-paper-data="{&quot;origPos&quot;:null}" fill="none" stroke="#e80000" stroke-width="4.5" stroke-linecap="round"/><path d="M455.19886,149.78519c-2.78506,0.35453 -5.3302,-1.61579 -5.68474,-4.40086c-0.35453,-2.78506 1.61579,-5.3302 4.40086,-5.68474c2.78506,-0.35453 5.3302,1.61579 5.68474,4.40086c0.35453,2.78506 -1.61579,5.3302 -4.40086,5.68474z" data-paper-data="{&quot;origPos&quot;:null}" fill="#00ffe4" stroke="none" stroke-width="0" stroke-linecap="butt" transform="matrix(1,0,0,1,20.12619,3.72468)"/><g data-paper-data="{&quot;origPos&quot;:null}"><path d="M 474.4337 167.3264 L 475.2655 179.7806 " data-paper-data="{&quot;origPos&quot;:null}" fill="none" stroke="#e80000" stroke-width="2" stroke-linecap="round"/><g><path d="M451.52927,182.23028c-3.17416,0.40407 -6.07486,-1.84152 -6.47893,-5.01568c-0.40407,-3.17416 1.84152,-6.07486 5.01568,-6.47893c3.17416,-0.40407 6.07486,1.84152 6.47893,5.01568c0.40407,3.17416 -1.84152,6.07486 -5.01568,6.47893z" data-paper-data="{&quot;origPos&quot;:null}" fill="#e80000" stroke="none" stroke-width="0" stroke-linecap="butt" transform="matrix(1,0,0,1,20.12619,3.72468)"/><path d="M 472.4451 179.1443 L 470.5753 166.8032 " data-paper-data="{&quot;origPos&quot;:null,&quot;origRot&quot;:0}" fill="none" stroke="#e80000" stroke-width="2" stroke-linecap="round"/><path d="M 466.5345 167.105 L 469.5015 179.2292 " data-paper-data="{&quot;origPos&quot;:null,&quot;origRot&quot;:0}" fill="none" stroke="#e80000" stroke-width="2" stroke-linecap="round"/><path d="M 466.923 181.2518 L 463.1265 169.3613 " data-paper-data="{&quot;origPos&quot;:null,&quot;origRot&quot;:0}" fill="none" stroke="#e80000" stroke-width="2" stroke-linecap="round"/><path d="M 467.6699 183.2595 L 461.2606 178.2977 " data-paper-data="{&quot;origPos&quot;:null}" fill="none" stroke="#e80000" stroke-width="2" stroke-linecap="round"/><path d="M450.63099,180.00849c-2.03419,0.25895 -3.89315,-1.18017 -4.1521,-3.21436c-0.25895,-2.03419 1.18017,-3.89314 3.21436,-4.15208c2.03419,-0.25895 3.89313,1.18016 4.15208,3.21435c0.25895,2.03419 -1.18015,3.89315 -3.21434,4.1521z" data-paper-data="{&quot;origPos&quot;:null}" fill="#00ffe4" stroke="none" stroke-width="0" stroke-linecap="butt" transform="matrix(1,0,0,1,20.12619,3.72468)"/></g></g></g><g><path d="M 417.3641 409.5 L 397.5215 345.4002 L 397.5215 234.5609 " fill="none" stroke="#000000" stroke-width="4" stroke-linecap="round"/><path d="M 397.1987 345.0339 L 377.3561 411.1759 " fill="none" stroke="#000000" stroke-width="4" stroke-linecap="round"/><path d="M 393.8902 238.5294 C 370.8768 238.5294 352.2208 219.8734 352.2208 196.86 C 352.2208 173.8466 370.8768 155.1905 393.8902 155.1905 C 416.9036 155.1905 435.5597 173.8466 435.5597 196.86 C 435.5597 219.8734 416.9036 238.5294 393.8902 238.5294 Z " fill="#d4d4d4" stroke="#000000" stroke-width="4" stroke-linecap="butt"/><path d="M 396.0601 248.2704 C 396.0601 248.2704 387.303 271.405 376.76 272.017 C 370.8299 272.3612 358.8082 255.7771 353.2462 246.1131 C 351.669 243.3726 342.0432 244.6076 342.0432 244.6076 " data-paper-data="{&quot;index&quot;:null}" fill="none" stroke="#000000" stroke-width="4" stroke-linecap="round"/><path d="M 399.6679 248.2704 C 399.6679 248.2704 405.3822 250.042 410.2164 259.1485 C 415.4726 269.0496 416.5529 298.6513 416.5529 298.6513 " fill="none" stroke="#000000" stroke-width="4" stroke-linecap="round"/><path d="M 441.4399 184.8969 C 441.4399 184.8969 424.7002 184.3047 417.8403 182.7759 C 412.729 181.6367 403.9605 176.5439 403.9605 176.5439 " fill="none" stroke="#505050" stroke-width="4" stroke-linecap="round"/><g><path d="M 424.0939 138.7355 C 430.1192 155.2571 419.07 174.4613 399.415 181.6293 C 379.7599 188.7972 358.942 181.2146 352.9167 164.6929 C 346.8915 148.1713 357.9406 128.9671 377.5957 121.7992 C 397.2507 114.6312 418.0687 122.2139 424.0939 138.7355 Z " data-paper-data="{&quot;origPos&quot;:null}" fill="#ff3f3f" stroke="none" stroke-linecap="butt" stroke-width="4"/><path d="M 393.9891 157.4191 C 392.4873 153.3009 394.6082 148.745 398.7264 147.2431 C 402.8446 145.7412 407.4006 147.8622 408.9025 151.9804 C 410.4043 156.0986 408.2834 160.6546 404.1651 162.1564 C 400.0469 163.6583 395.491 161.5373 393.9891 157.4191 Z " data-paper-data="{&quot;origPos&quot;:null}" fill="#000000" stroke="none" stroke-linecap="butt" stroke-width="4"/><path d="M 386.8001 136.1038 C 385.2982 131.9856 387.4192 127.4297 391.5374 125.9278 C 395.6556 124.426 400.2116 126.5469 401.7134 130.6651 C 403.2153 134.7833 401.0943 139.3393 396.9761 140.8411 C 392.8579 142.343 388.3019 140.222 386.8001 136.1038 Z " data-paper-data="{&quot;origPos&quot;:null}" fill="#000000" stroke="none" stroke-linecap="butt" stroke-width="4"/><path d="M 402.8638 145.662 L 413.663 157.7243 " data-paper-data="{&quot;origPos&quot;:null}" fill="none" stroke="#000000" stroke-linecap="round" stroke-width="4"/><path d="M 402.9285 126.8549 L 401.7586 139.4421 " data-paper-data="{&quot;origPos&quot;:null}" fill="none" stroke="#000000" stroke-linecap="round" stroke-width="4"/><path d="M 381.5815 171.1861 C 381.5815 171.1861 367.7762 161.6097 364.8823 153.3133 C 362.7655 147.2448 368.7424 134.3778 368.7424 134.3778 " data-paper-data="{&quot;origPos&quot;:null}" fill="none" stroke="#000000" stroke-linecap="round" stroke-width="4"/></g><g data-paper-data="{&quot;origRot&quot;:0,&quot;index&quot;:null}" stroke-linecap="butt"><path d="M398.45156,307.42559l-5.83523,2.26747l-3.35041,-24.98535l12.52839,-3.60214z" fill="#894c00" stroke-width="0" stroke="none" transform="matrix(1,0,0,1,20.12619,3.72468)"/><path d="M410.09471,350.74133l-5.17477,1.48784l-12.37256,-43.03231l5.17477,-1.48784z" data-paper-data="{&quot;origPos&quot;:null}" fill="#8a8a8a" stroke-width="0" stroke="none" transform="matrix(1,0,0,1,20.12619,3.72468)"/><path d="M411.42832,345.12393l-3.73296,2.40022l-5.28574,-18.38405l4.3407,0.22632z" data-paper-data="{&quot;origPos&quot;:null}" fill="#894c00" stroke-width="0" stroke="none" transform="matrix(1,0,0,1,20.12619,3.72468)"/></g><path d="M 357.1811 187.6906 L 366.7811 187.6906 " fill="none" stroke="#000000" stroke-width="4" stroke-linecap="round"/><path d="M 374.7811 184.8906 C 374.7811 184.8906 378.9489 181.8906 380.9811 181.8906 C 382.9467 181.8906 386.7811 184.8906 386.7811 184.8906 " fill="none" stroke="#000000" stroke-width="4" stroke-linecap="round"/><path d="M336.45493,191.16592c0,-3.31371 2.68629,-6 6,-6c3.31371,0 6,2.68629 6,6c0,3.31371 -2.68629,6 -6,6c-3.31371,0 -6,-2.68629 -6,-6z" fill="#000000" stroke="none" stroke-width="0" stroke-linecap="butt" transform="matrix(1,0,0,1,20.12619,3.72468)"/><path d="M352.85493,190.96592c0,-3.31371 2.68629,-6 6,-6c3.31371,0 6,2.68629 6,6c0,3.31371 -2.68629,6 -6,6c-3.31371,0 -6,-2.68629 -6,-6z" fill="#000000" stroke="none" stroke-width="0" stroke-linecap="butt" transform="matrix(1,0,0,1,20.12619,3.72468)"/></g><g><g><g data-paper-data="{&quot;index&quot;:null}" stroke-linecap="butt"><path d="M 98.2167 316.9804 C 94.9911 327.5687 73.5537 330.418 50.3351 323.3446 C 27.1165 316.2711 10.909 301.9534 14.1347 291.3652 C 17.3604 280.7769 38.7977 277.9275 62.0163 285.001 C 85.2349 292.0744 101.4424 306.3921 98.2167 316.9804 Z " fill="#99712c" stroke="#b28434" stroke-width="2"/><path d="M35.35715,321.31148l10.68241,-34.40743c0,0 21.74769,8.03592 27.41466,19.16953c5.66694,11.13357 -4.73367,25.40196 -4.73367,25.40196z" fill="#a77c31" stroke="none" stroke-width="0" transform="matrix(1,0,0,1,20.12619,3.72468)"/></g><g stroke-linecap="butt"><path d="M 45.0452 327.0658 C 29.5744 331.8977 20.592 324.1612 16.8915 312.3129 C 13.191 300.4645 16.1737 288.991 31.6444 284.1592 C 47.1151 279.3273 69.4035 282.608 73.104 294.4564 C 76.8046 306.3048 60.5159 322.234 45.0452 327.0658 Z " data-paper-data="{&quot;index&quot;:null}" fill="#ffffee" stroke="#000000" stroke-width="1"/><path d="M 46.5579 321.3988 C 41.1532 323.0869 35.8253 321.4252 34.6579 317.6873 C 33.4905 313.9494 36.9255 309.5509 42.3303 307.8628 C 47.735 306.1747 53.0629 307.8365 54.2303 311.5743 C 55.3977 315.3122 51.9627 319.7108 46.5579 321.3988 Z " data-paper-data="{&quot;index&quot;:null}" fill="#80ab52" stroke="#548029" stroke-width="1"/><path d="M 48.1073 292.5352 C 42.7635 292.4335 34.3368 287.7565 34.3902 284.9524 C 34.4436 282.1483 42.6596 281.9701 48.0033 282.0718 C 53.3471 282.1734 61.843 283.2151 61.7896 286.0193 C 61.7362 288.8234 53.451 292.6369 48.1073 292.5352 Z " data-paper-data="{&quot;index&quot;:null}" fill="#80ab52" stroke="#548029" stroke-width="1"/><path d="M 26.1768 309.4949 C 22.5905 310.615 17.3246 310.3994 15.8259 305.6007 C 14.3272 300.8021 16.9802 293.2948 21.0011 291.6375 C 24.4748 290.2057 28.4581 293.9796 29.9568 298.7782 C 31.4555 303.5768 29.7631 308.3749 26.1768 309.495 Z " data-paper-data="{&quot;index&quot;:null}" fill="#80ab52" stroke="#548029" stroke-width="1"/><path d="M 67.7318 309.1644 C 64.7011 310.1109 61.6047 308.8309 60.8159 306.3053 C 60.0271 303.7797 61.8445 300.965 64.8752 300.0184 C 67.906 299.0719 71.0023 300.3519 71.7911 302.8775 C 72.5799 305.4031 70.7625 308.2178 67.7318 309.1644 Z " data-paper-data="{&quot;index&quot;:null}" fill="#80ab52" stroke="#548029" stroke-width="1"/><path d="M 45.0452 327.0658 C 29.5743 331.8977 20.592 324.1612 16.8914 312.3128 C 13.1909 300.4645 16.1736 288.991 31.6444 284.1591 C 47.1152 279.3272 69.4035 282.608 73.104 294.4564 C 76.8045 306.3047 60.5159 322.2339 45.0451 327.0658 Z " data-paper-data="{&quot;index&quot;:null}" fill="none" stroke="#000000" stroke-width="1"/></g><g stroke-linecap="butt"><path d="M 100.0683 292.0342 C 96.8118 307.9115 85.6951 312.0294 73.5354 309.5354 C 61.3758 307.0414 52.7777 298.8799 56.0342 283.0026 C 59.2907 267.1254 72.9457 249.2068 85.1053 251.7008 C 97.265 254.1948 103.3247 276.157 100.0682 292.0342 Z " data-paper-data="{&quot;index&quot;:null}" fill="#ffffee" stroke="#000000" stroke-width="1"/><path d="M 79.6842 278.3314 C 77.9212 286.9273 72.044 292.9835 66.5572 291.8581 C 61.0705 290.7327 52.1995 289.9338 59.1207 273.8549 C 62.5902 265.795 67.4551 259.604 72.9419 260.7294 C 78.4287 261.8548 81.4474 269.7354 79.6843 278.3314 Z " fill="#ff0000" stroke="#de0000" stroke-width="1"/><path d="M 100.5406 278.8563 C 99.6825 283.04 94.6159 279.3234 91.3925 278.6623 C 88.169 278.0011 86.2515 274.0736 87.1096 269.8899 C 87.9677 265.7063 90.4548 258.0235 93.6783 258.6847 C 96.9017 259.3458 101.3987 274.6726 100.5406 278.8563 Z " fill="#ff0000" stroke="#de0000" stroke-width="1"/><path d="M 96.8825 299.8465 C 95.9681 304.3045 92.0299 307.2627 88.0863 306.4538 C 84.1427 305.645 81.687 301.3753 82.6014 296.9174 C 83.5158 292.4593 87.4539 289.5011 91.3975 290.31 C 95.3411 291.1189 97.7968 295.3885 96.8825 299.8465 Z " fill="#ff0000" stroke="#de0000" stroke-width="1"/><path d="M 100.0625 292.0628 C 96.806 307.94 85.6893 312.058 73.5296 309.564 C 61.37 307.07 52.7719 298.9084 56.0284 283.0312 C 59.2849 267.1539 72.9399 249.2353 85.0995 251.7293 C 97.2592 254.2233 103.3189 276.1855 100.0624 292.0628 Z " data-paper-data="{&quot;index&quot;:null}" fill="none" stroke="#000000" stroke-width="1"/></g><g stroke-linecap="butt"><path d="M 94.9856 327.189 C 90.2623 342.6932 78.81 345.7563 66.936 342.1389 C 55.062 338.5216 47.2627 329.5936 51.986 314.0893 C 56.7094 298.5851 71.9762 282.0183 83.8502 285.6357 C 95.7242 289.253 99.7089 311.6847 94.9856 327.189 Z " data-paper-data="{&quot;index&quot;:null}" fill="#ffffee" stroke="#000000" stroke-width="1"/><path d="M 69.9067 315.2564 C 65.6045 327.3185 58.3009 327.024 53.2013 325.4704 C 48.1017 323.9168 52.0481 315.9114 53.4061 310.967 C 58.1621 300.1971 65.6667 289.2582 68.3661 295.0587 C 70.6154 299.892 73.4737 305.2556 69.9068 315.2564 Z " fill="#f3f348" stroke="#d6d841" stroke-width="1"/><path d="M 90.4277 335.9816 C 89.6471 338.5441 83.4169 343.3412 80.9476 342.5889 C 78.4783 341.8367 78.1743 335.0489 78.9549 332.4865 C 79.7356 329.924 82.3702 328.4566 84.8394 329.2088 C 87.3087 329.9611 91.2083 333.4191 90.4277 335.9816 Z " fill="#f3f348" stroke="#d6d841" stroke-width="1"/><path d="M 96.2235 321.7987 C 94.7652 325.9474 89.5924 319.9629 86.4709 319.0119 C 83.3493 318.061 81.8544 313.8908 83.1318 309.6977 C 84.4092 305.5046 90.9988 299.0037 94.1203 299.9546 C 97.2419 300.9056 97.6152 317.8396 96.2235 321.7987 Z " fill="#f3f348" stroke="#d6d841" stroke-width="1"/><path d="M 94.9774 327.2157 C 90.2541 342.7201 78.8018 345.7831 66.9278 342.1657 C 55.0538 338.5483 47.2545 329.6203 51.9778 314.1161 C 56.7012 298.6118 71.968 282.0451 83.842 285.6624 C 95.716 289.2798 99.7007 311.7115 94.9774 327.2157 Z " data-paper-data="{&quot;index&quot;:null}" fill="none" stroke="#000000" stroke-width="1"/></g><g stroke-linecap="butt"><path d="M 68.585 288.6881 C 60.5091 302.7405 48.6616 303.1608 37.8996 296.9758 C 27.1375 290.7908 21.536 280.3428 29.6119 266.2903 C 37.6878 252.2379 56.2774 239.5114 67.0396 245.6964 C 77.8017 251.8814 76.6609 274.6357 68.585 288.6882 Z " data-paper-data="{&quot;index&quot;:null}" fill="#ffffee" stroke="#000000" stroke-width="1"/><path d="M 49.2551 269.1063 C 45.7065 271.6196 41.5333 271.8265 39.934 269.5683 C 38.3346 267.3101 39.9147 263.4421 43.4633 260.9288 C 47.0118 258.4155 51.185 258.2087 52.7844 260.4668 C 54.3837 262.725 52.8036 266.5931 49.2551 269.1063 Z " data-paper-data="{&quot;index&quot;:null}" fill="#4848ab" stroke="#3b3b8d" stroke-width="1"/><path d="M 63.1353 295.2978 C 60.445 298.4066 57.1478 300.4426 54.3373 298.8274 C 51.5268 297.2122 50.9091 293.0132 52.9576 289.4487 C 55.0061 285.8841 58.0166 284.7591 61.7556 285.9191 C 72.7795 289.3389 65.1094 293.0166 63.1353 295.2978 Z " data-paper-data="{&quot;index&quot;:null}" fill="#4848ab" stroke="#3b3b8d" stroke-width="1"/><path d="M 33.4026 277.2197 C 35.6646 278.5197 36.4765 281.3519 35.2159 283.5454 C 33.9553 285.7389 31.0995 286.4633 28.8374 285.1633 C 26.5754 283.8632 25.7635 281.0311 27.0241 278.8376 C 28.2847 276.6441 31.1405 275.9196 33.4026 277.2197 Z " data-paper-data="{&quot;index&quot;:null}" fill="#4848ab" stroke="#3b3b8d" stroke-width="1"/><path d="M 69.6066 251.1969 C 72.5464 250.6465 74.4899 255.0244 74.7071 261.7902 C 74.7685 263.7054 76.9679 271.6696 65.949 272.3067 C 62.9631 272.4793 61.2793 268.7795 62.0853 263.1991 C 62.8912 257.6187 66.6668 251.7474 69.6066 251.197 Z " data-paper-data="{&quot;index&quot;:null}" fill="#4848ab" stroke="#3b3b8d" stroke-width="1"/><path d="M 68.585 288.6881 C 60.5091 302.7406 48.6616 303.1608 37.8995 296.9757 C 27.1374 290.7908 21.5359 280.3428 29.6119 266.2903 C 37.6878 252.2379 56.2774 239.5114 67.0395 245.6964 C 77.8016 251.8814 76.6609 274.6357 68.585 288.6881 Z " data-paper-data="{&quot;index&quot;:null}" fill="none" stroke="#000000" stroke-width="1"/></g><path d="M 98.175 317.1173 C 100.1725 316.4065 71.4664 404.6779 58.9454 400.8203 C 55.2013 399.6668 18.6886 388.544 11.376 385.4033 C -2.984 379.2358 10.3785 314.5018 13.4491 294.5983 C 13.8852 291.7712 16.8693 312.8501 52.1453 323.2974 C 76.1763 330.4145 95.7487 326.365 98.175 317.1173 Z " data-paper-data="{&quot;index&quot;:null}" fill="#eebb44" stroke="#c7933a" stroke-width="2" stroke-linecap="butt"/><g data-paper-data="{&quot;index&quot;:null}"><path d="M15.69075,387.83919l19.99297,-65.6269l36.96059,1.6441l-26.88986,73.14159z" fill="#e1b141" stroke="none" stroke-width="0" stroke-linecap="butt" transform="matrix(1,0,0,1,20.12619,3.72468)"/><path d="M 39.3315 344.2358 L 61.516 350.9942 " fill="none" stroke="#c5923a" stroke-width="2" stroke-linecap="round"/><path d="M 40.601 361.6827 L 56.8436 366.3317 " fill="none" stroke="#c5923a" stroke-width="2" stroke-linecap="round"/><path d="M 39.645 373.6629 L 53.6131 377.9182 " fill="none" stroke="#c5923a" stroke-width="1" stroke-linecap="round"/><path d="M 90.294 329.2326 C 90.294 329.2326 71.9559 335.8096 51.4091 329.164 C 31.5514 322.7413 15.3451 307.6911 15.3451 307.6911 " fill="none" stroke="#b28434" stroke-width="1" stroke-linecap="round"/></g><path d="M 98.175 317.1173 C 100.1725 316.4065 71.4664 404.6779 58.9454 400.8203 C 55.2013 399.6668 18.6886 388.544 11.376 385.4033 C -2.984 379.2358 10.3785 314.5018 13.4491 294.5983 C 13.8852 291.7712 16.8693 312.8501 52.1453 323.2974 C 76.1763 330.4145 95.7487 326.365 98.175 317.1173 Z " data-paper-data="{&quot;index&quot;:null}" fill="none" stroke="#c7933a" stroke-width="2" stroke-linecap="butt"/></g><g data-paper-data="{&quot;index&quot;:null}" stroke-linecap="round"><path d="M 180.667 231.3884 C 180.667 231.3884 181.4392 207.4608 181.3857 184.1429 C 181.3579 171.9934 179.3293 159.1782 180.6413 151.7729 C 183.1284 137.7343 189.6548 104.9534 209.6984 111.2683 C 215.1153 112.1424 233.1929 129.6063 231.6967 169.715 C 224.2749 214.7387 195.0458 237.7591 195.0458 237.7591 Z " fill="#ffffee" stroke="#000000" stroke-width="2"/><path d="M 187.7156 231.0304 C 187.7156 231.0304 193.5324 201.8157 196.5754 179.8341 C 199.6185 157.8526 198.818 128.7281 205.4531 124.4327 C 211.5599 120.4794 221.9329 145.7788 220.1528 160.4903 C 218.3728 175.2019 190.9153 231.5841 190.9153 231.5841 Z " fill="#dd77bb" stroke="#cb6eac" stroke-width="1"/></g><g data-paper-data="{&quot;index&quot;:null}" stroke-linecap="round"><path d="M 114.9782 227.51 C 120.0293 187.7737 94.4758 147.4856 92.0276 118.6203 C 93.4522 109.7778 96.5759 89.5605 108.5077 85.4292 C 125.0773 84.0948 131.1121 87.2013 141.0982 97.348 C 150.9837 107.3925 158.0395 122.2439 158.9671 140.6053 C 159.8946 158.9667 148.7487 198.9287 136.5501 223.3347 Z " fill="#ffffee" stroke="#000000" stroke-width="2"/><path d="M 121.3482 225.2145 C 124.4766 200.604 118.839 159.5395 117.2314 152.4812 C 115.9461 146.8373 109.1504 101.4912 119.7179 100.6402 C 129.9802 99.8137 143.2442 132.3527 143.2137 161.7281 C 143.7881 173.1001 139.322 208.3045 131.7669 223.4203 Z " fill="#dd77bb" stroke="#cb6eac" stroke-width="1"/></g><g stroke-linecap="round"><path d="M 187.3709 381.8488 C 187.3709 381.8488 198.5848 398.6367 197.3883 410.375 C 196.551 418.5894 189.8589 426.2682 185.0307 426.1142 C 158.7814 425.2772 166.2209 406.8506 166.2209 406.8506 C 166.2209 406.8506 157.2534 430.1943 156.864 431.8236 C 156.561 433.0916 148.5321 458.3812 148.5321 458.3812 L 115.0226 448.1727 C 115.0226 448.1727 118.6578 432.3722 115.6137 429.2469 C 112.5696 426.1216 109.0488 430.3773 106.3317 433.5839 C 103.6145 436.7904 100.5641 443.3699 100.5641 443.3699 L 64.8692 432.4956 C 64.8692 432.4956 69.0606 417.2162 70.7205 409.6 C 72.3958 401.9134 74.8753 386.5852 74.8753 386.5852 C 74.8753 386.5852 57.8892 390.7249 51.8489 381.1625 C 45.8087 371.6 48.8806 360.5268 53.393 352.576 C 57.9054 344.6252 74.1907 341.7963 74.1907 341.7963 L 78.0797 340.7896 Z " data-paper-data="{&quot;index&quot;:null}" fill="#ffffee" stroke="#000000" stroke-width="2"/><path d="M 159.6912 376.7841 C 157.2008 385.395 154.5418 431.5345 119.8679 420.6551 C 89.8343 411.2317 103.8331 374.7782 104.4786 362.6096 Z " data-paper-data="{&quot;index&quot;:null}" fill="#dd77bb" stroke="#cb6eac" stroke-width="1"/><path d="M 83.5457 347.3086 C 83.5457 347.3086 89.351 362.7708 84.4942 374.4572 C 81.3771 381.9575 77.2186 384.6072 77.2186 384.6072 " fill="none" stroke="#c7933a" stroke-width="2"/></g><g><path d="M 149.0551 225.6345 C 171.4114 226.2609 196.0406 237.8795 203.5111 242.2243 C 214.976 248.8923 230.4764 298.4285 237.6897 317.8848 C 239.9623 331.3943 236.0228 346.4008 225.599 362.7136 C 218.421 367.4041 208.4512 378.6686 179.4494 380.8401 C 169.6092 381.5769 106.2909 361.6502 98.2774 356.7487 C 54.9726 330.2616 59.3659 288.8167 66.3994 273.1081 C 73.4329 257.3996 73.7464 250.4608 93.2885 239.2367 C 112.8305 228.0127 126.6989 225.0081 149.0551 225.6345 Z " data-paper-data="{&quot;index&quot;:null}" fill="#ffffee" stroke="#000000" stroke-width="2" stroke-linecap="round"/><path d="M 190.4081 317.1759 C 193.4489 307.1944 204.3983 302.8725 214.3798 305.9133 C 224.3613 308.9541 229.4217 320.7209 226.3809 330.7024 C 223.3401 340.684 211.6284 345.5636 201.6468 342.5228 C 191.6653 339.482 187.3673 327.1574 190.4081 317.1759 Z " data-paper-data="{&quot;index&quot;:null}" fill="#dd77bb" stroke="#cb6eac" stroke-width="1" stroke-linecap="butt"/><path d="M 132.1351 299.0201 C 131.2572 303.7997 121.3085 312.0726 109.4746 308.4674 C 97.6406 304.8623 89.9056 293.6328 91.8825 287.3629 C 93.2733 282.9519 98.6267 279.761 113.8506 284.1642 C 129.816 288.7819 132.9018 294.8456 132.1351 299.0201 Z " data-paper-data="{&quot;index&quot;:null}" fill="#dd77bb" stroke="#cb6eac" stroke-width="1" stroke-linecap="butt"/><g data-paper-data="{&quot;index&quot;:null}" stroke-linecap="butt"><path d="M 174.8553 283.4817 C 177.2759 275.5358 185.6797 271.0568 193.6256 273.4775 C 201.5714 275.8981 206.0504 284.3019 203.6298 292.2477 C 201.2091 300.1936 192.8054 304.6726 184.8595 302.252 C 176.9137 299.8313 172.4346 291.4275 174.8553 283.4817 Z " fill="#a93132" stroke="#a93132" stroke-width="1"/><path d="M181.71709,281.51422c0.23758,0.89693 -1.5479,2.52108 -1.71792,3.79568c-0.16566,1.2417 1.28659,2.13571 1.32175,2.89207c0.15487,3.327 -5.29969,5.07953 -5.88734,1.85783c-0.30443,-1.66901 -2.73718,-1.90413 -3.24477,-3.82012c-0.44683,-1.68686 -0.57899,-4.22704 -3.89484,-6.53445c-3.59341,-2.50059 -0.56038,-7.45868 0.98264,-7.86744c1.1875,-0.31457 6.81061,-0.8752 7.02569,2.65716c0.18661,3.064 4.72813,4.42754 5.41471,7.01935z" fill="#ffffff" stroke="#000000" stroke-width="0" transform="matrix(1,0,0,1,20.12619,3.72468)"/></g><g data-paper-data="{&quot;index&quot;:null}" stroke-linecap="butt"><path d="M 132.5261 277.0466 C 134.0582 272.0176 139.377 269.1828 144.406 270.7149 C 149.435 272.2469 152.2699 277.5657 150.7378 282.5947 C 149.2057 287.6237 143.8869 290.4586 138.8579 288.9266 C 133.8289 287.3945 130.994 282.0756 132.5261 277.0466 Z " fill="#a93132" stroke="#a93132" stroke-width="1"/><path d="M121.92363,274.12532c0.65752,-2.15831 2.94019,-3.37493 5.0985,-2.71741c2.15831,0.65752 3.37493,2.94019 2.71741,5.0985c-0.65752,2.15831 -2.94019,3.37493 -5.0985,2.71741c-1.1321,-0.34489 -0.26464,-0.96527 -0.74399,-1.95197c-0.43449,-0.89437 -2.286,-2.12034 -1.97338,-3.14652z" fill="#ffffff" stroke="none" stroke-width="0" transform="matrix(1,0,0,1,20.12619,3.72468)"/></g><g stroke-linecap="butt"><path d="M165.00555,337.41797c-0.50577,1.6602 -1.70305,14.36388 -9.49728,14.19425c-8.49225,-0.18479 -17.06554,-9.65674 -21.35592,-10.96378c-2.93934,-0.89546 -8.68485,1.14484 -13.03472,0.39801c-10.26689,-1.76274 -17.10738,-6.16355 -18.43179,-7.86382c-3.57858,-4.59409 -5.50734,-10.77525 -4.17427,-14.27059c1.68039,-4.40602 12.65329,-9.39387 11.23714,-5.69803c-1.84851,4.82415 -4.92877,6.80331 -2.3451,10.59645c3.9209,5.75638 18.55046,10.40253 22.14662,10.15908c3.17503,-0.21491 4.78132,-15.39177 11.44379,-9.12141c1.46431,1.37816 -2.88658,11.90745 -1.39213,13.51005c1.6028,1.71884 9.77287,4.40416 15.35097,3.27324c5.77513,-1.17089 10.419,-5.41578 10.05274,-4.21353z" fill="#683b48" stroke-width="0" stroke="none" transform="matrix(1,0,0,1,20.12619,3.72468)"/><path d="M156.60073,322.62205c-1.66648,3.58353 -8.29663,6.39898 -18.31324,3.09845c-7.48814,-2.46739 -14.12554,-9.19859 -13.57421,-13.11206c1.02968,-7.30869 12.18982,-1.52389 17.91547,0.17159c6.09313,1.80426 17.44241,2.37921 13.97197,9.84202z" fill="#de5566" stroke-width="0" stroke="none" transform="matrix(1,0,0,1,20.12619,3.72468)"/></g></g></g><g><path d="M 53.016 241.2184 L 36.7756 358.876 L 9.38 424.4339 " fill="none" stroke="#000000" stroke-width="3.5" stroke-linecap="round"/><path d="M 45.2187 429.6982 L 37.5921 356.8743 " fill="none" stroke="#000000" stroke-width="3.5" stroke-linecap="round"/><path d="M 16.4135 195.3836 C 19.7855 170.9545 42.3227 153.8843 66.7518 157.2563 C 91.1809 160.6283 108.251 183.1655 104.8791 207.5945 C 101.5071 232.0236 78.9699 249.0938 54.5408 245.7218 C 30.1118 242.3499 13.0416 219.8127 16.4135 195.3836 Z " fill="#d4d4d4" stroke="#000000" stroke-width="3.5" stroke-linecap="butt"/><path d="M 54.3768 189.8914 C 55.0191 185.2383 59.3119 181.9868 63.965 182.6291 C 68.6182 183.2714 71.8697 187.5642 71.2274 192.2173 C 70.5851 196.8705 66.2923 200.122 61.6392 199.4797 C 56.986 198.8374 53.7345 194.5446 54.3768 189.8914 Z " fill="#000000" stroke="none" stroke-width="2" stroke-linecap="butt"/><path d="M 78.2485 193.1865 C 78.8907 188.5333 83.1836 185.2818 87.8367 185.9241 C 92.4899 186.5664 95.7413 190.8592 95.0991 195.5124 C 94.4568 200.1655 90.1639 203.417 85.5108 202.7747 C 80.8577 202.1324 77.6062 197.8396 78.2485 193.1865 Z " fill="#000000" stroke="none" stroke-width="2" stroke-linecap="butt"/><g><path d="M 45.4056 316.2883 L 40.8613 324.5692 " data-paper-data="{&quot;index&quot;:null}" fill="none" stroke="#996a30" stroke-linecap="round" stroke-width="2"/><path d="M 8.5537 311.0396 L 10.6848 320.2419 " fill="none" stroke="#996a30" stroke-linecap="round" stroke-width="2"/><g stroke-linecap="round"><g data-paper-data="{&quot;index&quot;:null}"><path d="M 8.5373 321.7974 L 2.5317 328.3113 " stroke-width="2" fill="none" stroke="#8f632c"/><path d="M 19.7766 322.3281 L 4.9768 337.3471 " stroke-width="2" fill="none" stroke="#8f632c"/><path d="M 10.1336 344.9498 L 29.9407 323.8194 " stroke-width="2" fill="none" stroke="#8f632c"/><path d="M 40.6684 325.7806 L 16.6463 351.836 " stroke-width="2" fill="none" stroke="#8f632c"/><path d="M 44.9619 333.3772 L 27.6845 352.117 " stroke-width="2" fill="none" stroke="#8f632c"/><path d="M 39.4355 326.1753 L 44.8112 336.7453 " stroke-width="2" fill="none" stroke="#8f632c"/><path d="M 40.6577 345.2093 L 29.3327 323.1018 " stroke-width="2" fill="none" stroke="#8f632c"/><path d="M 34.1584 351.3161 L 19.1141 322.0056 " stroke-width="2" fill="none" stroke="#8f632c"/><path d="M 8.9108 321.3673 L 24.64 351.9771 " stroke-width="2" fill="none" stroke="#8f632c"/><path d="M 14.9492 350.4721 L 3.0855 327.1451 " stroke-width="2" fill="none" stroke="#8f632c"/></g><path d="M 1.4654 323.6697 C 1.4654 323.6697 10.9084 318.6497 25.3452 320.8111 C 39.2011 322.8857 48.8293 330.2074 48.8293 330.2074 " data-paper-data="{&quot;index&quot;:null}" stroke="#a77333" stroke-width="2" fill="none"/></g><g stroke-linecap="butt"><path d="M 24.8656 335.5589 C 20.5608 335.7809 18.7583 333.1941 18.5883 329.8972 C 18.4183 326.6004 19.9452 323.8419 24.25 323.62 C 28.5548 323.398 34.0795 325.7166 34.2495 329.0134 C 34.4195 332.3103 29.1704 335.3369 24.8656 335.5589 Z " data-paper-data="{&quot;index&quot;:null}" fill="#ffffee" stroke="#000000" stroke-width="2"/><path d="M 27.0319 329.3963 C 24.7013 329.5165 22.7498 328.408 22.673 326.9203 C 22.5963 325.4327 22.2096 323.0956 26.811 323.8036 C 29.1176 324.1585 31.0363 324.9975 31.113 326.4851 C 31.1897 327.9728 29.3625 329.2761 27.0319 329.3963 Z " fill="#ff0000" stroke="#de0000" stroke-width="2"/><path d="M 28.2896 334.8005 C 27.1553 334.859 27.7737 333.3065 27.7286 332.4325 C 27.6836 331.5585 28.5665 330.8026 29.7009 330.7441 C 30.8352 330.6856 32.9791 330.8128 33.0242 331.6868 C 33.0692 332.5608 29.4239 334.742 28.2896 334.8005 Z " fill="#ff0000" stroke="#de0000" stroke-width="2"/><path d="M 22.6417 335.2605 C 21.433 335.3229 20.4085 334.5066 20.3534 333.4374 C 20.2982 332.3682 21.2334 331.4508 22.4421 331.3885 C 23.6508 331.3262 24.6753 332.1424 24.7304 333.2117 C 24.7856 334.2809 23.8504 335.1982 22.6417 335.2605 Z " fill="#ff0000" stroke="#de0000" stroke-width="2"/><path d="M 24.8579 335.5593 C 20.5531 335.7813 18.7506 333.1945 18.5806 329.8977 C 18.4106 326.6008 19.9374 323.8423 24.2422 323.6204 C 28.5471 323.3984 34.0718 325.717 34.2418 329.0138 C 34.4118 332.3107 29.1627 335.3373 24.8579 335.5593 Z " data-paper-data="{&quot;index&quot;:null}" fill="none" stroke="#000000" stroke-width="2"/></g><g stroke-linecap="butt"><path d="M 34.1225 345.162 C 33.4395 350.1105 30.1031 351.6 26.3133 351.0769 C 22.5235 350.5538 19.7154 348.2161 20.3984 343.2677 C 21.0815 338.3192 24.9217 332.5343 28.7115 333.0574 C 32.5013 333.5805 34.8056 340.2135 34.1225 345.162 Z " data-paper-data="{&quot;index&quot;:null}" fill="#ffffee" stroke="#000000" stroke-width="2"/><path d="M 25.9092 342.7508 C 25.1869 346.6312 22.9497 346.8969 21.3221 346.6723 C 19.6945 346.4476 20.506 343.8191 20.6787 342.2483 C 21.602 338.7391 23.3537 335.0447 24.4575 336.6787 C 25.3773 338.0402 26.5082 339.5335 25.9092 342.7508 Z " fill="#f3f348" stroke="#d6d841" stroke-width="2"/><path d="M 33.1632 348.0598 C 33.0503 348.8776 31.3876 350.6408 30.5995 350.532 C 29.8114 350.4232 29.3886 348.3722 29.5015 347.5543 C 29.6144 346.7365 30.3448 346.1617 31.1329 346.2705 C 31.921 346.3793 33.2761 347.2419 33.1632 348.0598 Z " fill="#f3f348" stroke="#d6d841" stroke-width="2"/><path d="M 34.237 343.4613 C 33.9951 344.7949 32.1295 343.2252 31.1332 343.0877 C 30.1369 342.9502 29.479 341.7538 29.6638 340.4155 C 29.8485 339.0772 31.5377 336.778 32.5339 336.9155 C 33.5302 337.053 34.4679 342.1886 34.237 343.4613 Z " fill="#f3f348" stroke="#d6d841" stroke-width="2"/><path d="M 34.1213 345.1705 C 33.4383 350.119 30.1019 351.6085 26.3121 351.0854 C 22.5223 350.5623 19.7142 348.2246 20.3972 343.2762 C 21.0803 338.3277 24.9205 332.5428 28.7103 333.0659 C 32.5001 333.5891 34.8043 340.2221 34.1213 345.1706 Z " data-paper-data="{&quot;index&quot;:null}" fill="none" stroke="#000000" stroke-width="2"/></g><g stroke-linecap="butt"><path d="M 18.935 336.3573 C 20.4325 341.2829 17.9535 344.1173 14.1813 345.2642 C 10.409 346.4111 6.7719 345.4361 5.2744 340.5105 C 3.7769 335.5849 4.8726 328.5134 8.6449 327.3666 C 12.4171 326.2197 17.4375 331.4318 18.935 336.3573 Z " data-paper-data="{&quot;index&quot;:null}" fill="#ffffee" stroke="#000000" stroke-width="2"/><path d="M 17.1387 335.8632 C 17.6618 337.5839 17.1212 339.2722 15.9311 339.634 C 14.7411 339.9959 13.3522 338.8942 12.8291 337.1734 C 12.3059 335.4527 12.8466 333.7644 14.0366 333.4026 C 15.2267 333.0407 16.6155 334.1424 17.1387 335.8632 Z " data-paper-data="{&quot;index&quot;:null}" fill="#27ab00" stroke="#1b8000" stroke-width="2"/><path d="M 7.9745 335.3016 C 7.9294 336.9987 6.4235 339.664 5.533 339.6403 C 4.6425 339.6166 4.6057 337.0065 4.6508 335.3094 C 4.696 333.6123 5.0473 330.9163 5.9378 330.94 C 6.8284 330.9637 8.0197 333.6045 7.9746 335.3016 Z " data-paper-data="{&quot;index&quot;:null}" fill="#27ab00" stroke="#1b8000" stroke-width="2"/><path d="M 13.3086 342.3081 C 13.6558 343.45 13.5746 345.122 12.0468 345.5865 C 10.5191 346.051 8.1409 345.1902 7.6242 343.9091 C 7.1777 342.8023 8.386 341.5462 9.9138 341.0817 C 11.4416 340.6172 12.9615 341.1663 13.3087 342.3081 Z " data-paper-data="{&quot;index&quot;:null}" fill="#27ab00" stroke="#1b8000" stroke-width="2"/><path d="M 13.3037 329.1083 C 13.5971 330.0732 13.183 331.0536 12.3789 331.2981 C 11.5748 331.5426 10.6852 330.9585 10.3918 329.9936 C 10.0984 329.0287 10.5125 328.0483 11.3165 327.8038 C 12.1207 327.5594 13.0103 328.1434 13.3037 329.1083 Z " data-paper-data="{&quot;index&quot;:null}" fill="#27ab00" stroke="#1b8000" stroke-width="2"/><path d="M 18.935 336.3573 C 20.4325 341.2829 17.9536 344.1174 14.1813 345.2642 C 10.409 346.4111 6.7719 345.4361 5.2744 340.5105 C 3.7769 335.5849 4.8726 328.5134 8.6449 327.3666 C 12.4171 326.2197 17.4375 331.4318 18.935 336.3574 Z " data-paper-data="{&quot;index&quot;:null}" fill="none" stroke="#000000" stroke-width="2"/></g><path d="M 48.2807 330.5561 C 48.4778 331.2526 48.5339 331.9726 48.4316 332.7137 C 46.6323 345.7489 34.6065 354.8575 21.5713 353.0583 C 8.536 351.259 -0.5726 339.2332 1.2267 326.1979 C 1.3845 325.0547 1.8915 324.0619 2.6841 323.2106 " fill="none" stroke="#a77333" stroke-linecap="butt" stroke-width="2"/><g stroke-linecap="round"><path d="M 41.7263 333.8667 L 46.1788 339.7452 " stroke-width="2" fill="none" stroke="#a77333"/><path d="M 32.968 333.9535 L 41.5991 345.3488 " stroke-width="2" fill="none" stroke="#a77333"/><path d="M 21.7053 332.237 L 34.6519 349.3299 " stroke-width="2" fill="none" stroke="#a77333"/><path d="M 8.7108 328.9856 L 26.5209 352.4997 " stroke-width="2" fill="none" stroke="#a77333"/><path d="M 2.6268 333.1668 L 15.4363 350.0789 " stroke-width="2" fill="none" stroke="#a77333"/><path d="M 1.9798 335.507 L 9.848 329.5475 " stroke-width="2" fill="none" stroke="#a77333"/><path d="M 4.1221 342.2814 L 18.6828 331.2529 " stroke-width="2" fill="none" stroke="#a77333"/><path d="M 9.1638 347.9983 L 29.3317 332.7228 " stroke-width="2" fill="none" stroke="#a77333"/><path d="M 17.2585 351.5452 L 42.0388 332.7761 " stroke-width="2" fill="none" stroke="#a77333"/><path d="M 45.9021 338.8162 L 28.5378 351.9683 " stroke-width="2" fill="none" stroke="#a77333"/></g><g data-paper-data="{&quot;index&quot;:null}" stroke-linecap="butt"><path d="M 15.1882 328.8575 C 11.125 329.0846 5.8918 326.7746 5.7179 323.6629 C 5.544 320.5511 10.4952 317.8159 14.5584 317.5888 C 18.6215 317.3617 20.3337 319.7965 20.5076 322.9083 C 20.6816 326.02 19.2513 328.6304 15.1882 328.8575 Z " data-paper-data="{&quot;index&quot;:null}" fill="#ffffee" stroke="#000000" stroke-width="2"/><path d="M 10.6389 322.1305 C 10.3127 321.5171 10.8297 320.6042 11.7937 320.0916 C 12.7576 319.5789 13.8036 319.6606 14.1298 320.2741 C 14.456 320.8875 13.939 321.8004 12.9751 322.313 C 12.0111 322.8257 10.9652 322.744 10.6389 322.1305 Z " data-paper-data="{&quot;index&quot;:null}" fill="#4848ab" stroke="#3b3b8d" stroke-width="2"/><path d="M 15.3371 327.0132 C 15.4985 326.0436 16.0904 325.4951 17.121 325.4375 C 18.1517 325.3799 19.024 325.992 19.0694 326.8046 C 19.1148 327.6172 18.2863 328.1273 17.2855 328.3803 C 16.5511 328.5659 14.8612 329.8719 15.3371 327.0132 Z " data-paper-data="{&quot;index&quot;:null}" fill="#4848ab" stroke="#3b3b8d" stroke-width="2"/><path d="M 17.665 318.4232 C 18.2992 318.3877 18.843 318.8892 18.8796 319.5433 C 18.9161 320.1973 18.4316 320.7563 17.7974 320.7918 C 17.1631 320.8272 16.6193 320.3257 16.5828 319.6717 C 16.5462 319.0176 17.0308 318.4586 17.665 318.4232 Z " data-paper-data="{&quot;index&quot;:null}" fill="#4848ab" stroke="#3b3b8d" stroke-width="2"/><path d="M 10.2031 324.5251 C 11.5458 324.9736 12.1859 325.7685 11.8105 326.4189 C 10.425 328.819 8.8864 327.4275 8.4637 327.1977 C 6.9704 326.3861 6.2074 325.4564 6.6624 324.859 C 7.1174 324.2615 8.8603 324.0766 10.2031 324.5251 Z " data-paper-data="{&quot;index&quot;:null}" fill="#4848ab" stroke="#3b3b8d" stroke-width="2"/><path d="M 15.1882 328.8575 C 11.125 329.0846 5.8918 326.7746 5.7179 323.6628 C 5.544 320.5511 10.4952 317.8159 14.5584 317.5888 C 18.6215 317.3617 20.3337 319.7965 20.5076 322.9082 C 20.6816 326.02 19.2513 328.6304 15.1882 328.8575 Z " data-paper-data="{&quot;index&quot;:null}" fill="none" stroke="#000000" stroke-width="2"/></g><g stroke-linecap="butt"><path d="M 45.1323 336.499 C 43.3204 340.5873 40.0815 341.0434 36.9505 339.6558 C 33.8194 338.2682 31.9819 335.5623 33.7937 331.474 C 35.6055 327.3857 40.3405 323.3588 43.4716 324.7464 C 46.6026 326.134 46.9441 332.4107 45.1323 336.499 Z " data-paper-data="{&quot;index&quot;:null}" fill="#ffffee" stroke="#000000" stroke-width="2"/><path d="M 39.2648 331.6817 C 38.3634 332.4734 37.2242 332.6502 36.7204 332.0766 C 36.2166 331.5029 36.5389 330.3961 37.4403 329.6044 C 38.3417 328.8126 39.4809 328.6358 39.9848 329.2095 C 40.4886 329.7832 40.1663 330.89 39.2648 331.6817 Z " data-paper-data="{&quot;index&quot;:null}" fill="#4848ab" stroke="#3b3b8d" stroke-width="2"/><path d="M 43.827 338.4694 C 43.1782 339.3999 42.332 340.0534 41.5143 339.691 C 40.6966 339.3287 40.4064 338.1942 40.8659 337.1572 C 41.3255 336.1202 42.1192 335.7249 43.1786 335.9356 C 46.302 336.5569 44.303 337.7867 43.827 338.4694 Z " data-paper-data="{&quot;index&quot;:null}" fill="#4848ab" stroke="#3b3b8d" stroke-width="2"/><path d="M 35.1483 334.364 C 35.8064 334.6557 36.1106 335.4095 35.8278 336.0476 C 35.545 336.6858 34.7822 336.9667 34.1241 336.6751 C 33.4659 336.3834 33.1617 335.6296 33.4445 334.9914 C 33.7274 334.3533 34.4901 334.0724 35.1483 334.364 Z " data-paper-data="{&quot;index&quot;:null}" fill="#4848ab" stroke="#3b3b8d" stroke-width="2"/><path d="M 44.3342 326.1819 C 45.125 325.9463 45.7843 327.0917 46.0385 328.942 C 46.1104 329.4658 46.943 331.5879 43.9377 332.0797 C 43.1234 332.2129 42.5549 331.2461 42.6155 329.6916 C 42.6762 328.1372 43.5433 326.4175 44.3342 326.1819 Z " data-paper-data="{&quot;index&quot;:null}" fill="#4848ab" stroke="#3b3b8d" stroke-width="2"/><path d="M 45.1323 336.499 C 43.3204 340.5873 40.0816 341.0434 36.9505 339.6558 C 33.8194 338.2682 31.9819 335.5623 33.7937 331.474 C 35.6055 327.3856 40.3405 323.3588 43.4716 324.7464 C 46.6026 326.134 46.9441 332.4106 45.1323 336.499 Z " data-paper-data="{&quot;index&quot;:null}" fill="none" stroke="#000000" stroke-width="2"/></g><path d="M 3.4662 324.4285 L 8.2577 310.8368 " data-paper-data="{&quot;index&quot;:null}" fill="none" stroke="#996a30" stroke-linecap="round" stroke-width="2"/><path d="M 8.4825 310.3819 C 8.4825 310.3819 13.8821 300.1134 28.6852 302.4806 C 44.9901 305.088 45.8112 315.6964 45.8112 315.6964 " fill="none" stroke="#996a30" stroke-linecap="round" stroke-width="2"/><path d="M 45.7454 316.1732 L 46.6757 330.5547 " data-paper-data="{&quot;index&quot;:null}" fill="none" stroke="#996a30" stroke-linecap="round" stroke-width="2"/><path d="M 48.8516 330.0452 C 48.8516 330.0452 37.6001 334.4849 23.7003 332.7283 C 9.2177 330.898 1.4878 323.5075 1.4878 323.5075 " fill="none" stroke="#a77333" stroke-linecap="round" stroke-width="2"/></g><path d="M 27.1742 304.0334 C 27.1742 304.0334 33.6575 280.5761 37.6312 271.6208 C 40.3848 265.4152 48.7289 255.4567 48.7289 255.4567 " fill="none" stroke="#000000" stroke-width="3.5" stroke-linecap="round"/><path d="M 90.834 286.1093 C 90.834 286.1093 61.2286 284.5437 59.8295 274.8468 C 58.8599 268.1273 53.5256 256.2808 53.5256 256.2808 " data-paper-data="{&quot;index&quot;:null}" fill="none" stroke="#000000" stroke-width="3.5" stroke-linecap="round"/><path d="M 83.1553 223.5019 C 83.08 224.0473 81.5636 226.0127 81.6216 227.1097 C 81.7269 229.1021 84.0801 231.2958 82.5794 231.7669 C 81.022 232.2558 79.5146 230.002 76.6061 228.8602 C 74.8676 228.1776 72.7778 227.0432 71.4089 226.8542 C 69.2365 226.5544 67.1396 224.5764 65.0538 225.2998 C 63.6323 225.7929 62.0679 229.1899 61.0685 228.7681 C 59.9601 228.3002 61.5728 225.9438 61.1326 224.3467 C 60.654 222.6099 58.5004 223.5455 58.0807 221.2286 C 57.7982 219.6689 59.8087 219.5607 60.0868 218.1803 C 60.4544 216.3557 59.8525 213.6213 61.6262 213.2547 C 62.8338 213.005 65.4623 215.4732 67.4812 216.432 C 69.2931 217.2925 71.0956 218.6451 72.5149 218.8411 C 73.598 218.9905 74.8471 216.3855 76.1886 216.8064 C 77.6257 217.2575 77.5158 219.7724 78.9081 220.1362 C 80.4205 220.5314 84.8194 220.0679 85.6011 220.5506 C 87.8196 221.9206 83.377 221.8963 83.1553 223.5019 Z " fill="#966239" stroke="none" stroke-width="2" stroke-linecap="butt"/><path d="M 80.9638 222.6302 C 80.9638 222.6302 74.7641 224.15 71.7546 223.7346 C 68.6481 223.3058 62.6063 220.0963 62.6063 220.0963 " fill="none" stroke="#000000" stroke-width="2" stroke-linecap="round"/><path d="M 57.7206 214.7885 C 58.5105 215.5492 59.0574 216.8988 58.5503 217.4253 C 58.0432 217.9519 56.674 217.456 55.8842 216.6953 C 55.0944 215.9346 55.183 215.1972 55.6901 214.6706 C 56.1972 214.1441 56.9308 214.0278 57.7206 214.7885 Z " fill="#966239" stroke="none" stroke-width="2" stroke-linecap="butt"/><path d="M 88.0969 227.006 C 88.028 227.7337 87.5265 228.2816 86.4348 228.1782 C 85.3431 228.0749 84.0747 227.3596 84.1436 226.6318 C 84.2125 225.904 85.5926 225.4393 86.6842 225.5427 C 87.7759 225.646 88.1658 226.2782 88.0969 227.006 Z " data-paper-data="{&quot;index&quot;:null}" fill="#966239" stroke="none" stroke-width="2" stroke-linecap="butt"/><g stroke-linecap="butt"><path d="M 97.0267 285.3945 C 96.0625 292.3798 91.3529 294.4824 86.0031 293.7439 C 80.6534 293.0055 76.6895 289.7057 77.6536 282.7204 C 78.0775 279.6499 79.3624 276.3514 81.1238 273.6812 C 81.1774 273.7723 81.2342 273.8615 81.2941 273.9485 C 81.2911 273.9662 81.2883 273.984 81.2859 274.0018 C 81.2627 274.1696 81.264 274.3351 81.2869 274.4948 C 81.2561 274.7905 81.4906 274.9825 81.701 275.1653 C 81.9727 275.555 82.3061 275.7701 82.8138 275.8402 C 83.1989 275.8934 83.5514 275.9692 83.8694 275.7981 C 83.9298 275.9182 84.0064 276.0266 84.0958 276.1232 C 84.3685 276.4767 84.7955 276.5763 85.2728 276.6422 C 86.0115 276.7441 86.6856 276.5244 87.031 275.912 C 87.07 275.8471 87.1046 275.7779 87.1343 275.7045 C 87.3169 275.8043 87.3466 275.6436 87.5649 275.6737 C 88.5305 275.807 89.2839 275.0105 89.4172 274.045 C 89.4807 273.5849 89.6721 273.4932 89.4247 273.1409 C 90.1165 272.9802 90.2675 272.3524 90.3705 271.6069 C 90.4895 270.7446 90.3676 269.9977 89.5662 269.7409 C 89.7217 269.5562 89.8286 269.3268 89.8641 269.0701 C 89.8978 268.8258 89.8626 268.588 89.7733 268.3761 C 94.8932 269.498 97.9675 278.5783 97.0267 285.3944 Z " data-paper-data="{&quot;index&quot;:null}" fill="#966239" stroke="#000000" stroke-width="2"/><path d="M 97.3624 285.8162 C 96.3982 292.8015 91.6886 294.9041 86.3388 294.1657 C 80.9891 293.4273 77.0251 290.1274 77.9893 283.1421 C 78.1487 281.9873 78.4299 280.8003 78.8125 279.6266 C 80.3444 280.5818 82.5434 281.2353 84.4475 281.4981 C 87.5694 281.929 90.0326 280.7372 92.4049 279.227 C 93.7888 278.346 95.3903 277.6848 96.419 276.31 C 97.4077 279.3303 97.7793 282.7956 97.3624 285.8162 Z " data-paper-data="{&quot;index&quot;:null}" fill="#ffffee" stroke="#000000" stroke-width="2"/><path d="M 82.7991 286.7587 C 80.4521 286.4347 76.7249 286.3353 78.8633 279.7339 C 79.3739 280.0485 79.8 280.9092 80.3152 281.1769 C 81.3313 281.705 82.4697 281.5509 83.7165 281.723 C 84.3194 281.8062 85.1252 282.1941 85.7174 282.1955 C 86.4428 282.1973 87.227 281.6399 87.9264 281.5264 C 87.157 284.7818 84.992 287.0613 82.7991 286.7586 Z " fill="#ff0000" stroke="#de0000" stroke-width="2"/><path d="M 97.0448 280.1323 C 96.7908 281.9729 94.4859 280.5029 93.0677 280.3071 C 92.7439 280.2624 93.2889 279.5585 93.0232 279.3771 C 94.6269 278.4685 95.3505 278.0277 96.4568 276.5392 C 96.9795 278.0886 97.1476 279.3875 97.0448 280.1323 Z " fill="#ff0000" stroke="#de0000" stroke-width="2"/><path d="M 96.0101 289.1293 C 95.7394 291.0906 94.1134 292.4864 92.3784 292.247 C 90.6433 292.0075 89.4563 290.2234 89.727 288.262 C 89.9977 286.3007 91.6237 284.9049 93.3587 285.1444 C 95.0938 285.3839 96.2808 287.168 96.0101 289.1293 Z " fill="#ff0000" stroke="#de0000" stroke-width="2"/><path d="M 97.2925 285.8066 C 96.3283 292.7919 91.6186 294.8945 86.2689 294.156 C 80.9192 293.4176 76.9552 290.1178 77.9194 283.1325 C 78.0788 281.9777 78.36 280.7907 78.7425 279.6169 C 78.9282 279.7327 79.1774 279.4069 79.3695 279.5138 C 79.4921 279.5819 79.5556 280.0853 79.6807 280.1497 C 80.0012 280.3148 80.3945 280.9216 80.7308 281.061 C 81.3265 281.3077 81.8816 281.0587 82.5219 281.2185 C 82.7265 281.2695 82.9484 280.7453 83.1572 280.7869 C 83.4173 280.8388 83.6655 281.4538 83.9318 281.4906 C 84.1082 281.5149 84.7924 282.0002 85.4398 282.0083 C 86.324 282.0193 87.2495 281.541 87.73 281.4682 C 88.1586 281.4033 88.3641 280.5876 88.7799 280.482 C 89.5531 280.2856 90.5195 280.7503 91.2365 280.4224 C 91.8704 280.1325 91.674 279.1733 92.2523 278.7895 C 92.8088 278.4202 94.1421 278.6295 94.6371 278.1808 C 94.8864 277.9548 94.8216 277.168 95.0535 276.9232 C 95.405 276.5523 96.0413 276.7116 96.3491 276.3004 C 97.3378 279.3206 97.7094 282.7859 97.2924 285.8066 Z " data-paper-data="{&quot;index&quot;:null}" fill="none" stroke="#000000" stroke-width="2"/><path d="M 96.345 276.3058 C 97.3355 279.3277 97.708 282.7961 97.2907 285.8191 L 97.2907 285.8191 C 96.3265 292.8044 91.6169 294.907 86.2672 294.1686 C 80.9174 293.4302 76.9535 290.1303 77.9177 283.145 C 78.0776 281.9865 78.3601 280.7956 78.7445 279.6181 " data-paper-data="{&quot;index&quot;:null}" fill="none" stroke="#000000" stroke-width="2"/></g></g><text transform="matrix(1.10263,0,0,1.10263,31.43029,49.10479)" font-size="40" xml:space="preserve" fill="#db2121" fill-rule="nonzero" stroke="#e43434" stroke-width="2" stroke-linecap="butt" stroke-linejoin="miter" stroke-miterlimit="10" stroke-dasharray="" stroke-dashoffset="0" font-family="Serif" font-weight="normal" text-anchor="start" style="mix-blend-mode: normal"><tspan x="0" dy="0">TWO PLAYER BATTLE</tspan></text><text transform="matrix(1.38893,0,0,1.38893,156.09557,98.34805)" font-size="40" xml:space="preserve" fill="#6cff66" fill-rule="nonzero" stroke="#08a900" stroke-width="1" stroke-linecap="butt" stroke-linejoin="miter" stroke-miterlimit="10" stroke-dasharray="" stroke-dashoffset="0" font-family="Serif" font-weight="normal" text-anchor="start" style="mix-blend-mode: normal"><tspan x="0" dy="0">EASTER</tspan></text><path d="" data-paper-data="{&quot;origPos&quot;:null}" fill="#c80000" stroke="#c80000" stroke-width="2.5" stroke-linecap="butt" transform="matrix(1,0,0,1,20.12619,3.72468)"/><path d="M 118.2811 55.7247 L 387.2811 55.7247 " fill="none" stroke="#6cff66" stroke-width="2.5" stroke-linecap="round"/><g><path d="M 334.0784 456.204 L 318.476 405.8019 L 318.476 318.6481 " data-paper-data="{&quot;origPos&quot;:null}" fill="none" stroke="#c80000" stroke-width="3.5" stroke-linecap="round"/><path d="M 352.2179 277.615 C 352.2179 302.4666 340.5193 282.9817 317.5304 282.9817 C 299.9013 282.9817 295.7754 291.3907 287.1181 276.7693 C 279.6876 264.22 306.257 251.5644 306.257 237.1583 C 306.257 228.9598 316.2172 229.1856 324.4908 226.9133 C 329.2585 225.6039 325.0058 213.1127 329.9501 212.7142 C 338.4738 212.0273 340.9606 223.7335 340.0782 231.8345 C 339.4886 237.2469 326.5696 242.0325 329.269 246.8287 C 333.9728 255.1865 352.218 252.7634 352.218 277.615 Z " data-paper-data="{&quot;origPos&quot;:null,&quot;index&quot;:null}" fill="url(#color-3-,0,0,1,20.12619,3.72468)" stroke="#c80000" stroke-width="2" stroke-linecap="butt"/><path d="M 317.3474 320.0419 C 299.2518 320.0419 284.5824 305.3725 284.5824 287.2769 C 284.5824 269.1813 299.2518 254.5119 317.3474 254.5119 C 335.443 254.5119 350.1125 269.1813 350.1125 287.2769 C 350.1125 305.3725 335.4431 320.0419 317.3474 320.0419 Z " data-paper-data="{&quot;origPos&quot;:null}" fill="url(#color-4-,0,0,1,20.12619,3.72468)" stroke="#c80000" stroke-width="2.5" stroke-linecap="butt"/><path d="M 318.7309 403.9412 L 303.1285 455.9491 " data-paper-data="{&quot;origPos&quot;:null}" fill="none" stroke="#c80000" stroke-width="3.5" stroke-linecap="round"/><path d="M 342.5255 364.8866 C 342.5255 364.8866 331.3312 364.0414 329.2787 358.5077 C 325.4467 348.1763 321.5268 329.7137 321.5268 329.7137 " data-paper-data="{&quot;origPos&quot;:null,&quot;index&quot;:null}" fill="none" stroke="#c80000" stroke-width="3.5" stroke-linecap="round"/><path d="M 317.3269 329.428 C 317.3269 329.428 312.1233 347.5849 306.3059 358.5432 C 304.1891 362.5307 294.9245 366.4297 294.9245 366.4297 " data-paper-data="{&quot;origPos&quot;:null,&quot;index&quot;:null}" fill="none" stroke="#c80000" stroke-width="3.5" stroke-linecap="round"/><path d="M294.97442,280.35161c-2.73154,0 -4.9459,-2.21436 -4.9459,-4.9459c0,-2.73154 2.21436,-4.9459 4.9459,-4.9459c2.73154,0 4.9459,2.21436 4.9459,4.9459c0,2.73154 -2.21436,4.9459 -4.9459,4.9459z" data-paper-data="{&quot;origPos&quot;:null}" fill="#c80000" stroke="none" stroke-width="0" stroke-linecap="butt" transform="matrix(1,0,0,1,20.12619,3.72468)"/><path d="M 294.2454 272.2634 C 294.2454 272.2634 297.8138 270.1836 299.6427 270.2652 C 301.3705 270.3422 304.9329 272.7398 304.9329 272.7398 " data-paper-data="{&quot;origPos&quot;:null,&quot;origRot&quot;:0}" fill="none" stroke="#c80000" stroke-width="2.5" stroke-linecap="round"/><path d="M279.17475,280.53662c-2.73154,0 -4.9459,-2.21434 -4.9459,-4.94589c0,-2.73154 2.21436,-4.9459 4.9459,-4.9459c2.73155,0 4.9459,2.21435 4.9459,4.9459c0,2.73154 -2.21434,4.94589 -4.9459,4.94589z" data-paper-data="{&quot;origPos&quot;:null}" fill="#c80000" stroke="none" stroke-width="0" stroke-linecap="butt" transform="matrix(1,0,0,1,20.12619,3.72468)"/><g data-paper-data="{&quot;origRot&quot;:0,&quot;index&quot;:null}" stroke-linecap="butt"><path d="M320.56937,361.17221c-3.05287,-0.64655 -5.28194,-2.33111 -5.07653,-3.30098c0.20539,-0.96987 2.84675,-1.23197 5.89961,-0.58542c3.05286,0.64656 5.36117,1.95693 5.15576,2.9268c-0.2054,0.96987 -2.92599,1.60615 -5.97885,0.9596z" data-paper-data="{&quot;origPos&quot;:null}" fill="#ffca00" stroke-width="0" stroke="none" transform="matrix(1,0,0,1,20.12619,3.72468)"/><path d="M332.12216,340.91777c0,0 -0.6168,0.89377 -1.16405,3.06775c-0.57604,2.28824 0.47309,4.43812 0.23807,5.96176c-0.23502,1.52366 -1.33498,1.74496 -1.69493,3.48309c-0.35996,1.73814 0.60951,3.21474 0.05289,4.44597c-1.10198,2.43754 -3.64464,3.50594 -5.67918,2.38638c-2.03455,-1.11956 -2.79057,-4.00318 -1.6886,-6.4407c0.61394,-1.35801 2.20252,-1.17864 2.82942,-1.99482c0.62691,-0.81619 0.02547,-1.56581 0.69649,-2.59561c0.67103,-1.0298 1.38448,-0.33103 2.23738,-1.90685c0.85286,-1.57584 0.44038,-3.09245 1.20901,-4.4609c0.72671,-1.29385 2.96346,-1.94608 2.96346,-1.94608z" data-paper-data="{&quot;origPos&quot;:null,&quot;origRot&quot;:0,&quot;index&quot;:null}" fill="url(#color-5)" stroke-width="0" stroke="none" transform="matrix(1,0,0,1,20.12619,3.72468)"/><path d="M320.22524,343.76373c0.19427,1.34349 -0.75432,2.3582 -0.56027,3.89321c0.19408,1.535 1.11296,1.26381 1.34441,2.30955c0.23145,1.04575 -0.6034,1.39818 -0.33242,2.26266c0.27097,0.86448 1.80063,1.32204 1.85642,2.59946c0.10014,2.29287 -1.67742,4.23278 -3.9703,4.33292c-2.29286,0.10014 -4.23278,-1.67742 -4.33292,-3.9703c-0.05056,-1.15815 1.39574,-1.93311 1.71634,-3.40835c0.3206,-1.47524 -0.60897,-2.05847 -0.25381,-3.32148c0.35516,-1.263 2.12734,-2.52721 2.45537,-4.5077c0.31166,-1.88159 0.07911,-2.80211 0.07911,-2.80211c0,0 1.8144,1.34188 1.99809,2.61214z" data-paper-data="{&quot;origPos&quot;:null,&quot;origRot&quot;:0,&quot;index&quot;:null}" fill="url(#color-6)" stroke-width="0" stroke="none" transform="matrix(1,0,0,1,20.12619,3.72468)"/><path d="M327.15746,335.7305c0,0 -0.58347,1.19933 -0.83777,3.88652c-0.26768,2.82842 1.42472,5.1019 1.42805,6.94936c0.00331,1.84746 -1.29899,2.3731 -1.40747,4.50281c-0.10849,2.12972 1.35812,3.6311 0.91258,5.21253c-0.88208,3.13086 -3.7863,5.0004 -6.48673,4.17575c-2.70045,-0.82465 -4.17451,-4.03122 -3.29241,-7.16206c0.49144,-1.74426 2.46742,-1.91697 3.07804,-3.02757c0.61062,-1.11058 -0.26751,-1.84643 0.35631,-3.21874c0.62383,-1.3723 1.62918,-0.72327 2.37114,-2.78125c0.74195,-2.05798 -0.05148,-3.74086 0.62705,-5.53475c0.64154,-1.6961 3.25118,-3.00264 3.25118,-3.00264z" data-paper-data="{&quot;origPos&quot;:null,&quot;origRot&quot;:0}" fill="url(#color-7)" stroke-width="0" stroke="none" transform="matrix(1,0,0,1,20.12619,3.72468)"/></g><g data-paper-data="{&quot;origPos&quot;:null,&quot;origRot&quot;:0}" stroke-linecap="butt"><path d="M267.23697,362.04045c-0.14035,-0.9814 2.25013,-2.1351 5.33927,-2.57687c3.08914,-0.44176 5.70716,-0.0043 5.84751,0.9771c0.14035,0.9814 -2.19598,2.51372 -5.28512,2.95549c-3.08914,0.44177 -5.7613,-0.37432 -5.90165,-1.35572z" data-paper-data="{&quot;origPos&quot;:null}" fill="#ffca00" stroke-width="0" stroke="none" transform="matrix(1,0,0,1,20.12619,3.72468)"/><path d="M277.02866,340.40537c0,0 -0.27215,1.05127 -0.03912,3.28094c0.24527,2.34686 1.96921,4.00537 2.27203,5.517c0.30281,1.51163 -0.65413,2.0974 -0.39495,3.85339c0.25919,1.75599 1.67698,2.8096 1.5773,4.15712c-0.19736,2.66777 -2.2181,4.54478 -4.51346,4.19244c-2.29537,-0.35233 -3.99613,-2.80062 -3.79879,-5.46837c0.10995,-1.48627 1.66345,-1.86367 1.97174,-2.84556c0.3083,-0.98189 -0.5141,-1.47923 -0.23776,-2.67689c0.27634,-1.19767 1.18646,-0.78658 1.44597,-2.55951c0.25949,-1.77294 -0.64898,-3.05549 -0.39735,-4.60473c0.23791,-1.46479 2.11438,-2.84582 2.11438,-2.84582z" data-paper-data="{&quot;origPos&quot;:null,&quot;origRot&quot;:0,&quot;index&quot;:null}" fill="url(#color-8)" stroke-width="0" stroke="none" transform="matrix(1,0,0,1,20.12619,3.72468)"/><path d="M264.05996,345.39924c0,0 2.16501,0.63675 2.77398,1.76657c0.64406,1.19494 0.10187,2.47381 0.81153,3.84868c0.70968,1.37486 1.47944,0.80445 2.05612,1.707c0.57668,0.90256 -0.08625,1.52039 0.46526,2.23914c0.55151,0.71876 2.14527,0.62287 2.63657,1.80334c0.88187,2.11887 -0.12092,4.55144 -2.2398,5.43331c-2.11887,0.88187 -4.55145,-0.12092 -5.43331,-2.23979c-0.44543,-1.07027 0.64655,-2.295 0.44074,-3.79058c-0.20583,-1.49559 -1.27918,-1.72391 -1.37962,-3.03205c-0.10042,-1.30814 1.12947,-3.1043 0.75704,-5.07692c-0.35382,-1.8741 -0.8885,-2.65868 -0.8885,-2.65868z" data-paper-data="{&quot;origPos&quot;:null,&quot;origRot&quot;:0,&quot;index&quot;:null}" fill="url(#color-9)" stroke-width="0" stroke="none" transform="matrix(1,0,0,1,20.12619,3.72468)"/><path d="M270.58388,337.23974c0,0 -0.13583,1.32679 0.54865,3.93776c0.72046,2.7482 3.09097,4.30174 3.72887,6.03558c0.6379,1.73384 -0.40451,2.67494 0.22538,4.71227c0.62989,2.03733 2.52309,2.9434 2.64803,4.58164c0.24738,3.24334 -1.83764,5.99692 -4.65701,6.15034c-2.81939,0.15343 -5.30545,-2.35144 -5.55282,-5.59475c-0.13781,-1.80693 1.65853,-2.64805 1.85038,-3.90085c0.19185,-1.25277 -0.88565,-1.64209 -0.77133,-3.1452c0.11433,-1.5031 1.28147,-1.23902 1.27115,-3.42663c-0.01033,-2.18761 -1.33371,-3.49541 -1.31286,-5.41322c0.0197,-1.81327 2.02154,-3.93693 2.02154,-3.93693z" data-paper-data="{&quot;origPos&quot;:null,&quot;origRot&quot;:0}" fill="url(#color-10)" stroke-width="0" stroke="none" transform="matrix(1,0,0,1,20.12619,3.72468)"/></g><path d="M 314.6561 297.4645 L 297.1561 297.4645 " fill="none" stroke="#c80000" stroke-width="2.5" stroke-linecap="round"/><path d="M 310.2454 272.7634 C 310.2454 272.7634 313.8138 270.6836 315.6427 270.7652 C 317.3705 270.8422 320.9329 273.2398 320.9329 273.2398 " data-paper-data="{&quot;origRot&quot;:0}" fill="none" stroke="#c80000" stroke-width="2.5" stroke-linecap="round"/></g><path d="M448.22662,300.78241c-2.21428,-5.50869 0.45637,-11.76939 5.96506,-13.98367c5.50869,-2.21428 11.76939,0.45637 13.98367,5.96506c2.21428,5.50869 0.83461,26.87803 0.83461,26.87803c0,0 -18.56906,-13.35073 -20.78334,-18.85942z" fill="#ffbd66" stroke="none" stroke-width="none" stroke-linecap="butt" transform="matrix(1,0,0,1,20.12619,3.72468)"/><path d="M484.72662,298.28241c-2.21427,-5.50869 0.45637,-11.76939 5.96506,-13.98367c5.50869,-2.21427 11.76939,0.45637 13.98367,5.96506c2.21427,5.50869 0.83461,26.87802 0.83461,26.87802c0,0 -18.56906,-13.35073 -20.78334,-18.85942z" fill="#ffbd66" stroke="none" stroke-width="none" stroke-linecap="butt" transform="matrix(1,0,0,1,20.12619,3.72468)"/></g></g></svg>