<svg xmlns="http://www.w3.org/2000/svg" xmlns:xlink="http://www.w3.org/1999/xlink" version="1.1" width="59.86804" height="159.90634" viewBox="0,0,59.86804,159.90634"><g><g data-paper-data="{&quot;isPaintingLayer&quot;:true}" fill-rule="nonzero" stroke-linecap="none" stroke-linejoin="miter" stroke-miterlimit="10" stroke-dasharray="" stroke-dashoffset="0" font-family="none" font-weight="none" font-size="none" text-anchor="none" style="mix-blend-mode: normal"><path d="M 29.7312 49.4405 L 29.7312 116.7375 L 17.6836 155.6563 " data-paper-data="{&quot;origPos&quot;:null}" fill="none" stroke="#1ac200" stroke-width="8.5" stroke-linecap="round"/><path d="M 30.5344 115.3008 L 42.582 155.4595 " fill="none" stroke="#1ac200" stroke-width="8.5" stroke-linecap="round"/><path d="M 5.636 26.55 C 5.636 12.5772 16.9632 1.25 30.936 1.25 C 44.9088 1.25 56.236 12.5772 56.236 26.55 C 56.236 40.5228 44.9088 51.85 30.936 51.85 C 16.9632 51.85 5.636 40.5228 5.636 26.55 Z " data-paper-data="{&quot;origPos&quot;:null}" fill="#21ff00" stroke="#000000" stroke-width="2.5" stroke-linecap="butt"/><path d="M239.5845,104.57303c0,-2.66149 2.15756,-4.81905 4.81905,-4.81905c2.66149,0 4.81905,2.15756 4.81905,4.81905c0,2.66149 -2.15756,4.81905 -4.81905,4.81905c-2.66149,0 -4.81905,-2.15756 -4.81905,-4.81905z" data-paper-data="{&quot;origPos&quot;:null}" fill="#000000" stroke="none" stroke-width="0" stroke-linecap="butt" transform="matrix(1,0,0,1,-213.06598,-84.04683)"/><path d="M253.23847,104.57303c0,-2.66148 2.15757,-4.81905 4.81905,-4.81905c2.66148,0 4.81905,2.15757 4.81905,4.81905c0,2.66148 -2.15757,4.81905 -4.81905,4.81905c-2.66148,0 -4.81905,-2.15757 -4.81905,-4.81905z" data-paper-data="{&quot;origPos&quot;:null}" fill="#000000" stroke="none" stroke-width="0" stroke-linecap="butt" transform="matrix(1,0,0,1,-213.06598,-84.04683)"/><path d="M 26.7376 13.5199 L 35.8646 17.1706 " data-paper-data="{&quot;origPos&quot;:null}" fill="none" stroke="#000000" stroke-width="2.5" stroke-linecap="round"/><path d="M 47.9122 13.5548 L 40.9757 16.8405 " data-paper-data="{&quot;origPos&quot;:null}" fill="none" stroke="#000000" stroke-width="2.5" stroke-linecap="round"/><path d="M 28.4281 57.7643 L 12.7296 87.3357 " data-paper-data="{&quot;origPos&quot;:null}" fill="none" stroke="#1ac200" stroke-width="8.5" stroke-linecap="round"/><path d="M 30.6185 57.7643 L 46.3169 87.3357 " data-paper-data="{&quot;origPos&quot;:null,&quot;index&quot;:null}" fill="none" stroke="#1ac200" stroke-width="8.5" stroke-linecap="round"/><g data-paper-data="{&quot;origPos&quot;:null}"><g data-paper-data="{&quot;origPos&quot;:null,&quot;index&quot;:null}"><path d="M 4.337 88.0391 C 5.5989 88.6906 5.7946 93.0005 5.0525 94.4377 C 4.3104 95.8748 2.6859 96.5116 1.424 95.86 C 0.1622 95.2084 -0.0717 93.6402 0.6704 92.2031 C 1.4124 90.766 3.0752 87.3875 4.337 88.0391 Z " data-paper-data="{&quot;origPos&quot;:null}" fill="#16a600" stroke="#000000" stroke-width="0.5" stroke-linecap="butt"/><path d="M 19.5237 97.3138 C 19.1102 99.5642 17.6741 101.1862 16.3161 100.9367 C 14.9582 100.6872 15.0107 98.5697 15.4241 96.3193 C 15.8376 94.069 16.2224 90.8097 17.5804 91.0592 C 18.9384 91.3088 19.9371 95.0635 19.5236 97.3138 Z " data-paper-data="{&quot;origRot&quot;:0,&quot;origPos&quot;:null}" fill="#16a600" stroke="#000000" stroke-width="0.5" stroke-linecap="butt"/><path d="M 10.1049 98.9759 C 10.847 97.5387 13.3806 95.3565 14.6425 96.0081 C 15.9043 96.6596 15.4166 99.8983 14.6745 101.3354 C 13.9325 102.7726 12.308 103.4094 11.0461 102.7578 C 9.7842 102.1062 9.3629 100.413 10.1049 98.9759 Z " data-paper-data="{&quot;origPos&quot;:null}" fill="#16a600" stroke="#000000" stroke-width="0.5" stroke-linecap="butt"/><path d="M 9.9171 96.226 C 11.1789 96.8776 11.6003 98.5708 10.8582 100.0079 C 10.1162 101.4451 8.4916 102.0819 7.2298 101.4303 C 5.9679 100.7787 5.5465 99.0855 6.2886 97.6484 C 7.0307 96.2112 8.6552 95.5744 9.9171 96.226 Z " data-paper-data="{&quot;origPos&quot;:null}" fill="#16a600" stroke="#000000" stroke-width="0.5" stroke-linecap="butt"/><path d="M 3.1194 95.6904 C 3.8615 94.2532 5.486 93.6164 6.7479 94.268 C 8.0097 94.9196 8.4311 96.6128 7.689 98.0499 C 6.947 99.4871 5.3225 100.1239 4.0606 99.4723 C 2.7987 98.8207 2.3773 97.1275 3.1194 95.6904 Z " data-paper-data="{&quot;origPos&quot;:null}" fill="#16a600" stroke="#000000" stroke-width="0.5" stroke-linecap="butt"/><path d="M 13.5204 86.2896 C 17.6478 88.4208 19.2993 91.2136 17.4939 94.71 C 17.0223 95.6235 17.0958 95.7794 16.289 96.4165 C 13.8687 98.3278 10.308 100.6684 6.9825 98.9512 C 2.8551 96.82 0.9728 92.2579 2.7782 88.7615 C 4.5836 85.2651 9.3931 84.1584 13.5204 86.2896 Z " data-paper-data="{&quot;origPos&quot;:null}" fill="#16a600" stroke="#000000" stroke-width="0.5" stroke-linecap="butt"/><path d="M216.43361,172.69493c0,0 12.01542,5.57347 12.0423,5.62919c0.08064,0.16717 -0.38232,5.67479 -0.38232,5.67479c-1.56267,0.54991 -1.41011,0.8808 -3.06609,0.92613c-3.20197,0.08766 -6.83021,-2.00241 -8.80349,-4.5256c-1.12862,-1.44314 -1.64546,-2.69657 -1.6958,-4.52145c-0.01678,-0.6083 0.5097,-1.49113 0.5097,-1.49113l1.3957,-1.69192z" data-paper-data="{&quot;origPos&quot;:null}" fill="#16a600" stroke="none" stroke-width="0" stroke-linecap="butt" transform="matrix(1,0,0,1,-213.06598,-84.04683)"/><path d="M 15.1244 100.0789 L 15.6379 96.8779 " data-paper-data="{&quot;origPos&quot;:null}" fill="none" stroke="#000000" stroke-width="0.5" stroke-linecap="round"/><path d="M 11.2063 98.5142 C 11.2063 98.5142 11.1329 99.2318 10.9526 99.6705 C 10.7597 100.1398 10.2499 100.841 10.2499 100.841 " data-paper-data="{&quot;origPos&quot;:null}" fill="none" stroke="#000000" stroke-width="0.5" stroke-linecap="round"/><path d="M 7.5078 97.0473 C 7.5078 97.0473 7.4944 97.9914 7.2396 98.4212 C 6.9203 98.9601 6.0367 99.5293 6.0367 99.5293 " data-paper-data="{&quot;origPos&quot;:null}" fill="none" stroke="#000000" stroke-width="0.5" stroke-linecap="round"/><path d="M229.17231,179.31738l1.18182,-4.20303c0,0 0.61255,0.34017 1.00462,0.90701c0.29504,0.42656 0.75599,1.63845 0.75599,1.63845l0.04545,3.11212z" data-paper-data="{&quot;origPos&quot;:null}" fill="#16a600" stroke="none" stroke-width="0" stroke-linecap="butt" transform="matrix(1,0,0,1,-213.06598,-84.04683)"/></g><path d="M 4.2943 93.9433 C 4.2943 93.9433 4.0632 94.8903 3.7952 95.3365 C 3.5532 95.7396 2.9875 96.1194 2.9875 96.1194 " data-paper-data="{&quot;origPos&quot;:null}" fill="none" stroke="#000000" stroke-width="0.5" stroke-linecap="round"/></g><g data-paper-data="{&quot;origPos&quot;:null,&quot;index&quot;:null}"><g data-paper-data="{&quot;origPos&quot;:null,&quot;index&quot;:null}"><path d="M 59.1977 92.7031 C 59.9398 94.1402 59.7059 95.7084 58.444 96.36 C 57.1822 97.0116 55.5576 96.3748 54.8156 94.9377 C 54.0735 93.5005 54.2692 89.1906 55.531 88.5391 C 56.7929 87.8875 58.4556 91.266 59.1977 92.7031 Z " data-paper-data="{&quot;origPos&quot;:null}" fill="#16a600" stroke="#000000" stroke-width="0.5" stroke-linecap="butt"/><path d="M 40.3444 97.8138 C 39.9309 95.5635 40.9297 91.8088 42.2877 91.5592 C 43.6457 91.3097 44.0304 94.569 44.4439 96.8193 C 44.8574 99.0697 44.9099 101.1872 43.5519 101.4367 C 42.1939 101.6862 40.7579 100.0642 40.3444 97.8138 Z " data-paper-data="{&quot;origRot&quot;:0,&quot;origPos&quot;:null}" fill="#16a600" stroke="#000000" stroke-width="0.5" stroke-linecap="butt"/><path d="M 49.7631 99.4759 C 50.5052 100.913 50.0838 102.6062 48.822 103.2578 C 47.5601 103.9094 45.9356 103.2726 45.1935 101.8354 C 44.4514 100.3983 43.9637 97.1596 45.2256 96.508 C 46.4875 95.8565 49.0211 98.0387 49.7631 99.4759 Z " data-paper-data="{&quot;origPos&quot;:null}" fill="#16a600" stroke="#000000" stroke-width="0.5" stroke-linecap="butt"/><path d="M 53.5794 98.1484 C 54.3215 99.5855 53.9001 101.2787 52.6383 101.9303 C 51.3764 102.5819 49.7519 101.9451 49.0098 100.5079 C 48.2678 99.0708 48.6891 97.3776 49.951 96.726 C 51.2129 96.0744 52.8374 96.7112 53.5794 98.1484 Z " data-paper-data="{&quot;origPos&quot;:null}" fill="#16a600" stroke="#000000" stroke-width="0.5" stroke-linecap="butt"/><path d="M 56.7486 96.1904 C 57.4907 97.6275 57.0693 99.3207 55.8075 99.9723 C 54.5456 100.6239 52.9211 99.9871 52.179 98.5499 C 51.4369 97.1128 51.8583 95.4196 53.1202 94.768 C 54.3821 94.1164 56.0066 94.7532 56.7486 96.1904 Z " data-paper-data="{&quot;origPos&quot;:null}" fill="#16a600" stroke="#000000" stroke-width="0.5" stroke-linecap="butt"/><path d="M 57.0898 89.2615 C 58.8952 92.7579 57.0129 97.32 52.8856 99.4512 C 49.56 101.1684 45.9993 98.8278 43.579 96.9165 C 42.7722 96.2794 42.8458 96.1235 42.3741 95.21 C 40.5687 91.7136 42.2202 88.9208 46.3476 86.7896 C 50.4749 84.6584 55.2844 85.7651 57.0898 89.2615 Z " data-paper-data="{&quot;origPos&quot;:null}" fill="#16a600" stroke="#000000" stroke-width="0.5" stroke-linecap="butt"/><path d="M269.5664,173.19494l1.3957,1.69192c0,0 0.52648,0.88283 0.5097,1.49113c-0.05034,1.82488 -0.56718,3.07831 -1.6958,4.52145c-1.97328,2.52319 -5.60152,4.61326 -8.80349,4.5256c-1.65598,-0.04533 -1.50342,-0.37622 -3.06609,-0.92613c0,0 -0.46295,-5.50762 -0.38232,-5.67479c0.02688,-0.05572 12.0423,-5.62919 12.0423,-5.62919z" data-paper-data="{&quot;origPos&quot;:null}" fill="#16a600" stroke="none" stroke-width="0" stroke-linecap="butt" transform="matrix(1,0,0,1,-213.06598,-84.04683)"/><path d="M 44.7436 100.5789 L 44.2302 97.378 " data-paper-data="{&quot;origPos&quot;:null}" fill="none" stroke="#000000" stroke-width="0.5" stroke-linecap="round"/><path d="M 49.6182 101.341 C 49.6182 101.341 49.1084 100.6399 48.9155 100.1705 C 48.7351 99.7318 48.6617 99.0142 48.6617 99.0142 " data-paper-data="{&quot;origPos&quot;:null}" fill="none" stroke="#000000" stroke-width="0.5" stroke-linecap="round"/><path d="M 53.8313 100.0293 C 53.8313 100.0293 52.9478 99.4601 52.6284 98.9212 C 52.3737 98.4914 52.3603 97.5473 52.3603 97.5473 " data-paper-data="{&quot;origPos&quot;:null}" fill="none" stroke="#000000" stroke-width="0.5" stroke-linecap="round"/><path d="M253.83983,181.27193l0.04545,-3.11212c0,0 0.46095,-1.21189 0.75599,-1.63845c0.39207,-0.56684 1.00462,-0.90701 1.00462,-0.90701l1.18182,4.20304z" data-paper-data="{&quot;origPos&quot;:null}" fill="#16a600" stroke="none" stroke-width="0" stroke-linecap="butt" transform="matrix(1,0,0,1,-213.06598,-84.04683)"/></g><path d="M 56.8806 96.6194 C 56.8806 96.6194 56.3149 96.2396 56.0728 95.8365 C 55.8049 95.3903 55.5738 94.4433 55.5738 94.4433 " data-paper-data="{&quot;origPos&quot;:null}" fill="none" stroke="#000000" stroke-width="0.5" stroke-linecap="round"/></g></g></g></svg>