<svg xmlns="http://www.w3.org/2000/svg" xmlns:xlink="http://www.w3.org/1999/xlink" version="1.1" width="203.36522" height="48.16897" viewBox="0,0,203.36522,48.16897"><g><g data-paper-data="{&quot;isPaintingLayer&quot;:true}" fill-rule="nonzero" stroke-linecap="butt" stroke-linejoin="miter" stroke-miterlimit="10" stroke-dasharray="" stroke-dashoffset="0" font-family="none" font-weight="none" font-size="none" text-anchor="none" style="mix-blend-mode: normal"><path d="M 12.6055 36.5 L 12.6055 2.5 L 189.874 2.5 L 189.874 36.5 Z " data-paper-data="{&quot;origPos&quot;:null}" fill="#95ff40" stroke="#18ab00" stroke-width="5"/><text transform="matrix(0.5,0,0,0.5,39.682350000000014,24.51041)" font-size="40" xml:space="preserve" data-paper-data="{&quot;origPos&quot;:null}" fill="#000000" fill-rule="nonzero" stroke="none" stroke-width="1" stroke-linecap="butt" stroke-linejoin="miter" stroke-miterlimit="10" stroke-dasharray="" stroke-dashoffset="0" font-family="Serif" font-weight="normal" text-anchor="start" style="mix-blend-mode: normal"><tspan x="0" dy="0">Christmas Tree</tspan></text><g data-paper-data="{&quot;origPos&quot;:null,&quot;origRot&quot;:0}"><path d="M157.8274,44.59622c-1.94241,1.40756 -8.49052,-4.475 -8.49052,-4.475c0,0 -6.56144,5.87305 -8.50154,4.46015c-1.94166,-1.41271 1.6315,-9.46069 1.6315,-9.46069c0,0 -7.61208,-4.4259 -6.86792,-6.70736c0.74403,-2.28314 9.50104,-1.37155 9.50104,-1.37155c0,0 1.85511,-8.60672 4.25515,-8.60621c2.4034,0.0018 4.24328,8.61343 4.24328,8.61343c0,0 8.75883,-0.89548 9.49694,1.3892c0.74278,2.28272 -6.8787,6.69482 -6.8787,6.69482c0,0 3.55803,8.05524 1.61076,9.46321z" data-paper-data="{&quot;origPos&quot;:null}" id="Star" fill="#ffff00" stroke="#000000" stroke-width="0" transform="matrix(1,0,0,1,-135.54771,2.5)"/><path d="M 17.7837 41.3436 C 16.8055 42.0512 13.5139 39.0936 13.5139 39.0936 C 13.5139 39.0936 10.2175 42.0452 9.2431 41.3351 C 8.2688 40.625 10.0626 36.5826 10.0626 36.5826 C 10.0626 36.5826 6.2394 34.3565 6.6119 33.2117 C 6.986 32.0651 11.3848 32.5233 11.3848 32.5233 C 11.3848 32.5233 12.3178 28.1976 13.5252 28.1997 C 14.731 28.2002 15.6535 32.5269 15.6535 32.5269 C 15.6535 32.5269 20.057 32.0779 20.428 33.2249 C 20.8025 34.3733 16.974 36.5889 16.974 36.5889 C 16.974 36.5889 18.7587 40.6363 17.7837 41.3436 Z " id="Star_1_" fill="#ffffff" stroke="none" stroke-width="2.57572"/></g><g data-paper-data="{&quot;origPos&quot;:null,&quot;origRot&quot;:0}"><path d="M333.59403,45.4514c-1.94241,1.40756 -8.49052,-4.475 -8.49052,-4.475c0,0 -6.56144,5.87305 -8.50154,4.46014c-1.94167,-1.41271 1.6315,-9.46068 1.6315,-9.46068c0,0 -7.61209,-4.4259 -6.86792,-6.70736c0.74403,-2.28314 9.50105,-1.37155 9.50105,-1.37155c0,0 1.85511,-8.60672 4.25515,-8.60621c2.40341,0.0018 4.24328,8.61343 4.24328,8.61343c0,0 8.75883,-0.89547 9.49694,1.3892c0.74278,2.28272 -6.87869,6.69481 -6.87869,6.69481c0,0 3.55802,8.05525 1.61076,9.46321z" data-paper-data="{&quot;origPos&quot;:null}" id="Star" fill="#ffff00" stroke="#000000" stroke-width="0" transform="matrix(1,0,0,1,-135.54771,2.5)"/><path d="M 193.5503 42.1988 C 192.5722 42.9064 189.2806 39.9488 189.2806 39.9488 C 189.2806 39.9488 185.9842 42.9004 185.0097 42.1903 C 184.0354 41.4802 185.8293 37.4378 185.8293 37.4378 C 185.8293 37.4378 182.006 35.2117 182.3785 34.0669 C 182.7526 32.9203 187.1515 33.3784 187.1515 33.3784 C 187.1515 33.3784 188.0845 29.0528 189.2919 29.0549 C 190.4976 29.0554 191.4201 33.3821 191.4201 33.3821 C 191.4201 33.3821 195.8237 32.933 196.1947 34.0801 C 196.5691 35.2285 192.7406 37.4441 192.7406 37.4441 C 192.7406 37.4441 194.5253 41.4914 193.5503 42.1988 Z " id="Star_1_" fill="#ffffff" stroke="none" stroke-width="2.57572"/></g></g></g></svg>