<svg version="1.1" xmlns="http://www.w3.org/2000/svg" xmlns:xlink="http://www.w3.org/1999/xlink" width="74.01774" height="171.50067" viewBox="0,0,74.01774,171.50067"><defs><radialGradient cx="244.0625" cy="102" r="25.3" gradientUnits="userSpaceOnUse" id="color-1"><stop offset="0" stop-color="#ccfffe"/><stop offset="1" stop-color="#99d8d7"/></radialGradient><radialGradient cx="260.89133" cy="154.80511" r="16.09718" gradientUnits="userSpaceOnUse" id="color-2"><stop offset="0" stop-color="#82f9ff"/><stop offset="1" stop-color="#82f9ff" stop-opacity="0"/></radialGradient><radialGradient cx="219.06896" cy="147.29196" r="16.09718" gradientUnits="userSpaceOnUse" id="color-3"><stop offset="0" stop-color="#82f9ff"/><stop offset="1" stop-color="#82f9ff" stop-opacity="0"/></radialGradient></defs><g transform="translate(-202.97077,-76.37154)"><g data-paper-data="{&quot;isPaintingLayer&quot;:true}" fill-rule="nonzero" stroke-linejoin="miter" stroke-miterlimit="10" stroke-dasharray="" stroke-dashoffset="0" style="mix-blend-mode: normal"><path d="M261.53148,164.5119c0,0 -1.83582,3.23454 -7.83941,1.0402c-6.39082,-2.33588 -10.44736,-17.32191 -10.44736,-17.32191" data-paper-data="{&quot;origPos&quot;:null,&quot;index&quot;:null}" fill="none" stroke="#000000" stroke-width="3.5" stroke-linecap="round"/><path d="M242.35751,139.90641v67.297l-12.0476,38.9188" data-paper-data="{&quot;origPos&quot;:null}" fill="none" stroke="#000000" stroke-width="3.5" stroke-linecap="round"/><path d="M255.20831,245.92541l-12.0477,-40.1587" fill="none" stroke="#000000" stroke-width="3.5" stroke-linecap="round"/><path d="M218.26221,117.01591c0,-13.9728 11.3272,-25.3 25.3,-25.3c13.9728,0 25.3,11.3272 25.3,25.3c0,13.9728 -11.3272,25.3 -25.3,25.3c-13.9728,0 -25.3,-11.3272 -25.3,-25.3z" data-paper-data="{&quot;origPos&quot;:null}" fill="url(#color-1)" stroke="#000000" stroke-width="2.5" stroke-linecap="butt"/><path d="M241.0543,148.2302c0,0 -8.1047,16.55769 -11.9118,21.66925c-3.01909,4.05356 -9.11993,6.56882 -9.11993,6.56882" fill="none" stroke="#000000" stroke-width="3.5" stroke-linecap="round"/><path d="M240.8566,110.6267c0,-2.66149 2.15756,-4.81905 4.81905,-4.81905c2.66149,0 4.81905,2.15756 4.81905,4.81905c0,2.66149 -2.15756,4.81905 -4.81905,4.81905c-2.66149,0 -4.81905,-2.15756 -4.81905,-4.81905z" fill="#2d70b9" stroke="none" stroke-width="0" stroke-linecap="butt"/><path d="M254.51057,110.6267c0,-2.66148 2.15757,-4.81905 4.81905,-4.81905c2.66148,0 4.81905,2.15757 4.81905,4.81905c0,2.66148 -2.15757,4.81905 -4.81905,4.81905c-2.66148,0 -4.81905,-2.15757 -4.81905,-4.81905z" fill="#2d70b9" stroke="none" stroke-width="0" stroke-linecap="butt"/><path d="M242.72155,103.79616l7.185,2.90164" fill="none" stroke="#000000" stroke-width="1.5" stroke-linecap="round"/><path d="M254.60445,106.97414l6.90866,-2.90163" fill="none" stroke="#000000" stroke-width="1.5" stroke-linecap="round"/><g><path d="M244.79415,154.80511c0,-8.89023 7.20695,-16.09718 16.09718,-16.09718c8.89023,0 16.09718,7.20695 16.09718,16.09718c0,8.89023 -7.20695,16.09718 -16.09718,16.09718c-8.89023,0 -16.09718,-7.20695 -16.09718,-16.09718z" fill="url(#color-2)" stroke="none" stroke-width="0" stroke-linecap="butt"/><path d="M266.42821,149.34727c0,-0.41422 0.33578,-0.75 0.75,-0.75c0.41422,0 0.75,0.33578 0.75,0.75c0,0.41422 -0.33578,0.75 -0.75,0.75c-0.41422,0 -0.75,-0.33578 -0.75,-0.75z" fill="#40bfff" stroke="none" stroke-width="0.5" stroke-linecap="butt"/><path d="M258.13782,153.07795c0,-0.41422 0.33578,-0.75 0.75,-0.75c0.41422,0 0.75,0.33578 0.75,0.75c0,0.41422 -0.33578,0.75 -0.75,0.75c-0.41422,0 -0.75,-0.33578 -0.75,-0.75z" fill="#40bfff" stroke="none" stroke-width="0.5" stroke-linecap="butt"/><path d="M256.47974,144.37303c0,-0.41422 0.33578,-0.75 0.75,-0.75c0.41422,0 0.75,0.33578 0.75,0.75c0,0.41422 -0.33578,0.75 -0.75,0.75c-0.41422,0 -0.75,-0.33578 -0.75,-0.75z" fill="#40bfff" stroke="none" stroke-width="0.5" stroke-linecap="butt"/><path d="M261.8685,157.22314c0,-0.41422 0.33578,-0.75 0.75,-0.75c0.41422,0 0.75,0.33578 0.75,0.75c0,0.41422 -0.33578,0.75 -0.75,0.75c-0.41422,0 -0.75,-0.33578 -0.75,-0.75z" fill="#40bfff" stroke="none" stroke-width="0.5" stroke-linecap="butt"/><path d="M254.26897,159.15757c0,-0.41422 0.33578,-0.75 0.75,-0.75c0.41422,0 0.75,0.33578 0.75,0.75c0,0.41422 -0.33578,0.75 -0.75,0.75c-0.41422,0 -0.75,-0.33578 -0.75,-0.75z" fill="#40bfff" stroke="none" stroke-width="0.5" stroke-linecap="butt"/><path d="M271.40245,157.63766c0,-0.41422 0.33578,-0.75 0.75,-0.75c0.41422,0 0.75,0.33578 0.75,0.75c0,0.41422 -0.33578,0.75 -0.75,0.75c-0.41422,0 -0.75,-0.33578 -0.75,-0.75z" fill="#40bfff" stroke="none" stroke-width="0.5" stroke-linecap="butt"/><path d="M251.5055,150.45266c0,-0.41422 0.33578,-0.75 0.75,-0.75c0.41422,0 0.75,0.33578 0.75,0.75c0,0.41422 -0.33578,0.75 -0.75,0.75c-0.41422,0 -0.75,-0.33578 -0.75,-0.75z" fill="#40bfff" stroke="none" stroke-width="0.5" stroke-linecap="butt"/><path d="M257.58512,165.23719c0,-0.41422 0.33578,-0.75 0.75,-0.75c0.41422,0 0.75,0.33578 0.75,0.75c0,0.41422 -0.33578,0.75 -0.75,0.75c-0.41422,0 -0.75,-0.33578 -0.75,-0.75z" fill="#40bfff" stroke="none" stroke-width="0.5" stroke-linecap="butt"/><path d="M263.52657,143.54399c0,-0.41422 0.33578,-0.75 0.75,-0.75c0.41422,0 0.75,0.33578 0.75,0.75c0,0.41422 -0.33578,0.75 -0.75,0.75c-0.41422,0 -0.75,-0.33578 -0.75,-0.75z" fill="#40bfff" stroke="none" stroke-width="0.5" stroke-linecap="butt"/><path d="M249.15655,152.38708c0,-0.41422 0.33578,-0.75 0.75,-0.75c0.41422,0 0.75,0.33578 0.75,0.75c0,0.41422 -0.33578,0.75 -0.75,0.75c-0.41422,0 -0.75,-0.33578 -0.75,-0.75z" fill="#40bfff" stroke="none" stroke-width="0.5" stroke-linecap="butt"/><path d="M264.49379,161.92103c0,-0.41421 0.33579,-0.75 0.75,-0.75c0.41421,0 0.75,0.33579 0.75,0.75c0,0.41421 -0.33579,0.75 -0.75,0.75c-0.41421,0 -0.75,-0.33579 -0.75,-0.75z" fill="#40bfff" stroke="none" stroke-width="0.5" stroke-linecap="butt"/><path d="M260.07638,145.59256c0,0 -2.47429,0.39071 -3.62524,1.212c-1.13021,0.80649 -3.21938,3.67213 -3.21938,3.67213" fill="none" stroke="#6ab7ff" stroke-width="1.5" stroke-linecap="round"/><path d="M264.60614,160.19029c0,0 -3.56858,0.27139 -5.03942,-0.0762c-1.49784,-0.35397 -3.86809,-2.02884 -3.86809,-2.02884" data-paper-data="{&quot;index&quot;:null}" fill="none" stroke="#6ab7ff" stroke-width="1.5" stroke-linecap="round"/><path d="M263.9665,148.83c0,0 1.5741,2.50622 1.91757,3.72114c0.34978,1.23722 0.16252,3.6365 0.16252,3.6365" data-paper-data="{&quot;index&quot;:null}" fill="none" stroke="#6ab7ff" stroke-width="1.5" stroke-linecap="round"/></g><g><path d="M209.4708,134.36932c7.13698,-5.30092 17.21988,-3.8125 22.5208,3.32448c5.30092,7.13698 3.8125,17.21988 -3.32448,22.5208c-7.13698,5.30092 -17.21988,3.8125 -22.5208,-3.32447c-5.30092,-7.13698 -3.8125,-17.21988 3.32448,-22.5208z" fill="url(#color-3)" stroke="none" stroke-width="0" stroke-linecap="butt"/><path d="M226.75189,148.48259c0.33253,-0.24698 0.80231,-0.17763 1.04929,0.15489c0.24698,0.33253 0.17763,0.80231 -0.15489,1.04929c-0.33253,0.24698 -0.80231,0.17763 -1.04929,-0.15489c-0.24698,-0.33253 -0.17763,-0.80231 0.15489,-1.04929z" fill="#40bfff" stroke="none" stroke-width="0.5" stroke-linecap="butt"/><path d="M218.81369,144.05162c0.33253,-0.24698 0.80231,-0.17763 1.04929,0.15489c0.24698,0.33253 0.17763,0.80231 -0.15489,1.04929c-0.33253,0.24698 -0.80231,0.17763 -1.04929,-0.15489c-0.24698,-0.33253 -0.17763,-0.80231 0.15489,-1.04929z" fill="#40bfff" stroke="none" stroke-width="0.5" stroke-linecap="butt"/><path d="M224.81325,137.53011c0.33253,-0.24698 0.80231,-0.17763 1.04929,0.15489c0.24698,0.33253 0.17763,0.80231 -0.15489,1.04929c-0.33253,0.24698 -0.80231,0.17763 -1.04929,-0.15489c-0.24698,-0.33253 -0.17763,-0.80231 0.15489,-1.04929z" fill="#40bfff" stroke="none" stroke-width="0.5" stroke-linecap="butt"/><path d="M217.71044,149.5182c0.33253,-0.24698 0.80231,-0.17763 1.04929,0.15489c0.24698,0.33253 0.17763,0.80231 -0.15489,1.04929c-0.33253,0.24698 -0.80231,0.17763 -1.04929,-0.15489c-0.24698,-0.33253 -0.17763,-0.80231 0.15489,-1.04929z" fill="#40bfff" stroke="none" stroke-width="0.5" stroke-linecap="butt"/><path d="M211.62618,144.57081c0.33253,-0.24698 0.80231,-0.17763 1.04929,0.15489c0.24698,0.33253 0.17763,0.80231 -0.15489,1.04929c-0.33253,0.24698 -0.80231,0.17763 -1.04929,-0.15489c-0.24698,-0.33253 -0.17763,-0.80231 0.15489,-1.04929z" fill="#40bfff" stroke="none" stroke-width="0.5" stroke-linecap="butt"/><path d="M223.06241,157.41912c0.33253,-0.24698 0.80231,-0.17763 1.04929,0.15489c0.24698,0.33253 0.17763,0.80231 -0.15489,1.04929c-0.33253,0.24698 -0.80231,0.17763 -1.04929,-0.15489c-0.24698,-0.33253 -0.17763,-0.80231 0.15489,-1.04929z" fill="#40bfff" stroke="none" stroke-width="0.5" stroke-linecap="butt"/><path d="M216.96664,137.16191c0.33253,-0.24698 0.80231,-0.17763 1.04929,0.15489c0.24698,0.33253 0.17763,0.80231 -0.15489,1.04929c-0.33253,0.24698 -0.80231,0.17763 -1.04929,-0.15489c-0.24698,-0.33253 -0.17763,-0.80231 0.15489,-1.04929z" fill="#40bfff" stroke="none" stroke-width="0.5" stroke-linecap="butt"/><path d="M208.72283,150.85804c0.33253,-0.24698 0.80231,-0.17763 1.04929,0.15489c0.24698,0.33253 0.17763,0.80231 -0.15489,1.04929c-0.33253,0.24698 -0.80231,0.17763 -1.04929,-0.15489c-0.24698,-0.33253 -0.17763,-0.80231 0.15489,-1.04929z" fill="#40bfff" stroke="none" stroke-width="0.5" stroke-linecap="butt"/><path d="M229.68056,142.69291c0.33253,-0.24698 0.80231,-0.17763 1.04929,0.15489c0.24698,0.33253 0.17763,0.80231 -0.15489,1.04929c-0.33253,0.24698 -0.80231,0.17763 -1.04929,-0.15489c-0.24698,-0.33253 -0.17763,-0.80231 0.15489,-1.04929z" fill="#40bfff" stroke="none" stroke-width="0.5" stroke-linecap="butt"/><path d="M214.01311,136.42963c0.33253,-0.24698 0.80231,-0.17763 1.04929,0.15489c0.24698,0.33253 0.17763,0.80231 -0.15489,1.04929c-0.33253,0.24698 -0.80231,0.17763 -1.04929,-0.15489c-0.24698,-0.33253 -0.17763,-0.80231 0.15489,-1.04929z" fill="#40bfff" stroke="none" stroke-width="0.5" stroke-linecap="butt"/><path d="M215.50439,154.42693c0.33253,-0.24698 0.80231,-0.17763 1.04929,0.15489c0.24698,0.33253 0.17763,0.80231 -0.15489,1.04929c-0.33253,0.24698 -0.80231,0.17763 -1.04929,-0.15489c-0.24698,-0.33253 -0.17763,-0.80231 0.15489,-1.04929z" fill="#40bfff" stroke="none" stroke-width="0.5" stroke-linecap="butt"/><path d="M225.97877,141.14461c0,0 -1.78899,-1.75336 -3.13458,-2.18763c-1.32134,-0.42644 -4.86754,-0.39493 -4.86754,-0.39493" fill="none" stroke="#6ab7ff" stroke-width="1.5" stroke-linecap="round"/><path d="M216.9608,153.48516c0,0 -2.34569,-2.70299 -2.94365,-4.09103c-0.60894,-1.41351 -0.67767,-4.31498 -0.67767,-4.31498" data-paper-data="{&quot;index&quot;:null}" fill="none" stroke="#6ab7ff" stroke-width="1.5" stroke-linecap="round"/><path d="M225.69932,146.19792c0,0 -1.07339,2.75804 -1.84391,3.75819c-0.78467,1.0185 -2.82243,2.29878 -2.82243,2.29878" data-paper-data="{&quot;index&quot;:null}" fill="none" stroke="#6ab7ff" stroke-width="1.5" stroke-linecap="round"/></g><g fill="none" stroke-linecap="round"><path d="M208.4375,139.04167v13.25298l10.8125,10.91793" stroke="#92f4ff" stroke-width="3"/><path d="M230.125,139.04167v13.25298l-10.8125,10.91793" data-paper-data="{&quot;index&quot;:null}" stroke="#92f4ff" stroke-width="3"/><path d="M219.1875,216.70833v-53.51679" stroke="#92f4ff" stroke-width="3.5"/></g><path d="M219.00891,230.02343l-4.18421,-14.05263l4.34211,2.2903l4.34211,-2.2903z" fill="#92f4ff" stroke="none" stroke-width="none" stroke-linecap="butt"/><g><path d="M243.73323,99.26203c-6.32978,0 -19.01908,-0.90909 -19.01908,-0.90909v-21.90909c0,0 2.54744,9.57329 4.13754,9.63451c3.26727,0.1258 10.19579,-6.36364 10.19579,-6.36364c0,0 7.03365,6.36364 10.29383,6.36364c1.69176,0 7.60764,-9.66601 7.60764,-9.66601c0,0 2.79249,5.45274 5.31317,6.64374c0.13119,0.06199 0,15.29685 0,15.29685c0,0 -12.34614,0.90909 -18.52889,0.90909z" data-paper-data="{&quot;index&quot;:null}" fill="#83dce6" stroke="none" stroke-width="0" stroke-linecap="butt"/><path d="M224.59556,98.31213c0,0 -0.13212,-15.23486 0,-15.29685c2.5385,-1.191 5.35074,-6.64374 5.35074,-6.64374c0,0 5.95773,9.66601 7.66145,9.66601c3.28324,0 10.36663,-6.36364 10.36663,-6.36364c0,0 6.97753,6.48944 10.2679,6.36364c1.60135,-0.06122 4.1668,-9.63451 4.1668,-9.63451v21.90909c0,0 -12.77904,0.90909 -19.15359,0.90909c-6.22648,0 -18.65994,-0.90909 -18.65994,-0.90909z" fill="#92f4ff" stroke="none" stroke-width="0" stroke-linecap="butt"/><g fill="none" stroke="#ffffff" stroke-width="1" stroke-linecap="round"><path d="M248.07528,83.17192v14.28381"/><path d="M242.08271,94.35721l11.84502,-7.70427"/><path d="M254.04491,94.21795l-12.01682,-7.47529" data-paper-data="{&quot;index&quot;:null}"/><g><g><path d="M246.32342,93.96752l1.69763,-1.56316l1.64619,1.51578" data-paper-data="{&quot;index&quot;:null}"/><path d="M246.36915,96.76752l1.66334,-1.53158l1.64619,1.51579" data-paper-data="{&quot;index&quot;:null}"/></g><g><path d="M246.41488,86.88857l1.66334,1.53158l1.64619,-1.51579"/><path d="M246.42631,84.08857l1.66334,1.53158l1.64619,-1.51579"/></g></g><g><g><path d="M243.91953,91.20909l2.36728,0.36822l-0.38777,2.1137" data-paper-data="{&quot;index&quot;:null}"/><path d="M241.46768,92.86586l2.31946,0.36078l-0.38778,2.1137" data-paper-data="{&quot;index&quot;:null}"/></g><g><path d="M250.23826,87.17584l-0.39182,2.13572l2.29554,0.35706"/><path d="M252.72323,85.56196l-0.39182,2.13572l2.29554,0.35706"/></g></g><g><g><path d="M245.87527,87.1483l0.43269,2.17444l-2.28994,0.38635" data-paper-data="{&quot;index&quot;:null}"/><path d="M243.34675,85.59231l0.42395,2.13051l-2.28994,0.38634" data-paper-data="{&quot;index&quot;:null}"/></g><g><path d="M252.15024,91.23908l-2.3138,0.39037l0.41958,2.10855"/><path d="M254.64629,92.83839l-2.3138,0.39036l0.41958,2.10855"/></g></g></g></g></g></g></svg>