<svg version="1.1" xmlns="http://www.w3.org/2000/svg" xmlns:xlink="http://www.w3.org/1999/xlink" width="24.21264" height="6.19982" viewBox="0,0,24.21264,6.19982"><g transform="translate(-227.76868,-176.90009)"><g data-paper-data="{&quot;isPaintingLayer&quot;:true}" fill-rule="nonzero" stroke-linecap="butt" stroke-linejoin="miter" stroke-miterlimit="10" stroke-dasharray="" stroke-dashoffset="0" style="mix-blend-mode: normal"><path d="M228.01868,180.00832c0,0 1.47586,-0.69499 2.3151,-0.98525c0.9414,-0.3256 3.06209,-0.75324 3.06209,-0.75324v3.47698c0,0 -2.13079,-0.49971 -3.07364,-0.78327c-0.83687,-0.25169 -2.30354,-0.95522 -2.30354,-0.95522z" fill="#ffef66" stroke="#ff8839" stroke-width="0.5"/><path d="M233.29604,182.43111l0.02451,-5.04969l9.59274,-0.00283l-0.02451,5.04969z" fill="#4e4e4e" stroke="none" stroke-width="NaN"/><path d="M242.43125,182.69996l0.04914,-5.50116c0,0 3.05627,-0.713 5.57666,0.06412c2.5204,0.77712 3.92427,2.73125 3.92427,2.73125c0,0 -1.38974,2.00863 -3.97341,2.76991c-2.6858,0.79137 -5.57666,-0.06412 -5.57666,-0.06412z" fill="#ff4141" stroke="none" stroke-width="NaN"/></g></g></svg>