<svg xmlns="http://www.w3.org/2000/svg" xmlns:xlink="http://www.w3.org/1999/xlink" version="1.1" width="88.49449920654297" height="160.76031494140625" viewBox="-0.75 -0.5 88.49449920654297 160.76031494140625"><defs><radialGradient cx="245.25" cy="109.41671" r="4.81905" gradientUnits="userSpaceOnUse" id="color-1"><stop offset="0" stop-color="#ff0000"/><stop offset="1" stop-color="#000000"/></radialGradient><radialGradient cx="259.25" cy="109.41671" r="4.81905" gradientUnits="userSpaceOnUse" id="color-2"><stop offset="0" stop-color="#ff0000"/><stop offset="1" stop-color="#000000"/></radialGradient><linearGradient x1="270.67297" y1="126.33336" x2="270.67297" y2="161.00294" gradientUnits="userSpaceOnUse" id="color-3"><stop offset="0" stop-color="#ff4141" stop-opacity="0"/><stop offset="1" stop-color="#ff4141"/></linearGradient><linearGradient x1="241.83333" y1="204.33334" x2="241.83333" y2="247.33334" gradientUnits="userSpaceOnUse" id="color-4"><stop offset="0" stop-color="#ff4141" stop-opacity="0"/><stop offset="1" stop-color="#ff4141"/></linearGradient></defs><g><g data-paper-data="{&quot;isPaintingLayer&quot;:true}" fill-rule="nonzero" stroke-linecap="none" stroke-linejoin="miter" stroke-miterlimit="10" stroke-dasharray="" stroke-dashoffset="0" font-family="none" font-weight="none" font-size="none" text-anchor="none" style="mix-blend-mode: normal"><g><path d="M 5.8395 109.177 C 5.8395 109.177 6.689 95.245 11.0386 86.2051 C 15.1297 77.7025 23.7878 72.9195 27.2308 64.1344 C 29.4675 58.4272 28.9621 50.177 28.9621 50.177 L 42.2415 50.177 C 42.2415 50.177 46.2073 58.9499 46.6121 64.7784 C 47.3261 75.0572 41.1846 81.2014 40.9743 91.5029 C 40.8307 98.5337 46.3395 109.177 46.3395 109.177 Z " data-paper-data="{&quot;origPos&quot;:null}" fill="#b548d9" stroke="#000000" stroke-width="1.5" stroke-linecap="butt"/><path d="M 36.6205 49.4404 L 36.6205 116.7375 C 36.6205 116.7375 33.2404 136.513 29.1568 139.7828 C 25.8068 142.4653 17.5729 131.9896 17.5729 131.9896 " data-paper-data="{&quot;origPos&quot;:null}" fill="none" stroke="#000000" stroke-width="3.5" stroke-linecap="round"/><path d="M 37.4237 115.3008 C 37.4237 115.3008 45.0782 132.4177 43.1502 136.7596 C 42.1047 139.1142 29.8046 132.4595 29.8046 132.4595 " data-paper-data="{&quot;origPos&quot;:null}" fill="none" stroke="#000000" stroke-width="3.5" stroke-linecap="round"/><path d="M 12.5252 26.55 C 12.5252 12.5772 23.8524 1.25 37.8252 1.25 C 51.798 1.25 63.1252 12.5772 63.1252 26.55 C 63.1252 40.5228 51.798 51.85 37.8252 51.85 C 23.8524 51.85 12.5252 40.5228 12.5252 26.55 Z " data-paper-data="{&quot;origPos&quot;:null}" fill="#d4d4d4" stroke="#000000" stroke-width="2.5" stroke-linecap="butt"/><path d="M238.40157,109.34922c0,-2.66149 2.15756,-4.81905 4.81905,-4.81905c2.66149,0 4.81905,2.15756 4.81905,4.81905c0,2.66149 -2.15756,4.81905 -4.81905,4.81905c-2.66149,0 -4.81905,-2.15756 -4.81905,-4.81905z" data-paper-data="{&quot;origPos&quot;:null}" fill="url(#color-1)" stroke="none" stroke-width="0" stroke-linecap="butt" transform="matrix(1,0,0,1,-204.99381,-88.82302)"/><path d="M252.05554,109.34922c0,-2.66148 2.15757,-4.81905 4.81905,-4.81905c2.66148,0 4.81905,2.15757 4.81905,4.81905c0,2.66148 -2.15757,4.81905 -4.81905,4.81905c-2.66148,0 -4.81905,-2.15757 -4.81905,-4.81905z" data-paper-data="{&quot;origPos&quot;:null}" fill="url(#color-2)" stroke="none" stroke-width="0" stroke-linecap="butt" transform="matrix(1,0,0,1,-204.99381,-88.82302)"/><path d="M 33.6268 13.5199 L 42.7538 17.1706 " data-paper-data="{&quot;origPos&quot;:null}" fill="none" stroke="#000000" stroke-width="2.5" stroke-linecap="round"/><path d="M 47.8649 16.8405 L 54.8014 13.5548 " data-paper-data="{&quot;origPos&quot;:null}" fill="none" stroke="#000000" stroke-width="2.5" stroke-linecap="round"/><path d="M 19.9522 87.0024 C 19.9522 87.0024 22.7362 77.9908 25.7981 72.2229 C 28.8627 66.4502 35.6506 57.4309 35.6506 57.4309 " data-paper-data="{&quot;origPos&quot;:null}" fill="none" stroke="#000000" stroke-width="3.5" stroke-linecap="round"/><path d="M 65.8728 68.6691 C 65.8728 68.6691 55.7263 83.2059 50.9388 80.9892 C 44.006 77.7793 37.5078 57.7643 37.5078 57.7643 " data-paper-data="{&quot;origPos&quot;:null,&quot;index&quot;:null}" fill="none" stroke="#000000" stroke-width="3.5" stroke-linecap="round"/><path d="M 44.4553 30.0108 C 54.2092 29.9295 53.3812 40.052 53.3812 40.052 L 34.6368 40.052 C 34.6368 40.052 33.6324 30.1011 44.4553 30.0108 Z " data-paper-data="{&quot;origPos&quot;:null,&quot;index&quot;:null}" fill="#ffffff" stroke="#000000" stroke-width="1.5" stroke-linecap="butt"/><path d="M 10.3322 42.0181 L 6.2311 49.176 L 13.6958 53.453 L 9.1845 61.3267 L 16.7514 65.6622 L 12.5916 72.9224 " data-paper-data="{&quot;origRot&quot;:0,&quot;origPos&quot;:null}" fill="none" stroke="#ff0000" stroke-width="2" stroke-linecap="round"/><path d="M 61.209 93.3332 L 53.6651 96.6718 L 57.1468 104.5389 L 48.8486 108.2114 L 52.3779 116.1863 L 44.7263 119.5726 " data-paper-data="{&quot;origRot&quot;:0,&quot;origPos&quot;:null}" fill="none" stroke="#ff0000" stroke-width="2" stroke-linecap="round"/><path d="M 25.9353 123.1509 L 23.1694 115.3788 L 15.0642 118.2633 L 12.0216 109.714 L 3.8055 112.638 L 1 104.7549 " data-paper-data="{&quot;origRot&quot;:0,&quot;origPos&quot;:null}" fill="none" stroke="#ff0000" stroke-width="2" stroke-linecap="round"/><path d="M259.83333,148.83336c0,-7.27175 -3.5,-22.5 -3.5,-22.5l28.67927,0.58118c0,0 -2.51261,11.45594 -2.51261,21.91882c0,7.27175 -6.88479,12.03374 -11.5,12.16666c-4.91944,0.14168 -11.16667,-4.89491 -11.16667,-12.16666z" data-paper-data="{&quot;origPos&quot;:null}" fill="url(#color-3)" stroke="none" stroke-width="0" stroke-linecap="butt" transform="matrix(1,0,0,1,-204.99381,-88.82302)"/><path d="M 53.5523 45.8796 L 52.7509 50.7825 L 57.8639 51.6182 L 56.9824 57.0115 L 62.1655 57.8587 L 61.3527 62.8316 " data-paper-data="{&quot;origRot&quot;:0,&quot;origPos&quot;:null}" fill="none" stroke="#ff0000" stroke-width="1.5" stroke-linecap="round"/><path d="M 85.9945 49.6057 L 81.0296 49.7822 L 81.2137 54.9599 L 75.7523 55.154 L 75.9389 60.4026 L 70.9031 60.5816 " data-paper-data="{&quot;origRot&quot;:0,&quot;origPos&quot;:null}" fill="none" stroke="#ff0000" stroke-width="1.5" stroke-linecap="round"/><path d="M 68.565 37.3388 L 65.3165 41.0975 L 69.2364 44.4852 L 65.663 48.6199 L 69.6365 52.054 L 66.3416 55.8665 " data-paper-data="{&quot;origRot&quot;:0,&quot;origPos&quot;:null}" fill="none" stroke="#ff0000" stroke-width="1.5" stroke-linecap="round"/><path d="M221.33333,245.33334c0,0 -3.1223,-8.58705 -4.26733,-14.08319c-1.45672,-6.99226 -2.39933,-17.91681 -2.39933,-17.91681c0,0 16.47913,-9 27.66667,-9c10.01675,0 26.66667,9 26.66667,9c0,0 -1.02709,10.81114 -2.32453,17.73082c-1.04414,5.56873 -3.67547,14.26918 -3.67547,14.26918c0,0 -12.69062,2 -21.66667,2c-7.28491,0 -20,-2 -20,-2z" data-paper-data="{&quot;origPos&quot;:null}" fill="url(#color-4)" stroke="none" stroke-width="0" stroke-linecap="butt" transform="matrix(1,0,0,1,-204.99381,-88.82302)"/></g></g></g></svg>