<svg version="1.1" xmlns="http://www.w3.org/2000/svg" xmlns:xlink="http://www.w3.org/1999/xlink" width="437.3682" height="71.7144" viewBox="0,0,437.3682,71.7144"><g transform="translate(-25.03233,1.5)"><g data-paper-data="{&quot;isPaintingLayer&quot;:true}" fill-rule="nonzero" stroke-linejoin="miter" stroke-miterlimit="10" stroke-dasharray="" stroke-dashoffset="0" style="mix-blend-mode: normal"><path d="M27.53233,67.7144v-66.7144h432.3682v66.7144z" data-paper-data="{&quot;origPos&quot;:null}" fill="#ffac00" stroke="#ab6200" stroke-width="5" stroke-linecap="butt"/><text transform="translate(65.80603,38.01041) scale(0.5,0.5)" font-size="40" xml:space="preserve" fill="#000000" fill-rule="nonzero" stroke="none" stroke-width="1" stroke-linecap="butt" stroke-linejoin="miter" stroke-miterlimit="10" stroke-dasharray="" stroke-dashoffset="0" font-family="Serif" font-weight="normal" text-anchor="start" style="mix-blend-mode: normal"><tspan x="0" dy="0">Welcome back, potato master Tig_a_Mahal!</tspan></text><g><path d="M54.41963,62.9643l-2.8571,-1v-14.8572" fill="none" stroke="#000000" stroke-width="1.5" stroke-linecap="round"/><path d="M46.23433,5.6667c9.596,0 17.375,9.6818 17.375,21.625c0,11.9431 -7.779,21.625 -17.375,21.625c-9.5959,0 -17.375,-9.6819 -17.375,-21.625c0,-11.9432 7.7791,-21.625 17.375,-21.625z" fill="#f3da61" stroke="#000000" stroke-width="1" stroke-linecap="butt"/><path d="M41.90625,19.16667c0,-1.70288 1.38046,-3.08333 3.08333,-3.08333c1.70288,0 3.08333,1.38046 3.08333,3.08333c0,1.70288 -1.38046,3.08333 -3.08333,3.08333c-1.70288,0 -3.08333,-1.38046 -3.08333,-3.08333z" fill="#000000" stroke="none" stroke-width="0" stroke-linecap="butt"/><path d="M51.57292,19.16667c0,-1.70288 1.38046,-3.08333 3.08334,-3.08333c1.70288,0 3.08333,1.38045 3.08333,3.08333c0,1.70288 -1.38045,3.08333 -3.08333,3.08333c-1.70288,0 -3.08334,-1.38045 -3.08334,-3.08333z" fill="#000000" stroke="none" stroke-width="0" stroke-linecap="butt"/><path d="M50.73963,14l16.3333,1.75l-3.1667,11.1667" fill="none" stroke="#000000" stroke-width="1.5" stroke-linecap="round"/><g><path d="M35.23963,13.3993v49.9221" fill="none" stroke="#cd7500" stroke-width="1.5" stroke-linecap="round"/><path d="M31.70536,16.45176l3.57143,-12.48748l3.71429,12.48748l-3.85714,-1.8315z" fill="#b6b6b6" stroke="none" stroke-width="0" stroke-linecap="butt"/></g><path d="M36.04913,35.3452l-9.0295,-3.3355l1.72,-8.2597" fill="none" stroke="#000000" stroke-width="1.5" stroke-linecap="round"/><path d="M43.41963,63.9643l-2.8571,-1v-14.8572" fill="none" stroke="#000000" stroke-width="1.5" stroke-linecap="round"/></g><g data-paper-data="{&quot;index&quot;:null}"><path d="M435.78003,47.3571v14.8572l-2.8571,1" fill="none" stroke="#000000" stroke-width="1.5" stroke-linecap="round"/><path d="M458.48313,27.5417c0,11.9431 -7.779,21.625 -17.375,21.625c-9.5959,0 -17.375,-9.6819 -17.375,-21.625c0,-11.9432 7.7791,-21.625 17.375,-21.625c9.596,0 17.375,9.6818 17.375,21.625z" fill="#f3da61" stroke="#000000" stroke-width="1" stroke-linecap="butt"/><path d="M442.35297,22.5c-1.70288,0 -3.08333,-1.38046 -3.08333,-3.08334c0,-1.70288 1.38045,-3.08333 3.08333,-3.08333c1.70288,0 3.08333,1.38045 3.08333,3.08333c0,1.70288 -1.38045,3.08334 -3.08333,3.08334z" fill="#000000" stroke="none" stroke-width="0" stroke-linecap="butt"/><path d="M432.6863,22.5c-1.70288,0 -3.08333,-1.38046 -3.08333,-3.08334c0,-1.70288 1.38045,-3.08333 3.08333,-3.08333c1.70288,0 3.08334,1.38045 3.08334,3.08333c0,1.70288 -1.38046,3.08334 -3.08334,3.08334z" fill="#000000" stroke="none" stroke-width="0" stroke-linecap="butt"/><path d="M423.43633,27.1667l-3.1667,-11.1667l16.3333,-1.75" fill="none" stroke="#000000" stroke-width="1.5" stroke-linecap="round"/><g><path d="M452.10293,13.6493v49.9221" fill="none" stroke="#cd7500" stroke-width="1.5" stroke-linecap="round"/><path d="M452.20862,14.87027l-3.85714,1.83149l3.71428,-12.48747l3.57143,12.48747z" fill="#b6b6b6" stroke="none" stroke-width="0" stroke-linecap="butt"/></g><path d="M458.60293,24l1.72,8.2597l-9.0295,3.3355" fill="none" stroke="#000000" stroke-width="1.5" stroke-linecap="round"/><path d="M446.78003,48.3571v14.8572l-2.8571,1" fill="none" stroke="#000000" stroke-width="1.5" stroke-linecap="round"/></g></g></g></svg>