<svg version="1.1" xmlns="http://www.w3.org/2000/svg" xmlns:xlink="http://www.w3.org/1999/xlink" width="56.30613" height="165.02779" viewBox="0,0,56.30613,165.02779"><g transform="translate(-213.0772,-81.11031)"><g data-paper-data="{&quot;isPaintingLayer&quot;:true}" fill-rule="nonzero" stroke-linejoin="miter" stroke-miterlimit="10" stroke-dasharray="" stroke-dashoffset="0" style="mix-blend-mode: normal"><path d="M217.59852,86.45226l12.75,12.85715" fill="none" stroke="#823f00" stroke-width="2.5" stroke-linecap="round"/><g fill="none" stroke="#ffdb33" stroke-width="1.5" stroke-linecap="round"><path d="M217.28165,81.86031v7.92857"/><path d="M213.8272,88.2662l6.80175,-4.66891"/><path d="M213.87372,83.66036l6.63728,4.89991" data-paper-data="{&quot;index&quot;:null}"/></g><path d="M217.3,109.33334c0,0 3.20087,-7.22444 5.64864,-10.25556c2.29837,-2.84611 9.21802,-6.14444 9.21802,-6.14444h19.2c0,0 7.78535,3.19257 10.51029,6.5347c2.44456,2.99824 4.48971,11.33197 4.48971,11.33197z" fill="#99a8aa" stroke="none" stroke-width="0" stroke-linecap="butt"/><path d="M240.62858,138.17223v67.29708l-12.04762,38.91879" data-paper-data="{&quot;origPos&quot;:null}" fill="none" stroke="#000000" stroke-width="3.5" stroke-linecap="round"/><path d="M266.1388,109.59348c0,5.85435 2.49495,12.25121 -5.02081,21.58074c-4.73489,5.87756 -14.41787,9.20999 -20.32886,9.20999c-6.42517,0 -15.58319,-3.97503 -19.81608,-10.78107c-5.54829,-8.92107 -3.46115,-14.71059 -3.18703,-20.80961c0.00522,-0.11617 1.07698,-1.20533 5.00828,-1.17135c1.603,0.01386 4.61342,1.35487 6.37256,1.41243c2.18988,0.07166 3.98328,-1.55636 6.20387,-1.56512c1.89748,-0.00749 4.17958,1.60854 6.48505,1.60854c2.10633,0 4.72839,-1.70072 6.8066,-1.64567c2.59085,0.06863 4.63509,1.89954 7.24581,1.94355c2.37631,0.04005 4.26212,-1.37805 5.9588,-1.39177c3.37613,-0.02731 4.27182,1.51233 4.27182,1.60935z" fill="#50d9ef" stroke="#45e5ff" stroke-width="0" stroke-linecap="butt"/><path d="M253.47937,244.19129l-12.04762,-40.15873" fill="none" stroke="#000000" stroke-width="3.5" stroke-linecap="round"/><path d="M239.3254,146.49605l-15.69841,29.57143" data-paper-data="{&quot;origPos&quot;:null}" fill="none" stroke="#000000" stroke-width="3.5" stroke-linecap="round"/><path d="M257.21428,176.06749l-15.69841,-29.57144" data-paper-data="{&quot;origPos&quot;:null,&quot;index&quot;:null}" fill="none" stroke="#000000" stroke-width="3.5" stroke-linecap="round"/><path d="M251.43334,91.86667c9.21227,3.78097 15.69999,12.84039 15.69999,23.41509c0,13.9728 -11.3272,25.3 -25.3,25.3c-13.9728,0 -25.3,-11.3272 -25.3,-25.3c0,-10.53909 6.44409,-19.57309 15.607,-23.37671" data-paper-data="{&quot;origPos&quot;:null}" fill="none" stroke="#0075af" stroke-width="4.5" stroke-linecap="butt"/><path d="M237.41587,109.25796c0,-2.66149 2.15756,-4.81905 4.81905,-4.81905c2.66149,0 4.81905,2.15756 4.81905,4.81905c0,2.66149 -2.15756,4.81905 -4.81905,4.81905c-2.66149,0 -4.81905,-2.15756 -4.81905,-4.81905z" data-paper-data="{&quot;origPos&quot;:null}" fill="#ffffff" stroke="none" stroke-width="0" stroke-linecap="butt"/><path d="M251.06984,109.25796c0,-2.66148 2.15757,-4.81905 4.81905,-4.81905c2.66148,0 4.81905,2.15757 4.81905,4.81905c0,2.66148 -2.15757,4.81905 -4.81905,4.81905c-2.66148,0 -4.81905,-2.15757 -4.81905,-4.81905z" data-paper-data="{&quot;origPos&quot;:null}" fill="#ffffff" stroke="none" stroke-width="0" stroke-linecap="butt"/><path d="M239.70566,108.32726c0,-1.09471 0.88744,-1.98214 1.98215,-1.98214c1.09471,0 1.98214,0.88743 1.98214,1.98214c0,1.09471 -0.88744,1.98215 -1.98214,1.98215c-1.09471,0 -1.98215,-0.88744 -1.98215,-1.98215z" fill="#000000" stroke="none" stroke-width="0" stroke-linecap="butt"/><path d="M254.99138,109.98797c0,-1.1243 0.91142,-2.03572 2.03571,-2.03572c1.1243,0 2.03572,0.91142 2.03572,2.03572c0,1.1243 -0.91142,2.03571 -2.03572,2.03571c-1.12429,0 -2.03571,-0.91142 -2.03571,-2.03571z" fill="#000000" stroke="none" stroke-width="0" stroke-linecap="butt"/><path d="M253.52473,126.15958c-1.29907,3.04846 -6.53637,4.93237 -11.4901,2.82138c-4.95373,-2.111 -7.74804,-7.41751 -6.44897,-10.46597c1.29907,-3.04846 4.10802,1.8593 9.06176,3.9703c4.95373,2.111 10.17639,0.62584 8.87732,3.6743z" fill="#ffffff" stroke="#000000" stroke-width="0.5" stroke-linecap="butt"/><g stroke="none" stroke-width="0" stroke-linecap="butt"><g data-paper-data="{&quot;index&quot;:null}" fill="#00d607"><path d="M235.25,128.71429c0,0.74953 -1.13528,1.35714 -2.53572,1.35714c-1.40043,0 -2.53571,-0.60761 -2.53571,-1.35714c0,-0.74953 1.13528,-1.35715 2.53571,-1.35715c1.40043,0 2.53572,0.60762 2.53572,1.35715z"/><path d="M228.53571,130.5v-3.57143l2.28571,1.85714z"/></g><path d="M233.65312,128.34404c0,-0.24446 0.19817,-0.44262 0.44262,-0.44262c0.24445,0 0.44262,0.19817 0.44262,0.44262c0,0.24445 -0.19817,0.44262 -0.44262,0.44262c-0.24445,0 -0.44262,-0.19817 -0.44262,-0.44262z" fill="#000000"/></g><g stroke="none" stroke-width="0" stroke-linecap="butt"><g fill="#f04f4f"><path d="M222.28571,114.42858c1.40043,0 2.53571,0.60761 2.53571,1.35714c0,0.74953 -1.13527,1.35714 -2.53571,1.35714c-1.40043,0 -2.53571,-0.60761 -2.53571,-1.35714c0,-0.74953 1.13527,-1.35714 2.53571,-1.35714z"/><path d="M224.17857,115.85715l2.28571,-1.85714v3.57143z"/></g><path d="M220.63673,115.37683c0,-0.24445 0.19817,-0.44262 0.44262,-0.44262c0.24445,0 0.44262,0.19817 0.44262,0.44262c0,0.24445 -0.19817,0.44262 -0.44262,0.44262c-0.24445,0 -0.44262,-0.19817 -0.44262,-0.44262z" fill="#000000"/></g><g stroke="none" stroke-width="0" stroke-linecap="butt"><g data-paper-data="{&quot;index&quot;:null}" fill="#8223e6"><path d="M257.92857,115.5c1.40043,0 2.53571,0.60762 2.53571,1.35715c0,0.74953 -1.13528,1.35714 -2.53571,1.35714c-1.40044,0 -2.53571,-0.60761 -2.53571,-1.35714c0,-0.74953 1.13528,-1.35715 2.53571,-1.35715z"/><path d="M259.82143,116.92857l2.28571,-1.85714v3.57143z"/></g><path d="M256.2105,116.42601c0,-0.24445 0.19817,-0.44262 0.44262,-0.44262c0.24446,0 0.44263,0.19817 0.44263,0.44262c0,0.24445 -0.19817,0.44263 -0.44263,0.44263c-0.24445,0 -0.44262,-0.19817 -0.44262,-0.44263z" fill="#000000"/></g></g></g></svg>