<svg xmlns="http://www.w3.org/2000/svg" xmlns:xlink="http://www.w3.org/1999/xlink" version="1.1" width="500.12104" height="362.59095" viewBox="0,0,500.12104,362.59095"><defs><linearGradient x1="303.3368" y1="92.92481" x2="287.50441" y2="91.57443" gradientUnits="userSpaceOnUse" id="color-1"><stop offset="0" stop-color="#ff0000"/><stop offset="1" stop-color="#540000"/></linearGradient><linearGradient x1="149.14518" y1="160.52481" x2="167.326" y2="161.87519" gradientUnits="userSpaceOnUse" id="color-2"><stop offset="0" stop-color="#ff0000"/><stop offset="1" stop-color="#540000"/></linearGradient><linearGradient x1="156.5" y1="84.41667" x2="188.5" y2="84.41667" gradientUnits="userSpaceOnUse" id="color-3"><stop offset="0" stop-color="#ff0000"/><stop offset="1" stop-color="#540000"/></linearGradient></defs><g><g data-paper-data="{&quot;isPaintingLayer&quot;:true}" fill-rule="nonzero" stroke-linejoin="miter" stroke-miterlimit="10" stroke-dasharray="" stroke-dashoffset="0" style="mix-blend-mode: normal"><path d="M268.08471,99.1427l42.26927,-22.96914l8.76331,21.54758l-65.70926,21.65105z" data-paper-data="{&quot;origPos&quot;:null,&quot;index&quot;:null,&quot;origRot&quot;:0}" fill="#540000" stroke="none" stroke-width="0" stroke-linecap="butt" transform="matrix(1,0,0,1,5.95354,-10.30619)"/><path d="M299.93798,81.95481l5.63691,20.29001l-16.35134,5.43295l-3.8737,-17.74001z" data-paper-data="{&quot;origPos&quot;:null,&quot;origRot&quot;:0,&quot;index&quot;:null}" fill="url(#color-1)" stroke="none" stroke-width="0" stroke-linecap="butt" transform="matrix(1,0,0,1,5.95354,-10.30619)"/><path d="M146,171v-20l53.75,3l11.86798,22.73441l-16.11798,6.26559c0,0 -8.64306,-13.77711 -9.37467,-13.95447c-2.19485,-0.53208 -40.12533,1.95447 -40.12533,1.95447z" data-paper-data="{&quot;origPos&quot;:null}" fill="#540000" stroke="none" stroke-width="0" stroke-linecap="butt" transform="matrix(1,0,0,1,5.95354,-10.30619)"/><path d="M 456.9535 324.6938 C 456.9535 324.6938 420.4141 293.2745 401.6071 265.6091 C 371.5855 221.4466 360.5312 185.5721 335.3143 138.5005 C 318.0019 106.1841 306.9535 44.6938 306.9535 44.6938 " data-paper-data="{&quot;origPos&quot;:null}" fill="none" stroke="#540000" stroke-width="14" stroke-linecap="round"/><path d="" fill="#540000" stroke="none" stroke-width="0.5" stroke-linecap="butt" transform="matrix(1,0,0,1,5.95354,-10.30619)"/><path d="" fill="#540000" stroke="none" stroke-width="0.5" stroke-linecap="butt" transform="matrix(1,0,0,1,5.95354,-10.30619)"/><path d="" fill="#ff0000" stroke="none" stroke-width="0.5" stroke-linecap="butt" transform="matrix(1,0,0,1,5.95354,-10.30619)"/><path d="" fill="#ff0000" stroke="none" stroke-width="0.5" stroke-linecap="butt" transform="matrix(1,0,0,1,5.95354,-10.30619)"/><path d="" fill="#ff0000" stroke="none" stroke-width="0.5" stroke-linecap="butt" transform="matrix(1,0,0,1,5.95354,-10.30619)"/><path d="" fill="#ff0000" stroke="none" stroke-width="0.5" stroke-linecap="butt" transform="matrix(1,0,0,1,5.95354,-10.30619)"/><path d="" fill="#ff0000" stroke="none" stroke-width="0.5" stroke-linecap="butt" transform="matrix(1,0,0,1,5.95354,-10.30619)"/><path d="" fill="#ff0000" stroke="none" stroke-width="0.5" stroke-linecap="butt" transform="matrix(1,0,0,1,5.95354,-10.30619)"/><path d="" fill="#ff0000" stroke="none" stroke-width="0.5" stroke-linecap="butt" transform="matrix(1,0,0,1,5.95354,-10.30619)"/><path d="" fill="#ff0000" stroke="none" stroke-width="0.5" stroke-linecap="butt" transform="matrix(1,0,0,1,5.95354,-10.30619)"/><path d="" fill="#540000" stroke="none" stroke-width="0.5" stroke-linecap="butt" transform="matrix(1,0,0,1,5.95354,-10.30619)"/><path d="M 307.2018 52.9729 L 307.2138 53.0048 C 307.0414 52.2612 307.0714 51.1414 308.4033 50.3633 C 310.5619 49.1022 311.823 51.2608 311.823 51.2608 L 312.161 52.3349 C 312.9887 58.769 314.2699 65.1293 315.1644 71.5219 C 315.3752 73.0279 315.435 74.4726 315.4562 75.8901 C 314.6373 72.5266 313.6112 69.1898 312.4457 66.6469 C 311.6329 64.8734 310.0365 63.1013 308.5151 61.5154 C 308.0333 58.6769 307.5696 55.8313 307.2018 52.9728 Z " fill="#540000" stroke="none" stroke-width="0.5" stroke-linecap="butt"/><path d="M 317.4144 92.4887 C 317.1301 91.2862 317.1581 89.7955 317.1963 88.2923 C 318.8628 93.629 320.2465 99.0894 321.572 104.5667 C 319.8676 100.0565 318.1992 95.807 317.4144 92.4887 Z " fill="#540000" stroke="none" stroke-width="0.5" stroke-linecap="butt"/><path d="M 383.4105 236.8312 C 383.4944 236.6363 383.5543 236.4286 383.5864 236.2118 L 383.8552 234.5917 C 384.2712 234.2152 384.1884 233.4893 384.1307 232.9312 C 383.8722 230.4282 383.0137 227.8644 382.1603 225.3766 C 382.1592 225.357 382.1578 225.3375 382.1563 225.3181 L 381.9908 223.0008 C 382.1371 222.9818 382.2794 222.95 382.4166 222.9068 C 385.0915 230.1199 387.7114 237.4287 390.8895 244.3894 " fill="none" stroke="none" stroke-width="0.25" stroke-linecap="butt"/><path d="M 362.5336 209.0186 C 362.5769 209.0208 362.6206 209.0219 362.6645 209.0219 C 363.4054 209.0219 364.0711 208.6996 364.5289 208.1875 C 366.0496 211.5685 367.5702 214.9496 369.0909 218.3307 C 369.3369 219.0976 369.6667 220.1258 370.0247 221.2421 " fill="none" stroke="none" stroke-width="0.25" stroke-linecap="butt"/><path d="M 352.1645 189.7913 L 352.1645 188.5376 C 352.5815 189.5048 352.9986 190.472 353.416 191.4391 " fill="none" stroke="none" stroke-width="0.25" stroke-linecap="butt"/><path d="M 343.4227 181.8311 C 338.3941 168.6986 334.3562 155.0209 330.2441 141.6566 C 329.5027 139.2472 328.7614 136.8378 328.02 134.4284 C 327.9221 134.7327 327.7586 135.0443 327.4907 135.3121 L 328.1644 135.5219 C 328.1644 136.3552 328.7009 137.3842 328.1644 138.0219 L 328.1644 140.5219 C 328.1644 141.9026 327.0451 143.0219 325.6644 143.0219 C 324.5398 143.0219 323.5887 142.2793 323.2745 141.2578 L 322.2927 138.3125 L 322.348 138.294 C 322.1059 137.43 321.9786 136.6787 322.1644 135.5219 C 322.2037 135.2773 322.6499 135.1475 322.5843 134.9086 C 322.1422 133.2982 320.6304 132.1255 320.1644 130.5219 C 320.1108 130.3372 320.2022 127.1785 320.1837 126.832 C 320.0496 124.309 319.6859 121.603 319.2384 119.1255 C 318.537 115.2428 317.3241 111.552 316.9958 107.5897 C 316.5313 101.7518 315.0439 96.2396 314.1644 90.5219 C 312.8453 81.9456 313.5659 72.507 310.3432 64.4504 C 310.3432 64.4504 309.4148 62.1292 311.736 61.2007 C 314.0571 60.2722 314.9856 62.5934 314.9856 62.5934 C 315.0645 62.7907 315.1481 62.9865 315.2345 63.1814 C 315.3252 62.8417 315.4161 62.5007 315.5072 62.1589 C 313.7756 58.6489 312.1487 55.0807 310.4284 51.6399 C 310.4284 51.6399 309.3103 49.4039 311.5464 48.2858 C 313.7825 47.1678 314.9005 49.4039 314.9005 49.4039 C 315.7778 51.1585 316.6299 52.9475 317.4843 54.7449 C 317.7429 53.775 317.9984 52.8168 318.2488 51.8777 C 318.2488 51.8777 318.893 49.4622 321.3086 50.1063 C 323.7242 50.7505 323.08 53.1661 323.08 53.1661 C 322.3286 55.9837 321.5773 58.8014 320.8259 61.619 C 322.2931 64.5001 323.8586 67.3167 325.6395 69.9592 C 327.4578 72.6572 328.9899 75.8 330.888 78.3793 C 331.7252 79.5169 333.1586 80.1319 333.9677 81.2897 C 335.349 83.2661 336.2349 85.8127 337.2523 88.0049 C 338.372 90.4172 339.5179 92.8268 340.6782 95.236 C 341.3658 95.5414 341.89 96.148 342.0834 96.8883 L 342.755 99.2389 C 343.2026 99.5327 343.2778 100.1068 343.3262 100.6945 C 347.2015 108.6427 351.1342 116.607 354.6945 124.6745 C 355.0249 124.9503 355.2831 125.3098 355.4364 125.7204 L 356.3432 127.9875 C 358.4941 133.3646 360.6768 138.7271 362.8775 144.0824 C 366.4778 151.0245 370.0781 157.9666 373.6784 164.9087 " fill="none" stroke="none" stroke-width="0.25" stroke-linecap="butt"/><path d="M 327.6941 119.776 C 319.44 121.8057 317.6006 114.2098 317.6006 114.2098 L 317.1006 112.7098 C 316.7886 111.3139 316.3967 109.9333 316.1644 108.5219 C 316.0832 108.0285 315.7578 107.3128 316.1644 107.0219 C 316.1944 107.0004 316.2231 106.995 316.2505 107.0026 C 315.5079 104.9409 314.1185 102.7242 314.1006 100.7098 C 314.0985 100.4697 314.7033 101.4497 314.592 101.2369 C 314.3136 100.7043 313.836 100.286 313.592 99.7369 C 312.689 97.7043 311.332 95.6434 310.6644 93.5219 C 310.5164 93.0514 310.098 92.3325 310.4817 92.0339 C 310.4529 91.9282 310.1016 91.8206 310.1006 91.7098 C 310.0985 91.4697 310.7033 92.4497 310.592 92.2369 C 310.3136 91.7043 310.592 91.2369 310.2587 90.7369 C 308.2131 86.8285 308.1222 83.6894 306.7724 79.6787 C 304.8566 73.9862 302.9779 68.5237 302.1644 62.5219 C 301.6442 58.6837 302.1644 54.4004 302.1644 50.5219 C 302.1644 50.5219 302.1644 42.0219 310.6644 42.0219 C 319.1644 42.0219 319.1644 50.5219 319.1644 50.5219 C 319.1644 57.6674 318.6453 64.3026 321.5565 70.8651 C 323.2151 74.604 323.4608 78.6978 324.9106 82.4604 C 325.0504 82.8232 324.7948 81.6914 324.7369 81.307 C 326.0328 83.2508 327.3435 85.4963 327.7282 87.834 C 327.8791 88.7505 327.9743 89.6753 328.0526 90.6016 C 328.8023 91.8285 330.1563 95.1523 330.2282 95.334 C 331.1288 97.6073 332.3318 100.4252 332.7282 102.834 C 333.0371 104.7103 332.7835 106.6589 333.1644 108.5219 C 333.2439 108.9104 333.207 107.73 333.2282 107.334 L 333.7282 108.834 C 333.7282 108.834 335.9482 117.7463 327.6941 119.776 Z " data-paper-data="{&quot;origPos&quot;:null}" fill="#ff0000" stroke="none" stroke-width="0.5" stroke-linecap="butt"/><path d="M 7.7569 9.6086 C 8.4643 7.2108 10.8621 7.9183 10.8621 7.9183 L 10.9844 8.0804 C 24.3199 7.3552 36.7904 13.8552 49.4303 17.3033 C 56.7267 19.2937 64.3768 20.996 71.4517 23.6842 C 75.9715 25.4015 80.0899 28.2404 84.6241 29.9007 C 86.1676 30.4658 87.7961 30.8889 89.4292 31.2857 L 89.4513 31.2037 L 90.8995 31.5947 L 91.4072 30.8288 L 93.9949 32.5442 C 94.043 32.5745 94.0899 32.6064 94.1355 32.6397 C 94.7644 33.0618 95.4631 33.8742 95.0752 35.3113 C 94.6873 36.7484 93.6747 37.0989 92.9188 37.1472 C 92.6222 37.1779 92.3151 37.1557 92.01 37.0734 C 89.1504 36.3015 86.0982 35.7447 83.3211 34.7279 C 78.5004 32.9628 74.1249 30.0335 69.3296 28.2115 C 62.5353 25.63 55.1249 24.0394 48.1144 22.127 C 36.0771 18.8433 23.9325 12.3837 11.2559 13.073 L 9.4472 12.7139 C 9.4472 12.7139 7.0494 12.0064 7.7569 9.6086 Z " data-paper-data="{&quot;origRot&quot;:0,&quot;origPos&quot;:null}" fill="#ff0000" stroke="none" stroke-width="0.5" stroke-linecap="butt"/><path d="M 467.8484 1.3051 C 469.0651 3.489 466.8812 4.7058 466.8812 4.7058 L 466.4322 4.2897 C 464.9389 5.783 463.473 7.5364 461.7551 8.7714 C 459.7608 10.2053 457.0366 10.7239 454.8342 11.7314 C 448.5242 14.6178 442.2349 18.1667 436.243 21.662 C 432.7468 23.7015 429.3001 25.9122 425.7151 27.7904 C 418.6693 31.4817 410.8004 33.9478 404.1305 38.3506 C 402.6878 39.3029 401.3324 40.3941 399.9595 41.4644 L 400.0512 41.602 L 399.2904 42.1092 L 399.5432 42.8771 L 396.5015 43.8783 C 396.4089 43.9112 396.3138 43.9388 396.2166 43.9607 C 395.4941 44.1541 394.4388 44.1491 393.6164 42.956 C 393.5918 42.9209 393.5681 42.8852 393.5453 42.8488 C 392.7674 41.6314 393.174 40.6569 393.6312 40.067 C 393.8142 39.8116 394.0442 39.5922 394.3085 39.4212 C 396.6248 37.8724 398.6968 35.9712 401.0071 34.4462 C 408.0391 29.8044 416.1936 27.1425 423.6139 23.2534 C 427.0571 21.4487 430.3647 19.3025 433.7237 17.3431 C 439.7742 13.8136 446.124 10.2306 452.4947 7.3124 C 454.7211 6.2926 457.558 5.7352 459.5738 4.2723 C 460.7163 3.4432 461.8618 1.789 462.8967 0.7541 L 464.4477 0.338 C 464.4477 0.338 466.6316 -0.8788 467.8484 1.3051 Z " data-paper-data="{&quot;origPos&quot;:null}" fill="#ff0000" stroke="none" stroke-width="0.5" stroke-linecap="butt"/><path d="M485.88332,322.82803c7.48921,0.03646 14.11551,49.93269 0,50.00001c-25.9997,0.124 -38.17259,0.05381 -64.17253,0c-5.54318,-0.01147 -11.32559,-1.94302 -16.65932,-2c-51.11064,-0.54598 -102.22713,0.04102 -153.34068,0c-10.68307,-0.00857 -22.89512,-2.20034 -33.18205,-3.09469c-18.68138,-1.62417 -21.07132,-0.37285 -34.21104,-3.03379c-2.79516,-0.56605 -5.5394,-0.50507 -8.29443,-0.55086c-6.72075,1.06677 -13.48074,1.62484 -20.31247,1.67935c-6.78219,0.05411 -13.567,-0.17207 -20.34723,0c-2.24178,0.05689 -4.41033,0.98297 -6.65277,1c-15.84105,0.12032 -31.68316,-0.06825 -47.52451,0c-2.99671,0.01291 -5.69713,1.86372 -8.56979,2.71708c-5.16929,1.53561 -21.15922,-1.17964 -23.97719,-0.36676c-10.79032,3.11259 -25.78852,1.22021 -36.01109,2.04082c-25.67852,-1.68246 -18.50806,-38.73652 -14.60947,-38.79269c1.45773,-0.61899 3.03156,-0.99079 4.40597,-1.77658c1.24883,-0.714 2.14882,-1.93041 3.35448,-2.71513c1.142,-0.74329 2.30297,-1.45727 3.47599,-2.15302c-0.19315,0.98559 -0.29437,2.00412 -0.29437,3.0463c0,0.77007 0.05526,1.52723 0.16204,2.26773c2.38019,-4.01773 7.58802,-4.01773 7.58802,-4.01773c1.38752,0 2.77503,0 4.16255,0c0.31276,-0.5467 -0.67259,-1.08391 -0.44299,-1.60363c2.16113,-4.89188 7.56096,-4.87254 11.51345,-6.94735c0.17325,-0.09094 -0.72008,0.16364 -0.58663,0.02054c0.96594,-1.03583 4.43557,-2.24452 5.08663,-2.52054c2.06736,-0.68912 3.927,-1.87292 5.85982,-2.88695c0.15631,-0.24576 0.31167,-0.47955 0.46664,-0.6965c3.73851,-5.23392 7.60723,-10.69252 13.94052,-13.11557c0.16655,-0.06372 0.33624,-0.11039 0.50845,-0.14345c2.33954,-1.68886 4.64806,-3.40819 6.94039,-5.15695c0.85284,-1.28988 1.85634,-2.66619 2.93746,-3.87179c0.48639,-1.9919 1.4735,-3.38546 1.4735,-3.38546l0.95303,-2.12953c0.972,-0.972 2.59643,-3.08984 3.35458,-3.7789c0.14003,-0.12727 0.41405,0.34735 0.53162,0.19909c0.91143,-1.14934 0.90096,-2.79614 1.47474,-4.14613c1.53901,-3.62095 3.69583,-7.26647 6.45824,-10.09122c1.06853,-1.82913 2.13016,-3.67948 3.51437,-5.2761c1.62821,-1.87806 2.94298,-1.67431 4.66644,-2.90674c1.84499,-1.31933 3.4842,-2.93203 5.42019,-4.11379c0.03986,-0.02433 0.08661,-0.05179 0.13852,-0.08133c0.41973,-0.67915 0.83998,-1.35791 1.34804,-1.97132c2.06525,-2.49352 3.80953,-7.90357 4.97946,-11.41337c0,0 0.49481,-1.48444 1.69368,-2.98859c0.26784,-1.26691 0.66232,-2.50712 0.99837,-3.76039c-0.04289,0.03403 -0.0899,0.04253 -0.14107,0.01598c-0.4438,-0.2303 -0.08119,-1.00664 0,-1.5c0.2366,-1.43775 0.63268,-2.84466 0.94902,-4.26699l0.5,-1.5c0,0 1.65748,-7.67279 10.19912,-5.77464c0.64852,0.14412 1.23547,0.33154 1.76647,0.55486c1.78834,-4.76018 3.59821,-9.50492 5.72046,-14.08372c4.97633,-10.56233 9.67421,-21.07343 12.6093,-32.345c0.46177,-1.77334 0.90954,-3.68002 1.6339,-5.37507c0.88597,-2.07321 2.30572,-3.43691 1.87171,-5.70943c0,-4.39675 1.68508,-8.53115 2.72576,-12.77868c2.46579,-10.06406 5.00187,-20.12231 6.03293,-30.43286c0.26852,-2.68516 1.43598,-5.12655 1.24132,-7.78846c0,-4.29538 0.45292,-8.992 0.37465,-13.48704c0.05093,-0.13704 0.10143,-0.27424 0.15152,-0.4116c-0.52616,-0.71679 -0.52616,-1.60135 -0.52616,-1.60135c0,-2.76423 -0.15116,-3.17055 1.73223,-5.76777c0.68626,-0.94636 2.60294,-1.91421 3,-3c0.08926,-0.24408 -0.59947,0.49118 -0.73223,0.26777c-0.51085,-0.85967 0,-2 0,-3c0,-2.83333 0,-5.66667 0,-8.5l0.04033,-2.44721c0,0 0.44721,-2.45967 2.90689,-2.01246c2.45967,0.44721 2.01246,2.90689 2.01246,2.90689l0.04033,1.55279c0,4.49692 0.99277,10.5178 -0.73223,14.76777c-0.16625,0.40961 -2.58428,2.92385 -3,3c-0.2666,0.04884 -0.17468,-1.02232 -0.26777,-0.76777c-0.34344,0.93917 0,2 0,3c0,0 0,2.5 -2.5,2.5c-1.01292,0 -1.61544,-0.4104 -1.97384,-0.89865c0.25071,-0.68747 0.49117,-1.37886 0.72294,-2.07323c0.13225,-0.17222 0.25149,-0.34173 0.32196,-0.45706c0.96611,-1.58119 1.77511,-3.25264 2.6402,-4.89187c0.35237,1.00891 0.6709,1.97889 0.78872,2.8208c0.82565,5.90003 0,12.54818 0,18.5c-0.10071,2.63197 -0.60184,3.53287 -1.01737,5.79839c-0.61666,3.36211 -0.51601,6.86406 -1.04216,10.24394c-1.09382,7.02646 -3.22519,13.99859 -4.8044,20.93098c-1.04565,4.59022 -3.13607,9.33901 -3.13607,14.02669c-0.46544,6.38039 -4.23585,12.88695 -6.06797,19.08739c-0.52096,1.76307 -0.63942,3.62681 -1.13417,5.39741c-2.00717,7.18323 -6.20992,14.32671 -9.38964,21.07573c-2.41136,5.01423 -4.37823,10.29203 -6.34101,15.57612c1.61036,3.27349 0.73378,7.13035 0.73378,7.13035l-0.5,1.5c-0.00292,-0.07263 -0.00554,-0.1398 -0.00787,-0.2017c0.0213,1.57931 -0.03152,5.79546 -0.99213,6.2017c-0.00954,0.00403 -0.01858,0.00686 -0.02715,0.00854c-0.00268,0.07534 -0.00993,0.15023 -0.02382,0.22446c-0.39982,2.1367 -0.81749,4.27994 -1.46956,6.35363c-0.09379,0.29828 -0.31596,0.84867 -0.5308,1.22668c-0.00968,1.07683 -0.21388,2.1072 -0.57915,3.05768c-0.50983,1.50054 -1.46817,3.2126 -3.26961,4.34704c-0.93371,2.05432 -1.95436,4.05837 -3.05703,5.93359c-1.13643,-0.15329 -2.30996,-0.24672 -3.55474,-0.24672c-1,0 -2.29289,-0.70711 -3,0c-3.59204,3.59204 -6.90272,7.47354 -10,11.5c-0.30486,0.39631 -0.29371,1.09536 0,1.5c0.91136,1.25558 1.85804,2.4862 2.83398,3.69384c0.04243,0.12999 0.09781,0.23901 0.16602,0.30616c0.14036,0.1382 0.28094,0.27626 0.42175,0.41415c0.04386,0.05324 0.08777,0.10643 0.13173,0.15957c-0.48968,-0.02117 -2.05299,-0.14396 -3.71439,-0.85613c-0.3172,0.43025 -0.63344,0.86114 -0.94099,1.29772c-2.0776,2.0776 -2.41024,5.08821 -3.88621,7.57981c-2.31329,3.90511 -4.93785,7.24425 -8.11379,10.42019l0.95303,-0.12953c0,0 -0.77735,1.09743 -2.15278,2.12707c1.92133,2.91226 3.88619,6.31779 3.81355,9.54829c-0.00588,0.26136 -0.64205,-0.81811 -0.52054,-0.58663c1.06625,2.03119 3.57475,4.17586 3.52054,6.58663c-0.00588,0.26136 -0.64205,-0.81811 -0.52054,-0.58663c1.06625,2.03119 3.57475,4.17586 3.52054,6.58663c-0.00588,0.26136 -0.64205,-0.81811 -0.52054,-0.58663c1.44819,2.75879 3.8754,5.18909 5.38784,7.83583c1.56634,2.74105 3.02946,5.54617 4.35587,8.41205c5.15722,-0.55291 11.18303,-1.56255 11.95637,-1.64425c1.15248,-0.12176 2.79478,0.27215 4.01944,0c6.63519,-1.47449 13.48656,-2.08025 20.08883,-3.30585c2.83113,-0.52555 5.59216,-1.62126 8.47073,-1.69415c19.47391,-0.49307 38.96037,0.05344 58.44044,0c4.04324,-0.01109 9.24975,-0.95155 12.65511,-1c18.36785,-0.26135 36.75302,-0.70698 55.10912,0c3.71195,0.14296 13.914,2.97751 20.23577,3c27.98877,0.09956 55.97932,-0.28377 83.96683,0c2.44927,0.02483 5.45188,1.96012 8.03317,2c14.64454,0.22623 29.29263,-0.04026 43.93886,0c5.81909,0.01599 9.06964,2.14176 14.74599,0.3465c-2.24617,-1.9006 -4.29017,-3.6483 -5.93547,-5.99903c1.26698,-0.28796 2.08674,-0.6051 2.08674,-0.6051l0.48075,-0.32051c0.49075,0 0.98149,0 1.47224,0c3.17153,0 7.47758,0.7996 10.5,0c3.48359,-0.92161 8.14138,-0.88573 10.07107,-3.92893c0.10361,-0.16339 -0.67743,0.36738 -0.52407,0.24944c0.14601,-0.11229 0.29048,-0.22568 0.43335,-0.34015c13.2435,-0.07737 12.66026,-0.21679 25.90297,-0.15233zM25.20019,344.57808c-1.49087,0 -3.06082,0 -4.5293,0c1.42973,0.2724 2.96256,0.22898 4.5293,0zM120.46639,238.80284c-0.00156,0.00723 -0.00338,0.01562 -0.00549,0.02525c-0.00565,0.02582 -0.01044,0.05172 -0.01447,0.07771c0.00816,-0.04373 0.0151,-0.079 0.01996,-0.10296z" data-paper-data="{&quot;origPos&quot;:null}" fill="#540000" stroke="none" stroke-width="NaN" stroke-linecap="butt" transform="matrix(1,0,0,1,5.95354,-10.30619)"/><path d="M326.52015,196.45435c-1.74359,-8.72628 -3.69207,-17.77321 -6.9334,-25.87652c-0.54194,-1.91656 -1.18999,-3.80623 -1.62583,-5.74967c-0.10941,-0.48788 -0.4438,-1.2697 0,-1.5c0.06718,-0.03486 0.12721,-0.00931 0.18012,0.05514c-0.3615,-1.5988 -0.82556,-3.50571 -1.25636,-4.64202c-0.99684,-2.62938 -2.25949,-5.18071 -2.92376,-7.91312c-0.11796,-0.48522 -0.4316,-1.33062 -0.30267,-1.75063c-2.26133,-3.63132 -3.18083,-8.70842 -3.52005,-13.24937h-0.17729v-4.58333l-0.55098,-0.18366l0.9362,-2.80859c0.05853,-0.19032 0.12338,-0.37787 0.1943,-0.56241c0.7658,-2.25391 2.54354,-4.98508 6.67049,-5.51903c0,-2.78099 0,-5.56199 0,-8.34298c0,-1.29102 0.23661,-2.54842 -0.37171,-3.70943c-0.99906,-2.99717 -1.57172,-6.07602 -1.61855,-9.23017c-0.01798,-1.211 0.42079,-3.88309 -0.00974,-5.0604c-0.09309,-0.25455 -0.00116,0.8166 -0.26777,0.76777c-0.46369,-0.08494 -0.82271,-0.5632 -1,-1c-0.90409,-2.22743 -1.64866,-6.79847 -1.73223,-9.26777c-0.04361,-1.28845 0.37842,-3.2754 0,-4.5c-0.33111,-1.0715 -1.37905,-1.81882 -1.73607,-2.88197c-0.80003,-2.38236 -1.06872,-5.02218 -1.68025,-7.46585c-0.56125,-2.25571 -1.40226,-4.4999 -1.86109,-6.773c-0.35576,-1.76247 -0.14873,-3.63274 -0.67704,-5.35139c-0.04566,-0.14855 -0.24799,0.34943 -0.38089,0.26887c-0.42941,-0.26026 -0.67585,-0.74279 -1.01378,-1.11419l-0.61228,-3.2449c0,0 -0.43758,-2.46141 2.02382,-2.89899c2.46141,-0.43758 2.89899,2.02382 2.89899,2.02382l-0.61228,0.7551c3.53531,3.88547 3.82882,10.07224 5.08662,15.1274c0.51103,2.06452 0.63547,4.44299 1.30033,6.43705c0.59005,1.76969 1.77148,3.31874 2.26393,5.11803c0.59503,2.17405 -0.28386,4.50701 0.37171,6.70943c0.08405,0.28237 1.05553,3.0716 0.62829,3.79057c-0.13276,0.22342 -0.82149,-0.51184 -0.73223,-0.26777c0.53281,1.45702 2.14877,2.33028 2.73223,3.76777c0.71731,1.76726 -0.24099,4.71963 -0.02913,6.60681c0.22797,2.03065 0.75516,4.16558 1.40084,6.10262c1.24797,4.54974 0.57513,9.31949 0.37518,14.02763c2.90439,0.97104 4.27592,3.21869 4.9236,5.12495c0.37435,0.97409 0.57951,2.03208 0.57951,3.13799v5c0.19797,1.97166 2.51856,4.79293 3.07624,7.08688c0.47127,1.93848 0.69245,3.93163 0.92376,5.91312c0.00356,0.03047 0.00586,0.06131 0.00705,0.09247c0.02057,-0.00567 0.04357,-0.00765 0.06919,-0.00559c0.74294,0.05997 0.73925,1.30174 1,2c0.84823,2.27146 2.05984,5.62484 2.47474,8.14613c0.2752,1.67231 0.06633,6.53374 0.82319,5.01732c3.35461,8.38652 5.10904,17.59814 7.28916,26.34586c0.31623,1.26886 0.58371,2.5559 0.83511,3.84699c1.37428,2.38583 2.19837,4.84416 3.39075,7.32142" data-paper-data="{&quot;origPos&quot;:null}" fill="none" stroke="none" stroke-width="NaN" stroke-linecap="butt" transform="matrix(1,0,0,1,5.95354,-10.30619)"/><path d="M377.85215,247.55248c-0.04733,-0.07469 -0.09443,-0.1495 -0.1413,-0.22439c-0.7117,-1.13739 -1.015,-2.5048 -1.76393,-3.61803c-2.22834,-3.31225 -5.37419,-5.83921 -7.37858,-9.31194c-4.3733,-7.28882 -10.25895,-13.79747 -14.32437,-21.27728c-0.72456,-1.3331 -1.01299,-2.87831 -1.76755,-4.19467c-0.72641,-1.26726 -1.71623,-2.40935 -2.6631,-3.57158" data-paper-data="{&quot;origPos&quot;:null}" fill="none" stroke="none" stroke-width="NaN" stroke-linecap="butt" transform="matrix(1,0,0,1,5.95354,-10.30619)"/><path d="M397.29797,266.24253c3.25592,-0.77571 6.32608,0.75937 6.32608,0.75937c1.57708,0.78854 3.34537,1.64625 5.12988,2.58489" data-paper-data="{&quot;origPos&quot;:null}" fill="none" stroke="none" stroke-width="NaN" stroke-linecap="butt" transform="matrix(1,0,0,1,5.95354,-10.30619)"/><path d="" data-paper-data="{&quot;origPos&quot;:null}" fill="#540000" stroke="none" stroke-width="NaN" stroke-linecap="butt" transform="matrix(1,0,0,1,5.95354,-10.30619)"/><path d="" fill="#540000" stroke="none" stroke-width="0.5" stroke-linecap="butt" transform="matrix(1,0,0,1,5.95354,-10.30619)"/><path d="" fill="#540000" stroke="none" stroke-width="0.5" stroke-linecap="butt" transform="matrix(1,0,0,1,5.95354,-10.30619)"/><path d="M 160.1008 79.6914 C 160.9373 81.9408 161.7864 84.2414 162.1644 86.5219 C 162.2851 87.2497 161.9138 88.0038 162.0361 88.7313 C 162.5566 91.8248 164.1644 94.265 164.1644 97.5219 C 164.1644 100.2961 164.3662 103.2725 164.4386 106.236 " fill="none" stroke="none" stroke-width="0.25" stroke-linecap="butt"/><path d="M 162.1733 125.92 C 162.2101 126.6262 162.2306 127.3301 162.1644 128.0219 C 161.8927 130.8609 160.1644 131.8188 160.1644 134.0219 C 160.1644 138.8347 160.5172 143.7298 158.4652 148.256 C 158.2432 148.7457 157.2859 148.6061 157.0964 149.1093 C 155.921 152.2316 156.0909 155.7854 154.7445 158.9086 C 154.4466 159.5999 153.4191 159.8136 153.1644 160.5219 C 152.7575 161.6533 153.2564 162.9375 153.0898 164.1282 C 152.6613 167.1903 151.3375 170.1374 150.5898 173.1282 C 149.7162 176.0019 148.0079 179.6854 146.4322 182.2897 C 145.0457 184.581 142.291 185.8162 141.0361 188.3125 C 137.9763 194.3992 134.9488 200.5432 131.9005 206.6399 C 130.6349 208.9238 128.8789 211.0368 127.1145 213.1017 C 127.0754 214.8076 126.7504 216.1407 125.4322 218.2896 L 124.4322 219.2896 C 123.9121 218.7696 123.3454 218.2869 122.7832 217.8005 C 122.2655 218.9307 122.0771 220.2238 121.4322 221.2896 C 121.159 221.741 120.3095 221.6486 120.0898 222.1282 C 118.8222 224.8947 118.1644 228.523 118.1644 231.5219 C 118.1644 231.5219 118.1644 233.1499 116.8506 233.7784 C 116.741 233.9477 116.6031 234.1187 116.4322 234.2896 C 114.6644 236.0574 112.8966 234.2896 112.8966 234.2896 C 112.7624 234.1554 112.6303 234.0183 112.5006 233.8786 C 112.2391 233.9714 111.9577 234.0219 111.6644 234.0219 C 110.2837 234.0219 109.1644 232.9026 109.1644 231.5219 L 109.1644 228.4991 C 108.7679 227.4676 108.4725 226.3973 108.2927 225.3124 C 108.086 224.0652 108.5922 222.7115 108.1644 221.5219 C 107.9349 220.8838 107.0246 220.6673 106.677 220.1071 " fill="none" stroke="none" stroke-width="0.25" stroke-linecap="butt"/><path d="M 122.8636 217.8289 C 114.5566 216.0281 116.6006 206.834 116.6006 206.834 L 117.1006 205.334 C 117.9518 203.7265 118.6723 202.0427 119.654 200.5115 C 120.0357 199.9162 120.4847 198.7835 121.154 199.0115 C 121.1779 199.0196 121.1992 199.029 121.2181 199.0396 C 121.8767 197.4002 122.6132 195.7752 123.592 194.3069 C 123.5949 194.4826 123.5192 194.9897 123.6006 194.834 C 124.5313 193.0537 124.9642 190.7431 125.6006 188.834 C 125.7673 188.334 125.6395 187.5892 126.1006 187.334 C 126.4476 187.1419 126.085 188.9104 126.1644 188.5219 C 126.6883 185.9596 126.807 183.3017 127.592 180.8069 C 127.7724 180.2337 128.1595 179.7242 128.592 179.3069 C 128.7185 179.185 128.5192 179.9897 128.6006 179.834 C 129.2926 178.5103 129.6276 176.7531 130.1006 175.334 C 131.7604 170.3545 132.4887 164.3419 135.9713 160.2517 C 136.1757 159.4444 136.3712 158.6345 136.6006 157.834 C 137.3041 155.3789 138.1262 152.8844 138.9182 150.4604 C 139.4302 148.8934 139.9351 147.3188 140.592 145.8069 C 140.7228 145.506 140.9521 144.9166 141.1644 144.5362 C 141.1644 144.5314 141.1644 144.5267 141.1644 144.5219 C 141.1644 142.8552 141.1644 141.1886 141.1644 139.5219 C 141.1644 136.884 141.1629 134.4934 141.6006 131.834 C 141.6862 131.3139 141.6395 130.5892 142.1006 130.334 C 142.13 130.3177 142.1543 130.3155 142.1742 130.3248 C 142.1685 130.2236 142.1644 130.1226 142.1644 130.0219 C 142.1644 121.8513 143.0099 114.6062 145.6006 106.834 C 146.2673 104.834 146.934 102.834 147.6006 100.834 C 147.7673 100.334 147.6395 99.5892 148.1006 99.334 C 148.4476 99.1419 148.085 100.9104 148.1644 100.5219 C 148.4636 99.059 148.1644 96.9982 148.1644 95.5219 C 148.1644 89.3552 148.1644 83.1886 148.1644 77.0219 C 148.1644 75.5219 148.1644 74.0219 148.1644 72.5219 C 148.1644 72.0219 147.7578 71.3128 148.1644 71.0219 C 148.176 71.0136 148.1875 71.0077 148.1987 71.004 L 147.7046 69.5219 L 147.1644 69.5219 L 147.1644 66.5219 C 147.1644 66.4129 147.1665 66.3043 147.1706 66.1963 C 147.1713 63.6758 148.0958 60.2337 152.6471 58.573 C 152.8613 58.4917 153.0796 58.4187 153.3017 58.3546 C 157.941 56.9487 160.7475 59.1457 162.2617 61.1618 C 162.9416 61.9976 163.4658 62.965 163.7902 64.0199 L 164.7283 66.834 L 164.5674 66.8876 C 166.5605 75.8656 165.1644 86.5526 165.1644 95.5219 C 165.1644 103.4963 161.6989 109.6749 159.9697 117.106 C 160.0266 117.0117 160.0918 116.9699 160.1644 117.0219 C 160.5711 117.3128 160.2316 118.0264 160.1644 118.5219 C 159.9795 119.8864 159.6896 121.235 159.4107 122.5834 C 159.2715 123.2564 159.0266 123.9061 158.9107 124.5834 C 158.876 124.7859 159.1108 123.8236 159.1644 124.0219 C 159.6239 125.7209 159.1644 128.2525 159.1644 130.0219 C 159.1644 132.1458 158.4967 134.076 157.9909 136.074 C 158.0426 136.0029 158.1007 135.9763 158.1644 136.0219 C 159.1133 136.7007 158.1644 138.3552 158.1644 139.5219 C 158.1644 141.6886 158.1644 143.8552 158.1644 146.0219 C 158.1644 149.5308 155.9099 152.1926 154.7369 155.2368 C 154.6244 155.5288 155.3706 154.2732 155.4107 154.5834 C 155.4656 155.0094 154.3239 158.4165 154.2283 158.7098 C 152.7422 163.2675 151.7073 166.6588 149.1908 170.722 C 149.2031 170.7177 149.2156 170.7137 149.2283 170.7098 C 149.7322 170.5556 148.8725 171.7029 148.7283 172.2098 C 148.5996 172.6618 148.5213 173.1267 148.4107 173.5834 C 147.8234 176.0065 147.0159 178.347 146.2283 180.7098 C 145.3591 183.3172 144.5749 185.4422 143.2758 187.7971 C 143.2396 188.0724 143.1926 188.351 143.1644 188.5219 C 142.9321 189.9333 142.5784 191.3229 142.2282 192.7098 C 141.2512 196.5792 139.684 200.2882 137.7369 203.7369 C 137.4035 204.2369 137.0153 204.7043 136.7369 205.2369 C 136.6256 205.4497 137.2304 204.4697 137.2282 204.7098 C 137.2061 207.2132 134.7379 209.0768 133.1748 211.0323 C 133.1464 211.0679 133.1149 211.108 133.0809 211.1517 L 132.7282 212.2098 C 132.7282 212.2098 131.1707 219.6298 122.8636 217.8289 Z M 142.1987 131.2811 C 142.1657 131.5163 142.1353 131.6646 142.1644 131.5219 C 142.1808 131.4421 142.1918 131.3618 142.1987 131.2811 Z M 120.7588 200.4176 C 120.6816 200.565 120.6217 200.707 120.6006 200.834 C 120.5559 201.1041 120.6402 200.8209 120.7588 200.4176 Z " data-paper-data="{&quot;origPos&quot;:null}" fill="#ff0000" stroke="none" stroke-width="0.5" stroke-linecap="butt"/><path d="M74.74138,306.64389l25.79521,-63.23757l16.80622,7.98081l-34.12855,72.90424z" data-paper-data="{&quot;origRot&quot;:0,&quot;origPos&quot;:null}" fill="#540000" stroke="none" stroke-width="0" stroke-linecap="butt" transform="matrix(1,0,0,1,5.95354,-10.30619)"/><path d="M371.33334,337.66667l22.10152,-22.91998l-5.43485,-46.74668l27.55311,20.88389l9.11355,14.94944l26.69678,11.39299l22.80322,8.94034c0,0 -26.03541,14.21075 -39.81918,15.94577c-23.42129,2.94813 -63.01415,-2.44577 -63.01415,-2.44577z" data-paper-data="{&quot;origPos&quot;:null}" fill="#540000" stroke="none" stroke-width="0" stroke-linecap="butt" transform="matrix(1,0,0,1,5.95354,-10.30619)"/><path d="M403.05196,296.99046l-33.54502,-73.43762l26.77444,27.79003l25.21168,45.77095z" data-paper-data="{&quot;origRot&quot;:0,&quot;origPos&quot;:null}" fill="#540000" stroke="none" stroke-width="0" stroke-linecap="butt" transform="matrix(1,0,0,1,5.95354,-10.30619)"/><path d="M97.66667,291l7.2089,-22l82.07066,12l31.05377,15z" data-paper-data="{&quot;origPos&quot;:null}" fill="#540000" stroke="none" stroke-width="0" stroke-linecap="butt" transform="matrix(1,0,0,1,5.95354,-10.30619)"/><path d="M248.66667,231l50.4453,2.66667l58.79898,-25.66667l15.08905,20.88889l-74.85854,19.3712z" data-paper-data="{&quot;origPos&quot;:null,&quot;index&quot;:null}" fill="#540000" stroke="none" stroke-width="0" stroke-linecap="butt" transform="matrix(1,0,0,1,5.95354,-10.30619)"/><path d="M147.21481,171.41148l3.8603,-20.37334l16.61008,1.15038l-0.71837,17.57334z" data-paper-data="{&quot;origPos&quot;:null,&quot;origRot&quot;:0}" fill="url(#color-2)" stroke="none" stroke-width="0" stroke-linecap="butt" transform="matrix(1,0,0,1,5.95354,-10.30619)"/><path d="M156.5,97.08333v-25.33333l32,17l-0.73903,3.91468z" data-paper-data="{&quot;origPos&quot;:null}" fill="url(#color-3)" stroke="none" stroke-width="0" stroke-linecap="butt" transform="matrix(1,0,0,1,5.95354,-10.30619)"/></g></g></svg>