<svg xmlns="http://www.w3.org/2000/svg" xmlns:xlink="http://www.w3.org/1999/xlink" version="1.1" width="519.99787" height="244.6888" viewBox="0,0,519.99787,244.6888"><g><g data-paper-data="{&quot;isPaintingLayer&quot;:true}" fill-rule="nonzero" stroke-linejoin="miter" stroke-miterlimit="10" stroke-dasharray="" stroke-dashoffset="0" style="mix-blend-mode: normal"><path d="M-1.70774,363.71812v-43.70774h485.05902v43.70774z" data-paper-data="{&quot;origPos&quot;:null}" fill="#7c4500" stroke="none" stroke-width="0" stroke-linecap="butt" transform="matrix(1,0,0,1,20.59383,-119.02932)"/><g data-paper-data="{&quot;origPos&quot;:null,&quot;origRot&quot;:0}"><path d="M 99.0026 199.6327 L 154.7863 160.746 " fill="none" stroke="#bf6f00" stroke-width="5" stroke-linecap="round"/><path d="M124.46661,288.9932l10.45946,-7.29125c0,0 8.32364,14.57263 9.034,22.03314c1.0394,10.91632 -3.13239,18.3461 -3.13239,18.3461c0,0 -1.20146,-5.61624 -4.36778,-14.04899c-2.66537,-7.09857 -11.99328,-19.039 -11.99328,-19.039z" data-paper-data="{&quot;origPos&quot;:null}" fill="#f3f3f3" stroke="none" stroke-width="0" stroke-linecap="butt" transform="matrix(1,0,0,1,20.59383,-119.02932)"/></g><g data-paper-data="{&quot;origPos&quot;:null,&quot;origRot&quot;:0,&quot;index&quot;:null}"><path d="M 362.9365 161.746 L 418.7202 200.6327 " fill="none" stroke="#bf6f00" stroke-width="5" stroke-linecap="round"/><path d="M340.07526,309.0322c-3.16633,8.43275 -4.36778,14.049 -4.36778,14.049c0,0 -4.17179,-7.42979 -3.13239,-18.34611c0.71035,-7.46051 9.034,-22.03314 9.034,-22.03314l10.45946,7.29125c0,0 -9.32792,11.94043 -11.99328,19.039z" data-paper-data="{&quot;origPos&quot;:null}" fill="#f3f3f3" stroke="none" stroke-width="0" stroke-linecap="butt" transform="matrix(1,0,0,1,20.59383,-119.02932)"/></g><g data-paper-data="{&quot;origPos&quot;:null,&quot;origRot&quot;:0}"><path d="M 224.3713 201.7658 L 224.5785 133.7661 " fill="none" stroke="#bf6f00" stroke-width="5" stroke-linecap="round"/><path d="M205.94432,266.0515l0.03886,-12.74995c0,0 16.70996,1.55619 23.22516,5.25971c9.53312,5.41905 13.21905,13.10146 13.21905,13.10146c0,0 -5.28754,-2.24223 -14.00922,-4.49371c-7.34179,-1.89526 -22.47385,-1.11751 -22.47385,-1.11751z" data-paper-data="{&quot;origPos&quot;:null}" fill="#f3f3f3" stroke="none" stroke-width="0" stroke-linecap="butt" transform="matrix(1,0,0,1,20.59383,-119.02932)"/></g><g data-paper-data="{&quot;origPos&quot;:null,&quot;origRot&quot;:0,&quot;index&quot;:null}"><path d="M 300.3546 201.7658 L 300.1473 133.7661 " fill="none" stroke="#bf6f00" stroke-width="5" stroke-linecap="round"/><path d="M255.12001,267.16901c-8.72168,2.25148 -14.00922,4.49371 -14.00922,4.49371c0,0 3.68592,-7.68241 13.21904,-13.10146c6.51519,-3.70353 23.22516,-5.25971 23.22516,-5.25971l0.03886,12.74995c0,0 -15.13205,-0.77774 -22.47385,1.11752z" data-paper-data="{&quot;origPos&quot;:null}" fill="#f3f3f3" stroke="none" stroke-width="0" stroke-linecap="butt" transform="matrix(1,0,0,1,20.59383,-119.02932)"/></g><g data-paper-data="{&quot;origPos&quot;:null,&quot;origRot&quot;:0,&quot;index&quot;:null}"><path d="M 361.0026 83.6327 L 416.7863 44.746 " fill="none" stroke="#bf6f00" stroke-width="5" stroke-linecap="round"/><path d="M398.45989,192.0322c-2.66536,-7.09857 -11.99328,-19.039 -11.99328,-19.039l10.45946,-7.29125c0,0 8.32365,14.57263 9.034,22.03314c1.0394,10.91632 -3.13239,18.34611 -3.13239,18.34611c0,0 -1.20145,-5.61625 -4.36778,-14.049z" data-paper-data="{&quot;origPos&quot;:null}" fill="#f3f3f3" stroke="none" stroke-width="0" stroke-linecap="butt" transform="matrix(1,0,0,1,20.59383,-119.02932)"/></g><g data-paper-data="{&quot;origPos&quot;:null,&quot;origRot&quot;:0,&quot;index&quot;:null}"><path d="M 104.9365 45.746 L 160.7202 84.6327 " fill="none" stroke="#bf6f00" stroke-width="5" stroke-linecap="round"/><path d="M82.07526,193.0322c-3.16633,8.43275 -4.36778,14.049 -4.36778,14.049c0,0 -4.17179,-7.42979 -3.13239,-18.34611c0.71035,-7.46051 9.034,-22.03314 9.034,-22.03314l10.45946,7.29125c0,0 -9.32792,11.94043 -11.99328,19.039z" data-paper-data="{&quot;origPos&quot;:null}" fill="#f3f3f3" stroke="none" stroke-width="0" stroke-linecap="butt" transform="matrix(1,0,0,1,20.59383,-119.02932)"/></g><g data-paper-data="{&quot;origPos&quot;:null,&quot;origRot&quot;:0,&quot;index&quot;:null}"><path d="M 260.8 3.0385 L 328.7979 2.5 " fill="none" stroke="#bf6f00" stroke-width="5" stroke-linecap="round"/><path d="M294.0993,146.11892c1.81464,-7.36213 0.87099,-22.48474 0.87099,-22.48474l12.74961,-0.10096c0,0 -1.37283,16.72603 -5.00469,23.28144c-5.31417,9.59197 -12.9557,13.36194 -12.9557,13.36194c0,0 2.18412,-5.31181 4.33981,-14.05767z" data-paper-data="{&quot;origPos&quot;:null}" fill="#f3f3f3" stroke="none" stroke-width="0" stroke-linecap="butt" transform="matrix(1,0,0,1,20.59383,-119.02932)"/></g><g data-paper-data="{&quot;origPos&quot;:null,&quot;origRot&quot;:0,&quot;index&quot;:null}"><path d="M 260.4979 3.0385 L 192.5 2.5 " fill="none" stroke="#bf6f00" stroke-width="5" stroke-linecap="round"/><path d="M186.0109,146.11892c2.15569,8.74585 4.33981,14.05767 4.33981,14.05767c0,0 -7.64153,-3.76997 -12.9557,-13.36194c-3.63185,-6.55542 -5.00468,-23.28144 -5.00468,-23.28144l12.7496,0.10097c0,0 -0.94365,15.12261 0.87099,22.48474z" data-paper-data="{&quot;origPos&quot;:null}" fill="#f3f3f3" stroke="none" stroke-width="0" stroke-linecap="butt" transform="matrix(1,0,0,1,20.59383,-119.02932)"/></g><g data-paper-data="{&quot;origPos&quot;:null,&quot;origRot&quot;:0,&quot;index&quot;:null}"><path d="M 517.4979 3.0385 L 449.5 2.5 " fill="none" stroke="#bf6f00" stroke-width="5" stroke-linecap="round"/><path d="M443.0109,146.11892c2.15569,8.74585 4.33981,14.05767 4.33981,14.05767c0,0 -7.64153,-3.76997 -12.95571,-13.36194c-3.63185,-6.55542 -5.00468,-23.28144 -5.00468,-23.28144l12.7496,0.10097c0,0 -0.94365,15.12261 0.87099,22.48474z" data-paper-data="{&quot;origPos&quot;:null}" fill="#f3f3f3" stroke="none" stroke-width="0" stroke-linecap="butt" transform="matrix(1,0,0,1,20.59383,-119.02932)"/></g><g data-paper-data="{&quot;origPos&quot;:null,&quot;origRot&quot;:0,&quot;index&quot;:null}"><path d="M 2.5 4.0385 L 70.4979 3.5 " fill="none" stroke="#bf6f00" stroke-width="5" stroke-linecap="round"/><path d="M35.7993,147.11891c1.81464,-7.36213 0.87098,-22.48474 0.87098,-22.48474l12.74961,-0.10097c0,0 -1.37283,16.72602 -5.00468,23.28144c-5.31417,9.59197 -12.95571,13.36194 -12.95571,13.36194c0,0 2.18412,-5.31182 4.33981,-14.05767z" data-paper-data="{&quot;origPos&quot;:null}" fill="#f3f3f3" stroke="none" stroke-width="0" stroke-linecap="butt" transform="matrix(1,0,0,1,20.59383,-119.02932)"/></g></g></g></svg>