<svg version="1.1" xmlns="http://www.w3.org/2000/svg" xmlns:xlink="http://www.w3.org/1999/xlink" width="14.1423" height="5.32169" viewBox="0,0,14.1423,5.32169"><defs><linearGradient x1="230.11112" y1="180.00018" x2="240.33334" y2="180.00018" gradientUnits="userSpaceOnUse" id="color-1"><stop offset="0" stop-color="#ffdf70" stop-opacity="0"/><stop offset="1" stop-color="#ffdf70"/></linearGradient></defs><g transform="translate(-229.20001,-177.33934)"><g data-paper-data="{&quot;isPaintingLayer&quot;:true}" fill-rule="nonzero" stroke-linejoin="miter" stroke-miterlimit="10" stroke-dasharray="" stroke-dashoffset="0" style="mix-blend-mode: normal"><path d="M229.20001,180.06939c0,0 6.65984,-2.6932 11.13334,-2.72999c1.42563,-0.01173 2.33333,1.68339 2.33333,2.55134c0,0.90441 -0.60893,2.75114 -2.33333,2.77022c-1.43873,0.01592 -11.13334,-2.59157 -11.13334,-2.59157z" fill="url(#color-1)" stroke="none" stroke-width="0" stroke-linecap="butt"/><g><path d="M239.21581,180.05303c0,-1.47803 1.30801,-1.88004 2.34447,-1.52024c0.8912,0.30937 1.78204,1.01135 1.78204,1.01135c0,0 -1.32881,0.4979 -1.71096,1.03743c-0.43399,0.61272 -0.67257,1.0245 -1.2927,1.0245c-0.62015,0 -1.12286,-0.69535 -1.12286,-1.55306z" data-paper-data="{&quot;index&quot;:null}" fill="#ffbd73" stroke="none" stroke-width="0" stroke-linecap="butt"/><path d="M231.11388,178.39393l7.18763,0l0,2.37916l-7.18763,0c0,0 -0.12286,-0.8539 -0.12286,-1.27453c0,-0.36426 0.12286,-1.10464 0.12286,-1.10464z" fill="#2a75eb" stroke="none" stroke-width="0" stroke-linecap="butt"/><path d="M238.30458,180.76936c-0.19777,0 -0.35812,-0.52669 -0.35812,-1.17643c0,-0.6497 0.16035,-1.17644 0.35812,-1.17644c0.19777,0 0.35812,0.5267 0.35812,1.17644c0,0.6497 -0.16035,1.17643 -0.35812,1.17643z" fill="#2668d2" stroke="none" stroke-width="0" stroke-linecap="butt"/><path d="M239.60275,179.67892l-1.16388,-0.12382" fill="none" stroke="#000000" stroke-width="0.25" stroke-linecap="round"/><path d="M240.21287,179.00969c0.39866,0 0.72183,0.44699 0.72183,0.9984c0,0.55142 -0.32316,0.99839 -0.72183,0.99839c-0.39866,0 -0.72184,-0.44697 -0.72184,-0.99839c0,-0.55142 0.32317,-0.9984 0.72184,-0.9984z" fill="#fff474" stroke="none" stroke-width="0" stroke-linecap="butt"/></g></g></g></svg>