<svg version="1.1" xmlns="http://www.w3.org/2000/svg" xmlns:xlink="http://www.w3.org/1999/xlink" width="638.84124" height="456" viewBox="0,0,638.84124,456"><g transform="translate(79.42062,54.99999)"><g data-paper-data="{&quot;isPaintingLayer&quot;:true}" fill-rule="nonzero" stroke-linejoin="miter" stroke-miterlimit="10" stroke-dasharray="" stroke-dashoffset="0" style="mix-blend-mode: normal"><path d="M-71.5,401.00001v-456h627v456z" fill="#000000" stroke="none" stroke-width="none" stroke-linecap="butt"/><g stroke="none" stroke-width="0" stroke-linecap="butt"><path d="M-72.31138,363.27208l-4.28913,-365.43537l631.732,-1.10877l4.28913,365.43537z" fill="#4ab994"/><path d="M-76.77065,298.10537l-2.64997,-225.77854l635.42634,-1.11526l2.64997,225.77854z" fill="#388d71"/></g><text transform="translate(182.7818,148.57384) rotate(0.23252) scale(0.82621,0.82621)" font-size="40" xml:space="preserve" data-paper-data="{&quot;index&quot;:null}" fill="#b0ffd0" fill-rule="nonzero" stroke="#2f7d4d" stroke-width="1.5" stroke-linecap="butt" stroke-linejoin="miter" stroke-miterlimit="10" stroke-dasharray="" stroke-dashoffset="0" font-family="Pixel" font-weight="normal" text-anchor="start" style="mix-blend-mode: normal"><tspan x="0" dy="0">THE GIANT</tspan></text><g><path d="M156.70721,301.1882l-54.57728,-29.96094l-22.6343,-64.46645l11.35113,-3.91069l15.07938,65.78996l52.81796,31.9447z" data-paper-data="{&quot;index&quot;:null}" fill="#879f8d" stroke="none" stroke-width="NaN" stroke-linecap="butt"/><path d="M104.86146,307.89973l-37.93008,-37.74819l2.63708,-67.62931l12.13674,-0.19573l-10.23975,66.55542l35.53738,39.07526z" data-paper-data="{&quot;index&quot;:null}" fill="#879f8d" stroke="none" stroke-width="NaN" stroke-linecap="butt"/><path d="M62.59967,304.79823l-24.92375,-40.03356l20.491,-65.05643l11.83064,2.47053l-27.58467,62.34764l22.24976,40.79697z" data-paper-data="{&quot;index&quot;:null}" fill="#879f8d" stroke="none" stroke-width="NaN" stroke-linecap="butt"/><path d="M21.55552,292.9799l-11.29697,-39.21053l37.55319,-58.4257l10.79085,5.05471l-43.68946,54.20558l8.49838,39.34879z" data-paper-data="{&quot;index&quot;:null}" fill="#879f8d" stroke="none" stroke-width="NaN" stroke-linecap="butt"/><path d="M165.48252,53.16234l-52.14928,32.84042l-13.71873,66.0357l-11.42986,-3.7163l21.29963,-64.84135l53.94923,-30.88703z" data-paper-data="{&quot;index&quot;:null}" fill="#879f8d" stroke="none" stroke-width="NaN" stroke-linecap="butt"/><path d="M108.75763,41.75426l-33.32828,40.65278l13.91265,66.00216l-12.13219,0.36022l-6.37909,-67.42278l35.79144,-39.43696z" data-paper-data="{&quot;index&quot;:null}" fill="#879f8d" stroke="none" stroke-width="NaN" stroke-linecap="butt"/><path d="M71.31982,50.03006l-21.40374,41.16948l28.86676,61.86592l-11.77757,2.67199l-21.83024,-64.69528l24.09301,-40.45183z" data-paper-data="{&quot;index&quot;:null}" fill="#879f8d" stroke="none" stroke-width="NaN" stroke-linecap="butt"/><path d="M26.04793,59.56822l-6.30843,39.68797l46.63598,52.13647l-10.49721,5.54237l-40.7412,-56.63218l9.11113,-39.67803z" data-paper-data="{&quot;index&quot;:null}" fill="#879f8d" stroke="none" stroke-width="NaN" stroke-linecap="butt"/><path d="M142.19318,169.73069c3.11952,1.41899 5.83404,6.15674 5.83404,6.15674c0,0 -4.06852,-2.84546 -6.1615,-2.70725c-1.18649,0.07836 -2.94031,1.91128 -2.94031,1.91128l-4.88737,-5.56736c0,0 5.03564,-1.21241 8.15516,0.20658z" data-paper-data="{&quot;index&quot;:null}" fill="#ffffff" stroke="none" stroke-width="0" stroke-linecap="butt"/><path d="M131.23299,194.09407l5.96478,-4.61834c0,0 1.33747,2.10326 2.48578,2.38579c2.02565,0.4984 6.61604,-1.58984 6.61604,-1.58984c0,0 -3.65786,4.18048 -7.01765,5.03286c-3.35978,0.85237 -8.04897,-1.21048 -8.04897,-1.21048z" fill="#ffffff" stroke="none" stroke-width="0" stroke-linecap="butt"/><path d="M75.08333,141.16587c26.46585,2.31446 46.25326,19.95379 44.19645,39.39851c-2.05681,19.44474 -25.17898,33.33157 -51.64481,31.01711c-26.46585,-2.31446 -46.25327,-19.95377 -44.19647,-39.3985c2.05681,-19.44474 25.17899,-33.33158 51.64482,-31.01712z" fill="#728677" stroke="none" stroke-width="NaN" stroke-linecap="butt"/><path d="M121.57248,196.25887c-9.32485,-0.81546 -16.15708,-8.34984 -15.26024,-16.8285c0.89685,-8.47867 9.18316,-14.69091 18.508,-13.87545c6.4389,0.56309 11.68931,4.32978 14.02719,9.39884c1.04785,2.27199 0.72295,4.73671 0.44539,7.36078c-0.28689,2.71227 -0.54231,5.26148 -2.13367,7.35405c-3.38328,4.44885 -9.2448,7.14488 -15.58668,6.59028z" fill="#b2d1ba" stroke="none" stroke-width="0" stroke-linecap="butt"/><g fill="none" stroke="#ff0000" stroke-width="1.5" stroke-linecap="round"><g><path d="M119.35896,184.47983l-5.82004,4.36327"/><path d="M119.55242,188.21784l4.97861,-4.1361"/><path d="M124.82262,187.53355l3.36813,-4.06511"/><path d="M130.34377,187.01596l1.31312,-3.84327"/></g><g data-paper-data="{&quot;index&quot;:null}"><path d="M115.4962,171.45276l4.79873,5.29191"/><path d="M125.28874,178.03175l-4.02036,-4.92307"/><path d="M126.29855,174.69375l2.45427,4.57428"/><path d="M131.60999,176.15867l0.48347,4.00037"/></g></g></g><text transform="translate(209.7818,187.57384) rotate(0.23266) scale(0.82621,0.82621)" font-size="40" xml:space="preserve" data-paper-data="{&quot;index&quot;:null}" fill="#b0ffd0" fill-rule="nonzero" stroke="#2f7d4d" stroke-width="1.5" stroke-linecap="butt" stroke-linejoin="miter" stroke-miterlimit="10" stroke-dasharray="" stroke-dashoffset="0" font-family="Pixel" font-weight="normal" text-anchor="start" style="mix-blend-mode: normal"><tspan x="0" dy="0">SPIDER</tspan></text></g></g></svg>