<svg version="1.1" xmlns="http://www.w3.org/2000/svg" xmlns:xlink="http://www.w3.org/1999/xlink" width="68.711" height="69.59555" viewBox="0,0,68.711,69.59555"><g transform="translate(-205.65935,-144.87993)"><g data-paper-data="{&quot;isPaintingLayer&quot;:true}" fill="#fff73b" fill-rule="nonzero" stroke="#ffa63b" stroke-width="7.5" stroke-linecap="butt" stroke-linejoin="miter" stroke-miterlimit="10" stroke-dasharray="" stroke-dashoffset="0" style="mix-blend-mode: normal"><path d="M222.79275,208.12828c-3.1652,-2.9045 1.2853,-8.5065 -1.2794,-13.1564c-2.5647,-4.6498 -10.9782,-4.7547 -12.104,-11.108c-1.1258,-6.3533 5.1955,-8.6678 7.4749,-15.0151c2.2794,-6.3473 -1.9803,-10.1569 2.4179,-12.533c4.3982,-2.3762 10.1319,4.0176 16.5528,2.2841c6.4209,-1.7335 5.7439,-9.9941 11.9155,-9.9699c6.1716,0.0243 4.9159,7.0393 9.8666,10.0555c4.9507,3.0161 11.8094,-1.325 12.9833,3.8655c1.1739,5.1904 -8.0183,7.8635 -8.7845,14.6997c-0.7663,6.8362 7.7199,11.074 5.1215,17.9791c-2.5984,6.9051 -8.0937,-0.4036 -12.9154,2.7328c-4.8217,3.1364 -4.7829,10.3337 -10.9068,12.7629c-6.1239,2.4292 -5.4167,-2.6471 -9.5289,-4.6567c-4.1122,-2.0097 -7.6482,4.964 -10.8135,2.0595z"/></g></g></svg>