<svg version="1.1" xmlns="http://www.w3.org/2000/svg" xmlns:xlink="http://www.w3.org/1999/xlink" width="69.62342" height="163.3728" viewBox="0,0,69.62342,163.3728"><g transform="translate(-211.6482,-83.00034)"><g data-paper-data="{&quot;isPaintingLayer&quot;:true}" fill-rule="nonzero" stroke-linejoin="miter" stroke-miterlimit="10" stroke-dasharray="" stroke-dashoffset="0" style="mix-blend-mode: normal"><path d="M242.22701,148.03044c0,0 2.8374,5.2146 3.7782,10.0572c0.8032,4.1348 1.5193,17.212 1.5193,17.212" data-paper-data="{&quot;index&quot;:null}" fill="none" stroke="#000000" stroke-width="3.5" stroke-linecap="round"/><path d="M256.44706,107.07374c0,0 -0.65461,-1.98317 -0.75624,-2.91969c-0.09863,-0.90884 0.15521,-2.61889 0.15521,-2.61889l11.71722,-3.49912l1.11138,-14.8745c0,0 2.97673,2.44017 4.00958,8.60044c0.97934,5.8411 1.29565,11.85449 0.90935,12.18562c-0.63565,0.54488 -17.14651,3.12614 -17.14651,3.12614z" data-paper-data="{&quot;index&quot;:null}" fill="#2d2d2d" stroke="none" stroke-width="0" stroke-linecap="butt"/><path d="M241.61431,138.26344v67.2971l-12.0476,38.9188" data-paper-data="{&quot;origPos&quot;:null}" fill="none" stroke="#000000" stroke-width="3.5" stroke-linecap="round"/><path d="M253.78381,244.62314l-12.0476,-40.1587" fill="none" stroke="#000000" stroke-width="3.5" stroke-linecap="round"/><path d="M217.51901,115.37294c0,-13.9728 11.3272,-25.3 25.3,-25.3c13.9728,0 25.3,11.3272 25.3,25.3c0,13.9728 -11.3272,25.3 -25.3,25.3c-13.9728,0 -25.3,-11.3272 -25.3,-25.3z" data-paper-data="{&quot;origPos&quot;:null}" fill="#d4d4d4" stroke="#000000" stroke-width="2.5" stroke-linecap="butt"/><path d="M238.40157,109.34917c0,-2.66149 2.15756,-4.81905 4.81905,-4.81905c2.66149,0 4.81905,2.15756 4.81905,4.81905c0,2.66149 -2.15756,4.81905 -4.81905,4.81905c-2.66149,0 -4.81905,-2.15756 -4.81905,-4.81905z" data-paper-data="{&quot;origPos&quot;:null}" fill="#000000" stroke="none" stroke-width="0" stroke-linecap="butt"/><path d="M252.05554,109.34917c0,-2.66148 2.15757,-4.81905 4.81905,-4.81905c2.66148,0 4.81905,2.15757 4.81905,4.81905c0,2.66148 -2.15757,4.81905 -4.81905,4.81905c-2.66148,0 -4.81905,-2.15757 -4.81905,-4.81905z" data-paper-data="{&quot;origPos&quot;:null}" fill="#000000" stroke="none" stroke-width="0" stroke-linecap="butt"/><path d="M247.74761,105.99364l-9.127,-3.6508" data-paper-data="{&quot;origPos&quot;:null}" fill="none" stroke="#000000" stroke-width="2.5" stroke-linecap="round"/><path d="M252.85871,105.66344l6.9365,-3.2857" data-paper-data="{&quot;origPos&quot;:null}" fill="none" stroke="#000000" stroke-width="2.5" stroke-linecap="round"/><g><path d="M238.9186,179.90759l-0.10225,-9.99941l42.45528,-3.18953c0,0 -4.67862,6.38372 -11.27081,9.05915c-6.65655,2.70155 -31.08222,4.12978 -31.08222,4.12978z" fill="#c2c2c2" stroke="#c2c2c2" stroke-width="0" stroke-linecap="butt"/><path d="M226.12711,175.87374l11.1787,-1.0403" fill="none" stroke="#606060" stroke-width="3.5" stroke-linecap="round"/><path d="M238.29361,180.81124l-0.5226,-12.1043" fill="none" stroke="#606060" stroke-width="3.5" stroke-linecap="round"/></g><path d="M249.398,112.49166c0,0 -0.51097,-6.12133 -0.51097,-8.34581c0,-1.34463 -5.79097,-5.45032 -5.79097,-5.45032h14.64774c0,0 -5.96129,3.87315 -5.96129,5.10968c0,2.20382 -0.51097,8.68645 -0.51097,8.68645z" fill="#3d3d3d" stroke="none" stroke-width="NaN" stroke-linecap="butt"/><path d="M262.51284,117.77166c0,0 2.11475,-14.52095 -1.22505,-18.03127c-2.01565,-2.11856 -9.32863,1.28485 -11.21192,1.26019c-1.51644,-0.01985 -8.94351,-4.29042 -12.0708,-1.5763c-3.56465,3.0937 -1.06285,20.88802 -1.06285,20.88802c0,0 -4.53919,3.43621 -8.05221,4.35601c-3.51302,0.9198 -11.8318,0.89475 -11.8318,0.89475c0,0 -2.96571,-9.41516 -0.17289,-18.8938c2.56456,-8.70392 10.14501,-17.43466 25.87009,-19.55567c6.11511,-0.82481 17.66389,3.34645 21.83163,8.87584c6.92455,9.18689 5.07933,22.12286 5.07933,22.12286z" fill="#3d3d3d" stroke="none" stroke-width="0" stroke-linecap="butt"/><path d="M212.01041,104.09748c-0.41011,-0.30115 -0.54694,-6.32129 -0.00967,-12.2195c0.56663,-6.22051 3.35141,-8.87764 3.35141,-8.87764l2.2269,14.74879l11.9472,2.60799c0,0 0.49044,1.84668 0.35173,3.02838c-0.13871,1.1817 -1.10594,3.39687 -1.10594,3.39687c0,0 -16.0868,-2.18936 -16.76163,-2.68489z" fill="#2d2d2d" stroke="none" stroke-width="0" stroke-linecap="butt"/><path d="M233.22601,176.63314c0,0 0.4895,-8.7437 1.7127,-13.3584c1.2817,-4.8348 5.8102,-15.0208 5.8102,-15.0208" data-paper-data="{&quot;index&quot;:null}" fill="none" stroke="#000000" stroke-width="3.5" stroke-linecap="round"/></g></g></svg>