<svg xmlns="http://www.w3.org/2000/svg" xmlns:xlink="http://www.w3.org/1999/xlink" version="1.1" width="55.599998474121094" height="159.4062957763672" viewBox="-1 -1 55.599998474121094 159.4062957763672"><g><g data-paper-data="{&quot;isPaintingLayer&quot;:true}" fill-rule="nonzero" stroke-linecap="none" stroke-linejoin="miter" stroke-miterlimit="10" stroke-dasharray="" stroke-dashoffset="0" font-family="none" font-weight="none" font-size="none" text-anchor="none" style="mix-blend-mode: normal"><path d="M 25.5952 49.6905 L 25.5952 116.9876 L 13.5476 155.9063 " data-paper-data="{&quot;origPos&quot;:null}" fill="none" stroke="#54b300" stroke-width="5" stroke-linecap="round"/><path d="M 38.446 155.7095 L 26.3984 115.5508 " fill="none" stroke="#54b300" stroke-width="5" stroke-linecap="round"/><path d="M 1.5 26.8 C 1.5 12.8272 12.8272 1.5 26.8 1.5 C 40.7728 1.5 52.1 12.8272 52.1 26.8 C 52.1 41.3936 41.3936 52.1 26.8 52.1 C 12.8272 52.1 1.5 40.7728 1.5 26.8 Z " data-paper-data="{&quot;origPos&quot;:null}" fill="#95d959" stroke="#54b300" stroke-width="3" stroke-linecap="butt"/><path d="M236.85802,107.70531c0,-2.66149 2.15756,-4.81905 4.81905,-4.81905c2.66149,0 4.81905,2.15756 4.81905,4.81905c0,2.66149 -2.15756,4.81905 -4.81905,4.81905c-2.66149,0 -4.81905,-2.15756 -4.81905,-4.81905z" data-paper-data="{&quot;origPos&quot;:null}" fill="#ff0000" stroke="none" stroke-width="0" stroke-linecap="butt" transform="matrix(1,0,0,1,-214.47548,-86.92911)"/><path d="M250.51199,107.70531c0,-2.66148 2.15757,-4.81905 4.81905,-4.81905c2.66148,0 4.81905,2.15757 4.81905,4.81905c0,2.66148 -2.15757,4.81905 -4.81905,4.81905c-2.66148,0 -4.81905,-2.15757 -4.81905,-4.81905z" data-paper-data="{&quot;origPos&quot;:null}" fill="#ff0000" stroke="none" stroke-width="0" stroke-linecap="butt" transform="matrix(1,0,0,1,-214.47548,-86.92911)"/><path d="M 31.7286 17.4206 L 22.6016 13.7699 " data-paper-data="{&quot;origPos&quot;:null}" fill="none" stroke="#000000" stroke-width="2.5" stroke-linecap="round"/><path d="M 36.8397 17.0905 L 43.7762 13.8048 " data-paper-data="{&quot;origPos&quot;:null}" fill="none" stroke="#000000" stroke-width="2.5" stroke-linecap="round"/><path d="M 8.5937 87.5857 L 24.2921 58.0143 " data-paper-data="{&quot;origPos&quot;:null}" fill="none" stroke="#54b300" stroke-width="5" stroke-linecap="round"/><path d="M 26.4825 58.0143 L 42.1809 87.5857 " data-paper-data="{&quot;origPos&quot;:null,&quot;index&quot;:null}" fill="none" stroke="#54b300" stroke-width="5" stroke-linecap="round"/><path d="M220.816,193.66511c0,0 5.69276,2.83468 9.33642,2.78029c3.99051,-0.05956 10.22519,-3.07226 10.22519,-3.07226v12.84643c0,0 -9.5216,-2.00594 -13.56031,-4.59795c-3.59546,-2.30753 -6.0013,-7.95651 -6.0013,-7.95651z" data-paper-data="{&quot;origPos&quot;:null}" fill="#54b300" stroke="#54b300" stroke-width="0" stroke-linecap="butt" transform="matrix(1,0,0,1,-214.47548,-86.92911)"/><path d="M245.52579,121.17403h6.71518l-3.09761,8.44436z" data-paper-data="{&quot;origPos&quot;:null}" fill="#ffffff" stroke="#000000" stroke-width="0" stroke-linecap="butt" transform="matrix(1,0,0,1,-214.47548,-86.92911)"/><path d="M253.56945,120.96027h6.71518l-3.09761,8.44436z" data-paper-data="{&quot;origPos&quot;:null}" fill="#ffffff" stroke="#000000" stroke-width="0" stroke-linecap="butt" transform="matrix(1,0,0,1,-214.47548,-86.92911)"/><path d="M 45.7557 33.453 L 22.9825 33.453 " data-paper-data="{&quot;origPos&quot;:null}" fill="none" stroke="#000000" stroke-width="1.5" stroke-linecap="round"/></g></g></svg>