<svg xmlns="http://www.w3.org/2000/svg" xmlns:xlink="http://www.w3.org/1999/xlink" version="1.1" width="23.00681" height="11.47043" viewBox="0,0,23.00681,11.47043"><g><g data-paper-data="{&quot;isPaintingLayer&quot;:true}" fill-rule="nonzero" stroke-linecap="butt" stroke-linejoin="miter" stroke-miterlimit="10" stroke-dasharray="" stroke-dashoffset="0" style="mix-blend-mode: normal"><g><path d="M251.19878,176.15346c0,0 0.03969,0.13053 -0.01653,0.3402c-0.08121,0.30286 -0.29592,0.73062 -0.56085,0.83088c-0.44836,0.16967 -1.21809,-0.06842 -1.21809,-0.06842c-0.26417,0.09844 -0.42714,0.76714 -0.9812,0.98581c-0.55405,0.21868 -1.39832,-0.06002 -1.52018,0.00147c-0.33056,0.16682 -0.46571,0.7964 -0.88451,1.03431c-0.4188,0.2379 -0.90892,-0.05448 -1.22223,0.16251c-0.26289,0.18207 -0.2111,0.70962 -0.62404,1.00534c-0.1842,0.13191 -0.68792,0.09503 -1.01971,-0.08898c-0.41202,-0.2285 -1.67027,0.11389 -1.67027,0.11389l-1.97953,0.38532c0,0 0.19559,-1.3545 1.09987,-1.95132c0.91095,-0.60121 1.50956,-1.7226 2.73828,-2.481c1.92497,-1.18812 4.46404,-1.96391 5.02863,-2.12005c1.28272,-0.35475 2.83033,1.85001 2.83033,1.85001z" data-paper-data="{&quot;index&quot;:null}" fill="#40dd4d" stroke-width="0" stroke="none" transform="matrix(1,0,0,1,-228.49659,-174.26478)"/><path d="M233.35479,181.07841c-0.20427,0.47704 -1.45103,0.49027 -2.78472,0.02952c-1.33369,-0.46073 -2.24926,-1.22095 -2.04497,-1.69802c0.20427,-0.47704 1.45104,-0.49028 2.78472,-0.02953c1.33369,0.46073 2.24924,1.22096 2.04497,1.69802z" fill="#43e650" stroke-width="0" stroke="none" transform="matrix(1,0,0,1,-228.49659,-174.26478)"/><path d="M233.68368,180.43578c-0.29367,0.27329 -1.1511,-0.04213 -1.91511,-0.7045c-0.76402,-0.66238 -1.1453,-1.42086 -0.85164,-1.69414c0.29367,-0.27329 1.1511,0.04213 1.91511,0.7045c0.76402,0.66238 1.14531,1.42087 0.85164,1.69415z" fill="#43e650" stroke-width="0" stroke="none" transform="matrix(1,0,0,1,-228.49659,-174.26478)"/><path d="M233.11761,181.81129c0.03423,0.37857 -0.79598,0.74806 -1.85434,0.82529c-1.05837,0.07723 -1.9441,-0.16706 -1.97834,-0.54562c-0.03423,-0.37857 0.79599,-0.74807 1.85435,-0.82529c1.05837,-0.07723 1.9441,0.16706 1.97834,0.54563z" fill="#43e650" stroke-width="0" stroke="none" transform="matrix(1,0,0,1,-228.49659,-174.26478)"/><path d="M247.17355,182.73262c0,1.65828 -3.2496,3.00259 -7.25818,3.00259c-4.00859,0 -7.34977,-2.66804 -7.34977,-4.32631c0,-1.65828 3.34118,-1.67887 7.34977,-1.67887c4.00859,0 7.25818,1.34431 7.25818,3.00258z" fill="#3ccf48" stroke-width="0" stroke="none" transform="matrix(1,0,0,1,-228.49659,-174.26478)"/><path d="M229.30653,176.43046c0,0 1.54762,-2.20475 2.83033,-1.85c0.55272,0.15286 2.8216,0.88584 4.65173,2.04517c1.43041,0.9061 2.39676,2.20069 3.35867,2.83802c0.66359,0.43969 0.90217,1.38126 0.90217,1.38126l-2.02533,-0.0974c0,0 -1.25825,-0.34239 -1.67027,-0.1139c-0.33179,0.18401 -0.8355,0.2209 -1.0197,0.08898c-0.41294,-0.29572 -0.36115,-0.82327 -0.62404,-1.00535c-0.31331,-0.21699 -0.80344,0.07538 -1.22224,-0.16252c-0.4188,-0.23791 -0.55394,-0.86747 -0.8845,-1.0343c-0.12186,-0.06149 -0.96613,0.2172 -1.52018,-0.00148c-0.55406,-0.21868 -0.71704,-0.88737 -0.98121,-0.98581c0,0 -0.76973,0.23809 -1.21808,0.06841c-0.26493,-0.10027 -0.47965,-0.52803 -0.56086,-0.83089c-0.05622,-0.20968 -0.01653,-0.3402 -0.01653,-0.3402z" fill="#43e650" stroke-width="0" stroke="none" transform="matrix(1,0,0,1,-228.49659,-174.26478)"/><g><path d="M243.98066,181.35131c0,-1.56589 1.28669,-2.83529 2.8739,-2.83529c1.58721,0 2.8739,1.2694 2.8739,2.83529c0,0.5856 1.9351,1.21695 1.76426,1.75011c-0.14944,0.46637 -2.37233,0.85762 -2.80395,1.07743c-0.39439,0.20084 -1.35979,0.00775 -1.83421,0.00775c-1.58721,0 -2.8739,-1.2694 -2.8739,-2.83529z" fill="#43e650" stroke-width="0" stroke="none" transform="matrix(1,0,0,1,-228.49659,-174.26478)"/><path d="M248.06398,180.57721c0,-0.36563 0.30044,-0.66203 0.67105,-0.66203c0.37061,0 0.67105,0.2964 0.67105,0.66203c0,0.36563 -0.30044,0.66203 -0.67105,0.66203c-0.37061,0 -0.67105,-0.2964 -0.67105,-0.66203z" fill="#31aa3b" stroke-width="0" stroke="none" transform="matrix(1,0,0,1,-228.49659,-174.26478)"/><path d="M246.39732,180.70876c0,-0.36563 0.30044,-0.66203 0.67105,-0.66203c0.37061,0 0.67105,0.2964 0.67105,0.66203c0,0.36563 -0.30044,0.66203 -0.67105,0.66203c-0.37061,0 -0.67105,-0.2964 -0.67105,-0.66203z" fill="#31aa3b" stroke-width="0" stroke="none" transform="matrix(1,0,0,1,-228.49659,-174.26478)"/></g></g></g></g></svg>