<svg xmlns="http://www.w3.org/2000/svg" xmlns:xlink="http://www.w3.org/1999/xlink" version="1.1" width="53.72327" height="167.16152" viewBox="0,0,53.72327,167.16152"><defs><radialGradient cx="246.84315" cy="157.50172" r="10.3861" gradientUnits="userSpaceOnUse" id="color-1"><stop offset="0" stop-color="#3b7800"/><stop offset="1" stop-color="#499700"/></radialGradient><radialGradient cx="267.84705" cy="159.99363" r="1.84732" gradientUnits="userSpaceOnUse" id="color-2"><stop offset="0" stop-color="#ff0000"/><stop offset="1" stop-color="#ff0000" stop-opacity="0"/></radialGradient><radialGradient cx="233.67649" cy="163.66838" r="5.92277" gradientUnits="userSpaceOnUse" id="color-3"><stop offset="0" stop-color="#3b7800"/><stop offset="1" stop-color="#499700"/></radialGradient><radialGradient cx="249.84315" cy="174.50172" r="6.61146" gradientUnits="userSpaceOnUse" id="color-4"><stop offset="0" stop-color="#3b7800"/><stop offset="1" stop-color="#499700"/></radialGradient><radialGradient cx="241.84315" cy="170.50172" r="6.61147" gradientUnits="userSpaceOnUse" id="color-5"><stop offset="0" stop-color="#3b7800"/><stop offset="1" stop-color="#499700"/></radialGradient><radialGradient cx="249.79413" cy="163.40626" r="14.94466" gradientUnits="userSpaceOnUse" id="color-6"><stop offset="0" stop-color="#6f7800"/><stop offset="1" stop-color="#869200"/></radialGradient></defs><g><g data-paper-data="{&quot;isPaintingLayer&quot;:true}" fill-rule="nonzero" stroke-linecap="none" stroke-linejoin="miter" stroke-miterlimit="10" stroke-dasharray="" stroke-dashoffset="0" font-family="none" font-weight="none" font-size="none" text-anchor="none" style="mix-blend-mode: normal"><path d="M 25.3453 59.1957 L 25.3453 126.4927 L 13.2976 165.4115 " data-paper-data="{&quot;origPos&quot;:null}" fill="none" stroke="#000000" stroke-width="3.5" stroke-linecap="round"/><path d="M 26.1484 125.056 L 38.1961 165.2147 " fill="none" stroke="#000000" stroke-width="3.5" stroke-linecap="round"/><path d="M 1.25 36.3052 C 1.25 22.3324 12.5772 11.0052 26.55 11.0052 C 40.5228 11.0052 51.85 22.3324 51.85 36.3052 C 51.85 50.278 40.5228 61.6052 26.55 61.6052 C 12.5772 61.6052 1.25 50.278 1.25 36.3052 Z " data-paper-data="{&quot;origPos&quot;:null}" fill="#d4d4d4" stroke="#000000" stroke-width="2.5" stroke-linecap="butt"/><path d="M238.14469,109.99201c0,-2.66149 2.15756,-4.81905 4.81905,-4.81905c2.66149,0 4.81905,2.15756 4.81905,4.81905c0,2.66149 -2.15756,4.81905 -4.81905,4.81905c-2.66149,0 -4.81905,-2.15756 -4.81905,-4.81905z" data-paper-data="{&quot;origPos&quot;:null}" fill="#000000" stroke="none" stroke-width="0" stroke-linecap="butt" transform="matrix(1,0,0,1,-216.01215,-78.71063)"/><path d="M251.79867,109.82535c0,-2.66148 2.15757,-4.81905 4.81905,-4.81905c2.66148,0 4.81905,2.15757 4.81905,4.81905c0,2.66148 -2.15757,4.81905 -4.81905,4.81905c-2.66148,0 -4.81905,-2.15757 -4.81905,-4.81905z" data-paper-data="{&quot;origPos&quot;:null}" fill="#000000" stroke="none" stroke-width="0" stroke-linecap="butt" transform="matrix(1,0,0,1,-216.01215,-78.71063)"/><path d="M 31.4786 27.9258 L 22.3516 24.275 " data-paper-data="{&quot;origPos&quot;:null}" fill="none" stroke="#000000" stroke-width="2.5" stroke-linecap="round"/><path d="M 43.1929 24.4766 L 36.2564 27.7623 " data-paper-data="{&quot;origPos&quot;:null}" fill="none" stroke="#000000" stroke-width="2.5" stroke-linecap="round"/><path d="M 44.2643 88.5909 C 44.2643 88.5909 38.1915 84.6068 34.7314 80.5634 C 31.1544 76.3834 26.2326 67.5195 26.2326 67.5195 " data-paper-data="{&quot;origPos&quot;:null,&quot;index&quot;:null}" fill="none" stroke="#000000" stroke-width="3.5" stroke-linecap="round"/><path d="M245.27845,142.0021c-11.98444,2.23669 -20.02158,-6.23642 -23.25699,-9.71601c-5.03816,-5.41841 -4.75253,-8.33636 -4.75253,-8.33636l33.54536,-6.10224l17.34512,5.2451c0,0 1.03606,14.44582 -22.88096,18.90953z" data-paper-data="{&quot;origPos&quot;:null}" fill="#477e00" stroke="none" stroke-width="0" stroke-linecap="butt" transform="matrix(1,0,0,1,-216.01215,-78.71063)"/><path d="M262.80134,95.96248c0.79827,8.53804 -45.77809,12.12103 -46.57636,3.58299c-0.79827,-8.53804 8.65258,-19.77508 21.51429,-20.76449c12.86171,-0.98941 24.2638,8.64347 25.06207,17.18151z" data-paper-data="{&quot;origPos&quot;:null,&quot;origRot&quot;:0}" fill="#1d1d1d" stroke="none" stroke-width="0" stroke-linecap="butt" transform="matrix(1,0,0,1,-216.01215,-78.71063)"/><path d="M 14.7996 24.4915 C 14.7996 24.4915 16.3778 38.3096 18.988 46.4072 C 21.3397 53.7027 27.5139 63.9343 27.5139 63.9343 " data-paper-data="{&quot;origPos&quot;:null}" fill="none" stroke="#1d1d1d" stroke-width="1.5" stroke-linecap="round"/><text transform="matrix(0.2378344613351943,-0.02417545452308911,0.02417545452308911,0.2378344613351943,7.462600000000009,20.317840000000004)" font-size="40" xml:space="preserve" data-paper-data="{&quot;origPos&quot;:null,&quot;origRot&quot;:-1.30045}" fill="#ffffff" fill-rule="nonzero" stroke="none" stroke-width="1" stroke-linecap="butt" stroke-linejoin="miter" stroke-miterlimit="10" stroke-dasharray="" stroke-dashoffset="0" font-family="Sans Serif" font-weight="normal" text-anchor="start" style="mix-blend-mode: normal"><tspan x="0" dy="0">S W A T</tspan></text><g data-paper-data="{&quot;origPos&quot;:null}" stroke-linecap="butt"><g data-paper-data="{&quot;origPos&quot;:null}"><path d="M254.6414,161.26236v-2.7903h4.18545v2.7903z" data-paper-data="{&quot;origPos&quot;:null}" fill="#3b7800" stroke-width="0" stroke="none" transform="matrix(1,0,0,1,-216.01215,-78.71063)"/><path d="M242.3951,161.26236v-2.63528h4.80551v2.63528z" data-paper-data="{&quot;origPos&quot;:null}" fill="#3b7800" stroke-width="0" stroke="none" transform="matrix(1,0,0,1,-216.01215,-78.71063)"/><path d="M239.91484,159.09213v-4.83059h20.77221v4.83059z" data-paper-data="{&quot;origPos&quot;:null}" fill="url(#color-1)" stroke-width="0" stroke="none" transform="matrix(1,0,0,1,-216.01215,-78.71063)"/></g><g data-paper-data="{&quot;origPos&quot;:null}"><path d="M266.04078,159.95258c0,-1.02025 0.82706,-1.84731 1.84731,-1.84731c1.02025,0 1.84733,0.82706 1.84733,1.84731c0,1.02025 -0.82708,1.84733 -1.84733,1.84733c-1.02025,0 -1.84731,-0.82708 -1.84731,-1.84733z" data-paper-data="{&quot;origPos&quot;:null}" fill="url(#color-2)" stroke-width="0" stroke="none" transform="matrix(1,0,0,1,-216.01215,-78.71063)"/><path d="M266.62415,159.92017c0,-0.42958 0.34824,-0.77782 0.77782,-0.77782c0.42958,0 0.77782,0.34824 0.77782,0.77782c0,0.42958 -0.34824,0.77782 -0.77782,0.77782c-0.42958,0 -0.77782,-0.34824 -0.77782,-0.77782z" data-paper-data="{&quot;origPos&quot;:null}" fill="#ff0000" stroke-width="0" stroke="none" transform="matrix(1,0,0,1,-216.01215,-78.71063)"/></g><path d="M263.24735,166.02761v-3.03025h6.33599v3.03025z" data-paper-data="{&quot;origPos&quot;:null}" fill="#3b7800" stroke-width="0" stroke="none" transform="matrix(1,0,0,1,-216.01215,-78.71063)"/><path d="M226.33333,171.42145v-10.19268h11.84554l-0.13774,3.58121z" fill="url(#color-3)" stroke-width="0" stroke="none" transform="matrix(1,0,0,1,-216.01215,-78.71063)"/><path d="M249.47625,179.47918l-0.82643,-13.22293h4.13217l0.82643,13.22293z" data-paper-data="{&quot;origPos&quot;:null}" fill="url(#color-4)" stroke-width="0" stroke="none" transform="matrix(1,0,0,1,-216.01215,-78.71063)"/><path d="M237.6968,179.06596l3.44347,-13.22293h4.82086l-3.44347,13.22293z" data-paper-data="{&quot;origPos&quot;:null}" fill="url(#color-5)" stroke-width="0" stroke="none" transform="matrix(1,0,0,1,-216.01215,-78.71063)"/><path d="M262.83691,162.58928v-1.45841c0,0 1.41826,0.14166 2.36751,-0.51444c0.59438,-0.41082 1.13396,-2.50272 1.13396,-2.50272l0.90617,0.03552v4.44005z" data-paper-data="{&quot;origPos&quot;:null}" fill="#3b7800" stroke-width="0" stroke="none" transform="matrix(1,0,0,1,-216.01215,-78.71063)"/><path d="M237.35245,167.28929v-7.16242h29.88933v7.16242z" data-paper-data="{&quot;origPos&quot;:null}" fill="url(#color-6)" stroke-width="0" stroke="none" transform="matrix(1,0,0,1,-216.01215,-78.71063)"/></g><path d="M 26.3437 95.2576 C 26.3437 95.2576 13.5577 88.4517 13.0546 82.3887 C 12.6594 77.6265 24.0421 67.5195 24.0421 67.5195 " data-paper-data="{&quot;origPos&quot;:null}" fill="none" stroke="#000000" stroke-width="3.5" stroke-linecap="round"/></g></g></svg>