<svg xmlns="http://www.w3.org/2000/svg" xmlns:xlink="http://www.w3.org/1999/xlink" version="1.1" width="61.54393" height="157.73784" viewBox="0,0,61.54393,157.73784"><defs><linearGradient x1="243.85536" y1="200.26319" x2="243.85536" y2="247.63384" gradientUnits="userSpaceOnUse" id="color-1"><stop offset="0" stop-color="#69eaff"/><stop offset="1" stop-color="#69eaff" stop-opacity="0"/></linearGradient><linearGradient x1="243.97322" y1="89.64877" x2="243.97322" y2="140.2574" gradientUnits="userSpaceOnUse" id="color-2"><stop offset="0" stop-color="#ff6969"/><stop offset="1" stop-color="#fff769"/></linearGradient><linearGradient x1="244.00006" y1="139.45003" x2="244.00006" y2="176.10635" gradientUnits="userSpaceOnUse" id="color-3"><stop offset="0" stop-color="#fff569"/><stop offset="1" stop-color="#69ff6d"/></linearGradient><linearGradient x1="244.00006" y1="174.17707" x2="244.00006" y2="210.83339" gradientUnits="userSpaceOnUse" id="color-4"><stop offset="0" stop-color="#69ff6d"/><stop offset="1" stop-color="#69f4ff"/></linearGradient></defs><g><g data-paper-data="{&quot;isPaintingLayer&quot;:true}" fill-rule="nonzero" stroke-linejoin="miter" stroke-miterlimit="10" stroke-dasharray="" stroke-dashoffset="0" style="mix-blend-mode: normal"><g><path d="M213.86243,211.16975c0,-6.02354 12.79655,-10.90659 29.81546,-10.90659c17.01891,0 31.16546,4.88305 31.16546,10.90659c0,3.27877 0.01443,36.46408 0.01443,36.46408c0,0 -5.39358,-7.094 -9.61486,-7.14697c-4.22128,-0.05297 -10.17947,6.89544 -10.17947,6.89544c0,0 -6.96299,-6.54205 -11.37673,-6.5895c-4.41374,-0.04745 -11.40606,6.34458 -11.40606,6.34458c0,0 -5.93216,-6.4407 -9.69432,-6.4035c-3.76216,0.03721 -8.9834,6.5981 -8.9834,6.5981c0,0 0.25949,-32.28366 0.25949,-36.16223z" fill="url(#color-1)" stroke="none" stroke-width="0" stroke-linecap="butt" transform="matrix(1,0,0,1,-213.60293,-89.89599)"/><path d="M244.04575,89.89876c18.76887,-0.25312 30.96452,16.90902 31.06546,31.02437c0.12956,18.11781 -0.13557,19.02605 -0.13557,19.02605l-61.25484,-0.01425c0,0 0.16804,-18.48598 0.00949,-19.26179c-0.2929,-13.90346 10.04806,-30.50105 30.31546,-30.77438z" fill="url(#color-2)" stroke="none" stroke-width="0" stroke-linecap="butt" transform="matrix(1,0,0,1,-213.60293,-89.89599)"/><g stroke-linecap="butt"><path d="M213.70006,176.10635v-36.65631h61.35v36.65631z" fill="url(#color-3)" stroke-width="0" stroke="none" transform="matrix(1,0,0,1,-213.60293,-89.89599)"/><path d="M213.70006,210.83339v-36.65631h61.35v36.65631c0,0 -5.50178,-4.68539 -9.55,-4.68539c-4.04822,0 -10.8,4.68539 -10.8,4.68539c0,0 -6.962,-5.23662 -11.8,-5.23662c-4.838,0 -11.8,5.23662 -11.8,5.23662c0,0 -5.2849,-5.51223 -9.2,-5.51223c-3.9151,0 -8.2,5.51223 -8.2,5.51223z" data-paper-data="{&quot;index&quot;:null}" fill="url(#color-4)" stroke-width="0" stroke="none" transform="matrix(1,0,0,1,-213.60293,-89.89599)"/></g><g><path d="M240.33263,114.32312c0,-2.66149 2.15756,-4.81905 4.81905,-4.81905c2.66149,0 4.81905,2.15756 4.81905,4.81905c0,2.66149 -2.15756,4.81905 -4.81905,4.81905c-2.66149,0 -4.81905,-2.15756 -4.81905,-4.81905z" data-paper-data="{&quot;origPos&quot;:null}" fill="#000000" stroke="none" stroke-width="0" stroke-linecap="butt" transform="matrix(1,0,0,1,-213.60293,-89.89599)"/><path d="M253.9866,114.32312c0,-2.66148 2.15757,-4.81905 4.81905,-4.81905c2.66148,0 4.81905,2.15757 4.81905,4.81905c0,2.66148 -2.15757,4.81905 -4.81905,4.81905c-2.66148,0 -4.81905,-2.15757 -4.81905,-4.81905z" data-paper-data="{&quot;origPos&quot;:null}" fill="#000000" stroke="none" stroke-width="0" stroke-linecap="butt" transform="matrix(1,0,0,1,-213.60293,-89.89599)"/><path d="M 26.9487 17.4208 L 36.0757 21.0716 " data-paper-data="{&quot;origPos&quot;:null}" fill="none" stroke="#000000" stroke-width="2.5" stroke-linecap="round"/><path d="M 48.1233 17.4557 L 41.1868 20.7414 " data-paper-data="{&quot;origPos&quot;:null}" fill="none" stroke="#000000" stroke-width="2.5" stroke-linecap="round"/></g></g></g></g></svg>