<svg xmlns="http://www.w3.org/2000/svg" xmlns:xlink="http://www.w3.org/1999/xlink" version="1.1" width="25.47403" height="10.8125" viewBox="0,0,25.47403,10.8125"><g><g data-paper-data="{&quot;isPaintingLayer&quot;:true}" fill-rule="nonzero" stroke-linecap="butt" stroke-linejoin="miter" stroke-miterlimit="10" stroke-dasharray="" stroke-dashoffset="0" font-family="none" font-weight="none" font-size="none" text-anchor="none" style="mix-blend-mode: normal"><g><path d="M232.96591,183.00631v-5.63636h11.1183l5.71357,2.93399l-5.71357,2.70237z" data-paper-data="{&quot;origPos&quot;:null}" fill="#909090" stroke="none" stroke-width="0" transform="matrix(1,0,0,1,-225.98847,-174.8375)"/><path d="M243.8875,185.11982v-9.60732l7.575,4.52652z" data-paper-data="{&quot;origPos&quot;:null}" fill="#e30000" stroke="none" stroke-width="0" transform="matrix(1,0,0,1,-225.98847,-174.8375)"/><path d="M232.91788,177.5875l-2.55538,-2.75h3.38212l2.55538,2.75z" data-paper-data="{&quot;origPos&quot;:null}" fill="#e00000" stroke="none" stroke-width="0" transform="matrix(1,0,0,1,-225.98847,-174.8375)"/><path d="M230.4875,185.65l2.55538,-2.75h3.38212l-2.55538,2.75z" data-paper-data="{&quot;origPos&quot;:null,&quot;index&quot;:null}" fill="#e00000" stroke="none" stroke-width="0" transform="matrix(1,0,0,1,-225.98847,-174.8375)"/><path d="M 1.2768 8.5903 L 2.889 6.6677 L 0.5949 5.6348 L 2.832 4.5696 L 1.2768 2.3056 L 7.1865 4.0833 L 7.1865 6.6458 Z " data-paper-data="{&quot;origPos&quot;:null}" fill="#fff300" stroke="#ff9200" stroke-width="0.5"/></g></g></g></svg>