<svg version="1.1" xmlns="http://www.w3.org/2000/svg" xmlns:xlink="http://www.w3.org/1999/xlink" width="521.24208" height="395.75156" viewBox="0,0,521.24208,395.75156"><defs><linearGradient x1="41.03526" y1="341.41825" x2="58.53526" y2="341.41825" gradientUnits="userSpaceOnUse" id="color-1"><stop offset="0" stop-color="#bbe4e9"/><stop offset="1" stop-color="#bbe4e9" stop-opacity="0"/></linearGradient><linearGradient x1="28.53526" y1="341.91825" x2="11.03526" y2="341.91825" gradientUnits="userSpaceOnUse" id="color-2"><stop offset="0" stop-color="#bbe4e9"/><stop offset="1" stop-color="#bbe4e9" stop-opacity="0"/></linearGradient><linearGradient x1="442.78529" y1="341.5611" x2="425.28529" y2="341.5611" gradientUnits="userSpaceOnUse" id="color-3"><stop offset="0" stop-color="#bbe4e9"/><stop offset="1" stop-color="#bbe4e9" stop-opacity="0"/></linearGradient><linearGradient x1="454.89242" y1="341.41825" x2="472.39242" y2="341.41825" gradientUnits="userSpaceOnUse" id="color-4"><stop offset="0" stop-color="#bbe4e9"/><stop offset="1" stop-color="#bbe4e9" stop-opacity="0"/></linearGradient><linearGradient x1="176.61477" y1="51.79442" x2="206.07751" y2="51.79442" gradientUnits="userSpaceOnUse" id="color-5"><stop offset="0" stop-color="#5293ff"/><stop offset="1" stop-color="#8fd7ff"/></linearGradient><linearGradient x1="34.51849" y1="52.47092" x2="63.9812" y2="52.47092" gradientUnits="userSpaceOnUse" id="color-6"><stop offset="0" stop-color="#8fd7ff"/><stop offset="1" stop-color="#5293ff"/></linearGradient><linearGradient x1="418.86478" y1="51.54442" x2="448.32753" y2="51.54442" gradientUnits="userSpaceOnUse" id="color-7"><stop offset="0" stop-color="#5293ff"/><stop offset="1" stop-color="#8fd7ff"/></linearGradient><linearGradient x1="276.76849" y1="52.22092" x2="306.23121" y2="52.22092" gradientUnits="userSpaceOnUse" id="color-8"><stop offset="0" stop-color="#8fd7ff"/><stop offset="1" stop-color="#5293ff"/></linearGradient><linearGradient x1="120.53697" y1="23.68191" x2="120.53697" y2="171.68191" gradientUnits="userSpaceOnUse" id="color-9"><stop offset="0" stop-color="#e4fcff" stop-opacity="0"/><stop offset="1" stop-color="#e4fcff"/></linearGradient><linearGradient x1="364.537" y1="22.43191" x2="364.537" y2="170.43191" gradientUnits="userSpaceOnUse" id="color-10"><stop offset="0" stop-color="#e4fcff" stop-opacity="0"/><stop offset="1" stop-color="#e4fcff"/></linearGradient><linearGradient x1="241.45143" y1="180.8713" x2="296.95143" y2="180.8713" gradientUnits="userSpaceOnUse" id="color-11"><stop offset="0" stop-color="#b9faf1"/><stop offset="1" stop-color="#b9faf1" stop-opacity="0"/></linearGradient><linearGradient x1="241.45143" y1="182.8713" x2="185.95143" y2="182.8713" gradientUnits="userSpaceOnUse" id="color-12"><stop offset="0" stop-color="#b9faf1"/><stop offset="1" stop-color="#b9faf1" stop-opacity="0"/></linearGradient></defs><g transform="translate(15.54306,7.1287)"><g data-paper-data="{&quot;isPaintingLayer&quot;:true}" fill-rule="nonzero" stroke-linejoin="miter" stroke-miterlimit="10" stroke-dasharray="" stroke-dashoffset="0" style="mix-blend-mode: normal"><path d="M-4.71525,294.69602v-110h488.66667v110z" fill="#695c4e" stroke="none" stroke-width="0" stroke-linecap="butt"/><path d="M-3.54857,364.08492v-85.16667h489.33333v85.16667z" fill="#82dc8c" stroke="none" stroke-width="0" stroke-linecap="butt"/><path d="M-4.8819,149.84971v-154.5h489.33333v154.5z" fill="#1a3262" stroke="none" stroke-width="0" stroke-linecap="butt"/><path d="M-4.8819,212.25157v-64.83333c0,0 -0.24903,-1.33333 2,-1.33333c3.60606,0 11.30047,-2 29.33333,-2c34.39895,0 63.88818,3.65114 126.00697,4.09049c14.1915,0.10037 35.27744,-4.16096 50.32882,-4.11259c10.58474,0.03402 28.27678,2.08403 38.99135,2.14727c16.08622,0.09494 44.89503,-0.68046 61.25452,-0.43023c34.14653,0.52231 55.45446,2.15633 83.99627,1.95618c21.83374,-0.15311 38.97415,-2.25939 54.6769,-2.1889c29.34304,0.13173 42.74516,1.8711 42.74516,1.8711v51.5c0,0 12.16542,3.76382 -4.95998,5.25783c-6.00886,0.52421 -15.07424,-1.39123 -25.42689,-3.793c-2.27925,-0.52878 -5.88106,6.2388 -5.88106,6.2388c0,0 -4.57439,-8.67392 -6.32577,-9.06777c-12.5216,-2.81582 -25.83332,-5.30855 -37.37702,-4.65389c-4.70308,0.26672 -8.71997,1.19215 -12.44421,2.4475c-2.08656,0.70332 -6.80329,15.11282 -6.80329,15.11282c0,0 -4.00072,-10.61434 -6.4496,-9.54878c-0.6648,0.28927 -3.30911,5.34433 -3.30911,5.34433c0,0 -1.27071,-3.15021 -2.00761,-2.86721c-5.34127,2.05124 -10.23463,2.95478 -18.0166,3.3028c-11.197,0.50075 -25.10368,-2.3047 -39.54122,-5.63416c-5.49243,-1.26661 -15.08783,7.00083 -15.08783,7.00083c0,0 -11.39057,-13.08486 -16.1968,-13.98528c-8.48069,-1.58882 -16.5826,-2.63802 -23.8284,-2.53812c-17.57727,0.24234 -26.9333,8.62138 -41.55282,12.18277c-1.87248,0.45615 -4.7798,13.47912 -4.7798,13.47912c0,0 -3.46476,-12.10679 -4.69261,-12.02656c-1.00111,0.06541 -4.03638,7.56412 -4.03638,7.56412c0,0 -3.09008,-7.81379 -5.03458,-8.22896c-9.73718,-2.07898 -17.23868,-7.91231 -29.86287,-9.03949c-3.25473,-0.29061 -9.44513,0.99867 -15.95224,2.59093c-2.92116,0.71479 -8.71803,17.58704 -8.71803,17.58704c0,0 -4.56985,-14.20959 -6.53671,-13.75072c-1.1227,0.26193 -3.84049,4.79578 -3.84049,4.79578c0,0 -1.84916,-3.67818 -2.66673,-3.6657c-6.62626,0.10119 -12.98604,-0.08232 -19.07346,-0.46696c-2.04689,-0.12933 -7.41628,14.80137 -7.41628,14.80137c0,0 -7.24662,-15.6706 -10.44868,-15.12598c-6.13447,1.04338 -7.73718,6.33474 -7.73718,6.33474c0,0 -7.37492,-10.01412 -10.34172,-10.54095c-17.4413,-3.09712 -31.22326,-6.43189 -41.07581,-6.16343c-2.40329,0.06548 -8.01097,8.97825 -8.01097,8.97825c0,0 -2.81059,-7.09004 -4.59559,-6.27673c-9.00496,4.10298 -12.25793,11.53846 -17.79184,12.82828c-2.25109,0.52468 -11.51312,4.85971 -11.51312,4.85971z" fill="#82dc8c" stroke="none" stroke-width="NaN" stroke-linecap="butt"/><text transform="translate(81.00002,18.91674) scale(0.43242,0.43242)" font-size="40" xml:space="preserve" data-paper-data="{&quot;origPos&quot;:null}" fill="#ffffff" fill-rule="nonzero" stroke="#001c7e" stroke-width="0" stroke-linecap="butt" stroke-linejoin="miter" stroke-miterlimit="10" stroke-dasharray="" stroke-dashoffset="0" font-family="Serif" font-weight="normal" text-anchor="start" style="mix-blend-mode: normal"><tspan x="0" dy="0">PLAYER 1</tspan></text><text transform="translate(326.00003,18.54174) scale(0.43589,0.43589)" font-size="40" xml:space="preserve" data-paper-data="{&quot;origPos&quot;:null}" fill="#ffffff" fill-rule="nonzero" stroke="#001c7e" stroke-width="0" stroke-linecap="butt" stroke-linejoin="miter" stroke-miterlimit="10" stroke-dasharray="" stroke-dashoffset="0" font-family="Serif" font-weight="normal" text-anchor="start" style="mix-blend-mode: normal"><tspan x="0" dy="0">PLAYER 2</tspan></text><g stroke="none" stroke-width="1" stroke-linecap="butt"><g data-paper-data="{&quot;origPos&quot;:null}"><path d="M311.95604,139.2143c1.6874,1.6874 1.7762,12.5668 -0.0888,15.0092c-1.8651,2.4423 -8.3484,1.7762 -11.1459,0.6661c-2.7976,-1.1102 -1.9539,-8.8812 -1.9539,-12.2117c0,-3.3304 2.0871,-4.5294 4.5294,-4.8846c3.9965,-0.5329 7.2826,0.0888 8.6592,1.421z" fill="#cfebe2"/><g><path d="M311.37874,140.9461c0.9325,1.2877 1.3766,10.3465 0.1776,12.3448c-1.1989,1.9983 -7.6822,2.1759 -10.0357,0.8437c-1.8207,-1.0213 -2.1315,-4.0853 -2.1759,-8.7479c-0.0444,-4.7515 1.5986,-5.8616 3.286,-6.1725c6.5721,-1.3321 7.8599,0.3997 8.748,1.7319z" fill="#ad2744"/><path d="M301.56504,154.1346c-0.2665,-0.1332 -0.4885,-0.3552 -0.7105,-0.5772c1.865,-0.9326 6.7053,-1.9983 10.5686,-0.0444c-1.5098,1.8206 -7.6378,1.9094 -9.8581,0.6216z" fill="#991f3f"/><path d="M300.94334,152.2252c0,-0.2453 0.1988,-0.4441 0.4441,-0.4441c0.2452,0 0.444,0.1988 0.444,0.4441c0,0.2452 -0.1988,0.4441 -0.444,0.4441c-0.2453,0 -0.4441,-0.1989 -0.4441,-0.4441z" fill="#cf2f51"/><path d="M309.78014,144.2765c0,-0.2453 0.1988,-0.4441 0.444,-0.4441c0.2453,0 0.4441,0.1988 0.4441,0.4441c0,0.2452 -0.1988,0.444 -0.4441,0.444c-0.2452,0 -0.444,-0.1988 -0.444,-0.444z" fill="#cf2f51"/><path d="M310.31304,150.9374c0,-0.2453 0.1988,-0.4441 0.444,-0.4441c0.2453,0 0.4441,0.1988 0.4441,0.4441c0,0.2452 -0.1988,0.4441 -0.4441,0.4441c-0.2452,0 -0.444,-0.1989 -0.444,-0.4441z" fill="#cf2f51"/><path d="M306.84934,152.6692c0,-0.2453 0.1988,-0.4441 0.444,-0.4441c0.2453,0 0.4441,0.1988 0.4441,0.4441c0,0.2452 -0.1988,0.4441 -0.4441,0.4441c-0.2452,0 -0.444,-0.1989 -0.444,-0.4441z" fill="#cf2f51"/><path d="M301.38744,152.6692c0,-0.2453 0.1988,-0.4441 0.444,-0.4441c0.2453,0 0.4441,0.1988 0.4441,0.4441c0,0.2452 -0.1988,0.4441 -0.4441,0.4441c-0.2452,0 -0.444,-0.1989 -0.444,-0.4441z" fill="#cf2f51"/><path d="M308.89194,151.3814c0,-0.2452 0.1988,-0.444 0.4441,-0.444c0.2452,0 0.444,0.1988 0.444,0.444c0,0.2453 -0.1988,0.4441 -0.444,0.4441c-0.2453,0 -0.4441,-0.1988 -0.4441,-0.4441z" fill="#cf2f51"/><path d="M300.89894,143.6548c0,-0.2453 0.1988,-0.4441 0.4441,-0.4441c0.2452,0 0.444,0.1988 0.444,0.4441c0,0.2452 -0.1988,0.4441 -0.444,0.4441c-0.2453,0 -0.4441,-0.1989 -0.4441,-0.4441z" fill="#cf2f51"/><path d="M306.44974,142.8999c0,-0.2452 0.1988,-0.444 0.444,-0.444c0.2453,0 0.4441,0.1988 0.4441,0.444c0,0.2453 -0.1988,0.4441 -0.4441,0.4441c-0.2452,0 -0.444,-0.1989 -0.444,-0.4441z" fill="#cf2f51"/><path d="M302.40874,150.2269c0,-0.2453 0.1988,-0.4441 0.444,-0.4441c0.2453,0 0.4441,0.1988 0.4441,0.4441c0,0.2452 -0.1988,0.444 -0.4441,0.444c-0.2452,0 -0.444,-0.1988 -0.444,-0.444z" fill="#cf2f51"/><path d="M305.42834,153.7794c0,-0.2453 0.1988,-0.4441 0.444,-0.4441c0.2453,0 0.4441,0.1988 0.4441,0.4441c0,0.2452 -0.1988,0.444 -0.4441,0.444c-0.2452,0 -0.444,-0.1988 -0.444,-0.444z" fill="#cf2f51"/><path d="M309.02524,143.2552c0,-0.2453 0.1988,-0.4441 0.444,-0.4441c0.2453,0 0.4441,0.1988 0.4441,0.4441c0,0.2452 -0.1988,0.444 -0.4441,0.444c-0.2452,0 -0.444,-0.1988 -0.444,-0.444z" fill="#cf2f51"/><path d="M302.14234,144.8094c0,-0.2453 0.1988,-0.4441 0.444,-0.4441c0.2453,0 0.4441,0.1988 0.4441,0.4441c0,0.2452 -0.1988,0.444 -0.4441,0.444c-0.2452,0 -0.444,-0.1988 -0.444,-0.444z" fill="#cf2f51"/><path d="M304.14054,142.9443c0,-0.2452 0.1988,-0.444 0.4441,-0.444c0.2452,0 0.4441,0.1988 0.4441,0.444c0,0.2453 -0.1989,0.4441 -0.4441,0.4441c-0.2453,0 -0.4441,-0.1988 -0.4441,-0.4441z" fill="#cf2f51"/></g><path d="M305.78354,149.8717c-3.1972,0.0444 -5.7283,-0.6661 -7.1493,-1.199c-0.0444,-1.421 0,-2.7976 0.0444,-4.0409c1.1101,0.6661 3.8633,1.5542 8.3039,1.1989c3.3304,-0.2664 5.1067,-0.5773 6.2168,-1.0213c0.0444,1.421 0.0444,2.9752 -0.0888,4.3962c-1.2878,0.2664 -3.5969,0.6217 -7.327,0.6661z" fill="#f0e0da"/><g><g><path d="M306.27204,150.5377l-0.0444,0.0445c-0.3996,0.222 -0.7993,0.3552 -1.1989,0.2664c-1.1102,-0.222 -2.4424,-4.2186 -0.8882,-4.9291c0.4441,-0.1776 0.977,-0.222 1.4654,-0.1776c-0.444,-0.6217 -0.6217,-1.199 -0.222,-1.199c0.5329,0 0.8437,1.199 0.8437,1.199c0,0 -0.0444,-1.2434 0.7105,-1.2434c0.6661,0 0.0444,0.9326 -0.1776,1.199c0.222,-0.222 0.8881,-1.0657 1.3766,-0.7105c0.3996,0.222 -0.5329,0.7549 -1.2434,1.0657c0.8437,0.3997 1.4654,0.9326 1.4654,1.5098c0,0.7994 -0.9325,2.3092 -2.0871,2.9753z" fill="#e5e4e1"/><path d="M305.38394,151.337c-0.1332,0 -0.2665,0 -0.3997,-0.0444c-0.9769,-0.222 -1.7762,-2.1759 -1.9094,-3.4636c-0.0888,-1.1546 0.222,-1.9983 0.9325,-2.3091c0.2664,-0.1333 0.5329,-0.1777 0.8437,-0.2221c-0.1332,-0.3108 -0.1776,-0.6216 -0.0444,-0.8437c0.0888,-0.222 0.3108,-0.3552 0.5773,-0.3552c0.3108,0 0.5328,0.1776 0.7549,0.3996c0.0444,-0.0444 0.0888,-0.0888 0.0888,-0.1332c0.1776,-0.222 0.4441,-0.3108 0.7549,-0.3108c0.3997,0 0.5773,0.222 0.6661,0.3552c0,0 0,0.0444 0.0444,0.0444c0.2664,-0.0444 0.5329,0 0.7549,0.1332c0.1776,0.1333 0.2665,0.3553 0.2665,0.5773c-0.0445,0.2665 -0.1777,0.5329 -0.8438,0.8881c0.6217,0.4441 0.977,0.9325 0.977,1.4654c0,1.0214 -1.0658,2.6644 -2.2203,3.3749l-0.0888,0.0444c-0.3997,0.2664 -0.7994,0.3996 -1.1546,0.3996zM305.25074,146.1415c-0.3109,0 -0.6217,0.0444 -0.8437,0.1777c-0.4885,0.222 -0.4441,1.0657 -0.4441,1.4209c0.1332,1.3322 0.8881,2.62 1.199,2.7088c0.2664,0.0444 0.5328,0 0.8881,-0.222l0.0444,-0.0444c0.9769,-0.6217 1.7762,-2.0427 1.7762,-2.62c0,-0.2664 -0.3996,-0.7549 -1.199,-1.0657c-0.1332,-0.0444 -0.222,-0.1776 -0.2664,-0.3109c-0.0444,0.0445 -0.0888,0.0445 -0.1332,0.0445c-0.1332,0 -0.2664,-0.0445 -0.3997,-0.1333c-0.0888,0.0888 -0.222,0.1333 -0.3552,0.0888c-0.0444,-0.0444 -0.1332,-0.0444 -0.2665,-0.0444z" fill="#f0e0da"/></g><g><path d="M306.22764,146.3636c-0.7993,-0.7105 -1.3322,-1.8207 -0.7993,-1.8207c0.5329,0 0.8437,1.199 0.8437,1.199c0,0 -0.0444,-1.2434 0.7105,-1.2434c0.7549,0 -0.222,1.2878 -0.222,1.2878c0,0 0.8437,-1.199 1.421,-0.7993c0.5772,0.3996 -1.9539,1.3766 -1.9539,1.3766z" fill="#88b540"/><path d="M305.07314,150.8486c-1.0658,-0.2665 -2.4424,-4.263 -0.8882,-4.9291c1.5542,-0.6661 4.1742,0.5329 4.1742,1.643c0,1.1102 -1.8207,3.6413 -3.2861,3.2861z" fill="#dd223d"/><path d="M305.69474,147.9622c-0.3108,-0.1332 -0.0444,-0.6661 0.2665,-0.6217c0.2664,0.0889 -0.0889,0.7105 -0.2665,0.6217z" fill="#ddbf6b"/><path d="M306.53844,149.0723c-0.3108,-0.1332 -0.0444,-0.666 0.2665,-0.6216c0.2664,0.0888 -0.0889,0.7105 -0.2665,0.6216z" fill="#ddbf6b"/><path d="M306.80494,147.2517c-0.3109,-0.1332 -0.0444,-0.6661 0.2664,-0.6217c0.2665,0.0888 -0.1332,0.7105 -0.2664,0.6217z" fill="#ddbf6b"/><path d="M305.33954,149.8717c-0.3109,-0.1332 -0.0444,-0.6661 0.2664,-0.6217c0.2664,0.0888 -0.0888,0.7105 -0.2664,0.6217z" fill="#ddbf6b"/><path d="M306.53844,150.4489c-0.1776,0.1332 -0.3108,0.1776 -0.444,0.2664c-0.0888,-0.222 0.1332,-0.5773 0.3552,-0.5329c0.0888,0 0.1332,0.1333 0.0888,0.2665z" fill="#ddbf6b"/><path d="M307.47104,148.2286c-0.3109,-0.1332 -0.0444,-0.6661 0.2664,-0.6217c0.222,0.0888 -0.1332,0.7105 -0.2664,0.6217z" fill="#ddbf6b"/><path d="M304.58464,148.7171c-0.3109,-0.1332 -0.0444,-0.6661 0.2664,-0.6217c0.3109,0.0444 -0.1332,0.7105 -0.2664,0.6217z" fill="#ddbf6b"/><path d="M304.85104,146.9408c-0.3108,-0.1332 -0.0444,-0.6661 0.2665,-0.6217c0.2664,0.0888 -0.1333,0.7105 -0.2665,0.6217z" fill="#ddbf6b"/><path d="M304.40704,150.2713c-0.0889,-0.0888 -0.1333,-0.222 -0.2221,-0.3552c0.0888,-0.0888 0.1776,-0.0888 0.2665,-0.0888c0.1776,0.0444 0.0888,0.2664 -0.0444,0.444z" fill="#ddbf6b"/><path d="M303.87414,147.8734c-0.3108,-0.1332 -0.0444,-0.666 0.2664,-0.6216c0.2665,0.0444 -0.0888,0.666 -0.2664,0.6216z" fill="#ddbf6b"/></g></g></g><g data-paper-data="{&quot;origPos&quot;:null}"><path d="M311.73394,139.525c0.4885,-0.1332 2.1315,1.0214 2.1315,1.0214c0,0 -1.0657,0.8437 -2.0426,1.2878c-0.9326,0.444 -1.9095,0.1776 -2.62,0.0443c-0.7549,-0.1332 -1.6874,0.0889 -2.2647,0.3109c-0.5773,0.2664 -0.7993,-0.0444 -1.8207,-0.2664c-1.0213,-0.2221 -2.8863,1.1989 -3.5524,0.3552c-0.6661,-0.8437 -1.1102,-0.9325 -2.1759,-0.7105c-1.0658,0.2665 -1.421,-1.3322 -1.421,-1.3322c0.3552,-0.222 1.8206,-0.9769 1.8206,-0.9769c7.5935,1.0657 11.9453,0.2664 11.9453,0.2664z" fill="#e5e4e1"/><path d="M300.05524,139.4362l-1.8207,1.5098c-0.1776,-0.3552 -0.2664,-0.7105 -0.2664,-0.7105c0.3108,-0.1776 1.3766,-0.7549 1.6874,-0.9325z" fill="#e6818b"/><path d="M301.38744,139.9247l-1.6875,1.643c-0.0888,0 -0.222,0 -0.3108,0.0444c-0.222,0.0444 -0.3997,0.0444 -0.5773,-0.0444l2.0871,-1.7762z" fill="#e6818b"/><path d="M302.80834,140.0135l-1.2877,2.2203c-0.1776,-0.2664 -0.3553,-0.3996 -0.5329,-0.5328l1.1546,-1.7319z" fill="#e6818b"/><path d="M303.47454,140.4131l0.6661,0.1777l-0.5329,1.643c-0.2665,0.0888 -0.4885,0.1776 -0.7549,0.222z" fill="#e6818b"/><path d="M305.11754,140.502l0.666,0.1332l-0.3552,1.421c-0.0888,-0.0444 -0.1776,-0.0444 -0.3108,-0.0888c-0.1333,-0.0444 -0.2221,-0.0444 -0.3553,-0.0444z" fill="#e6818b"/><path d="M306.84934,140.4576h0.5773l0.0888,1.5542c-0.2221,0.0444 -0.3997,0.0888 -0.5773,0.1776c-0.0444,0 -0.0888,0.0444 -0.1332,0.0444z" fill="#e6818b"/><path d="M309.15844,141.923c-0.0888,-0.0445 -0.1332,-0.0445 -0.222,-0.0445l-0.0889,-1.643l0.3997,-0.1332l0.3108,1.8651c-0.1332,0 -0.222,-0.0444 -0.3996,-0.0444z" fill="#e6818b"/><path d="M310.80144,142.1006l-0.8437,-2.0871l0.4441,-0.1332l1.0657,2.1315c-0.2664,0.0444 -0.4885,0.0888 -0.6661,0.0888z" fill="#e6818b"/><path d="M312.93294,141.2125l-1.9539,-1.5098h0.4885l1.9983,1.1546c-0.1332,0.1332 -0.3109,0.222 -0.5329,0.3552z" fill="#e6818b"/><path d="M299.69994,139.6582c0,0 -0.8437,-1.2877 -0.1776,-2.2647c0.6661,-0.9769 3.5969,-1.5986 7.2382,-1.5542c3.6413,0.0444 6.4388,0.8437 5.4175,3.8633c0,0 -6.1724,2.62 -12.4781,-0.0444z" fill="#d3d2cf"/><path d="M299.47794,137.4824c0,-0.0445 0.0444,-0.0444 0.0444,-0.0889c0.7105,-0.9769 3.5969,-1.5986 7.2382,-1.5542c2.4423,0.0445 4.485,0.3997 5.2399,1.5542c-0.8881,0.3553 -2.4867,0.7105 -5.4175,0.9326c-4.3518,0.3552 -6.2613,-0.3553 -7.105,-0.8437z" fill="#e5e4e1"/><path d="M304.36254,135.8838c-1.2433,0.5329 -3.7301,1.643 -3.8189,1.9539c-0.1776,0.5328 -0.1332,1.5542 -0.0888,2.087c-0.222,-0.0888 -0.4885,-0.1776 -0.7105,-0.2664c-0.0444,-0.6661 -0.0888,-1.8206 0.3109,-2.1759c0.3552,-0.3552 1.6874,-0.9769 2.6643,-1.3766c0.4885,-0.0888 1.0658,-0.1332 1.643,-0.222z" fill="#e6818b"/><path d="M302.54194,138.0152c-0.1332,0.4885 0,1.8651 0.0888,2.5312c-0.222,-0.0444 -0.4884,-0.1333 -0.7105,-0.1777c-0.1332,-0.7993 -0.3108,-2.3091 0.1332,-2.7531c0.4441,-0.4441 2.7088,-1.3766 3.7746,-1.7763c0.3108,0 0.6216,0 0.9325,0c0.0888,0 0.1332,0 0.222,0c-1.2434,0.5329 -4.3518,1.8207 -4.4406,2.1759z" fill="#e6818b"/><path d="M309.42484,136.0614c-1.421,0.6217 -4.7958,2.0427 -4.8846,2.3979c-0.1776,0.5773 -0.0888,1.9095 -0.0444,2.3091c-0.2221,0 -0.4441,0 -0.6661,-0.0444c-0.0888,-0.5328 -0.2664,-2.1759 0.222,-2.6643c0.4885,-0.4885 3.4637,-1.7319 4.485,-2.1315c0.3109,0.0444 0.5773,0.0888 0.8881,0.1332z" fill="#e6818b"/><path d="M306.71614,138.6813c-0.0889,0.3997 -0.0445,1.4654 0.0444,2.1759c-0.2665,0 -0.4885,0 -0.7105,0c-0.0888,-0.7993 -0.2221,-2.1759 0.1776,-2.5755c0.5329,-0.5329 3.5081,-1.6874 4.1741,-1.9539c0.2221,0.0444 0.3997,0.1332 0.5773,0.2221c-1.3766,0.5328 -4.2186,1.7762 -4.263,2.1314z" fill="#e6818b"/><path d="M308.66994,140.5908c-0.222,0.0444 -0.444,0.0888 -0.6661,0.1333c-0.0444,-0.6217 0.0445,-1.9983 0.4885,-2.4424c0.2665,-0.2664 1.8207,-1.0213 2.9308,-1.5098c0.1332,0.1332 0.2664,0.2221 0.3997,0.3553c-1.2434,0.5773 -2.9308,1.2433 -2.9752,1.4654c-0.1333,0.4884 -0.2221,1.4654 -0.1777,1.9982z" fill="#e6818b"/><path d="M306.71614,135.8394c1.421,0.0444 2.7087,0.1776 3.6857,0.4884l-3.6857,-0.4884c0,0 0.0444,0 0,0z" fill="#e6818b"/><path d="M308.49234,135.9726c0.3108,0.0444 0.5773,0.0888 0.8437,0.1332c0.0444,0 0.0444,0 0.0444,0c-0.0888,0.0444 -0.1332,0.0444 -0.222,0.0888l-0.8881,-0.1332c0.0888,-0.0444 0.1776,-0.0888 0.222,-0.0888z" fill="#d1303e"/><path d="M305.11754,139.3918c3.508,0 6.2612,-0.9769 7.1937,-1.3322c0.0444,0.1777 0.0444,0.3553 0.0444,0.5329c-1.2434,0.5773 -6.1724,2.5312 -12.9665,0.3553c-0.0444,-0.1777 -0.0888,-0.3109 -0.0888,-0.4885c0.7993,0.3552 2.6643,0.9769 5.8171,0.9325z" fill="#e6818b"/><path d="M308.80314,139.081c-0.0444,0.1776 -0.0888,0.3997 -0.0888,0.6217c-0.222,0 -0.4884,0.0444 -0.7105,0.0888c0,-0.222 0.0444,-0.3997 0.0888,-0.6217c0.2221,-0.0444 0.4441,-0.0888 0.7105,-0.0888z" fill="#d1303e"/><path d="M306.62724,139.9247c-0.222,0.0444 -0.4884,0.0444 -0.7104,0.0444c0,-0.222 0,-0.3997 0,-0.5773c0.222,0 0.4884,-0.0444 0.7104,-0.0444c0,0.1776 0,0.3553 0,0.5773z" fill="#d1303e"/><path d="M304.40704,139.9247c-0.2221,0 -0.4885,0 -0.7105,-0.0444c0,-0.1776 0,-0.3109 0,-0.4885c0.222,0 0.4884,0 0.7105,0c0,0.1776 0,0.3553 0,0.5329z" fill="#d1303e"/><path d="M301.78704,139.1698c0.222,0.0444 0.4441,0.0444 0.6661,0.0888c0.0444,0.1776 0.0444,0.3108 0.0444,0.4441c-0.222,-0.0445 -0.4441,-0.0889 -0.7105,-0.1333c0,-0.1332 0,-0.2664 0,-0.3996z" fill="#d1303e"/><path d="M300.45484,139.2586c-0.2664,-0.0888 -0.4884,-0.1332 -0.7105,-0.222c0,-0.1332 0,-0.2665 0,-0.3997c0.1777,0.0444 0.3997,0.1332 0.6661,0.2221c0,0.1332 0,0.2664 0.0444,0.3996z" fill="#d1303e"/><path d="M309.73574,140.4576c0,-0.5773 -0.0444,-1.9983 -0.5329,-1.9983c-0.5773,0 -8.1707,-0.444 -9.9025,-0.5328c0.0444,-0.1332 0.0444,-0.2221 0.0888,-0.3553c1.9538,0.0888 9.8581,0.5329 10.2134,0.5329c0.6216,0 0.6216,1.6874 0.5772,2.2203c-0.1332,0.0444 -0.2664,0.0888 -0.444,0.1332z" fill="#e6818b"/><path d="M309.55804,138.859c0.1777,-0.0444 0.3553,-0.0888 0.5329,-0.1332c0.0444,0.222 0.0888,0.3996 0.0888,0.6216c-0.1332,0.0444 -0.3108,0.0888 -0.4884,0.1333c-0.0445,-0.2221 -0.0444,-0.4441 -0.1333,-0.6217z" fill="#d1303e"/><path d="M308.40354,138.4149c0.0444,0 0.0444,-0.0444 0.0888,-0.0888c0.0444,-0.0444 0.1776,-0.1332 0.3108,-0.222c0.4885,0.0444 0.7994,0.0444 0.8438,0.0444h0.0444c-0.2665,0.1332 -0.4885,0.222 -0.6217,0.3108c-0.1776,-0.0444 -0.3997,-0.0444 -0.6661,-0.0444z" fill="#d1303e"/><path d="M307.02694,138.3705c-0.3108,0 -0.5773,-0.0444 -0.8881,-0.0444c0.0444,0 0.0444,-0.0444 0.0444,-0.0444c0.0888,-0.0888 0.2664,-0.222 0.444,-0.3108c0.3553,0 0.7106,0.0444 1.0214,0.0444c-0.2664,0.1332 -0.4441,0.222 -0.6217,0.3552z" fill="#d1303e"/><path d="M303.91854,138.1929c0.0444,-0.0444 0.0444,-0.0444 0.0888,-0.0888c0.0888,-0.0444 0.222,-0.1333 0.3552,-0.2221c0.3553,0 0.7105,0.0444 1.0214,0.0444c-0.2221,0.0889 -0.4441,0.2221 -0.5773,0.3109c-0.2664,-0.0444 -0.5773,-0.0444 -0.8881,-0.0444z" fill="#d1303e"/><path d="M302.80834,137.7488c-0.1776,0.1332 -0.3108,0.222 -0.3108,0.2664c0,0.0445 0,0.0445 0,0.0889c-0.222,0 -0.4441,-0.0444 -0.6661,-0.0444c0.0444,-0.1333 0.0888,-0.2665 0.1776,-0.3553c0.2665,0.0444 0.5329,0.0444 0.7993,0.0444z" fill="#d1303e"/><path d="M300.72134,137.7044c-0.0889,0.0444 -0.1777,0.1332 -0.1777,0.1776c-0.0444,0.0444 -0.0444,0.0888 -0.0444,0.1333c-0.2664,0 -0.4884,-0.0445 -0.7105,-0.0445c0.0444,-0.1332 0.0888,-0.2664 0.1332,-0.3552c0.2665,0 0.5329,0 0.7994,0.0888z" fill="#d1303e"/><path d="M311.28994,140.0579c-0.1332,0.0444 -0.3108,0.0888 -0.4885,0.1333c0,-0.4885 -0.0888,-2.2648 -0.444,-2.3536c-1.5542,-0.444 -9.5473,-0.7105 -10.5242,-0.7549c0.2664,-0.1776 0.6216,-0.3552 1.0657,-0.5328c2.7088,0.222 9.2364,0.7993 9.8581,0.9325c0.6217,0.1332 0.5773,1.9094 0.5329,2.5755z" fill="#e6818b"/><path d="M309.46924,137.66c0.1777,-0.0888 0.3997,-0.1776 0.5773,-0.2664c0.3553,0.0444 0.5773,0.0888 0.6661,0.0888c0.0888,0 0.1332,0.0444 0.1776,0.0888c-0.1776,0.0888 -0.3996,0.1776 -0.5772,0.2664c-0.1777,-0.0888 -0.4441,-0.1332 -0.8438,-0.1776z" fill="#d1303e"/><path d="M307.55984,137.4824c0.222,-0.0889 0.3996,-0.1777 0.6217,-0.2665c0.3552,0.0444 0.6661,0.0444 0.9769,0.0888c-0.1776,0.0888 -0.3996,0.1777 -0.5773,0.2665c-0.3108,-0.0444 -0.6661,-0.0444 -1.0213,-0.0888z" fill="#d1303e"/><path d="M305.38394,137.3047c0.222,-0.0888 0.4885,-0.222 0.7105,-0.3108c0.3108,0.0444 0.6661,0.0444 0.9769,0.0888c-0.222,0.1332 -0.444,0.222 -0.6661,0.3108c-0.3552,0 -0.7105,-0.0444 -1.0213,-0.0888z" fill="#d1303e"/><path d="M304.62904,136.8607c-0.2665,0.0888 -0.5329,0.2221 -0.7993,0.3553c-0.3553,0 -0.7105,-0.0444 -1.0658,-0.0444c0.2221,-0.1332 0.5329,-0.2665 0.8437,-0.3997c0.3109,0.0444 0.6661,0.0888 1.0214,0.0888z" fill="#d1303e"/><path d="M300.58804,137.1271c0.2665,-0.1776 0.6217,-0.3552 0.977,-0.5329c0.3108,0.0445 0.6661,0.0444 1.0213,0.0889c-0.3552,0.1332 -0.6661,0.3108 -0.9769,0.444c-0.3997,0 -0.7549,0 -1.0214,0z" fill="#d1303e"/><path d="M310.66824,138.637c0.1776,-0.0445 0.3997,-0.1333 0.5773,-0.1777c0.0444,0.1777 0.0444,0.3997 0.0444,0.5773c-0.1776,0.0444 -0.3553,0.1332 -0.5773,0.1776c0,-0.222 -0.0444,-0.3996 -0.0444,-0.5772z" fill="#d1303e"/><path d="M311.86724,139.8359c0.0888,-2.1759 -0.3997,-2.7088 -0.7994,-2.9308c-0.3552,-0.1777 -6.7941,-0.5329 -9.0144,-0.6661c0.5773,-0.1332 1.2878,-0.2665 2.0427,-0.3109c2.1315,0.1777 5.4175,0.4441 6.9273,0.6661c0.4885,0.2221 0.8438,0.5329 1.0658,0.8882c0.0888,0.7105 0.0444,1.7318 0.0444,2.2203c0,0.0444 -0.1332,0.0888 -0.2664,0.1332z" fill="#e6818b"/><path d="M311.77844,137.1271c-0.1333,0.0888 -0.2221,0.1332 -0.3553,0.1776c-0.0888,-0.1776 -0.222,-0.2664 -0.3552,-0.3552c0.0888,-0.0444 0.222,-0.0888 0.3108,-0.1332c0.0888,0.0444 0.1776,0.0888 0.222,0.1332c0.0444,0.0444 0.0444,0.0444 0.0888,0.0888c0.0445,0.0444 0.0889,0.0888 0.0889,0.0888z" fill="#d1303e"/><path d="M310.00214,136.4611c0.3108,0 0.6217,0.0444 0.8881,0.0888c-0.1332,0.0444 -0.3552,0.1332 -0.5328,0.222c-0.2665,-0.0444 -0.5773,-0.0444 -0.977,-0.0888c0.2221,-0.0888 0.4441,-0.1776 0.6217,-0.222z" fill="#d1303e"/><path d="M307.82624,136.239c0.3108,0.0444 0.6217,0.0445 0.9325,0.1333c-0.1776,0.0888 -0.3996,0.1776 -0.6217,0.2664c-0.3108,-0.0444 -0.6661,-0.0444 -1.0213,-0.0888c0.222,-0.1332 0.4885,-0.222 0.7105,-0.3108z" fill="#d1303e"/><path d="M304.14054,135.9282c0.0888,0 0.1332,0 0.1776,0c-0.2664,0.0888 -0.5328,0.222 -0.8437,0.3552c-0.3996,0 -0.7549,-0.0444 -1.0657,-0.0444c0.0888,-0.0444 0.222,-0.0888 0.3552,-0.1332c-0.0444,0 -0.0444,0 0,0c0.3997,-0.0888 0.8882,-0.1332 1.3766,-0.1776z" fill="#d1303e"/><path d="M306.36084,136.1058c-0.222,0.0888 -0.4884,0.1776 -0.7549,0.3108c-0.3552,0 -0.7105,-0.0444 -1.0657,-0.0444c0.3108,-0.1332 0.5773,-0.2664 0.8437,-0.3552c0.3108,0.0444 0.6217,0.0888 0.9769,0.0888z" fill="#d1303e"/><path d="M311.82284,138.2817c0.1332,-0.0444 0.2664,-0.0888 0.3552,-0.1332c0,0.1776 0,0.3552 0,0.5329c-0.1332,0.0444 -0.222,0.0888 -0.3552,0.1332c0,-0.2221 -0.0445,-0.3997 0,-0.5329z" fill="#d1303e"/><path d="M309.15844,141.1681c-0.8881,-0.222 -1.5986,0.222 -2.4867,0.4441c-0.8437,0.222 -0.6661,-0.1776 -1.8207,-0.2221c-1.1545,0 -1.4654,0.5773 -2.6199,0.5329c-1.1546,-0.0444 -1.5098,-1.1101 -2.398,-0.9769c-0.6661,0.0888 -1.1545,-0.4885 -1.421,-0.977c0.1777,-0.0888 0.3553,-0.1776 0.5329,-0.2664c0.3553,0.4885 0.7549,0.6661 1.2434,0.6217c0.6661,0 1.7762,0.7993 2.1759,1.1101c0.3996,0.3109 1.7762,-0.6217 2.842,-0.3996c1.0657,0.222 1.5542,0.1776 2.3091,-0.1776c0.7105,-0.3553 2.6199,-0.2221 3.5968,-0.1777c0.6661,0.0444 1.2878,-0.5328 1.5543,-0.8881c0.222,0.1332 0.3996,0.2665 0.5772,0.3553c-1.1101,1.1101 -3.2416,1.2433 -4.0853,1.0213z" fill="#e6818b"/><path d="M305.51714,141.5233c-0.1332,-0.0444 -0.3553,-0.0888 -0.6661,-0.0888l0.1332,-0.4441c0.0888,0 0.1333,0.0444 0.2221,0.0444c0.1776,0.0444 0.3108,0.0888 0.444,0.0888z" fill="#d1303e"/><path d="M303.16364,141.3457c0.222,-0.0444 0.4885,-0.1332 0.7549,-0.222l-0.1776,0.4885c-0.2221,0.0888 -0.4885,0.1776 -0.7549,0.2664z" fill="#d1303e"/><path d="M301.12094,141.5677l0.4441,-0.6661c0.1776,0.1332 0.3552,0.222 0.5328,0.3553l-0.3552,0.6216c-0.2221,-0.0888 -0.4441,-0.222 -0.6217,-0.3108z" fill="#d1303e"/><path d="M300.76574,140.502l-0.5329,0.5329c-0.1332,-0.0445 -0.2664,-0.0445 -0.3997,-0.0445c-0.0888,0.0445 -0.222,0 -0.3108,0l0.7105,-0.6216c0.1332,-0.0444 0.3552,0.0444 0.5329,0.1332z" fill="#d1303e"/><path d="M298.41214,140.0135c0,-0.0444 0.0445,-0.0444 0.0445,-0.0444c0.0888,-0.0444 0.1332,-0.0888 0.1776,-0.0888c0.0444,-0.0444 0.0444,-0.0444 0.0888,-0.0444c0.0444,-0.0444 0.1332,-0.0888 0.1776,-0.1332c0.0444,0 0.0444,0 0.0444,0c0.0888,0.1776 0.222,0.2664 0.3553,0.3552l-0.5329,0.4441c-0.1332,-0.1332 -0.2665,-0.3553 -0.3553,-0.4885z" fill="#d1303e"/><path d="M312.88854,140.502c-0.1776,0.0888 -0.3108,0.1776 -0.4885,0.2664l-0.3996,-0.3108c0.1332,-0.0888 0.2664,-0.1777 0.3552,-0.2665z" fill="#d1303e"/><path d="M310.17974,140.6353c0.1776,0 0.3997,0.0444 0.5773,0.0444l0.2664,0.4884c-0.1776,0.0444 -0.3996,0.0888 -0.5772,0.0888z" fill="#d1303e"/><path d="M309.33604,140.6353l0.0888,0.6216c-0.0888,0 -0.1776,-0.0444 -0.2664,-0.0444c-0.0888,-0.0444 -0.1332,-0.0444 -0.222,-0.0444l-0.0444,-0.5328c0.1776,0 0.3108,0 0.444,0z" fill="#d1303e"/><path d="M306.84934,141.1237c0.1776,-0.0444 0.3552,-0.1332 0.5773,-0.222l0.0444,0.5329c-0.2221,0.0888 -0.4441,0.1776 -0.6661,0.222z" fill="#d1303e"/><path d="M299.52234,139.2586c0,0 2.3091,1.5542 6.3501,1.421c4.0409,-0.1332 6.3944,-1.3766 6.3944,-1.3766c0,0 0.0888,0.0444 0.0888,0.3109c0,0 -3.9521,1.643 -7.1493,1.3765c-4.6627,-0.3996 -5.8172,-1.5098 -5.8172,-1.5098z" fill="#c6aa8b"/></g></g><path d="M414.00004,172.0001c0,9.1127 -22.6096,16.5 -50.5,16.5c-27.8904,0 -50.5,-7.3873 -50.5,-16.5c0,-9.1127 22.6096,-16.5 50.5,-16.5c27.8904,0 50.5,7.3873 50.5,16.5z" fill="#cdf9ff" stroke="#6c6c6c" stroke-width="3" stroke-linecap="butt"/><path d="M146.45674,301.85092c0,8.45793 -16.63758,15.31445 -37.16107,15.31445c-20.5235,0 -37.16107,-6.85652 -37.16107,-15.31445c0,-8.45793 16.63758,-15.31445 37.16107,-15.31445c20.5235,0 37.16107,6.85652 37.16107,15.31445z" fill="#ffccfe" stroke="none" stroke-width="0" stroke-linecap="butt"/><path d="M389.95676,301.35087c0,8.45793 -16.63757,15.31445 -37.16107,15.31445c-20.5235,0 -37.16107,-6.85652 -37.16107,-15.31445c0,-8.45793 16.63758,-15.31444 37.16107,-15.31444c20.5235,0 37.16107,6.85652 37.16107,15.31444z" fill="#ffccfe" stroke="none" stroke-width="0" stroke-linecap="butt"/><path d="M41.03526,362.91825v-43h17.5v43z" fill="url(#color-1)" stroke="none" stroke-width="0" stroke-linecap="butt"/><path d="M11.03526,363.41825v-43h17.5v43z" data-paper-data="{&quot;index&quot;:null}" fill="url(#color-2)" stroke="none" stroke-width="0" stroke-linecap="butt"/><path d="M425.28529,363.0611v-43h17.5v43z" data-paper-data="{&quot;index&quot;:null}" fill="url(#color-3)" stroke="none" stroke-width="0" stroke-linecap="butt"/><path d="M454.89242,362.91825v-43h17.5v43z" data-paper-data="{&quot;index&quot;:null}" fill="url(#color-4)" stroke="none" stroke-width="0" stroke-linecap="butt"/><path d="M69.11078,303.69174c0,7.28055 -14.32155,13.18261 -31.98809,13.18261c-17.66654,0 -31.98809,-5.90206 -31.98809,-13.18261c0,-7.28055 14.32155,-13.18261 31.98809,-13.18261c17.66654,0 31.98809,5.90206 31.98809,13.18261z" fill="#ceffcc" stroke="none" stroke-width="0" stroke-linecap="butt"/><path d="M170.00004,173.0001c0,9.1127 -22.6096,16.5 -50.5,16.5c-27.8904,0 -50.5,-7.3873 -50.5,-16.5c0,-9.1127 22.6096,-16.5 50.5,-16.5c27.8904,0 50.5,7.3873 50.5,16.5z" fill="#cdf9ff" stroke="#6c6c6c" stroke-width="3" stroke-linecap="butt"/><path d="M477.94965,301.60087c0,9.42443 -18.53877,17.06445 -41.40751,17.06445c-22.86874,0 -41.40751,-7.64002 -41.40751,-17.06445c0,-9.42443 18.53877,-17.06444 41.40751,-17.06444c22.86874,0 41.40751,7.64002 41.40751,17.06444z" fill="#fff9cc" stroke="none" stroke-width="0" stroke-linecap="butt"/><path d="M-0.11822,360.33717v-40.33063h105.8679v40.33063z" fill="#585858" stroke="none" stroke-width="0" stroke-linecap="butt"/><g stroke="none" stroke-linecap="butt"><path d="M5.56798,339.45851c-0.27645,-8.54265 6.42449,-15.69198 14.96714,-15.96844c8.54265,-0.27645 15.69201,6.42449 15.96854,14.96717c0.27645,8.54265 -6.42449,15.69193 -14.96719,15.96841c-8.54265,0.27645 -15.69196,-6.42447 -15.96846,-14.96712z" fill="#bbb54b" stroke-width="NaN"/><path d="M8.46191,339.57131c-0.2802,-8.65658 6.51016,-15.9012 15.16674,-16.18137c8.65658,-0.2802 15.90122,6.51016 16.18135,15.16674c0.2802,8.65658 -6.51019,15.9012 -15.16669,16.18135c-8.65658,0.2802 -15.9012,-6.51019 -16.18137,-15.16677z" fill="#fff866" stroke-width="NaN"/><text transform="translate(15.75438,348.00634) rotate(-1.85503) scale(0.61908,0.61908)" font-size="40" xml:space="preserve" fill="#bbb54b" fill-rule="nonzero" stroke="none" stroke-width="1" stroke-linecap="butt" stroke-linejoin="miter" stroke-miterlimit="10" stroke-dasharray="" stroke-dashoffset="0" font-family="Sans Serif" font-weight="normal" text-anchor="start" style="mix-blend-mode: normal"><tspan x="0" dy="0">C</tspan></text></g><g stroke="none" stroke-linecap="butt"><path d="M370.018,361.01605v-40.33063h113.06979v40.33063z" fill="#585858" stroke-width="0"/><g><path d="M375.70421,340.13737c-0.27645,-8.54264 6.42449,-15.69198 14.96714,-15.96844c8.54264,-0.27645 15.69201,6.4245 15.96854,14.96717c0.27646,8.54264 -6.42449,15.69194 -14.96719,15.96841c-8.54264,0.27645 -15.69196,-6.42447 -15.96846,-14.96712z" fill="#bbb54b" stroke-width="NaN"/><path d="M378.59816,340.25019c-0.2802,-8.65658 6.51017,-15.9012 15.16674,-16.18138c8.65658,-0.2802 15.90122,6.51016 16.18135,15.16674c0.2802,8.65658 -6.51019,15.9012 -15.16669,16.18135c-8.65658,0.2802 -15.9012,-6.51018 -16.18138,-15.16676z" fill="#fff866" stroke-width="NaN"/><text transform="translate(385.89059,348.68523) rotate(-1.85459) scale(0.61907,0.61907)" font-size="40" xml:space="preserve" fill="#bbb54b" fill-rule="nonzero" stroke="none" stroke-width="1" stroke-linecap="butt" stroke-linejoin="miter" stroke-miterlimit="10" stroke-dasharray="" stroke-dashoffset="0" font-family="Sans Serif" font-weight="normal" text-anchor="start" style="mix-blend-mode: normal"><tspan x="0" dy="0">C</tspan></text></g></g><g stroke="none" stroke-width="0" stroke-linecap="butt"><path d="M176.61477,68.74782v-33.90683l29.46274,16.95341z" fill="url(#color-5)"/><path d="M34.51849,52.47092l29.46273,-16.95341v33.90683z" data-paper-data="{&quot;index&quot;:null}" fill="url(#color-6)"/></g><g stroke-width="1" stroke-linecap="butt"><path d="M47.90414,59.6016v-12.1438h13.9438v12.1438z" fill="#cecece" stroke="#9a9a9a"/><path d="M49.55854,55.1281v-10.576h10.576v10.576z" fill="#d8d8d8" stroke="#9a9a9a"/><text transform="translate(50.32306,53.88362) scale(0.31081,0.31081)" font-size="40" xml:space="preserve" fill="#000000" fill-rule="nonzero" stroke="#000000" stroke-width="1" stroke-linecap="butt" stroke-linejoin="miter" stroke-miterlimit="10" stroke-dasharray="" stroke-dashoffset="0" font-family="Serif" font-weight="normal" text-anchor="start" style="mix-blend-mode: normal"><tspan x="0" dy="0">A</tspan></text><path d="M47.90414,59.6016c-0.0854,-0.1547 0.0591,-12.3802 0.0591,-12.3802c0,0 1.5543,-2.9668 1.5362,-2.8951c-0.017,0.0674 0.1182,10.6351 0.1182,10.6351c0,0 -1.6083,4.8305 -1.7135,4.6402z" fill="#c0c0c0" stroke="#9a9a9a"/><path d="M60.22574,55.0205c0,0 0.1351,-10.5677 0.1181,-10.6351c-0.018,-0.0717 1.5362,2.8951 1.5362,2.8951c0,0 0.1445,12.2255 0.0591,12.3802c-0.1051,0.1903 -1.7134,-4.6402 -1.7134,-4.6402z" data-paper-data="{&quot;index&quot;:null}" fill="#c0c0c0" stroke="#9a9a9a"/></g><g stroke-width="1" stroke-linecap="butt"><path d="M179.57084,58.7682v-12.1438h13.9438v12.1439z" fill="#cecece" stroke="#9a9a9a"/><path d="M181.22524,54.1281v-10.576h10.576v10.576z" fill="#d8d8d8" stroke="#9a9a9a"/><text transform="translate(181.98974,52.88362) scale(0.31081,0.31081)" font-size="40" xml:space="preserve" fill="#000000" fill-rule="nonzero" stroke="#000000" stroke-width="1" stroke-linecap="butt" stroke-linejoin="miter" stroke-miterlimit="10" stroke-dasharray="" stroke-dashoffset="0" font-family="Serif" font-weight="normal" text-anchor="start" style="mix-blend-mode: normal"><tspan x="0" dy="0">D</tspan></text><path d="M179.57084,58.7682c-0.0854,-0.1546 0.0591,-12.3801 0.0591,-12.3801c0,0 1.5542,-2.9668 1.5362,-2.8951c-0.017,0.0674 0.1182,10.6351 0.1182,10.6351c0,0 -1.6083,4.8304 -1.7135,4.6401z" fill="#c0c0c0" stroke="#9a9a9a"/><path d="M191.89244,54.1872c0,0 0.1351,-10.5677 0.1181,-10.6351c-0.018,-0.0717 1.5362,2.8951 1.5362,2.8951c0,0 0.1445,12.2255 0.0591,12.3801c-0.1051,0.1903 -1.7134,-4.6401 -1.7134,-4.6401z" data-paper-data="{&quot;index&quot;:null}" fill="#c0c0c0" stroke="#9a9a9a"/></g><g stroke="none" stroke-width="0" stroke-linecap="butt"><path d="M418.86478,68.49782v-33.90683l29.46274,16.95342z" fill="url(#color-7)"/><path d="M276.76849,52.22092l29.46273,-16.95341v33.90683z" data-paper-data="{&quot;index&quot;:null}" fill="url(#color-8)"/></g><g stroke-width="1" stroke-linecap="butt"><path d="M289.57084,59.7682v-12.1438h13.9438v12.1439z" fill="#cecece" stroke="#9a9a9a"/><path d="M291.22524,55.1281v-10.576h10.576v10.576z" fill="#d8d8d8" stroke="#9a9a9a"/><text transform="translate(292.65639,53.88362) scale(0.31081,0.31081)" font-size="40" xml:space="preserve" fill="#000000" fill-rule="nonzero" stroke="#000000" stroke-width="1" stroke-linecap="butt" stroke-linejoin="miter" stroke-miterlimit="10" stroke-dasharray="" stroke-dashoffset="0" font-family="Serif" font-weight="normal" text-anchor="start" style="mix-blend-mode: normal"><tspan x="0" dy="0">&lt;</tspan></text><path d="M289.57084,59.7682c-0.0854,-0.1546 0.0591,-12.3801 0.0591,-12.3801c0,0 1.5542,-2.9668 1.5362,-2.8951c-0.017,0.0674 0.1182,10.6351 0.1182,10.6351c0,0 -1.6084,4.8304 -1.7135,4.6401z" fill="#c0c0c0" stroke="#9a9a9a"/><path d="M301.89244,55.1872c0,0 0.1351,-10.5677 0.1181,-10.6351c-0.018,-0.0717 1.5362,2.8951 1.5362,2.8951c0,0 0.1445,12.2255 0.0591,12.3801c-0.1051,0.1903 -1.7134,-4.6401 -1.7134,-4.6401z" data-paper-data="{&quot;index&quot;:null}" fill="#c0c0c0" stroke="#9a9a9a"/></g><g stroke-width="1" stroke-linecap="butt"><path d="M421.90424,59.4349v-12.1438h13.9438v12.1438z" fill="#cecece" stroke="#9a9a9a"/><path d="M423.55854,54.7948v-10.5761h10.5761v10.5761z" fill="#d8d8d8" stroke="#9a9a9a"/><text transform="translate(425.32307,53.5503) scale(0.31081,0.31081)" font-size="40" xml:space="preserve" fill="#000000" fill-rule="nonzero" stroke="#000000" stroke-width="1" stroke-linecap="butt" stroke-linejoin="miter" stroke-miterlimit="10" stroke-dasharray="" stroke-dashoffset="0" font-family="Serif" font-weight="normal" text-anchor="start" style="mix-blend-mode: normal"><tspan x="0" dy="0">&gt;</tspan></text><path d="M421.90424,59.4349c-0.0854,-0.1547 0.0591,-12.3802 0.0591,-12.3802c0,0 1.5542,-2.9668 1.5361,-2.8951c-0.0169,0.0674 0.1182,10.6351 0.1182,10.6351c0,0 -1.6083,4.8305 -1.7134,4.6402z" fill="#c0c0c0" stroke="#9a9a9a"/><path d="M434.22574,54.8538c0,0 0.1351,-10.5677 0.1182,-10.6351c-0.0181,-0.0717 1.5361,2.8951 1.5361,2.8951c0,0 0.1445,12.2255 0.0591,12.3802c-0.1051,0.1903 -1.7134,-4.6401 -1.7134,-4.6401z" data-paper-data="{&quot;index&quot;:null}" fill="#c0c0c0" stroke="#9a9a9a"/></g><path d="M69.83208,171.68191l-17.79512,-131c0,0 48.39826,-17 68.5,-17c21.76577,0 70.5,15.5 70.5,15.5l-21.94084,133.09753c0,0 -0.28506,1.06197 -0.29811,1.31617c-0.35451,6.90301 -18.22866,14.40351 -50.3757,14.89645c-30.05377,0.46084 -48.0371,-8.46079 -48.3804,-15.3459c-0.01402,-0.28114 -0.20983,-1.46425 -0.20983,-1.46425z" fill="url(#color-9)" stroke="none" stroke-width="0" stroke-linecap="butt"/><path d="M313.83207,170.43191l-17.79512,-131c0,0 48.39826,-17 68.5,-17c21.76577,0 70.5,15.5 70.5,15.5l-21.94085,133.09752c0,0 -0.28505,1.06197 -0.29811,1.31617c-0.35451,6.90302 -18.22866,14.40351 -50.3757,14.89645c-30.05377,0.46085 -48.0371,-8.46078 -48.3804,-15.3459c-0.01402,-0.28115 -0.20982,-1.46425 -0.20982,-1.46425z" fill="url(#color-10)" stroke="none" stroke-width="0" stroke-linecap="butt"/><g data-paper-data="{&quot;origPos&quot;:null}" stroke="none" stroke-width="1" stroke-linecap="butt"><path d="M333.51074,195.5082c-2.5996,2.1835 -18.0299,0.9679 -21.2614,-1.9766c-3.2315,-2.9445 -1.4881,-12.051 0.4303,-15.8791c1.9184,-3.8281 12.8282,-1.6741 17.5484,-1.2634c4.7201,0.4106 6.1621,3.5165 6.3644,7.0218c0.2625,5.7299 -1.0239,10.3105 -3.0817,12.0973z" fill="#cfebe2"/><g><path d="M331.12744,194.301c-1.9401,1.1629 -14.8338,0.6752 -17.5181,-1.2705c-2.6843,-1.9456 -1.4163,-7.3662 1.885,-9.9386c3.3014,-2.5724 6.6082,-3.0788 13.1056,-1.7419c2.4882,0.512 5.1041,2.2725 6.9385,6.0329c1.538,3.1527 9.6961,6.4393 10.7365,7.5343c1.1129,1.1713 4.3167,4.4175 4.7748,6.7116c0.284,1.4218 -1.0799,17.0267 -1.3448,17.5071c-0.4685,0.8494 -0.3009,-14.2281 -1.5044,-14.709c-0.2712,-0.1083 -0.9876,4.6121 -1.2761,4.3528c-0.7026,-0.6312 0.1526,-3.2489 -1.2856,-6.0346c-0.8355,-1.6181 -3.5222,-4.753 -5.5787,-5.5075c-0.9943,-0.3647 -2.3457,-0.8487 -3.6966,-1.3186c-0.505,-0.1757 -3.3973,-0.6944 -5.1565,2.1373c-1.2815,2.0629 -2.0809,5.3456 -2.9773,6.6301c-0.3034,0.4346 -0.9417,8.1955 -1.2655,8.1158c-0.3206,-0.079 -0.3276,-7.9963 -0.4283,-8.0287c-0.6911,-0.2223 1.3953,-3.7211 2.6665,-7.6776c0.8513,-2.6495 1.9637,-2.8161 1.925,-2.7949z" fill="#ad2744"/><path d="M346.36114,196.6415c0.3475,0.0303 0.6048,0.3366 0.5746,0.6842c-0.0303,0.3475 -0.3366,0.6048 -0.6842,0.5746c-0.3476,-0.0303 -0.6048,-0.3366 -0.5746,-0.6842c0.0303,-0.3475 0.3366,-0.6048 0.6842,-0.5746z" fill="#cf2f51"/><path d="M326.60444,191.8002c0.3476,0.0302 0.6048,0.3365 0.5746,0.6841c-0.0302,0.3476 -0.3365,0.6049 -0.6841,0.5746c-0.3476,-0.0302 -0.6049,-0.3365 -0.5746,-0.6841c0.0302,-0.3476 0.3365,-0.6049 0.6841,-0.5746z" fill="#cf2f51"/><path d="M317.09834,191.734c0.3476,0.0303 0.6048,0.3366 0.5746,0.6842c-0.0302,0.3476 -0.3365,0.6048 -0.6841,0.5746c-0.3476,-0.0303 -0.6049,-0.3366 -0.5746,-0.6841c0.0302,-0.3476 0.3365,-0.6049 0.6841,-0.5746z" fill="#cf2f51"/><path d="M326.39444,181.9592c0.3475,0.0303 0.6048,0.3365 0.5746,0.6841c-0.0303,0.3476 -0.3366,0.6049 -0.6842,0.5746c-0.3476,-0.0302 -0.6048,-0.3365 -0.5746,-0.6841c0.0303,-0.3476 0.3366,-0.6048 0.6842,-0.5746z" fill="#cf2f51"/><path d="M340.14694,192.6516c0.3476,0.0303 0.6049,0.3366 0.5746,0.6842c-0.0302,0.3476 -0.3365,0.6048 -0.6841,0.5746c-0.3476,-0.0303 -0.6048,-0.3366 -0.5746,-0.6841c0.0303,-0.3476 0.3365,-0.6049 0.6841,-0.5747z" fill="#cf2f51"/><path d="M317.34634,188.3486c0.3476,0.0303 0.6049,0.3366 0.5746,0.6842c-0.0302,0.3476 -0.3365,0.6048 -0.6841,0.5746c-0.3476,-0.0303 -0.6048,-0.3366 -0.5746,-0.6841c0.0303,-0.3476 0.3365,-0.6049 0.6841,-0.5747z" fill="#cf2f51"/><path d="M336.21744,188.8575c0.3476,0.0302 0.6049,0.3365 0.5746,0.6841c-0.0302,0.3476 -0.3365,0.6049 -0.6841,0.5746c-0.3476,-0.0302 -0.6049,-0.3365 -0.5746,-0.6841c0.0302,-0.3476 0.3365,-0.6048 0.6841,-0.5746z" fill="#cf2f51"/><path d="M328.96604,187.2497c0.3476,0.0302 0.6049,0.3365 0.5746,0.6841c-0.0302,0.3476 -0.3365,0.6049 -0.6841,0.5746c-0.3476,-0.0302 -0.6048,-0.3365 -0.5746,-0.6841c0.0303,-0.3476 0.3366,-0.6048 0.6841,-0.5746z" fill="#cf2f51"/><path d="M349.89044,205.6361c0.3475,0.0302 0.6048,0.3365 0.5746,0.6841c-0.0303,0.3476 -0.3366,0.6048 -0.6842,0.5746c-0.3475,-0.0302 -0.6048,-0.3366 -0.5746,-0.6841c0.0303,-0.3476 0.3366,-0.6049 0.6842,-0.5746z" fill="#cf2f51"/><path d="M332.98404,188.9374c0.3476,0.0302 0.6049,0.3365 0.5746,0.6841c-0.0302,0.3476 -0.3365,0.6048 -0.6841,0.5746c-0.3476,-0.0302 -0.6048,-0.3365 -0.5746,-0.6841c0.0302,-0.3476 0.3365,-0.6049 0.6841,-0.5746z" fill="#cf2f51"/><path d="M328.84724,200.2485c0.3476,0.0303 0.6048,0.3366 0.5746,0.6842c-0.0303,0.3475 -0.3366,0.6048 -0.6841,0.5746c-0.3476,-0.0303 -0.6049,-0.3366 -0.5746,-0.6842c0.0302,-0.3476 0.3365,-0.6048 0.6841,-0.5746z" fill="#cf2f51"/><path d="M330.03874,184.3328c0.3476,0.0302 0.6049,0.3365 0.5746,0.6841c-0.0302,0.3476 -0.3365,0.6049 -0.6841,0.5746c-0.3476,-0.0302 -0.6048,-0.3365 -0.5746,-0.6841c0.0303,-0.3476 0.3365,-0.6049 0.6841,-0.5746z" fill="#cf2f51"/><path d="M333.22574,186.5171c0.3475,0.0303 0.6048,0.3366 0.5746,0.6842c-0.0303,0.3476 -0.3366,0.6048 -0.6842,0.5746c-0.3476,-0.0303 -0.6048,-0.3366 -0.5746,-0.6841c0.0303,-0.3476 0.3366,-0.6049 0.6842,-0.5747z" fill="#cf2f51"/></g><path d="M319.16724,185.446c0.3313,-4.5369 1.6504,-8.0367 2.5808,-9.9849c2.0194,0.1123 3.965,0.3449 5.7217,0.5612c-1.0809,1.4913 -2.6791,5.2838 -2.7232,11.6212c-0.033,4.7531 0.1885,7.3088 0.681,8.937c-2.0195,-0.1123 -4.2222,-0.3039 -6.2197,-0.668c-0.2189,-1.858 -0.4376,-5.1744 -0.0406,-10.4665z" fill="#f0e0da"/><g><g><path d="M318.16304,186.0562l-0.0575,-0.0684c-0.2654,-0.5938 -0.4049,-1.1767 -0.2298,-1.7321c0.4516,-1.5461 6.2801,-2.9414 7.0955,-0.651c0.197,0.6513 0.1942,1.412 0.071,2.0988c0.9359,-0.5527 1.7759,-0.7333 1.7267,-0.1668c-0.0657,0.7552 -1.8034,1.0479 -1.8034,1.0479c0,0 1.7677,0.0904 1.6746,1.1603c-0.0821,0.9441 -1.3271,-0.052 -1.6773,-0.3996c0.2873,0.3421 1.4009,1.3902 0.8372,2.0387c-0.364,0.539 -1.0042,-0.8484 -1.3571,-1.8937c-0.6705,1.1466 -1.5024,1.9619 -2.3206,1.8908c-1.1328,-0.0986 -3.1577,-1.6064 -3.9593,-3.3249z" fill="#e5e4e1"/><path d="M317.13964,184.6989c0.0164,-0.1889 0.0329,-0.3777 0.1122,-0.561c0.4352,-1.3572 3.3029,-2.2491 5.1445,-2.2792c1.6473,0.0165 2.8047,0.5611 3.1577,1.6064c0.1559,0.3941 0.186,0.7772 0.2106,1.2232c0.457,-0.1505 0.903,-0.1751 1.2013,0.0411c0.3037,0.1532 0.4651,0.4843 0.4323,0.862c-0.0383,0.4405 -0.3175,0.7333 -0.6595,1.0206c0.0574,0.0684 0.1149,0.1368 0.1778,0.1423c0.2928,0.2791 0.3858,0.6677 0.3475,1.1083c-0.0493,0.5664 -0.3859,0.7907 -0.5856,0.9002c0,0 -0.063,-0.0055 -0.0684,0.0574c0.03,0.3831 -0.0657,0.7553 -0.2819,1.0535c-0.2107,0.2354 -0.5364,0.3339 -0.8511,0.3065c-0.3721,-0.0958 -0.7333,-0.3175 -1.1546,-1.3053c-0.7061,0.8263 -1.4422,1.2696 -2.1974,1.2039c-1.4475,-0.126 -3.6447,-1.839 -4.5094,-3.563l-0.0519,-0.1313c-0.3284,-0.5993 -0.4679,-1.1822 -0.4241,-1.6856zM324.51964,185.1507c0.0383,-0.4405 0.0137,-0.8865 -0.1477,-1.2177c-0.2545,-0.7196 -1.4557,-0.7607 -1.9592,-0.8046c-1.9045,0.0246 -3.8228,0.9357 -3.987,1.3653c-0.0958,0.3721 -0.0657,0.7552 0.2052,1.2861l0.0575,0.0684c0.7606,1.4613 2.676,2.7693 3.4942,2.8405c0.3776,0.0329 1.1192,-0.4733 1.6583,-1.5678c0.0794,-0.1834 0.2791,-0.2928 0.4734,-0.3393c-0.0575,-0.0684 -0.052,-0.1314 -0.0465,-0.1943c0.0164,-0.1888 0.0958,-0.3722 0.2381,-0.55c-0.1149,-0.1368 -0.1615,-0.3311 -0.0821,-0.5145c0.0684,-0.0574 0.0794,-0.1833 0.0958,-0.3721z" fill="#f0e0da"/></g><g><path d="M324.08444,186.5079c1.1056,-1.0452 2.7447,-1.6636 2.679,-0.9083c-0.0657,0.7552 -1.8033,1.0479 -1.8033,1.0479c0,0 1.7676,0.0904 1.6746,1.1603c-0.0931,1.0699 -1.7978,-0.4735 -1.7978,-0.4735c0,0 1.5952,1.3437 0.9576,2.1126c-0.6376,0.7688 -1.7101,-2.939 -1.7101,-2.939z" fill="#88b540"/><path d="M317.87024,184.3185c0.5091,-1.4776 6.3431,-2.9358 7.0955,-0.6509c0.7524,2.2849 -1.27,5.8503 -2.8434,5.7134c-1.5734,-0.1369 -4.9362,-3.0294 -4.2521,-5.0625z" fill="#dd223d"/><path d="M321.88444,185.5556c0.2271,-0.4242 0.9495,0.0192 0.8482,0.4543c-0.1587,0.3666 -0.996,-0.2135 -0.8482,-0.4543z" fill="#ddbf6b"/><path d="M320.20704,186.6145c0.2271,-0.4241 0.9495,0.0192 0.8482,0.4543c-0.1587,0.3666 -0.996,-0.2135 -0.8482,-0.4543z" fill="#ddbf6b"/><path d="M322.75454,187.2166c0.2271,-0.4242 0.9495,0.0192 0.8482,0.4542c-0.1587,0.3667 -0.9905,-0.2764 -0.8482,-0.4542z" fill="#ddbf6b"/><path d="M319.22194,184.8166c0.2272,-0.4241 0.9496,0.0192 0.8483,0.4543c-0.1587,0.3667 -0.996,-0.2135 -0.8483,-0.4543z" fill="#ddbf6b"/><path d="M318.25604,186.4447c-0.1669,-0.2682 -0.2134,-0.4624 -0.3229,-0.6622c0.3257,-0.0985 0.8018,0.26 0.7115,0.5692c-0.011,0.1259 -0.2053,0.1724 -0.3886,0.093z" fill="#ddbf6b"/><path d="M321.28784,188.0402c0.2272,-0.4242 0.9495,0.0192 0.8483,0.4542c-0.1533,0.3038 -0.9906,-0.2764 -0.8483,-0.4542z" fill="#ddbf6b"/><path d="M320.95144,183.8891c0.2271,-0.4241 0.9495,0.0192 0.8483,0.4543c-0.1013,0.4351 -0.9906,-0.2764 -0.8483,-0.4543z" fill="#ddbf6b"/><path d="M323.43604,184.4857c0.2271,-0.4241 0.9495,0.0192 0.8482,0.4543c-0.1587,0.3667 -0.9905,-0.2764 -0.8482,-0.4543z" fill="#ddbf6b"/><path d="M318.77054,183.4457c0.1368,-0.1149 0.3311,-0.1614 0.5308,-0.2709c0.115,0.1368 0.104,0.2627 0.0931,0.3886c-0.0849,0.2463 -0.3886,0.093 -0.6239,-0.1177z" fill="#ddbf6b"/><path d="M322.23484,182.9862c0.2271,-0.4242 0.9495,0.0192 0.8482,0.4542c-0.0958,0.3722 -0.9331,-0.208 -0.8482,-0.4542z" fill="#ddbf6b"/></g></g></g><g data-paper-data="{&quot;index&quot;:null}" stroke="none" stroke-width="1" stroke-linecap="butt"><path d="M345.79944,203.0619c0,0 -4.5361,-4.3641 -14.3825,-9.0595c0,0 -1.1462,-2.0459 -1.3934,-2.5882c0,0 1.6762,-1.618 2.7317,-0.4654c1.0902,1.1 1.6868,1.3431 3.1394,0.8649c1.4525,-0.4783 2.5501,2.6716 3.9363,3.2098c1.3861,0.5382 1.8935,0.3436 2.3693,1.1129c0.5107,0.7165 1.4429,1.7119 2.4432,2.1463c0.9476,0.3996 2.3159,0.8503 3.0738,2.1091c0.8106,1.2937 1.4129,3.1312 1.4129,3.1312c0,0 -2.8557,0.0804 -3.3307,-0.4611z" fill="#e5e4e1"/><path d="M331.29374,193.8451c-0.2294,-0.4547 -1.0408,-1.9762 -1.2702,-2.4309c0,0 0.3842,-0.3518 0.8737,-0.6339l0.9753,3.2205z" fill="#e6818b"/><path d="M333.15244,194.2414l-1.0822,-3.7456c0.2804,0.034 0.4912,0.1734 0.7198,0.4004c0.0705,0.1224 0.2286,0.2269 0.334,0.2966l0.7125,3.274z" fill="#e6818b"/><path d="M334.76714,195.0066l-0.0106,-2.9611c0.3153,-0.0186 0.6307,-0.0373 1.0505,-0.214l-0.2147,3.6452z" fill="#e6818b"/><path d="M337.56204,192.6137c0.2812,0.2618 0.475,0.5414 0.7214,0.8559l-0.6573,2.3678l-0.9298,-0.3121z" fill="#e6818b"/><path d="M339.40934,194.7447c0.1581,0.1045 0.2635,0.1742 0.4564,0.2261c0.1929,0.0519 0.2983,0.1216 0.4386,0.1386l-0.6939,1.9649l-0.8949,-0.3648z" fill="#e6818b"/><path d="M342.07704,195.9791c0.0527,0.0349 0.0706,0.1224 0.1233,0.1573c0.141,0.2448 0.3169,0.4369 0.5455,0.6638l-1.3253,1.7744l-0.6849,-0.4531z" fill="#e6818b"/><path d="M344.62554,198.1952c0.2108,0.1394 0.351,0.1564 0.5091,0.261l-1.8327,1.9689l-0.3696,-0.4717l1.3949,-1.8798c0.1054,0.0697 0.1581,0.1046 0.2984,0.1216z" fill="#e6818b"/><path d="M347.43514,199.9022l-2.9375,1.6926l-0.4223,-0.5067l2.6392,-1.8141c0.2108,0.1394 0.4393,0.3664 0.7206,0.6282z" fill="#e6818b"/><path d="M348.89994,202.8405l-3.2772,-0.1985l-0.5795,-0.3834l3.5033,-0.2579c0.1589,0.3324 0.2999,0.5772 0.3534,0.8398z" fill="#e6818b"/><path d="M346.46574,203.1997c-1.1582,4.3845 -5.105,3.1371 -9.4603,0.3318c-4.3554,-2.8053 -7.3449,-5.8433 -7.3685,-7.5253c-0.0235,-1.682 1.9884,-2.5477 1.9884,-2.5477c9.573,1.7879 14.8404,9.7412 14.8404,9.7412z" fill="#d3d2cf"/><path d="M338.74644,200.4415c3.3033,2.5638 4.9212,4.24 5.6962,5.3586c-1.8019,0.7774 -4.5045,-0.4043 -7.4372,-2.2686c-4.3554,-2.8053 -7.2922,-5.8085 -7.3684,-7.5253c0.0348,-0.0527 -0.0179,-0.0875 0.017,-0.1402c1.3845,0.0826 4.2078,0.7383 9.0924,4.5755z" fill="#e5e4e1"/><path d="M334.19504,201.5967c-0.6152,-0.5585 -1.2653,-1.0643 -1.7752,-1.5531c-0.8455,-1.2409 -1.9382,-3.0242 -2.0809,-3.7246c-0.1954,-0.7352 0.7635,-2.0702 1.339,-2.8257c0.3332,0.0689 0.719,0.1726 1.0522,0.2415c-0.4709,0.5974 -1.3253,1.7744 -1.5328,2.5461c-0.1386,0.4386 1.9407,3.7076 2.9977,5.3158z" fill="#e6818b"/><path d="M337.26884,203.7057c-0.1053,-0.0697 -0.1581,-0.1045 -0.2634,-0.1743c-0.3688,-0.2439 -0.7377,-0.4879 -1.1065,-0.7319c-0.9508,-1.3107 -2.9061,-4.1947 -3.0844,-5.0701c-0.1784,-0.8754 1.2174,-2.5275 2.0029,-3.3713c0.2983,0.1216 0.6841,0.2253 0.9824,0.3469c-0.6282,0.7206 -1.8667,2.2494 -2.0921,2.9336c-0.1734,0.4912 2.5041,4.4589 3.5611,6.0671z" fill="#e6818b"/><path d="M340.34104,205.3593c-0.4037,-0.1913 -0.7547,-0.3478 -1.1583,-0.539c-0.8982,-1.2759 -3.4525,-5.0864 -3.6487,-6.0494c-0.1961,-0.9629 1.3042,-2.773 1.8278,-3.3356c0.2984,0.1216 0.5618,0.2959 0.8252,0.4701c-0.3663,0.4394 -1.5173,1.9503 -1.7597,2.7747c-0.1734,0.4912 2.7156,4.8262 3.9137,6.6792z" fill="#e6818b"/><path d="M342.56854,205.9995c-0.2804,-0.034 -0.5609,-0.0681 -0.8592,-0.1896c-0.5812,-0.839 -3.2052,-4.5441 -3.4192,-5.5946c-0.1605,-0.7879 1.078,-2.3167 1.8108,-3.1954c0.2634,0.1743 0.5269,0.3485 0.843,0.5576c-0.663,0.7734 -1.5522,2.0031 -1.7605,2.547c-0.2262,0.4563 2.17,4.1623 3.3851,5.875z" fill="#e6818b"/><path d="M343.00044,199.3924c-0.4709,0.5974 -1.1323,1.8263 -1.3577,2.5105c-0.1215,0.2983 1.3578,2.413 2.38,4.0739c-0.2626,0.0535 -0.4904,0.0543 -0.753,0.1078c-0.9339,-1.4509 -2.1854,-3.5665 -2.2925,-4.0918c-0.1783,-0.8754 0.7968,-2.5785 1.3374,-3.2813c0.2286,0.227 0.4572,0.454 0.6858,0.6809z" fill="#e6818b"/><path d="M336.95274,203.4966l4.7566,2.3133c-1.4032,-0.3979 -3.0357,-1.2506 -4.7566,-2.3133c0.0527,0.0349 0,0 0,0z" fill="#e6818b"/><path d="M338.97114,204.453l1.1583,0.539c0.0706,0.1224 0.1233,0.1573 0.1938,0.2797c0,0 0,0 -0.0527,-0.0349c-0.351,-0.1564 -0.702,-0.3128 -1.1057,-0.5041c-0.0527,-0.0349 -0.1232,-0.1573 -0.1937,-0.2797z" fill="#d1303e"/><path d="M337.84424,198.0267c-3.7061,-2.5273 -6.407,-3.2535 -7.6342,-3.4594c0.1394,-0.2107 0.2967,-0.3339 0.4888,-0.5098c9.7692,2.7509 14.0842,8.938 15.1064,10.5988c-0.1395,0.2108 -0.2789,0.4216 -0.471,0.5975c-0.8276,-1.1535 -3.3276,-4.4736 -7.49,-7.227z" fill="#e6818b"/><path d="M341.20014,200.6254c0.1215,-0.2983 0.2083,-0.5439 0.3825,-0.8074c0.2286,0.227 0.5099,0.4888 0.7734,0.6631c-0.1743,0.2634 -0.2959,0.5617 -0.3826,0.8073c-0.3161,-0.2091 -0.5447,-0.436 -0.7733,-0.663z" fill="#d1303e"/><path d="M340.05394,198.5795c-0.1743,0.2634 -0.3137,0.4742 -0.4531,0.6849c-0.2635,-0.1742 -0.5448,-0.436 -0.8082,-0.6103c0.1394,-0.2108 0.2788,-0.4215 0.4531,-0.685c0.2634,0.1743 0.5796,0.3834 0.8082,0.6104z" fill="#d1303e"/><path d="M337.41944,196.8368c-0.1394,0.2108 -0.2788,0.4215 -0.4182,0.6323c-0.2635,-0.1743 -0.5796,-0.3834 -0.8431,-0.5577c0.1394,-0.2107 0.244,-0.3688 0.3834,-0.5796c0.2983,0.1216 0.6145,0.3307 0.8779,0.505z" fill="#d1303e"/><path d="M334.03194,195.202c0.351,0.1564 0.6493,0.278 0.9476,0.3996c-0.1046,0.158 -0.2091,0.3161 -0.4012,0.492c-0.2984,-0.1216 -0.5618,-0.2959 -0.8601,-0.4174c0.1046,-0.1581 0.2091,-0.3162 0.3137,-0.4742z" fill="#d1303e"/><path d="M332.20734,194.5252c-0.1573,0.1232 -0.2619,0.2813 -0.3664,0.4394c-0.3858,-0.1038 -0.719,-0.1727 -0.9646,-0.2594c0.1045,-0.1581 0.2091,-0.3161 0.3137,-0.4742c0.3331,0.0689 0.6314,0.1905 1.0173,0.2942z" fill="#d1303e"/><path d="M344.16034,200.387c0.1759,0.1921 0.2991,0.3494 0.4224,0.5066c-0.3656,0.6672 -1.69,2.6693 -2.4277,2.1814c-0.4215,-0.2788 -10.1487,-5.9559 -12.5367,-7.3841c0.0518,-0.193 0.1216,-0.2983 0.1734,-0.4913c2.1246,1.254 11.483,6.6871 12.1679,7.1402c0.5796,0.3834 1.7476,-1.2678 2.2007,-1.9528z" fill="#e6818b"/><path d="M343.34094,201.5113c0.1759,0.1921 0.3518,0.3842 0.475,0.5415c-0.1743,0.2634 -0.3664,0.4393 -0.5933,0.6679c-0.1759,-0.1921 -0.3518,-0.3842 -0.5277,-0.5763c0.2448,-0.1411 0.419,-0.4045 0.646,-0.6331z" fill="#d1303e"/><path d="M340.97644,201.7651c0.3161,0.2091 0.5796,0.3834 0.8252,0.4701c0.0884,0.2099 0.2821,0.4896 0.4937,0.8568l-0.0527,-0.0349c-0.0527,-0.0348 -0.4215,-0.2788 -1.0359,-0.6095c-0.0884,-0.2099 -0.1768,-0.4199 -0.1946,-0.5074c-0.0178,-0.0876 0.017,-0.1403 -0.0357,-0.1751z" fill="#d1303e"/><path d="M339.76704,201.6468c-0.3688,-0.244 -0.8252,-0.4701 -1.2467,-0.749c-0.141,-0.2448 -0.2472,-0.5422 -0.2829,-0.7173c0,0 0.0349,-0.0527 -0.0178,-0.0876c0.3688,0.244 0.7198,0.4004 1.0886,0.6444c0.1062,0.2975 0.2473,0.5423 0.4588,0.9095z" fill="#d1303e"/><path d="M336.56924,199.1527c0.0883,0.2099 0.2472,0.5423 0.441,0.8219c-0.3689,-0.244 -0.8252,-0.4701 -1.2468,-0.7489c-0.0883,-0.21 -0.1767,-0.4199 -0.2472,-0.5423c-0.0178,-0.0876 -0.0178,-0.0875 -0.0357,-0.1751c0.3689,0.244 0.7377,0.488 1.0887,0.6444z" fill="#d1303e"/><path d="M332.83154,197.5891c-0.0357,-0.175 0.0162,-0.368 0.0681,-0.5609c0.2634,0.1743 0.5617,0.2958 0.8252,0.4701c-0.0349,0.0527 -0.0349,0.0527 -0.0698,0.1054c-0.0348,0.0527 0.0536,0.2626 0.1598,0.5601c-0.3162,-0.2091 -0.6323,-0.4182 -0.9833,-0.5747z" fill="#d1303e"/><path d="M331.30354,196.5784c-0.3858,-0.1037 -0.702,-0.3129 -1.0181,-0.522c0.017,-0.1402 0.0689,-0.3331 0.1208,-0.5261c0.2634,0.1743 0.5617,0.2959 0.8779,0.505c-0.0349,0.0527 -0.0698,0.1054 -0.0519,0.1929c-0.0349,0.0527 0.0008,0.2278 0.0713,0.3502z" fill="#d1303e"/><path d="M345.69084,202.0811c-0.4701,0.8252 -1.8116,2.9676 -2.6538,2.6377c-0.8422,-0.3299 -9.0406,-4.7685 -12.4289,-6.6311c-0.3875,-0.5593 -0.6696,-1.0489 -0.8463,-1.4688c1.194,0.7141 10.8872,6.6717 13.0798,7.3647c0.4912,0.1734 1.9908,-1.8644 2.3742,-2.444c0.1759,0.1921 0.3518,0.3842 0.475,0.5415z" fill="#e6818b"/><path d="M342.78894,203.9488c0.1411,0.2447 0.3348,0.5244 0.4758,0.7692c-0.0875,0.0178 -0.175,0.0357 -0.2804,-0.034c-0.1054,-0.0697 -0.4037,-0.1913 -0.8601,-0.4175c-0.141,-0.2448 -0.3347,-0.5244 -0.4758,-0.7692c0.5091,0.261 0.8601,0.4174 1.1405,0.4515z" fill="#d1303e"/><path d="M340.52494,202.9056c0.1411,0.2448 0.3348,0.5245 0.4759,0.7692c-0.4037,-0.1912 -0.7725,-0.4352 -1.2289,-0.6614c-0.1937,-0.2796 -0.3348,-0.5244 -0.5285,-0.8041c0.4564,0.2262 0.8779,0.505 1.2815,0.6963z" fill="#d1303e"/><path d="M336.52224,200.7123c0.4037,0.1912 0.86,0.4174 1.2815,0.6962c0.1938,0.2797 0.3875,0.5593 0.5464,0.8917c-0.4037,-0.1913 -0.8252,-0.4702 -1.2289,-0.6614c-0.1937,-0.2797 -0.4053,-0.6469 -0.599,-0.9265z" fill="#d1303e"/><path d="M335.27804,200.6466c-0.4216,-0.2788 -0.8779,-0.505 -1.2816,-0.6962c-0.2643,-0.4021 -0.5285,-0.8041 -0.6874,-1.1365c0.4215,0.2789 0.8778,0.505 1.2994,0.7838c0.2115,0.3672 0.4231,0.7344 0.6695,1.0489z" fill="#d1303e"/><path d="M331.90424,197.9605c0.2642,0.402 0.4936,0.8567 0.8106,1.2936c-0.4564,-0.2261 -0.8779,-0.5049 -1.2816,-0.6962c-0.2821,-0.4896 -0.5642,-0.9792 -0.7409,-1.3991c0.3162,0.2092 0.7377,0.488 1.2119,0.8017z" fill="#d1303e"/><path d="M344.34364,202.6291c0.2286,0.2269 0.3697,0.4717 0.5456,0.6638c-0.1394,0.2108 -0.3137,0.4742 -0.5058,0.6502c-0.1759,-0.1922 -0.3697,-0.4718 -0.5456,-0.6639c0.1394,-0.2108 0.3315,-0.3867 0.5058,-0.6501z" fill="#d1303e"/><path d="M346.20154,202.7977c0.1232,0.1572 0.2464,0.3145 0.2115,0.3672c-0.3834,0.5796 -1.1323,1.8263 -1.7953,2.5996c-0.5423,0.2472 -1.2078,0.3372 -1.9617,0.2173c-1.9657,-0.9216 -6.0738,-3.1847 -8.7423,-4.6469c-0.8608,-0.6452 -1.5993,-1.3609 -2.1797,-1.9721c2.739,1.5846 10.6578,6.2169 11.2187,6.285c0.6485,0.0502 1.6463,-0.1986 3.2488,-2.8501z" fill="#e6818b"/><path d="M343.97004,205.942c0,0 -0.0876,0.0179 -0.1751,0.0357c-0.0876,0.0178 -0.0876,0.0178 -0.1751,0.0357c-0.0875,0.0178 -0.2278,0.0008 -0.368,-0.0162c-0.0705,-0.1224 -0.1937,-0.2797 -0.2643,-0.4021c0.2278,-0.0008 0.4556,-0.0016 0.7004,-0.1427c0.1232,0.1573 0.1937,0.2797 0.2821,0.4896z" fill="#d1303e"/><path d="M341.33974,205.3382c-0.1759,-0.1921 -0.3697,-0.4718 -0.5634,-0.7514c0.509,0.2609 0.8779,0.5049 1.2288,0.6614c0.1411,0.2448 0.3348,0.5244 0.458,0.6816c-0.351,-0.1564 -0.7546,-0.3477 -1.1235,-0.5916z" fill="#d1303e"/><path d="M338.58364,203.8938c-0.1937,-0.2797 -0.4401,-0.5942 -0.599,-0.9265c0.4563,0.2261 0.8779,0.505 1.2815,0.6962c0.1938,0.2797 0.3875,0.5593 0.5286,0.8041c-0.4386,-0.1386 -0.8074,-0.3825 -1.2111,-0.5738z" fill="#d1303e"/><path d="M333.96644,201.3697c-0.5447,-0.4361 -1.0894,-0.8722 -1.4939,-1.2912c-0.0527,-0.0349 -0.0527,-0.0349 0,0c-0.1232,-0.1573 -0.2465,-0.3145 -0.317,-0.4369c0.3688,0.2439 0.8252,0.4701 1.2994,0.7838c0.2643,0.402 0.4758,0.7692 0.7223,1.0837c-0.0527,-0.0348 -0.1054,-0.0697 -0.2108,-0.1394z" fill="#d1303e"/><path d="M336.74034,202.9016c-0.4215,-0.2788 -0.8252,-0.4701 -1.2289,-0.6614c-0.2464,-0.3145 -0.458,-0.6817 -0.7222,-1.0837c0.4215,0.2788 0.8779,0.505 1.2994,0.7838c0.2116,0.3672 0.458,0.6817 0.6517,0.9613z" fill="#d1303e"/><path d="M345.34724,203.9746c0.1232,0.1573 0.1937,0.2796 0.3169,0.4369c-0.1394,0.2108 -0.2788,0.4215 -0.4182,0.6323c-0.0706,-0.1224 -0.1938,-0.2796 -0.317,-0.4369c0.0519,-0.1929 0.244,-0.3688 0.4183,-0.6323z" fill="#d1303e"/><path d="M348.07884,203.5093c-0.2804,-0.0341 -0.5957,-0.0154 -0.9638,-0.0316c-0.0373,-0.6307 -0.3218,-1.8036 -1.147,-2.2737c-1.194,-0.7141 -3.5642,-2.0547 -4.1284,-3.0339c-0.6169,-1.014 -1.1616,-1.4501 -2.6004,-2.0232c-1.4388,-0.573 -2.3402,-2.76 -3.0584,-2.7048c-0.7182,0.0551 -2.6628,0.1322 -3.4531,-0.3906c-0.5448,-0.4361 -1.1584,-0.539 -1.9633,-0.2383c-0.141,-0.2448 -0.2821,-0.4896 -0.4231,-0.7344c0.6995,-0.3704 1.7322,-0.672 2.4528,-0.0438c0.9492,0.8551 2.2072,-0.1306 3.612,0.7229c1.4048,0.8535 1.3205,1.7825 2.6904,2.6887c1.4048,0.8535 1.5077,0.2399 2.3345,1.1655c0.8795,0.9606 1.374,2.0451 2.6021,2.4788c1.1753,0.3987 3.5998,2.2298 4.0457,4.4184z" fill="#e6818b"/><path d="M339.83574,196.3902c-0.158,-0.1046 -0.3509,-0.1565 -0.5965,-0.2432c-0.1054,-0.0697 -0.193,-0.0519 -0.2984,-0.1216l0.1905,-0.6314c0.3688,0.244 0.6671,0.3655 0.8601,0.4174z" fill="#d1303e"/><path d="M337.26704,193.4032c0.2464,0.3145 0.4928,0.6289 0.6866,0.9086l-0.1727,0.719c-0.2464,-0.3145 -0.4928,-0.629 -0.7214,-0.856z" fill="#d1303e"/><path d="M335.79164,192.4273l-0.0664,1.0165c-0.3153,0.0187 -0.5958,-0.0154 -0.9111,0.0033l-0.0041,-1.1389c0.2805,0.034 0.6485,0.0502 0.9816,0.1191z" fill="#d1303e"/><path d="M333.55204,193.2938c-0.2804,-0.034 -0.6136,-0.1029 -0.7368,-0.2601l-0.3551,-1.2953c0.1054,0.0697 0.2983,0.1215 0.3688,0.2439c0.1581,0.1046 0.3162,0.2092 0.5091,0.261z" fill="#d1303e"/><path d="M330.37614,192.0262c0.2099,-0.0884 0.5423,-0.2473 0.8049,-0.3008l0.2837,0.9452c-0.2278,0.0008 -0.4555,0.0016 -0.7003,0.1426c0,0 0,0 -0.0527,-0.0348c-0.0179,-0.0876 -0.0884,-0.21 -0.1062,-0.2975c-0.0527,-0.0348 -0.0527,-0.0348 -0.0705,-0.1224c-0.0527,-0.0348 -0.0706,-0.1224 -0.1411,-0.2448c0,0 -0.0527,-0.0348 -0.0178,-0.0875z" fill="#d1303e"/><path d="M347.05994,202.7595c-0.0357,-0.175 -0.124,-0.385 -0.2124,-0.5949l0.7182,-0.0552c0.141,0.2448 0.2294,0.4548 0.3704,0.6996z" fill="#d1303e"/><path d="M345.63084,199.9963c0.2107,0.1394 0.4393,0.3664 0.6152,0.5585l-0.6995,0.3704c-0.2108,-0.1394 -0.5091,-0.261 -0.7198,-0.4004z" fill="#d1303e"/><path d="M343.29874,199.514l0.4709,-0.5974c0.1054,0.0697 0.1581,0.1046 0.2983,0.1216c0.1054,0.0697 0.2456,0.0867 0.351,0.1564l-0.5933,0.668c-0.1581,-0.1046 -0.3162,-0.2092 -0.5269,-0.3486z" fill="#d1303e"/><path d="M341.62404,196.664c0.2286,0.227 0.4223,0.5066 0.616,0.7863l-0.4709,0.5974c-0.1937,-0.2797 -0.3348,-0.5245 -0.5107,-0.7166z" fill="#d1303e"/><path d="M331.11704,193.4253c0,0 2.2412,-0.4111 8.0873,2.7744c4.0027,2.1933 7.4024,7.2448 7.4024,7.2448c-0.2091,0.3162 -0.3493,0.2992 -0.3493,0.2992c0,0 -1.8166,-3.3226 -6.5068,-6.6524c-4.6901,-3.3297 -8.6498,-3.298 -8.6498,-3.298z" fill="#c6aa8b"/></g><path d="M310.61078,304.19174c0,7.28055 -14.32156,13.18261 -31.98809,13.18261c-17.66654,0 -31.98809,-5.90206 -31.98809,-13.18261c0,-7.28055 14.32156,-13.18261 31.98809,-13.18261c17.66654,0 31.98809,5.90206 31.98809,13.18261z" fill="#ceffcc" stroke="none" stroke-width="0" stroke-linecap="butt"/><path d="M236.44962,301.10087c0,9.42443 -18.53877,17.06445 -41.40751,17.06445c-22.86874,0 -41.40752,-7.64002 -41.40752,-17.06445c0,-9.42443 18.53878,-17.06444 41.40752,-17.06444c22.86874,0 41.40751,7.64002 41.40751,17.06444z" fill="#fff9cc" stroke="none" stroke-width="0" stroke-linecap="butt"/><path d="M477.53237,280.91825c-10.54649,0 -40.33334,-4.29893 -40.33334,-4.29893c0,0 12.47482,-77.45242 25.66667,-77.15557c9.34141,0.2102 10.09562,23.39859 17.04602,20.83579c23.99219,-8.84655 25.7873,55.56624 25.7873,55.56624c0,0 -17.17592,5.05247 -28.16666,5.05247c0,0 10.5465,0 0.00001,0z" data-paper-data="{&quot;index&quot;:null}" fill="#9c8974" stroke="none" stroke-width="0" stroke-linecap="butt"/><path d="M-14.8819,280.08491c0,0 -6.00283,-53.90247 18.16667,-87.16667c5.25355,-7.2304 18.01395,-5.01919 20.77137,5.82027c1.17746,4.62861 1.28669,10.39781 0.8789,16.148c-0.36444,5.13888 0.06138,9.40054 0.06138,9.40054l-1.71884,3.33311l-2.99854,-2.17609c0,0 -4.46499,12.55812 0.61262,14.91399c4.1958,1.94674 13.25026,41.51256 13.25026,41.51256c0,0 -14.25122,2.71429 -25.19047,2.71429c-10.606,0 -23.83333,-4.5 -23.83333,-4.5z" fill="#9c8974" stroke="none" stroke-width="0" stroke-linecap="butt"/><path d="M82.53236,276.83301c0,0 6.89319,-79.34797 19.76807,-86.41057c5.33612,-2.92716 7.35057,6.76305 10.08512,17.30686c2.97399,11.46704 6.43413,24.00462 6.43413,24.00462c0,0 6.25441,-3.1946 7.61171,-8.34647c1.4331,-5.43958 4.72577,-9.27107 9.4343,-9.36112c13.19184,-0.25228 25.66667,65.57176 25.66667,65.57176c0,0 -29.78685,3.6535 -40.33334,3.6535c-10.99074,0 -38.66667,-6.41858 -38.66667,-6.41858z" data-paper-data="{&quot;index&quot;:null}" fill="#9c8974" stroke="none" stroke-width="0" stroke-linecap="butt"/><path d="M54.95143,287.58491c-10.51764,-0.77949 -23.66667,-5.33333 -23.66667,-5.33333c0,0 -14.39572,-91.99479 19,-91.66667c12.05344,0.11843 24.55102,12.20187 31.12844,26.95881c11.64624,26.12921 12.2049,61.70787 12.2049,61.70787c0,0 -20.67593,9.66667 -38.66667,8.33333z" data-paper-data="{&quot;index&quot;:null}" fill="#7a6b5a" stroke="none" stroke-width="0" stroke-linecap="butt"/><path d="M206.28477,278.58491c0,0 2.49718,-54.40247 26.66667,-87.66667c26.39572,-36.32812 38,87.66667 38,87.66667c0,0 -21.39409,4 -32.33334,4c-10.606,0 -32.33334,-4 -32.33334,-4z" fill="#9c8974" stroke="none" stroke-width="0" stroke-linecap="butt"/><path d="M312.19903,274.83301c0,0 6.89319,-79.34797 19.76806,-86.41058c11.13947,-6.11064 8.353,38.75244 16.51925,41.31148c6.9504,2.17803 7.70461,-17.52894 17.04602,-17.70759c13.19185,-0.25229 25.66667,65.57176 25.66667,65.57176c0,0 -29.78685,3.6535 -40.33333,3.6535c-10.99074,0 -38.66667,-6.41857 -38.66667,-6.41857z" data-paper-data="{&quot;index&quot;:null}" fill="#9c8974" stroke="none" stroke-width="0" stroke-linecap="butt"/><path d="M284.61811,285.58491c-10.51764,-0.77949 -23.66667,-5.33334 -23.66667,-5.33334c0,0 -11.06239,-91.32812 22.33333,-91c33.39572,0.32813 49.66667,89.33333 49.66667,89.33333c0,0 -15.3426,7 -48.33334,7z" data-paper-data="{&quot;index&quot;:null}" fill="#7a6b5a" stroke="none" stroke-width="0" stroke-linecap="butt"/><path d="M415.61811,282.58491c-10.93925,0 -32.33333,-4 -32.33333,-4c0,0 11.60428,-123.99479 38,-87.66667c24.16949,33.2642 26.66667,87.66667 26.66667,87.66667c0,0 -21.72734,4 -32.33333,4z" data-paper-data="{&quot;index&quot;:null}" fill="#7a6b5a" stroke="none" stroke-width="0" stroke-linecap="butt"/><path d="M185.95143,284.58491c-10.93925,0 -32.33333,-4 -32.33333,-4c0,0 -0.48098,-12.0816 0.58622,-19.61834c1.29545,-9.14864 6.63527,-31.38092 6.63527,-31.38092c0,0 2.69625,-1.31436 4.05049,-5.65915c1.811,-5.81021 2.53594,-15.46316 3.82232,-19.49679c4.92711,-15.44971 13.98167,-23.79352 22.9057,-11.51148c5.34169,7.35172 10.72298,24.33719 10.72298,24.33719l15.94369,63.32949c0,0 -21.72734,4 -32.33334,4z" data-paper-data="{&quot;index&quot;:null}" fill="#7a6b5a" stroke="none" stroke-width="0" stroke-linecap="butt"/><path d="M21.8681,190.96735c0,1.24429 3.22079,6.69187 2.28202,7.07787c-0.83481,0.34326 -6.0653,-3.2743 -7.99584,-3.45801c-1.68003,-0.15988 -2.51156,3.13014 -4.03618,3.13014c-1.77863,0 -2.27805,-3.82473 -4.30536,-4.12033c-2.16378,-0.31551 -6.32454,3.61737 -7.1398,2.62092c-0.67413,-0.82395 2.19516,-4.25919 2.19516,-5.25059c0,-1.4986 -0.6301,-4.11889 0.80819,-5.17041c0.82283,-0.60157 2.41633,0.68007 3.90791,0.61711c0.92461,-0.03902 0.32915,-2.48018 1.2103,-2.86517c0.70683,-0.30883 2.89861,1.41847 3.57361,1.41847c1.13758,0 2.57827,-3.07331 3.42325,-2.50979c1.04318,0.6957 1.44052,5.09995 2.38244,5.66734c1.07286,0.64626 3.46933,-4.58857 3.61421,-2.90067c0.10008,1.16603 0.0801,5.04519 0.0801,5.74312z" fill="#68b070" stroke="none" stroke-width="0" stroke-linecap="butt"/><path d="M65.75759,193.96735c0,1.24429 4.67854,6.69187 3.31488,7.07787c-1.21266,0.34326 -8.8105,-3.27429 -11.61482,-3.45801c-2.44042,-0.15987 -3.64831,3.13014 -5.86298,3.13014c-2.58364,0 -3.30911,-3.82473 -6.254,-4.12033c-3.14312,-0.31551 -9.18707,3.61738 -10.37133,2.62092c-0.97924,-0.82395 3.18871,-4.25919 3.18871,-5.25059c0,-1.4986 -0.66528,-7.11889 1.42398,-8.17041c1.19524,-0.60156 3.25996,3.68007 5.42665,3.61711c1.3431,-0.03903 0.72813,-5.48017 2.00809,-5.86517c1.02675,-0.30883 3.96053,4.41847 4.94104,4.41847c1.65246,0 3.99521,-6.07331 5.22265,-5.50979c1.51534,0.6957 1.84251,8.09994 3.21075,8.66733c1.55844,0.64626 5.28957,-7.58857 5.50002,-5.90067c0.14538,1.16603 -0.13365,8.04519 -0.13365,8.74312z" fill="#6fbd78" stroke="none" stroke-width="0" stroke-linecap="butt"/><path d="M109.72894,194.65925c0,1.00622 2.09075,5.4115 1.48135,5.72365c-0.54191,0.27758 -3.93724,-2.64782 -5.19044,-2.79638c-1.09057,-0.12929 -1.63036,2.53125 -2.62005,2.53125c-1.15458,0 -1.47878,-3.09294 -2.79479,-3.33199c-1.4046,-0.25514 -4.10552,2.92526 -4.63474,2.11946c-0.4376,-0.6663 1.42497,-3.44427 1.42497,-4.24599c0,-1.21188 -0.40902,-3.33082 0.52463,-4.18115c0.53413,-0.48647 1.56853,0.54995 2.53678,0.49904c0.6002,-0.03156 0.21367,-2.00564 0.78566,-2.31697c0.45883,-0.24975 1.88161,1.14707 2.31978,1.14707c0.73845,0 1.67366,-2.48529 2.22218,-2.02959c0.67717,0.56259 0.9351,4.12417 1.54654,4.583c0.69644,0.52261 2.25208,-3.71063 2.34613,-2.34568c0.06497,0.94293 0.052,4.07989 0.052,4.64429z" fill="#68b070" stroke="none" stroke-width="0" stroke-linecap="butt"/><path d="M142.29231,214.99262c0,1.00622 2.22635,5.4115 1.57743,5.72365c-0.57706,0.27758 -4.19261,-2.64781 -5.52708,-2.79638c-1.16131,-0.12929 -1.7361,2.53124 -2.78999,2.53124c-1.22947,0 -1.57469,-3.09294 -2.97606,-3.33198c-1.4957,-0.25514 -4.3718,2.92526 -4.93535,2.11946c-0.46599,-0.6663 1.51739,-3.44427 1.51739,-4.24598c0,-1.21187 -0.43555,-3.33082 0.55866,-4.18115c0.56877,-0.48647 1.67027,0.54995 2.70132,0.49904c0.63913,-0.03156 0.22752,-2.00563 0.83661,-2.31697c0.48859,-0.24974 2.00364,1.14707 2.47023,1.14707c0.78635,0 1.78221,-2.48529 2.3663,-2.02959c0.7211,0.56259 0.99576,4.12417 1.64685,4.583c0.74161,0.52262 2.39815,-3.71063 2.4983,-2.34569c0.06918,0.94293 0.05537,4.07989 0.05537,4.64429z" fill="#5c9b63" stroke="none" stroke-width="0" stroke-linecap="butt"/><path d="M251.8681,188.30064c0,1.24429 3.22079,6.69187 2.28202,7.07787c-0.83481,0.34326 -6.0653,-3.27429 -7.99584,-3.45801c-1.68003,-0.15987 -2.51156,3.13014 -4.03617,3.13014c-1.77863,0 -2.27805,-3.82473 -4.30536,-4.12033c-2.16378,-0.31551 -6.32454,3.61738 -7.1398,2.62092c-0.67413,-0.82395 2.19516,-4.25919 2.19516,-5.25059c0,-1.4986 -0.6301,-4.11889 0.80819,-5.17041c0.82282,-0.60156 2.41632,0.68007 3.9079,0.61711c0.92461,-0.03903 0.32916,-2.48017 1.2103,-2.86517c0.70683,-0.30883 2.8986,1.41847 3.5736,1.41847c1.13759,0 2.57827,-3.07331 3.42325,-2.50979c1.04319,0.6957 1.44052,5.09994 2.38244,5.66733c1.07286,0.64626 3.46932,-4.58857 3.6142,-2.90067c0.10009,1.16603 0.0801,5.04519 0.0801,5.74312z" fill="#68b070" stroke="none" stroke-width="0" stroke-linecap="butt"/><path d="M298.75762,192.30064c0,1.24429 4.67854,6.69187 3.31488,7.07787c-1.21266,0.34326 -8.8105,-3.27429 -11.61483,-3.45801c-2.44042,-0.15987 -3.64831,3.13014 -5.86298,3.13014c-2.58364,0 -3.30912,-3.82473 -6.254,-4.12033c-3.14313,-0.31551 -9.18707,3.61738 -10.37133,2.62092c-0.97924,-0.82395 3.18871,-4.25919 3.18871,-5.25059c0,-1.4986 -0.66528,-7.11889 1.42398,-8.17041c1.19524,-0.60156 3.25996,3.68007 5.42665,3.61711c1.3431,-0.03903 0.72813,-5.48017 2.00809,-5.86517c1.02674,-0.30883 3.96053,4.41847 4.94104,4.41847c1.65247,0 3.99522,-6.07331 5.22265,-5.50979c1.51534,0.6957 1.84251,8.09994 3.21075,8.66733c1.55845,0.64626 5.28956,-7.58857 5.50002,-5.90067c0.14538,1.16603 -0.13365,8.04519 -0.13365,8.74312z" fill="#6fbd78" stroke="none" stroke-width="0" stroke-linecap="butt"/><path d="M339.72896,191.99262c0,1.00622 2.09075,5.4115 1.48136,5.72365c-0.54192,0.27758 -3.93724,-2.64781 -5.19043,-2.79638c-1.09058,-0.12929 -1.63036,2.53124 -2.62005,2.53124c-1.15458,0 -1.47878,-3.09294 -2.79479,-3.33198c-1.4046,-0.25514 -4.10552,2.92526 -4.63474,2.11946c-0.4376,-0.6663 1.42497,-3.44427 1.42497,-4.24598c0,-1.21187 -0.40902,-3.33082 0.52463,-4.18115c0.53413,-0.48647 1.56853,0.54995 2.53678,0.49904c0.60021,-0.03156 0.21367,-2.00563 0.78566,-2.31697c0.45884,-0.24974 1.88161,1.14707 2.31978,1.14707c0.73845,0 1.67366,-2.48529 2.22217,-2.02959c0.67718,0.56259 0.93511,4.12417 1.54654,4.583c0.69644,0.52262 2.25208,-3.71063 2.34613,-2.34569c0.06497,0.94293 0.052,4.07989 0.052,4.64429z" fill="#68b070" stroke="none" stroke-width="0" stroke-linecap="butt"/><path d="M372.29232,212.32596c0,1.00622 2.22636,5.4115 1.57744,5.72365c-0.57707,0.27758 -4.19261,-2.64781 -5.52708,-2.79638c-1.16131,-0.12929 -1.73611,2.53124 -2.78999,2.53124c-1.22947,0 -1.5747,-3.09294 -2.97606,-3.33199c-1.4957,-0.25514 -4.3718,2.92526 -4.93534,2.11946c-0.46599,-0.6663 1.5174,-3.44427 1.5174,-4.24598c0,-1.21187 -0.43555,-3.33082 0.55865,-4.18115c0.56878,-0.48647 1.67027,0.54995 2.70132,0.49904c0.63914,-0.03156 0.22752,-2.00563 0.83661,-2.31697c0.48859,-0.24974 2.00364,1.14707 2.47023,1.14707c0.78635,0 1.78222,-2.48529 2.36631,-2.02959c0.72109,0.56259 0.99576,4.12417 1.64686,4.583c0.74161,0.52262 2.39815,-3.71063 2.4983,-2.34569c0.06918,0.94293 0.05536,4.07989 0.05536,4.64429z" fill="#5c9b63" stroke="none" stroke-width="0" stroke-linecap="butt"/><path d="M193.71443,194.01858c0.57692,1.24429 5.59715,7.99956 3.74518,9.42402c-1.51834,0.68941 -8.64248,-7.00506 -10.55271,-7.18878c-1.66234,-0.15987 -1.36648,8.25894 -3.66036,8.13014c-1.94711,-0.10933 -2.88651,-8.86881 -4.59338,-9.12034c-2.14101,-0.31551 -7.19387,7.57891 -8.69285,6.46708c-1.12857,-1.1701 2.30026,-7.06688 2.7618,-8.05828c0.06311,-0.13557 -1.16651,-1.16775 -1.91142,-2.28527c-0.5868,-0.88031 -0.74147,-1.85736 -0.62589,-2.191c0.10158,-0.29322 1.2072,0.99919 2.07114,1.39609c0.89246,0.41 1.54251,-0.07367 1.54728,-0.30483c0.0235,-1.13927 0.58844,-2.46372 0.70478,-3.57699c0.10899,-1.04288 -0.24633,-1.90044 0.22255,-2.24688c0.41581,-0.30723 0.52457,0.47868 1.17971,1.3129c0.62763,0.79919 1.79465,1.64271 2.51677,1.61191c0.91488,-0.03903 0.49598,-4.78787 1.36785,-5.17286c0.69939,-0.30883 2.6978,4.1877 3.3657,4.1877c1.12561,0 2.72143,-5.84254 3.55752,-5.27902c1.03221,0.6957 1.25506,7.75379 2.18707,8.32118c1.06157,0.64626 3.6031,-7.24242 3.74646,-5.55452c0.06259,0.73697 -0.01539,3.82808 -0.00714,6.16302c0.00141,0.39895 1.23633,0.2349 2.76389,0.66468c1.18249,0.33269 2.60993,0.79089 2.72537,1.14521c0.11191,0.3435 -1.65496,0.82063 -2.71958,1.12216c-1.25244,0.35474 -1.72772,0.9723 -1.69973,1.03267z" fill="#6fbd78" stroke="none" stroke-width="0" stroke-linecap="butt"/><path d="M400.20834,188.61091c-1.06462,-0.30154 -2.83148,-0.77866 -2.71958,-1.12216c0.11544,-0.35432 1.54287,-0.81252 2.72537,-1.14522c1.52756,-0.42978 2.76249,-0.26572 2.7639,-0.66467c0.00825,-2.33494 -0.06973,-5.42605 -0.00714,-6.16302c0.14336,-1.6879 2.68489,6.20078 3.74646,5.55451c0.93201,-0.56739 1.15487,-7.62548 2.18707,-8.32118c0.83609,-0.56352 2.43191,5.27902 3.55751,5.27902c0.6679,0 2.66631,-4.49653 3.3657,-4.1877c0.87187,0.385 0.45297,5.13384 1.36785,5.17286c0.72211,0.0308 1.88915,-0.81272 2.51677,-1.61191c0.65513,-0.83422 0.76389,-1.62013 1.17971,-1.31289c0.46887,0.34644 0.11356,1.204 0.22255,2.24688c0.11635,1.11327 0.68129,2.43772 0.70479,3.57699c0.00477,0.23116 0.65482,0.71483 1.54728,0.30483c0.86395,-0.3969 1.96956,-1.68932 2.07114,-1.3961c0.11558,0.33363 -0.0391,1.31069 -0.6259,2.191c-0.74491,1.11752 -1.97453,2.1497 -1.91142,2.28527c0.46154,0.9914 3.89037,6.88818 2.7618,8.05828c-1.49899,1.11184 -6.55185,-6.78258 -8.69285,-6.46707c-1.70686,0.25153 -2.64626,9.01101 -4.59338,9.12034c-2.29388,0.1288 -1.99802,-8.29002 -3.66036,-8.13014c-1.91022,0.18372 -9.03438,7.8782 -10.55271,7.18878c-1.85196,-1.42446 3.16826,-8.17973 3.74518,-9.42402c0.02799,-0.06037 -0.44729,-0.67793 -1.69973,-1.03267z" data-paper-data="{&quot;index&quot;:null}" fill="#6fbd78" stroke="none" stroke-width="0" stroke-linecap="butt"/><path d="M469.22896,201.49262c0,1.00622 2.09075,5.4115 1.48135,5.72365c-0.54192,0.27758 -3.93724,-2.64781 -5.19043,-2.79638c-1.09058,-0.12929 -1.63036,2.53124 -2.62005,2.53124c-1.15458,0 -1.47878,-3.09294 -2.79479,-3.33199c-1.4046,-0.25514 -4.10552,2.92526 -4.63474,2.11946c-0.43761,-0.6663 1.42497,-3.44427 1.42497,-4.24598c0,-1.21187 -0.40902,-3.33082 0.52463,-4.18115c0.53413,-0.48647 1.56853,0.54995 2.53679,0.49904c0.60021,-0.03156 0.21366,-2.00563 0.78566,-2.31697c0.45884,-0.24974 1.8816,1.14707 2.31977,1.14707c0.73845,0 1.67366,-2.48529 2.22217,-2.02959c0.67717,0.56259 0.9351,4.12417 1.54654,4.583c0.69644,0.52262 2.25208,-3.71063 2.34613,-2.34569c0.06497,0.94293 0.052,4.07989 0.052,4.64429z" fill="#68b070" stroke="none" stroke-width="0" stroke-linecap="butt"/><path d="M383.70857,281.6823c0,0 -0.35809,-4.45211 -1.30975,-5.53487c-1.17618,-1.33821 -3.21752,-0.8529 -3.21752,-0.8529c0,0 -0.02455,-3.72355 3.11343,-4.19388c0.24118,-0.03615 1.00118,-0.83529 1.06178,-2.29592c0.09898,-2.38584 -1.60663,-4.45871 -1.60663,-4.45871c0,0 1.58152,0.25748 2.94098,1.53983c1.04243,0.9833 1.80447,3.05063 2.52813,3.15733c0.95954,0.14147 2.00432,-1.99969 3.31666,-2.3794c1.45787,-0.42181 2.95771,0.38539 2.95771,0.38539c0,0 -0.67144,0.12621 -0.9479,2.37354c-0.18962,1.54137 0.35202,2.98889 0.87808,3.05096c3.21543,0.37936 4.86686,2.8209 4.86686,2.8209c0,0 -2.66512,1.15635 -4.29526,1.9575c-1.27642,0.62733 -2.68656,4.14461 -2.68656,4.14461c0,0 -2.51884,1.24471 -3.82002,1.29361c-1.2279,0.04614 -3.77998,-1.00798 -3.77998,-1.00798z" fill="#74c47d" stroke="none" stroke-width="0" stroke-linecap="butt"/><path d="M152.58313,282.49069c-1.30118,-0.03424 -3.82002,-0.90579 -3.82002,-0.90579c0,0 -1.41013,-2.46282 -2.68656,-2.90207c-1.63013,-0.56097 -4.29526,-1.37065 -4.29526,-1.37065c0,0 1.65144,-1.70956 4.86687,-1.97519c0.52606,-0.04346 1.06769,-1.05701 0.87807,-2.13628c-0.27647,-1.57359 -0.9479,-1.66196 -0.9479,-1.66196c0,0 1.49984,-0.5652 2.9577,-0.26985c1.31234,0.26587 2.35712,1.76512 3.31667,1.66606c0.72366,-0.07471 1.4857,-1.52226 2.52813,-2.21077c1.35946,-0.8979 2.94098,-1.07819 2.94098,-1.07819c0,0 -1.70561,1.45144 -1.60663,3.12201c0.0606,1.02274 0.8206,1.5823 1.06178,1.60761c3.13798,0.32934 3.11343,2.93658 3.11343,2.93658c0,0 -2.04134,-0.33982 -3.21753,0.59719c-0.95166,0.75815 -1.30974,3.87553 -1.30974,3.87553c0,0 -2.55208,0.7381 -3.77998,0.70579z" data-paper-data="{&quot;index&quot;:null}" fill="#74c47d" stroke="none" stroke-width="0" stroke-linecap="butt"/><g fill="#ffffff" stroke="none" stroke-width="0.5" stroke-linecap="butt"><path d="M12.03524,16.8497c0,-0.5523 0.4477,-1 1,-1c0.5523,0 1,0.4477 1,1c0,0.5523 -0.4477,1 -1,1c-0.5523,0 -1,-0.4477 -1,-1z"/><path d="M-0.46476,80.8497c0,-0.5523 0.4477,-1 1,-1c0.5523,0 1,0.4477 1,1c0,0.5523 -0.4477,1 -1,1c-0.5523,0 -1,-0.4477 -1,-1z"/><path d="M45.53524,31.8497c0,-0.5523 0.4477,-1 1,-1c0.5523,0 1,0.4477 1,1c0,0.5523 -0.4477,1 -1,1c-0.5523,0 -1,-0.4477 -1,-1z"/><path d="M212.03524,25.8497c0,-0.5523 0.4477,-1 1,-1c0.5523,0 1,0.4477 1,1c0,0.5523 -0.4477,1 -1,1c-0.5523,0 -1,-0.4477 -1,-1z"/><path d="M270.03524,24.3497c0,-0.5523 0.4477,-1 1,-1c0.5523,0 1,0.4477 1,1c0,0.5523 -0.4477,1 -1,1c-0.5523,0 -1,-0.4477 -1,-1z"/><path d="M246.03524,63.3497c0,-0.5523 0.4477,-1 1,-1c0.5523,0 1,0.4477 1,1c0,0.5523 -0.4477,1 -1,1c-0.5523,0 -1,-0.4477 -1,-1z"/><path d="M176.03524,11.8497c0,-0.5523 0.4477,-1 1,-1c0.5523,0 1,0.4477 1,1c0,0.5523 -0.4477,1 -1,1c-0.5523,0 -1,-0.4477 -1,-1z"/><path d="M293.53524,12.8497c0,-0.5523 0.4477,-1 1,-1c0.5523,0 1,0.4477 1,1c0,0.5523 -0.4477,1 -1,1c-0.5523,0 -1,-0.4477 -1,-1z"/><path d="M465.03534,14.3497c0,-0.5523 0.4477,-1 1,-1c0.5522,0 1,0.4477 1,1c0,0.5523 -0.4478,1 -1,1c-0.5523,0 -1,-0.4477 -1,-1z"/><path d="M465.03534,47.8497c0,-0.5523 0.4477,-1 1,-1c0.5522,0 1,0.4477 1,1c0,0.5523 -0.4478,1 -1,1c-0.5523,0 -1,-0.4477 -1,-1z"/><path d="M436.53534,-0.1503c0,-0.5523 0.4477,-1 1,-1c0.5522,0 1,0.4477 1,1c0,0.5523 -0.4478,1 -1,1c-0.5523,0 -1,-0.4477 -1,-1z"/><path d="M445.53534,33.3497c0,-0.5523 0.4477,-1 1,-1c0.5522,0 1,0.4477 1,1c0,0.5523 -0.4478,1 -1,1c-0.5523,0 -1,-0.4477 -1,-1z"/><path d="M422.03534,18.3497c0,-0.5523 0.4477,-1 1,-1c0.5522,0 1,0.4477 1,1c0,0.5523 -0.4478,1 -1,1c-0.5523,0 -1,-0.4477 -1,-1z"/><path d="M247.53524,18.3497c0,-0.5523 0.4477,-1 1,-1c0.5523,0 1,0.4477 1,1c0,0.5523 -0.4477,1 -1,1c-0.5523,0 -1,-0.4477 -1,-1z"/></g><g data-paper-data="{&quot;index&quot;:null}" fill="#ffffff" stroke="none" stroke-width="0.5" stroke-linecap="butt"><path d="M461.53534,108.3497c0,0.5523 -0.4478,1 -1,1c-0.5523,0 -1,-0.4477 -1,-1c0,-0.5523 0.4477,-1 1,-1c0.5522,0 1,0.4477 1,1z"/><path d="M474.03534,44.3497c0,0.5523 -0.4478,1 -1,1c-0.5523,0 -1,-0.4477 -1,-1c0,-0.5523 0.4477,-1 1,-1c0.5522,0 1,0.4477 1,1z"/><path d="M428.03534,93.3497c0,0.5523 -0.4478,1 -1,1c-0.5523,0 -1,-0.4477 -1,-1c0,-0.5523 0.4477,-1 1,-1c0.5522,0 1,0.4477 1,1z"/><path d="M261.53524,99.3497c0,0.5523 -0.4477,1 -1,1c-0.5523,0 -1,-0.4477 -1,-1c0,-0.5523 0.4477,-1 1,-1c0.5523,0 1,0.4477 1,1z"/><path d="M203.53524,100.8497c0,0.5523 -0.4477,1 -1,1c-0.5523,0 -1,-0.4477 -1,-1c0,-0.5523 0.4477,-1 1,-1c0.5523,0 1,0.4477 1,1z"/><path d="M227.53524,61.8497c0,0.5523 -0.4477,1 -1,1c-0.5523,0 -1,-0.4477 -1,-1c0,-0.5523 0.4477,-1 1,-1c0.5523,0 1,0.4477 1,1z"/><path d="M297.53524,113.3497c0,0.5523 -0.4477,1 -1,1c-0.5523,0 -1,-0.4477 -1,-1c0,-0.5523 0.4477,-1 1,-1c0.5523,0 1,0.4477 1,1z"/><path d="M180.03524,112.3497c0,0.5523 -0.4477,1 -1,1c-0.5523,0 -1,-0.4477 -1,-1c0,-0.5523 0.4477,-1 1,-1c0.5523,0 1,0.4477 1,1z"/><path d="M8.53524,110.8497c0,0.5523 -0.4477,1 -1,1c-0.5523,0 -1,-0.4477 -1,-1c0,-0.5523 0.4477,-1 1,-1c0.5523,0 1,0.4477 1,1z"/><path d="M8.53524,77.3497c0,0.5523 -0.4477,1 -1,1c-0.5523,0 -1,-0.4477 -1,-1c0,-0.5523 0.4477,-1 1,-1c0.5523,0 1,0.4477 1,1z"/><path d="M37.03524,125.3497c0,0.5523 -0.4477,1 -1,1c-0.5523,0 -1,-0.4477 -1,-1c0,-0.5522 0.4477,-1 1,-1c0.5523,0 1,0.4478 1,1z"/><path d="M28.03524,91.8497c0,0.5523 -0.4477,1 -1,1c-0.5523,0 -1,-0.4477 -1,-1c0,-0.5523 0.4477,-1 1,-1c0.5523,0 1,0.4477 1,1z"/><path d="M51.53524,106.8497c0,0.5523 -0.4477,1 -1,1c-0.5523,0 -1,-0.4477 -1,-1c0,-0.5523 0.4477,-1 1,-1c0.5523,0 1,0.4477 1,1z"/><path d="M226.03524,106.8497c0,0.5523 -0.4477,1 -1,1c-0.5523,0 -1,-0.4477 -1,-1c0,-0.5523 0.4477,-1 1,-1c0.5523,0 1,0.4477 1,1z"/></g><g stroke-linecap="butt"><path d="M241.45143,367.87131v-374h55.5v374z" fill="url(#color-11)" stroke="none" stroke-width="0"/><path d="M185.95143,369.87131v-374h55.5v374z" data-paper-data="{&quot;index&quot;:null}" fill="url(#color-12)" stroke="none" stroke-width="0"/><path d="M236.06314,140.0306l-10.3271,-74.4015l10.3271,-71.2578h14.4461l-8.7825,74.4015l11.3568,71.2578l-9.9259,82.1737l12.5578,60.7848l-13.9919,103.7218l-17.439,0.374l15.2757,-99.4383l-12.7945,-64.8312z" fill="#b9faf1" stroke="#6ef1ff" stroke-width="3"/></g><path d="M142.35624,333.4303l-1.2139,-3.6416" fill="none" stroke="#74c47d" stroke-width="2" stroke-linecap="round"/><path d="M147.21164,334.3406l1.5173,-10.9246" fill="none" stroke="#74c47d" stroke-width="2" stroke-linecap="round"/><path d="M152.97734,333.7337l3.3381,-3.3381" fill="none" stroke="#74c47d" stroke-width="2" stroke-linecap="round"/><path d="M337.17854,337.3753l-2.1242,-4.8554" fill="none" stroke="#74c47d" stroke-width="2" stroke-linecap="round"/><path d="M340.51664,337.3753v-8.1935" fill="none" stroke="#74c47d" stroke-width="2" stroke-linecap="round"/><path d="M344.76514,337.9822l1.8208,-3.945" fill="none" stroke="#74c47d" stroke-width="2" stroke-linecap="round"/><path d="M22.82794,169.4781l-2.5,-5.5" fill="none" stroke="#74c47d" stroke-width="2" stroke-linecap="round"/><path d="M27.32794,168.4781l0.5,-9.5" fill="none" stroke="#74c47d" stroke-width="2" stroke-linecap="round"/><path d="M35.32794,164.9781l-4.5,5" fill="none" stroke="#74c47d" stroke-width="2" stroke-linecap="round"/><path d="M459.19904,166.5337l-1.1667,-1.5" fill="none" stroke="#74c47d" stroke-width="2" stroke-linecap="round"/><path d="M462.53234,166.367l-0.5,-3.1667" fill="none" stroke="#74c47d" stroke-width="2" stroke-linecap="round"/><path d="M465.03234,166.7003l1.5,-2.1666" fill="none" stroke="#74c47d" stroke-width="2" stroke-linecap="round"/><path d="M447.19904,153.367l1.3333,1.8333" fill="none" stroke="#74c47d" stroke-width="2" stroke-linecap="round"/><path d="M450.03234,155.0337l0.1667,-2.8334" fill="none" stroke="#74c47d" stroke-width="2" stroke-linecap="round"/><path d="M452.86564,154.0337l-1.3333,1" fill="none" stroke="#74c47d" stroke-width="2" stroke-linecap="round"/><path d="M287.19904,160.867l3.5,4.5" fill="none" stroke="#74c47d" stroke-width="2" stroke-linecap="round"/><path d="M294.19904,155.7003l-0.1667,8.6667" fill="none" stroke="#74c47d" stroke-width="2" stroke-linecap="round"/><path d="M297.53234,164.7003l1.6667,-3.5" fill="none" stroke="#74c47d" stroke-width="2" stroke-linecap="round"/><path d="M49.03234,147.367l2.5,4.6667" fill="none" stroke="#74c47d" stroke-width="2" stroke-linecap="round"/><path d="M54.53234,152.7003l-2,-8.3333" fill="none" stroke="#74c47d" stroke-width="2" stroke-linecap="round"/><path d="M58.86564,145.7003l-1.6666,7.1667" fill="none" stroke="#74c47d" stroke-width="2" stroke-linecap="round"/><path d="M60.36564,152.7003l2.3334,-3.3333" fill="none" stroke="#74c47d" stroke-width="2" stroke-linecap="round"/><path d="M5.53234,149.867l-3,-1.6667" fill="none" stroke="#74c47d" stroke-width="2" stroke-linecap="round"/><path d="M8.03234,149.367l-1.3333,-4.5" fill="none" stroke="#74c47d" stroke-width="2" stroke-linecap="round"/><path d="M11.03234,147.867l-0.6666,1.6667" fill="none" stroke="#74c47d" stroke-width="2" stroke-linecap="round"/><path d="M173.47674,148.2003l2.1667,4.6667" fill="none" stroke="#74c47d" stroke-width="2" stroke-linecap="round"/><path d="M178.81014,152.2003l0.3333,-8.5" fill="none" stroke="#74c47d" stroke-width="2" stroke-linecap="round"/><path d="M183.64344,149.2003l-1,3.6667" fill="none" stroke="#74c47d" stroke-width="2" stroke-linecap="round"/><path d="M3.62364,291.1404l-1.3334,-3.5" fill="none" stroke="#74c47d" stroke-width="2" stroke-linecap="round"/><path d="M6.12364,290.9738l0.5,-6.8333" fill="none" stroke="#74c47d" stroke-width="2" stroke-linecap="round"/><path d="M10.79024,288.6404l-2.1666,2.5" fill="none" stroke="#74c47d" stroke-width="2" stroke-linecap="round"/></g></g></svg>