<svg xmlns="http://www.w3.org/2000/svg" xmlns:xlink="http://www.w3.org/1999/xlink" version="1.1" width="557.1235961914062" height="382.5" viewBox="-0.75 -0.75 557.1235961914062 382.5"><g><g data-paper-data="{&quot;isPaintingLayer&quot;:true}" fill-rule="nonzero" stroke-linecap="none" stroke-linejoin="miter" stroke-miterlimit="10" stroke-dasharray="" stroke-dashoffset="0" font-family="none" font-weight="none" font-size="none" text-anchor="none" style="mix-blend-mode: normal"><path d="M-34.68742,76.73307v-78.40515h160.87727v78.40515z" data-paper-data="{&quot;origPos&quot;:null}" fill="#6e7f8f" stroke="none" stroke-width="0" stroke-linecap="butt" transform="matrix(1,0,0,1,36.56183,1.75)"/><path d="M-36.06834,77.33052v-20.82203h61.7962v20.82203z" data-paper-data="{&quot;origPos&quot;:null}" fill="#2f2b2a" stroke="none" stroke-width="0" stroke-linecap="butt" transform="matrix(1,0,0,1,36.56183,1.75)"/><path d="M-35.60803,179.57206v-24.55932h114.15612v24.55932z" data-paper-data="{&quot;origPos&quot;:null}" fill="#554939" stroke="none" stroke-width="0" stroke-linecap="butt" transform="matrix(1,0,0,1,36.56183,1.75)"/><path d="M-36.06834,156.61442v-21.35593h112.7752v21.35593z" data-paper-data="{&quot;origPos&quot;:null}" fill="#665d4e" stroke="none" stroke-width="0" stroke-linecap="butt" transform="matrix(1,0,0,1,36.56183,1.75)"/><path d="M117.21385,127.78391c-10.653,0 -21.33437,5.09031 -31.09236,0.13286c-28.15075,-14.30173 -58.66749,-24.55025 -58.66749,-60.19642c0,-13.71117 32.50139,-39.24153 53.85591,-39.24153c21.35452,0 38.66578,11.11511 38.66578,24.82627c0,13.71117 18.59268,74.47881 -2.76184,74.47881z" data-paper-data="{&quot;origPos&quot;:null}" fill="#7d7465" stroke="none" stroke-width="0" stroke-linecap="butt" transform="matrix(1,0,0,1,36.56183,1.75)"/><path d="M-36.56183,142.19917v-68.47246h132.60158v68.47246z" data-paper-data="{&quot;origPos&quot;:null}" fill="#68604d" stroke="none" stroke-width="0" stroke-linecap="butt" transform="matrix(1,0,0,1,36.56183,1.75)"/><path d="M-34.68742,236.69917v-59.26271h110.47366v59.26271z" data-paper-data="{&quot;origPos&quot;:null}" fill="#463324" stroke="none" stroke-width="0" stroke-linecap="butt" transform="matrix(1,0,0,1,36.56183,1.75)"/><path d="M-33.3065,368.03814v-148.95763h113.2355v148.95763z" data-paper-data="{&quot;origPos&quot;:null}" fill="#594d3d" stroke="none" stroke-width="0" stroke-linecap="butt" transform="matrix(1,0,0,1,36.56183,1.75)"/><path d="M108.92833,365.03814v-366.78814h410.13346v366.78814z" data-paper-data="{&quot;origPos&quot;:null}" fill="#a19684" stroke="none" stroke-width="0" stroke-linecap="butt" transform="matrix(1,0,0,1,36.56183,1.75)"/><path d="M42.64415,377.64831l37.28486,-256.27119l80.0934,-16.01695v272.28814z" data-paper-data="{&quot;origPos&quot;:null}" fill="#a4947b" stroke="none" stroke-width="0" stroke-linecap="butt" transform="matrix(1,0,0,1,36.56183,1.75)"/><path d="M121.35662,379.25l31.76118,-273.88983l37.28486,6.40678l1.38092,265.88136z" data-paper-data="{&quot;origPos&quot;:null}" fill="#473e2f" stroke="none" stroke-width="0" stroke-linecap="butt" transform="matrix(1,0,0,1,36.56183,1.75)"/><path d="M388.91002,366.43644v-36.83898h19.67812v36.83898z" data-paper-data="{&quot;origPos&quot;:null}" fill="#323230" stroke="none" stroke-width="0" stroke-linecap="butt" transform="matrix(1,0,0,1,36.56183,1.75)"/><path d="M 299.4628 293.7076 L 307.7484 259.2712 " data-paper-data="{&quot;origPos&quot;:null}" fill="none" stroke="#504c43" stroke-width="1.5" stroke-linecap="round"/><path d="M 293.9391 284.0975 L 300.8438 238.4492 " data-paper-data="{&quot;origPos&quot;:null}" fill="none" stroke="#504c43" stroke-width="1.5" stroke-linecap="round"/><path d="M222.8543,298.76485c0,19.68217 -3.24587,35.63771 -7.24983,35.63771c-4.00397,0 -7.24983,-15.95554 -7.24983,-35.63771c0,-19.68217 9.46001,-51.65466 13.46398,-51.65466c4.00397,0 1.03569,31.97249 1.03569,51.65466z" data-paper-data="{&quot;origPos&quot;:null}" fill="#5a584c" stroke="none" stroke-width="0" stroke-linecap="butt" transform="matrix(1,0,0,1,36.56183,1.75)"/><path d="M 342.5015 367.1187 L 347.5649 292.3729 " data-paper-data="{&quot;origPos&quot;:null}" fill="none" stroke="#4b4c3a" stroke-width="1.5" stroke-linecap="round"/><path d="M315.14584,368.57379c0,0 8.84274,-37.86498 12.4402,-57.6581c3.40853,-18.75361 5.51177,-41.11309 5.51177,-41.11309c0,0 -3.2094,-0.92351 -2.89141,-1.14556c0.954,-0.66619 11.81886,5.62472 10.82566,13.97657c-0.94075,7.9109 -17.14039,64.58425 -17.14039,64.58425v21.35593z" data-paper-data="{&quot;origPos&quot;:null}" fill="#40453f" stroke="none" stroke-width="0" stroke-linecap="butt" transform="matrix(1,0,0,1,36.56183,1.75)"/><path d="M 464.0225 190.934 C 464.0225 190.934 462.4181 226.2615 459.9181 248.5313 C 457.9271 266.2668 452.5149 293.4425 452.5149 293.4425 " data-paper-data="{&quot;origPos&quot;:null}" fill="none" stroke="#4b4843" stroke-width="1.5" stroke-linecap="round"/><path d="M 384.8498 139.6797 C 384.8498 139.6797 383.8458 169.5539 382.3194 188.6749 C 381.1512 203.3084 377.9452 226.1713 377.9452 226.1713 " data-paper-data="{&quot;origPos&quot;:null}" fill="none" stroke="#605845" stroke-width="1.5" stroke-linecap="round"/><path d="M 266.5509 211.2204 L 267.0112 120.4576 " data-paper-data="{&quot;origPos&quot;:null}" fill="none" stroke="#5e5649" stroke-width="1.5" stroke-linecap="round"/><path d="M 267.0112 129 L 266.0906 201.6102 " data-paper-data="{&quot;origPos&quot;:null}" fill="none" stroke="#504e41" stroke-width="1.5" stroke-linecap="round"/><path d="M240.30615,351.22034c0,0 2.77569,-8.04865 4.55227,-13.20018c3.33473,-9.66969 -4.04657,-3.38867 -9.27959,5.07433c-3.7694,6.09597 0.77134,15.4443 -1.04387,22.64451c-0.80498,3.19306 -4.67707,2.92361 -7.424,1.96638c-1.13699,-0.39621 4.71488,-33.20294 3.72389,-33.9612c-3.58153,-2.74044 -1.0237,-9.11196 -1.0237,-9.11196l40.87525,2.88305c0,0 4.20112,12.83525 0.83238,16.24995c-1.64829,1.67078 -5.82082,59.32117 -5.46103,-0.22664c0.02698,-4.46764 -9.18054,-5.43511 -9.18054,-0.96736c0,5.25069 0,13.45424 0,13.45424c0,0 -6.24191,4.66415 -8.70483,3.47371c-2.12717,-1.02818 -0.98939,-9.27982 -1.51399,-6.6771c-8.78411,43.5817 -6.35224,-1.60169 -6.35224,-1.60169z" data-paper-data="{&quot;origPos&quot;:null}" fill="#2c302f" stroke="none" stroke-width="0" stroke-linecap="butt" transform="matrix(1,0,0,1,36.56183,1.75)"/><path d="M291.97135,234.46618c-0.26784,2.90294 -4.98378,-8.91824 -6.85959,-5.98927c-3.21753,5.02407 -3.66331,36.51885 -9.05913,36.51885c-3.24518,0 -7.89744,-43.67665 -8.57302,-47.35819c-0.69096,-3.76534 -4.46141,-7.98826 -4.46141,-7.98826c0,0 -0.51797,-4.77243 -0.22023,-7.09511c0.59636,-4.65219 2.03498,-6.10762 2.47378,-10.78333c0.33203,-3.53798 1.34743,-5.76431 1.38596,-9.32291c0.01812,-1.67278 0.13675,-2.62516 0.5832,-4.2159c1.95819,-6.97714 8.99564,-12.31257 15.32176,-12.31257c0,0 11.7567,-0.15892 15.20854,7.43592c0,0 5.24871,3.94925 5.44962,12.75372c0.06697,2.93482 -2.1189,19.17671 -2.96398,28.33584z" data-paper-data="{&quot;origPos&quot;:null}" fill="#363b3e" stroke="#000000" stroke-width="0" stroke-linecap="butt" transform="matrix(1,0,0,1,36.56183,1.75)"/><path d="M344.49136,284.53624c-3.21753,5.02407 -17.47251,-8.32861 -22.86834,-8.32861c-3.24518,0 1.07854,7.57759 0.40297,3.89604c-0.69096,-3.76534 -11.36601,28.85072 -11.36601,28.85072c0,0 -4.66073,-53.62412 -4.36299,-55.9468c0.59636,-4.65219 7.55866,-6.10762 7.99746,-10.78333c0.33203,-3.53798 5.4902,-5.76431 5.52872,-9.32291c0.01812,-1.67278 0.13675,-2.62516 0.5832,-4.2159c1.95819,-6.97714 5.54333,-14.71511 11.86946,-14.71511c0,0 11.71253,1.1421 17.23629,4.42473c7.29663,4.33619 12.8714,8.66142 13.08831,18.16745c0.06697,2.93482 -7.64258,17.57501 -8.48766,26.73415c0,0 -7.74561,18.31059 -9.62141,21.23956z" data-paper-data="{&quot;origPos&quot;:null}" fill="#363b3e" stroke="#000000" stroke-width="0" stroke-linecap="butt" transform="matrix(1,0,0,1,36.56183,1.75)"/><path d="M110.65448,195.65575c0,6.08157 2.39507,53.02309 1.38092,49.45233c-8.07453,-28.43008 -13.11875,-43.37076 -13.11875,-49.45233c0,-6.08157 2.6276,-11.01165 5.86891,-11.01165c3.24131,0 5.86891,4.93008 5.86891,11.01165z" data-paper-data="{&quot;origPos&quot;:null}" fill="#261c13" stroke="none" stroke-width="0" stroke-linecap="butt" transform="matrix(1,0,0,1,36.56183,1.75)"/><path d="M104.78557,236.29874c0,26.75891 -1.85477,48.45127 -4.14276,48.45127c-2.28799,0 -4.14276,-21.69236 -4.14276,-48.45127c0,-26.75889 1.85477,-48.45127 4.14276,-48.45127c2.28799,0 4.14276,21.69238 4.14276,48.45127z" data-paper-data="{&quot;origPos&quot;:null}" fill="#2e1f18" stroke="none" stroke-width="0" stroke-linecap="butt" transform="matrix(1,0,0,1,36.56183,1.75)"/><path d="M207.09138,374.53525c0,0 8.75131,-35.68893 11.25907,-58.53165c5.91611,-53.88854 10.32607,-138.08268 10.32607,-138.08268l4.10723,30.65827l-11.91869,164.58045z" data-paper-data="{&quot;origRot&quot;:0,&quot;origPos&quot;:null}" fill="#323639" stroke="none" stroke-width="0" stroke-linecap="butt" transform="matrix(1,0,0,1,36.56183,1.75)"/><path d="M249.16281,249.68228c-0.26784,2.90294 -5.67424,11.10295 -7.55005,14.03192c-3.21753,5.02407 -19.5439,-1.12098 -24.93972,-1.12098c-3.24518,0 -0.30238,-4.43513 -0.97795,-8.11667c-0.69096,-3.76534 -4.46141,-7.98826 -4.46141,-7.98826c0,0 -0.51797,-4.77243 -0.22023,-7.09511c0.59636,-4.65219 2.03498,-6.10762 2.47378,-10.78333c0.33203,-3.53798 1.34743,-5.76431 1.38596,-9.32291c0.01812,-1.67278 0.13675,-2.62516 0.5832,-4.2159c1.95819,-6.97714 5.54333,-14.71511 11.86946,-14.71511c0,0 15.20901,2.24362 18.66084,9.83846c0,0 3.17733,23.16959 3.37824,31.97406c0.06697,2.93482 0.64294,-1.64533 -0.20214,7.51381z" data-paper-data="{&quot;origPos&quot;:null}" fill="#363b3e" stroke="#000000" stroke-width="0" stroke-linecap="butt" transform="matrix(1,0,0,1,36.56183,1.75)"/><path d="M265.08841,339.79471c-3.21753,5.02407 -19.5439,-1.12098 -24.93972,-1.12098c-3.24518,0 -0.30238,-4.43513 -0.97795,-8.11667c-0.19855,-1.08196 -11.36601,-4.78487 -11.36601,-4.78487c0,0 6.38663,-7.97582 6.68437,-10.2985c0.59636,-4.65219 2.03498,-6.10762 2.47378,-10.78333c0.33203,-3.53798 1.34743,-5.76431 1.38596,-9.32291c0.01812,-1.67278 0.13675,-2.62516 0.5832,-4.2159c1.95819,-6.97714 8.99564,-9.10918 15.32176,-9.10918c0,0 13.13762,6.24786 16.58946,13.8427c0,0 -3.03681,15.16112 -2.8359,23.96558c0.06697,2.93482 3.40478,3.15976 2.5597,12.31889c0,0 -3.60285,4.69619 -5.47865,7.62516z" data-paper-data="{&quot;origPos&quot;:null}" fill="#363b3e" stroke="#000000" stroke-width="0" stroke-linecap="butt" transform="matrix(1,0,0,1,36.56183,1.75)"/><path d="M421.13246,369.42607c-4.20316,6.56311 0.87586,-9.28346 -3.31179,-15.85989c-2.97028,-4.66463 -14.66046,2.68396 -15.70128,-2.98793c-1.45872,-7.94908 -12.1682,-9.94318 -16.57305,-13.43018c-1.46828,-1.16233 -2.38803,-8.17249 -2.38803,-8.17249c0,0 11.21986,-11.17921 11.5176,-13.50189c0.59636,-4.65219 4.10636,-6.10762 4.54516,-10.78333c0.33203,-3.53798 6.18066,-2.56092 6.21918,-6.11952c0.01812,-1.67278 0.13675,-2.62516 0.5832,-4.2159c1.95819,-6.97714 8.99564,-9.10918 15.32176,-9.10918c0,0 13.13762,6.24786 16.58946,13.8427c0,0 5.24871,5.55095 5.44962,14.35541c0.06697,2.93482 -4.88074,12.76993 -5.72582,21.92906c0,0 -0.32101,10.25354 -3.20514,16.2864c-3.49286,7.30618 -11.44507,14.83777 -13.32087,17.76674z" data-paper-data="{&quot;origPos&quot;:null}" fill="#363b3e" stroke="#000000" stroke-width="0" stroke-linecap="butt" transform="matrix(1,0,0,1,36.56183,1.75)"/><path d="M194.82866,376.80512l-29.51272,-1.29241c-9.53327,0 8.51568,-121.19492 8.51568,-121.19492c0,0 -6.54127,-143.61865 2.992,-143.61865c5.65236,0 16.03741,1.95392 16.03741,1.95392l11.35085,141.66473z" data-paper-data="{&quot;origPos&quot;:null}" fill="#33373a" stroke="none" stroke-width="0" stroke-linecap="butt" transform="matrix(1,0,0,1,36.56183,1.75)"/></g></g></svg>