<svg version="1.1" xmlns="http://www.w3.org/2000/svg" xmlns:xlink="http://www.w3.org/1999/xlink" width="11.45233" height="26.0677" viewBox="0,0,11.45233,26.0677"><g transform="translate(-251.6341,-170.73416)"><g data-paper-data="{&quot;isPaintingLayer&quot;:true}" fill-rule="nonzero" stroke-linecap="butt" stroke-linejoin="miter" stroke-miterlimit="10" stroke-dasharray="" stroke-dashoffset="0" style="mix-blend-mode: normal"><path d="M255.25015,178.44697l6.98207,0.09576l-0.2504,18.25913c0,0 -2.10656,-0.00245 -4.35764,-0.5132c-2.82608,-0.64123 -5.02442,-2.78303 -5.02442,-2.78303c0,0 2.90485,-1.06762 2.65022,-2.49617c-0.25463,-1.42855 -3.61586,-2.92144 -3.61586,-2.92144c0,0 3.18432,-1.0429 3.1903,-2.8177c0.00596,-1.77479 -3.17034,-3.12215 -3.17034,-3.12215c0,0 2.21979,-1.08935 2.99486,-1.76153c0.59707,-0.51782 0.60121,-1.93971 0.60121,-1.93971z" data-paper-data="{&quot;index&quot;:null}" fill="#cccccc" stroke="none" stroke-width="0"/><path d="M254.81417,178.79765c0,0 -0.79795,-4.4662 1.20775,-6.33248c2.00556,-1.86629 4.01327,-1.42167 5.51662,0.07565c1.50335,1.49719 0.9474,6.362 0.9474,6.362z" data-paper-data="{&quot;index&quot;:null}" fill="#989898" stroke="#4d4d4d" stroke-width="1"/></g></g></svg>