<svg version="1.1" xmlns="http://www.w3.org/2000/svg" xmlns:xlink="http://www.w3.org/1999/xlink" width="45.87692" height="45.48968" viewBox="0,0,45.87692,45.48968"><g transform="translate(-217.06287,-157.29356)"><g data-paper-data="{&quot;isPaintingLayer&quot;:true}" fill-rule="nonzero" stroke-linecap="butt" stroke-linejoin="miter" stroke-miterlimit="10" stroke-dasharray="" stroke-dashoffset="0" style="mix-blend-mode: normal"><path d="M217.81287,180.23106c0,-2.98721 0.11539,-6.26399 0.8569,-9.1611c0.90825,-1.11005 1.50452,-2.48527 1.65498,-3.99181c0.04116,-0.06446 0.08299,-0.12838 0.1255,-0.19174c2.67572,-3.98877 7.11315,-6.27729 12.06821,-7.47783c0.67259,0.19795 1.38447,0.30416 2.12115,0.30416c1.77106,0 3.39874,-0.61388 4.68187,-1.64046c0.2264,-0.01846 0.45272,-0.02871 0.67888,-0.02871c2.38463,0 8.19547,0.29447 11.34896,0.96747c1.23926,2.02499 3.41235,3.41646 5.92022,3.57538c1.81445,2.18433 2.69014,5.02088 3.34943,8.13244c0.62057,2.92883 1.5384,5.89177 1.56814,9.34041c-1.33462,1.35406 -2.15825,3.21313 -2.15825,5.26457c0,1.52099 0.45276,2.93623 1.23085,4.1183c-0.02427,0.06619 -0.04917,0.13148 -0.07473,0.19583c-1.40341,3.53421 -4.68078,5.17323 -7.69383,7.28534c-1.21098,0.84888 -2.44056,1.92924 -3.71542,2.90173c-0.04516,-0.0008 -0.09041,-0.0012 -0.13576,-0.0012c-1.60084,0 -3.08453,0.50154 -4.30253,1.35607c-1.06548,-0.58128 -2.28753,-0.91163 -3.58673,-0.91163c-1.79832,0 -3.44882,0.63292 -4.74088,1.68816c-0.86447,-0.24073 -1.71328,-0.5362 -2.61486,-0.78604c-2.46346,-0.68267 -6.45129,-0.9958 -8.96702,-2.1829c-0.74939,-1.18507 -1.8217,-2.14563 -3.09328,-2.75804c-0.92884,-1.34577 -1.54316,-2.9099 -2.07646,-4.54286c0.06838,-0.40703 0.10398,-0.82519 0.10398,-1.25165c0,-1.45186 -0.41254,-2.80736 -1.12678,-3.95568c0.01039,-0.16158 0.01567,-0.32455 0.01567,-0.48876c0,-1.6196 -0.51337,-3.1193 -1.38627,-4.34525c-0.03379,-0.4657 -0.05196,-0.93686 -0.05196,-1.4142z" fill="#6b726e" stroke="#474c49" stroke-width="1.5"/><path d="M243.36184,168.8016c0,-2.07107 1.67893,-3.75 3.75,-3.75c2.07107,0 3.75,1.67893 3.75,3.75c0,2.07107 -1.67893,3.75 -3.75,3.75c-2.07107,0 -3.75,-1.67893 -3.75,-3.75z" fill="#474c49" stroke="none" stroke-width="0.5"/><path d="M224.52851,178.91271c0,-2.07107 1.67893,-3.75 3.75,-3.75c2.07107,0 3.75,1.67893 3.75,3.75c0,2.07107 -1.67893,3.75 -3.75,3.75c-2.07107,0 -3.75,-1.67893 -3.75,-3.75z" fill="#474c49" stroke="none" stroke-width="0.5"/><path d="M242.91739,189.32938c0,-2.07107 1.67893,-3.75 3.75,-3.75c2.07107,0 3.75,1.67893 3.75,3.75c0,2.07107 -1.67893,3.75 -3.75,3.75c-2.07107,0 -3.75,-1.67893 -3.75,-3.75z" fill="#474c49" stroke="none" stroke-width="0.5"/></g></g></svg>