<svg xmlns="http://www.w3.org/2000/svg" xmlns:xlink="http://www.w3.org/1999/xlink" version="1.1" width="497.26285" height="285.35757" viewBox="0,0,497.26285,285.35757"><g><g data-paper-data="{&quot;isPaintingLayer&quot;:true}" fill-rule="nonzero" stroke-linecap="butt" stroke-linejoin="miter" stroke-miterlimit="10" stroke-dasharray="" stroke-dashoffset="0" style="mix-blend-mode: normal"><path d="M-4.42214,365.4837v-26.61266h488.92956v26.61266z" data-paper-data="{&quot;origPos&quot;:null}" fill="#000000" stroke="none" stroke-width="NaN" transform="matrix(1,0,0,1,8.45809,-80.12613)"/><g data-paper-data="{&quot;origRot&quot;:0,&quot;origPos&quot;:null}"><path d="M 241.6799 219.2465 L 241.8066 257.4663 L 202.8068 257.5956 L 202.6801 219.3758 Z " data-paper-data="{&quot;origPos&quot;:null}" stroke-width="5" fill="#0054ff" stroke="#569eff"/><path d="M 198.6801 219.3891 L 198.8068 257.6089 L 159.8071 257.7382 L 159.6803 219.5184 Z " data-paper-data="{&quot;origPos&quot;:null}" stroke-width="5" fill="#0054ff" stroke="#569eff"/><path d="M 155.6804 219.5317 L 155.8071 257.7514 L 116.8073 257.8807 L 116.6806 219.661 Z " data-paper-data="{&quot;origPos&quot;:null}" stroke-width="5" fill="#0054ff" stroke="#569eff"/><path d="M 112.6806 219.6742 L 112.8073 257.894 L 73.8075 258.0233 L 73.6808 219.8035 Z " data-paper-data="{&quot;origPos&quot;:null}" stroke-width="5" fill="#0054ff" stroke="#569eff"/></g><g data-paper-data="{&quot;origPos&quot;:null,&quot;origRot&quot;:0}"><path d="M 376.0649 90.2752 L 414.2828 89.874 L 414.6921 128.8719 L 376.4742 129.273 Z " data-paper-data="{&quot;origPos&quot;:null}" stroke-width="5" fill="#ff9e00" stroke="#ff7500"/><path d="M 418.0626 89.8344 L 456.2805 89.4333 L 456.6898 128.4311 L 418.4719 128.8322 Z " data-paper-data="{&quot;origPos&quot;:null}" stroke-width="5" fill="#ff9e00" stroke="#ff7500"/><path d="M 460.0603 89.3936 L 494.3275 88.9925 L 494.7368 127.9903 L 460.4696 128.3914 Z " data-paper-data="{&quot;origPos&quot;:null}" stroke-width="5" fill="#ff9e00" stroke="#ff7500"/><path d="M 459.609 46.396 L 493.8762 45.9948 L 494.2855 84.9927 L 460.0183 85.3938 Z " data-paper-data="{&quot;origPos&quot;:null}" stroke-width="5" fill="#ff9e00" stroke="#ff7500"/></g><g data-paper-data="{&quot;origPos&quot;:null,&quot;origRot&quot;:0,&quot;index&quot;:null}"><path d="M 412.6919 257.7527 L 374.472 257.6761 L 374.5502 218.6762 L 412.7701 218.7528 Z " data-paper-data="{&quot;origPos&quot;:null}" stroke-width="5" fill="#00ff1c" stroke="#00b002"/><path d="M 370.692 257.6685 L 332.4721 257.5919 L 332.5503 218.592 L 370.7702 218.6686 Z " data-paper-data="{&quot;origPos&quot;:null}" stroke-width="5" fill="#00ff1c" stroke="#00b002"/><path d="M 328.6921 257.5843 L 290.4721 257.5077 L 290.5503 218.5078 L 328.7703 218.5844 Z " data-paper-data="{&quot;origPos&quot;:null}" stroke-width="5" fill="#00ff1c" stroke="#00b002"/><path d="M 328.7783 214.5844 L 290.5584 214.5078 L 290.6365 175.5079 L 328.8565 175.5845 Z " data-paper-data="{&quot;origPos&quot;:null}" stroke-width="5" fill="#00ff1c" stroke="#00b002"/></g><g data-paper-data="{&quot;origPos&quot;:null}"><path d="M 70.6919 41.7527 L 32.472 41.6761 L 32.5502 2.6762 L 70.7701 2.7528 Z " data-paper-data="{&quot;origPos&quot;:null}" stroke-width="5" fill="#faff00" stroke="#ffe600"/><path d="M 70.692 84.6685 L 32.472 84.5919 L 32.5502 45.592 L 70.7702 45.6686 Z " data-paper-data="{&quot;origPos&quot;:null}" stroke-width="5" fill="#faff00" stroke="#ffe600"/><path d="M 28.6921 84.5843 L 4.2996 84.5077 L 4.3778 45.5078 L 28.7702 45.5844 Z " data-paper-data="{&quot;origPos&quot;:null}" stroke-width="5" fill="#faff00" stroke="#ffe600"/><path d="M 28.7783 41.5844 L 4.3858 41.5078 L 4.464 2.5079 L 28.8565 2.5845 Z " data-paper-data="{&quot;origPos&quot;:null}" stroke-width="5" fill="#faff00" stroke="#ffe600"/></g><g data-paper-data="{&quot;origRot&quot;:0,&quot;origPos&quot;:null}"><path d="M 156.6799 89.2465 L 156.8066 127.4663 L 117.8068 127.5956 L 117.6801 89.3758 Z " data-paper-data="{&quot;origPos&quot;:null}" stroke-width="5" fill="#ff0000" stroke="#800000"/><path d="M 113.6801 89.3891 L 113.8068 127.6089 L 74.8071 127.7382 L 74.6803 89.5184 Z " data-paper-data="{&quot;origPos&quot;:null}" stroke-width="5" fill="#ff0000" stroke="#800000"/><path d="M 70.6804 89.5316 L 70.8071 127.7514 L 31.8073 127.8807 L 31.6806 89.661 Z " data-paper-data="{&quot;origPos&quot;:null}" stroke-width="5" fill="#ff0000" stroke="#800000"/><path d="M 27.6806 89.6742 L 27.8073 127.894 L 2.635 128.0233 L 2.5083 89.8035 Z " data-paper-data="{&quot;origPos&quot;:null}" stroke-width="5" fill="#ff0000" stroke="#800000"/></g><g><path d="M 241.8308 177.2161 L 241.8183 215.4361 L 202.8183 215.4234 L 202.8308 177.2034 Z " data-paper-data="{&quot;origPos&quot;:null}" stroke-width="5" fill="#db00ff" stroke="#ff00db"/><g><path d="M 285.4582 135.2302 L 285.4457 173.4502 L 246.4457 173.4375 L 246.4582 135.2174 Z " data-paper-data="{&quot;origPos&quot;:null}" stroke-width="5" fill="#db00ff" stroke="#ff00db"/><path d="M 285.4445 177.2302 L 285.432 215.4502 L 246.432 215.4374 L 246.4445 177.2174 Z " data-paper-data="{&quot;origPos&quot;:null}" stroke-width="5" fill="#db00ff" stroke="#ff00db"/><path d="M 285.4308 219.2302 L 285.4183 257.4502 L 246.4183 257.4374 L 246.4308 219.2174 Z " data-paper-data="{&quot;origPos&quot;:null}" stroke-width="5" fill="#db00ff" stroke="#ff00db"/></g></g></g></g></svg>