<svg xmlns="http://www.w3.org/2000/svg" xmlns:xlink="http://www.w3.org/1999/xlink" version="1.1" width="89.29089" height="160.11852" viewBox="0,0,89.29089,160.11852"><g><g data-paper-data="{&quot;isPaintingLayer&quot;:true}" fill-rule="nonzero" stroke-linejoin="miter" stroke-miterlimit="10" stroke-dasharray="" stroke-dashoffset="0" style="mix-blend-mode: normal"><path d="M 27.7858 52.1527 L 27.7858 119.4497 L 15.7382 158.3685 " data-paper-data="{&quot;origPos&quot;:null}" fill="none" stroke="#000000" stroke-width="3.5" stroke-linecap="round"/><path d="M 40.6367 158.1717 L 28.589 118.013 " fill="none" stroke="#000000" stroke-width="3.5" stroke-linecap="round"/><path d="M 3.6906 29.2622 C 3.6906 15.2894 15.0178 3.9622 28.9906 3.9622 C 42.9634 3.9622 54.2906 15.2894 54.2906 29.2622 C 54.2906 43.235 42.9634 54.5622 28.9906 54.5622 C 15.0178 54.5622 3.6906 43.235 3.6906 29.2622 Z " data-paper-data="{&quot;origPos&quot;:null}" fill="#d4d4d4" stroke="#000000" stroke-width="2.5" stroke-linecap="butt"/><path d="M238.35026,110.61288c0,-2.66149 2.15756,-4.81905 4.81905,-4.81905c2.66149,0 4.81905,2.15756 4.81905,4.81905c0,2.66149 -2.15756,4.81905 -4.81905,4.81905c-2.66149,0 -4.81905,-2.15756 -4.81905,-4.81905z" data-paper-data="{&quot;origPos&quot;:null}" fill="#000000" stroke="none" stroke-width="0" stroke-linecap="butt" transform="matrix(1,0,0,1,-213.77709,-85.69075)"/><path d="M252.00419,110.37234c0,-2.66148 2.15757,-4.81905 4.81905,-4.81905c2.66148,0 4.81905,2.15757 4.81905,4.81905c0,2.66148 -2.15757,4.81905 -4.81905,4.81905c-2.66148,0 -4.81905,-2.15757 -4.81905,-4.81905z" data-paper-data="{&quot;origPos&quot;:null}" fill="#000000" stroke="none" stroke-width="0" stroke-linecap="butt" transform="matrix(1,0,0,1,-213.77709,-85.69075)"/><path d="M 25.0327 18.3969 L 34.1597 22.0476 " fill="none" stroke="#000000" stroke-width="2.5" stroke-linecap="round"/><path d="M 28.6505 60.73 L 56.1378 59.8884 " data-paper-data="{&quot;index&quot;:null}" fill="none" stroke="#000000" stroke-width="3.5" stroke-linecap="round"/><path d="M 49.8575 15.0522 C 49.8575 16.4329 48.7765 17.5522 47.4431 17.5522 C 46.351 17.5522 45.4282 16.8014 45.13 15.771 L 43.747 16.5894 L 43.5718 16.2718 L 43.0227 16.8702 C 41.083 16.694 39.1809 16.3629 37.2963 15.9725 C 35.9771 16.1304 34.5718 16.1307 32.9736 16.2756 C 26.5574 16.8576 18.2508 15.0402 12.0284 17.5305 L 10.444 18.4679 C 10.2394 18.5943 10.0151 18.6902 9.7771 18.7496 L 9.1286 19.2692 C 9.1286 19.2692 7.1971 20.7692 5.7485 18.7692 C 4.2999 16.7692 6.2314 15.2692 6.2314 15.2692 L 7.5693 14.2521 L 8.3366 12.8617 L 8.4235 12.9131 C 8.4885 12.7479 8.5608 12.5853 8.6415 12.4259 C 9.3022 11.1211 10.7516 10.2939 12.3522 9.7526 C 15.1087 8.0276 17.9758 5.9149 20.9124 4.7895 C 26.8031 2.5319 33.0442 4.6314 38.7967 5.962 C 40.528 6.3625 42.224 6.9357 43.8787 7.5977 C 45.0926 8.0834 46.9212 7.8784 47.5109 9.0796 C 48.2608 10.6071 48.5307 11.8195 48.4397 12.7744 C 49.2759 13.1673 49.8575 14.0394 49.8575 15.0522 Z " fill="#000000" stroke="none" stroke-width="0.5" stroke-linecap="butt"/><path d="M 3.6503 1.75 L 10.9348 10.3014 " fill="none" stroke="#000000" stroke-width="3.5" stroke-linecap="round"/><path d="M 7.451 13.1519 L 1.75 9.3512 " fill="none" stroke="#000000" stroke-width="3.5" stroke-linecap="round"/><path d="M 39.0303 21.958 L 45.9668 18.6723 " data-paper-data="{&quot;origPos&quot;:null}" fill="none" stroke="#000000" stroke-width="2.5" stroke-linecap="round"/><g><path d="M239.92271,93.52718c0,-1.90246 1.86508,-3.44469 4.16577,-3.44469c2.30069,0 4.16578,1.54223 4.16578,3.44469c0,1.90246 -1.86508,3.44469 -4.16578,3.44469c-2.30069,0 -4.16577,-1.54224 -4.16577,-3.44469z" data-paper-data="{&quot;origPos&quot;:null}" fill="#ffffff" stroke="none" stroke-width="0" stroke-linecap="butt" transform="matrix(1,0,0,1,-213.77709,-85.69075)"/><path d="M244.71914,92.69456c0,-0.63752 0.53312,-1.15434 1.19076,-1.15434c0.65763,0 1.19075,0.51682 1.19075,1.15434c0,0.63752 -0.53312,1.15433 -1.19075,1.15433c-0.65763,0 -1.19076,-0.51681 -1.19076,-1.15433z" data-paper-data="{&quot;origPos&quot;:null}" fill="#000000" stroke="none" stroke-width="0" stroke-linecap="butt" transform="matrix(1,0,0,1,-213.77709,-85.69075)"/><path d="M241.79323,92.69456c0,-0.63752 0.53313,-1.15434 1.19076,-1.15434c0.65763,0 1.19075,0.51682 1.19075,1.15434c0,0.63752 -0.53312,1.15433 -1.19075,1.15433c-0.65763,0 -1.19076,-0.51681 -1.19076,-1.15433z" data-paper-data="{&quot;origPos&quot;:null}" fill="#000000" stroke="none" stroke-width="0" stroke-linecap="butt" transform="matrix(1,0,0,1,-213.77709,-85.69075)"/><path d="M241.45305,99.5876v-2.90234c0,0 1.60782,0.65963 2.59911,0.65963c1.10655,0 2.77633,-0.65963 2.77633,-0.65963v2.90234z" data-paper-data="{&quot;origPos&quot;:null}" fill="#ffffff" stroke="none" stroke-width="0" stroke-linecap="butt" transform="matrix(1,0,0,1,-213.77709,-85.69075)"/><path d="M 28.6966 13.1053 L 28.6966 11.3903 " data-paper-data="{&quot;origPos&quot;:null}" fill="none" stroke="#000000" stroke-width="0.5" stroke-linecap="round"/><path d="M 32.1668 12.9734 L 32.1668 11.2584 " data-paper-data="{&quot;origPos&quot;:null}" fill="none" stroke="#000000" stroke-width="0.5" stroke-linecap="round"/><path d="M 30.4657 11.7201 L 30.4657 12.9734 " data-paper-data="{&quot;origPos&quot;:null}" fill="none" stroke="#000000" stroke-width="0.5" stroke-linecap="round"/></g><g><path d="M290.91154,139.88613v-0.86957h11.52174v0.86957z" fill="#a18066" stroke="none" stroke-width="0" stroke-linecap="butt" transform="matrix(1,0,0,1,-213.77709,-85.69075)"/><path d="M267.18856,149.92214c0,-1.1506 0.93274,-2.08334 2.08334,-2.08334c1.1506,0 2.08333,0.93274 2.08333,2.08334c0,1.1506 -0.93273,2.08333 -2.08333,2.08333c-1.1506,0 -2.08334,-0.93274 -2.08334,-2.08333z" fill="#bbac69" stroke="none" stroke-width="0" stroke-linecap="butt" transform="matrix(1,0,0,1,-213.77709,-85.69075)"/><path d="M303.06798,137.16444v1.98271h-11.80861l-0.08217,0.77257l-7.90922,0.07515v-2.83043z" data-paper-data="{&quot;index&quot;:null}" fill="#bbac69" stroke="none" stroke-width="0" stroke-linecap="butt" transform="matrix(1,0,0,1,-213.77709,-85.69075)"/><path d="M266.96798,150.82096c-1.22644,-1.70784 -1.28017,-7.45021 0.71979,-10.54116c2.40909,-3.72328 16.48021,-3.35884 16.48021,-3.35884l0.48228,2.90935l14.77373,-0.03277l-0.00876,0.22705c0,0 -5.08626,0.91912 -5.84724,1.69637c-2.18509,2.23183 -20.64061,0.666 -21.77925,1.83252c-1.15682,1.18515 0.77576,3.75797 -0.04426,5.50343c-0.15684,0.33385 -0.26396,0.41279 -0.26396,0.41279l-3.98921,1.6431c0,0 -0.22722,0.1205 -0.52333,-0.29183z" fill="#a04900" stroke="none" stroke-width="0" stroke-linecap="butt" transform="matrix(1,0,0,1,-213.77709,-85.69075)"/><path d="M272.30132,142.80985l1.47777,-4.58889l7.9,-0.1c0,0 0.49976,0.75504 0.85201,1.03443c0.35544,0.28193 1.27115,0.64961 1.27115,0.64961l1.37683,1.51596c0,0 -5.21337,0.24404 -7.48543,0.4643c-1.8366,0.17805 -5.39234,1.02459 -5.39234,1.02459z" fill="#b6b6b6" stroke="none" stroke-width="0" stroke-linecap="butt" transform="matrix(1,0,0,1,-213.77709,-85.69075)"/><path d="M276.68138,139.75952c0,-0.35736 0.2897,-0.64706 0.64706,-0.64706c0.35736,0 0.64706,0.2897 0.64706,0.64706c0,0.35736 -0.28969,0.64705 -0.64706,0.64705c-0.35736,0 -0.64706,-0.28969 -0.64706,-0.64705z" fill="#757575" stroke="none" stroke-width="0" stroke-linecap="butt" transform="matrix(1,0,0,1,-213.77709,-85.69075)"/><path d="M277.13564,140.74877c0,0 0.85621,-0.43073 0.70137,-1.19479c-0.09158,-0.45191 -0.94949,-0.28866 -1.32108,-1.14554c-0.59638,-1.37524 -0.89541,-2.93675 -0.89541,-2.93675l1.30357,0.68935c0,0 0.27546,0.62625 0.51523,2.04353c0.1419,0.83878 0.93746,0.76233 0.89767,1.16518c-0.11446,1.15924 -1.20135,1.37902 -1.20135,1.37902z" fill="#898989" stroke="none" stroke-width="0" stroke-linecap="butt" transform="matrix(1,0,0,1,-213.77709,-85.69075)"/><path d="M 66.8559 52.9444 L 65.3559 50.3888 C 65.3559 50.3888 66.4825 49.9581 66.9385 49.6073 C 67.441 49.2208 68.2448 48.1666 68.2448 48.1666 " fill="none" stroke="#898989" stroke-width="0.5" stroke-linecap="round"/></g><path d="M 56.8505 61.5415 L 27.9806 65.3785 " data-paper-data="{&quot;index&quot;:null}" fill="none" stroke="#000000" stroke-width="3.5" stroke-linecap="round"/></g></g></svg>