<svg xmlns="http://www.w3.org/2000/svg" xmlns:xlink="http://www.w3.org/1999/xlink" version="1.1" width="55.35439" height="85.53423" viewBox="0,0,55.35439,85.53423"><g><g data-paper-data="{&quot;isPaintingLayer&quot;:true}" fill-rule="nonzero" stroke-linejoin="miter" stroke-miterlimit="10" stroke-dasharray="" stroke-dashoffset="0" style="mix-blend-mode: normal"><g stroke-linecap="round"><g data-paper-data="{&quot;index&quot;:null}"><path d="M 17.325 35.216 C 15.6615 25.4829 6.7414 17.8182 4.0905 11.1873 C 3.7912 8.9998 3.0754 4.0079 5.5922 2.1765 C 9.4037 0.6715 11.0499 0.9705 14.1337 2.6458 C 17.1864 4.3043 19.9172 7.2995 21.455 11.5627 C 22.9928 15.8259 23.2353 26.0502 22.112 32.6817 Z " fill="#ffffee" stroke="#000000" stroke-width="2"/><path d="M 18.6623 34.2171 C 17.632 28.1889 13.3525 18.9104 12.4664 17.3615 C 11.7578 16.1229 6.8977 5.9179 9.3285 4.9581 C 11.6891 4.026 17.1545 10.7462 19.2576 17.6755 C 20.21 20.3158 21.6859 28.9383 20.9902 33.0455 Z " fill="#dd77bb" stroke="#cb6eac" stroke-width="1"/></g><g data-paper-data="{&quot;index&quot;:null}"><path d="M 33.0939 31.4116 C 33.0939 31.4116 31.557 25.7137 29.8693 20.2189 C 28.9899 17.3559 27.5909 14.4796 27.3683 12.6391 C 26.9462 9.15 26.1303 0.951 31.3105 1.0002 C 32.6507 0.8172 38.1682 3.6367 40.6967 13.2023 C 42.181 24.3526 36.9422 31.8809 36.9422 31.8809 Z " fill="#ffffee" stroke="#000000" stroke-width="2"/><path d="M 34.7303 30.8208 C 34.7303 30.8208 34.0032 23.5137 33.1416 18.1116 C 32.2801 12.7095 29.999 5.8991 31.2551 4.4095 C 32.4112 3.0386 36.6747 8.2593 37.3118 11.8563 C 37.9489 15.4534 35.5246 30.7215 35.5246 30.7215 Z " fill="#dd77bb" stroke="#cb6eac" stroke-width="1"/></g></g><g><g data-paper-data="{&quot;index&quot;:null}" stroke-linecap="butt"><path d="M 22.6677 53.8437 C 22.6677 56.5722 17.8172 58.7842 11.8339 58.7842 C 5.8505 58.7842 1 56.5722 1 53.8437 C 1 51.1151 5.8505 48.9031 11.8339 48.9031 C 17.8172 48.9031 22.6677 51.1151 22.6677 53.8437 Z " fill="#99712c" stroke="#b28434" stroke-width="2"/><path d="M225.49223,197.37944l0.04724,-8.8811c0,0 5.70566,0.33263 7.84183,2.55096c2.13616,2.21832 0.7086,6.33015 0.7086,6.33015z" fill="#a77c31" stroke="none" stroke-width="0" transform="matrix(1,0,0,1,-212.32281,-138.56622)"/></g><g stroke-linecap="butt"><path d="M 10.8538 60.0417 C 7.5527 62.2925 4.8788 61.1134 3.155 58.5853 C 1.4312 56.0572 1.3103 53.1373 4.6113 50.8865 C 7.9124 48.6356 13.404 47.8081 15.1278 50.3363 C 16.8516 52.8644 14.1549 57.7909 10.8538 60.0417 Z " data-paper-data="{&quot;index&quot;:null}" fill="#ffffee" stroke="#000000" stroke-width="1"/><path d="M 10.8034 58.5967 C 9.6501 59.383 8.2744 59.3739 7.7306 58.5763 C 7.1867 57.7788 7.6808 56.4948 8.834 55.7084 C 9.9873 54.9221 11.363 54.9312 11.9068 55.7288 C 12.4507 56.5263 11.9566 57.8103 10.8034 58.5967 Z " data-paper-data="{&quot;index&quot;:null}" fill="#80ab52" stroke="#548029" stroke-width="1"/><path d="M 9.0952 51.679 C 7.8278 52.0389 5.5047 51.5414 5.3158 50.8763 C 5.1269 50.2112 7.0516 49.5789 8.319 49.219 C 9.5864 48.8591 11.6647 48.4944 11.8535 49.1595 C 12.0424 49.8246 10.3626 51.3191 9.0952 51.679 Z " data-paper-data="{&quot;index&quot;:null}" fill="#80ab52" stroke="#548029" stroke-width="1"/><path d="M 5.1421 57.2537 C 4.3769 57.7755 3.1196 58.103 2.4215 57.079 C 1.7233 56.0551 1.8096 54.0942 2.6387 53.4146 C 3.355 52.8274 4.5654 53.4311 5.2636 54.4551 C 5.9617 55.479 5.9074 56.732 5.1421 57.2538 Z " data-paper-data="{&quot;index&quot;:null}" fill="#80ab52" stroke="#548029" stroke-width="1"/><path d="M 14.9175 54.1905 C 14.2709 54.6315 13.4487 54.5521 13.0813 54.0132 C 12.7139 53.4743 12.9402 52.6799 13.5869 52.239 C 14.2336 51.7981 15.0557 51.8775 15.4231 52.4164 C 15.7906 52.9553 15.5642 53.7496 14.9175 54.1905 Z " data-paper-data="{&quot;index&quot;:null}" fill="#80ab52" stroke="#548029" stroke-width="1"/><path d="M 10.8538 60.0417 C 7.5527 62.2925 4.8788 61.1134 3.155 58.5853 C 1.4312 56.0571 1.3103 53.1373 4.6113 50.8865 C 7.9124 48.6356 13.404 47.8081 15.1278 50.3363 C 16.8516 52.8644 14.1549 57.7909 10.8538 60.0417 Z " data-paper-data="{&quot;index&quot;:null}" fill="none" stroke="#000000" stroke-width="1"/></g><g stroke-linecap="butt"><path d="M 21.2289 46.4947 C 21.6016 50.4727 19.276 52.2423 16.2294 52.5277 C 13.1828 52.8132 10.569 51.5063 10.1963 47.5283 C 9.8236 43.5503 11.7564 38.3439 14.8029 38.0585 C 17.8495 37.7731 20.8562 42.5167 21.2289 46.4947 Z " data-paper-data="{&quot;index&quot;:null}" fill="#ffffee" stroke="#000000" stroke-width="1"/><path d="M 15.4377 44.7277 C 15.6395 46.8814 14.6886 48.7317 13.3139 48.8605 C 11.9392 48.9893 9.79 49.4382 10.267 45.1494 C 10.5061 42.9995 11.2086 41.1901 12.5832 41.0613 C 13.9579 40.9325 15.2359 42.574 15.4377 44.7277 Z " fill="#ff0000" stroke="#de0000" stroke-width="1"/><path d="M 20.3936 43.3532 C 20.4918 44.4014 19.0301 43.889 18.2224 43.9647 C 17.4148 44.0403 16.6805 43.2519 16.5823 42.2037 C 16.4841 41.1555 16.5186 39.1652 17.3263 39.0895 C 18.1339 39.0138 20.2954 42.305 20.3936 43.3532 Z " fill="#ff0000" stroke="#de0000" stroke-width="1"/><path d="M 21.0389 48.5657 C 21.1435 49.6827 20.4274 50.6632 19.4393 50.7557 C 18.4513 50.8483 17.5654 50.0179 17.4608 48.901 C 17.3562 47.784 18.0723 46.8035 19.0604 46.711 C 20.0484 46.6184 20.9342 47.4488 21.0389 48.5657 Z " fill="#ff0000" stroke="#de0000" stroke-width="1"/><path d="M 21.2296 46.5018 C 21.6023 50.4798 19.2767 52.2495 16.2301 52.5349 C 13.1835 52.8203 10.5697 51.5134 10.197 47.5354 C 9.8243 43.5574 11.7571 38.351 14.8036 38.0656 C 17.8502 37.7802 20.8569 42.5238 21.2296 46.5018 Z " data-paper-data="{&quot;index&quot;:null}" fill="none" stroke="#000000" stroke-width="1"/></g><g stroke-linecap="butt"><path d="M 13.777 50.7652 C 12.5352 54.5627 9.6973 55.2603 6.7889 54.3093 C 3.8806 53.3582 2.0031 51.1188 3.2449 47.3212 C 4.4866 43.5237 8.3323 39.5171 11.2407 40.4681 C 14.149 41.4191 15.0188 46.9676 13.777 50.7652 Z " data-paper-data="{&quot;index&quot;:null}" fill="#ffffee" stroke="#000000" stroke-width="1"/><path d="M 8.1269 47.0124 C 7.397 47.7974 6.4003 48.0573 5.9008 47.5929 C 5.4012 47.1284 5.5878 46.1155 6.3177 45.3304 C 7.0476 44.5453 8.0443 44.2854 8.5438 44.7499 C 9.0434 45.2143 8.8568 46.2273 8.1269 47.0124 Z " data-paper-data="{&quot;index&quot;:null}" fill="#4848ab" stroke="#3b3b8d" stroke-width="1"/><path d="M 12.7944 52.6345 C 12.3016 53.5201 11.6084 54.1773 10.8489 53.929 C 10.0894 53.6806 9.729 52.6984 10.044 51.7351 C 10.359 50.7718 11.0289 50.3488 11.9895 50.4406 C 14.8219 50.7112 13.156 51.9846 12.7944 52.6345 Z " data-paper-data="{&quot;index&quot;:null}" fill="#4848ab" stroke="#3b3b8d" stroke-width="1"/><path d="M 4.7096 49.768 C 5.3209 49.9679 5.6593 50.6105 5.4655 51.2032 C 5.2717 51.796 4.619 52.1145 4.0077 51.9146 C 3.3964 51.7147 3.0579 51.0721 3.2518 50.4794 C 3.4456 49.8866 4.0983 49.5681 4.7096 49.768 Z " data-paper-data="{&quot;index&quot;:null}" fill="#4848ab" stroke="#3b3b8d" stroke-width="1"/><path d="M 12.1369 41.6663 C 12.8187 41.3856 13.508 42.3443 13.9008 43.9661 C 14.012 44.4252 14.9435 46.2364 12.3165 46.9446 C 11.6046 47.1365 11.0121 46.3284 10.9258 44.9412 C 10.8395 43.554 11.4552 41.9471 12.1369 41.6664 Z " data-paper-data="{&quot;index&quot;:null}" fill="#4848ab" stroke="#3b3b8d" stroke-width="1"/><path d="M 13.777 50.7652 C 12.5352 54.5627 9.6973 55.2603 6.7889 54.3092 C 3.8806 53.3582 2.0031 51.1188 3.2449 47.3212 C 4.4866 43.5237 8.3323 39.5171 11.2407 40.4681 C 14.149 41.4191 15.0187 46.9676 13.777 50.7652 Z " data-paper-data="{&quot;index&quot;:null}" fill="none" stroke="#000000" stroke-width="1"/></g><g stroke-linecap="butt"><path d="M 22.6392 56.483 C 22.6392 60.4785 20.1586 62.0235 17.0987 62.0235 C 14.0388 62.0235 11.5583 60.4785 11.5583 56.483 C 11.5583 52.4876 13.9682 47.4842 17.0282 47.4842 C 20.0881 47.4842 22.6392 52.4876 22.6392 56.483 Z " data-paper-data="{&quot;index&quot;:null}" fill="#ffffee" stroke="#000000" stroke-width="1"/><path d="M 15.868 55.4708 C 15.72 58.6243 13.9766 59.0795 12.6624 59.0795 C 11.3483 59.0795 11.7038 56.9082 11.6688 55.6448 C 12.0166 52.7634 13.0005 49.6448 14.0537 50.8187 C 14.9314 51.7968 15.9907 52.8563 15.868 55.4708 Z " fill="#f3f348" stroke="#d6d841" stroke-width="1"/><path d="M 22.196 58.8839 C 22.196 59.5442 21.0715 61.123 20.4351 61.123 C 19.7988 61.123 19.2395 59.5442 19.2395 58.8839 C 19.2395 58.2235 19.7553 57.6882 20.3917 57.6882 C 21.028 57.6882 22.196 58.2235 22.196 58.8839 Z " fill="#f3f348" stroke="#d6d841" stroke-width="1"/><path d="M 22.5439 55.123 C 22.498 56.2061 20.8483 55.1665 20.0439 55.1665 C 19.2395 55.1665 18.5874 54.2905 18.5874 53.21 C 18.5874 52.1294 19.6743 50.123 20.4787 50.123 C 21.2831 50.123 22.5876 54.0894 22.5439 55.123 Z " fill="#f3f348" stroke="#d6d841" stroke-width="1"/><path d="M 22.6392 56.4899 C 22.6392 60.4854 20.1586 62.0304 17.0987 62.0304 C 14.0388 62.0304 11.5583 60.4854 11.5583 56.4899 C 11.5583 52.4945 13.9682 47.4911 17.0281 47.4911 C 20.088 47.4911 22.6392 52.4945 22.6392 56.4899 Z " data-paper-data="{&quot;index&quot;:null}" fill="none" stroke="#000000" stroke-width="1"/></g><path d="M 22.6677 53.8789 C 23.0877 53.5678 22.6598 76.4455 19.4301 76.4353 C 18.4643 76.4323 9.0551 76.4324 7.1051 76.2172 C 3.2757 75.7944 1.7764 59.5694 1.0706 54.6553 C 0.9703 53.9573 3.1883 58.7136 12.2573 58.643 C 18.4354 58.5949 22.7599 56.2339 22.6677 53.8789 Z " data-paper-data="{&quot;index&quot;:null}" fill="#eebb44" stroke="#c7933a" stroke-width="2" stroke-linecap="butt"/><g data-paper-data="{&quot;index&quot;:null}"><path d="M225.63398,214.48029v-16.91189l8.83386,-2.26752l-1.08652,19.17941z" fill="#e1b141" stroke="none" stroke-width="0" stroke-linecap="butt" transform="matrix(1,0,0,1,-212.32281,-138.56622)"/><path d="M 10.7399 64.5011 L 16.4568 64.5011 " fill="none" stroke="#c5923a" stroke-width="2" stroke-linecap="round"/><path d="M 12.2927 68.5241 L 16.4568 68.4535 " fill="none" stroke="#c5923a" stroke-width="2" stroke-linecap="round"/><path d="M 12.9279 71.4178 L 16.5274 71.4178 " fill="none" stroke="#c5923a" stroke-width="1" stroke-linecap="round"/><path d="M 21.6796 57.302 C 21.6796 57.302 17.8278 60.1703 12.5052 60.0793 C 7.3611 59.9913 2.4583 57.6065 2.4583 57.6065 " fill="none" stroke="#b28434" stroke-width="1" stroke-linecap="round"/></g><path d="M 22.6677 53.8789 C 23.0877 53.5678 22.6598 76.4455 19.4301 76.4353 C 18.4643 76.4323 9.0551 76.4324 7.1051 76.2172 C 3.2757 75.7944 1.7764 59.5694 1.0706 54.6553 C 0.9703 53.9573 3.1883 58.7136 12.2573 58.643 C 18.4354 58.5949 22.7599 56.2339 22.6677 53.8789 Z " data-paper-data="{&quot;index&quot;:null}" fill="none" stroke="#c7933a" stroke-width="2" stroke-linecap="butt"/></g><path d="" fill="#dd77bb" stroke="none" stroke-width="0" stroke-linecap="butt" transform="matrix(1,0,0,1,-212.32281,-138.56622)"/><path d="M 46.9973 65.8715 C 48.3359 62.4606 43.7562 59.28 50.4916 60.8882 C 50.9539 60.9986 54.0749 63.4339 54.0749 66.1493 C 54.0749 68.8647 51.6311 71.4838 49.3694 70.8548 C 47.1078 70.2257 45.6586 69.2824 46.9973 65.8715 Z " data-paper-data="{&quot;index&quot;:null}" fill="#ffffee" stroke="#000000" stroke-width="2" stroke-linecap="butt"/><path d="M 45.9783 61.609 C 45.9783 61.609 44.7505 73.3349 43.2425 75.1774 C 41.8928 76.8265 37.858 77.5794 37.6614 77.5137 C 37.5566 77.4787 37.4401 78.8152 36.3958 79.2438 C 34.2273 80.0861 31.6051 80.8786 29.8445 79.9701 C 28.0839 79.0616 29.0191 77.9111 27.2096 76.6958 C 25.4001 75.4804 22.1781 75.4524 22.1553 75.3786 C 22.0141 74.9232 20.5902 65.6891 20.5902 65.6891 C 20.5902 65.6891 18.936 66.1958 17.4197 67.3171 C 15.8378 68.4869 14.4685 70.3178 13.1449 69.9484 C 10.5525 69.2249 9.1617 66.8287 10.0229 64.3989 C 10.8841 61.9691 17.3564 60.0837 17.3564 60.0837 Z " fill="#ffffee" stroke="#000000" stroke-width="2" stroke-linecap="round"/><path d="M 42.3 62.4733 C 42.3297 64.5689 44.9105 74.8411 37.6354 75.6172 C 37.24 75.6594 36.9681 74.3309 36.61 73.8602 C 36.214 73.5923 35.3319 72.6394 35.1017 72.6466 C 31.2289 72.7677 28.8891 65.6304 28.2619 63.0972 Z " data-paper-data="{&quot;index&quot;:null}" fill="#dd77bb" stroke="#cb6eac" stroke-width="1" stroke-linecap="round"/><path d="M 29.2919 69.7675 C 29.2919 69.7675 29.7491 69.1382 30.7963 69.8712 C 31.8435 70.6043 32.9232 72.3094 32.9232 72.3094 C 32.9232 72.3094 31.5528 73.843 31.6782 73.9694 C 31.8823 74.1752 33.3901 72.7244 33.3901 72.7244 C 33.3901 72.7244 35.2541 72.8054 35.8118 73.165 C 36.5282 73.6268 37.3327 75.2663 37.3327 75.2663 " fill="none" stroke="#000000" stroke-width="1" stroke-linecap="round"/><path d="M 35.3813 80.1766 C 35.5589 80.1716 35.33 82.1282 35.4851 82.3554 C 35.6629 82.6161 36.7559 82.3579 36.7819 82.5111 C 36.838 82.8407 37.3534 84.484 37.0413 84.5342 C 36.7673 84.5783 29.8492 84.7065 29.4155 84.5342 C 29.1533 84.43 29.5193 80.1766 29.5193 80.1766 C 29.5193 80.1766 34.7552 80.1945 35.3813 80.1766 Z " fill="#ffffee" stroke="#000000" stroke-width="2" stroke-linecap="round"/><path d="M 37.5082 77.7385 L 37.3007 75.6634 " fill="none" stroke="#000000" stroke-width="1.5" stroke-linecap="round"/><path d="M 20.4013 59.744 C 20.4013 59.744 22.4435 62.8045 21.6941 65.0211 C 21.2132 66.4436 20.285 66.9143 20.285 66.9143 " fill="none" stroke="#c7933a" stroke-width="2" stroke-linecap="round"/><path d="M248.84735,214.03685c0.24919,0.53185 0.61542,1.86556 -0.34258,2.81017c-1.14473,1.12875 -4.28913,1.43762 -4.53832,0.90578c-0.24919,-0.53185 0.69282,-2.40263 2.36619,-3.18668c1.67336,-0.78405 2.26551,-1.06111 2.51471,-0.52927z" fill="#dd77bb" stroke="none" stroke-width="0" stroke-linecap="butt" transform="matrix(1,0,0,1,-212.32281,-138.56622)"/><g><path d="M 26.4938 30.1177 C 31.8107 28.6593 38.4532 29.6298 40.527 30.1177 C 43.7095 30.8664 50.9234 41.4341 54.0221 45.504 C 55.5285 48.5264 55.6776 52.3481 54.3914 56.9437 C 53.0357 58.5654 51.4939 61.938 44.811 64.5335 C 42.5435 65.4142 26.1807 65.2639 23.9389 64.6838 C 11.8243 61.5488 9.8829 51.46 10.413 47.2504 C 10.9431 43.0409 10.5186 41.3821 14.3205 37.3315 C 18.1224 33.2808 21.1769 31.576 26.4938 30.1177 Z " data-paper-data="{&quot;index&quot;:null}" fill="#ffffee" stroke="#000000" stroke-width="2" stroke-linecap="round"/><path d="M 42.8216 48.7335 C 42.8216 46.1612 45.0931 44.3555 47.6653 44.3555 C 50.2375 44.3555 52.2761 46.7667 52.2761 49.3389 C 52.2761 51.9111 49.8649 53.9032 47.2927 53.9032 C 44.7205 53.9032 42.8216 51.3057 42.8216 48.7335 Z " data-paper-data="{&quot;index&quot;:null}" fill="#dd77bb" stroke="#cb6eac" stroke-width="1" stroke-linecap="butt"/><path d="M 27.7758 48.6384 C 27.9121 49.8286 26.1604 52.4941 23.1109 52.4941 C 20.0613 52.4941 17.4306 50.4017 17.4463 48.7812 C 17.4574 47.6411 18.4906 46.5041 22.3969 46.4487 C 26.4934 46.3907 27.6567 47.5989 27.7758 48.6384 Z " data-paper-data="{&quot;index&quot;:null}" fill="#dd77bb" stroke="#cb6eac" stroke-width="1" stroke-linecap="butt"/><g data-paper-data="{&quot;index&quot;:null}" stroke-linecap="butt"><path d="M 36.7335 41.9053 C 36.7335 39.8576 38.3934 38.1977 40.441 38.1977 C 42.4887 38.1977 44.1486 39.8576 44.1486 41.9053 C 44.1486 43.9529 42.4887 45.6128 40.441 45.6128 C 38.3934 45.6128 36.7335 43.9529 36.7335 41.9053 Z " fill="#a93132" stroke="#a93132" stroke-width="1"/><path d="M255.54661,178.94706c0.12046,0.19444 -0.1839,0.7057 -0.13243,1.01848c0.05014,0.30471 0.45682,0.4112 0.51945,0.58703c0.27553,0.77342 -0.88482,1.57854 -1.25484,0.86104c-0.19169,-0.3717 -0.78225,-0.25238 -1.03959,-0.66773c-0.22655,-0.36568 -0.4402,-0.95519 -1.38788,-1.2611c-1.02701,-0.33152 -0.66797,-1.71859 -0.33347,-1.92583c0.25743,-0.15949 1.54315,-0.69565 1.84763,0.12187c0.26412,0.70912 1.43302,0.7044 1.78112,1.26626z" fill="#ffffff" stroke="#000000" stroke-width="0" transform="matrix(1,0,0,1,-212.32281,-138.56622)"/></g><g data-paper-data="{&quot;index&quot;:null}" stroke-linecap="butt"><path d="M 26.2894 43.4287 C 26.2894 42.1327 27.34 41.0821 28.636 41.0821 C 29.932 41.0821 30.9826 42.1327 30.9826 43.4287 C 30.9826 44.7247 29.932 45.7753 28.636 45.7753 C 27.34 45.7753 26.2894 44.7247 26.2894 43.4287 Z " fill="#a93132" stroke="#a93132" stroke-width="1"/><path d="M240.91578,181.50018c0,-0.55619 0.45088,-1.00707 1.00707,-1.00707c0.55619,0 1.00707,0.45088 1.00707,1.00707c0,0.55619 -0.45088,1.00707 -1.00707,1.00707c-0.29174,0 -0.13175,-0.20861 -0.31567,-0.40685c-0.16671,-0.17969 -0.69139,-0.33578 -0.69139,-0.60022z" fill="#ffffff" stroke="none" stroke-width="0" transform="matrix(1,0,0,1,-212.32281,-138.56622)"/></g><g stroke-linecap="butt"><path d="M255.62191,193.33038c0,0.42783 0.63029,3.50952 -1.21987,4.02945c-2.01585,0.5665 -4.71799,-1.0512 -5.82361,-1.0512c-0.75746,0 -1.96575,0.89388 -3.04515,1.03026c-2.54769,0.32189 -4.47691,-0.22446 -4.91137,-0.53026c-1.17391,-0.82626 -2.07278,-2.14529 -2.00953,-3.0653c0.07973,-1.15971 2.30895,-3.12419 2.24051,-2.15093c-0.08934,1.27039 -0.67352,1.95838 0.20824,2.66724c1.33813,1.07575 5.12173,1.12039 5.95226,0.80464c0.73327,-0.27877 0.02176,-3.97305 2.04331,-2.97305c0.44431,0.21979 0.17473,3.01529 0.64227,3.28584c0.50144,0.29018 2.62095,0.33648 3.85509,-0.33093c1.27773,-0.69099 2.06786,-2.0256 2.06786,-1.71578z" fill="#683b48" stroke-width="0" stroke="none" transform="matrix(1,0,0,1,-212.32281,-138.56622)"/><path d="M252.57702,190.44512c-0.13554,0.96476 -1.49675,2.10498 -4.09589,2.04626c-1.94305,-0.0439 -3.99179,-1.15437 -4.14292,-2.11682c-0.28224,-1.79745 2.76503,-1.23506 4.23701,-1.24657c1.56645,-0.01226 4.28405,-0.692 4.0018,1.31713z" fill="#de5566" stroke-width="0" stroke="none" transform="matrix(1,0,0,1,-212.32281,-138.56622)"/></g></g></g></g></svg>