<svg xmlns="http://www.w3.org/2000/svg" xmlns:xlink="http://www.w3.org/1999/xlink" version="1.1" width="53.1" height="159.0168" viewBox="0,0,53.1,159.0168"><defs><radialGradient cx="237.71429" cy="106.78571" r="15.07143" gradientUnits="userSpaceOnUse" id="color-1"><stop offset="0" stop-color="#e66843"/><stop offset="1" stop-color="#e66843" stop-opacity="0"/></radialGradient></defs><g><g data-paper-data="{&quot;isPaintingLayer&quot;:true}" fill-rule="nonzero" stroke-linejoin="miter" stroke-miterlimit="10" stroke-dasharray="" stroke-dashoffset="0" style="mix-blend-mode: normal"><g data-paper-data="{&quot;index&quot;:null}" stroke-linecap="round"><path d="M 30.5757 82.8275 C 30.5757 82.8275 28.7198 82.01 28.025 81.557 C 27.4316 81.1701 26.663 80.2766 26.663 80.2766 " stroke-width="1" fill="none" stroke="#e65943"/><path d="M 29.0024 81.7139 C 29.0024 81.7139 29.6845 81.2502 30.1718 81.1539 C 30.7257 81.0444 32.1518 81.0914 32.1518 81.0914 " stroke-width="1" fill="none" stroke="#e65943"/></g><g data-paper-data="{&quot;index&quot;:null}" stroke-linecap="round"><path d="M 13.7189 66.3901 C 13.7189 66.3901 15.7411 66.2367 16.5673 66.3089 C 17.273 66.3706 18.3719 66.7967 18.3719 66.7967 " stroke-width="1" fill="none" stroke="#e65943"/><path d="M 15.6313 66.631 C 15.6313 66.631 15.2481 67.3614 14.8637 67.6759 C 14.4266 68.0335 13.1466 68.6639 13.1466 68.6639 " stroke-width="1" fill="none" stroke="#e65943"/></g><g stroke-linecap="round"><path d="M 27.4299 57.8851 C 27.4299 57.8851 28.3377 57.1334 28.9877 56.8517 C 29.7487 56.522 31.7157 56.0279 31.7157 56.0279 " stroke-width="1" fill="none" stroke="#e65943"/><path d="M 32.9776 58.0041 C 32.9776 58.0041 31.5639 57.8108 31.0362 57.6098 C 30.5721 57.433 29.9776 56.8613 29.9776 56.8613 " stroke-width="1" fill="none" stroke="#e65943"/></g><path d="M 25.3452 51.0509 L 25.3452 118.348 L 13.2976 157.2668 " data-paper-data="{&quot;origPos&quot;:null}" fill="none" stroke="#000000" stroke-width="3.5" stroke-linecap="round"/><path d="M 38.196 157.07 L 26.1484 116.9113 " fill="none" stroke="#000000" stroke-width="3.5" stroke-linecap="round"/><path d="M 1.25 28.1605 C 1.25 14.1877 12.5772 2.8605 26.55 2.8605 C 40.5228 2.8605 51.85 14.1877 51.85 28.1605 C 51.85 42.1333 40.5228 53.4605 26.55 53.4605 C 12.5772 53.4605 1.25 42.1333 1.25 28.1605 Z " data-paper-data="{&quot;origPos&quot;:null}" fill="#e1c0b6" stroke="#000000" stroke-width="2.5" stroke-linecap="butt"/><path d="M222.64286,106.78571c0,-8.32372 6.74771,-15.07143 15.07143,-15.07143c8.32372,0 15.07143,6.74771 15.07143,15.07143c0,8.32372 -6.74771,15.07143 -15.07143,15.07143c-8.32372,0 -15.07143,-6.74771 -15.07143,-15.07143z" fill="url(#color-1)" stroke="none" stroke-width="0" stroke-linecap="butt" transform="matrix(1,0,0,1,-215.35577,-86.68635)"/><path d="M 24.0421 59.3748 L 7.8515 89.8732 " data-paper-data="{&quot;origPos&quot;:null}" fill="none" stroke="#000000" stroke-width="3.5" stroke-linecap="round"/><path d="M 26.2325 59.3748 L 41.9309 88.9462 " data-paper-data="{&quot;origPos&quot;:null,&quot;index&quot;:null}" fill="none" stroke="#000000" stroke-width="3.5" stroke-linecap="round"/><g stroke-linecap="butt"><path d="M 40.7337 37.3022 C 40.7337 40.777 37.8399 43.5939 34.2702 43.5939 C 30.7005 43.5939 27.8067 40.777 27.8067 37.3022 C 27.8067 33.8274 30.7005 31.0105 34.2702 31.0105 C 37.8399 31.0105 40.7337 33.8274 40.7337 37.3022 Z " data-paper-data="{&quot;origPos&quot;:null}" fill="#ff0000" stroke="#000000" stroke-width="1"/><path d="M245.00001,119.17737l1.89784,-0.36593c0,0 0.97451,2.53435 -0.27126,2.77455c-1.24577,0.24019 -1.62659,-2.40862 -1.62659,-2.40862z" data-paper-data="{&quot;origPos&quot;:null,&quot;origRot&quot;:0}" fill="#e9e9e9" stroke="none" stroke-width="0" transform="matrix(1,0,0,1,-215.35577,-86.68635)"/><path d="M247.56244,118.38929l1.93406,-0.21976c0,0 0.63506,3.13529 -0.63447,3.27954c-1.26953,0.14426 -1.29959,-3.05978 -1.29959,-3.05978z" data-paper-data="{&quot;origPos&quot;:null,&quot;origRot&quot;:0,&quot;index&quot;:null}" fill="#e9e9e9" stroke="none" stroke-width="0" transform="matrix(1,0,0,1,-215.35577,-86.68635)"/><path d="M250.33113,118.2052l1.93998,0.14906c0,0 0.04564,3.05634 -1.22777,2.9585c-1.27341,-0.09784 -0.71222,-3.10756 -0.71222,-3.10756z" data-paper-data="{&quot;origPos&quot;:null,&quot;origRot&quot;:0,&quot;index&quot;:null}" fill="#e9e9e9" stroke="none" stroke-width="0" transform="matrix(1,0,0,1,-215.35577,-86.68635)"/><path d="M252.96122,119.21571l1.82106,0.67432c0,0 -0.82732,2.97201 -2.02268,2.52938c-1.19536,-0.44263 0.20162,-3.2037 0.20162,-3.2037z" data-paper-data="{&quot;origPos&quot;:null,&quot;origRot&quot;:0}" fill="#e9e9e9" stroke="none" stroke-width="0" transform="matrix(1,0,0,1,-215.35577,-86.68635)"/><path d="M250.92421,126.63618c1.27341,-0.10233 1.22777,3.0944 1.22777,3.0944l-1.93998,0.15591c0,0 -0.5612,-3.14798 0.71222,-3.25031z" data-paper-data="{&quot;origPos&quot;:null,&quot;origRot&quot;:0,&quot;index&quot;:null}" fill="#e9e9e9" stroke="none" stroke-width="0" transform="matrix(1,0,0,1,-215.35577,-86.68635)"/><path d="M249.4317,129.88647l-1.93998,-0.17645c0,0 -0.04565,-3.61794 1.22776,-3.50212c1.27341,0.11582 0.71222,3.67857 0.71222,3.67857z" data-paper-data="{&quot;origPos&quot;:null,&quot;origRot&quot;:0,&quot;index&quot;:null}" fill="#e9e9e9" stroke="none" stroke-width="0" transform="matrix(1,0,0,1,-215.35577,-86.68635)"/><path d="M252.8227,125.58425c1.18729,-0.50384 2.06737,2.71363 2.06737,2.71363l-1.80878,0.76758c0,0 -1.44588,-2.97736 -0.25859,-3.48121z" data-paper-data="{&quot;origPos&quot;:null,&quot;origRot&quot;:0,&quot;index&quot;:null}" fill="#e9e9e9" stroke="none" stroke-width="0" transform="matrix(1,0,0,1,-215.35577,-86.68635)"/><path d="M246.77657,128.9226l-1.80878,-0.67451c0,0 0.88007,-2.82737 2.06737,-2.38461c1.18729,0.44276 -0.25859,3.05913 -0.25859,3.05913z" data-paper-data="{&quot;origPos&quot;:null,&quot;origRot&quot;:0,&quot;index&quot;:null}" fill="#e9e9e9" stroke="none" stroke-width="0" transform="matrix(1,0,0,1,-215.35577,-86.68635)"/><path d="M 40.7828 37.2488 C 40.7828 40.7236 37.889 43.5405 34.3193 43.5405 C 30.7496 43.5405 27.8558 40.7236 27.8558 37.2488 C 27.8558 33.7741 30.7496 30.9572 34.3193 30.9572 C 37.889 30.9572 40.7828 33.7741 40.7828 37.2488 Z " fill="none" stroke="#000000" stroke-width="1"/></g><g stroke-linecap="round"><path d="M 18.0907 34.6454 L 20.392 33.3378 C 20.392 33.3378 19.2497 30.5251 19.7447 29.3061 C 20.2398 28.0871 22.6933 27.6716 22.6933 27.6716 " stroke-width="1" fill="none" stroke="#e65943"/><path d="M 20.5358 33.3378 L 21.6865 34.8633 " stroke-width="1" fill="none" stroke="#e65943"/></g><path d="M 33.5665 11.5313 C 33.5665 11.5313 34.9096 13.1803 34.5545 14.2454 C 34.1995 15.3104 32.1282 15.8464 32.1282 15.8464 " fill="none" stroke="#e65943" stroke-width="1" stroke-linecap="round"/><path d="M 46.7393 26.4131 C 46.7393 26.4131 47.5071 28.1734 47.7539 29.0785 C 48.0101 30.018 48.2496 31.9507 48.2496 31.9507 " fill="none" stroke="#e65943" stroke-width="1" stroke-linecap="round"/><path d="M251.14228,108.82305c0,-2.66148 2.15757,-4.81905 4.81905,-4.81905c2.66148,0 4.81905,2.15757 4.81905,4.81905c0,2.66148 -2.15757,4.81905 -4.81905,4.81905c-2.66148,0 -4.81905,-2.15757 -4.81905,-4.81905z" data-paper-data="{&quot;origPos&quot;:null}" fill="#000000" stroke="none" stroke-width="0" stroke-linecap="butt" transform="matrix(1,0,0,1,-215.35577,-86.68635)"/><path d="M 36.5748 19.2497 C 36.5748 19.2497 38.2956 17.286 39.303 16.5863 C 40.3102 15.8869 42.4502 14.7302 42.4502 14.7302 " data-paper-data="{&quot;index&quot;:null}" fill="none" stroke="#000000" stroke-width="2.5" stroke-linecap="round"/><path d="M 17.9433 24.022 C 17.9433 24.022 19.7489 25.3571 20.2862 26.0386 C 20.799 26.6889 21.0971 28.022 21.0971 28.022 " fill="none" stroke="#e65943" stroke-width="1" stroke-linecap="round"/><path d="M 24.0971 4.0989 C 24.0971 4.0989 23.4978 6.8245 22.9661 8.214 C 22.3757 9.7571 20.7125 12.9451 20.7125 12.9451 " fill="none" stroke="#e65943" stroke-width="1" stroke-linecap="round"/><path d="M 24.5587 11.7143 C 24.5587 11.7143 23.9799 10.7288 23.8531 10.0852 C 23.6687 9.1488 23.5587 6.6374 23.5587 6.6374 " fill="none" stroke="#e65943" stroke-width="1" stroke-linecap="round"/><path d="M 19.5587 10.3297 C 19.5587 10.3297 20.6188 9.5955 21.0945 9.4732 C 21.5072 9.3671 22.251 9.4066 22.251 9.4066 " fill="none" stroke="#e65943" stroke-width="1" stroke-linecap="round"/><g data-paper-data="{&quot;index&quot;:null}"><path d="M 29.5581 6.2686 C 29.5581 6.2686 29.4805 10.3321 29.0996 12.2139 C 28.7145 14.1168 27.26 17.6236 27.26 17.6236 " fill="none" stroke="#e65943" stroke-width="2" stroke-linecap="round"/><path d="M244.41327,89.65642c1.20168,-0.18319 2.6924,1.0395 2.85517,2.73095c0.16277,1.69145 -1.06405,3.21115 -2.26572,3.39434c-1.20168,0.18319 -2.6924,-1.0395 -2.85517,-2.73095c-0.16277,-1.69145 1.06404,-3.21115 2.26572,-3.39434z" fill="#ff916f" stroke="none" stroke-width="0" stroke-linecap="butt" transform="matrix(1,0,0,1,-215.35577,-86.68635)"/></g><g><path d="M 25.3193 24.1331 C 25.3193 24.1331 22.8532 20.9604 22.0711 19.1792 C 21.2977 17.4178 20.6527 13.5047 20.6527 13.5047 " fill="none" stroke="#e65943" stroke-width="2" stroke-linecap="round"/><path d="M239.29904,99.93289c0,1.65759 -1.36037,3.00133 -3.03846,3.00133c-1.6781,0 -3.03846,-1.34374 -3.03846,-3.00133c0,-1.65759 1.36036,-3.00133 3.03846,-3.00133c1.6781,0 3.03846,1.34374 3.03846,3.00133z" fill="#ff9778" stroke="none" stroke-width="0" stroke-linecap="butt" transform="matrix(1,0,0,1,-215.35577,-86.68635)"/></g><path d="M 29.3279 23.7143 C 29.3279 23.7143 28.0971 24.4015 27.4622 24.4297 C 26.9965 24.4504 25.8663 23.8681 25.8663 23.8681 " fill="none" stroke="#e65943" stroke-width="1" stroke-linecap="round"/><path d="M 25.6356 24.4066 C 25.6356 24.4066 26.2723 25.2839 26.4301 25.7048 C 26.5795 26.1032 26.5587 26.8681 26.5587 26.8681 " fill="none" stroke="#e65943" stroke-width="1" stroke-linecap="round"/><path d="M 25.8663 24.1758 C 25.8663 24.1758 25.1726 25.0137 24.7144 25.2563 C 24.3067 25.4721 23.251 25.5604 23.251 25.5604 " fill="none" stroke="#e65943" stroke-width="1" stroke-linecap="round"/><path d="M 16.3279 17.1758 C 16.3279 17.1758 16.2747 15.5434 16.5605 14.9854 C 16.8074 14.5033 17.9433 14.022 17.9433 14.022 " fill="none" stroke="#e65943" stroke-width="1" stroke-linecap="round"/><path d="M 16.0202 15.4066 C 16.0202 15.4066 15.5227 15.5388 15.2266 15.5717 C 14.8499 15.6135 13.9433 15.6374 13.9433 15.6374 " fill="none" stroke="#e65943" stroke-width="1" stroke-linecap="round"/><path d="M 28.3279 22.6374 C 28.3279 22.6374 28.114 23.1902 27.9713 23.4237 C 27.832 23.6516 27.4817 24.022 27.4817 24.022 " fill="none" stroke="#e65943" stroke-width="0.75" stroke-linecap="round"/><g><g data-paper-data="{&quot;index&quot;:null}"><path d="M 17.4237 2.7848 C 17.4237 2.7848 17.3479 5.722 16.9761 7.0823 C 16.6002 8.4578 15.4586 10.9926 15.4586 10.9926 " fill="none" stroke="#e65943" stroke-width="1" stroke-linecap="round"/><path d="M232.44467,87.08676c1.1729,-0.13242 2.25252,0.7514 2.41139,1.97405c0.15887,1.22266 -0.66316,2.32117 -1.83606,2.45358c-1.1729,0.13242 -2.25252,-0.7514 -2.41139,-1.97405c-0.15887,-1.22266 0.66316,-2.32117 1.83606,-2.45358z" fill="#ffa78c" stroke="none" stroke-width="0" stroke-linecap="butt" transform="matrix(1,0,0,1,-215.35577,-86.68635)"/></g><g data-paper-data="{&quot;index&quot;:null}"><path d="M 16.3311 14.6717 C 16.3311 14.6717 14.7518 11.1649 14.2318 9.262 C 13.7175 7.3802 13.6127 3.3167 13.6127 3.3167 " fill="none" stroke="#e65943" stroke-width="1.5" stroke-linecap="round"/><path d="M232.18447,90.09887c-0.21979,1.69145 -1.71335,2.91414 -3.33597,2.73095c-1.62262,-0.18319 -2.75983,-1.70289 -2.54004,-3.39434c0.21979,-1.69145 1.71335,-2.91414 3.33597,-2.73095c1.62262,0.18319 2.75983,1.70289 2.54004,3.39434z" fill="#ff9778" stroke="none" stroke-width="0" stroke-linecap="butt" transform="matrix(1,0,0,1,-215.35577,-86.68635)"/></g></g></g></g></svg>